  0
SECTION
  2
HEADER
  9
$ACADVER
  1
AC1009
  0
ENDSEC
  0
SECTION
  2
ENTITIES
  0
POLYLINE
  5
90
  8
Layer_1
  62
0
  70
1
  66
1
  10
0
  20
0
  30
0
  0
VERTEX
  5
90
  8
Layer_1
  10
112.08139
  20
382.08728
  0
VERTEX
  5
91
  8
Layer_1
  10
112.08139
  20
384.9223
  0
VERTEX
  5
92
  8
Layer_1
  10
130.08139
  20
384.9223
  0
VERTEX
  5
93
  8
Layer_1
  10
130.08139
  20
382.08728
  0
VERTEX
  5
94
  8
Layer_1
  10
112.08139
  20
382.08728
  0
SEQEND
  0
POLYLINE
  5
96
  8
Layer_1
  62
0
  70
1
  66
1
  10
0
  20
0
  30
0
  0
VERTEX
  5
96
  8
Layer_1
  10
145.96249
  20
400.3125
  0
VERTEX
  5
97
  8
Layer_1
  10
96.202484
  20
400.3125
  0
VERTEX
  5
98
  8
Layer_1
  10
95.73999
  20
400.29001
  0
VERTEX
  5
99
  8
Layer_1
  10
95.290009
  20
400.22
  0
VERTEX
  5
9a
  8
Layer_1
  10
94.857483
  20
400.10999
  0
VERTEX
  5
9b
  8
Layer_1
  10
94.440002
  20
399.95749
  0
VERTEX
  5
9c
  8
Layer_1
  10
94.044983
  20
399.76749
  0
VERTEX
  5
9d
  8
Layer_1
  10
93.672485
  20
399.54001
  0
VERTEX
  5
9e
  8
Layer_1
  10
93.324982
  20
399.28
  0
VERTEX
  5
9f
  8
Layer_1
  10
93.002502
  20
398.98749
  0
VERTEX
  5
a0
  8
Layer_1
  10
92.709991
  20
398.66501
  0
VERTEX
  5
a1
  8
Layer_1
  10
92.449982
  20
398.3175
  0
VERTEX
  5
a2
  8
Layer_1
  10
92.222504
  20
397.94501
  0
VERTEX
  5
a3
  8
Layer_1
  10
92.032501
  20
397.54999
  0
VERTEX
  5
a4
  8
Layer_1
  10
91.880005
  20
397.13251
  0
VERTEX
  5
a5
  8
Layer_1
  10
91.769989
  20
396.70001
  0
VERTEX
  5
a6
  8
Layer_1
  10
91.699982
  20
396.25
  0
VERTEX
  5
a7
  8
Layer_1
  10
91.67749
  20
395.78751
  0
VERTEX
  5
a8
  8
Layer_1
  10
91.67749
  20
377.6925
  0
VERTEX
  5
a9
  8
Layer_1
  10
91.699982
  20
377.23001
  0
VERTEX
  5
aa
  8
Layer_1
  10
91.769989
  20
376.78
  0
VERTEX
  5
ab
  8
Layer_1
  10
91.880005
  20
376.3475
  0
VERTEX
  5
ac
  8
Layer_1
  10
92.032501
  20
375.9325
  0
VERTEX
  5
ad
  8
Layer_1
  10
92.222504
  20
375.53751
  0
VERTEX
  5
ae
  8
Layer_1
  10
92.449982
  20
375.16501
  0
VERTEX
  5
af
  8
Layer_1
  10
92.709991
  20
374.815
  0
VERTEX
  5
b0
  8
Layer_1
  10
93.002502
  20
374.495
  0
VERTEX
  5
b1
  8
Layer_1
  10
93.324982
  20
374.20248
  0
VERTEX
  5
b2
  8
Layer_1
  10
93.672485
  20
373.9425
  0
VERTEX
  5
b3
  8
Layer_1
  10
94.044983
  20
373.715
  0
VERTEX
  5
b4
  8
Layer_1
  10
94.440002
  20
373.52499
  0
VERTEX
  5
b5
  8
Layer_1
  10
94.857483
  20
373.3725
  0
VERTEX
  5
b6
  8
Layer_1
  10
95.290009
  20
373.26251
  0
VERTEX
  5
b7
  8
Layer_1
  10
95.73999
  20
373.1925
  0
VERTEX
  5
b8
  8
Layer_1
  10
96.202484
  20
373.16998
  0
VERTEX
  5
b9
  8
Layer_1
  10
145.96249
  20
373.16998
  0
VERTEX
  5
ba
  8
Layer_1
  10
146.42499
  20
373.1925
  0
VERTEX
  5
bb
  8
Layer_1
  10
146.875
  20
373.26251
  0
VERTEX
  5
bc
  8
Layer_1
  10
147.3075
  20
373.3725
  0
VERTEX
  5
bd
  8
Layer_1
  10
147.72501
  20
373.52499
  0
VERTEX
  5
be
  8
Layer_1
  10
148.12
  20
373.715
  0
VERTEX
  5
bf
  8
Layer_1
  10
148.49249
  20
373.9425
  0
VERTEX
  5
c0
  8
Layer_1
  10
148.84
  20
374.20248
  0
VERTEX
  5
c1
  8
Layer_1
  10
149.16251
  20
374.495
  0
VERTEX
  5
c2
  8
Layer_1
  10
149.45499
  20
374.815
  0
VERTEX
  5
c3
  8
Layer_1
  10
149.715
  20
375.16501
  0
VERTEX
  5
c4
  8
Layer_1
  10
149.9425
  20
375.53751
  0
VERTEX
  5
c5
  8
Layer_1
  10
150.13251
  20
375.9325
  0
VERTEX
  5
c6
  8
Layer_1
  10
150.285
  20
376.3475
  0
VERTEX
  5
c7
  8
Layer_1
  10
150.39499
  20
376.78
  0
VERTEX
  5
c8
  8
Layer_1
  10
150.465
  20
377.23001
  0
VERTEX
  5
c9
  8
Layer_1
  10
150.48749
  20
377.6925
  0
VERTEX
  5
ca
  8
Layer_1
  10
150.48749
  20
395.78751
  0
VERTEX
  5
cb
  8
Layer_1
  10
150.465
  20
396.25
  0
VERTEX
  5
cc
  8
Layer_1
  10
150.39499
  20
396.70001
  0
VERTEX
  5
cd
  8
Layer_1
  10
150.285
  20
397.13251
  0
VERTEX
  5
ce
  8
Layer_1
  10
150.13251
  20
397.54999
  0
VERTEX
  5
cf
  8
Layer_1
  10
149.9425
  20
397.94501
  0
VERTEX
  5
d0
  8
Layer_1
  10
149.715
  20
398.3175
  0
VERTEX
  5
d1
  8
Layer_1
  10
149.45499
  20
398.66501
  0
VERTEX
  5
d2
  8
Layer_1
  10
149.16251
  20
398.98749
  0
VERTEX
  5
d3
  8
Layer_1
  10
148.84
  20
399.28
  0
VERTEX
  5
d4
  8
Layer_1
  10
148.49249
  20
399.54001
  0
VERTEX
  5
d5
  8
Layer_1
  10
148.12
  20
399.76749
  0
VERTEX
  5
d6
  8
Layer_1
  10
147.72501
  20
399.95749
  0
VERTEX
  5
d7
  8
Layer_1
  10
147.3075
  20
400.10999
  0
VERTEX
  5
d8
  8
Layer_1
  10
146.875
  20
400.22
  0
VERTEX
  5
d9
  8
Layer_1
  10
146.42499
  20
400.29001
  0
VERTEX
  5
da
  8
Layer_1
  10
145.96249
  20
400.3125
  0
SEQEND
  0
POLYLINE
  5
dc
  8
Layer_1
  62
0
  70
1
  66
1
  10
0
  20
0
  30
0
  0
VERTEX
  5
dc
  8
Layer_1
  10
112.08136
  20
391.39136
  0
VERTEX
  5
dd
  8
Layer_1
  10
130.08139
  20
391.39136
  0
VERTEX
  5
de
  8
Layer_1
  10
130.08139
  20
388.55634
  0
VERTEX
  5
df
  8
Layer_1
  10
112.08136
  20
388.55634
  0
VERTEX
  5
e0
  8
Layer_1
  10
112.08136
  20
391.39136
  0
SEQEND
  0
POLYLINE
  5
e2
  8
Layer_1
  62
0
  70
1
  66
1
  10
0
  20
0
  30
0
  0
VERTEX
  5
e2
  8
Layer_1
  10
135.98749
  20
367.34
  0
VERTEX
  5
e3
  8
Layer_1
  10
135.32001
  20
369.9725
  0
VERTEX
  5
e4
  8
Layer_1
  10
132.6875
  20
369.30499
  0
VERTEX
  5
e5
  8
Layer_1
  10
132.02249
  20
371.935
  0
VERTEX
  5
e6
  8
Layer_1
  10
114.48001
  20
367.48999
  0
VERTEX
  5
e7
  8
Layer_1
  10
115.14749
  20
364.85751
  0
VERTEX
  5
e8
  8
Layer_1
  10
112.51749
  20
364.1925
  0
VERTEX
  5
e9
  8
Layer_1
  10
113.185
  20
361.56
  0
VERTEX
  5
ea
  8
Layer_1
  10
113.88
  20
358.69501
  0
VERTEX
  5
eb
  8
Layer_1
  10
114.41501
  20
355.8125
  0
VERTEX
  5
ec
  8
Layer_1
  10
114.79251
  20
352.92001
  0
VERTEX
  5
ed
  8
Layer_1
  10
115.01248
  20
350.01999
  0
VERTEX
  5
ee
  8
Layer_1
  10
115.07999
  20
347.12
  0
VERTEX
  5
ef
  8
Layer_1
  10
114.98999
  20
344.22501
  0
VERTEX
  5
f0
  8
Layer_1
  10
114.7475
  20
341.345
  0
VERTEX
  5
f1
  8
Layer_1
  10
114.35251
  20
338.48251
  0
VERTEX
  5
f2
  8
Layer_1
  10
113.80499
  20
335.64499
  0
VERTEX
  5
f3
  8
Layer_1
  10
113.10748
  20
332.84
  0
VERTEX
  5
f4
  8
Layer_1
  10
112.26001
  20
330.07251
  0
VERTEX
  5
f5
  8
Layer_1
  10
111.26248
  20
327.3475
  0
VERTEX
  5
f6
  8
Layer_1
  10
110.12
  20
324.67249
  0
VERTEX
  5
f7
  8
Layer_1
  10
108.82999
  20
322.05499
  0
VERTEX
  5
f8
  8
Layer_1
  10
107.39499
  20
319.4975
  0
VERTEX
  5
f9
  8
Layer_1
  10
105.815
  20
317.01001
  0
VERTEX
  5
fa
  8
Layer_1
  10
108.04001
  20
308.23999
  0
VERTEX
  5
fb
  8
Layer_1
  10
110.4075
  20
309.565
  0
VERTEX
  5
fc
  8
Layer_1
  10
111.73248
  20
307.19501
  0
VERTEX
  5
fd
  8
Layer_1
  10
115.6825
  20
309.405
  0
VERTEX
  5
fe
  8
Layer_1
  10
114.35501
  20
311.77249
  0
VERTEX
  5
ff
  8
Layer_1
  10
122.2525
  20
316.19
  0
VERTEX
  5
100
  8
Layer_1
  10
123.57748
  20
313.82251
  0
VERTEX
  5
101
  8
Layer_1
  10
127.52499
  20
316.03
  0
VERTEX
  5
102
  8
Layer_1
  10
126.19998
  20
318.39999
  0
VERTEX
  5
103
  8
Layer_1
  10
128.57001
  20
319.72501
  0
VERTEX
  5
104
  8
Layer_1
  10
127.95248
  20
321.23001
  0
VERTEX
  5
105
  8
Layer_1
  10
127.39249
  20
322.7475
  0
VERTEX
  5
106
  8
Layer_1
  10
126.88748
  20
324.28
  0
VERTEX
  5
107
  8
Layer_1
  10
126.44
  20
325.82001
  0
VERTEX
  5
108
  8
Layer_1
  10
126.04999
  20
327.37
  0
VERTEX
  5
109
  8
Layer_1
  10
125.715
  20
328.92749
  0
VERTEX
  5
10a
  8
Layer_1
  10
125.4375
  20
330.48999
  0
VERTEX
  5
10b
  8
Layer_1
  10
125.215
  20
332.06
  0
VERTEX
  5
10c
  8
Layer_1
  10
125.04749
  20
333.63251
  0
VERTEX
  5
10d
  8
Layer_1
  10
124.935
  20
335.20499
  0
VERTEX
  5
10e
  8
Layer_1
  10
124.8775
  20
336.7775
  0
VERTEX
  5
10f
  8
Layer_1
  10
124.875
  20
338.35251
  0
VERTEX
  5
110
  8
Layer_1
  10
124.92749
  20
339.92249
  0
VERTEX
  5
111
  8
Layer_1
  10
125.035
  20
341.48749
  0
VERTEX
  5
112
  8
Layer_1
  10
125.19501
  20
343.04749
  0
VERTEX
  5
113
  8
Layer_1
  10
125.41
  20
344.60251
  0
VERTEX
  5
114
  8
Layer_1
  10
125.67749
  20
346.14749
  0
VERTEX
  5
115
  8
Layer_1
  10
126
  20
347.6825
  0
VERTEX
  5
116
  8
Layer_1
  10
126.375
  20
349.20749
  0
VERTEX
  5
117
  8
Layer_1
  10
126.80249
  20
350.72
  0
VERTEX
  5
118
  8
Layer_1
  10
127.2825
  20
352.2175
  0
VERTEX
  5
119
  8
Layer_1
  10
127.8175
  20
353.69751
  0
VERTEX
  5
11a
  8
Layer_1
  10
128.4025
  20
355.16251
  0
VERTEX
  5
11b
  8
Layer_1
  10
129.04001
  20
356.60999
  0
VERTEX
  5
11c
  8
Layer_1
  10
129.73001
  20
358.035
  0
VERTEX
  5
11d
  8
Layer_1
  10
130.47
  20
359.44
  0
VERTEX
  5
11e
  8
Layer_1
  10
131.26248
  20
360.82251
  0
VERTEX
  5
11f
  8
Layer_1
  10
132.10498
  20
362.17999
  0
VERTEX
  5
120
  8
Layer_1
  10
133
  20
363.51251
  0
VERTEX
  5
121
  8
Layer_1
  10
133.94501
  20
364.8175
  0
VERTEX
  5
122
  8
Layer_1
  10
134.9425
  20
366.095
  0
VERTEX
  5
123
  8
Layer_1
  10
135.98749
  20
367.34
  0
SEQEND
  0
POLYLINE
  5
125
  8
Layer_1
  62
0
  70
1
  66
1
  10
0
  20
0
  30
0
  0
VERTEX
  5
125
  8
Layer_1
  10
110.94501
  20
360.91751
  0
VERTEX
  5
126
  8
Layer_1
  10
111.6925
  20
358.3075
  0
VERTEX
  5
127
  8
Layer_1
  10
109.08249
  20
357.56
  0
VERTEX
  5
128
  8
Layer_1
  10
109.82999
  20
354.95248
  0
VERTEX
  5
129
  8
Layer_1
  10
92.434998
  20
349.965
  0
VERTEX
  5
12a
  8
Layer_1
  10
91.6875
  20
352.57501
  0
VERTEX
  5
12b
  8
Layer_1
  10
89.079987
  20
351.82748
  0
VERTEX
  5
12c
  8
Layer_1
  10
88.329987
  20
354.435
  0
VERTEX
  5
12d
  8
Layer_1
  10
87.92749
  20
355.85501
  0
VERTEX
  5
12e
  8
Layer_1
  10
87.48999
  20
357.26001
  0
VERTEX
  5
12f
  8
Layer_1
  10
87.012482
  20
358.64749
  0
VERTEX
  5
130
  8
Layer_1
  10
86.502502
  20
360.01999
  0
VERTEX
  5
131
  8
Layer_1
  10
85.954987
  20
361.375
  0
VERTEX
  5
132
  8
Layer_1
  10
85.372498
  20
362.71249
  0
VERTEX
  5
133
  8
Layer_1
  10
84.755005
  20
364.03
  0
VERTEX
  5
134
  8
Layer_1
  10
84.102509
  20
365.32999
  0
VERTEX
  5
135
  8
Layer_1
  10
83.417511
  20
366.60999
  0
VERTEX
  5
136
  8
Layer_1
  10
82.699982
  20
367.86749
  0
VERTEX
  5
137
  8
Layer_1
  10
81.949982
  20
369.10748
  0
VERTEX
  5
138
  8
Layer_1
  10
81.167511
  20
370.32251
  0
VERTEX
  5
139
  8
Layer_1
  10
80.352509
  20
371.51749
  0
VERTEX
  5
13a
  8
Layer_1
  10
79.507507
  20
372.69
  0
VERTEX
  5
13b
  8
Layer_1
  10
78.632507
  20
373.84
  0
VERTEX
  5
13c
  8
Layer_1
  10
77.725006
  20
374.965
  0
VERTEX
  5
13d
  8
Layer_1
  10
76.790009
  20
376.065
  0
VERTEX
  5
13e
  8
Layer_1
  10
75.825012
  20
377.13998
  0
VERTEX
  5
13f
  8
Layer_1
  10
74.832489
  20
378.19
  0
VERTEX
  5
140
  8
Layer_1
  10
73.809998
  20
379.21249
  0
VERTEX
  5
141
  8
Layer_1
  10
72.76001
  20
380.20999
  0
VERTEX
  5
142
  8
Layer_1
  10
71.684998
  20
381.17999
  0
VERTEX
  5
143
  8
Layer_1
  10
70.582489
  20
382.12
  0
VERTEX
  5
144
  8
Layer_1
  10
69.452484
  20
383.0325
  0
VERTEX
  5
145
  8
Layer_1
  10
68.297485
  20
383.91501
  0
VERTEX
  5
146
  8
Layer_1
  10
67.119995
  20
384.76749
  0
VERTEX
  5
147
  8
Layer_1
  10
65.915009
  20
385.59
  0
VERTEX
  5
148
  8
Layer_1
  10
64.6875
  20
386.38
  0
VERTEX
  5
149
  8
Layer_1
  10
63.434998
  20
387.13998
  0
VERTEX
  5
14a
  8
Layer_1
  10
62.160004
  20
387.86749
  0
VERTEX
  5
14b
  8
Layer_1
  10
60.862488
  20
388.56
  0
VERTEX
  5
14c
  8
Layer_1
  10
59.542511
  20
389.2225
  0
VERTEX
  5
14d
  8
Layer_1
  10
57.047485
  20
397.91998
  0
VERTEX
  5
14e
  8
Layer_1
  10
59.762512
  20
397.9675
  0
VERTEX
  5
14f
  8
Layer_1
  10
59.714996
  20
400.6825
  0
VERTEX
  5
150
  8
Layer_1
  10
64.237488
  20
400.76001
  0
VERTEX
  5
151
  8
Layer_1
  10
64.285004
  20
398.04749
  0
VERTEX
  5
152
  8
Layer_1
  10
73.332489
  20
398.20248
  0
VERTEX
  5
153
  8
Layer_1
  10
73.285004
  20
400.91751
  0
VERTEX
  5
154
  8
Layer_1
  10
77.807495
  20
400.995
  0
VERTEX
  5
155
  8
Layer_1
  10
77.855011
  20
398.2825
  0
VERTEX
  5
156
  8
Layer_1
  10
80.570007
  20
398.32999
  0
VERTEX
  5
157
  8
Layer_1
  10
80.794983
  20
396.7175
  0
VERTEX
  5
158
  8
Layer_1
  10
81.074982
  20
395.125
  0
VERTEX
  5
159
  8
Layer_1
  10
81.410004
  20
393.54749
  0
VERTEX
  5
15a
  8
Layer_1
  10
81.797485
  20
391.99249
  0
VERTEX
  5
15b
  8
Layer_1
  10
82.242493
  20
390.45499
  0
VERTEX
  5
15c
  8
Layer_1
  10
82.737488
  20
388.9425
  0
VERTEX
  5
15d
  8
Layer_1
  10
83.282501
  20
387.45001
  0
VERTEX
  5
15e
  8
Layer_1
  10
83.880005
  20
385.98248
  0
VERTEX
  5
15f
  8
Layer_1
  10
84.524994
  20
384.54001
  0
VERTEX
  5
160
  8
Layer_1
  10
85.220001
  20
383.125
  0
VERTEX
  5
161
  8
Layer_1
  10
85.964996
  20
381.73499
  0
VERTEX
  5
162
  8
Layer_1
  10
86.752502
  20
380.375
  0
VERTEX
  5
163
  8
Layer_1
  10
87.589996
  20
379.04498
  0
VERTEX
  5
164
  8
Layer_1
  10
88.470001
  20
377.745
  0
VERTEX
  5
165
  8
Layer_1
  10
89.394989
  20
376.47751
  0
VERTEX
  5
166
  8
Layer_1
  10
90.362488
  20
375.24249
  0
VERTEX
  5
167
  8
Layer_1
  10
91.369995
  20
374.04251
  0
VERTEX
  5
168
  8
Layer_1
  10
92.422485
  20
372.8775
  0
VERTEX
  5
169
  8
Layer_1
  10
93.512482
  20
371.7475
  0
VERTEX
  5
16a
  8
Layer_1
  10
94.642487
  20
370.6575
  0
VERTEX
  5
16b
  8
Layer_1
  10
95.8125
  20
369.60501
  0
VERTEX
  5
16c
  8
Layer_1
  10
97.019989
  20
368.5925
  0
VERTEX
  5
16d
  8
Layer_1
  10
98.262482
  20
367.6225
  0
VERTEX
  5
16e
  8
Layer_1
  10
99.540009
  20
366.6925
  0
VERTEX
  5
16f
  8
Layer_1
  10
100.85501
  20
365.8075
  0
VERTEX
  5
170
  8
Layer_1
  10
102.20248
  20
364.965
  0
VERTEX
  5
171
  8
Layer_1
  10
103.58249
  20
364.17001
  0
VERTEX
  5
172
  8
Layer_1
  10
104.995
  20
363.42249
  0
VERTEX
  5
173
  8
Layer_1
  10
106.4375
  20
362.72
  0
VERTEX
  5
174
  8
Layer_1
  10
107.91251
  20
362.07001
  0
VERTEX
  5
175
  8
Layer_1
  10
109.41501
  20
361.4675
  0
VERTEX
  5
176
  8
Layer_1
  10
110.94501
  20
360.91751
  0
SEQEND
  0
POLYLINE
  5
178
  8
Layer_0
  62
5
  70
1
  66
1
  10
0
  20
0
  30
0
  0
VERTEX
  5
178
  8
Layer_0
  10
46.08371
  20
352.06854
  0
VERTEX
  5
179
  8
Layer_0
  10
46.08371
  20
399.11615
  0
VERTEX
  5
17a
  8
Layer_0
  10
48.345612
  20
399.11615
  0
VERTEX
  5
17b
  8
Layer_0
  10
48.345612
  20
352.06854
  0
VERTEX
  5
17c
  8
Layer_0
  10
46.08371
  20
352.06854
  0
SEQEND
  0
POLYLINE
  5
17e
  8
Layer_1
  62
0
  70
1
  66
1
  10
0
  20
0
  30
0
  0
VERTEX
  5
17e
  8
Layer_1
  10
15.502502
  20
325.28
  0
VERTEX
  5
17f
  8
Layer_1
  10
16.227509
  20
325.07748
  0
VERTEX
  5
180
  8
Layer_1
  10
13.512512
  20
323.11749
  0
VERTEX
  5
181
  8
Layer_1
  10
13.512512
  20
305.02249
  0
VERTEX
  5
182
  8
Layer_1
  10
15.317505
  20
305.02249
  0
VERTEX
  5
183
  8
Layer_1
  10
15.630005
  20
305.0325
  0
VERTEX
  5
184
  8
Layer_1
  10
15.9375
  20
305.065
  0
VERTEX
  5
185
  8
Layer_1
  10
16.23999
  20
305.11749
  0
VERTEX
  5
186
  8
Layer_1
  10
16.537506
  20
305.19
  0
VERTEX
  5
187
  8
Layer_1
  10
16.827484
  20
305.2825
  0
VERTEX
  5
188
  8
Layer_1
  10
17.109985
  20
305.39249
  0
VERTEX
  5
189
  8
Layer_1
  10
17.382507
  20
305.52249
  0
VERTEX
  5
18a
  8
Layer_1
  10
17.647491
  20
305.66751
  0
VERTEX
  5
18b
  8
Layer_1
  10
17.902496
  20
305.83249
  0
VERTEX
  5
18c
  8
Layer_1
  10
18.144989
  20
306.01501
  0
VERTEX
  5
18d
  8
Layer_1
  10
18.375
  20
306.21249
  0
VERTEX
  5
18e
  8
Layer_1
  10
18.592499
  20
306.42499
  0
VERTEX
  5
18f
  8
Layer_1
  10
18.795013
  20
306.6525
  0
VERTEX
  5
190
  8
Layer_1
  10
18.984985
  20
306.89749
  0
VERTEX
  5
191
  8
Layer_1
  10
19.157501
  20
307.155
  0
VERTEX
  5
192
  8
Layer_1
  10
19.3125
  20
307.42499
  0
VERTEX
  5
193
  8
Layer_1
  10
27.084991
  20
322.0625
  0
VERTEX
  5
194
  8
Layer_1
  10
29.204987
  20
321.4725
  0
VERTEX
  5
195
  8
Layer_1
  10
29.502502
  20
321.39999
  0
VERTEX
  5
196
  8
Layer_1
  10
29.804993
  20
321.35001
  0
VERTEX
  5
197
  8
Layer_1
  10
30.109985
  20
321.3175
  0
VERTEX
  5
198
  8
Layer_1
  10
30.415009
  20
321.3075
  0
VERTEX
  5
199
  8
Layer_1
  10
45.179993
  20
321.3075
  0
VERTEX
  5
19a
  8
Layer_1
  10
45.179993
  20
273.35501
  0
VERTEX
  5
19b
  8
Layer_1
  10
50.764984
  20
273.35501
  0
VERTEX
  5
19c
  8
Layer_1
  10
51.144989
  20
273.37003
  0
VERTEX
  5
19d
  8
Layer_1
  10
51.517487
  20
273.41751
  0
VERTEX
  5
19e
  8
Layer_1
  10
51.882507
  20
273.49503
  0
VERTEX
  5
19f
  8
Layer_1
  10
52.234985
  20
273.60001
  0
VERTEX
  5
1a0
  8
Layer_1
  10
52.577484
  20
273.73251
  0
VERTEX
  5
1a1
  8
Layer_1
  10
52.904999
  20
273.89252
  0
VERTEX
  5
1a2
  8
Layer_1
  10
53.217499
  20
274.07751
  0
VERTEX
  5
1a3
  8
Layer_1
  10
53.514984
  20
274.28751
  0
VERTEX
  5
1a4
  8
Layer_1
  10
53.794983
  20
274.52002
  0
VERTEX
  5
1a5
  8
Layer_1
  10
54.054993
  20
274.77252
  0
VERTEX
  5
1a6
  8
Layer_1
  10
54.294983
  20
275.04752
  0
VERTEX
  5
1a7
  8
Layer_1
  10
54.512512
  20
275.34253
  0
VERTEX
  5
1a8
  8
Layer_1
  10
54.704987
  20
275.6575
  0
VERTEX
  5
1a9
  8
Layer_1
  10
54.875
  20
275.98752
  0
VERTEX
  5
1aa
  8
Layer_1
  10
55.017487
  20
276.33502
  0
VERTEX
  5
1ab
  8
Layer_1
  10
55.132507
  20
276.69751
  0
VERTEX
  5
1ac
  8
Layer_1
  10
65.98999
  20
316.785
  0
VERTEX
  5
1ad
  8
Layer_1
  10
87.929993
  20
325.1225
  0
VERTEX
  5
1ae
  8
Layer_1
  10
88.617493
  20
325.35001
  0
VERTEX
  5
1af
  8
Layer_1
  10
89.320007
  20
325.52499
  0
VERTEX
  5
1b0
  8
Layer_1
  10
101.82251
  20
328.10001
  0
VERTEX
  5
1b1
  8
Layer_1
  10
102.05499
  20
328.1575
  0
VERTEX
  5
1b2
  8
Layer_1
  10
102.2775
  20
328.23499
  0
VERTEX
  5
1b3
  8
Layer_1
  10
102.49249
  20
328.33249
  0
VERTEX
  5
1b4
  8
Layer_1
  10
102.69501
  20
328.44501
  0
VERTEX
  5
1b5
  8
Layer_1
  10
102.88501
  20
328.57251
  0
VERTEX
  5
1b6
  8
Layer_1
  10
103.0625
  20
328.715
  0
VERTEX
  5
1b7
  8
Layer_1
  10
103.38
  20
329.04251
  0
VERTEX
  5
1b8
  8
Layer_1
  10
103.51498
  20
329.22501
  0
VERTEX
  5
1b9
  8
Layer_1
  10
103.63748
  20
329.42001
  0
VERTEX
  5
1ba
  8
Layer_1
  10
103.74249
  20
329.6225
  0
VERTEX
  5
1bb
  8
Layer_1
  10
103.82999
  20
329.83499
  0
VERTEX
  5
1bc
  8
Layer_1
  10
103.89749
  20
330.0575
  0
VERTEX
  5
1bd
  8
Layer_1
  10
103.94751
  20
330.285
  0
VERTEX
  5
1be
  8
Layer_1
  10
103.98001
  20
330.51749
  0
VERTEX
  5
1bf
  8
Layer_1
  10
103.98999
  20
330.75751
  0
VERTEX
  5
1c0
  8
Layer_1
  10
103.98999
  20
335.26498
  0
VERTEX
  5
1c1
  8
Layer_1
  10
76.847504
  20
335.26498
  0
VERTEX
  5
1c2
  8
Layer_1
  10
76.847504
  20
338.11499
  0
VERTEX
  5
1c3
  8
Layer_1
  10
103.98999
  20
338.11499
  0
VERTEX
  5
1c4
  8
Layer_1
  10
103.98999
  20
342.62
  0
VERTEX
  5
1c5
  8
Layer_1
  10
103.98001
  20
342.85999
  0
VERTEX
  5
1c6
  8
Layer_1
  10
103.94751
  20
343.0925
  0
VERTEX
  5
1c7
  8
Layer_1
  10
103.89749
  20
343.32001
  0
VERTEX
  5
1c8
  8
Layer_1
  10
103.82999
  20
343.54251
  0
VERTEX
  5
1c9
  8
Layer_1
  10
103.74249
  20
343.755
  0
VERTEX
  5
1ca
  8
Layer_1
  10
103.63748
  20
343.95749
  0
VERTEX
  5
1cb
  8
Layer_1
  10
103.51498
  20
344.1525
  0
VERTEX
  5
1cc
  8
Layer_1
  10
103.38
  20
344.33499
  0
VERTEX
  5
1cd
  8
Layer_1
  10
103.0625
  20
344.66251
  0
VERTEX
  5
1ce
  8
Layer_1
  10
102.88501
  20
344.80499
  0
VERTEX
  5
1cf
  8
Layer_1
  10
102.69501
  20
344.9325
  0
VERTEX
  5
1d0
  8
Layer_1
  10
102.49249
  20
345.04501
  0
VERTEX
  5
1d1
  8
Layer_1
  10
102.2775
  20
345.14249
  0
VERTEX
  5
1d2
  8
Layer_1
  10
102.05499
  20
345.22
  0
VERTEX
  5
1d3
  8
Layer_1
  10
101.82251
  20
345.2775
  0
VERTEX
  5
1d4
  8
Layer_1
  10
89.320007
  20
347.85251
  0
VERTEX
  5
1d5
  8
Layer_1
  10
88.617493
  20
348.0275
  0
VERTEX
  5
1d6
  8
Layer_1
  10
87.929993
  20
348.255
  0
VERTEX
  5
1d7
  8
Layer_1
  10
65.98999
  20
356.5925
  0
VERTEX
  5
1d8
  8
Layer_1
  10
55.132507
  20
396.67999
  0
VERTEX
  5
1d9
  8
Layer_1
  10
55.017487
  20
397.04251
  0
VERTEX
  5
1da
  8
Layer_1
  10
54.875
  20
397.38998
  0
VERTEX
  5
1db
  8
Layer_1
  10
54.704987
  20
397.72
  0
VERTEX
  5
1dc
  8
Layer_1
  10
54.512512
  20
398.035
  0
VERTEX
  5
1dd
  8
Layer_1
  10
54.294983
  20
398.32999
  0
VERTEX
  5
1de
  8
Layer_1
  10
54.054993
  20
398.60501
  0
VERTEX
  5
1df
  8
Layer_1
  10
53.794983
  20
398.85748
  0
VERTEX
  5
1e0
  8
Layer_1
  10
53.514984
  20
399.09
  0
VERTEX
  5
1e1
  8
Layer_1
  10
53.217499
  20
399.29999
  0
VERTEX
  5
1e2
  8
Layer_1
  10
52.904999
  20
399.48499
  0
VERTEX
  5
1e3
  8
Layer_1
  10
52.577484
  20
399.64499
  0
VERTEX
  5
1e4
  8
Layer_1
  10
52.234985
  20
399.7775
  0
VERTEX
  5
1e5
  8
Layer_1
  10
51.882507
  20
399.88251
  0
VERTEX
  5
1e6
  8
Layer_1
  10
51.517487
  20
399.95999
  0
VERTEX
  5
1e7
  8
Layer_1
  10
51.144989
  20
400.00751
  0
VERTEX
  5
1e8
  8
Layer_1
  10
50.764984
  20
400.02249
  0
VERTEX
  5
1e9
  8
Layer_1
  10
45.179993
  20
400.02249
  0
VERTEX
  5
1ea
  8
Layer_1
  10
45.179993
  20
352.07001
  0
VERTEX
  5
1eb
  8
Layer_1
  10
30.415009
  20
352.07001
  0
VERTEX
  5
1ec
  8
Layer_1
  10
30.109985
  20
352.06
  0
VERTEX
  5
1ed
  8
Layer_1
  10
29.804993
  20
352.03
  0
VERTEX
  5
1ee
  8
Layer_1
  10
29.502502
  20
351.97751
  0
VERTEX
  5
1ef
  8
Layer_1
  10
29.204987
  20
351.905
  0
VERTEX
  5
1f0
  8
Layer_1
  10
27.084991
  20
351.315
  0
VERTEX
  5
1f1
  8
Layer_1
  10
19.3125
  20
365.95248
  0
VERTEX
  5
1f2
  8
Layer_1
  10
19.157501
  20
366.2225
  0
VERTEX
  5
1f3
  8
Layer_1
  10
18.984985
  20
366.48001
  0
VERTEX
  5
1f4
  8
Layer_1
  10
18.795013
  20
366.72501
  0
VERTEX
  5
1f5
  8
Layer_1
  10
18.592499
  20
366.95248
  0
VERTEX
  5
1f6
  8
Layer_1
  10
18.375
  20
367.16501
  0
VERTEX
  5
1f7
  8
Layer_1
  10
18.144989
  20
367.36249
  0
VERTEX
  5
1f8
  8
Layer_1
  10
17.902496
  20
367.54501
  0
VERTEX
  5
1f9
  8
Layer_1
  10
17.647491
  20
367.70749
  0
VERTEX
  5
1fa
  8
Layer_1
  10
17.382507
  20
367.85501
  0
VERTEX
  5
1fb
  8
Layer_1
  10
17.109985
  20
367.98499
  0
VERTEX
  5
1fc
  8
Layer_1
  10
16.827484
  20
368.095
  0
VERTEX
  5
1fd
  8
Layer_1
  10
16.537506
  20
368.1875
  0
VERTEX
  5
1fe
  8
Layer_1
  10
16.23999
  20
368.26001
  0
VERTEX
  5
1ff
  8
Layer_1
  10
15.9375
  20
368.3125
  0
VERTEX
  5
200
  8
Layer_1
  10
15.630005
  20
368.345
  0
VERTEX
  5
201
  8
Layer_1
  10
15.317505
  20
368.35501
  0
VERTEX
  5
202
  8
Layer_1
  10
13.512512
  20
368.35501
  0
VERTEX
  5
203
  8
Layer_1
  10
13.512512
  20
350.26001
  0
VERTEX
  5
204
  8
Layer_1
  10
16.227509
  20
348.29999
  0
VERTEX
  5
205
  8
Layer_1
  10
15.502502
  20
348.0975
  0
VERTEX
  5
206
  8
Layer_1
  10
15.287506
  20
348.0275
  0
VERTEX
  5
207
  8
Layer_1
  10
15.079987
  20
347.9425
  0
VERTEX
  5
208
  8
Layer_1
  10
14.882507
  20
347.84
  0
VERTEX
  5
209
  8
Layer_1
  10
14.695007
  20
347.7225
  0
VERTEX
  5
20a
  8
Layer_1
  10
14.357513
  20
347.45001
  0
VERTEX
  5
20b
  8
Layer_1
  10
14.067505
  20
347.125
  0
VERTEX
  5
20c
  8
Layer_1
  10
13.942505
  20
346.94751
  0
VERTEX
  5
20d
  8
Layer_1
  10
13.832489
  20
346.76001
  0
VERTEX
  5
20e
  8
Layer_1
  10
13.737488
  20
346.565
  0
VERTEX
  5
20f
  8
Layer_1
  10
13.657501
  20
346.35999
  0
VERTEX
  5
210
  8
Layer_1
  10
13.595001
  20
346.14999
  0
VERTEX
  5
211
  8
Layer_1
  10
13.549988
  20
345.9325
  0
VERTEX
  5
212
  8
Layer_1
  10
13.522491
  20
345.70999
  0
VERTEX
  5
213
  8
Layer_1
  10
13.512512
  20
345.48251
  0
VERTEX
  5
214
  8
Layer_1
  10
13.512512
  20
344.51498
  0
VERTEX
  5
215
  8
Layer_1
  10
21.657501
  20
344.51498
  0
VERTEX
  5
216
  8
Layer_1
  10
21.657501
  20
341.66501
  0
VERTEX
  5
217
  8
Layer_1
  10
13.512512
  20
341.66501
  0
VERTEX
  5
218
  8
Layer_1
  10
13.512512
  20
331.71249
  0
VERTEX
  5
219
  8
Layer_1
  10
21.657501
  20
331.71249
  0
VERTEX
  5
21a
  8
Layer_1
  10
21.657501
  20
328.86249
  0
VERTEX
  5
21b
  8
Layer_1
  10
13.512512
  20
328.86249
  0
VERTEX
  5
21c
  8
Layer_1
  10
13.512512
  20
327.89499
  0
VERTEX
  5
21d
  8
Layer_1
  10
13.522491
  20
327.66751
  0
VERTEX
  5
21e
  8
Layer_1
  10
13.549988
  20
327.44501
  0
VERTEX
  5
21f
  8
Layer_1
  10
13.595001
  20
327.22751
  0
VERTEX
  5
220
  8
Layer_1
  10
13.657501
  20
327.01749
  0
VERTEX
  5
221
  8
Layer_1
  10
13.737488
  20
326.8125
  0
VERTEX
  5
222
  8
Layer_1
  10
13.832489
  20
326.61749
  0
VERTEX
  5
223
  8
Layer_1
  10
13.942505
  20
326.42999
  0
VERTEX
  5
224
  8
Layer_1
  10
14.067505
  20
326.2525
  0
VERTEX
  5
225
  8
Layer_1
  10
14.357513
  20
325.92749
  0
VERTEX
  5
226
  8
Layer_1
  10
14.695007
  20
325.655
  0
VERTEX
  5
227
  8
Layer_1
  10
14.882507
  20
325.53751
  0
VERTEX
  5
228
  8
Layer_1
  10
15.079987
  20
325.435
  0
VERTEX
  5
229
  8
Layer_1
  10
15.287506
  20
325.35001
  0
VERTEX
  5
22a
  8
Layer_1
  10
15.502502
  20
325.28
  0
SEQEND
  0
POLYLINE
  5
22c
  8
Layer_1
  62
0
  70
1
  66
1
  10
0
  20
0
  30
0
  0
VERTEX
  5
22c
  8
Layer_1
  10
66.89325
  20
338.49713
  0
VERTEX
  5
22d
  8
Layer_1
  10
62.278961
  20
338.49713
  0
VERTEX
  5
22e
  8
Layer_1
  10
62.278961
  20
341.34711
  0
VERTEX
  5
22f
  8
Layer_1
  10
66.89325
  20
341.34711
  0
VERTEX
  5
230
  8
Layer_1
  10
66.89325
  20
338.49713
  0
SEQEND
  0
POLYLINE
  5
232
  8
Layer_1
  62
0
  70
1
  66
1
  10
0
  20
0
  30
0
  0
VERTEX
  5
232
  8
Layer_1
  10
48.70752
  20
338.49713
  0
VERTEX
  5
233
  8
Layer_1
  10
53.321808
  20
338.49713
  0
VERTEX
  5
234
  8
Layer_1
  10
53.321808
  20
341.34711
  0
VERTEX
  5
235
  8
Layer_1
  10
48.70752
  20
341.34711
  0
VERTEX
  5
236
  8
Layer_1
  10
48.70752
  20
338.49713
  0
SEQEND
  0
POLYLINE
  5
238
  8
Layer_1
  62
0
  70
1
  66
1
  10
0
  20
0
  30
0
  0
VERTEX
  5
238
  8
Layer_1
  10
44.27417
  20
335.26263
  0
VERTEX
  5
239
  8
Layer_1
  10
44.27417
  20
338.11264
  0
VERTEX
  5
23a
  8
Layer_1
  10
41.424194
  20
338.11264
  0
VERTEX
  5
23b
  8
Layer_1
  10
41.424194
  20
335.26263
  0
VERTEX
  5
23c
  8
Layer_1
  10
44.27417
  20
335.26263
  0
SEQEND
  0
POLYLINE
  5
23e
  8
Layer_1
  62
0
  70
1
  66
1
  10
0
  20
0
  30
0
  0
VERTEX
  5
23e
  8
Layer_1
  10
30.702759
  20
341.66382
  0
VERTEX
  5
23f
  8
Layer_1
  10
27.852783
  20
341.66382
  0
VERTEX
  5
240
  8
Layer_1
  10
27.852783
  20
344.51379
  0
VERTEX
  5
241
  8
Layer_1
  10
30.702759
  20
344.51379
  0
VERTEX
  5
242
  8
Layer_1
  10
30.702759
  20
341.66382
  0
SEQEND
  0
POLYLINE
  5
244
  8
Layer_1
  62
0
  70
1
  66
1
  10
0
  20
0
  30
0
  0
VERTEX
  5
244
  8
Layer_1
  10
30.702759
  20
331.71143
  0
VERTEX
  5
245
  8
Layer_1
  10
30.702759
  20
328.86145
  0
VERTEX
  5
246
  8
Layer_1
  10
27.852783
  20
328.86145
  0
VERTEX
  5
247
  8
Layer_1
  10
27.852783
  20
331.71143
  0
VERTEX
  5
248
  8
Layer_1
  10
30.702759
  20
331.71143
  0
SEQEND
  0
POLYLINE
  5
24a
  8
Layer_1
  62
0
  70
1
  66
1
  10
0
  20
0
  30
0
  0
VERTEX
  5
24a
  8
Layer_1
  10
53.321808
  20
334.87808
  0
VERTEX
  5
24b
  8
Layer_1
  10
53.321808
  20
332.02811
  0
VERTEX
  5
24c
  8
Layer_1
  10
48.70752
  20
332.02811
  0
VERTEX
  5
24d
  8
Layer_1
  10
48.70752
  20
334.87808
  0
VERTEX
  5
24e
  8
Layer_1
  10
53.321808
  20
334.87808
  0
SEQEND
  0
POLYLINE
  5
250
  8
Layer_1
  62
0
  70
1
  66
1
  10
0
  20
0
  30
0
  0
VERTEX
  5
250
  8
Layer_1
  10
66.89325
  20
334.87808
  0
VERTEX
  5
251
  8
Layer_1
  10
66.89325
  20
332.02811
  0
VERTEX
  5
252
  8
Layer_1
  10
62.278961
  20
332.02811
  0
VERTEX
  5
253
  8
Layer_1
  10
62.278961
  20
334.87808
  0
VERTEX
  5
254
  8
Layer_1
  10
66.89325
  20
334.87808
  0
SEQEND
  0
POLYLINE
  5
256
  8
Layer_0
  62
5
  70
1
  66
1
  10
0
  20
0
  30
0
  0
VERTEX
  5
256
  8
Layer_0
  10
18.512512
  20
307.8475
  0
VERTEX
  5
257
  8
Layer_0
  10
26.192505
  20
322.31
  0
VERTEX
  5
258
  8
Layer_0
  10
17.345001
  20
324.76749
  0
VERTEX
  5
259
  8
Layer_0
  10
14.417511
  20
322.655
  0
VERTEX
  5
25a
  8
Layer_0
  10
14.417511
  20
305.92749
  0
VERTEX
  5
25b
  8
Layer_0
  10
15.317505
  20
305.92749
  0
VERTEX
  5
25c
  8
Layer_0
  10
15.567505
  20
305.935
  0
VERTEX
  5
25d
  8
Layer_0
  10
15.8125
  20
305.96249
  0
VERTEX
  5
25e
  8
Layer_0
  10
16.054993
  20
306.0025
  0
VERTEX
  5
25f
  8
Layer_0
  10
16.292511
  20
306.06
  0
VERTEX
  5
260
  8
Layer_0
  10
16.524994
  20
306.13501
  0
VERTEX
  5
261
  8
Layer_0
  10
16.75
  20
306.2225
  0
VERTEX
  5
262
  8
Layer_0
  10
17.179993
  20
306.44501
  0
VERTEX
  5
263
  8
Layer_0
  10
17.577484
  20
306.72
  0
VERTEX
  5
264
  8
Layer_0
  10
17.9375
  20
307.04749
  0
VERTEX
  5
265
  8
Layer_0
  10
18.25
  20
307.42499
  0
VERTEX
  5
266
  8
Layer_0
  10
18.512512
  20
307.8475
  0
SEQEND
  0
POLYLINE
  5
268
  8
Layer_0
  62
5
  70
1
  66
1
  10
0
  20
0
  30
0
  0
VERTEX
  5
268
  8
Layer_0
  10
46.08371
  20
321.30664
  0
VERTEX
  5
269
  8
Layer_0
  10
48.345612
  20
321.30664
  0
VERTEX
  5
26a
  8
Layer_0
  10
48.345612
  20
274.25903
  0
VERTEX
  5
26b
  8
Layer_0
  10
46.08371
  20
274.25903
  0
VERTEX
  5
26c
  8
Layer_0
  10
46.08371
  20
321.30664
  0
SEQEND
  0
POLYLINE
  5
26e
  8
Layer_0
  62
5
  70
1
  66
1
  10
0
  20
0
  30
0
  0
VERTEX
  5
26e
  8
Layer_0
  10
15.317505
  20
367.45001
  0
VERTEX
  5
26f
  8
Layer_0
  10
14.417511
  20
367.45001
  0
VERTEX
  5
270
  8
Layer_0
  10
14.417511
  20
350.7225
  0
VERTEX
  5
271
  8
Layer_0
  10
17.345001
  20
348.60999
  0
VERTEX
  5
272
  8
Layer_0
  10
26.192505
  20
351.0675
  0
VERTEX
  5
273
  8
Layer_0
  10
18.512512
  20
365.53
  0
VERTEX
  5
274
  8
Layer_0
  10
18.25
  20
365.95248
  0
VERTEX
  5
275
  8
Layer_0
  10
17.9375
  20
366.32999
  0
VERTEX
  5
276
  8
Layer_0
  10
17.577484
  20
366.6575
  0
VERTEX
  5
277
  8
Layer_0
  10
17.182495
  20
366.9325
  0
VERTEX
  5
278
  8
Layer_0
  10
16.75
  20
367.155
  0
VERTEX
  5
279
  8
Layer_0
  10
16.524994
  20
367.24249
  0
VERTEX
  5
27a
  8
Layer_0
  10
16.292511
  20
367.3175
  0
VERTEX
  5
27b
  8
Layer_0
  10
16.054993
  20
367.375
  0
VERTEX
  5
27c
  8
Layer_0
  10
15.8125
  20
367.41501
  0
VERTEX
  5
27d
  8
Layer_0
  10
15.567505
  20
367.4425
  0
VERTEX
  5
27e
  8
Layer_0
  10
15.317505
  20
367.45001
  0
SEQEND
  0
POLYLINE
  5
280
  8
Layer_0
  62
5
  66
1
  10
0
  20
0
  30
0
  0
VERTEX
  5
280
  8
Layer_0
  10
46.08371
  20
315.42566
  0
VERTEX
  5
281
  8
Layer_0
  10
48.345612
  20
315.42566
  0
SEQEND
  0
POLYLINE
  5
283
  8
Layer_0
  62
5
  66
1
  10
0
  20
0
  30
0
  0
VERTEX
  5
283
  8
Layer_0
  10
48.345612
  20
309.54477
  0
VERTEX
  5
284
  8
Layer_0
  10
46.08371
  20
309.54477
  0
SEQEND
  0
POLYLINE
  5
286
  8
Layer_0
  62
5
  66
1
  10
0
  20
0
  30
0
  0
VERTEX
  5
286
  8
Layer_0
  10
48.345612
  20
357.94946
  0
VERTEX
  5
287
  8
Layer_0
  10
46.08371
  20
357.94946
  0
SEQEND
  0
POLYLINE
  5
289
  8
Layer_0
  62
5
  66
1
  10
0
  20
0
  30
0
  0
VERTEX
  5
289
  8
Layer_0
  10
46.08371
  20
363.83047
  0
VERTEX
  5
28a
  8
Layer_0
  10
48.345612
  20
363.83047
  0
SEQEND
  0
POLYLINE
  5
28c
  8
Layer_0
  62
5
  66
1
  10
0
  20
0
  30
0
  0
VERTEX
  5
28c
  8
Layer_0
  10
16.678955
  20
306.19208
  0
VERTEX
  5
28d
  8
Layer_0
  10
16.678955
  20
324.28714
  0
SEQEND
  0
POLYLINE
  5
28f
  8
Layer_0
  62
5
  66
1
  10
0
  20
0
  30
0
  0
VERTEX
  5
28f
  8
Layer_0
  10
16.678955
  20
367.18307
  0
VERTEX
  5
290
  8
Layer_0
  10
16.678955
  20
349.08801
  0
SEQEND
  0
POLYLINE
  5
292
  8
Layer_0
  62
5
  66
1
  10
0
  20
0
  30
0
  0
VERTEX
  5
292
  8
Layer_0
  10
46.08371
  20
291.90186
  0
VERTEX
  5
293
  8
Layer_0
  10
48.345612
  20
291.90186
  0
SEQEND
  0
POLYLINE
  5
295
  8
Layer_0
  62
5
  66
1
  10
0
  20
0
  30
0
  0
VERTEX
  5
295
  8
Layer_0
  10
48.345612
  20
286.02097
  0
VERTEX
  5
296
  8
Layer_0
  10
46.08371
  20
286.02097
  0
SEQEND
  0
POLYLINE
  5
298
  8
Layer_0
  62
5
  66
1
  10
0
  20
0
  30
0
  0
VERTEX
  5
298
  8
Layer_0
  10
48.345612
  20
393.2352
  0
VERTEX
  5
299
  8
Layer_0
  10
46.08371
  20
393.2352
  0
SEQEND
  0
POLYLINE
  5
29b
  8
Layer_0
  62
5
  66
1
  10
0
  20
0
  30
0
  0
VERTEX
  5
29b
  8
Layer_0
  10
48.345612
  20
369.71136
  0
VERTEX
  5
29c
  8
Layer_0
  10
46.08371
  20
369.71136
  0
SEQEND
  0
POLYLINE
  5
29e
  8
Layer_0
  62
5
  66
1
  10
0
  20
0
  30
0
  0
VERTEX
  5
29e
  8
Layer_0
  10
46.08371
  20
375.59235
  0
VERTEX
  5
29f
  8
Layer_0
  10
48.345612
  20
375.59235
  0
SEQEND
  0
POLYLINE
  5
2a1
  8
Layer_0
  62
5
  66
1
  10
0
  20
0
  30
0
  0
VERTEX
  5
2a1
  8
Layer_0
  10
46.08371
  20
280.13995
  0
VERTEX
  5
2a2
  8
Layer_0
  10
48.345612
  20
280.13995
  0
SEQEND
  0
POLYLINE
  5
2a4
  8
Layer_0
  62
5
  66
1
  10
0
  20
0
  30
0
  0
VERTEX
  5
2a4
  8
Layer_0
  10
46.08371
  20
303.66376
  0
VERTEX
  5
2a5
  8
Layer_0
  10
48.345612
  20
303.66376
  0
SEQEND
  0
POLYLINE
  5
2a7
  8
Layer_0
  62
5
  66
1
  10
0
  20
0
  30
0
  0
VERTEX
  5
2a7
  8
Layer_0
  10
48.345612
  20
297.78287
  0
VERTEX
  5
2a8
  8
Layer_0
  10
46.08371
  20
297.78287
  0
SEQEND
  0
POLYLINE
  5
2aa
  8
Layer_0
  62
5
  66
1
  10
0
  20
0
  30
0
  0
VERTEX
  5
2aa
  8
Layer_0
  10
48.345612
  20
381.4733
  0
VERTEX
  5
2ab
  8
Layer_0
  10
46.08371
  20
381.4733
  0
SEQEND
  0
POLYLINE
  5
2ad
  8
Layer_0
  62
5
  66
1
  10
0
  20
0
  30
0
  0
VERTEX
  5
2ad
  8
Layer_0
  10
46.08371
  20
387.35425
  0
VERTEX
  5
2ae
  8
Layer_0
  10
48.345612
  20
387.35425
  0
SEQEND
  0
POLYLINE
  5
2b0
  8
Layer_0
  62
5
  70
1
  66
1
  10
0
  20
0
  30
0
  0
VERTEX
  5
2b0
  8
Layer_0
  10
38.255005
  20
378.94751
  0
VERTEX
  5
2b1
  8
Layer_0
  10
38.255005
  20
357.23251
  0
VERTEX
  5
2b2
  8
Layer_0
  10
38.244995
  20
357.04749
  0
VERTEX
  5
2b3
  8
Layer_0
  10
38.217499
  20
356.86749
  0
VERTEX
  5
2b4
  8
Layer_0
  10
38.172485
  20
356.69501
  0
VERTEX
  5
2b5
  8
Layer_0
  10
38.112488
  20
356.53
  0
VERTEX
  5
2b6
  8
Layer_0
  10
38.037506
  20
356.3725
  0
VERTEX
  5
2b7
  8
Layer_0
  10
37.945007
  20
356.2225
  0
VERTEX
  5
2b8
  8
Layer_0
  10
37.725006
  20
355.95499
  0
VERTEX
  5
2b9
  8
Layer_0
  10
37.457489
  20
355.73499
  0
VERTEX
  5
2ba
  8
Layer_0
  10
37.307495
  20
355.64249
  0
VERTEX
  5
2bb
  8
Layer_0
  10
37.149994
  20
355.5675
  0
VERTEX
  5
2bc
  8
Layer_0
  10
36.984985
  20
355.50751
  0
VERTEX
  5
2bd
  8
Layer_0
  10
36.8125
  20
355.46249
  0
VERTEX
  5
2be
  8
Layer_0
  10
36.632507
  20
355.435
  0
VERTEX
  5
2bf
  8
Layer_0
  10
36.44751
  20
355.42499
  0
VERTEX
  5
2c0
  8
Layer_0
  10
35.542511
  20
355.42499
  0
VERTEX
  5
2c1
  8
Layer_0
  10
35.542511
  20
380.75751
  0
VERTEX
  5
2c2
  8
Layer_0
  10
36.44751
  20
380.75751
  0
VERTEX
  5
2c3
  8
Layer_0
  10
36.632507
  20
380.7475
  0
VERTEX
  5
2c4
  8
Layer_0
  10
36.8125
  20
380.72
  0
VERTEX
  5
2c5
  8
Layer_0
  10
36.984985
  20
380.67499
  0
VERTEX
  5
2c6
  8
Layer_0
  10
37.149994
  20
380.61499
  0
VERTEX
  5
2c7
  8
Layer_0
  10
37.307495
  20
380.54001
  0
VERTEX
  5
2c8
  8
Layer_0
  10
37.457489
  20
380.44751
  0
VERTEX
  5
2c9
  8
Layer_0
  10
37.725006
  20
380.22751
  0
VERTEX
  5
2ca
  8
Layer_0
  10
37.945007
  20
379.95999
  0
VERTEX
  5
2cb
  8
Layer_0
  10
38.037506
  20
379.81
  0
VERTEX
  5
2cc
  8
Layer_0
  10
38.112488
  20
379.6525
  0
VERTEX
  5
2cd
  8
Layer_0
  10
38.172485
  20
379.48499
  0
VERTEX
  5
2ce
  8
Layer_0
  10
38.217499
  20
379.3125
  0
VERTEX
  5
2cf
  8
Layer_0
  10
38.244995
  20
379.13251
  0
VERTEX
  5
2d0
  8
Layer_0
  10
38.255005
  20
378.94751
  0
SEQEND
  0
POLYLINE
  5
2d2
  8
Layer_1
  62
0
  70
1
  66
1
  10
0
  20
0
  30
0
  0
VERTEX
  5
2d2
  8
Layer_1
  10
35.13501
  20
354.51999
  0
VERTEX
  5
2d3
  8
Layer_1
  10
36.44751
  20
354.51999
  0
VERTEX
  5
2d4
  8
Layer_1
  10
36.725006
  20
354.535
  0
VERTEX
  5
2d5
  8
Layer_1
  10
36.994995
  20
354.57501
  0
VERTEX
  5
2d6
  8
Layer_1
  10
37.255005
  20
354.64249
  0
VERTEX
  5
2d7
  8
Layer_1
  10
37.502502
  20
354.73251
  0
VERTEX
  5
2d8
  8
Layer_1
  10
37.73999
  20
354.8475
  0
VERTEX
  5
2d9
  8
Layer_1
  10
37.964996
  20
354.98251
  0
VERTEX
  5
2da
  8
Layer_1
  10
38.172485
  20
355.13998
  0
VERTEX
  5
2db
  8
Layer_1
  10
38.36499
  20
355.315
  0
VERTEX
  5
2dc
  8
Layer_1
  10
38.540009
  20
355.50751
  0
VERTEX
  5
2dd
  8
Layer_1
  10
38.69751
  20
355.715
  0
VERTEX
  5
2de
  8
Layer_1
  10
38.832489
  20
355.94
  0
VERTEX
  5
2df
  8
Layer_1
  10
38.94751
  20
356.17749
  0
VERTEX
  5
2e0
  8
Layer_1
  10
39.037506
  20
356.42499
  0
VERTEX
  5
2e1
  8
Layer_1
  10
39.105011
  20
356.685
  0
VERTEX
  5
2e2
  8
Layer_1
  10
39.144989
  20
356.95499
  0
VERTEX
  5
2e3
  8
Layer_1
  10
39.160004
  20
357.23251
  0
VERTEX
  5
2e4
  8
Layer_1
  10
39.160004
  20
378.94751
  0
VERTEX
  5
2e5
  8
Layer_1
  10
39.144989
  20
379.22501
  0
VERTEX
  5
2e6
  8
Layer_1
  10
39.105011
  20
379.495
  0
VERTEX
  5
2e7
  8
Layer_1
  10
39.037506
  20
379.755
  0
VERTEX
  5
2e8
  8
Layer_1
  10
38.94751
  20
380.005
  0
VERTEX
  5
2e9
  8
Layer_1
  10
38.832489
  20
380.24249
  0
VERTEX
  5
2ea
  8
Layer_1
  10
38.69751
  20
380.465
  0
VERTEX
  5
2eb
  8
Layer_1
  10
38.540009
  20
380.67499
  0
VERTEX
  5
2ec
  8
Layer_1
  10
38.36499
  20
380.86749
  0
VERTEX
  5
2ed
  8
Layer_1
  10
38.172485
  20
381.04251
  0
VERTEX
  5
2ee
  8
Layer_1
  10
37.964996
  20
381.20001
  0
VERTEX
  5
2ef
  8
Layer_1
  10
37.73999
  20
381.33499
  0
VERTEX
  5
2f0
  8
Layer_1
  10
37.502502
  20
381.45001
  0
VERTEX
  5
2f1
  8
Layer_1
  10
37.255005
  20
381.54001
  0
VERTEX
  5
2f2
  8
Layer_1
  10
36.994995
  20
381.60748
  0
VERTEX
  5
2f3
  8
Layer_1
  10
36.725006
  20
381.64749
  0
VERTEX
  5
2f4
  8
Layer_1
  10
36.44751
  20
381.66251
  0
VERTEX
  5
2f5
  8
Layer_1
  10
25.589996
  20
381.66251
  0
VERTEX
  5
2f6
  8
Layer_1
  10
25.3125
  20
381.64749
  0
VERTEX
  5
2f7
  8
Layer_1
  10
25.042511
  20
381.60748
  0
VERTEX
  5
2f8
  8
Layer_1
  10
24.782501
  20
381.54001
  0
VERTEX
  5
2f9
  8
Layer_1
  10
24.532501
  20
381.45001
  0
VERTEX
  5
2fa
  8
Layer_1
  10
24.294983
  20
381.33499
  0
VERTEX
  5
2fb
  8
Layer_1
  10
24.07251
  20
381.20001
  0
VERTEX
  5
2fc
  8
Layer_1
  10
23.862488
  20
381.04251
  0
VERTEX
  5
2fd
  8
Layer_1
  10
23.669983
  20
380.86749
  0
VERTEX
  5
2fe
  8
Layer_1
  10
23.494995
  20
380.67499
  0
VERTEX
  5
2ff
  8
Layer_1
  10
23.337494
  20
380.465
  0
VERTEX
  5
300
  8
Layer_1
  10
23.202484
  20
380.24249
  0
VERTEX
  5
301
  8
Layer_1
  10
23.087494
  20
380.005
  0
VERTEX
  5
302
  8
Layer_1
  10
22.997498
  20
379.755
  0
VERTEX
  5
303
  8
Layer_1
  10
22.929993
  20
379.495
  0
VERTEX
  5
304
  8
Layer_1
  10
22.889984
  20
379.22501
  0
VERTEX
  5
305
  8
Layer_1
  10
22.875
  20
378.94751
  0
VERTEX
  5
306
  8
Layer_1
  10
22.875
  20
378.22501
  0
VERTEX
  5
307
  8
Layer_1
  10
24.820007
  20
378.22501
  0
VERTEX
  5
308
  8
Layer_1
  10
24.820007
  20
378.94751
  0
VERTEX
  5
309
  8
Layer_1
  10
31.017487
  20
378.94751
  0
VERTEX
  5
30a
  8
Layer_1
  10
31.017487
  20
373.11249
  0
VERTEX
  5
30b
  8
Layer_1
  10
22.875
  20
373.11249
  0
VERTEX
  5
30c
  8
Layer_1
  10
34.369995
  20
354.94
  0
VERTEX
  5
30d
  8
Layer_1
  10
34.517487
  20
354.76251
  0
VERTEX
  5
30e
  8
Layer_1
  10
34.700012
  20
354.63251
  0
VERTEX
  5
30f
  8
Layer_1
  10
34.907501
  20
354.54749
  0
VERTEX
  5
310
  8
Layer_1
  10
35.13501
  20
354.51999
  0
SEQEND
  0
POLYLINE
  5
312
  8
Layer_0
  62
5
  66
1
  10
0
  20
0
  30
0
  0
VERTEX
  5
312
  8
Layer_0
  10
35.540588
  20
364.47028
  0
VERTEX
  5
313
  8
Layer_0
  10
38.254852
  20
364.47028
  0
SEQEND
  0
POLYLINE
  5
315
  8
Layer_0
  62
5
  66
1
  10
0
  20
0
  30
0
  0
VERTEX
  5
315
  8
Layer_0
  10
38.254852
  20
371.7084
  0
VERTEX
  5
316
  8
Layer_0
  10
35.540588
  20
371.7084
  0
SEQEND
  0
POLYLINE
  5
318
  8
Layer_0
  62
5
  70
1
  66
1
  10
0
  20
0
  30
0
  0
VERTEX
  5
318
  8
Layer_0
  10
39.359985
  20
384.23248
  0
VERTEX
  5
319
  8
Layer_0
  10
17.644989
  20
384.23248
  0
VERTEX
  5
31a
  8
Layer_0
  10
17.459991
  20
384.24249
  0
VERTEX
  5
31b
  8
Layer_0
  10
17.279999
  20
384.26999
  0
VERTEX
  5
31c
  8
Layer_0
  10
17.107513
  20
384.315
  0
VERTEX
  5
31d
  8
Layer_0
  10
16.940002
  20
384.375
  0
VERTEX
  5
31e
  8
Layer_0
  10
16.782501
  20
384.45001
  0
VERTEX
  5
31f
  8
Layer_0
  10
16.632507
  20
384.54251
  0
VERTEX
  5
320
  8
Layer_0
  10
16.36499
  20
384.76251
  0
VERTEX
  5
321
  8
Layer_0
  10
16.144989
  20
385.03
  0
VERTEX
  5
322
  8
Layer_0
  10
16.05249
  20
385.17999
  0
VERTEX
  5
323
  8
Layer_0
  10
15.977509
  20
385.33749
  0
VERTEX
  5
324
  8
Layer_0
  10
15.917511
  20
385.5025
  0
VERTEX
  5
325
  8
Layer_0
  10
15.872498
  20
385.67499
  0
VERTEX
  5
326
  8
Layer_0
  10
15.845001
  20
385.85501
  0
VERTEX
  5
327
  8
Layer_0
  10
15.834991
  20
386.04001
  0
VERTEX
  5
328
  8
Layer_0
  10
15.834991
  20
386.94501
  0
VERTEX
  5
329
  8
Layer_0
  10
41.169983
  20
386.94501
  0
VERTEX
  5
32a
  8
Layer_0
  10
41.169983
  20
386.04001
  0
VERTEX
  5
32b
  8
Layer_0
  10
41.160004
  20
385.85501
  0
VERTEX
  5
32c
  8
Layer_0
  10
41.132507
  20
385.67499
  0
VERTEX
  5
32d
  8
Layer_0
  10
41.087494
  20
385.5025
  0
VERTEX
  5
32e
  8
Layer_0
  10
41.027496
  20
385.33749
  0
VERTEX
  5
32f
  8
Layer_0
  10
40.950012
  20
385.17999
  0
VERTEX
  5
330
  8
Layer_0
  10
40.859985
  20
385.03
  0
VERTEX
  5
331
  8
Layer_0
  10
40.639984
  20
384.76251
  0
VERTEX
  5
332
  8
Layer_0
  10
40.369995
  20
384.54251
  0
VERTEX
  5
333
  8
Layer_0
  10
40.222504
  20
384.45001
  0
VERTEX
  5
334
  8
Layer_0
  10
40.0625
  20
384.375
  0
VERTEX
  5
335
  8
Layer_0
  10
39.897491
  20
384.315
  0
VERTEX
  5
336
  8
Layer_0
  10
39.725006
  20
384.26999
  0
VERTEX
  5
337
  8
Layer_0
  10
39.544983
  20
384.24249
  0
VERTEX
  5
338
  8
Layer_0
  10
39.359985
  20
384.23248
  0
SEQEND
  0
POLYLINE
  5
33a
  8
Layer_1
  62
0
  70
1
  66
1
  10
0
  20
0
  30
0
  0
VERTEX
  5
33a
  8
Layer_1
  10
14.929993
  20
387.35251
  0
VERTEX
  5
33b
  8
Layer_1
  10
14.929993
  20
386.04001
  0
VERTEX
  5
33c
  8
Layer_1
  10
14.945007
  20
385.76251
  0
VERTEX
  5
33d
  8
Layer_1
  10
14.984985
  20
385.49249
  0
VERTEX
  5
33e
  8
Layer_1
  10
15.05249
  20
385.23248
  0
VERTEX
  5
33f
  8
Layer_1
  10
15.142487
  20
384.98499
  0
VERTEX
  5
340
  8
Layer_1
  10
15.257507
  20
384.7475
  0
VERTEX
  5
341
  8
Layer_1
  10
15.392487
  20
384.52249
  0
VERTEX
  5
342
  8
Layer_1
  10
15.549988
  20
384.315
  0
VERTEX
  5
343
  8
Layer_1
  10
15.725006
  20
384.1225
  0
VERTEX
  5
344
  8
Layer_1
  10
15.917511
  20
383.94751
  0
VERTEX
  5
345
  8
Layer_1
  10
16.127502
  20
383.79001
  0
VERTEX
  5
346
  8
Layer_1
  10
16.350006
  20
383.655
  0
VERTEX
  5
347
  8
Layer_1
  10
16.587494
  20
383.54001
  0
VERTEX
  5
348
  8
Layer_1
  10
16.837494
  20
383.45001
  0
VERTEX
  5
349
  8
Layer_1
  10
17.097504
  20
383.38251
  0
VERTEX
  5
34a
  8
Layer_1
  10
17.367493
  20
383.3425
  0
VERTEX
  5
34b
  8
Layer_1
  10
17.644989
  20
383.32748
  0
VERTEX
  5
34c
  8
Layer_1
  10
39.359985
  20
383.32748
  0
VERTEX
  5
34d
  8
Layer_1
  10
39.637512
  20
383.3425
  0
VERTEX
  5
34e
  8
Layer_1
  10
39.907501
  20
383.38251
  0
VERTEX
  5
34f
  8
Layer_1
  10
40.167511
  20
383.45001
  0
VERTEX
  5
350
  8
Layer_1
  10
40.415009
  20
383.54001
  0
VERTEX
  5
351
  8
Layer_1
  10
40.652496
  20
383.655
  0
VERTEX
  5
352
  8
Layer_1
  10
40.877502
  20
383.79001
  0
VERTEX
  5
353
  8
Layer_1
  10
41.084991
  20
383.94751
  0
VERTEX
  5
354
  8
Layer_1
  10
41.277496
  20
384.1225
  0
VERTEX
  5
355
  8
Layer_1
  10
41.452484
  20
384.315
  0
VERTEX
  5
356
  8
Layer_1
  10
41.609985
  20
384.52249
  0
VERTEX
  5
357
  8
Layer_1
  10
41.744995
  20
384.7475
  0
VERTEX
  5
358
  8
Layer_1
  10
41.859985
  20
384.98499
  0
VERTEX
  5
359
  8
Layer_1
  10
41.950012
  20
385.23248
  0
VERTEX
  5
35a
  8
Layer_1
  10
42.017487
  20
385.49249
  0
VERTEX
  5
35b
  8
Layer_1
  10
42.057495
  20
385.76251
  0
VERTEX
  5
35c
  8
Layer_1
  10
42.07251
  20
386.04001
  0
VERTEX
  5
35d
  8
Layer_1
  10
42.07251
  20
396.89749
  0
VERTEX
  5
35e
  8
Layer_1
  10
42.057495
  20
397.17499
  0
VERTEX
  5
35f
  8
Layer_1
  10
42.017487
  20
397.44501
  0
VERTEX
  5
360
  8
Layer_1
  10
41.950012
  20
397.70499
  0
VERTEX
  5
361
  8
Layer_1
  10
41.859985
  20
397.95499
  0
VERTEX
  5
362
  8
Layer_1
  10
41.744995
  20
398.1925
  0
VERTEX
  5
363
  8
Layer_1
  10
41.609985
  20
398.41501
  0
VERTEX
  5
364
  8
Layer_1
  10
41.452484
  20
398.625
  0
VERTEX
  5
365
  8
Layer_1
  10
41.277496
  20
398.8175
  0
VERTEX
  5
366
  8
Layer_1
  10
41.084991
  20
398.99249
  0
VERTEX
  5
367
  8
Layer_1
  10
40.877502
  20
399.14999
  0
VERTEX
  5
368
  8
Layer_1
  10
40.652496
  20
399.285
  0
VERTEX
  5
369
  8
Layer_1
  10
40.415009
  20
399.39999
  0
VERTEX
  5
36a
  8
Layer_1
  10
40.167511
  20
399.48999
  0
VERTEX
  5
36b
  8
Layer_1
  10
39.907501
  20
399.5575
  0
VERTEX
  5
36c
  8
Layer_1
  10
39.637512
  20
399.5975
  0
VERTEX
  5
36d
  8
Layer_1
  10
39.359985
  20
399.61249
  0
VERTEX
  5
36e
  8
Layer_1
  10
38.63501
  20
399.61249
  0
VERTEX
  5
36f
  8
Layer_1
  10
38.63501
  20
397.66751
  0
VERTEX
  5
370
  8
Layer_1
  10
39.359985
  20
397.66751
  0
VERTEX
  5
371
  8
Layer_1
  10
39.359985
  20
391.47
  0
VERTEX
  5
372
  8
Layer_1
  10
33.522491
  20
391.47
  0
VERTEX
  5
373
  8
Layer_1
  10
33.522491
  20
399.61249
  0
VERTEX
  5
374
  8
Layer_1
  10
15.352509
  20
388.11749
  0
VERTEX
  5
375
  8
Layer_1
  10
15.174988
  20
387.97
  0
VERTEX
  5
376
  8
Layer_1
  10
15.042511
  20
387.78751
  0
VERTEX
  5
377
  8
Layer_1
  10
14.959991
  20
387.57999
  0
VERTEX
  5
378
  8
Layer_1
  10
14.929993
  20
387.35251
  0
SEQEND
  0
POLYLINE
  5
37a
  8
Layer_0
  62
5
  66
1
  10
0
  20
0
  30
0
  0
VERTEX
  5
37a
  8
Layer_0
  10
24.881958
  20
386.94461
  0
VERTEX
  5
37b
  8
Layer_0
  10
24.881958
  20
384.23035
  0
SEQEND
  0
POLYLINE
  5
37d
  8
Layer_0
  62
5
  66
1
  10
0
  20
0
  30
0
  0
VERTEX
  5
37d
  8
Layer_0
  10
32.120056
  20
384.23035
  0
VERTEX
  5
37e
  8
Layer_0
  10
32.120056
  20
386.94461
  0
SEQEND
  0
POLYLINE
  5
380
  8
Layer_1
  62
0
  70
1
  66
1
  10
0
  20
0
  30
0
  0
VERTEX
  5
380
  8
Layer_1
  10
85.63501
  20
314.81
  0
VERTEX
  5
381
  8
Layer_1
  10
85.154999
  20
315.595
  0
VERTEX
  5
382
  8
Layer_1
  10
84.625
  20
316.34
  0
VERTEX
  5
383
  8
Layer_1
  10
84.047485
  20
317.04999
  0
VERTEX
  5
384
  8
Layer_1
  10
83.424988
  20
317.715
  0
VERTEX
  5
385
  8
Layer_1
  10
82.757507
  20
318.34
  0
VERTEX
  5
386
  8
Layer_1
  10
82.047485
  20
318.91751
  0
VERTEX
  5
387
  8
Layer_1
  10
81.30249
  20
319.44751
  0
VERTEX
  5
388
  8
Layer_1
  10
80.517487
  20
319.92749
  0
VERTEX
  5
389
  8
Layer_1
  10
79.432495
  20
319.2175
  0
VERTEX
  5
38a
  8
Layer_1
  10
78.375
  20
318.4725
  0
VERTEX
  5
38b
  8
Layer_1
  10
77.347504
  20
317.69
  0
VERTEX
  5
38c
  8
Layer_1
  10
76.347504
  20
316.875
  0
VERTEX
  5
38d
  8
Layer_1
  10
75.382507
  20
316.02499
  0
VERTEX
  5
38e
  8
Layer_1
  10
74.44751
  20
315.13998
  0
VERTEX
  5
38f
  8
Layer_1
  10
73.542511
  20
314.22501
  0
VERTEX
  5
390
  8
Layer_1
  10
72.674988
  20
313.2775
  0
VERTEX
  5
391
  8
Layer_1
  10
71.839996
  20
312.30249
  0
VERTEX
  5
392
  8
Layer_1
  10
71.040009
  20
311.29501
  0
VERTEX
  5
393
  8
Layer_1
  10
70.274994
  20
310.26001
  0
VERTEX
  5
394
  8
Layer_1
  10
69.547485
  20
309.19751
  0
VERTEX
  5
395
  8
Layer_1
  10
68.855011
  20
308.10999
  0
VERTEX
  5
396
  8
Layer_1
  10
68.204987
  20
306.995
  0
VERTEX
  5
397
  8
Layer_1
  10
67.589996
  20
305.85501
  0
VERTEX
  5
398
  8
Layer_1
  10
67.017487
  20
304.6925
  0
VERTEX
  5
399
  8
Layer_1
  10
67.702484
  20
304.01001
  0
VERTEX
  5
39a
  8
Layer_1
  10
73.459991
  20
309.76749
  0
VERTEX
  5
39b
  8
Layer_1
  10
75.475006
  20
307.7525
  0
VERTEX
  5
39c
  8
Layer_1
  10
69.717499
  20
301.99249
  0
VERTEX
  5
39d
  8
Layer_1
  10
70.402496
  20
301.31
  0
VERTEX
  5
39e
  8
Layer_1
  10
71.565002
  20
301.88251
  0
VERTEX
  5
39f
  8
Layer_1
  10
72.704987
  20
302.4975
  0
VERTEX
  5
3a0
  8
Layer_1
  10
73.820007
  20
303.14749
  0
VERTEX
  5
3a1
  8
Layer_1
  10
74.907501
  20
303.84
  0
VERTEX
  5
3a2
  8
Layer_1
  10
75.970001
  20
304.5675
  0
VERTEX
  5
3a3
  8
Layer_1
  10
77.005005
  20
305.33249
  0
VERTEX
  5
3a4
  8
Layer_1
  10
78.012482
  20
306.13251
  0
VERTEX
  5
3a5
  8
Layer_1
  10
78.987488
  20
306.9675
  0
VERTEX
  5
3a6
  8
Layer_1
  10
79.934998
  20
307.83499
  0
VERTEX
  5
3a7
  8
Layer_1
  10
80.850006
  20
308.73999
  0
VERTEX
  5
3a8
  8
Layer_1
  10
81.732483
  20
309.67499
  0
VERTEX
  5
3a9
  8
Layer_1
  10
82.582489
  20
310.64001
  0
VERTEX
  5
3aa
  8
Layer_1
  10
83.399994
  20
311.64001
  0
VERTEX
  5
3ab
  8
Layer_1
  10
84.179993
  20
312.66751
  0
VERTEX
  5
3ac
  8
Layer_1
  10
84.92749
  20
313.72501
  0
VERTEX
  5
3ad
  8
Layer_1
  10
85.63501
  20
314.81
  0
SEQEND
  0
POLYLINE
  5
3af
  8
Layer_1
  62
0
  70
1
  66
1
  10
0
  20
0
  30
0
  0
VERTEX
  5
3af
  8
Layer_1
  10
103.8075
  20
317.05499
  0
VERTEX
  5
3b0
  8
Layer_1
  10
103.32748
  20
317.84
  0
VERTEX
  5
3b1
  8
Layer_1
  10
102.79749
  20
318.58499
  0
VERTEX
  5
3b2
  8
Layer_1
  10
102.22
  20
319.29501
  0
VERTEX
  5
3b3
  8
Layer_1
  10
101.5975
  20
319.96249
  0
VERTEX
  5
3b4
  8
Layer_1
  10
100.92999
  20
320.58499
  0
VERTEX
  5
3b5
  8
Layer_1
  10
100.22
  20
321.16251
  0
VERTEX
  5
3b6
  8
Layer_1
  10
99.475006
  20
321.6925
  0
VERTEX
  5
3b7
  8
Layer_1
  10
98.690002
  20
322.17249
  0
VERTEX
  5
3b8
  8
Layer_1
  10
97.605011
  20
321.465
  0
VERTEX
  5
3b9
  8
Layer_1
  10
96.547485
  20
320.7175
  0
VERTEX
  5
3ba
  8
Layer_1
  10
95.519989
  20
319.9375
  0
VERTEX
  5
3bb
  8
Layer_1
  10
94.519989
  20
319.12
  0
VERTEX
  5
3bc
  8
Layer_1
  10
93.554993
  20
318.26999
  0
VERTEX
  5
3bd
  8
Layer_1
  10
92.619995
  20
317.38751
  0
VERTEX
  5
3be
  8
Layer_1
  10
91.714996
  20
316.4725
  0
VERTEX
  5
3bf
  8
Layer_1
  10
90.847504
  20
315.52499
  0
VERTEX
  5
3c0
  8
Layer_1
  10
90.012482
  20
314.54999
  0
VERTEX
  5
3c1
  8
Layer_1
  10
89.212494
  20
313.54251
  0
VERTEX
  5
3c2
  8
Layer_1
  10
88.44751
  20
312.50751
  0
VERTEX
  5
3c3
  8
Layer_1
  10
87.720001
  20
311.44501
  0
VERTEX
  5
3c4
  8
Layer_1
  10
87.027496
  20
310.35751
  0
VERTEX
  5
3c5
  8
Layer_1
  10
86.377502
  20
309.24249
  0
VERTEX
  5
3c6
  8
Layer_1
  10
85.762482
  20
308.10251
  0
VERTEX
  5
3c7
  8
Layer_1
  10
85.190002
  20
306.94
  0
VERTEX
  5
3c8
  8
Layer_1
  10
85.875
  20
306.255
  0
VERTEX
  5
3c9
  8
Layer_1
  10
91.632507
  20
312.01251
  0
VERTEX
  5
3ca
  8
Layer_1
  10
93.647491
  20
309.9975
  0
VERTEX
  5
3cb
  8
Layer_1
  10
87.889984
  20
304.23999
  0
VERTEX
  5
3cc
  8
Layer_1
  10
88.574982
  20
303.55499
  0
VERTEX
  5
3cd
  8
Layer_1
  10
89.737488
  20
304.1275
  0
VERTEX
  5
3ce
  8
Layer_1
  10
90.877502
  20
304.74249
  0
VERTEX
  5
3cf
  8
Layer_1
  10
91.992493
  20
305.39249
  0
VERTEX
  5
3d0
  8
Layer_1
  10
93.079987
  20
306.08499
  0
VERTEX
  5
3d1
  8
Layer_1
  10
94.142487
  20
306.8125
  0
VERTEX
  5
3d2
  8
Layer_1
  10
95.17749
  20
307.57751
  0
VERTEX
  5
3d3
  8
Layer_1
  10
96.184998
  20
308.3775
  0
VERTEX
  5
3d4
  8
Layer_1
  10
97.160004
  20
309.21249
  0
VERTEX
  5
3d5
  8
Layer_1
  10
98.107483
  20
310.07999
  0
VERTEX
  5
3d6
  8
Layer_1
  10
99.022491
  20
310.98499
  0
VERTEX
  5
3d7
  8
Layer_1
  10
99.904999
  20
311.92001
  0
VERTEX
  5
3d8
  8
Layer_1
  10
100.755
  20
312.88501
  0
VERTEX
  5
3d9
  8
Layer_1
  10
101.57251
  20
313.88501
  0
VERTEX
  5
3da
  8
Layer_1
  10
102.35251
  20
314.91251
  0
VERTEX
  5
3db
  8
Layer_1
  10
103.10001
  20
315.97
  0
VERTEX
  5
3dc
  8
Layer_1
  10
103.8075
  20
317.05499
  0
SEQEND
  0
POLYLINE
  5
3de
  8
Layer_1
  62
0
  70
1
  66
1
  10
0
  20
0
  30
0
  0
VERTEX
  5
3de
  8
Layer_1
  10
106.595
  20
270.27502
  0
VERTEX
  5
3df
  8
Layer_1
  10
105.38251
  20
268.75751
  0
VERTEX
  5
3e0
  8
Layer_1
  10
84.059998
  20
276.86252
  0
VERTEX
  5
3e1
  8
Layer_1
  10
83.30249
  20
277.11502
  0
VERTEX
  5
3e2
  8
Layer_1
  10
82.917511
  20
277.22
  0
VERTEX
  5
3e3
  8
Layer_1
  10
82.529999
  20
277.30753
  0
VERTEX
  5
3e4
  8
Layer_1
  10
70.027496
  20
279.88
  0
VERTEX
  5
3e5
  8
Layer_1
  10
69.842499
  20
279.92752
  0
VERTEX
  5
3e6
  8
Layer_1
  10
69.667511
  20
279.99503
  0
VERTEX
  5
3e7
  8
Layer_1
  10
69.5
  20
280.07751
  0
VERTEX
  5
3e8
  8
Layer_1
  10
69.342499
  20
280.18002
  0
VERTEX
  5
3e9
  8
Layer_1
  10
69.195007
  20
280.29501
  0
VERTEX
  5
3ea
  8
Layer_1
  10
69.059998
  20
280.42752
  0
VERTEX
  5
3eb
  8
Layer_1
  10
68.940002
  20
280.57251
  0
VERTEX
  5
3ec
  8
Layer_1
  10
68.834991
  20
280.73001
  0
VERTEX
  5
3ed
  8
Layer_1
  10
87.524994
  20
280.73001
  0
VERTEX
  5
3ee
  8
Layer_1
  10
88.247498
  20
280.71753
  0
VERTEX
  5
3ef
  8
Layer_1
  10
88.967499
  20
280.68503
  0
VERTEX
  5
3f0
  8
Layer_1
  10
89.682495
  20
280.6275
  0
VERTEX
  5
3f1
  8
Layer_1
  10
90.392487
  20
280.54752
  0
VERTEX
  5
3f2
  8
Layer_1
  10
91.097504
  20
280.44751
  0
VERTEX
  5
3f3
  8
Layer_1
  10
91.797485
  20
280.32251
  0
VERTEX
  5
3f4
  8
Layer_1
  10
92.492493
  20
280.17752
  0
VERTEX
  5
3f5
  8
Layer_1
  10
93.179993
  20
280.01251
  0
VERTEX
  5
3f6
  8
Layer_1
  10
93.859985
  20
279.82501
  0
VERTEX
  5
3f7
  8
Layer_1
  10
94.535004
  20
279.61752
  0
VERTEX
  5
3f8
  8
Layer_1
  10
95.199982
  20
279.38751
  0
VERTEX
  5
3f9
  8
Layer_1
  10
95.857483
  20
279.14001
  0
VERTEX
  5
3fa
  8
Layer_1
  10
96.507507
  20
278.87003
  0
VERTEX
  5
3fb
  8
Layer_1
  10
97.147491
  20
278.58002
  0
VERTEX
  5
3fc
  8
Layer_1
  10
97.779999
  20
278.27252
  0
VERTEX
  5
3fd
  8
Layer_1
  10
98.399994
  20
277.94501
  0
VERTEX
  5
3fe
  8
Layer_1
  10
99.01001
  20
277.5975
  0
VERTEX
  5
3ff
  8
Layer_1
  10
99.609985
  20
277.23251
  0
VERTEX
  5
400
  8
Layer_1
  10
100.19751
  20
276.8475
  0
VERTEX
  5
401
  8
Layer_1
  10
100.77249
  20
276.44501
  0
VERTEX
  5
402
  8
Layer_1
  10
101.33749
  20
276.02502
  0
VERTEX
  5
403
  8
Layer_1
  10
101.88748
  20
275.58502
  0
VERTEX
  5
404
  8
Layer_1
  10
102.42499
  20
275.13
  0
VERTEX
  5
405
  8
Layer_1
  10
102.94998
  20
274.65503
  0
VERTEX
  5
406
  8
Layer_1
  10
103.45999
  20
274.16501
  0
VERTEX
  5
407
  8
Layer_1
  10
103.95499
  20
273.6575
  0
VERTEX
  5
408
  8
Layer_1
  10
104.435
  20
273.13501
  0
VERTEX
  5
409
  8
Layer_1
  10
104.89999
  20
272.59253
  0
VERTEX
  5
40a
  8
Layer_1
  10
105.3475
  20
272.03751
  0
VERTEX
  5
40b
  8
Layer_1
  10
105.78
  20
271.46503
  0
VERTEX
  5
40c
  8
Layer_1
  10
106.19501
  20
270.8775
  0
VERTEX
  5
40d
  8
Layer_1
  10
106.595
  20
270.27502
  0
SEQEND
  0
POLYLINE
  5
40f
  8
Layer_1
  62
0
  70
1
  66
1
  10
0
  20
0
  30
0
  0
VERTEX
  5
40f
  8
Layer_1
  10
87.524994
  20
294.4375
  0
VERTEX
  5
410
  8
Layer_1
  10
68.834991
  20
294.4375
  0
VERTEX
  5
411
  8
Layer_1
  10
68.940002
  20
294.595
  0
VERTEX
  5
412
  8
Layer_1
  10
69.059998
  20
294.74002
  0
VERTEX
  5
413
  8
Layer_1
  10
69.195007
  20
294.87003
  0
VERTEX
  5
414
  8
Layer_1
  10
69.342499
  20
294.98752
  0
VERTEX
  5
415
  8
Layer_1
  10
69.5
  20
295.08752
  0
VERTEX
  5
416
  8
Layer_1
  10
69.667511
  20
295.17001
  0
VERTEX
  5
417
  8
Layer_1
  10
69.842499
  20
295.23752
  0
VERTEX
  5
418
  8
Layer_1
  10
70.027496
  20
295.285
  0
VERTEX
  5
419
  8
Layer_1
  10
82.529999
  20
297.85999
  0
VERTEX
  5
41a
  8
Layer_1
  10
82.917511
  20
297.94751
  0
VERTEX
  5
41b
  8
Layer_1
  10
83.30249
  20
298.05249
  0
VERTEX
  5
41c
  8
Layer_1
  10
83.684998
  20
298.17001
  0
VERTEX
  5
41d
  8
Layer_1
  10
84.059998
  20
298.30499
  0
VERTEX
  5
41e
  8
Layer_1
  10
105.38251
  20
306.4075
  0
VERTEX
  5
41f
  8
Layer_1
  10
106.595
  20
304.89249
  0
VERTEX
  5
420
  8
Layer_1
  10
106.19751
  20
304.29001
  0
VERTEX
  5
421
  8
Layer_1
  10
105.7825
  20
303.70251
  0
VERTEX
  5
422
  8
Layer_1
  10
105.35001
  20
303.13
  0
VERTEX
  5
423
  8
Layer_1
  10
104.89999
  20
302.57251
  0
VERTEX
  5
424
  8
Layer_1
  10
104.435
  20
302.0325
  0
VERTEX
  5
425
  8
Layer_1
  10
103.95499
  20
301.51001
  0
VERTEX
  5
426
  8
Layer_1
  10
103.45999
  20
301.0025
  0
VERTEX
  5
427
  8
Layer_1
  10
102.94998
  20
300.51251
  0
VERTEX
  5
428
  8
Layer_1
  10
102.42499
  20
300.03751
  0
VERTEX
  5
429
  8
Layer_1
  10
101.88748
  20
299.58249
  0
VERTEX
  5
42a
  8
Layer_1
  10
101.33749
  20
299.14249
  0
VERTEX
  5
42b
  8
Layer_1
  10
100.77249
  20
298.7225
  0
VERTEX
  5
42c
  8
Layer_1
  10
100.19751
  20
298.32001
  0
VERTEX
  5
42d
  8
Layer_1
  10
99.609985
  20
297.935
  0
VERTEX
  5
42e
  8
Layer_1
  10
99.01001
  20
297.57001
  0
VERTEX
  5
42f
  8
Layer_1
  10
98.399994
  20
297.2225
  0
VERTEX
  5
430
  8
Layer_1
  10
97.779999
  20
296.89502
  0
VERTEX
  5
431
  8
Layer_1
  10
97.147491
  20
296.58752
  0
VERTEX
  5
432
  8
Layer_1
  10
96.507507
  20
296.29752
  0
VERTEX
  5
433
  8
Layer_1
  10
95.857483
  20
296.02753
  0
VERTEX
  5
434
  8
Layer_1
  10
95.199982
  20
295.78003
  0
VERTEX
  5
435
  8
Layer_1
  10
94.535004
  20
295.55002
  0
VERTEX
  5
436
  8
Layer_1
  10
93.859985
  20
295.34253
  0
VERTEX
  5
437
  8
Layer_1
  10
93.179993
  20
295.15503
  0
VERTEX
  5
438
  8
Layer_1
  10
92.492493
  20
294.98752
  0
VERTEX
  5
439
  8
Layer_1
  10
91.797485
  20
294.845
  0
VERTEX
  5
43a
  8
Layer_1
  10
91.097504
  20
294.72
  0
VERTEX
  5
43b
  8
Layer_1
  10
90.392487
  20
294.62003
  0
VERTEX
  5
43c
  8
Layer_1
  10
89.679993
  20
294.54001
  0
VERTEX
  5
43d
  8
Layer_1
  10
88.964996
  20
294.48251
  0
VERTEX
  5
43e
  8
Layer_1
  10
88.247498
  20
294.44751
  0
VERTEX
  5
43f
  8
Layer_1
  10
87.524994
  20
294.4375
  0
SEQEND
  0
POLYLINE
  5
441
  8
Layer_0
  62
5
  70
1
  66
1
  10
0
  20
0
  30
0
  0
VERTEX
  5
441
  8
Layer_0
  10
72.200806
  20
284.79996
  0
VERTEX
  5
442
  8
Layer_0
  10
75.819824
  20
284.79996
  0
VERTEX
  5
443
  8
Layer_0
  10
75.819824
  20
281.6333
  0
VERTEX
  5
444
  8
Layer_0
  10
72.200806
  20
281.6333
  0
VERTEX
  5
445
  8
Layer_0
  10
72.200806
  20
284.79996
  0
SEQEND
  0
POLYLINE
  5
447
  8
Layer_0
  62
5
  70
1
  66
1
  10
0
  20
0
  30
0
  0
VERTEX
  5
447
  8
Layer_0
  10
76.72464
  20
284.79996
  0
VERTEX
  5
448
  8
Layer_0
  10
80.343658
  20
284.79996
  0
VERTEX
  5
449
  8
Layer_0
  10
80.343658
  20
281.6333
  0
VERTEX
  5
44a
  8
Layer_0
  10
76.72464
  20
281.6333
  0
VERTEX
  5
44b
  8
Layer_0
  10
76.72464
  20
284.79996
  0
SEQEND
  0
POLYLINE
  5
44d
  8
Layer_0
  62
5
  70
1
  66
1
  10
0
  20
0
  30
0
  0
VERTEX
  5
44d
  8
Layer_0
  10
81.248444
  20
284.79996
  0
VERTEX
  5
44e
  8
Layer_0
  10
84.867462
  20
284.79996
  0
VERTEX
  5
44f
  8
Layer_0
  10
84.867462
  20
281.6333
  0
VERTEX
  5
450
  8
Layer_0
  10
81.248444
  20
281.6333
  0
VERTEX
  5
451
  8
Layer_0
  10
81.248444
  20
284.79996
  0
SEQEND
  0
POLYLINE
  5
453
  8
Layer_0
  62
5
  70
1
  66
1
  10
0
  20
0
  30
0
  0
VERTEX
  5
453
  8
Layer_0
  10
85.772247
  20
284.79996
  0
VERTEX
  5
454
  8
Layer_0
  10
89.391266
  20
284.79996
  0
VERTEX
  5
455
  8
Layer_0
  10
89.391266
  20
281.6333
  0
VERTEX
  5
456
  8
Layer_0
  10
85.772247
  20
281.6333
  0
VERTEX
  5
457
  8
Layer_0
  10
85.772247
  20
284.79996
  0
SEQEND
  0
POLYLINE
  5
459
  8
Layer_0
  62
5
  70
1
  66
1
  10
0
  20
0
  30
0
  0
VERTEX
  5
459
  8
Layer_0
  10
90.296051
  20
284.79996
  0
VERTEX
  5
45a
  8
Layer_0
  10
93.91507
  20
284.79996
  0
VERTEX
  5
45b
  8
Layer_0
  10
93.91507
  20
281.6333
  0
VERTEX
  5
45c
  8
Layer_0
  10
90.296051
  20
281.6333
  0
VERTEX
  5
45d
  8
Layer_0
  10
90.296051
  20
284.79996
  0
SEQEND
  0
POLYLINE
  5
45f
  8
Layer_0
  62
5
  70
1
  66
1
  10
0
  20
0
  30
0
  0
VERTEX
  5
45f
  8
Layer_0
  10
90.296051
  20
290.36426
  0
VERTEX
  5
460
  8
Layer_0
  10
90.296051
  20
293.53091
  0
VERTEX
  5
461
  8
Layer_0
  10
93.91507
  20
293.53091
  0
VERTEX
  5
462
  8
Layer_0
  10
93.91507
  20
290.36426
  0
VERTEX
  5
463
  8
Layer_0
  10
90.296051
  20
290.36426
  0
SEQEND
  0
POLYLINE
  5
465
  8
Layer_0
  62
5
  70
1
  66
1
  10
0
  20
0
  30
0
  0
VERTEX
  5
465
  8
Layer_0
  10
85.772247
  20
290.36426
  0
VERTEX
  5
466
  8
Layer_0
  10
85.772247
  20
293.53091
  0
VERTEX
  5
467
  8
Layer_0
  10
89.391266
  20
293.53091
  0
VERTEX
  5
468
  8
Layer_0
  10
89.391266
  20
290.36426
  0
VERTEX
  5
469
  8
Layer_0
  10
85.772247
  20
290.36426
  0
SEQEND
  0
POLYLINE
  5
46b
  8
Layer_0
  62
5
  70
1
  66
1
  10
0
  20
0
  30
0
  0
VERTEX
  5
46b
  8
Layer_0
  10
81.248444
  20
290.36426
  0
VERTEX
  5
46c
  8
Layer_0
  10
81.248444
  20
293.53091
  0
VERTEX
  5
46d
  8
Layer_0
  10
84.867462
  20
293.53091
  0
VERTEX
  5
46e
  8
Layer_0
  10
84.867462
  20
290.36426
  0
VERTEX
  5
46f
  8
Layer_0
  10
81.248444
  20
290.36426
  0
SEQEND
  0
POLYLINE
  5
471
  8
Layer_0
  62
5
  70
1
  66
1
  10
0
  20
0
  30
0
  0
VERTEX
  5
471
  8
Layer_0
  10
76.72464
  20
290.36426
  0
VERTEX
  5
472
  8
Layer_0
  10
76.72464
  20
293.53091
  0
VERTEX
  5
473
  8
Layer_0
  10
80.343658
  20
293.53091
  0
VERTEX
  5
474
  8
Layer_0
  10
80.343658
  20
290.36426
  0
VERTEX
  5
475
  8
Layer_0
  10
76.72464
  20
290.36426
  0
SEQEND
  0
POLYLINE
  5
477
  8
Layer_0
  62
5
  70
1
  66
1
  10
0
  20
0
  30
0
  0
VERTEX
  5
477
  8
Layer_0
  10
72.200806
  20
290.36426
  0
VERTEX
  5
478
  8
Layer_0
  10
72.200806
  20
293.53091
  0
VERTEX
  5
479
  8
Layer_0
  10
75.819824
  20
293.53091
  0
VERTEX
  5
47a
  8
Layer_0
  10
75.819824
  20
290.36426
  0
VERTEX
  5
47b
  8
Layer_0
  10
72.200806
  20
290.36426
  0
SEQEND
  0
POLYLINE
  5
47d
  8
Layer_1
  62
0
  70
1
  66
1
  10
0
  20
0
  30
0
  0
VERTEX
  5
47d
  8
Layer_1
  10
67.67749
  20
293.51251
  0
VERTEX
  5
47e
  8
Layer_1
  10
67.67749
  20
289.00751
  0
VERTEX
  5
47f
  8
Layer_1
  10
94.820007
  20
289.00751
  0
VERTEX
  5
480
  8
Layer_1
  10
94.820007
  20
286.1575
  0
VERTEX
  5
481
  8
Layer_1
  10
67.67749
  20
286.1575
  0
VERTEX
  5
482
  8
Layer_1
  10
67.67749
  20
281.65253
  0
VERTEX
  5
483
  8
Layer_1
  10
67.6875
  20
281.41251
  0
VERTEX
  5
484
  8
Layer_1
  10
67.720001
  20
281.18002
  0
VERTEX
  5
485
  8
Layer_1
  10
67.769989
  20
280.95251
  0
VERTEX
  5
486
  8
Layer_1
  10
67.837494
  20
280.73001
  0
VERTEX
  5
487
  8
Layer_1
  10
67.924988
  20
280.51752
  0
VERTEX
  5
488
  8
Layer_1
  10
68.029999
  20
280.315
  0
VERTEX
  5
489
  8
Layer_1
  10
68.152496
  20
280.12003
  0
VERTEX
  5
48a
  8
Layer_1
  10
68.287506
  20
279.93753
  0
VERTEX
  5
48b
  8
Layer_1
  10
68.605011
  20
279.61002
  0
VERTEX
  5
48c
  8
Layer_1
  10
68.782501
  20
279.46753
  0
VERTEX
  5
48d
  8
Layer_1
  10
68.972504
  20
279.34003
  0
VERTEX
  5
48e
  8
Layer_1
  10
69.174988
  20
279.22751
  0
VERTEX
  5
48f
  8
Layer_1
  10
69.389984
  20
279.13
  0
VERTEX
  5
490
  8
Layer_1
  10
69.612488
  20
279.05252
  0
VERTEX
  5
491
  8
Layer_1
  10
69.845001
  20
278.99503
  0
VERTEX
  5
492
  8
Layer_1
  10
82.347504
  20
276.42001
  0
VERTEX
  5
493
  8
Layer_1
  10
83.049988
  20
276.24503
  0
VERTEX
  5
494
  8
Layer_1
  10
83.737488
  20
276.01501
  0
VERTEX
  5
495
  8
Layer_1
  10
105.0625
  20
267.91251
  0
VERTEX
  5
496
  8
Layer_1
  10
105.20248
  20
267.87253
  0
VERTEX
  5
497
  8
Layer_1
  10
105.3425
  20
267.85501
  0
VERTEX
  5
498
  8
Layer_1
  10
105.48499
  20
267.86002
  0
VERTEX
  5
499
  8
Layer_1
  10
105.6225
  20
267.88501
  0
VERTEX
  5
49a
  8
Layer_1
  10
105.755
  20
267.93253
  0
VERTEX
  5
49b
  8
Layer_1
  10
105.8775
  20
268.00003
  0
VERTEX
  5
49c
  8
Layer_1
  10
105.98999
  20
268.08752
  0
VERTEX
  5
49d
  8
Layer_1
  10
106.09
  20
268.1925
  0
VERTEX
  5
49e
  8
Layer_1
  10
107.30249
  20
269.71002
  0
VERTEX
  5
49f
  8
Layer_1
  10
107.39999
  20
269.815
  0
VERTEX
  5
4a0
  8
Layer_1
  10
107.51248
  20
269.90253
  0
VERTEX
  5
4a1
  8
Layer_1
  10
107.63998
  20
269.97
  0
VERTEX
  5
4a2
  8
Layer_1
  10
107.77499
  20
270.01752
  0
VERTEX
  5
4a3
  8
Layer_1
  10
116.91501
  20
272.47751
  0
VERTEX
  5
4a4
  8
Layer_1
  10
117.48248
  20
272.65002
  0
VERTEX
  5
4a5
  8
Layer_1
  10
118.035
  20
272.86002
  0
VERTEX
  5
4a6
  8
Layer_1
  10
118.57251
  20
273.10501
  0
VERTEX
  5
4a7
  8
Layer_1
  10
119.0925
  20
273.38251
  0
VERTEX
  5
4a8
  8
Layer_1
  10
119.5925
  20
273.6925
  0
VERTEX
  5
4a9
  8
Layer_1
  10
120.07001
  20
274.03751
  0
VERTEX
  5
4aa
  8
Layer_1
  10
120.5275
  20
274.41251
  0
VERTEX
  5
4ab
  8
Layer_1
  10
120.95999
  20
274.8175
  0
VERTEX
  5
4ac
  8
Layer_1
  10
127.39249
  20
281.25003
  0
VERTEX
  5
4ad
  8
Layer_1
  10
127.39249
  20
293.91751
  0
VERTEX
  5
4ae
  8
Layer_1
  10
120.95999
  20
300.35001
  0
VERTEX
  5
4af
  8
Layer_1
  10
120.5275
  20
300.755
  0
VERTEX
  5
4b0
  8
Layer_1
  10
120.07001
  20
301.13
  0
VERTEX
  5
4b1
  8
Layer_1
  10
119.5925
  20
301.4725
  0
VERTEX
  5
4b2
  8
Layer_1
  10
119.0925
  20
301.785
  0
VERTEX
  5
4b3
  8
Layer_1
  10
118.57251
  20
302.0625
  0
VERTEX
  5
4b4
  8
Layer_1
  10
118.035
  20
302.30499
  0
VERTEX
  5
4b5
  8
Layer_1
  10
117.48248
  20
302.51501
  0
VERTEX
  5
4b6
  8
Layer_1
  10
116.91501
  20
302.6875
  0
VERTEX
  5
4b7
  8
Layer_1
  10
107.77499
  20
305.14999
  0
VERTEX
  5
4b8
  8
Layer_1
  10
107.63998
  20
305.19751
  0
VERTEX
  5
4b9
  8
Layer_1
  10
107.51248
  20
305.26749
  0
VERTEX
  5
4ba
  8
Layer_1
  10
107.39999
  20
305.35251
  0
VERTEX
  5
4bb
  8
Layer_1
  10
107.30249
  20
305.45749
  0
VERTEX
  5
4bc
  8
Layer_1
  10
106.09
  20
306.9725
  0
VERTEX
  5
4bd
  8
Layer_1
  10
105.98999
  20
307.07751
  0
VERTEX
  5
4be
  8
Layer_1
  10
105.8775
  20
307.16501
  0
VERTEX
  5
4bf
  8
Layer_1
  10
105.755
  20
307.23251
  0
VERTEX
  5
4c0
  8
Layer_1
  10
105.6225
  20
307.28
  0
VERTEX
  5
4c1
  8
Layer_1
  10
105.48499
  20
307.3075
  0
VERTEX
  5
4c2
  8
Layer_1
  10
105.3425
  20
307.3125
  0
VERTEX
  5
4c3
  8
Layer_1
  10
105.20248
  20
307.29501
  0
VERTEX
  5
4c4
  8
Layer_1
  10
105.0625
  20
307.255
  0
VERTEX
  5
4c5
  8
Layer_1
  10
83.737488
  20
299.14999
  0
VERTEX
  5
4c6
  8
Layer_1
  10
83.049988
  20
298.92249
  0
VERTEX
  5
4c7
  8
Layer_1
  10
82.347504
  20
298.7475
  0
VERTEX
  5
4c8
  8
Layer_1
  10
69.845001
  20
296.17252
  0
VERTEX
  5
4c9
  8
Layer_1
  10
69.612488
  20
296.11502
  0
VERTEX
  5
4ca
  8
Layer_1
  10
69.389984
  20
296.03751
  0
VERTEX
  5
4cb
  8
Layer_1
  10
69.174988
  20
295.94
  0
VERTEX
  5
4cc
  8
Layer_1
  10
68.972504
  20
295.82751
  0
VERTEX
  5
4cd
  8
Layer_1
  10
68.782501
  20
295.70001
  0
VERTEX
  5
4ce
  8
Layer_1
  10
68.605011
  20
295.55753
  0
VERTEX
  5
4cf
  8
Layer_1
  10
68.287506
  20
295.23001
  0
VERTEX
  5
4d0
  8
Layer_1
  10
68.152496
  20
295.04501
  0
VERTEX
  5
4d1
  8
Layer_1
  10
68.029999
  20
294.85251
  0
VERTEX
  5
4d2
  8
Layer_1
  10
67.924988
  20
294.64752
  0
VERTEX
  5
4d3
  8
Layer_1
  10
67.837494
  20
294.43503
  0
VERTEX
  5
4d4
  8
Layer_1
  10
67.769989
  20
294.21503
  0
VERTEX
  5
4d5
  8
Layer_1
  10
67.720001
  20
293.98752
  0
VERTEX
  5
4d6
  8
Layer_1
  10
67.6875
  20
293.7525
  0
VERTEX
  5
4d7
  8
Layer_1
  10
67.67749
  20
293.51251
  0
SEQEND
  0
POLYLINE
  5
4d9
  8
Layer_1
  62
0
  70
1
  66
1
  10
0
  20
0
  30
0
  0
VERTEX
  5
4d9
  8
Layer_1
  10
135.2175
  20
339.6925
  0
VERTEX
  5
4da
  8
Layer_1
  10
133.4375
  20
335.37
  0
VERTEX
  5
4db
  8
Layer_1
  10
132.995
  20
334.21249
  0
VERTEX
  5
4dc
  8
Layer_1
  10
132.60748
  20
333.03751
  0
VERTEX
  5
4dd
  8
Layer_1
  10
132.28
  20
331.845
  0
VERTEX
  5
4de
  8
Layer_1
  10
132.01248
  20
330.63998
  0
VERTEX
  5
4df
  8
Layer_1
  10
131.80249
  20
329.42001
  0
VERTEX
  5
4e0
  8
Layer_1
  10
131.64999
  20
328.19501
  0
VERTEX
  5
4e1
  8
Layer_1
  10
131.5975
  20
327.57748
  0
VERTEX
  5
4e2
  8
Layer_1
  10
131.56
  20
326.95999
  0
VERTEX
  5
4e3
  8
Layer_1
  10
131.53751
  20
326.34
  0
VERTEX
  5
4e4
  8
Layer_1
  10
131.53
  20
325.72
  0
VERTEX
  5
4e5
  8
Layer_1
  10
136.08749
  20
325.72
  0
VERTEX
  5
4e6
  8
Layer_1
  10
136.08749
  20
339.51999
  0
VERTEX
  5
4e7
  8
Layer_1
  10
136.07748
  20
339.60999
  0
VERTEX
  5
4e8
  8
Layer_1
  10
136.05249
  20
339.69501
  0
VERTEX
  5
4e9
  8
Layer_1
  10
136.01001
  20
339.77249
  0
VERTEX
  5
4ea
  8
Layer_1
  10
135.95499
  20
339.84
  0
VERTEX
  5
4eb
  8
Layer_1
  10
135.88748
  20
339.89499
  0
VERTEX
  5
4ec
  8
Layer_1
  10
135.81
  20
339.9375
  0
VERTEX
  5
4ed
  8
Layer_1
  10
135.72501
  20
339.96249
  0
VERTEX
  5
4ee
  8
Layer_1
  10
135.63501
  20
339.9725
  0
VERTEX
  5
4ef
  8
Layer_1
  10
135.5025
  20
339.95248
  0
VERTEX
  5
4f0
  8
Layer_1
  10
135.38501
  20
339.89499
  0
VERTEX
  5
4f1
  8
Layer_1
  10
135.28751
  20
339.8075
  0
VERTEX
  5
4f2
  8
Layer_1
  10
135.2175
  20
339.6925
  0
SEQEND
  0
POLYLINE
  5
4f4
  8
Layer_1
  62
0
  70
1
  66
1
  10
0
  20
0
  30
0
  0
VERTEX
  5
4f4
  8
Layer_1
  10
136.0874
  20
304.36603
  0
VERTEX
  5
4f5
  8
Layer_1
  10
136.0874
  20
295.31842
  0
VERTEX
  5
4f6
  8
Layer_1
  10
134.63452
  20
304.36603
  0
VERTEX
  5
4f7
  8
Layer_1
  10
136.0874
  20
304.36603
  0
SEQEND
  0
POLYLINE
  5
4f9
  8
Layer_1
  62
0
  70
1
  66
1
  10
0
  20
0
  30
0
  0
VERTEX
  5
4f9
  8
Layer_1
  10
131.85001
  20
321.70749
  0
VERTEX
  5
4fa
  8
Layer_1
  10
134.375
  20
305.995
  0
VERTEX
  5
4fb
  8
Layer_1
  10
136.08749
  20
305.995
  0
VERTEX
  5
4fc
  8
Layer_1
  10
136.08749
  20
324.09
  0
VERTEX
  5
4fd
  8
Layer_1
  10
131.58249
  20
324.09
  0
VERTEX
  5
4fe
  8
Layer_1
  10
131.69
  20
322.89499
  0
VERTEX
  5
4ff
  8
Layer_1
  10
131.85001
  20
321.70749
  0
SEQEND
  0
POLYLINE
  5
501
  8
Layer_1
  62
0
  70
1
  66
1
  10
0
  20
0
  30
0
  0
VERTEX
  5
501
  8
Layer_1
  10
144.8725
  20
369.41501
  0
VERTEX
  5
502
  8
Layer_1
  10
144.33249
  20
371.3125
  0
VERTEX
  5
503
  8
Layer_1
  10
144.26498
  20
371.48248
  0
VERTEX
  5
504
  8
Layer_1
  10
144.16748
  20
371.63251
  0
VERTEX
  5
505
  8
Layer_1
  10
144.04498
  20
371.75751
  0
VERTEX
  5
506
  8
Layer_1
  10
143.9025
  20
371.85501
  0
VERTEX
  5
507
  8
Layer_1
  10
143.74249
  20
371.92499
  0
VERTEX
  5
508
  8
Layer_1
  10
143.57251
  20
371.96249
  0
VERTEX
  5
509
  8
Layer_1
  10
143.39499
  20
371.9675
  0
VERTEX
  5
50a
  8
Layer_1
  10
143.215
  20
371.935
  0
VERTEX
  5
50b
  8
Layer_1
  10
143.02499
  20
371.85748
  0
VERTEX
  5
50c
  8
Layer_1
  10
142.86249
  20
371.74249
  0
VERTEX
  5
50d
  8
Layer_1
  10
142.72751
  20
371.59
  0
VERTEX
  5
50e
  8
Layer_1
  10
142.6275
  20
371.41251
  0
VERTEX
  5
50f
  8
Layer_1
  10
141.9675
  20
369.78
  0
VERTEX
  5
510
  8
Layer_1
  10
141.32999
  20
368.13998
  0
VERTEX
  5
511
  8
Layer_1
  10
140.72
  20
366.48999
  0
VERTEX
  5
512
  8
Layer_1
  10
140.13748
  20
364.83249
  0
VERTEX
  5
513
  8
Layer_1
  10
139.57999
  20
363.16501
  0
VERTEX
  5
514
  8
Layer_1
  10
139.04749
  20
361.48999
  0
VERTEX
  5
515
  8
Layer_1
  10
138.54248
  20
359.8075
  0
VERTEX
  5
516
  8
Layer_1
  10
138.0625
  20
358.11749
  0
VERTEX
  5
517
  8
Layer_1
  10
137.60999
  20
356.42001
  0
VERTEX
  5
518
  8
Layer_1
  10
137.185
  20
354.7175
  0
VERTEX
  5
519
  8
Layer_1
  10
136.785
  20
353.005
  0
VERTEX
  5
51a
  8
Layer_1
  10
136.41
  20
351.28751
  0
VERTEX
  5
51b
  8
Layer_1
  10
136.065
  20
349.565
  0
VERTEX
  5
51c
  8
Layer_1
  10
135.745
  20
347.83499
  0
VERTEX
  5
51d
  8
Layer_1
  10
135.44998
  20
346.10251
  0
VERTEX
  5
51e
  8
Layer_1
  10
135.185
  20
344.36249
  0
VERTEX
  5
51f
  8
Layer_1
  10
131.76498
  20
336.06
  0
VERTEX
  5
520
  8
Layer_1
  10
131.42249
  20
335.1875
  0
VERTEX
  5
521
  8
Layer_1
  10
131.11249
  20
334.30499
  0
VERTEX
  5
522
  8
Layer_1
  10
130.83249
  20
333.41251
  0
VERTEX
  5
523
  8
Layer_1
  10
130.58499
  20
332.51498
  0
VERTEX
  5
524
  8
Layer_1
  10
130.36749
  20
331.60999
  0
VERTEX
  5
525
  8
Layer_1
  10
130.17999
  20
330.69751
  0
VERTEX
  5
526
  8
Layer_1
  10
130.02499
  20
329.78
  0
VERTEX
  5
527
  8
Layer_1
  10
129.9025
  20
328.85751
  0
VERTEX
  5
528
  8
Layer_1
  10
129.81
  20
327.9325
  0
VERTEX
  5
529
  8
Layer_1
  10
129.75
  20
327.005
  0
VERTEX
  5
52a
  8
Layer_1
  10
129.7225
  20
326.07501
  0
VERTEX
  5
52b
  8
Layer_1
  10
129.72751
  20
325.14249
  0
VERTEX
  5
52c
  8
Layer_1
  10
129.76248
  20
324.21249
  0
VERTEX
  5
52d
  8
Layer_1
  10
129.83249
  20
323.28
  0
VERTEX
  5
52e
  8
Layer_1
  10
129.9325
  20
322.35001
  0
VERTEX
  5
52f
  8
Layer_1
  10
130.065
  20
321.42249
  0
VERTEX
  5
530
  8
Layer_1
  10
138.5575
  20
268.52753
  0
VERTEX
  5
531
  8
Layer_1
  10
138.63998
  20
268.21002
  0
VERTEX
  5
532
  8
Layer_1
  10
138.77249
  20
267.92001
  0
VERTEX
  5
533
  8
Layer_1
  10
138.95248
  20
267.66
  0
VERTEX
  5
534
  8
Layer_1
  10
139.17249
  20
267.43753
  0
VERTEX
  5
535
  8
Layer_1
  10
139.42749
  20
267.255
  0
VERTEX
  5
536
  8
Layer_1
  10
139.71249
  20
267.12003
  0
VERTEX
  5
537
  8
Layer_1
  10
140.01999
  20
267.035
  0
VERTEX
  5
538
  8
Layer_1
  10
140.17999
  20
267.01251
  0
VERTEX
  5
539
  8
Layer_1
  10
140.345
  20
267.005
  0
VERTEX
  5
53a
  8
Layer_1
  10
141.51749
  20
267.005
  0
VERTEX
  5
53b
  8
Layer_1
  10
141.51749
  20
269.26501
  0
VERTEX
  5
53c
  8
Layer_1
  10
140.61249
  20
269.26501
  0
VERTEX
  5
53d
  8
Layer_1
  10
140.61249
  20
301.83749
  0
VERTEX
  5
53e
  8
Layer_1
  10
146.44751
  20
301.83749
  0
VERTEX
  5
53f
  8
Layer_1
  10
146.44751
  20
269.26501
  0
VERTEX
  5
540
  8
Layer_1
  10
145.54248
  20
269.26501
  0
VERTEX
  5
541
  8
Layer_1
  10
145.54248
  20
267.005
  0
VERTEX
  5
542
  8
Layer_1
  10
146.67249
  20
267.005
  0
VERTEX
  5
543
  8
Layer_1
  10
146.84
  20
267.01251
  0
VERTEX
  5
544
  8
Layer_1
  10
147.005
  20
267.035
  0
VERTEX
  5
545
  8
Layer_1
  10
147.32001
  20
267.12503
  0
VERTEX
  5
546
  8
Layer_1
  10
147.60748
  20
267.26501
  0
VERTEX
  5
547
  8
Layer_1
  10
147.86499
  20
267.45251
  0
VERTEX
  5
548
  8
Layer_1
  10
148.08499
  20
267.68253
  0
VERTEX
  5
549
  8
Layer_1
  10
148.26498
  20
267.95001
  0
VERTEX
  5
54a
  8
Layer_1
  10
148.39249
  20
268.25003
  0
VERTEX
  5
54b
  8
Layer_1
  10
148.4375
  20
268.41
  0
VERTEX
  5
54c
  8
Layer_1
  10
148.4675
  20
268.57501
  0
VERTEX
  5
54d
  8
Layer_1
  10
150.0675
  20
280.57501
  0
VERTEX
  5
54e
  8
Layer_1
  10
150.0675
  20
332.23001
  0
VERTEX
  5
54f
  8
Layer_1
  10
150.04749
  20
334.58749
  0
VERTEX
  5
550
  8
Layer_1
  10
149.98499
  20
336.9425
  0
VERTEX
  5
551
  8
Layer_1
  10
149.88251
  20
339.29501
  0
VERTEX
  5
552
  8
Layer_1
  10
149.73999
  20
341.64499
  0
VERTEX
  5
553
  8
Layer_1
  10
149.5575
  20
343.98999
  0
VERTEX
  5
554
  8
Layer_1
  10
149.33249
  20
346.33249
  0
VERTEX
  5
555
  8
Layer_1
  10
149.0675
  20
348.67001
  0
VERTEX
  5
556
  8
Layer_1
  10
148.76248
  20
351.0025
  0
VERTEX
  5
557
  8
Layer_1
  10
148.41748
  20
353.32999
  0
VERTEX
  5
558
  8
Layer_1
  10
148.0325
  20
355.64999
  0
VERTEX
  5
559
  8
Layer_1
  10
147.60498
  20
357.965
  0
VERTEX
  5
55a
  8
Layer_1
  10
147.13748
  20
360.26999
  0
VERTEX
  5
55b
  8
Layer_1
  10
146.63251
  20
362.57001
  0
VERTEX
  5
55c
  8
Layer_1
  10
146.08499
  20
364.85999
  0
VERTEX
  5
55d
  8
Layer_1
  10
145.5
  20
367.14249
  0
VERTEX
  5
55e
  8
Layer_1
  10
144.8725
  20
369.41501
  0
SEQEND
  0
ENDSEC
  0
EOF
