  0
SECTION
  2
HEADER
  9
$ACADVER
  1
AC1009
  0
ENDSEC
  0
SECTION
  2
ENTITIES
  0
POLYLINE
  5
90
  8
Layer_0
  62
0
  70
1
  66
1
  10
0
  20
0
  30
0
  0
VERTEX
  5
90
  8
Layer_0
  10
253.07849
  20
256.90002
  0
VERTEX
  5
91
  8
Layer_0
  10
302.04648
  20
256.90002
  0
VERTEX
  5
92
  8
Layer_0
  10
302.08868
  20
256.91409
  0
VERTEX
  5
93
  8
Layer_0
  10
302.08398
  20
256.9375
  0
VERTEX
  5
94
  8
Layer_0
  10
302.06055
  20
256.9422
  0
VERTEX
  5
95
  8
Layer_0
  10
302.04648
  20
256.90002
  0
VERTEX
  5
96
  8
Layer_0
  10
302.04648
  20
256.00003
  0
VERTEX
  5
97
  8
Layer_0
  10
302.0755
  20
255.9294
  0
VERTEX
  5
98
  8
Layer_0
  10
302.14648
  20
255.90002
  0
VERTEX
  5
99
  8
Layer_0
  10
307.07147
  20
255.90002
  0
VERTEX
  5
9a
  8
Layer_0
  10
307.11368
  20
255.91409
  0
VERTEX
  5
9b
  8
Layer_0
  10
307.10901
  20
255.93753
  0
VERTEX
  5
9c
  8
Layer_0
  10
307.08557
  20
255.94221
  0
VERTEX
  5
9d
  8
Layer_0
  10
307.07147
  20
255.90002
  0
VERTEX
  5
9e
  8
Layer_0
  10
307.07147
  20
253.15002
  0
VERTEX
  5
9f
  8
Layer_0
  10
307.10046
  20
253.07939
  0
VERTEX
  5
a0
  8
Layer_0
  10
307.17151
  20
253.05002
  0
VERTEX
  5
a1
  8
Layer_0
  10
312.87149
  20
253.05002
  0
VERTEX
  5
a2
  8
Layer_0
  10
312.94211
  20
253.07939
  0
VERTEX
  5
a3
  8
Layer_0
  10
312.9715
  20
253.15002
  0
VERTEX
  5
a4
  8
Layer_0
  10
312.9715
  20
255.90002
  0
VERTEX
  5
a5
  8
Layer_0
  10
312.95743
  20
255.94221
  0
VERTEX
  5
a6
  8
Layer_0
  10
312.93402
  20
255.93753
  0
VERTEX
  5
a7
  8
Layer_0
  10
312.92932
  20
255.91409
  0
VERTEX
  5
a8
  8
Layer_0
  10
312.9715
  20
255.90002
  0
VERTEX
  5
a9
  8
Layer_0
  10
318.4715
  20
255.90002
  0
VERTEX
  5
aa
  8
Layer_0
  10
318.51367
  20
255.91409
  0
VERTEX
  5
ab
  8
Layer_0
  10
318.50897
  20
255.93753
  0
VERTEX
  5
ac
  8
Layer_0
  10
318.48557
  20
255.94221
  0
VERTEX
  5
ad
  8
Layer_0
  10
318.4715
  20
255.90002
  0
VERTEX
  5
ae
  8
Layer_0
  10
318.4715
  20
253.15002
  0
VERTEX
  5
af
  8
Layer_0
  10
318.50049
  20
253.07939
  0
VERTEX
  5
b0
  8
Layer_0
  10
318.57147
  20
253.05002
  0
VERTEX
  5
b1
  8
Layer_0
  10
324.27148
  20
253.05002
  0
VERTEX
  5
b2
  8
Layer_0
  10
324.3421
  20
253.07939
  0
VERTEX
  5
b3
  8
Layer_0
  10
324.37149
  20
253.15002
  0
VERTEX
  5
b4
  8
Layer_0
  10
324.37149
  20
255.90002
  0
VERTEX
  5
b5
  8
Layer_0
  10
324.35742
  20
255.94221
  0
VERTEX
  5
b6
  8
Layer_0
  10
324.33398
  20
255.93753
  0
VERTEX
  5
b7
  8
Layer_0
  10
324.32928
  20
255.91409
  0
VERTEX
  5
b8
  8
Layer_0
  10
324.37149
  20
255.90002
  0
VERTEX
  5
b9
  8
Layer_0
  10
329.29651
  20
255.90002
  0
VERTEX
  5
ba
  8
Layer_0
  10
329.36713
  20
255.9294
  0
VERTEX
  5
bb
  8
Layer_0
  10
329.39648
  20
256.00003
  0
VERTEX
  5
bc
  8
Layer_0
  10
329.39648
  20
260.65002
  0
VERTEX
  5
bd
  8
Layer_0
  10
329.38242
  20
260.6922
  0
VERTEX
  5
be
  8
Layer_0
  10
329.35901
  20
260.6875
  0
VERTEX
  5
bf
  8
Layer_0
  10
329.35431
  20
260.66409
  0
VERTEX
  5
c0
  8
Layer_0
  10
329.39648
  20
260.65002
  0
VERTEX
  5
c1
  8
Layer_0
  10
332.14648
  20
260.65002
  0
VERTEX
  5
c2
  8
Layer_0
  10
332.2171
  20
260.67938
  0
VERTEX
  5
c3
  8
Layer_0
  10
332.24649
  20
260.75003
  0
VERTEX
  5
c4
  8
Layer_0
  10
332.24649
  20
266.45001
  0
VERTEX
  5
c5
  8
Layer_0
  10
332.2171
  20
266.52063
  0
VERTEX
  5
c6
  8
Layer_0
  10
332.14648
  20
266.55002
  0
VERTEX
  5
c7
  8
Layer_0
  10
329.39648
  20
266.55002
  0
VERTEX
  5
c8
  8
Layer_0
  10
329.35431
  20
266.53595
  0
VERTEX
  5
c9
  8
Layer_0
  10
329.35901
  20
266.51251
  0
VERTEX
  5
ca
  8
Layer_0
  10
329.38242
  20
266.50781
  0
VERTEX
  5
cb
  8
Layer_0
  10
329.39648
  20
266.55002
  0
VERTEX
  5
cc
  8
Layer_0
  10
329.39648
  20
272.05002
  0
VERTEX
  5
cd
  8
Layer_0
  10
329.38242
  20
272.09222
  0
VERTEX
  5
ce
  8
Layer_0
  10
329.35901
  20
272.08752
  0
VERTEX
  5
cf
  8
Layer_0
  10
329.35431
  20
272.06409
  0
VERTEX
  5
d0
  8
Layer_0
  10
329.39648
  20
272.05002
  0
VERTEX
  5
d1
  8
Layer_0
  10
332.14648
  20
272.05002
  0
VERTEX
  5
d2
  8
Layer_0
  10
332.2171
  20
272.07941
  0
VERTEX
  5
d3
  8
Layer_0
  10
332.24649
  20
272.15002
  0
VERTEX
  5
d4
  8
Layer_0
  10
332.24649
  20
277.85001
  0
VERTEX
  5
d5
  8
Layer_0
  10
332.2171
  20
277.92065
  0
VERTEX
  5
d6
  8
Layer_0
  10
332.14648
  20
277.95001
  0
VERTEX
  5
d7
  8
Layer_0
  10
329.39648
  20
277.95001
  0
VERTEX
  5
d8
  8
Layer_0
  10
329.35431
  20
277.93594
  0
VERTEX
  5
d9
  8
Layer_0
  10
329.35901
  20
277.91254
  0
VERTEX
  5
da
  8
Layer_0
  10
329.38242
  20
277.90784
  0
VERTEX
  5
db
  8
Layer_0
  10
329.39648
  20
277.95001
  0
VERTEX
  5
dc
  8
Layer_0
  10
329.39648
  20
283.45001
  0
VERTEX
  5
dd
  8
Layer_0
  10
329.38242
  20
283.49219
  0
VERTEX
  5
de
  8
Layer_0
  10
329.35901
  20
283.48749
  0
VERTEX
  5
df
  8
Layer_0
  10
329.35431
  20
283.46408
  0
VERTEX
  5
e0
  8
Layer_0
  10
329.39648
  20
283.45001
  0
VERTEX
  5
e1
  8
Layer_0
  10
332.14648
  20
283.45001
  0
VERTEX
  5
e2
  8
Layer_0
  10
332.2171
  20
283.4794
  0
VERTEX
  5
e3
  8
Layer_0
  10
332.24649
  20
283.55002
  0
VERTEX
  5
e4
  8
Layer_0
  10
332.24649
  20
289.25003
  0
VERTEX
  5
e5
  8
Layer_0
  10
332.2171
  20
289.32062
  0
VERTEX
  5
e6
  8
Layer_0
  10
332.14648
  20
289.35001
  0
VERTEX
  5
e7
  8
Layer_0
  10
329.39648
  20
289.35001
  0
VERTEX
  5
e8
  8
Layer_0
  10
329.35431
  20
289.33594
  0
VERTEX
  5
e9
  8
Layer_0
  10
329.35901
  20
289.3125
  0
VERTEX
  5
ea
  8
Layer_0
  10
329.38242
  20
289.30783
  0
VERTEX
  5
eb
  8
Layer_0
  10
329.39648
  20
289.35001
  0
VERTEX
  5
ec
  8
Layer_0
  10
329.39648
  20
294.85001
  0
VERTEX
  5
ed
  8
Layer_0
  10
329.38242
  20
294.89221
  0
VERTEX
  5
ee
  8
Layer_0
  10
329.35901
  20
294.88751
  0
VERTEX
  5
ef
  8
Layer_0
  10
329.35431
  20
294.86407
  0
VERTEX
  5
f0
  8
Layer_0
  10
329.39648
  20
294.85001
  0
VERTEX
  5
f1
  8
Layer_0
  10
332.14648
  20
294.85001
  0
VERTEX
  5
f2
  8
Layer_0
  10
332.2171
  20
294.87939
  0
VERTEX
  5
f3
  8
Layer_0
  10
332.24649
  20
294.95001
  0
VERTEX
  5
f4
  8
Layer_0
  10
332.24649
  20
300.65002
  0
VERTEX
  5
f5
  8
Layer_0
  10
332.2171
  20
300.72064
  0
VERTEX
  5
f6
  8
Layer_0
  10
332.14648
  20
300.75
  0
VERTEX
  5
f7
  8
Layer_0
  10
329.39648
  20
300.75
  0
VERTEX
  5
f8
  8
Layer_0
  10
329.35431
  20
300.73593
  0
VERTEX
  5
f9
  8
Layer_0
  10
329.35901
  20
300.71252
  0
VERTEX
  5
fa
  8
Layer_0
  10
329.38242
  20
300.70782
  0
VERTEX
  5
fb
  8
Layer_0
  10
329.39648
  20
300.75
  0
VERTEX
  5
fc
  8
Layer_0
  10
329.39648
  20
306.25
  0
VERTEX
  5
fd
  8
Layer_0
  10
329.38242
  20
306.29221
  0
VERTEX
  5
fe
  8
Layer_0
  10
329.35901
  20
306.28754
  0
VERTEX
  5
ff
  8
Layer_0
  10
329.35431
  20
306.2641
  0
VERTEX
  5
100
  8
Layer_0
  10
329.39648
  20
306.25
  0
VERTEX
  5
101
  8
Layer_0
  10
332.14648
  20
306.25
  0
VERTEX
  5
102
  8
Layer_0
  10
332.2171
  20
306.27939
  0
VERTEX
  5
103
  8
Layer_0
  10
332.24649
  20
306.35004
  0
VERTEX
  5
104
  8
Layer_0
  10
332.24649
  20
312.05002
  0
VERTEX
  5
105
  8
Layer_0
  10
332.2171
  20
312.12064
  0
VERTEX
  5
106
  8
Layer_0
  10
332.14648
  20
312.15002
  0
VERTEX
  5
107
  8
Layer_0
  10
329.39648
  20
312.15002
  0
VERTEX
  5
108
  8
Layer_0
  10
329.35431
  20
312.13596
  0
VERTEX
  5
109
  8
Layer_0
  10
329.35901
  20
312.11255
  0
VERTEX
  5
10a
  8
Layer_0
  10
329.38242
  20
312.10785
  0
VERTEX
  5
10b
  8
Layer_0
  10
329.39648
  20
312.15002
  0
VERTEX
  5
10c
  8
Layer_0
  10
329.39648
  20
317.65002
  0
VERTEX
  5
10d
  8
Layer_0
  10
329.38242
  20
317.6922
  0
VERTEX
  5
10e
  8
Layer_0
  10
329.35901
  20
317.6875
  0
VERTEX
  5
10f
  8
Layer_0
  10
329.35431
  20
317.66409
  0
VERTEX
  5
110
  8
Layer_0
  10
329.39648
  20
317.65002
  0
VERTEX
  5
111
  8
Layer_0
  10
332.14648
  20
317.65002
  0
VERTEX
  5
112
  8
Layer_0
  10
332.2171
  20
317.67938
  0
VERTEX
  5
113
  8
Layer_0
  10
332.24649
  20
317.75
  0
VERTEX
  5
114
  8
Layer_0
  10
332.24649
  20
323.45001
  0
VERTEX
  5
115
  8
Layer_0
  10
332.2171
  20
323.52063
  0
VERTEX
  5
116
  8
Layer_0
  10
332.14648
  20
323.55002
  0
VERTEX
  5
117
  8
Layer_0
  10
329.39648
  20
323.55002
  0
VERTEX
  5
118
  8
Layer_0
  10
329.35431
  20
323.53595
  0
VERTEX
  5
119
  8
Layer_0
  10
329.35901
  20
323.51251
  0
VERTEX
  5
11a
  8
Layer_0
  10
329.38242
  20
323.50781
  0
VERTEX
  5
11b
  8
Layer_0
  10
329.39648
  20
323.55002
  0
VERTEX
  5
11c
  8
Layer_0
  10
329.39648
  20
329.05002
  0
VERTEX
  5
11d
  8
Layer_0
  10
329.38242
  20
329.09222
  0
VERTEX
  5
11e
  8
Layer_0
  10
329.35901
  20
329.08752
  0
VERTEX
  5
11f
  8
Layer_0
  10
329.35431
  20
329.06409
  0
VERTEX
  5
120
  8
Layer_0
  10
329.39648
  20
329.05002
  0
VERTEX
  5
121
  8
Layer_0
  10
332.14648
  20
329.05002
  0
VERTEX
  5
122
  8
Layer_0
  10
332.2171
  20
329.07941
  0
VERTEX
  5
123
  8
Layer_0
  10
332.24649
  20
329.15002
  0
VERTEX
  5
124
  8
Layer_0
  10
332.24649
  20
334.85004
  0
VERTEX
  5
125
  8
Layer_0
  10
332.2171
  20
334.92065
  0
VERTEX
  5
126
  8
Layer_0
  10
332.14648
  20
334.95001
  0
VERTEX
  5
127
  8
Layer_0
  10
329.39648
  20
334.95001
  0
VERTEX
  5
128
  8
Layer_0
  10
329.35431
  20
334.93594
  0
VERTEX
  5
129
  8
Layer_0
  10
329.35901
  20
334.91254
  0
VERTEX
  5
12a
  8
Layer_0
  10
329.38242
  20
334.90784
  0
VERTEX
  5
12b
  8
Layer_0
  10
329.39648
  20
334.95001
  0
VERTEX
  5
12c
  8
Layer_0
  10
329.39648
  20
340.45001
  0
VERTEX
  5
12d
  8
Layer_0
  10
329.38242
  20
340.49219
  0
VERTEX
  5
12e
  8
Layer_0
  10
329.35901
  20
340.48749
  0
VERTEX
  5
12f
  8
Layer_0
  10
329.35431
  20
340.46408
  0
VERTEX
  5
130
  8
Layer_0
  10
329.39648
  20
340.45001
  0
VERTEX
  5
131
  8
Layer_0
  10
332.14648
  20
340.45001
  0
VERTEX
  5
132
  8
Layer_0
  10
332.2171
  20
340.4794
  0
VERTEX
  5
133
  8
Layer_0
  10
332.24649
  20
340.55002
  0
VERTEX
  5
134
  8
Layer_0
  10
332.24649
  20
346.25
  0
VERTEX
  5
135
  8
Layer_0
  10
332.2171
  20
346.32065
  0
VERTEX
  5
136
  8
Layer_0
  10
332.14648
  20
346.35004
  0
VERTEX
  5
137
  8
Layer_0
  10
329.39648
  20
346.35004
  0
VERTEX
  5
138
  8
Layer_0
  10
329.35431
  20
346.33594
  0
VERTEX
  5
139
  8
Layer_0
  10
329.35901
  20
346.3125
  0
VERTEX
  5
13a
  8
Layer_0
  10
329.38242
  20
346.30783
  0
VERTEX
  5
13b
  8
Layer_0
  10
329.39648
  20
346.35004
  0
VERTEX
  5
13c
  8
Layer_0
  10
329.39648
  20
351.85004
  0
VERTEX
  5
13d
  8
Layer_0
  10
329.38242
  20
351.89221
  0
VERTEX
  5
13e
  8
Layer_0
  10
329.35901
  20
351.88751
  0
VERTEX
  5
13f
  8
Layer_0
  10
329.35431
  20
351.86411
  0
VERTEX
  5
140
  8
Layer_0
  10
329.39648
  20
351.85004
  0
VERTEX
  5
141
  8
Layer_0
  10
332.14648
  20
351.85004
  0
VERTEX
  5
142
  8
Layer_0
  10
332.2171
  20
351.87939
  0
VERTEX
  5
143
  8
Layer_0
  10
332.24649
  20
351.95001
  0
VERTEX
  5
144
  8
Layer_0
  10
332.24649
  20
357.65002
  0
VERTEX
  5
145
  8
Layer_0
  10
332.2171
  20
357.72064
  0
VERTEX
  5
146
  8
Layer_0
  10
332.14648
  20
357.75
  0
VERTEX
  5
147
  8
Layer_0
  10
329.39648
  20
357.75
  0
VERTEX
  5
148
  8
Layer_0
  10
329.35431
  20
357.73593
  0
VERTEX
  5
149
  8
Layer_0
  10
329.35901
  20
357.71252
  0
VERTEX
  5
14a
  8
Layer_0
  10
329.38242
  20
357.70782
  0
VERTEX
  5
14b
  8
Layer_0
  10
329.39648
  20
357.75
  0
VERTEX
  5
14c
  8
Layer_0
  10
329.39648
  20
363.25
  0
VERTEX
  5
14d
  8
Layer_0
  10
329.38242
  20
363.29221
  0
VERTEX
  5
14e
  8
Layer_0
  10
329.35901
  20
363.28754
  0
VERTEX
  5
14f
  8
Layer_0
  10
329.35431
  20
363.2641
  0
VERTEX
  5
150
  8
Layer_0
  10
329.39648
  20
363.25
  0
VERTEX
  5
151
  8
Layer_0
  10
332.14648
  20
363.25
  0
VERTEX
  5
152
  8
Layer_0
  10
332.2171
  20
363.27939
  0
VERTEX
  5
153
  8
Layer_0
  10
332.24649
  20
363.35004
  0
VERTEX
  5
154
  8
Layer_0
  10
332.24649
  20
369.05002
  0
VERTEX
  5
155
  8
Layer_0
  10
332.2171
  20
369.12064
  0
VERTEX
  5
156
  8
Layer_0
  10
332.14648
  20
369.15002
  0
VERTEX
  5
157
  8
Layer_0
  10
329.39648
  20
369.15002
  0
VERTEX
  5
158
  8
Layer_0
  10
329.35431
  20
369.13596
  0
VERTEX
  5
159
  8
Layer_0
  10
329.35901
  20
369.11255
  0
VERTEX
  5
15a
  8
Layer_0
  10
329.38242
  20
369.10785
  0
VERTEX
  5
15b
  8
Layer_0
  10
329.39648
  20
369.15002
  0
VERTEX
  5
15c
  8
Layer_0
  10
329.39648
  20
374.65002
  0
VERTEX
  5
15d
  8
Layer_0
  10
329.38242
  20
374.6922
  0
VERTEX
  5
15e
  8
Layer_0
  10
329.35901
  20
374.6875
  0
VERTEX
  5
15f
  8
Layer_0
  10
329.35431
  20
374.66409
  0
VERTEX
  5
160
  8
Layer_0
  10
329.39648
  20
374.65002
  0
VERTEX
  5
161
  8
Layer_0
  10
332.14648
  20
374.65002
  0
VERTEX
  5
162
  8
Layer_0
  10
332.2171
  20
374.67938
  0
VERTEX
  5
163
  8
Layer_0
  10
332.24649
  20
374.75
  0
VERTEX
  5
164
  8
Layer_0
  10
332.24649
  20
380.45001
  0
VERTEX
  5
165
  8
Layer_0
  10
332.2171
  20
380.52063
  0
VERTEX
  5
166
  8
Layer_0
  10
332.14648
  20
380.55002
  0
VERTEX
  5
167
  8
Layer_0
  10
329.39648
  20
380.55002
  0
VERTEX
  5
168
  8
Layer_0
  10
329.35431
  20
380.53595
  0
VERTEX
  5
169
  8
Layer_0
  10
329.35901
  20
380.51251
  0
VERTEX
  5
16a
  8
Layer_0
  10
329.38242
  20
380.50781
  0
VERTEX
  5
16b
  8
Layer_0
  10
329.39648
  20
380.55002
  0
VERTEX
  5
16c
  8
Layer_0
  10
329.39648
  20
386.05002
  0
VERTEX
  5
16d
  8
Layer_0
  10
329.38242
  20
386.09222
  0
VERTEX
  5
16e
  8
Layer_0
  10
329.35901
  20
386.08752
  0
VERTEX
  5
16f
  8
Layer_0
  10
329.35431
  20
386.06409
  0
VERTEX
  5
170
  8
Layer_0
  10
329.39648
  20
386.05002
  0
VERTEX
  5
171
  8
Layer_0
  10
332.14648
  20
386.05002
  0
VERTEX
  5
172
  8
Layer_0
  10
332.2171
  20
386.07941
  0
VERTEX
  5
173
  8
Layer_0
  10
332.24649
  20
386.15002
  0
VERTEX
  5
174
  8
Layer_0
  10
332.24649
  20
391.85004
  0
VERTEX
  5
175
  8
Layer_0
  10
332.2171
  20
391.92065
  0
VERTEX
  5
176
  8
Layer_0
  10
332.14648
  20
391.95001
  0
VERTEX
  5
177
  8
Layer_0
  10
329.39648
  20
391.95001
  0
VERTEX
  5
178
  8
Layer_0
  10
329.35431
  20
391.93594
  0
VERTEX
  5
179
  8
Layer_0
  10
329.35901
  20
391.91254
  0
VERTEX
  5
17a
  8
Layer_0
  10
329.38242
  20
391.90784
  0
VERTEX
  5
17b
  8
Layer_0
  10
329.39648
  20
391.95001
  0
VERTEX
  5
17c
  8
Layer_0
  10
329.39648
  20
397.45001
  0
VERTEX
  5
17d
  8
Layer_0
  10
329.38242
  20
397.49219
  0
VERTEX
  5
17e
  8
Layer_0
  10
329.35901
  20
397.48749
  0
VERTEX
  5
17f
  8
Layer_0
  10
329.35431
  20
397.46408
  0
VERTEX
  5
180
  8
Layer_0
  10
329.39648
  20
397.45001
  0
VERTEX
  5
181
  8
Layer_0
  10
332.14648
  20
397.45001
  0
VERTEX
  5
182
  8
Layer_0
  10
332.2171
  20
397.4794
  0
VERTEX
  5
183
  8
Layer_0
  10
332.24649
  20
397.55002
  0
VERTEX
  5
184
  8
Layer_0
  10
332.24649
  20
403.25
  0
VERTEX
  5
185
  8
Layer_0
  10
332.2171
  20
403.32065
  0
VERTEX
  5
186
  8
Layer_0
  10
332.14648
  20
403.35004
  0
VERTEX
  5
187
  8
Layer_0
  10
329.39648
  20
403.35004
  0
VERTEX
  5
188
  8
Layer_0
  10
329.35431
  20
403.33594
  0
VERTEX
  5
189
  8
Layer_0
  10
329.35901
  20
403.3125
  0
VERTEX
  5
18a
  8
Layer_0
  10
329.38242
  20
403.30783
  0
VERTEX
  5
18b
  8
Layer_0
  10
329.39648
  20
403.35004
  0
VERTEX
  5
18c
  8
Layer_0
  10
329.39648
  20
408
  0
VERTEX
  5
18d
  8
Layer_0
  10
329.36713
  20
408.07065
  0
VERTEX
  5
18e
  8
Layer_0
  10
329.29651
  20
408.10004
  0
VERTEX
  5
18f
  8
Layer_0
  10
324.37149
  20
408.10004
  0
VERTEX
  5
190
  8
Layer_0
  10
324.32928
  20
408.08594
  0
VERTEX
  5
191
  8
Layer_0
  10
324.33398
  20
408.0625
  0
VERTEX
  5
192
  8
Layer_0
  10
324.35742
  20
408.05783
  0
VERTEX
  5
193
  8
Layer_0
  10
324.37149
  20
408.10004
  0
VERTEX
  5
194
  8
Layer_0
  10
324.37149
  20
410.85004
  0
VERTEX
  5
195
  8
Layer_0
  10
324.3421
  20
410.92065
  0
VERTEX
  5
196
  8
Layer_0
  10
324.27148
  20
410.95001
  0
VERTEX
  5
197
  8
Layer_0
  10
318.57147
  20
410.95001
  0
VERTEX
  5
198
  8
Layer_0
  10
318.50049
  20
410.92065
  0
VERTEX
  5
199
  8
Layer_0
  10
318.4715
  20
410.85004
  0
VERTEX
  5
19a
  8
Layer_0
  10
318.4715
  20
408.10004
  0
VERTEX
  5
19b
  8
Layer_0
  10
318.48557
  20
408.05783
  0
VERTEX
  5
19c
  8
Layer_0
  10
318.50897
  20
408.0625
  0
VERTEX
  5
19d
  8
Layer_0
  10
318.51367
  20
408.08594
  0
VERTEX
  5
19e
  8
Layer_0
  10
318.4715
  20
408.10004
  0
VERTEX
  5
19f
  8
Layer_0
  10
312.9715
  20
408.10004
  0
VERTEX
  5
1a0
  8
Layer_0
  10
312.92932
  20
408.08594
  0
VERTEX
  5
1a1
  8
Layer_0
  10
312.93402
  20
408.0625
  0
VERTEX
  5
1a2
  8
Layer_0
  10
312.95743
  20
408.05783
  0
VERTEX
  5
1a3
  8
Layer_0
  10
312.9715
  20
408.10004
  0
VERTEX
  5
1a4
  8
Layer_0
  10
312.9715
  20
410.85004
  0
VERTEX
  5
1a5
  8
Layer_0
  10
312.94211
  20
410.92065
  0
VERTEX
  5
1a6
  8
Layer_0
  10
312.87149
  20
410.95001
  0
VERTEX
  5
1a7
  8
Layer_0
  10
307.17151
  20
410.95001
  0
VERTEX
  5
1a8
  8
Layer_0
  10
307.10046
  20
410.92065
  0
VERTEX
  5
1a9
  8
Layer_0
  10
307.07147
  20
410.85004
  0
VERTEX
  5
1aa
  8
Layer_0
  10
307.07147
  20
408.10004
  0
VERTEX
  5
1ab
  8
Layer_0
  10
307.08557
  20
408.05783
  0
VERTEX
  5
1ac
  8
Layer_0
  10
307.10901
  20
408.0625
  0
VERTEX
  5
1ad
  8
Layer_0
  10
307.11368
  20
408.08594
  0
VERTEX
  5
1ae
  8
Layer_0
  10
307.07147
  20
408.10004
  0
VERTEX
  5
1af
  8
Layer_0
  10
302.14648
  20
408.10004
  0
VERTEX
  5
1b0
  8
Layer_0
  10
302.0755
  20
408.07065
  0
VERTEX
  5
1b1
  8
Layer_0
  10
302.04648
  20
408
  0
VERTEX
  5
1b2
  8
Layer_0
  10
302.04648
  20
407.10004
  0
VERTEX
  5
1b3
  8
Layer_0
  10
302.06055
  20
407.05783
  0
VERTEX
  5
1b4
  8
Layer_0
  10
302.08398
  20
407.0625
  0
VERTEX
  5
1b5
  8
Layer_0
  10
302.08868
  20
407.08594
  0
VERTEX
  5
1b6
  8
Layer_0
  10
302.04648
  20
407.10004
  0
VERTEX
  5
1b7
  8
Layer_0
  10
253.07849
  20
407.10004
  0
VERTEX
  5
1b8
  8
Layer_0
  10
253.00787
  20
407.07065
  0
VERTEX
  5
1b9
  8
Layer_0
  10
252.97849
  20
407
  0
VERTEX
  5
1ba
  8
Layer_0
  10
252.97849
  20
397.65002
  0
VERTEX
  5
1bb
  8
Layer_0
  10
252.99255
  20
397.60785
  0
VERTEX
  5
1bc
  8
Layer_0
  10
253.01599
  20
397.61255
  0
VERTEX
  5
1bd
  8
Layer_0
  10
253.02068
  20
397.63596
  0
VERTEX
  5
1be
  8
Layer_0
  10
252.97849
  20
397.65002
  0
VERTEX
  5
1bf
  8
Layer_0
  10
250.22849
  20
397.65002
  0
VERTEX
  5
1c0
  8
Layer_0
  10
250.15787
  20
397.62064
  0
VERTEX
  5
1c1
  8
Layer_0
  10
250.12849
  20
397.55002
  0
VERTEX
  5
1c2
  8
Layer_0
  10
250.12849
  20
391.85004
  0
VERTEX
  5
1c3
  8
Layer_0
  10
250.15787
  20
391.77939
  0
VERTEX
  5
1c4
  8
Layer_0
  10
250.22849
  20
391.75
  0
VERTEX
  5
1c5
  8
Layer_0
  10
252.97849
  20
391.75
  0
VERTEX
  5
1c6
  8
Layer_0
  10
253.02068
  20
391.7641
  0
VERTEX
  5
1c7
  8
Layer_0
  10
253.01599
  20
391.78754
  0
VERTEX
  5
1c8
  8
Layer_0
  10
252.99255
  20
391.79221
  0
VERTEX
  5
1c9
  8
Layer_0
  10
252.97849
  20
391.75
  0
VERTEX
  5
1ca
  8
Layer_0
  10
252.97849
  20
386.25
  0
VERTEX
  5
1cb
  8
Layer_0
  10
252.99255
  20
386.20782
  0
VERTEX
  5
1cc
  8
Layer_0
  10
253.01599
  20
386.21252
  0
VERTEX
  5
1cd
  8
Layer_0
  10
253.02068
  20
386.23593
  0
VERTEX
  5
1ce
  8
Layer_0
  10
252.97849
  20
386.25
  0
VERTEX
  5
1cf
  8
Layer_0
  10
250.22849
  20
386.25
  0
VERTEX
  5
1d0
  8
Layer_0
  10
250.15787
  20
386.22064
  0
VERTEX
  5
1d1
  8
Layer_0
  10
250.12849
  20
386.15002
  0
VERTEX
  5
1d2
  8
Layer_0
  10
250.12849
  20
380.45001
  0
VERTEX
  5
1d3
  8
Layer_0
  10
250.15787
  20
380.37939
  0
VERTEX
  5
1d4
  8
Layer_0
  10
250.22849
  20
380.35004
  0
VERTEX
  5
1d5
  8
Layer_0
  10
252.97849
  20
380.35004
  0
VERTEX
  5
1d6
  8
Layer_0
  10
253.02068
  20
380.36411
  0
VERTEX
  5
1d7
  8
Layer_0
  10
253.01599
  20
380.38751
  0
VERTEX
  5
1d8
  8
Layer_0
  10
252.99255
  20
380.39221
  0
VERTEX
  5
1d9
  8
Layer_0
  10
252.97849
  20
380.35004
  0
VERTEX
  5
1da
  8
Layer_0
  10
252.97849
  20
374.85004
  0
VERTEX
  5
1db
  8
Layer_0
  10
252.99255
  20
374.80783
  0
VERTEX
  5
1dc
  8
Layer_0
  10
253.01599
  20
374.8125
  0
VERTEX
  5
1dd
  8
Layer_0
  10
253.02068
  20
374.83594
  0
VERTEX
  5
1de
  8
Layer_0
  10
252.97849
  20
374.85004
  0
VERTEX
  5
1df
  8
Layer_0
  10
250.22849
  20
374.85004
  0
VERTEX
  5
1e0
  8
Layer_0
  10
250.15787
  20
374.82065
  0
VERTEX
  5
1e1
  8
Layer_0
  10
250.12849
  20
374.75
  0
VERTEX
  5
1e2
  8
Layer_0
  10
250.12849
  20
369.05002
  0
VERTEX
  5
1e3
  8
Layer_0
  10
250.15787
  20
368.9794
  0
VERTEX
  5
1e4
  8
Layer_0
  10
250.22849
  20
368.95001
  0
VERTEX
  5
1e5
  8
Layer_0
  10
252.97849
  20
368.95001
  0
VERTEX
  5
1e6
  8
Layer_0
  10
253.02068
  20
368.96408
  0
VERTEX
  5
1e7
  8
Layer_0
  10
253.01599
  20
368.98749
  0
VERTEX
  5
1e8
  8
Layer_0
  10
252.99255
  20
368.99219
  0
VERTEX
  5
1e9
  8
Layer_0
  10
252.97849
  20
368.95001
  0
VERTEX
  5
1ea
  8
Layer_0
  10
252.97849
  20
363.45001
  0
VERTEX
  5
1eb
  8
Layer_0
  10
252.99255
  20
363.40784
  0
VERTEX
  5
1ec
  8
Layer_0
  10
253.01599
  20
363.41254
  0
VERTEX
  5
1ed
  8
Layer_0
  10
253.02068
  20
363.43594
  0
VERTEX
  5
1ee
  8
Layer_0
  10
252.97849
  20
363.45001
  0
VERTEX
  5
1ef
  8
Layer_0
  10
250.22849
  20
363.45001
  0
VERTEX
  5
1f0
  8
Layer_0
  10
250.15787
  20
363.42065
  0
VERTEX
  5
1f1
  8
Layer_0
  10
250.12849
  20
363.35004
  0
VERTEX
  5
1f2
  8
Layer_0
  10
250.12849
  20
357.65002
  0
VERTEX
  5
1f3
  8
Layer_0
  10
250.15787
  20
357.57941
  0
VERTEX
  5
1f4
  8
Layer_0
  10
250.22849
  20
357.55002
  0
VERTEX
  5
1f5
  8
Layer_0
  10
252.97849
  20
357.55002
  0
VERTEX
  5
1f6
  8
Layer_0
  10
253.02068
  20
357.56409
  0
VERTEX
  5
1f7
  8
Layer_0
  10
253.01599
  20
357.58752
  0
VERTEX
  5
1f8
  8
Layer_0
  10
252.99255
  20
357.59222
  0
VERTEX
  5
1f9
  8
Layer_0
  10
252.97849
  20
357.55002
  0
VERTEX
  5
1fa
  8
Layer_0
  10
252.97849
  20
352.05002
  0
VERTEX
  5
1fb
  8
Layer_0
  10
252.99255
  20
352.00781
  0
VERTEX
  5
1fc
  8
Layer_0
  10
253.01599
  20
352.01251
  0
VERTEX
  5
1fd
  8
Layer_0
  10
253.02068
  20
352.03595
  0
VERTEX
  5
1fe
  8
Layer_0
  10
252.97849
  20
352.05002
  0
VERTEX
  5
1ff
  8
Layer_0
  10
250.22849
  20
352.05002
  0
VERTEX
  5
200
  8
Layer_0
  10
250.15787
  20
352.02063
  0
VERTEX
  5
201
  8
Layer_0
  10
250.12849
  20
351.95001
  0
VERTEX
  5
202
  8
Layer_0
  10
250.12849
  20
346.25
  0
VERTEX
  5
203
  8
Layer_0
  10
250.15787
  20
346.17938
  0
VERTEX
  5
204
  8
Layer_0
  10
250.22849
  20
346.15002
  0
VERTEX
  5
205
  8
Layer_0
  10
252.97849
  20
346.15002
  0
VERTEX
  5
206
  8
Layer_0
  10
253.02068
  20
346.16409
  0
VERTEX
  5
207
  8
Layer_0
  10
253.01599
  20
346.1875
  0
VERTEX
  5
208
  8
Layer_0
  10
252.99255
  20
346.1922
  0
VERTEX
  5
209
  8
Layer_0
  10
252.97849
  20
346.15002
  0
VERTEX
  5
20a
  8
Layer_0
  10
252.97849
  20
340.65002
  0
VERTEX
  5
20b
  8
Layer_0
  10
252.99255
  20
340.60785
  0
VERTEX
  5
20c
  8
Layer_0
  10
253.01599
  20
340.61255
  0
VERTEX
  5
20d
  8
Layer_0
  10
253.02068
  20
340.63596
  0
VERTEX
  5
20e
  8
Layer_0
  10
252.97849
  20
340.65002
  0
VERTEX
  5
20f
  8
Layer_0
  10
250.22849
  20
340.65002
  0
VERTEX
  5
210
  8
Layer_0
  10
250.15787
  20
340.62064
  0
VERTEX
  5
211
  8
Layer_0
  10
250.12849
  20
340.55002
  0
VERTEX
  5
212
  8
Layer_0
  10
250.12849
  20
334.85004
  0
VERTEX
  5
213
  8
Layer_0
  10
250.15787
  20
334.77939
  0
VERTEX
  5
214
  8
Layer_0
  10
250.22849
  20
334.75
  0
VERTEX
  5
215
  8
Layer_0
  10
252.97849
  20
334.75
  0
VERTEX
  5
216
  8
Layer_0
  10
253.02068
  20
334.7641
  0
VERTEX
  5
217
  8
Layer_0
  10
253.01599
  20
334.78754
  0
VERTEX
  5
218
  8
Layer_0
  10
252.99255
  20
334.79221
  0
VERTEX
  5
219
  8
Layer_0
  10
252.97849
  20
334.75
  0
VERTEX
  5
21a
  8
Layer_0
  10
252.97849
  20
329.25
  0
VERTEX
  5
21b
  8
Layer_0
  10
252.99255
  20
329.20782
  0
VERTEX
  5
21c
  8
Layer_0
  10
253.01599
  20
329.21252
  0
VERTEX
  5
21d
  8
Layer_0
  10
253.02068
  20
329.23593
  0
VERTEX
  5
21e
  8
Layer_0
  10
252.97849
  20
329.25
  0
VERTEX
  5
21f
  8
Layer_0
  10
250.22849
  20
329.25
  0
VERTEX
  5
220
  8
Layer_0
  10
250.15787
  20
329.22064
  0
VERTEX
  5
221
  8
Layer_0
  10
250.12849
  20
329.15002
  0
VERTEX
  5
222
  8
Layer_0
  10
250.12849
  20
323.45001
  0
VERTEX
  5
223
  8
Layer_0
  10
250.15787
  20
323.37939
  0
VERTEX
  5
224
  8
Layer_0
  10
250.22849
  20
323.35004
  0
VERTEX
  5
225
  8
Layer_0
  10
252.97849
  20
323.35004
  0
VERTEX
  5
226
  8
Layer_0
  10
253.02068
  20
323.36411
  0
VERTEX
  5
227
  8
Layer_0
  10
253.01599
  20
323.38751
  0
VERTEX
  5
228
  8
Layer_0
  10
252.99255
  20
323.39221
  0
VERTEX
  5
229
  8
Layer_0
  10
252.97849
  20
323.35004
  0
VERTEX
  5
22a
  8
Layer_0
  10
252.97849
  20
317.85004
  0
VERTEX
  5
22b
  8
Layer_0
  10
252.99255
  20
317.80783
  0
VERTEX
  5
22c
  8
Layer_0
  10
253.01599
  20
317.8125
  0
VERTEX
  5
22d
  8
Layer_0
  10
253.02068
  20
317.83594
  0
VERTEX
  5
22e
  8
Layer_0
  10
252.97849
  20
317.85004
  0
VERTEX
  5
22f
  8
Layer_0
  10
250.22849
  20
317.85004
  0
VERTEX
  5
230
  8
Layer_0
  10
250.15787
  20
317.82065
  0
VERTEX
  5
231
  8
Layer_0
  10
250.12849
  20
317.75
  0
VERTEX
  5
232
  8
Layer_0
  10
250.12849
  20
312.05002
  0
VERTEX
  5
233
  8
Layer_0
  10
250.15787
  20
311.9794
  0
VERTEX
  5
234
  8
Layer_0
  10
250.22849
  20
311.95001
  0
VERTEX
  5
235
  8
Layer_0
  10
252.97849
  20
311.95001
  0
VERTEX
  5
236
  8
Layer_0
  10
253.02068
  20
311.96408
  0
VERTEX
  5
237
  8
Layer_0
  10
253.01599
  20
311.98749
  0
VERTEX
  5
238
  8
Layer_0
  10
252.99255
  20
311.99219
  0
VERTEX
  5
239
  8
Layer_0
  10
252.97849
  20
311.95001
  0
VERTEX
  5
23a
  8
Layer_0
  10
252.97849
  20
306.45001
  0
VERTEX
  5
23b
  8
Layer_0
  10
252.99255
  20
306.40784
  0
VERTEX
  5
23c
  8
Layer_0
  10
253.01599
  20
306.41254
  0
VERTEX
  5
23d
  8
Layer_0
  10
253.02068
  20
306.43594
  0
VERTEX
  5
23e
  8
Layer_0
  10
252.97849
  20
306.45001
  0
VERTEX
  5
23f
  8
Layer_0
  10
250.22849
  20
306.45001
  0
VERTEX
  5
240
  8
Layer_0
  10
250.15787
  20
306.42065
  0
VERTEX
  5
241
  8
Layer_0
  10
250.12849
  20
306.35004
  0
VERTEX
  5
242
  8
Layer_0
  10
250.12849
  20
300.65002
  0
VERTEX
  5
243
  8
Layer_0
  10
250.15787
  20
300.57941
  0
VERTEX
  5
244
  8
Layer_0
  10
250.22849
  20
300.55002
  0
VERTEX
  5
245
  8
Layer_0
  10
252.97849
  20
300.55002
  0
VERTEX
  5
246
  8
Layer_0
  10
253.02068
  20
300.56409
  0
VERTEX
  5
247
  8
Layer_0
  10
253.01599
  20
300.58752
  0
VERTEX
  5
248
  8
Layer_0
  10
252.99255
  20
300.59222
  0
VERTEX
  5
249
  8
Layer_0
  10
252.97849
  20
300.55002
  0
VERTEX
  5
24a
  8
Layer_0
  10
252.97849
  20
295.05002
  0
VERTEX
  5
24b
  8
Layer_0
  10
252.99255
  20
295.00781
  0
VERTEX
  5
24c
  8
Layer_0
  10
253.01599
  20
295.01251
  0
VERTEX
  5
24d
  8
Layer_0
  10
253.02068
  20
295.03595
  0
VERTEX
  5
24e
  8
Layer_0
  10
252.97849
  20
295.05002
  0
VERTEX
  5
24f
  8
Layer_0
  10
250.22849
  20
295.05002
  0
VERTEX
  5
250
  8
Layer_0
  10
250.15787
  20
295.02063
  0
VERTEX
  5
251
  8
Layer_0
  10
250.12849
  20
294.95001
  0
VERTEX
  5
252
  8
Layer_0
  10
250.12849
  20
289.25003
  0
VERTEX
  5
253
  8
Layer_0
  10
250.15787
  20
289.17938
  0
VERTEX
  5
254
  8
Layer_0
  10
250.22849
  20
289.15002
  0
VERTEX
  5
255
  8
Layer_0
  10
252.97849
  20
289.15002
  0
VERTEX
  5
256
  8
Layer_0
  10
253.02068
  20
289.16409
  0
VERTEX
  5
257
  8
Layer_0
  10
253.01599
  20
289.1875
  0
VERTEX
  5
258
  8
Layer_0
  10
252.99255
  20
289.1922
  0
VERTEX
  5
259
  8
Layer_0
  10
252.97849
  20
289.15002
  0
VERTEX
  5
25a
  8
Layer_0
  10
252.97849
  20
283.65002
  0
VERTEX
  5
25b
  8
Layer_0
  10
252.99255
  20
283.60785
  0
VERTEX
  5
25c
  8
Layer_0
  10
253.01599
  20
283.61255
  0
VERTEX
  5
25d
  8
Layer_0
  10
253.02068
  20
283.63596
  0
VERTEX
  5
25e
  8
Layer_0
  10
252.97849
  20
283.65002
  0
VERTEX
  5
25f
  8
Layer_0
  10
250.22849
  20
283.65002
  0
VERTEX
  5
260
  8
Layer_0
  10
250.15787
  20
283.62064
  0
VERTEX
  5
261
  8
Layer_0
  10
250.12849
  20
283.55002
  0
VERTEX
  5
262
  8
Layer_0
  10
250.12849
  20
277.85001
  0
VERTEX
  5
263
  8
Layer_0
  10
250.15787
  20
277.77942
  0
VERTEX
  5
264
  8
Layer_0
  10
250.22849
  20
277.75003
  0
VERTEX
  5
265
  8
Layer_0
  10
252.97849
  20
277.75003
  0
VERTEX
  5
266
  8
Layer_0
  10
253.02068
  20
277.7641
  0
VERTEX
  5
267
  8
Layer_0
  10
253.01599
  20
277.78754
  0
VERTEX
  5
268
  8
Layer_0
  10
252.99255
  20
277.79221
  0
VERTEX
  5
269
  8
Layer_0
  10
252.97849
  20
277.75003
  0
VERTEX
  5
26a
  8
Layer_0
  10
252.97849
  20
272.25003
  0
VERTEX
  5
26b
  8
Layer_0
  10
252.99255
  20
272.20782
  0
VERTEX
  5
26c
  8
Layer_0
  10
253.01599
  20
272.21252
  0
VERTEX
  5
26d
  8
Layer_0
  10
253.02068
  20
272.23596
  0
VERTEX
  5
26e
  8
Layer_0
  10
252.97849
  20
272.25003
  0
VERTEX
  5
26f
  8
Layer_0
  10
250.22849
  20
272.25003
  0
VERTEX
  5
270
  8
Layer_0
  10
250.15787
  20
272.22064
  0
VERTEX
  5
271
  8
Layer_0
  10
250.12849
  20
272.15002
  0
VERTEX
  5
272
  8
Layer_0
  10
250.12849
  20
266.45001
  0
VERTEX
  5
273
  8
Layer_0
  10
250.15787
  20
266.37939
  0
VERTEX
  5
274
  8
Layer_0
  10
250.22849
  20
266.35001
  0
VERTEX
  5
275
  8
Layer_0
  10
252.97849
  20
266.35001
  0
VERTEX
  5
276
  8
Layer_0
  10
253.02068
  20
266.36407
  0
VERTEX
  5
277
  8
Layer_0
  10
253.01599
  20
266.38751
  0
VERTEX
  5
278
  8
Layer_0
  10
252.99255
  20
266.39221
  0
VERTEX
  5
279
  8
Layer_0
  10
252.97849
  20
266.35001
  0
VERTEX
  5
27a
  8
Layer_0
  10
252.97849
  20
257.00003
  0
VERTEX
  5
27b
  8
Layer_0
  10
253.00787
  20
256.92938
  0
VERTEX
  5
27c
  8
Layer_0
  10
253.07849
  20
256.90002
  0
SEQEND
  0
POLYLINE
  5
27e
  8
Layer_0
  62
0
  66
1
  10
0
  20
0
  30
0
  0
VERTEX
  5
27e
  8
Layer_0
  10
259.09949
  20
256.90002
  0
VERTEX
  5
27f
  8
Layer_0
  10
259.09949
  20
271.63501
  0
SEQEND
  0
POLYLINE
  5
281
  8
Layer_0
  62
0
  66
1
  10
0
  20
0
  30
0
  0
VERTEX
  5
281
  8
Layer_0
  10
259.09949
  20
274.48502
  0
VERTEX
  5
282
  8
Layer_0
  10
259.09949
  20
301.10501
  0
SEQEND
  0
POLYLINE
  5
284
  8
Layer_0
  62
0
  66
1
  10
0
  20
0
  30
0
  0
VERTEX
  5
284
  8
Layer_0
  10
259.09949
  20
303.95502
  0
VERTEX
  5
285
  8
Layer_0
  10
259.09949
  20
330.57501
  0
SEQEND
  0
POLYLINE
  5
287
  8
Layer_0
  62
0
  66
1
  10
0
  20
0
  30
0
  0
VERTEX
  5
287
  8
Layer_0
  10
259.09949
  20
333.42502
  0
VERTEX
  5
288
  8
Layer_0
  10
259.09949
  20
360.04501
  0
SEQEND
  0
POLYLINE
  5
28a
  8
Layer_0
  62
0
  66
1
  10
0
  20
0
  30
0
  0
VERTEX
  5
28a
  8
Layer_0
  10
259.09949
  20
362.89502
  0
VERTEX
  5
28b
  8
Layer_0
  10
259.09949
  20
389.51501
  0
SEQEND
  0
POLYLINE
  5
28d
  8
Layer_0
  62
0
  66
1
  10
0
  20
0
  30
0
  0
VERTEX
  5
28d
  8
Layer_0
  10
259.09949
  20
392.36502
  0
VERTEX
  5
28e
  8
Layer_0
  10
259.09949
  20
407.10004
  0
SEQEND
  0
POLYLINE
  5
290
  8
Layer_0
  62
0
  66
1
  10
0
  20
0
  30
0
  0
VERTEX
  5
290
  8
Layer_0
  10
260.52448
  20
404.25
  0
VERTEX
  5
291
  8
Layer_0
  10
260.52448
  20
377.63
  0
SEQEND
  0
POLYLINE
  5
293
  8
Layer_0
  62
0
  66
1
  10
0
  20
0
  30
0
  0
VERTEX
  5
293
  8
Layer_0
  10
260.52448
  20
374.78003
  0
VERTEX
  5
294
  8
Layer_0
  10
260.52448
  20
348.16003
  0
SEQEND
  0
POLYLINE
  5
296
  8
Layer_0
  62
0
  66
1
  10
0
  20
0
  30
0
  0
VERTEX
  5
296
  8
Layer_0
  10
260.52448
  20
345.31003
  0
VERTEX
  5
297
  8
Layer_0
  10
260.52448
  20
318.69
  0
SEQEND
  0
POLYLINE
  5
299
  8
Layer_0
  62
0
  66
1
  10
0
  20
0
  30
0
  0
VERTEX
  5
299
  8
Layer_0
  10
260.52448
  20
315.84003
  0
VERTEX
  5
29a
  8
Layer_0
  10
260.52448
  20
289.22003
  0
SEQEND
  0
POLYLINE
  5
29c
  8
Layer_0
  62
0
  66
1
  10
0
  20
0
  30
0
  0
VERTEX
  5
29c
  8
Layer_0
  10
260.52448
  20
286.37003
  0
VERTEX
  5
29d
  8
Layer_0
  10
260.52448
  20
259.75003
  0
SEQEND
  0
POLYLINE
  5
29f
  8
Layer_0
  62
0
  66
1
  10
0
  20
0
  30
0
  0
VERTEX
  5
29f
  8
Layer_0
  10
261.94949
  20
256.90002
  0
VERTEX
  5
2a0
  8
Layer_0
  10
261.94949
  20
271.63501
  0
SEQEND
  0
POLYLINE
  5
2a2
  8
Layer_0
  62
0
  66
1
  10
0
  20
0
  30
0
  0
VERTEX
  5
2a2
  8
Layer_0
  10
261.94949
  20
274.48502
  0
VERTEX
  5
2a3
  8
Layer_0
  10
261.94949
  20
301.10501
  0
SEQEND
  0
POLYLINE
  5
2a5
  8
Layer_0
  62
0
  66
1
  10
0
  20
0
  30
0
  0
VERTEX
  5
2a5
  8
Layer_0
  10
261.94949
  20
303.95502
  0
VERTEX
  5
2a6
  8
Layer_0
  10
261.94949
  20
330.57501
  0
SEQEND
  0
POLYLINE
  5
2a8
  8
Layer_0
  62
0
  66
1
  10
0
  20
0
  30
0
  0
VERTEX
  5
2a8
  8
Layer_0
  10
261.94949
  20
333.42502
  0
VERTEX
  5
2a9
  8
Layer_0
  10
261.94949
  20
360.04501
  0
SEQEND
  0
POLYLINE
  5
2ab
  8
Layer_0
  62
0
  66
1
  10
0
  20
0
  30
0
  0
VERTEX
  5
2ab
  8
Layer_0
  10
261.94949
  20
362.89502
  0
VERTEX
  5
2ac
  8
Layer_0
  10
261.94949
  20
389.51501
  0
SEQEND
  0
POLYLINE
  5
2ae
  8
Layer_0
  62
0
  66
1
  10
0
  20
0
  30
0
  0
VERTEX
  5
2ae
  8
Layer_0
  10
261.94949
  20
392.36502
  0
VERTEX
  5
2af
  8
Layer_0
  10
261.94949
  20
407.10004
  0
SEQEND
  0
POLYLINE
  5
2b1
  8
Layer_0
  62
0
  66
1
  10
0
  20
0
  30
0
  0
VERTEX
  5
2b1
  8
Layer_0
  10
263.37448
  20
404.25
  0
VERTEX
  5
2b2
  8
Layer_0
  10
263.37448
  20
377.63
  0
SEQEND
  0
POLYLINE
  5
2b4
  8
Layer_0
  62
0
  66
1
  10
0
  20
0
  30
0
  0
VERTEX
  5
2b4
  8
Layer_0
  10
263.37448
  20
374.78003
  0
VERTEX
  5
2b5
  8
Layer_0
  10
263.37448
  20
348.16003
  0
SEQEND
  0
POLYLINE
  5
2b7
  8
Layer_0
  62
0
  66
1
  10
0
  20
0
  30
0
  0
VERTEX
  5
2b7
  8
Layer_0
  10
263.37448
  20
345.31003
  0
VERTEX
  5
2b8
  8
Layer_0
  10
263.37448
  20
318.69
  0
SEQEND
  0
POLYLINE
  5
2ba
  8
Layer_0
  62
0
  66
1
  10
0
  20
0
  30
0
  0
VERTEX
  5
2ba
  8
Layer_0
  10
263.37448
  20
315.84003
  0
VERTEX
  5
2bb
  8
Layer_0
  10
263.37448
  20
289.22003
  0
SEQEND
  0
POLYLINE
  5
2bd
  8
Layer_0
  62
0
  66
1
  10
0
  20
0
  30
0
  0
VERTEX
  5
2bd
  8
Layer_0
  10
263.37448
  20
286.37003
  0
VERTEX
  5
2be
  8
Layer_0
  10
263.37448
  20
259.75003
  0
SEQEND
  0
POLYLINE
  5
2c0
  8
Layer_0
  62
0
  66
1
  10
0
  20
0
  30
0
  0
VERTEX
  5
2c0
  8
Layer_0
  10
264.7995
  20
256.90002
  0
VERTEX
  5
2c1
  8
Layer_0
  10
264.7995
  20
271.63501
  0
SEQEND
  0
POLYLINE
  5
2c3
  8
Layer_0
  62
0
  66
1
  10
0
  20
0
  30
0
  0
VERTEX
  5
2c3
  8
Layer_0
  10
264.7995
  20
274.48502
  0
VERTEX
  5
2c4
  8
Layer_0
  10
264.7995
  20
301.10501
  0
SEQEND
  0
POLYLINE
  5
2c6
  8
Layer_0
  62
0
  66
1
  10
0
  20
0
  30
0
  0
VERTEX
  5
2c6
  8
Layer_0
  10
264.7995
  20
303.95502
  0
VERTEX
  5
2c7
  8
Layer_0
  10
264.7995
  20
330.57501
  0
SEQEND
  0
POLYLINE
  5
2c9
  8
Layer_0
  62
0
  66
1
  10
0
  20
0
  30
0
  0
VERTEX
  5
2c9
  8
Layer_0
  10
264.7995
  20
333.42502
  0
VERTEX
  5
2ca
  8
Layer_0
  10
264.7995
  20
360.04501
  0
SEQEND
  0
POLYLINE
  5
2cc
  8
Layer_0
  62
0
  66
1
  10
0
  20
0
  30
0
  0
VERTEX
  5
2cc
  8
Layer_0
  10
264.7995
  20
362.89502
  0
VERTEX
  5
2cd
  8
Layer_0
  10
264.7995
  20
389.51501
  0
SEQEND
  0
POLYLINE
  5
2cf
  8
Layer_0
  62
0
  66
1
  10
0
  20
0
  30
0
  0
VERTEX
  5
2cf
  8
Layer_0
  10
264.7995
  20
392.36502
  0
VERTEX
  5
2d0
  8
Layer_0
  10
264.7995
  20
407.10004
  0
SEQEND
  0
POLYLINE
  5
2d2
  8
Layer_0
  62
0
  66
1
  10
0
  20
0
  30
0
  0
VERTEX
  5
2d2
  8
Layer_0
  10
266.22449
  20
404.25
  0
VERTEX
  5
2d3
  8
Layer_0
  10
266.22449
  20
377.63
  0
SEQEND
  0
POLYLINE
  5
2d5
  8
Layer_0
  62
0
  66
1
  10
0
  20
0
  30
0
  0
VERTEX
  5
2d5
  8
Layer_0
  10
266.22449
  20
374.78003
  0
VERTEX
  5
2d6
  8
Layer_0
  10
266.22449
  20
348.16003
  0
SEQEND
  0
POLYLINE
  5
2d8
  8
Layer_0
  62
0
  66
1
  10
0
  20
0
  30
0
  0
VERTEX
  5
2d8
  8
Layer_0
  10
266.22449
  20
345.31003
  0
VERTEX
  5
2d9
  8
Layer_0
  10
266.22449
  20
318.69
  0
SEQEND
  0
POLYLINE
  5
2db
  8
Layer_0
  62
0
  66
1
  10
0
  20
0
  30
0
  0
VERTEX
  5
2db
  8
Layer_0
  10
266.22449
  20
315.84003
  0
VERTEX
  5
2dc
  8
Layer_0
  10
266.22449
  20
289.22003
  0
SEQEND
  0
POLYLINE
  5
2de
  8
Layer_0
  62
0
  66
1
  10
0
  20
0
  30
0
  0
VERTEX
  5
2de
  8
Layer_0
  10
266.22449
  20
286.37003
  0
VERTEX
  5
2df
  8
Layer_0
  10
266.22449
  20
259.75003
  0
SEQEND
  0
POLYLINE
  5
2e1
  8
Layer_0
  62
0
  66
1
  10
0
  20
0
  30
0
  0
VERTEX
  5
2e1
  8
Layer_0
  10
267.64948
  20
256.90002
  0
VERTEX
  5
2e2
  8
Layer_0
  10
267.64948
  20
271.63501
  0
SEQEND
  0
POLYLINE
  5
2e4
  8
Layer_0
  62
0
  66
1
  10
0
  20
0
  30
0
  0
VERTEX
  5
2e4
  8
Layer_0
  10
267.64948
  20
274.48502
  0
VERTEX
  5
2e5
  8
Layer_0
  10
267.64948
  20
301.10501
  0
SEQEND
  0
POLYLINE
  5
2e7
  8
Layer_0
  62
0
  66
1
  10
0
  20
0
  30
0
  0
VERTEX
  5
2e7
  8
Layer_0
  10
267.64948
  20
303.95502
  0
VERTEX
  5
2e8
  8
Layer_0
  10
267.64948
  20
330.57501
  0
SEQEND
  0
POLYLINE
  5
2ea
  8
Layer_0
  62
0
  66
1
  10
0
  20
0
  30
0
  0
VERTEX
  5
2ea
  8
Layer_0
  10
267.64948
  20
333.42502
  0
VERTEX
  5
2eb
  8
Layer_0
  10
267.64948
  20
360.04501
  0
SEQEND
  0
POLYLINE
  5
2ed
  8
Layer_0
  62
0
  66
1
  10
0
  20
0
  30
0
  0
VERTEX
  5
2ed
  8
Layer_0
  10
267.64948
  20
362.89502
  0
VERTEX
  5
2ee
  8
Layer_0
  10
267.64948
  20
389.51501
  0
SEQEND
  0
POLYLINE
  5
2f0
  8
Layer_0
  62
0
  66
1
  10
0
  20
0
  30
0
  0
VERTEX
  5
2f0
  8
Layer_0
  10
267.64948
  20
392.36502
  0
VERTEX
  5
2f1
  8
Layer_0
  10
267.64948
  20
407.10004
  0
SEQEND
  0
POLYLINE
  5
2f3
  8
Layer_0
  62
0
  66
1
  10
0
  20
0
  30
0
  0
VERTEX
  5
2f3
  8
Layer_0
  10
269.07449
  20
404.25
  0
VERTEX
  5
2f4
  8
Layer_0
  10
269.07449
  20
377.63
  0
SEQEND
  0
POLYLINE
  5
2f6
  8
Layer_0
  62
0
  66
1
  10
0
  20
0
  30
0
  0
VERTEX
  5
2f6
  8
Layer_0
  10
269.07449
  20
374.78003
  0
VERTEX
  5
2f7
  8
Layer_0
  10
269.07449
  20
348.16003
  0
SEQEND
  0
POLYLINE
  5
2f9
  8
Layer_0
  62
0
  66
1
  10
0
  20
0
  30
0
  0
VERTEX
  5
2f9
  8
Layer_0
  10
269.07449
  20
345.31003
  0
VERTEX
  5
2fa
  8
Layer_0
  10
269.07449
  20
318.69
  0
SEQEND
  0
POLYLINE
  5
2fc
  8
Layer_0
  62
0
  66
1
  10
0
  20
0
  30
0
  0
VERTEX
  5
2fc
  8
Layer_0
  10
269.07449
  20
315.84003
  0
VERTEX
  5
2fd
  8
Layer_0
  10
269.07449
  20
289.22003
  0
SEQEND
  0
POLYLINE
  5
2ff
  8
Layer_0
  62
0
  66
1
  10
0
  20
0
  30
0
  0
VERTEX
  5
2ff
  8
Layer_0
  10
269.07449
  20
286.37003
  0
VERTEX
  5
300
  8
Layer_0
  10
269.07449
  20
259.75003
  0
SEQEND
  0
POLYLINE
  5
302
  8
Layer_0
  62
0
  66
1
  10
0
  20
0
  30
0
  0
VERTEX
  5
302
  8
Layer_0
  10
270.49948
  20
256.90002
  0
VERTEX
  5
303
  8
Layer_0
  10
270.49948
  20
271.63501
  0
SEQEND
  0
POLYLINE
  5
305
  8
Layer_0
  62
0
  66
1
  10
0
  20
0
  30
0
  0
VERTEX
  5
305
  8
Layer_0
  10
270.49948
  20
274.48502
  0
VERTEX
  5
306
  8
Layer_0
  10
270.49948
  20
301.10501
  0
SEQEND
  0
POLYLINE
  5
308
  8
Layer_0
  62
0
  66
1
  10
0
  20
0
  30
0
  0
VERTEX
  5
308
  8
Layer_0
  10
270.49948
  20
303.95502
  0
VERTEX
  5
309
  8
Layer_0
  10
270.49948
  20
330.57501
  0
SEQEND
  0
POLYLINE
  5
30b
  8
Layer_0
  62
0
  66
1
  10
0
  20
0
  30
0
  0
VERTEX
  5
30b
  8
Layer_0
  10
270.49948
  20
333.42502
  0
VERTEX
  5
30c
  8
Layer_0
  10
270.49948
  20
360.04501
  0
SEQEND
  0
POLYLINE
  5
30e
  8
Layer_0
  62
0
  66
1
  10
0
  20
0
  30
0
  0
VERTEX
  5
30e
  8
Layer_0
  10
270.49948
  20
362.89502
  0
VERTEX
  5
30f
  8
Layer_0
  10
270.49948
  20
389.51501
  0
SEQEND
  0
POLYLINE
  5
311
  8
Layer_0
  62
0
  66
1
  10
0
  20
0
  30
0
  0
VERTEX
  5
311
  8
Layer_0
  10
270.49948
  20
392.36502
  0
VERTEX
  5
312
  8
Layer_0
  10
270.49948
  20
407.10004
  0
SEQEND
  0
POLYLINE
  5
314
  8
Layer_0
  62
0
  66
1
  10
0
  20
0
  30
0
  0
VERTEX
  5
314
  8
Layer_0
  10
271.9245
  20
404.25
  0
VERTEX
  5
315
  8
Layer_0
  10
271.9245
  20
377.63
  0
SEQEND
  0
POLYLINE
  5
317
  8
Layer_0
  62
0
  66
1
  10
0
  20
0
  30
0
  0
VERTEX
  5
317
  8
Layer_0
  10
271.9245
  20
374.78003
  0
VERTEX
  5
318
  8
Layer_0
  10
271.9245
  20
348.16003
  0
SEQEND
  0
POLYLINE
  5
31a
  8
Layer_0
  62
0
  66
1
  10
0
  20
0
  30
0
  0
VERTEX
  5
31a
  8
Layer_0
  10
271.9245
  20
345.31003
  0
VERTEX
  5
31b
  8
Layer_0
  10
271.9245
  20
318.69
  0
SEQEND
  0
POLYLINE
  5
31d
  8
Layer_0
  62
0
  66
1
  10
0
  20
0
  30
0
  0
VERTEX
  5
31d
  8
Layer_0
  10
271.9245
  20
315.84003
  0
VERTEX
  5
31e
  8
Layer_0
  10
271.9245
  20
289.22003
  0
SEQEND
  0
POLYLINE
  5
320
  8
Layer_0
  62
0
  66
1
  10
0
  20
0
  30
0
  0
VERTEX
  5
320
  8
Layer_0
  10
271.9245
  20
286.37003
  0
VERTEX
  5
321
  8
Layer_0
  10
271.9245
  20
259.75003
  0
SEQEND
  0
POLYLINE
  5
323
  8
Layer_0
  62
0
  66
1
  10
0
  20
0
  30
0
  0
VERTEX
  5
323
  8
Layer_0
  10
273.34949
  20
256.90002
  0
VERTEX
  5
324
  8
Layer_0
  10
273.34949
  20
271.63501
  0
SEQEND
  0
POLYLINE
  5
326
  8
Layer_0
  62
0
  66
1
  10
0
  20
0
  30
0
  0
VERTEX
  5
326
  8
Layer_0
  10
273.34949
  20
274.48502
  0
VERTEX
  5
327
  8
Layer_0
  10
273.34949
  20
301.10501
  0
SEQEND
  0
POLYLINE
  5
329
  8
Layer_0
  62
0
  66
1
  10
0
  20
0
  30
0
  0
VERTEX
  5
329
  8
Layer_0
  10
273.34949
  20
303.95502
  0
VERTEX
  5
32a
  8
Layer_0
  10
273.34949
  20
330.57501
  0
SEQEND
  0
POLYLINE
  5
32c
  8
Layer_0
  62
0
  66
1
  10
0
  20
0
  30
0
  0
VERTEX
  5
32c
  8
Layer_0
  10
273.34949
  20
333.42502
  0
VERTEX
  5
32d
  8
Layer_0
  10
273.34949
  20
360.04501
  0
SEQEND
  0
POLYLINE
  5
32f
  8
Layer_0
  62
0
  66
1
  10
0
  20
0
  30
0
  0
VERTEX
  5
32f
  8
Layer_0
  10
273.34949
  20
362.89502
  0
VERTEX
  5
330
  8
Layer_0
  10
273.34949
  20
389.51501
  0
SEQEND
  0
POLYLINE
  5
332
  8
Layer_0
  62
0
  66
1
  10
0
  20
0
  30
0
  0
VERTEX
  5
332
  8
Layer_0
  10
273.34949
  20
392.36502
  0
VERTEX
  5
333
  8
Layer_0
  10
273.34949
  20
407.10004
  0
SEQEND
  0
POLYLINE
  5
335
  8
Layer_0
  62
0
  66
1
  10
0
  20
0
  30
0
  0
VERTEX
  5
335
  8
Layer_0
  10
274.77448
  20
404.25
  0
VERTEX
  5
336
  8
Layer_0
  10
274.77448
  20
377.63
  0
SEQEND
  0
POLYLINE
  5
338
  8
Layer_0
  62
0
  66
1
  10
0
  20
0
  30
0
  0
VERTEX
  5
338
  8
Layer_0
  10
274.77448
  20
374.78003
  0
VERTEX
  5
339
  8
Layer_0
  10
274.77448
  20
348.16003
  0
SEQEND
  0
POLYLINE
  5
33b
  8
Layer_0
  62
0
  66
1
  10
0
  20
0
  30
0
  0
VERTEX
  5
33b
  8
Layer_0
  10
274.77448
  20
345.31003
  0
VERTEX
  5
33c
  8
Layer_0
  10
274.77448
  20
318.69
  0
SEQEND
  0
POLYLINE
  5
33e
  8
Layer_0
  62
0
  66
1
  10
0
  20
0
  30
0
  0
VERTEX
  5
33e
  8
Layer_0
  10
274.77448
  20
315.84003
  0
VERTEX
  5
33f
  8
Layer_0
  10
274.77448
  20
289.22003
  0
SEQEND
  0
POLYLINE
  5
341
  8
Layer_0
  62
0
  66
1
  10
0
  20
0
  30
0
  0
VERTEX
  5
341
  8
Layer_0
  10
274.77448
  20
286.37003
  0
VERTEX
  5
342
  8
Layer_0
  10
274.77448
  20
259.75003
  0
SEQEND
  0
POLYLINE
  5
344
  8
Layer_0
  62
0
  66
1
  10
0
  20
0
  30
0
  0
VERTEX
  5
344
  8
Layer_0
  10
276.19949
  20
256.90002
  0
VERTEX
  5
345
  8
Layer_0
  10
276.19949
  20
271.63501
  0
SEQEND
  0
POLYLINE
  5
347
  8
Layer_0
  62
0
  66
1
  10
0
  20
0
  30
0
  0
VERTEX
  5
347
  8
Layer_0
  10
276.19949
  20
274.48502
  0
VERTEX
  5
348
  8
Layer_0
  10
276.19949
  20
301.10501
  0
SEQEND
  0
POLYLINE
  5
34a
  8
Layer_0
  62
0
  66
1
  10
0
  20
0
  30
0
  0
VERTEX
  5
34a
  8
Layer_0
  10
276.19949
  20
303.95502
  0
VERTEX
  5
34b
  8
Layer_0
  10
276.19949
  20
330.57501
  0
SEQEND
  0
POLYLINE
  5
34d
  8
Layer_0
  62
0
  66
1
  10
0
  20
0
  30
0
  0
VERTEX
  5
34d
  8
Layer_0
  10
276.19949
  20
333.42502
  0
VERTEX
  5
34e
  8
Layer_0
  10
276.19949
  20
360.04501
  0
SEQEND
  0
POLYLINE
  5
350
  8
Layer_0
  62
0
  66
1
  10
0
  20
0
  30
0
  0
VERTEX
  5
350
  8
Layer_0
  10
276.19949
  20
362.89502
  0
VERTEX
  5
351
  8
Layer_0
  10
276.19949
  20
389.51501
  0
SEQEND
  0
POLYLINE
  5
353
  8
Layer_0
  62
0
  66
1
  10
0
  20
0
  30
0
  0
VERTEX
  5
353
  8
Layer_0
  10
276.19949
  20
392.36502
  0
VERTEX
  5
354
  8
Layer_0
  10
276.19949
  20
407.10004
  0
SEQEND
  0
POLYLINE
  5
356
  8
Layer_0
  62
0
  66
1
  10
0
  20
0
  30
0
  0
VERTEX
  5
356
  8
Layer_0
  10
277.62448
  20
404.25
  0
VERTEX
  5
357
  8
Layer_0
  10
277.62448
  20
377.63
  0
SEQEND
  0
POLYLINE
  5
359
  8
Layer_0
  62
0
  66
1
  10
0
  20
0
  30
0
  0
VERTEX
  5
359
  8
Layer_0
  10
277.62448
  20
374.78003
  0
VERTEX
  5
35a
  8
Layer_0
  10
277.62448
  20
348.16003
  0
SEQEND
  0
POLYLINE
  5
35c
  8
Layer_0
  62
0
  66
1
  10
0
  20
0
  30
0
  0
VERTEX
  5
35c
  8
Layer_0
  10
277.62448
  20
345.31003
  0
VERTEX
  5
35d
  8
Layer_0
  10
277.62448
  20
318.69
  0
SEQEND
  0
POLYLINE
  5
35f
  8
Layer_0
  62
0
  66
1
  10
0
  20
0
  30
0
  0
VERTEX
  5
35f
  8
Layer_0
  10
277.62448
  20
315.84003
  0
VERTEX
  5
360
  8
Layer_0
  10
277.62448
  20
289.22003
  0
SEQEND
  0
POLYLINE
  5
362
  8
Layer_0
  62
0
  66
1
  10
0
  20
0
  30
0
  0
VERTEX
  5
362
  8
Layer_0
  10
277.62448
  20
286.37003
  0
VERTEX
  5
363
  8
Layer_0
  10
277.62448
  20
259.75003
  0
SEQEND
  0
POLYLINE
  5
365
  8
Layer_0
  62
0
  66
1
  10
0
  20
0
  30
0
  0
VERTEX
  5
365
  8
Layer_0
  10
279.0495
  20
256.90002
  0
VERTEX
  5
366
  8
Layer_0
  10
279.0495
  20
271.63501
  0
SEQEND
  0
POLYLINE
  5
368
  8
Layer_0
  62
0
  66
1
  10
0
  20
0
  30
0
  0
VERTEX
  5
368
  8
Layer_0
  10
279.0495
  20
274.48502
  0
VERTEX
  5
369
  8
Layer_0
  10
279.0495
  20
301.10501
  0
SEQEND
  0
POLYLINE
  5
36b
  8
Layer_0
  62
0
  66
1
  10
0
  20
0
  30
0
  0
VERTEX
  5
36b
  8
Layer_0
  10
279.0495
  20
303.95502
  0
VERTEX
  5
36c
  8
Layer_0
  10
279.0495
  20
330.57501
  0
SEQEND
  0
POLYLINE
  5
36e
  8
Layer_0
  62
0
  66
1
  10
0
  20
0
  30
0
  0
VERTEX
  5
36e
  8
Layer_0
  10
279.0495
  20
333.42502
  0
VERTEX
  5
36f
  8
Layer_0
  10
279.0495
  20
360.04501
  0
SEQEND
  0
POLYLINE
  5
371
  8
Layer_0
  62
0
  66
1
  10
0
  20
0
  30
0
  0
VERTEX
  5
371
  8
Layer_0
  10
279.0495
  20
362.89502
  0
VERTEX
  5
372
  8
Layer_0
  10
279.0495
  20
389.51501
  0
SEQEND
  0
POLYLINE
  5
374
  8
Layer_0
  62
0
  66
1
  10
0
  20
0
  30
0
  0
VERTEX
  5
374
  8
Layer_0
  10
279.0495
  20
392.36502
  0
VERTEX
  5
375
  8
Layer_0
  10
279.0495
  20
407.10004
  0
SEQEND
  0
POLYLINE
  5
377
  8
Layer_0
  62
0
  66
1
  10
0
  20
0
  30
0
  0
VERTEX
  5
377
  8
Layer_0
  10
280.47449
  20
404.25
  0
VERTEX
  5
378
  8
Layer_0
  10
280.47449
  20
377.63
  0
SEQEND
  0
POLYLINE
  5
37a
  8
Layer_0
  62
0
  66
1
  10
0
  20
0
  30
0
  0
VERTEX
  5
37a
  8
Layer_0
  10
280.47449
  20
374.78003
  0
VERTEX
  5
37b
  8
Layer_0
  10
280.47449
  20
348.16003
  0
SEQEND
  0
POLYLINE
  5
37d
  8
Layer_0
  62
0
  66
1
  10
0
  20
0
  30
0
  0
VERTEX
  5
37d
  8
Layer_0
  10
280.47449
  20
345.31003
  0
VERTEX
  5
37e
  8
Layer_0
  10
280.47449
  20
318.69
  0
SEQEND
  0
POLYLINE
  5
380
  8
Layer_0
  62
0
  66
1
  10
0
  20
0
  30
0
  0
VERTEX
  5
380
  8
Layer_0
  10
280.47449
  20
315.84003
  0
VERTEX
  5
381
  8
Layer_0
  10
280.47449
  20
289.22003
  0
SEQEND
  0
POLYLINE
  5
383
  8
Layer_0
  62
0
  66
1
  10
0
  20
0
  30
0
  0
VERTEX
  5
383
  8
Layer_0
  10
280.47449
  20
286.37003
  0
VERTEX
  5
384
  8
Layer_0
  10
280.47449
  20
259.75003
  0
SEQEND
  0
POLYLINE
  5
386
  8
Layer_0
  62
0
  66
1
  10
0
  20
0
  30
0
  0
VERTEX
  5
386
  8
Layer_0
  10
281.89948
  20
256.90002
  0
VERTEX
  5
387
  8
Layer_0
  10
281.89948
  20
271.63501
  0
SEQEND
  0
POLYLINE
  5
389
  8
Layer_0
  62
0
  66
1
  10
0
  20
0
  30
0
  0
VERTEX
  5
389
  8
Layer_0
  10
281.89948
  20
274.48502
  0
VERTEX
  5
38a
  8
Layer_0
  10
281.89948
  20
301.10501
  0
SEQEND
  0
POLYLINE
  5
38c
  8
Layer_0
  62
0
  66
1
  10
0
  20
0
  30
0
  0
VERTEX
  5
38c
  8
Layer_0
  10
281.89948
  20
303.95502
  0
VERTEX
  5
38d
  8
Layer_0
  10
281.89948
  20
330.57501
  0
SEQEND
  0
POLYLINE
  5
38f
  8
Layer_0
  62
0
  66
1
  10
0
  20
0
  30
0
  0
VERTEX
  5
38f
  8
Layer_0
  10
281.89948
  20
333.42502
  0
VERTEX
  5
390
  8
Layer_0
  10
281.89948
  20
360.04501
  0
SEQEND
  0
POLYLINE
  5
392
  8
Layer_0
  62
0
  66
1
  10
0
  20
0
  30
0
  0
VERTEX
  5
392
  8
Layer_0
  10
281.89948
  20
362.89502
  0
VERTEX
  5
393
  8
Layer_0
  10
281.89948
  20
389.51501
  0
SEQEND
  0
POLYLINE
  5
395
  8
Layer_0
  62
0
  66
1
  10
0
  20
0
  30
0
  0
VERTEX
  5
395
  8
Layer_0
  10
281.89948
  20
392.36502
  0
VERTEX
  5
396
  8
Layer_0
  10
281.89948
  20
407.10004
  0
SEQEND
  0
POLYLINE
  5
398
  8
Layer_0
  62
0
  66
1
  10
0
  20
0
  30
0
  0
VERTEX
  5
398
  8
Layer_0
  10
283.32449
  20
404.25
  0
VERTEX
  5
399
  8
Layer_0
  10
283.32449
  20
377.63
  0
SEQEND
  0
POLYLINE
  5
39b
  8
Layer_0
  62
0
  66
1
  10
0
  20
0
  30
0
  0
VERTEX
  5
39b
  8
Layer_0
  10
283.32449
  20
374.78003
  0
VERTEX
  5
39c
  8
Layer_0
  10
283.32449
  20
348.16003
  0
SEQEND
  0
POLYLINE
  5
39e
  8
Layer_0
  62
0
  66
1
  10
0
  20
0
  30
0
  0
VERTEX
  5
39e
  8
Layer_0
  10
283.32449
  20
345.31003
  0
VERTEX
  5
39f
  8
Layer_0
  10
283.32449
  20
318.69
  0
SEQEND
  0
POLYLINE
  5
3a1
  8
Layer_0
  62
0
  66
1
  10
0
  20
0
  30
0
  0
VERTEX
  5
3a1
  8
Layer_0
  10
283.32449
  20
315.84003
  0
VERTEX
  5
3a2
  8
Layer_0
  10
283.32449
  20
289.22003
  0
SEQEND
  0
POLYLINE
  5
3a4
  8
Layer_0
  62
0
  66
1
  10
0
  20
0
  30
0
  0
VERTEX
  5
3a4
  8
Layer_0
  10
283.32449
  20
286.37003
  0
VERTEX
  5
3a5
  8
Layer_0
  10
283.32449
  20
259.75003
  0
SEQEND
  0
POLYLINE
  5
3a7
  8
Layer_0
  62
0
  66
1
  10
0
  20
0
  30
0
  0
VERTEX
  5
3a7
  8
Layer_0
  10
284.74948
  20
256.90002
  0
VERTEX
  5
3a8
  8
Layer_0
  10
284.74948
  20
271.63501
  0
SEQEND
  0
POLYLINE
  5
3aa
  8
Layer_0
  62
0
  66
1
  10
0
  20
0
  30
0
  0
VERTEX
  5
3aa
  8
Layer_0
  10
284.74948
  20
274.48502
  0
VERTEX
  5
3ab
  8
Layer_0
  10
284.74948
  20
301.10501
  0
SEQEND
  0
POLYLINE
  5
3ad
  8
Layer_0
  62
0
  66
1
  10
0
  20
0
  30
0
  0
VERTEX
  5
3ad
  8
Layer_0
  10
284.74948
  20
303.95502
  0
VERTEX
  5
3ae
  8
Layer_0
  10
284.74948
  20
330.57501
  0
SEQEND
  0
POLYLINE
  5
3b0
  8
Layer_0
  62
0
  66
1
  10
0
  20
0
  30
0
  0
VERTEX
  5
3b0
  8
Layer_0
  10
284.74948
  20
333.42502
  0
VERTEX
  5
3b1
  8
Layer_0
  10
284.74948
  20
360.04501
  0
SEQEND
  0
POLYLINE
  5
3b3
  8
Layer_0
  62
0
  66
1
  10
0
  20
0
  30
0
  0
VERTEX
  5
3b3
  8
Layer_0
  10
284.74948
  20
362.89502
  0
VERTEX
  5
3b4
  8
Layer_0
  10
284.74948
  20
389.51501
  0
SEQEND
  0
POLYLINE
  5
3b6
  8
Layer_0
  62
0
  66
1
  10
0
  20
0
  30
0
  0
VERTEX
  5
3b6
  8
Layer_0
  10
284.74948
  20
392.36502
  0
VERTEX
  5
3b7
  8
Layer_0
  10
284.74948
  20
407.10004
  0
SEQEND
  0
POLYLINE
  5
3b9
  8
Layer_0
  62
0
  66
1
  10
0
  20
0
  30
0
  0
VERTEX
  5
3b9
  8
Layer_0
  10
286.1745
  20
404.25
  0
VERTEX
  5
3ba
  8
Layer_0
  10
286.1745
  20
377.63
  0
SEQEND
  0
POLYLINE
  5
3bc
  8
Layer_0
  62
0
  66
1
  10
0
  20
0
  30
0
  0
VERTEX
  5
3bc
  8
Layer_0
  10
286.1745
  20
374.78003
  0
VERTEX
  5
3bd
  8
Layer_0
  10
286.1745
  20
348.16003
  0
SEQEND
  0
POLYLINE
  5
3bf
  8
Layer_0
  62
0
  66
1
  10
0
  20
0
  30
0
  0
VERTEX
  5
3bf
  8
Layer_0
  10
286.1745
  20
345.31003
  0
VERTEX
  5
3c0
  8
Layer_0
  10
286.1745
  20
318.69
  0
SEQEND
  0
POLYLINE
  5
3c2
  8
Layer_0
  62
0
  66
1
  10
0
  20
0
  30
0
  0
VERTEX
  5
3c2
  8
Layer_0
  10
286.1745
  20
315.84003
  0
VERTEX
  5
3c3
  8
Layer_0
  10
286.1745
  20
289.22003
  0
SEQEND
  0
POLYLINE
  5
3c5
  8
Layer_0
  62
0
  66
1
  10
0
  20
0
  30
0
  0
VERTEX
  5
3c5
  8
Layer_0
  10
286.1745
  20
286.37003
  0
VERTEX
  5
3c6
  8
Layer_0
  10
286.1745
  20
259.75003
  0
SEQEND
  0
POLYLINE
  5
3c8
  8
Layer_0
  62
0
  66
1
  10
0
  20
0
  30
0
  0
VERTEX
  5
3c8
  8
Layer_0
  10
287.59949
  20
256.90002
  0
VERTEX
  5
3c9
  8
Layer_0
  10
287.59949
  20
271.63501
  0
SEQEND
  0
POLYLINE
  5
3cb
  8
Layer_0
  62
0
  66
1
  10
0
  20
0
  30
0
  0
VERTEX
  5
3cb
  8
Layer_0
  10
287.59949
  20
274.48502
  0
VERTEX
  5
3cc
  8
Layer_0
  10
287.59949
  20
301.10501
  0
SEQEND
  0
POLYLINE
  5
3ce
  8
Layer_0
  62
0
  66
1
  10
0
  20
0
  30
0
  0
VERTEX
  5
3ce
  8
Layer_0
  10
287.59949
  20
303.95502
  0
VERTEX
  5
3cf
  8
Layer_0
  10
287.59949
  20
330.57501
  0
SEQEND
  0
POLYLINE
  5
3d1
  8
Layer_0
  62
0
  66
1
  10
0
  20
0
  30
0
  0
VERTEX
  5
3d1
  8
Layer_0
  10
287.59949
  20
333.42502
  0
VERTEX
  5
3d2
  8
Layer_0
  10
287.59949
  20
360.04501
  0
SEQEND
  0
POLYLINE
  5
3d4
  8
Layer_0
  62
0
  66
1
  10
0
  20
0
  30
0
  0
VERTEX
  5
3d4
  8
Layer_0
  10
287.59949
  20
362.89502
  0
VERTEX
  5
3d5
  8
Layer_0
  10
287.59949
  20
389.51501
  0
SEQEND
  0
POLYLINE
  5
3d7
  8
Layer_0
  62
0
  66
1
  10
0
  20
0
  30
0
  0
VERTEX
  5
3d7
  8
Layer_0
  10
287.59949
  20
392.36502
  0
VERTEX
  5
3d8
  8
Layer_0
  10
287.59949
  20
407.10004
  0
SEQEND
  0
POLYLINE
  5
3da
  8
Layer_0
  62
0
  66
1
  10
0
  20
0
  30
0
  0
VERTEX
  5
3da
  8
Layer_0
  10
289.02448
  20
404.25
  0
VERTEX
  5
3db
  8
Layer_0
  10
289.02448
  20
377.63
  0
SEQEND
  0
POLYLINE
  5
3dd
  8
Layer_0
  62
0
  66
1
  10
0
  20
0
  30
0
  0
VERTEX
  5
3dd
  8
Layer_0
  10
289.02448
  20
374.78003
  0
VERTEX
  5
3de
  8
Layer_0
  10
289.02448
  20
348.16003
  0
SEQEND
  0
POLYLINE
  5
3e0
  8
Layer_0
  62
0
  66
1
  10
0
  20
0
  30
0
  0
VERTEX
  5
3e0
  8
Layer_0
  10
289.02448
  20
345.31003
  0
VERTEX
  5
3e1
  8
Layer_0
  10
289.02448
  20
318.69
  0
SEQEND
  0
POLYLINE
  5
3e3
  8
Layer_0
  62
0
  66
1
  10
0
  20
0
  30
0
  0
VERTEX
  5
3e3
  8
Layer_0
  10
289.02448
  20
315.84003
  0
VERTEX
  5
3e4
  8
Layer_0
  10
289.02448
  20
289.22003
  0
SEQEND
  0
POLYLINE
  5
3e6
  8
Layer_0
  62
0
  66
1
  10
0
  20
0
  30
0
  0
VERTEX
  5
3e6
  8
Layer_0
  10
289.02448
  20
286.37003
  0
VERTEX
  5
3e7
  8
Layer_0
  10
289.02448
  20
259.75003
  0
SEQEND
  0
POLYLINE
  5
3e9
  8
Layer_0
  62
0
  66
1
  10
0
  20
0
  30
0
  0
VERTEX
  5
3e9
  8
Layer_0
  10
290.44949
  20
256.90002
  0
VERTEX
  5
3ea
  8
Layer_0
  10
290.44949
  20
271.63501
  0
SEQEND
  0
POLYLINE
  5
3ec
  8
Layer_0
  62
0
  66
1
  10
0
  20
0
  30
0
  0
VERTEX
  5
3ec
  8
Layer_0
  10
290.44949
  20
274.48502
  0
VERTEX
  5
3ed
  8
Layer_0
  10
290.44949
  20
301.10501
  0
SEQEND
  0
POLYLINE
  5
3ef
  8
Layer_0
  62
0
  66
1
  10
0
  20
0
  30
0
  0
VERTEX
  5
3ef
  8
Layer_0
  10
290.44949
  20
303.95502
  0
VERTEX
  5
3f0
  8
Layer_0
  10
290.44949
  20
330.57501
  0
SEQEND
  0
POLYLINE
  5
3f2
  8
Layer_0
  62
0
  66
1
  10
0
  20
0
  30
0
  0
VERTEX
  5
3f2
  8
Layer_0
  10
290.44949
  20
333.42502
  0
VERTEX
  5
3f3
  8
Layer_0
  10
290.44949
  20
360.04501
  0
SEQEND
  0
POLYLINE
  5
3f5
  8
Layer_0
  62
0
  66
1
  10
0
  20
0
  30
0
  0
VERTEX
  5
3f5
  8
Layer_0
  10
290.44949
  20
362.89502
  0
VERTEX
  5
3f6
  8
Layer_0
  10
290.44949
  20
389.51501
  0
SEQEND
  0
POLYLINE
  5
3f8
  8
Layer_0
  62
0
  66
1
  10
0
  20
0
  30
0
  0
VERTEX
  5
3f8
  8
Layer_0
  10
290.44949
  20
392.36502
  0
VERTEX
  5
3f9
  8
Layer_0
  10
290.44949
  20
407.10004
  0
SEQEND
  0
POLYLINE
  5
3fb
  8
Layer_0
  62
0
  66
1
  10
0
  20
0
  30
0
  0
VERTEX
  5
3fb
  8
Layer_0
  10
291.87448
  20
404.25
  0
VERTEX
  5
3fc
  8
Layer_0
  10
291.87448
  20
377.63
  0
SEQEND
  0
POLYLINE
  5
3fe
  8
Layer_0
  62
0
  66
1
  10
0
  20
0
  30
0
  0
VERTEX
  5
3fe
  8
Layer_0
  10
291.87448
  20
374.78003
  0
VERTEX
  5
3ff
  8
Layer_0
  10
291.87448
  20
348.16003
  0
SEQEND
  0
POLYLINE
  5
401
  8
Layer_0
  62
0
  66
1
  10
0
  20
0
  30
0
  0
VERTEX
  5
401
  8
Layer_0
  10
291.87448
  20
345.31003
  0
VERTEX
  5
402
  8
Layer_0
  10
291.87448
  20
318.69
  0
SEQEND
  0
POLYLINE
  5
404
  8
Layer_0
  62
0
  66
1
  10
0
  20
0
  30
0
  0
VERTEX
  5
404
  8
Layer_0
  10
291.87448
  20
315.84003
  0
VERTEX
  5
405
  8
Layer_0
  10
291.87448
  20
289.22003
  0
SEQEND
  0
POLYLINE
  5
407
  8
Layer_0
  62
0
  66
1
  10
0
  20
0
  30
0
  0
VERTEX
  5
407
  8
Layer_0
  10
291.87448
  20
286.37003
  0
VERTEX
  5
408
  8
Layer_0
  10
291.87448
  20
259.75003
  0
SEQEND
  0
POLYLINE
  5
40a
  8
Layer_0
  62
0
  66
1
  10
0
  20
0
  30
0
  0
VERTEX
  5
40a
  8
Layer_0
  10
293.2995
  20
256.90002
  0
VERTEX
  5
40b
  8
Layer_0
  10
293.2995
  20
271.63501
  0
SEQEND
  0
POLYLINE
  5
40d
  8
Layer_0
  62
0
  66
1
  10
0
  20
0
  30
0
  0
VERTEX
  5
40d
  8
Layer_0
  10
293.2995
  20
274.48502
  0
VERTEX
  5
40e
  8
Layer_0
  10
293.2995
  20
301.10501
  0
SEQEND
  0
POLYLINE
  5
410
  8
Layer_0
  62
0
  66
1
  10
0
  20
0
  30
0
  0
VERTEX
  5
410
  8
Layer_0
  10
293.2995
  20
303.95502
  0
VERTEX
  5
411
  8
Layer_0
  10
293.2995
  20
330.57501
  0
SEQEND
  0
POLYLINE
  5
413
  8
Layer_0
  62
0
  66
1
  10
0
  20
0
  30
0
  0
VERTEX
  5
413
  8
Layer_0
  10
293.2995
  20
333.42502
  0
VERTEX
  5
414
  8
Layer_0
  10
293.2995
  20
360.04501
  0
SEQEND
  0
POLYLINE
  5
416
  8
Layer_0
  62
0
  66
1
  10
0
  20
0
  30
0
  0
VERTEX
  5
416
  8
Layer_0
  10
293.2995
  20
362.89502
  0
VERTEX
  5
417
  8
Layer_0
  10
293.2995
  20
389.51501
  0
SEQEND
  0
POLYLINE
  5
419
  8
Layer_0
  62
0
  66
1
  10
0
  20
0
  30
0
  0
VERTEX
  5
419
  8
Layer_0
  10
293.2995
  20
392.36502
  0
VERTEX
  5
41a
  8
Layer_0
  10
293.2995
  20
407.10004
  0
SEQEND
  0
POLYLINE
  5
41c
  8
Layer_0
  62
0
  66
1
  10
0
  20
0
  30
0
  0
VERTEX
  5
41c
  8
Layer_0
  10
294.72449
  20
404.25
  0
VERTEX
  5
41d
  8
Layer_0
  10
294.72449
  20
377.63
  0
SEQEND
  0
POLYLINE
  5
41f
  8
Layer_0
  62
0
  66
1
  10
0
  20
0
  30
0
  0
VERTEX
  5
41f
  8
Layer_0
  10
294.72449
  20
374.78003
  0
VERTEX
  5
420
  8
Layer_0
  10
294.72449
  20
348.16003
  0
SEQEND
  0
POLYLINE
  5
422
  8
Layer_0
  62
0
  66
1
  10
0
  20
0
  30
0
  0
VERTEX
  5
422
  8
Layer_0
  10
294.72449
  20
345.31003
  0
VERTEX
  5
423
  8
Layer_0
  10
294.72449
  20
318.69
  0
SEQEND
  0
POLYLINE
  5
425
  8
Layer_0
  62
0
  66
1
  10
0
  20
0
  30
0
  0
VERTEX
  5
425
  8
Layer_0
  10
294.72449
  20
315.84003
  0
VERTEX
  5
426
  8
Layer_0
  10
294.72449
  20
289.22003
  0
SEQEND
  0
POLYLINE
  5
428
  8
Layer_0
  62
0
  66
1
  10
0
  20
0
  30
0
  0
VERTEX
  5
428
  8
Layer_0
  10
294.72449
  20
286.37003
  0
VERTEX
  5
429
  8
Layer_0
  10
294.72449
  20
259.75003
  0
SEQEND
  0
POLYLINE
  5
42b
  8
Layer_0
  62
0
  66
1
  10
0
  20
0
  30
0
  0
VERTEX
  5
42b
  8
Layer_0
  10
296.14948
  20
256.90002
  0
VERTEX
  5
42c
  8
Layer_0
  10
296.14948
  20
271.63501
  0
SEQEND
  0
POLYLINE
  5
42e
  8
Layer_0
  62
0
  66
1
  10
0
  20
0
  30
0
  0
VERTEX
  5
42e
  8
Layer_0
  10
296.14948
  20
274.48502
  0
VERTEX
  5
42f
  8
Layer_0
  10
296.14948
  20
301.10501
  0
SEQEND
  0
POLYLINE
  5
431
  8
Layer_0
  62
0
  66
1
  10
0
  20
0
  30
0
  0
VERTEX
  5
431
  8
Layer_0
  10
296.14948
  20
303.95502
  0
VERTEX
  5
432
  8
Layer_0
  10
296.14948
  20
330.57501
  0
SEQEND
  0
POLYLINE
  5
434
  8
Layer_0
  62
0
  66
1
  10
0
  20
0
  30
0
  0
VERTEX
  5
434
  8
Layer_0
  10
296.14948
  20
333.42502
  0
VERTEX
  5
435
  8
Layer_0
  10
296.14948
  20
360.04501
  0
SEQEND
  0
POLYLINE
  5
437
  8
Layer_0
  62
0
  66
1
  10
0
  20
0
  30
0
  0
VERTEX
  5
437
  8
Layer_0
  10
296.14948
  20
362.89502
  0
VERTEX
  5
438
  8
Layer_0
  10
296.14948
  20
389.51501
  0
SEQEND
  0
POLYLINE
  5
43a
  8
Layer_0
  62
0
  66
1
  10
0
  20
0
  30
0
  0
VERTEX
  5
43a
  8
Layer_0
  10
296.14948
  20
392.36502
  0
VERTEX
  5
43b
  8
Layer_0
  10
296.14948
  20
407.10004
  0
SEQEND
  0
POLYLINE
  5
43d
  8
Layer_0
  62
0
  66
1
  10
0
  20
0
  30
0
  0
VERTEX
  5
43d
  8
Layer_0
  10
297.57449
  20
404.25
  0
VERTEX
  5
43e
  8
Layer_0
  10
297.57449
  20
377.63
  0
SEQEND
  0
POLYLINE
  5
440
  8
Layer_0
  62
0
  66
1
  10
0
  20
0
  30
0
  0
VERTEX
  5
440
  8
Layer_0
  10
297.57449
  20
374.78003
  0
VERTEX
  5
441
  8
Layer_0
  10
297.57449
  20
348.16003
  0
SEQEND
  0
POLYLINE
  5
443
  8
Layer_0
  62
0
  66
1
  10
0
  20
0
  30
0
  0
VERTEX
  5
443
  8
Layer_0
  10
297.57449
  20
345.31003
  0
VERTEX
  5
444
  8
Layer_0
  10
297.57449
  20
318.69
  0
SEQEND
  0
POLYLINE
  5
446
  8
Layer_0
  62
0
  66
1
  10
0
  20
0
  30
0
  0
VERTEX
  5
446
  8
Layer_0
  10
297.57449
  20
315.84003
  0
VERTEX
  5
447
  8
Layer_0
  10
297.57449
  20
289.22003
  0
SEQEND
  0
POLYLINE
  5
449
  8
Layer_0
  62
0
  66
1
  10
0
  20
0
  30
0
  0
VERTEX
  5
449
  8
Layer_0
  10
297.57449
  20
286.37003
  0
VERTEX
  5
44a
  8
Layer_0
  10
297.57449
  20
259.75003
  0
SEQEND
  0
POLYLINE
  5
44c
  8
Layer_0
  62
0
  66
1
  10
0
  20
0
  30
0
  0
VERTEX
  5
44c
  8
Layer_0
  10
298.99948
  20
256.90002
  0
VERTEX
  5
44d
  8
Layer_0
  10
298.99948
  20
271.63501
  0
SEQEND
  0
POLYLINE
  5
44f
  8
Layer_0
  62
0
  66
1
  10
0
  20
0
  30
0
  0
VERTEX
  5
44f
  8
Layer_0
  10
298.99948
  20
274.48502
  0
VERTEX
  5
450
  8
Layer_0
  10
298.99948
  20
301.10501
  0
SEQEND
  0
POLYLINE
  5
452
  8
Layer_0
  62
0
  66
1
  10
0
  20
0
  30
0
  0
VERTEX
  5
452
  8
Layer_0
  10
298.99948
  20
303.95502
  0
VERTEX
  5
453
  8
Layer_0
  10
298.99948
  20
330.57501
  0
SEQEND
  0
POLYLINE
  5
455
  8
Layer_0
  62
0
  66
1
  10
0
  20
0
  30
0
  0
VERTEX
  5
455
  8
Layer_0
  10
298.99948
  20
333.42502
  0
VERTEX
  5
456
  8
Layer_0
  10
298.99948
  20
360.04501
  0
SEQEND
  0
POLYLINE
  5
458
  8
Layer_0
  62
0
  66
1
  10
0
  20
0
  30
0
  0
VERTEX
  5
458
  8
Layer_0
  10
298.99948
  20
362.89502
  0
VERTEX
  5
459
  8
Layer_0
  10
298.99948
  20
389.51501
  0
SEQEND
  0
POLYLINE
  5
45b
  8
Layer_0
  62
0
  66
1
  10
0
  20
0
  30
0
  0
VERTEX
  5
45b
  8
Layer_0
  10
298.99948
  20
392.36502
  0
VERTEX
  5
45c
  8
Layer_0
  10
298.99948
  20
407.10004
  0
SEQEND
  0
POLYLINE
  5
45e
  8
Layer_0
  62
0
  66
1
  10
0
  20
0
  30
0
  0
VERTEX
  5
45e
  8
Layer_0
  10
300.4245
  20
404.25
  0
VERTEX
  5
45f
  8
Layer_0
  10
300.4245
  20
377.63
  0
SEQEND
  0
POLYLINE
  5
461
  8
Layer_0
  62
0
  66
1
  10
0
  20
0
  30
0
  0
VERTEX
  5
461
  8
Layer_0
  10
300.4245
  20
374.78003
  0
VERTEX
  5
462
  8
Layer_0
  10
300.4245
  20
348.16003
  0
SEQEND
  0
POLYLINE
  5
464
  8
Layer_0
  62
0
  66
1
  10
0
  20
0
  30
0
  0
VERTEX
  5
464
  8
Layer_0
  10
300.4245
  20
345.31003
  0
VERTEX
  5
465
  8
Layer_0
  10
300.4245
  20
318.69
  0
SEQEND
  0
POLYLINE
  5
467
  8
Layer_0
  62
0
  66
1
  10
0
  20
0
  30
0
  0
VERTEX
  5
467
  8
Layer_0
  10
300.4245
  20
315.84003
  0
VERTEX
  5
468
  8
Layer_0
  10
300.4245
  20
289.22003
  0
SEQEND
  0
POLYLINE
  5
46a
  8
Layer_0
  62
0
  66
1
  10
0
  20
0
  30
0
  0
VERTEX
  5
46a
  8
Layer_0
  10
300.4245
  20
286.37003
  0
VERTEX
  5
46b
  8
Layer_0
  10
300.4245
  20
259.75003
  0
SEQEND
  0
POLYLINE
  5
46d
  8
Layer_0
  62
0
  70
1
  66
1
  10
0
  20
0
  30
0
  0
VERTEX
  5
46d
  8
Layer_0
  10
336.62149
  20
253.05002
  0
VERTEX
  5
46e
  8
Layer_0
  10
343.82147
  20
253.05002
  0
VERTEX
  5
46f
  8
Layer_0
  10
343.89212
  20
253.07939
  0
VERTEX
  5
470
  8
Layer_0
  10
343.92151
  20
253.15002
  0
VERTEX
  5
471
  8
Layer_0
  10
343.92151
  20
255.90002
  0
VERTEX
  5
472
  8
Layer_0
  10
343.90741
  20
255.94221
  0
VERTEX
  5
473
  8
Layer_0
  10
343.88397
  20
255.93753
  0
VERTEX
  5
474
  8
Layer_0
  10
343.8793
  20
255.91409
  0
VERTEX
  5
475
  8
Layer_0
  10
343.92151
  20
255.90002
  0
VERTEX
  5
476
  8
Layer_0
  10
349.42151
  20
255.90002
  0
VERTEX
  5
477
  8
Layer_0
  10
349.46368
  20
255.91409
  0
VERTEX
  5
478
  8
Layer_0
  10
349.45898
  20
255.93753
  0
VERTEX
  5
479
  8
Layer_0
  10
349.43558
  20
255.94221
  0
VERTEX
  5
47a
  8
Layer_0
  10
349.42151
  20
255.90002
  0
VERTEX
  5
47b
  8
Layer_0
  10
349.42151
  20
253.15002
  0
VERTEX
  5
47c
  8
Layer_0
  10
349.4505
  20
253.07939
  0
VERTEX
  5
47d
  8
Layer_0
  10
349.52148
  20
253.05002
  0
VERTEX
  5
47e
  8
Layer_0
  10
355.2215
  20
253.05002
  0
VERTEX
  5
47f
  8
Layer_0
  10
355.29211
  20
253.07939
  0
VERTEX
  5
480
  8
Layer_0
  10
355.32147
  20
253.15002
  0
VERTEX
  5
481
  8
Layer_0
  10
355.32147
  20
255.90002
  0
VERTEX
  5
482
  8
Layer_0
  10
355.3074
  20
255.94221
  0
VERTEX
  5
483
  8
Layer_0
  10
355.284
  20
255.93753
  0
VERTEX
  5
484
  8
Layer_0
  10
355.2793
  20
255.91409
  0
VERTEX
  5
485
  8
Layer_0
  10
355.32147
  20
255.90002
  0
VERTEX
  5
486
  8
Layer_0
  10
360.82147
  20
255.90002
  0
VERTEX
  5
487
  8
Layer_0
  10
360.86368
  20
255.91409
  0
VERTEX
  5
488
  8
Layer_0
  10
360.85901
  20
255.93753
  0
VERTEX
  5
489
  8
Layer_0
  10
360.83557
  20
255.94221
  0
VERTEX
  5
48a
  8
Layer_0
  10
360.82147
  20
255.90002
  0
VERTEX
  5
48b
  8
Layer_0
  10
360.82147
  20
253.15002
  0
VERTEX
  5
48c
  8
Layer_0
  10
360.85046
  20
253.07939
  0
VERTEX
  5
48d
  8
Layer_0
  10
360.92151
  20
253.05002
  0
VERTEX
  5
48e
  8
Layer_0
  10
366.62149
  20
253.05002
  0
VERTEX
  5
48f
  8
Layer_0
  10
366.69211
  20
253.07939
  0
VERTEX
  5
490
  8
Layer_0
  10
366.7215
  20
253.15002
  0
VERTEX
  5
491
  8
Layer_0
  10
366.7215
  20
255.90002
  0
VERTEX
  5
492
  8
Layer_0
  10
366.70743
  20
255.94221
  0
VERTEX
  5
493
  8
Layer_0
  10
366.68402
  20
255.93753
  0
VERTEX
  5
494
  8
Layer_0
  10
366.67932
  20
255.91409
  0
VERTEX
  5
495
  8
Layer_0
  10
366.7215
  20
255.90002
  0
VERTEX
  5
496
  8
Layer_0
  10
372.2215
  20
255.90002
  0
VERTEX
  5
497
  8
Layer_0
  10
372.26367
  20
255.91409
  0
VERTEX
  5
498
  8
Layer_0
  10
372.25897
  20
255.93753
  0
VERTEX
  5
499
  8
Layer_0
  10
372.23557
  20
255.94221
  0
VERTEX
  5
49a
  8
Layer_0
  10
372.2215
  20
255.90002
  0
VERTEX
  5
49b
  8
Layer_0
  10
372.2215
  20
253.15002
  0
VERTEX
  5
49c
  8
Layer_0
  10
372.25049
  20
253.07939
  0
VERTEX
  5
49d
  8
Layer_0
  10
372.32147
  20
253.05002
  0
VERTEX
  5
49e
  8
Layer_0
  10
378.02148
  20
253.05002
  0
VERTEX
  5
49f
  8
Layer_0
  10
378.0921
  20
253.07939
  0
VERTEX
  5
4a0
  8
Layer_0
  10
378.12149
  20
253.15002
  0
VERTEX
  5
4a1
  8
Layer_0
  10
378.12149
  20
255.90002
  0
VERTEX
  5
4a2
  8
Layer_0
  10
378.10742
  20
255.94221
  0
VERTEX
  5
4a3
  8
Layer_0
  10
378.08398
  20
255.93753
  0
VERTEX
  5
4a4
  8
Layer_0
  10
378.07928
  20
255.91409
  0
VERTEX
  5
4a5
  8
Layer_0
  10
378.12149
  20
255.90002
  0
VERTEX
  5
4a6
  8
Layer_0
  10
383.62149
  20
255.90002
  0
VERTEX
  5
4a7
  8
Layer_0
  10
383.6637
  20
255.91409
  0
VERTEX
  5
4a8
  8
Layer_0
  10
383.659
  20
255.93753
  0
VERTEX
  5
4a9
  8
Layer_0
  10
383.63556
  20
255.94221
  0
VERTEX
  5
4aa
  8
Layer_0
  10
383.62149
  20
255.90002
  0
VERTEX
  5
4ab
  8
Layer_0
  10
383.62149
  20
253.15002
  0
VERTEX
  5
4ac
  8
Layer_0
  10
383.65051
  20
253.07939
  0
VERTEX
  5
4ad
  8
Layer_0
  10
383.7215
  20
253.05002
  0
VERTEX
  5
4ae
  8
Layer_0
  10
393.77148
  20
253.05002
  0
VERTEX
  5
4af
  8
Layer_0
  10
393.8421
  20
253.07939
  0
VERTEX
  5
4b0
  8
Layer_0
  10
393.87149
  20
253.15002
  0
VERTEX
  5
4b1
  8
Layer_0
  10
393.87149
  20
262.60001
  0
VERTEX
  5
4b2
  8
Layer_0
  10
393.8421
  20
262.67065
  0
VERTEX
  5
4b3
  8
Layer_0
  10
393.77148
  20
262.70001
  0
VERTEX
  5
4b4
  8
Layer_0
  10
391.02148
  20
262.70001
  0
VERTEX
  5
4b5
  8
Layer_0
  10
390.97931
  20
262.68594
  0
VERTEX
  5
4b6
  8
Layer_0
  10
390.98401
  20
262.66254
  0
VERTEX
  5
4b7
  8
Layer_0
  10
391.00742
  20
262.65784
  0
VERTEX
  5
4b8
  8
Layer_0
  10
391.02148
  20
262.70001
  0
VERTEX
  5
4b9
  8
Layer_0
  10
391.02148
  20
268.20001
  0
VERTEX
  5
4ba
  8
Layer_0
  10
391.00742
  20
268.24219
  0
VERTEX
  5
4bb
  8
Layer_0
  10
390.98401
  20
268.23749
  0
VERTEX
  5
4bc
  8
Layer_0
  10
390.97931
  20
268.21408
  0
VERTEX
  5
4bd
  8
Layer_0
  10
391.02148
  20
268.20001
  0
VERTEX
  5
4be
  8
Layer_0
  10
393.77148
  20
268.20001
  0
VERTEX
  5
4bf
  8
Layer_0
  10
393.8421
  20
268.2294
  0
VERTEX
  5
4c0
  8
Layer_0
  10
393.87149
  20
268.30002
  0
VERTEX
  5
4c1
  8
Layer_0
  10
393.87149
  20
274.00003
  0
VERTEX
  5
4c2
  8
Layer_0
  10
393.8421
  20
274.07062
  0
VERTEX
  5
4c3
  8
Layer_0
  10
393.77148
  20
274.10001
  0
VERTEX
  5
4c4
  8
Layer_0
  10
391.02148
  20
274.10001
  0
VERTEX
  5
4c5
  8
Layer_0
  10
390.97931
  20
274.08594
  0
VERTEX
  5
4c6
  8
Layer_0
  10
390.98401
  20
274.0625
  0
VERTEX
  5
4c7
  8
Layer_0
  10
391.00742
  20
274.05783
  0
VERTEX
  5
4c8
  8
Layer_0
  10
391.02148
  20
274.10001
  0
VERTEX
  5
4c9
  8
Layer_0
  10
391.02148
  20
279.60001
  0
VERTEX
  5
4ca
  8
Layer_0
  10
391.00742
  20
279.64221
  0
VERTEX
  5
4cb
  8
Layer_0
  10
390.98401
  20
279.63751
  0
VERTEX
  5
4cc
  8
Layer_0
  10
390.97931
  20
279.61407
  0
VERTEX
  5
4cd
  8
Layer_0
  10
391.02148
  20
279.60001
  0
VERTEX
  5
4ce
  8
Layer_0
  10
393.77148
  20
279.60001
  0
VERTEX
  5
4cf
  8
Layer_0
  10
393.8421
  20
279.62939
  0
VERTEX
  5
4d0
  8
Layer_0
  10
393.87149
  20
279.70001
  0
VERTEX
  5
4d1
  8
Layer_0
  10
393.87149
  20
285.40002
  0
VERTEX
  5
4d2
  8
Layer_0
  10
393.8421
  20
285.47064
  0
VERTEX
  5
4d3
  8
Layer_0
  10
393.77148
  20
285.50003
  0
VERTEX
  5
4d4
  8
Layer_0
  10
391.02148
  20
285.50003
  0
VERTEX
  5
4d5
  8
Layer_0
  10
390.97931
  20
285.48596
  0
VERTEX
  5
4d6
  8
Layer_0
  10
390.98401
  20
285.46252
  0
VERTEX
  5
4d7
  8
Layer_0
  10
391.00742
  20
285.45782
  0
VERTEX
  5
4d8
  8
Layer_0
  10
391.02148
  20
285.50003
  0
VERTEX
  5
4d9
  8
Layer_0
  10
391.02148
  20
291.00003
  0
VERTEX
  5
4da
  8
Layer_0
  10
391.00742
  20
291.04221
  0
VERTEX
  5
4db
  8
Layer_0
  10
390.98401
  20
291.03754
  0
VERTEX
  5
4dc
  8
Layer_0
  10
390.97931
  20
291.0141
  0
VERTEX
  5
4dd
  8
Layer_0
  10
391.02148
  20
291.00003
  0
VERTEX
  5
4de
  8
Layer_0
  10
393.77148
  20
291.00003
  0
VERTEX
  5
4df
  8
Layer_0
  10
393.8421
  20
291.02942
  0
VERTEX
  5
4e0
  8
Layer_0
  10
393.87149
  20
291.10001
  0
VERTEX
  5
4e1
  8
Layer_0
  10
393.87149
  20
296.80002
  0
VERTEX
  5
4e2
  8
Layer_0
  10
393.8421
  20
296.87064
  0
VERTEX
  5
4e3
  8
Layer_0
  10
393.77148
  20
296.90002
  0
VERTEX
  5
4e4
  8
Layer_0
  10
391.02148
  20
296.90002
  0
VERTEX
  5
4e5
  8
Layer_0
  10
390.97931
  20
296.88596
  0
VERTEX
  5
4e6
  8
Layer_0
  10
390.98401
  20
296.86255
  0
VERTEX
  5
4e7
  8
Layer_0
  10
391.00742
  20
296.85785
  0
VERTEX
  5
4e8
  8
Layer_0
  10
391.02148
  20
296.90002
  0
VERTEX
  5
4e9
  8
Layer_0
  10
391.02148
  20
302.40002
  0
VERTEX
  5
4ea
  8
Layer_0
  10
391.00742
  20
302.4422
  0
VERTEX
  5
4eb
  8
Layer_0
  10
390.98401
  20
302.4375
  0
VERTEX
  5
4ec
  8
Layer_0
  10
390.97931
  20
302.41409
  0
VERTEX
  5
4ed
  8
Layer_0
  10
391.02148
  20
302.40002
  0
VERTEX
  5
4ee
  8
Layer_0
  10
393.77148
  20
302.40002
  0
VERTEX
  5
4ef
  8
Layer_0
  10
393.8421
  20
302.42938
  0
VERTEX
  5
4f0
  8
Layer_0
  10
393.87149
  20
302.5
  0
VERTEX
  5
4f1
  8
Layer_0
  10
393.87149
  20
308.20001
  0
VERTEX
  5
4f2
  8
Layer_0
  10
393.8421
  20
308.27063
  0
VERTEX
  5
4f3
  8
Layer_0
  10
393.77148
  20
308.30002
  0
VERTEX
  5
4f4
  8
Layer_0
  10
391.02148
  20
308.30002
  0
VERTEX
  5
4f5
  8
Layer_0
  10
390.97931
  20
308.28595
  0
VERTEX
  5
4f6
  8
Layer_0
  10
390.98401
  20
308.26251
  0
VERTEX
  5
4f7
  8
Layer_0
  10
391.00742
  20
308.25781
  0
VERTEX
  5
4f8
  8
Layer_0
  10
391.02148
  20
308.30002
  0
VERTEX
  5
4f9
  8
Layer_0
  10
391.02148
  20
313.80002
  0
VERTEX
  5
4fa
  8
Layer_0
  10
391.00742
  20
313.84222
  0
VERTEX
  5
4fb
  8
Layer_0
  10
390.98401
  20
313.83752
  0
VERTEX
  5
4fc
  8
Layer_0
  10
390.97931
  20
313.81409
  0
VERTEX
  5
4fd
  8
Layer_0
  10
391.02148
  20
313.80002
  0
VERTEX
  5
4fe
  8
Layer_0
  10
393.77148
  20
313.80002
  0
VERTEX
  5
4ff
  8
Layer_0
  10
393.8421
  20
313.82941
  0
VERTEX
  5
500
  8
Layer_0
  10
393.87149
  20
313.90002
  0
VERTEX
  5
501
  8
Layer_0
  10
393.87149
  20
319.60004
  0
VERTEX
  5
502
  8
Layer_0
  10
393.8421
  20
319.67065
  0
VERTEX
  5
503
  8
Layer_0
  10
393.77148
  20
319.70001
  0
VERTEX
  5
504
  8
Layer_0
  10
391.02148
  20
319.70001
  0
VERTEX
  5
505
  8
Layer_0
  10
390.97931
  20
319.68594
  0
VERTEX
  5
506
  8
Layer_0
  10
390.98401
  20
319.66254
  0
VERTEX
  5
507
  8
Layer_0
  10
391.00742
  20
319.65784
  0
VERTEX
  5
508
  8
Layer_0
  10
391.02148
  20
319.70001
  0
VERTEX
  5
509
  8
Layer_0
  10
391.02148
  20
325.20001
  0
VERTEX
  5
50a
  8
Layer_0
  10
391.00742
  20
325.24219
  0
VERTEX
  5
50b
  8
Layer_0
  10
390.98401
  20
325.23749
  0
VERTEX
  5
50c
  8
Layer_0
  10
390.97931
  20
325.21408
  0
VERTEX
  5
50d
  8
Layer_0
  10
391.02148
  20
325.20001
  0
VERTEX
  5
50e
  8
Layer_0
  10
393.77148
  20
325.20001
  0
VERTEX
  5
50f
  8
Layer_0
  10
393.8421
  20
325.2294
  0
VERTEX
  5
510
  8
Layer_0
  10
393.87149
  20
325.30002
  0
VERTEX
  5
511
  8
Layer_0
  10
393.87149
  20
331
  0
VERTEX
  5
512
  8
Layer_0
  10
393.8421
  20
331.07065
  0
VERTEX
  5
513
  8
Layer_0
  10
393.77148
  20
331.10004
  0
VERTEX
  5
514
  8
Layer_0
  10
391.02148
  20
331.10004
  0
VERTEX
  5
515
  8
Layer_0
  10
390.97931
  20
331.08594
  0
VERTEX
  5
516
  8
Layer_0
  10
390.98401
  20
331.0625
  0
VERTEX
  5
517
  8
Layer_0
  10
391.00742
  20
331.05783
  0
VERTEX
  5
518
  8
Layer_0
  10
391.02148
  20
331.10004
  0
VERTEX
  5
519
  8
Layer_0
  10
391.02148
  20
336.60004
  0
VERTEX
  5
51a
  8
Layer_0
  10
391.00742
  20
336.64221
  0
VERTEX
  5
51b
  8
Layer_0
  10
390.98401
  20
336.63751
  0
VERTEX
  5
51c
  8
Layer_0
  10
390.97931
  20
336.61411
  0
VERTEX
  5
51d
  8
Layer_0
  10
391.02148
  20
336.60004
  0
VERTEX
  5
51e
  8
Layer_0
  10
393.77148
  20
336.60004
  0
VERTEX
  5
51f
  8
Layer_0
  10
393.8421
  20
336.62939
  0
VERTEX
  5
520
  8
Layer_0
  10
393.87149
  20
336.70001
  0
VERTEX
  5
521
  8
Layer_0
  10
393.87149
  20
342.40002
  0
VERTEX
  5
522
  8
Layer_0
  10
393.8421
  20
342.47064
  0
VERTEX
  5
523
  8
Layer_0
  10
393.77148
  20
342.5
  0
VERTEX
  5
524
  8
Layer_0
  10
391.02148
  20
342.5
  0
VERTEX
  5
525
  8
Layer_0
  10
390.97931
  20
342.48593
  0
VERTEX
  5
526
  8
Layer_0
  10
390.98401
  20
342.46252
  0
VERTEX
  5
527
  8
Layer_0
  10
391.00742
  20
342.45782
  0
VERTEX
  5
528
  8
Layer_0
  10
391.02148
  20
342.5
  0
VERTEX
  5
529
  8
Layer_0
  10
391.02148
  20
348
  0
VERTEX
  5
52a
  8
Layer_0
  10
391.00742
  20
348.04221
  0
VERTEX
  5
52b
  8
Layer_0
  10
390.98401
  20
348.03754
  0
VERTEX
  5
52c
  8
Layer_0
  10
390.97931
  20
348.0141
  0
VERTEX
  5
52d
  8
Layer_0
  10
391.02148
  20
348
  0
VERTEX
  5
52e
  8
Layer_0
  10
393.77148
  20
348
  0
VERTEX
  5
52f
  8
Layer_0
  10
393.8421
  20
348.02939
  0
VERTEX
  5
530
  8
Layer_0
  10
393.87149
  20
348.10004
  0
VERTEX
  5
531
  8
Layer_0
  10
393.87149
  20
353.80002
  0
VERTEX
  5
532
  8
Layer_0
  10
393.8421
  20
353.87064
  0
VERTEX
  5
533
  8
Layer_0
  10
393.77148
  20
353.90002
  0
VERTEX
  5
534
  8
Layer_0
  10
391.02148
  20
353.90002
  0
VERTEX
  5
535
  8
Layer_0
  10
390.97931
  20
353.88596
  0
VERTEX
  5
536
  8
Layer_0
  10
390.98401
  20
353.86255
  0
VERTEX
  5
537
  8
Layer_0
  10
391.00742
  20
353.85785
  0
VERTEX
  5
538
  8
Layer_0
  10
391.02148
  20
353.90002
  0
VERTEX
  5
539
  8
Layer_0
  10
391.02148
  20
359.40002
  0
VERTEX
  5
53a
  8
Layer_0
  10
391.00742
  20
359.4422
  0
VERTEX
  5
53b
  8
Layer_0
  10
390.98401
  20
359.4375
  0
VERTEX
  5
53c
  8
Layer_0
  10
390.97931
  20
359.41409
  0
VERTEX
  5
53d
  8
Layer_0
  10
391.02148
  20
359.40002
  0
VERTEX
  5
53e
  8
Layer_0
  10
393.77148
  20
359.40002
  0
VERTEX
  5
53f
  8
Layer_0
  10
393.8421
  20
359.42938
  0
VERTEX
  5
540
  8
Layer_0
  10
393.87149
  20
359.5
  0
VERTEX
  5
541
  8
Layer_0
  10
393.87149
  20
365.20001
  0
VERTEX
  5
542
  8
Layer_0
  10
393.8421
  20
365.27063
  0
VERTEX
  5
543
  8
Layer_0
  10
393.77148
  20
365.30002
  0
VERTEX
  5
544
  8
Layer_0
  10
391.02148
  20
365.30002
  0
VERTEX
  5
545
  8
Layer_0
  10
390.97931
  20
365.28595
  0
VERTEX
  5
546
  8
Layer_0
  10
390.98401
  20
365.26251
  0
VERTEX
  5
547
  8
Layer_0
  10
391.00742
  20
365.25781
  0
VERTEX
  5
548
  8
Layer_0
  10
391.02148
  20
365.30002
  0
VERTEX
  5
549
  8
Layer_0
  10
391.02148
  20
370.80002
  0
VERTEX
  5
54a
  8
Layer_0
  10
391.00742
  20
370.84222
  0
VERTEX
  5
54b
  8
Layer_0
  10
390.98401
  20
370.83752
  0
VERTEX
  5
54c
  8
Layer_0
  10
390.97931
  20
370.81409
  0
VERTEX
  5
54d
  8
Layer_0
  10
391.02148
  20
370.80002
  0
VERTEX
  5
54e
  8
Layer_0
  10
393.77148
  20
370.80002
  0
VERTEX
  5
54f
  8
Layer_0
  10
393.8421
  20
370.82941
  0
VERTEX
  5
550
  8
Layer_0
  10
393.87149
  20
370.90002
  0
VERTEX
  5
551
  8
Layer_0
  10
393.87149
  20
376.60004
  0
VERTEX
  5
552
  8
Layer_0
  10
393.8421
  20
376.67065
  0
VERTEX
  5
553
  8
Layer_0
  10
393.77148
  20
376.70001
  0
VERTEX
  5
554
  8
Layer_0
  10
391.02148
  20
376.70001
  0
VERTEX
  5
555
  8
Layer_0
  10
390.97931
  20
376.68594
  0
VERTEX
  5
556
  8
Layer_0
  10
390.98401
  20
376.66254
  0
VERTEX
  5
557
  8
Layer_0
  10
391.00742
  20
376.65784
  0
VERTEX
  5
558
  8
Layer_0
  10
391.02148
  20
376.70001
  0
VERTEX
  5
559
  8
Layer_0
  10
391.02148
  20
382.20001
  0
VERTEX
  5
55a
  8
Layer_0
  10
391.00742
  20
382.24219
  0
VERTEX
  5
55b
  8
Layer_0
  10
390.98401
  20
382.23749
  0
VERTEX
  5
55c
  8
Layer_0
  10
390.97931
  20
382.21408
  0
VERTEX
  5
55d
  8
Layer_0
  10
391.02148
  20
382.20001
  0
VERTEX
  5
55e
  8
Layer_0
  10
393.77148
  20
382.20001
  0
VERTEX
  5
55f
  8
Layer_0
  10
393.8421
  20
382.2294
  0
VERTEX
  5
560
  8
Layer_0
  10
393.87149
  20
382.30002
  0
VERTEX
  5
561
  8
Layer_0
  10
393.87149
  20
388
  0
VERTEX
  5
562
  8
Layer_0
  10
393.8421
  20
388.07065
  0
VERTEX
  5
563
  8
Layer_0
  10
393.77148
  20
388.10004
  0
VERTEX
  5
564
  8
Layer_0
  10
391.02148
  20
388.10004
  0
VERTEX
  5
565
  8
Layer_0
  10
390.97931
  20
388.08594
  0
VERTEX
  5
566
  8
Layer_0
  10
390.98401
  20
388.0625
  0
VERTEX
  5
567
  8
Layer_0
  10
391.00742
  20
388.05783
  0
VERTEX
  5
568
  8
Layer_0
  10
391.02148
  20
388.10004
  0
VERTEX
  5
569
  8
Layer_0
  10
391.02148
  20
393.60004
  0
VERTEX
  5
56a
  8
Layer_0
  10
391.00742
  20
393.64221
  0
VERTEX
  5
56b
  8
Layer_0
  10
390.98401
  20
393.63751
  0
VERTEX
  5
56c
  8
Layer_0
  10
390.97931
  20
393.61411
  0
VERTEX
  5
56d
  8
Layer_0
  10
391.02148
  20
393.60004
  0
VERTEX
  5
56e
  8
Layer_0
  10
393.77148
  20
393.60004
  0
VERTEX
  5
56f
  8
Layer_0
  10
393.8421
  20
393.62939
  0
VERTEX
  5
570
  8
Layer_0
  10
393.87149
  20
393.70001
  0
VERTEX
  5
571
  8
Layer_0
  10
393.87149
  20
403.15002
  0
VERTEX
  5
572
  8
Layer_0
  10
393.8421
  20
403.22064
  0
VERTEX
  5
573
  8
Layer_0
  10
393.77148
  20
403.25
  0
VERTEX
  5
574
  8
Layer_0
  10
383.7215
  20
403.25
  0
VERTEX
  5
575
  8
Layer_0
  10
383.65051
  20
403.22064
  0
VERTEX
  5
576
  8
Layer_0
  10
383.62149
  20
403.15002
  0
VERTEX
  5
577
  8
Layer_0
  10
383.62149
  20
400.40002
  0
VERTEX
  5
578
  8
Layer_0
  10
383.63556
  20
400.35785
  0
VERTEX
  5
579
  8
Layer_0
  10
383.659
  20
400.36255
  0
VERTEX
  5
57a
  8
Layer_0
  10
383.6637
  20
400.38596
  0
VERTEX
  5
57b
  8
Layer_0
  10
383.62149
  20
400.40002
  0
VERTEX
  5
57c
  8
Layer_0
  10
378.12149
  20
400.40002
  0
VERTEX
  5
57d
  8
Layer_0
  10
378.07928
  20
400.38596
  0
VERTEX
  5
57e
  8
Layer_0
  10
378.08398
  20
400.36255
  0
VERTEX
  5
57f
  8
Layer_0
  10
378.10742
  20
400.35785
  0
VERTEX
  5
580
  8
Layer_0
  10
378.12149
  20
400.40002
  0
VERTEX
  5
581
  8
Layer_0
  10
378.12149
  20
403.15002
  0
VERTEX
  5
582
  8
Layer_0
  10
378.0921
  20
403.22064
  0
VERTEX
  5
583
  8
Layer_0
  10
378.02148
  20
403.25
  0
VERTEX
  5
584
  8
Layer_0
  10
372.32147
  20
403.25
  0
VERTEX
  5
585
  8
Layer_0
  10
372.25049
  20
403.22064
  0
VERTEX
  5
586
  8
Layer_0
  10
372.2215
  20
403.15002
  0
VERTEX
  5
587
  8
Layer_0
  10
372.2215
  20
400.40002
  0
VERTEX
  5
588
  8
Layer_0
  10
372.23557
  20
400.35785
  0
VERTEX
  5
589
  8
Layer_0
  10
372.25897
  20
400.36255
  0
VERTEX
  5
58a
  8
Layer_0
  10
372.26367
  20
400.38596
  0
VERTEX
  5
58b
  8
Layer_0
  10
372.2215
  20
400.40002
  0
VERTEX
  5
58c
  8
Layer_0
  10
366.7215
  20
400.40002
  0
VERTEX
  5
58d
  8
Layer_0
  10
366.67932
  20
400.38596
  0
VERTEX
  5
58e
  8
Layer_0
  10
366.68402
  20
400.36255
  0
VERTEX
  5
58f
  8
Layer_0
  10
366.70743
  20
400.35785
  0
VERTEX
  5
590
  8
Layer_0
  10
366.7215
  20
400.40002
  0
VERTEX
  5
591
  8
Layer_0
  10
366.7215
  20
403.15002
  0
VERTEX
  5
592
  8
Layer_0
  10
366.69211
  20
403.22064
  0
VERTEX
  5
593
  8
Layer_0
  10
366.62149
  20
403.25
  0
VERTEX
  5
594
  8
Layer_0
  10
360.92151
  20
403.25
  0
VERTEX
  5
595
  8
Layer_0
  10
360.85046
  20
403.22064
  0
VERTEX
  5
596
  8
Layer_0
  10
360.82147
  20
403.15002
  0
VERTEX
  5
597
  8
Layer_0
  10
360.82147
  20
400.40002
  0
VERTEX
  5
598
  8
Layer_0
  10
360.83557
  20
400.35785
  0
VERTEX
  5
599
  8
Layer_0
  10
360.85901
  20
400.36255
  0
VERTEX
  5
59a
  8
Layer_0
  10
360.86368
  20
400.38596
  0
VERTEX
  5
59b
  8
Layer_0
  10
360.82147
  20
400.40002
  0
VERTEX
  5
59c
  8
Layer_0
  10
355.32147
  20
400.40002
  0
VERTEX
  5
59d
  8
Layer_0
  10
355.2793
  20
400.38596
  0
VERTEX
  5
59e
  8
Layer_0
  10
355.284
  20
400.36255
  0
VERTEX
  5
59f
  8
Layer_0
  10
355.3074
  20
400.35785
  0
VERTEX
  5
5a0
  8
Layer_0
  10
355.32147
  20
400.40002
  0
VERTEX
  5
5a1
  8
Layer_0
  10
355.32147
  20
403.15002
  0
VERTEX
  5
5a2
  8
Layer_0
  10
355.29211
  20
403.22064
  0
VERTEX
  5
5a3
  8
Layer_0
  10
355.2215
  20
403.25
  0
VERTEX
  5
5a4
  8
Layer_0
  10
349.52148
  20
403.25
  0
VERTEX
  5
5a5
  8
Layer_0
  10
349.4505
  20
403.22064
  0
VERTEX
  5
5a6
  8
Layer_0
  10
349.42151
  20
403.15002
  0
VERTEX
  5
5a7
  8
Layer_0
  10
349.42151
  20
400.40002
  0
VERTEX
  5
5a8
  8
Layer_0
  10
349.43558
  20
400.35785
  0
VERTEX
  5
5a9
  8
Layer_0
  10
349.45898
  20
400.36255
  0
VERTEX
  5
5aa
  8
Layer_0
  10
349.46368
  20
400.38596
  0
VERTEX
  5
5ab
  8
Layer_0
  10
349.42151
  20
400.40002
  0
VERTEX
  5
5ac
  8
Layer_0
  10
343.92151
  20
400.40002
  0
VERTEX
  5
5ad
  8
Layer_0
  10
343.8793
  20
400.38596
  0
VERTEX
  5
5ae
  8
Layer_0
  10
343.88397
  20
400.36255
  0
VERTEX
  5
5af
  8
Layer_0
  10
343.90741
  20
400.35785
  0
VERTEX
  5
5b0
  8
Layer_0
  10
343.92151
  20
400.40002
  0
VERTEX
  5
5b1
  8
Layer_0
  10
343.92151
  20
403.15002
  0
VERTEX
  5
5b2
  8
Layer_0
  10
343.89212
  20
403.22064
  0
VERTEX
  5
5b3
  8
Layer_0
  10
343.82147
  20
403.25
  0
VERTEX
  5
5b4
  8
Layer_0
  10
333.77148
  20
403.25
  0
VERTEX
  5
5b5
  8
Layer_0
  10
333.7005
  20
403.22064
  0
VERTEX
  5
5b6
  8
Layer_0
  10
333.67151
  20
403.15002
  0
VERTEX
  5
5b7
  8
Layer_0
  10
333.67151
  20
393.70001
  0
VERTEX
  5
5b8
  8
Layer_0
  10
333.7005
  20
393.62939
  0
VERTEX
  5
5b9
  8
Layer_0
  10
333.77148
  20
393.60004
  0
VERTEX
  5
5ba
  8
Layer_0
  10
336.52148
  20
393.60004
  0
VERTEX
  5
5bb
  8
Layer_0
  10
336.56366
  20
393.61411
  0
VERTEX
  5
5bc
  8
Layer_0
  10
336.55896
  20
393.63751
  0
VERTEX
  5
5bd
  8
Layer_0
  10
336.53555
  20
393.64221
  0
VERTEX
  5
5be
  8
Layer_0
  10
336.52148
  20
393.60004
  0
VERTEX
  5
5bf
  8
Layer_0
  10
336.52148
  20
388.10004
  0
VERTEX
  5
5c0
  8
Layer_0
  10
336.53555
  20
388.05783
  0
VERTEX
  5
5c1
  8
Layer_0
  10
336.55896
  20
388.0625
  0
VERTEX
  5
5c2
  8
Layer_0
  10
336.56366
  20
388.08594
  0
VERTEX
  5
5c3
  8
Layer_0
  10
336.52148
  20
388.10004
  0
VERTEX
  5
5c4
  8
Layer_0
  10
333.77148
  20
388.10004
  0
VERTEX
  5
5c5
  8
Layer_0
  10
333.7005
  20
388.07065
  0
VERTEX
  5
5c6
  8
Layer_0
  10
333.67151
  20
388
  0
VERTEX
  5
5c7
  8
Layer_0
  10
333.67151
  20
382.30002
  0
VERTEX
  5
5c8
  8
Layer_0
  10
333.7005
  20
382.2294
  0
VERTEX
  5
5c9
  8
Layer_0
  10
333.77148
  20
382.20001
  0
VERTEX
  5
5ca
  8
Layer_0
  10
336.52148
  20
382.20001
  0
VERTEX
  5
5cb
  8
Layer_0
  10
336.56366
  20
382.21408
  0
VERTEX
  5
5cc
  8
Layer_0
  10
336.55896
  20
382.23749
  0
VERTEX
  5
5cd
  8
Layer_0
  10
336.53555
  20
382.24219
  0
VERTEX
  5
5ce
  8
Layer_0
  10
336.52148
  20
382.20001
  0
VERTEX
  5
5cf
  8
Layer_0
  10
336.52148
  20
376.70001
  0
VERTEX
  5
5d0
  8
Layer_0
  10
336.53555
  20
376.65784
  0
VERTEX
  5
5d1
  8
Layer_0
  10
336.55896
  20
376.66254
  0
VERTEX
  5
5d2
  8
Layer_0
  10
336.56366
  20
376.68594
  0
VERTEX
  5
5d3
  8
Layer_0
  10
336.52148
  20
376.70001
  0
VERTEX
  5
5d4
  8
Layer_0
  10
333.77148
  20
376.70001
  0
VERTEX
  5
5d5
  8
Layer_0
  10
333.7005
  20
376.67065
  0
VERTEX
  5
5d6
  8
Layer_0
  10
333.67151
  20
376.60004
  0
VERTEX
  5
5d7
  8
Layer_0
  10
333.67151
  20
370.90002
  0
VERTEX
  5
5d8
  8
Layer_0
  10
333.7005
  20
370.82941
  0
VERTEX
  5
5d9
  8
Layer_0
  10
333.77148
  20
370.80002
  0
VERTEX
  5
5da
  8
Layer_0
  10
336.52148
  20
370.80002
  0
VERTEX
  5
5db
  8
Layer_0
  10
336.56366
  20
370.81409
  0
VERTEX
  5
5dc
  8
Layer_0
  10
336.55896
  20
370.83752
  0
VERTEX
  5
5dd
  8
Layer_0
  10
336.53555
  20
370.84222
  0
VERTEX
  5
5de
  8
Layer_0
  10
336.52148
  20
370.80002
  0
VERTEX
  5
5df
  8
Layer_0
  10
336.52148
  20
365.30002
  0
VERTEX
  5
5e0
  8
Layer_0
  10
336.53555
  20
365.25781
  0
VERTEX
  5
5e1
  8
Layer_0
  10
336.55896
  20
365.26251
  0
VERTEX
  5
5e2
  8
Layer_0
  10
336.56366
  20
365.28595
  0
VERTEX
  5
5e3
  8
Layer_0
  10
336.52148
  20
365.30002
  0
VERTEX
  5
5e4
  8
Layer_0
  10
333.77148
  20
365.30002
  0
VERTEX
  5
5e5
  8
Layer_0
  10
333.7005
  20
365.27063
  0
VERTEX
  5
5e6
  8
Layer_0
  10
333.67151
  20
365.20001
  0
VERTEX
  5
5e7
  8
Layer_0
  10
333.67151
  20
359.5
  0
VERTEX
  5
5e8
  8
Layer_0
  10
333.7005
  20
359.42938
  0
VERTEX
  5
5e9
  8
Layer_0
  10
333.77148
  20
359.40002
  0
VERTEX
  5
5ea
  8
Layer_0
  10
336.52148
  20
359.40002
  0
VERTEX
  5
5eb
  8
Layer_0
  10
336.56366
  20
359.41409
  0
VERTEX
  5
5ec
  8
Layer_0
  10
336.55896
  20
359.4375
  0
VERTEX
  5
5ed
  8
Layer_0
  10
336.53555
  20
359.4422
  0
VERTEX
  5
5ee
  8
Layer_0
  10
336.52148
  20
359.40002
  0
VERTEX
  5
5ef
  8
Layer_0
  10
336.52148
  20
353.90002
  0
VERTEX
  5
5f0
  8
Layer_0
  10
336.53555
  20
353.85785
  0
VERTEX
  5
5f1
  8
Layer_0
  10
336.55896
  20
353.86255
  0
VERTEX
  5
5f2
  8
Layer_0
  10
336.56366
  20
353.88596
  0
VERTEX
  5
5f3
  8
Layer_0
  10
336.52148
  20
353.90002
  0
VERTEX
  5
5f4
  8
Layer_0
  10
333.77148
  20
353.90002
  0
VERTEX
  5
5f5
  8
Layer_0
  10
333.7005
  20
353.87064
  0
VERTEX
  5
5f6
  8
Layer_0
  10
333.67151
  20
353.80002
  0
VERTEX
  5
5f7
  8
Layer_0
  10
333.67151
  20
348.10004
  0
VERTEX
  5
5f8
  8
Layer_0
  10
333.7005
  20
348.02939
  0
VERTEX
  5
5f9
  8
Layer_0
  10
333.77148
  20
348
  0
VERTEX
  5
5fa
  8
Layer_0
  10
336.52148
  20
348
  0
VERTEX
  5
5fb
  8
Layer_0
  10
336.56366
  20
348.0141
  0
VERTEX
  5
5fc
  8
Layer_0
  10
336.55896
  20
348.03754
  0
VERTEX
  5
5fd
  8
Layer_0
  10
336.53555
  20
348.04221
  0
VERTEX
  5
5fe
  8
Layer_0
  10
336.52148
  20
348
  0
VERTEX
  5
5ff
  8
Layer_0
  10
336.52148
  20
342.5
  0
VERTEX
  5
600
  8
Layer_0
  10
336.53555
  20
342.45782
  0
VERTEX
  5
601
  8
Layer_0
  10
336.55896
  20
342.46252
  0
VERTEX
  5
602
  8
Layer_0
  10
336.56366
  20
342.48593
  0
VERTEX
  5
603
  8
Layer_0
  10
336.52148
  20
342.5
  0
VERTEX
  5
604
  8
Layer_0
  10
333.77148
  20
342.5
  0
VERTEX
  5
605
  8
Layer_0
  10
333.7005
  20
342.47064
  0
VERTEX
  5
606
  8
Layer_0
  10
333.67151
  20
342.40002
  0
VERTEX
  5
607
  8
Layer_0
  10
333.67151
  20
336.70001
  0
VERTEX
  5
608
  8
Layer_0
  10
333.7005
  20
336.62939
  0
VERTEX
  5
609
  8
Layer_0
  10
333.77148
  20
336.60004
  0
VERTEX
  5
60a
  8
Layer_0
  10
336.52148
  20
336.60004
  0
VERTEX
  5
60b
  8
Layer_0
  10
336.56366
  20
336.61411
  0
VERTEX
  5
60c
  8
Layer_0
  10
336.55896
  20
336.63751
  0
VERTEX
  5
60d
  8
Layer_0
  10
336.53555
  20
336.64221
  0
VERTEX
  5
60e
  8
Layer_0
  10
336.52148
  20
336.60004
  0
VERTEX
  5
60f
  8
Layer_0
  10
336.52148
  20
331.10004
  0
VERTEX
  5
610
  8
Layer_0
  10
336.53555
  20
331.05783
  0
VERTEX
  5
611
  8
Layer_0
  10
336.55896
  20
331.0625
  0
VERTEX
  5
612
  8
Layer_0
  10
336.56366
  20
331.08594
  0
VERTEX
  5
613
  8
Layer_0
  10
336.52148
  20
331.10004
  0
VERTEX
  5
614
  8
Layer_0
  10
333.77148
  20
331.10004
  0
VERTEX
  5
615
  8
Layer_0
  10
333.7005
  20
331.07065
  0
VERTEX
  5
616
  8
Layer_0
  10
333.67151
  20
331
  0
VERTEX
  5
617
  8
Layer_0
  10
333.67151
  20
325.30002
  0
VERTEX
  5
618
  8
Layer_0
  10
333.7005
  20
325.2294
  0
VERTEX
  5
619
  8
Layer_0
  10
333.77148
  20
325.20001
  0
VERTEX
  5
61a
  8
Layer_0
  10
336.52148
  20
325.20001
  0
VERTEX
  5
61b
  8
Layer_0
  10
336.56366
  20
325.21408
  0
VERTEX
  5
61c
  8
Layer_0
  10
336.55896
  20
325.23749
  0
VERTEX
  5
61d
  8
Layer_0
  10
336.53555
  20
325.24219
  0
VERTEX
  5
61e
  8
Layer_0
  10
336.52148
  20
325.20001
  0
VERTEX
  5
61f
  8
Layer_0
  10
336.52148
  20
319.70001
  0
VERTEX
  5
620
  8
Layer_0
  10
336.53555
  20
319.65784
  0
VERTEX
  5
621
  8
Layer_0
  10
336.55896
  20
319.66254
  0
VERTEX
  5
622
  8
Layer_0
  10
336.56366
  20
319.68594
  0
VERTEX
  5
623
  8
Layer_0
  10
336.52148
  20
319.70001
  0
VERTEX
  5
624
  8
Layer_0
  10
333.77148
  20
319.70001
  0
VERTEX
  5
625
  8
Layer_0
  10
333.7005
  20
319.67065
  0
VERTEX
  5
626
  8
Layer_0
  10
333.67151
  20
319.60004
  0
VERTEX
  5
627
  8
Layer_0
  10
333.67151
  20
313.90002
  0
VERTEX
  5
628
  8
Layer_0
  10
333.7005
  20
313.82941
  0
VERTEX
  5
629
  8
Layer_0
  10
333.77148
  20
313.80002
  0
VERTEX
  5
62a
  8
Layer_0
  10
336.52148
  20
313.80002
  0
VERTEX
  5
62b
  8
Layer_0
  10
336.56366
  20
313.81409
  0
VERTEX
  5
62c
  8
Layer_0
  10
336.55896
  20
313.83752
  0
VERTEX
  5
62d
  8
Layer_0
  10
336.53555
  20
313.84222
  0
VERTEX
  5
62e
  8
Layer_0
  10
336.52148
  20
313.80002
  0
VERTEX
  5
62f
  8
Layer_0
  10
336.52148
  20
308.30002
  0
VERTEX
  5
630
  8
Layer_0
  10
336.53555
  20
308.25781
  0
VERTEX
  5
631
  8
Layer_0
  10
336.55896
  20
308.26251
  0
VERTEX
  5
632
  8
Layer_0
  10
336.56366
  20
308.28595
  0
VERTEX
  5
633
  8
Layer_0
  10
336.52148
  20
308.30002
  0
VERTEX
  5
634
  8
Layer_0
  10
333.77148
  20
308.30002
  0
VERTEX
  5
635
  8
Layer_0
  10
333.7005
  20
308.27063
  0
VERTEX
  5
636
  8
Layer_0
  10
333.67151
  20
308.20001
  0
VERTEX
  5
637
  8
Layer_0
  10
333.67151
  20
302.5
  0
VERTEX
  5
638
  8
Layer_0
  10
333.7005
  20
302.42938
  0
VERTEX
  5
639
  8
Layer_0
  10
333.77148
  20
302.40002
  0
VERTEX
  5
63a
  8
Layer_0
  10
336.52148
  20
302.40002
  0
VERTEX
  5
63b
  8
Layer_0
  10
336.56366
  20
302.41409
  0
VERTEX
  5
63c
  8
Layer_0
  10
336.55896
  20
302.4375
  0
VERTEX
  5
63d
  8
Layer_0
  10
336.53555
  20
302.4422
  0
VERTEX
  5
63e
  8
Layer_0
  10
336.52148
  20
302.40002
  0
VERTEX
  5
63f
  8
Layer_0
  10
336.52148
  20
296.90002
  0
VERTEX
  5
640
  8
Layer_0
  10
336.53555
  20
296.85785
  0
VERTEX
  5
641
  8
Layer_0
  10
336.55896
  20
296.86255
  0
VERTEX
  5
642
  8
Layer_0
  10
336.56366
  20
296.88596
  0
VERTEX
  5
643
  8
Layer_0
  10
336.52148
  20
296.90002
  0
VERTEX
  5
644
  8
Layer_0
  10
333.77148
  20
296.90002
  0
VERTEX
  5
645
  8
Layer_0
  10
333.7005
  20
296.87064
  0
VERTEX
  5
646
  8
Layer_0
  10
333.67151
  20
296.80002
  0
VERTEX
  5
647
  8
Layer_0
  10
333.67151
  20
291.10001
  0
VERTEX
  5
648
  8
Layer_0
  10
333.7005
  20
291.02942
  0
VERTEX
  5
649
  8
Layer_0
  10
333.77148
  20
291.00003
  0
VERTEX
  5
64a
  8
Layer_0
  10
336.52148
  20
291.00003
  0
VERTEX
  5
64b
  8
Layer_0
  10
336.56366
  20
291.0141
  0
VERTEX
  5
64c
  8
Layer_0
  10
336.55896
  20
291.03754
  0
VERTEX
  5
64d
  8
Layer_0
  10
336.53555
  20
291.04221
  0
VERTEX
  5
64e
  8
Layer_0
  10
336.52148
  20
291.00003
  0
VERTEX
  5
64f
  8
Layer_0
  10
336.52148
  20
285.50003
  0
VERTEX
  5
650
  8
Layer_0
  10
336.53555
  20
285.45782
  0
VERTEX
  5
651
  8
Layer_0
  10
336.55896
  20
285.46252
  0
VERTEX
  5
652
  8
Layer_0
  10
336.56366
  20
285.48596
  0
VERTEX
  5
653
  8
Layer_0
  10
336.52148
  20
285.50003
  0
VERTEX
  5
654
  8
Layer_0
  10
333.77148
  20
285.50003
  0
VERTEX
  5
655
  8
Layer_0
  10
333.7005
  20
285.47064
  0
VERTEX
  5
656
  8
Layer_0
  10
333.67151
  20
285.40002
  0
VERTEX
  5
657
  8
Layer_0
  10
333.67151
  20
279.70001
  0
VERTEX
  5
658
  8
Layer_0
  10
333.7005
  20
279.62939
  0
VERTEX
  5
659
  8
Layer_0
  10
333.77148
  20
279.60001
  0
VERTEX
  5
65a
  8
Layer_0
  10
336.52148
  20
279.60001
  0
VERTEX
  5
65b
  8
Layer_0
  10
336.56366
  20
279.61407
  0
VERTEX
  5
65c
  8
Layer_0
  10
336.55896
  20
279.63751
  0
VERTEX
  5
65d
  8
Layer_0
  10
336.53555
  20
279.64221
  0
VERTEX
  5
65e
  8
Layer_0
  10
336.52148
  20
279.60001
  0
VERTEX
  5
65f
  8
Layer_0
  10
336.52148
  20
274.10001
  0
VERTEX
  5
660
  8
Layer_0
  10
336.53555
  20
274.05783
  0
VERTEX
  5
661
  8
Layer_0
  10
336.55896
  20
274.0625
  0
VERTEX
  5
662
  8
Layer_0
  10
336.56366
  20
274.08594
  0
VERTEX
  5
663
  8
Layer_0
  10
336.52148
  20
274.10001
  0
VERTEX
  5
664
  8
Layer_0
  10
333.77148
  20
274.10001
  0
VERTEX
  5
665
  8
Layer_0
  10
333.7005
  20
274.07062
  0
VERTEX
  5
666
  8
Layer_0
  10
333.67151
  20
274.00003
  0
VERTEX
  5
667
  8
Layer_0
  10
333.67151
  20
268.30002
  0
VERTEX
  5
668
  8
Layer_0
  10
333.7005
  20
268.2294
  0
VERTEX
  5
669
  8
Layer_0
  10
333.77148
  20
268.20001
  0
VERTEX
  5
66a
  8
Layer_0
  10
336.52148
  20
268.20001
  0
VERTEX
  5
66b
  8
Layer_0
  10
336.56366
  20
268.21408
  0
VERTEX
  5
66c
  8
Layer_0
  10
336.55896
  20
268.23749
  0
VERTEX
  5
66d
  8
Layer_0
  10
336.53555
  20
268.24219
  0
VERTEX
  5
66e
  8
Layer_0
  10
336.52148
  20
268.20001
  0
VERTEX
  5
66f
  8
Layer_0
  10
336.52148
  20
262.70001
  0
VERTEX
  5
670
  8
Layer_0
  10
336.53555
  20
262.65784
  0
VERTEX
  5
671
  8
Layer_0
  10
336.55896
  20
262.66254
  0
VERTEX
  5
672
  8
Layer_0
  10
336.56366
  20
262.68594
  0
VERTEX
  5
673
  8
Layer_0
  10
336.52148
  20
262.70001
  0
VERTEX
  5
674
  8
Layer_0
  10
333.77148
  20
262.70001
  0
VERTEX
  5
675
  8
Layer_0
  10
333.7005
  20
262.67065
  0
VERTEX
  5
676
  8
Layer_0
  10
333.67151
  20
262.60001
  0
VERTEX
  5
677
  8
Layer_0
  10
333.67151
  20
253.15002
  0
VERTEX
  5
678
  8
Layer_0
  10
333.7005
  20
253.07939
  0
VERTEX
  5
679
  8
Layer_0
  10
333.77148
  20
253.05002
  0
VERTEX
  5
67a
  8
Layer_0
  10
336.62149
  20
253.05002
  0
SEQEND
  0
POLYLINE
  5
67c
  8
Layer_0
  62
0
  70
1
  66
1
  10
0
  20
0
  30
0
  0
VERTEX
  5
67c
  8
Layer_0
  10
213.22224
  20
315.97925
  0
VERTEX
  5
67d
  8
Layer_0
  10
213.22224
  20
319.55426
  0
VERTEX
  5
67e
  8
Layer_0
  10
213.19287
  20
319.62488
  0
VERTEX
  5
67f
  8
Layer_0
  10
213.12225
  20
319.65427
  0
VERTEX
  5
680
  8
Layer_0
  10
210.37225
  20
319.65427
  0
VERTEX
  5
681
  8
Layer_0
  10
210.33006
  20
319.6402
  0
VERTEX
  5
682
  8
Layer_0
  10
210.33475
  20
319.61676
  0
VERTEX
  5
683
  8
Layer_0
  10
210.35818
  20
319.61206
  0
VERTEX
  5
684
  8
Layer_0
  10
210.37225
  20
319.65427
  0
VERTEX
  5
685
  8
Layer_0
  10
210.37225
  20
322.30426
  0
VERTEX
  5
686
  8
Layer_0
  10
210.35818
  20
322.34644
  0
VERTEX
  5
687
  8
Layer_0
  10
210.33475
  20
322.34174
  0
VERTEX
  5
688
  8
Layer_0
  10
210.33006
  20
322.31833
  0
VERTEX
  5
689
  8
Layer_0
  10
210.37225
  20
322.30426
  0
VERTEX
  5
68a
  8
Layer_0
  10
213.12225
  20
322.30426
  0
VERTEX
  5
68b
  8
Layer_0
  10
213.19287
  20
322.33325
  0
VERTEX
  5
68c
  8
Layer_0
  10
213.22224
  20
322.40427
  0
VERTEX
  5
68d
  8
Layer_0
  10
213.22224
  20
325.97925
  0
VERTEX
  5
68e
  8
Layer_0
  10
213.19287
  20
326.0499
  0
VERTEX
  5
68f
  8
Layer_0
  10
213.12225
  20
326.07928
  0
VERTEX
  5
690
  8
Layer_0
  10
55.422241
  20
326.07922
  0
VERTEX
  5
691
  8
Layer_0
  10
55.351624
  20
326.04987
  0
VERTEX
  5
692
  8
Layer_0
  10
55.32225
  20
325.97925
  0
VERTEX
  5
693
  8
Layer_0
  10
55.32225
  20
322.40424
  0
VERTEX
  5
694
  8
Layer_0
  10
55.351624
  20
322.33325
  0
VERTEX
  5
695
  8
Layer_0
  10
55.422241
  20
322.30423
  0
VERTEX
  5
696
  8
Layer_0
  10
58.172241
  20
322.30423
  0
VERTEX
  5
697
  8
Layer_0
  10
58.214432
  20
322.3183
  0
VERTEX
  5
698
  8
Layer_0
  10
58.209743
  20
322.34174
  0
VERTEX
  5
699
  8
Layer_0
  10
58.186302
  20
322.34644
  0
VERTEX
  5
69a
  8
Layer_0
  10
58.172241
  20
322.30423
  0
VERTEX
  5
69b
  8
Layer_0
  10
58.172241
  20
319.65424
  0
VERTEX
  5
69c
  8
Layer_0
  10
58.186302
  20
319.61206
  0
VERTEX
  5
69d
  8
Layer_0
  10
58.209743
  20
319.61676
  0
VERTEX
  5
69e
  8
Layer_0
  10
58.214432
  20
319.64017
  0
VERTEX
  5
69f
  8
Layer_0
  10
58.172241
  20
319.65424
  0
VERTEX
  5
6a0
  8
Layer_0
  10
55.422241
  20
319.65424
  0
VERTEX
  5
6a1
  8
Layer_0
  10
55.351624
  20
319.62488
  0
VERTEX
  5
6a2
  8
Layer_0
  10
55.32225
  20
319.55423
  0
VERTEX
  5
6a3
  8
Layer_0
  10
55.32225
  20
313.12921
  0
VERTEX
  5
6a4
  8
Layer_0
  10
55.351624
  20
313.05823
  0
VERTEX
  5
6a5
  8
Layer_0
  10
55.422241
  20
313.02924
  0
VERTEX
  5
6a6
  8
Layer_0
  10
63.022247
  20
313.02924
  0
VERTEX
  5
6a7
  8
Layer_0
  10
63.092865
  20
313.05823
  0
VERTEX
  5
6a8
  8
Layer_0
  10
63.122238
  20
313.12921
  0
VERTEX
  5
6a9
  8
Layer_0
  10
63.122238
  20
315.87921
  0
VERTEX
  5
6aa
  8
Layer_0
  10
63.108177
  20
315.92142
  0
VERTEX
  5
6ab
  8
Layer_0
  10
63.08474
  20
315.91675
  0
VERTEX
  5
6ac
  8
Layer_0
  10
63.080055
  20
315.89331
  0
VERTEX
  5
6ad
  8
Layer_0
  10
63.122238
  20
315.87921
  0
VERTEX
  5
6ae
  8
Layer_0
  10
68.622238
  20
315.87921
  0
VERTEX
  5
6af
  8
Layer_0
  10
68.664429
  20
315.89331
  0
VERTEX
  5
6b0
  8
Layer_0
  10
68.659744
  20
315.91675
  0
VERTEX
  5
6b1
  8
Layer_0
  10
68.636299
  20
315.92142
  0
VERTEX
  5
6b2
  8
Layer_0
  10
68.622238
  20
315.87921
  0
VERTEX
  5
6b3
  8
Layer_0
  10
68.622238
  20
313.12921
  0
VERTEX
  5
6b4
  8
Layer_0
  10
68.651619
  20
313.05823
  0
VERTEX
  5
6b5
  8
Layer_0
  10
68.722244
  20
313.02924
  0
VERTEX
  5
6b6
  8
Layer_0
  10
74.422241
  20
313.02924
  0
VERTEX
  5
6b7
  8
Layer_0
  10
74.492874
  20
313.05823
  0
VERTEX
  5
6b8
  8
Layer_0
  10
74.522247
  20
313.12921
  0
VERTEX
  5
6b9
  8
Layer_0
  10
74.522247
  20
315.87921
  0
VERTEX
  5
6ba
  8
Layer_0
  10
74.508186
  20
315.92142
  0
VERTEX
  5
6bb
  8
Layer_0
  10
74.484741
  20
315.91675
  0
VERTEX
  5
6bc
  8
Layer_0
  10
74.480057
  20
315.89331
  0
VERTEX
  5
6bd
  8
Layer_0
  10
74.522247
  20
315.87921
  0
VERTEX
  5
6be
  8
Layer_0
  10
80.022247
  20
315.87921
  0
VERTEX
  5
6bf
  8
Layer_0
  10
80.06443
  20
315.89331
  0
VERTEX
  5
6c0
  8
Layer_0
  10
80.059738
  20
315.91675
  0
VERTEX
  5
6c1
  8
Layer_0
  10
80.036301
  20
315.92142
  0
VERTEX
  5
6c2
  8
Layer_0
  10
80.022247
  20
315.87921
  0
VERTEX
  5
6c3
  8
Layer_0
  10
80.022247
  20
313.12921
  0
VERTEX
  5
6c4
  8
Layer_0
  10
80.05162
  20
313.05823
  0
VERTEX
  5
6c5
  8
Layer_0
  10
80.122238
  20
313.02924
  0
VERTEX
  5
6c6
  8
Layer_0
  10
85.82225
  20
313.02924
  0
VERTEX
  5
6c7
  8
Layer_0
  10
85.892868
  20
313.05823
  0
VERTEX
  5
6c8
  8
Layer_0
  10
85.922241
  20
313.12921
  0
VERTEX
  5
6c9
  8
Layer_0
  10
85.922241
  20
315.87921
  0
VERTEX
  5
6ca
  8
Layer_0
  10
85.908188
  20
315.92142
  0
VERTEX
  5
6cb
  8
Layer_0
  10
85.88475
  20
315.91675
  0
VERTEX
  5
6cc
  8
Layer_0
  10
85.880058
  20
315.89331
  0
VERTEX
  5
6cd
  8
Layer_0
  10
85.922241
  20
315.87921
  0
VERTEX
  5
6ce
  8
Layer_0
  10
91.422241
  20
315.87921
  0
VERTEX
  5
6cf
  8
Layer_0
  10
91.464432
  20
315.89331
  0
VERTEX
  5
6d0
  8
Layer_0
  10
91.459747
  20
315.91675
  0
VERTEX
  5
6d1
  8
Layer_0
  10
91.436302
  20
315.92142
  0
VERTEX
  5
6d2
  8
Layer_0
  10
91.422241
  20
315.87921
  0
VERTEX
  5
6d3
  8
Layer_0
  10
91.422241
  20
313.12921
  0
VERTEX
  5
6d4
  8
Layer_0
  10
91.451614
  20
313.05823
  0
VERTEX
  5
6d5
  8
Layer_0
  10
91.522247
  20
313.02924
  0
VERTEX
  5
6d6
  8
Layer_0
  10
97.222244
  20
313.02924
  0
VERTEX
  5
6d7
  8
Layer_0
  10
97.29287
  20
313.05823
  0
VERTEX
  5
6d8
  8
Layer_0
  10
97.32225
  20
313.12924
  0
VERTEX
  5
6d9
  8
Layer_0
  10
97.32225
  20
315.87924
  0
VERTEX
  5
6da
  8
Layer_0
  10
97.308189
  20
315.92145
  0
VERTEX
  5
6db
  8
Layer_0
  10
97.284744
  20
315.91675
  0
VERTEX
  5
6dc
  8
Layer_0
  10
97.28006
  20
315.89331
  0
VERTEX
  5
6dd
  8
Layer_0
  10
97.32225
  20
315.87924
  0
VERTEX
  5
6de
  8
Layer_0
  10
102.82225
  20
315.87924
  0
VERTEX
  5
6df
  8
Layer_0
  10
102.86443
  20
315.89331
  0
VERTEX
  5
6e0
  8
Layer_0
  10
102.85974
  20
315.91675
  0
VERTEX
  5
6e1
  8
Layer_0
  10
102.8363
  20
315.92145
  0
VERTEX
  5
6e2
  8
Layer_0
  10
102.82225
  20
315.87924
  0
VERTEX
  5
6e3
  8
Layer_0
  10
102.82225
  20
313.12924
  0
VERTEX
  5
6e4
  8
Layer_0
  10
102.85162
  20
313.05823
  0
VERTEX
  5
6e5
  8
Layer_0
  10
102.92224
  20
313.02924
  0
VERTEX
  5
6e6
  8
Layer_0
  10
108.62225
  20
313.02924
  0
VERTEX
  5
6e7
  8
Layer_0
  10
108.69287
  20
313.05823
  0
VERTEX
  5
6e8
  8
Layer_0
  10
108.72225
  20
313.12924
  0
VERTEX
  5
6e9
  8
Layer_0
  10
108.72225
  20
315.87924
  0
VERTEX
  5
6ea
  8
Layer_0
  10
108.70819
  20
315.92145
  0
VERTEX
  5
6eb
  8
Layer_0
  10
108.68475
  20
315.91675
  0
VERTEX
  5
6ec
  8
Layer_0
  10
108.68007
  20
315.89331
  0
VERTEX
  5
6ed
  8
Layer_0
  10
108.72225
  20
315.87924
  0
VERTEX
  5
6ee
  8
Layer_0
  10
114.22225
  20
315.87924
  0
VERTEX
  5
6ef
  8
Layer_0
  10
114.26443
  20
315.89331
  0
VERTEX
  5
6f0
  8
Layer_0
  10
114.25975
  20
315.91675
  0
VERTEX
  5
6f1
  8
Layer_0
  10
114.23631
  20
315.92145
  0
VERTEX
  5
6f2
  8
Layer_0
  10
114.22225
  20
315.87924
  0
VERTEX
  5
6f3
  8
Layer_0
  10
114.22225
  20
313.12924
  0
VERTEX
  5
6f4
  8
Layer_0
  10
114.25163
  20
313.05823
  0
VERTEX
  5
6f5
  8
Layer_0
  10
114.32225
  20
313.02924
  0
VERTEX
  5
6f6
  8
Layer_0
  10
120.02225
  20
313.02924
  0
VERTEX
  5
6f7
  8
Layer_0
  10
120.09288
  20
313.05823
  0
VERTEX
  5
6f8
  8
Layer_0
  10
120.12225
  20
313.12924
  0
VERTEX
  5
6f9
  8
Layer_0
  10
120.12225
  20
315.87924
  0
VERTEX
  5
6fa
  8
Layer_0
  10
120.10819
  20
315.92145
  0
VERTEX
  5
6fb
  8
Layer_0
  10
120.08475
  20
315.91675
  0
VERTEX
  5
6fc
  8
Layer_0
  10
120.08006
  20
315.89331
  0
VERTEX
  5
6fd
  8
Layer_0
  10
120.12225
  20
315.87924
  0
VERTEX
  5
6fe
  8
Layer_0
  10
125.62225
  20
315.87924
  0
VERTEX
  5
6ff
  8
Layer_0
  10
125.66444
  20
315.89331
  0
VERTEX
  5
700
  8
Layer_0
  10
125.65976
  20
315.91675
  0
VERTEX
  5
701
  8
Layer_0
  10
125.63631
  20
315.92145
  0
VERTEX
  5
702
  8
Layer_0
  10
125.62225
  20
315.87924
  0
VERTEX
  5
703
  8
Layer_0
  10
125.62225
  20
313.12924
  0
VERTEX
  5
704
  8
Layer_0
  10
125.65163
  20
313.05823
  0
VERTEX
  5
705
  8
Layer_0
  10
125.72225
  20
313.02924
  0
VERTEX
  5
706
  8
Layer_0
  10
131.42224
  20
313.02924
  0
VERTEX
  5
707
  8
Layer_0
  10
131.49287
  20
313.05823
  0
VERTEX
  5
708
  8
Layer_0
  10
131.52225
  20
313.12924
  0
VERTEX
  5
709
  8
Layer_0
  10
131.52225
  20
315.87924
  0
VERTEX
  5
70a
  8
Layer_0
  10
131.50818
  20
315.92145
  0
VERTEX
  5
70b
  8
Layer_0
  10
131.48474
  20
315.91675
  0
VERTEX
  5
70c
  8
Layer_0
  10
131.48006
  20
315.89331
  0
VERTEX
  5
70d
  8
Layer_0
  10
131.52225
  20
315.87924
  0
VERTEX
  5
70e
  8
Layer_0
  10
137.02225
  20
315.87924
  0
VERTEX
  5
70f
  8
Layer_0
  10
137.06444
  20
315.89331
  0
VERTEX
  5
710
  8
Layer_0
  10
137.05975
  20
315.91675
  0
VERTEX
  5
711
  8
Layer_0
  10
137.03632
  20
315.92145
  0
VERTEX
  5
712
  8
Layer_0
  10
137.02225
  20
315.87924
  0
VERTEX
  5
713
  8
Layer_0
  10
137.02225
  20
313.12924
  0
VERTEX
  5
714
  8
Layer_0
  10
137.05164
  20
313.05823
  0
VERTEX
  5
715
  8
Layer_0
  10
137.12225
  20
313.02924
  0
VERTEX
  5
716
  8
Layer_0
  10
142.82225
  20
313.02924
  0
VERTEX
  5
717
  8
Layer_0
  10
142.89288
  20
313.05823
  0
VERTEX
  5
718
  8
Layer_0
  10
142.92224
  20
313.12924
  0
VERTEX
  5
719
  8
Layer_0
  10
142.92224
  20
315.87924
  0
VERTEX
  5
71a
  8
Layer_0
  10
142.90817
  20
315.92145
  0
VERTEX
  5
71b
  8
Layer_0
  10
142.88475
  20
315.91675
  0
VERTEX
  5
71c
  8
Layer_0
  10
142.88007
  20
315.89331
  0
VERTEX
  5
71d
  8
Layer_0
  10
142.92224
  20
315.87924
  0
VERTEX
  5
71e
  8
Layer_0
  10
148.42224
  20
315.87924
  0
VERTEX
  5
71f
  8
Layer_0
  10
148.46443
  20
315.89331
  0
VERTEX
  5
720
  8
Layer_0
  10
148.45975
  20
315.91675
  0
VERTEX
  5
721
  8
Layer_0
  10
148.43631
  20
315.92145
  0
VERTEX
  5
722
  8
Layer_0
  10
148.42224
  20
315.87924
  0
VERTEX
  5
723
  8
Layer_0
  10
148.42224
  20
313.12924
  0
VERTEX
  5
724
  8
Layer_0
  10
148.45163
  20
313.05823
  0
VERTEX
  5
725
  8
Layer_0
  10
148.52225
  20
313.02924
  0
VERTEX
  5
726
  8
Layer_0
  10
154.22226
  20
313.02924
  0
VERTEX
  5
727
  8
Layer_0
  10
154.29288
  20
313.05823
  0
VERTEX
  5
728
  8
Layer_0
  10
154.32225
  20
313.12924
  0
VERTEX
  5
729
  8
Layer_0
  10
154.32225
  20
315.87924
  0
VERTEX
  5
72a
  8
Layer_0
  10
154.3082
  20
315.92145
  0
VERTEX
  5
72b
  8
Layer_0
  10
154.28474
  20
315.91675
  0
VERTEX
  5
72c
  8
Layer_0
  10
154.28006
  20
315.89331
  0
VERTEX
  5
72d
  8
Layer_0
  10
154.32225
  20
315.87924
  0
VERTEX
  5
72e
  8
Layer_0
  10
159.82225
  20
315.87924
  0
VERTEX
  5
72f
  8
Layer_0
  10
159.86444
  20
315.89331
  0
VERTEX
  5
730
  8
Layer_0
  10
159.85976
  20
315.91675
  0
VERTEX
  5
731
  8
Layer_0
  10
159.8363
  20
315.92145
  0
VERTEX
  5
732
  8
Layer_0
  10
159.82225
  20
315.87924
  0
VERTEX
  5
733
  8
Layer_0
  10
159.82225
  20
313.12924
  0
VERTEX
  5
734
  8
Layer_0
  10
159.85162
  20
313.05823
  0
VERTEX
  5
735
  8
Layer_0
  10
159.92224
  20
313.02924
  0
VERTEX
  5
736
  8
Layer_0
  10
165.62225
  20
313.02924
  0
VERTEX
  5
737
  8
Layer_0
  10
165.69287
  20
313.05823
  0
VERTEX
  5
738
  8
Layer_0
  10
165.72226
  20
313.12924
  0
VERTEX
  5
739
  8
Layer_0
  10
165.72226
  20
315.87924
  0
VERTEX
  5
73a
  8
Layer_0
  10
165.70819
  20
315.92145
  0
VERTEX
  5
73b
  8
Layer_0
  10
165.68475
  20
315.91675
  0
VERTEX
  5
73c
  8
Layer_0
  10
165.68007
  20
315.89331
  0
VERTEX
  5
73d
  8
Layer_0
  10
165.72226
  20
315.87924
  0
VERTEX
  5
73e
  8
Layer_0
  10
171.22224
  20
315.87924
  0
VERTEX
  5
73f
  8
Layer_0
  10
171.26443
  20
315.89331
  0
VERTEX
  5
740
  8
Layer_0
  10
171.25975
  20
315.91675
  0
VERTEX
  5
741
  8
Layer_0
  10
171.2363
  20
315.92145
  0
VERTEX
  5
742
  8
Layer_0
  10
171.22224
  20
315.87924
  0
VERTEX
  5
743
  8
Layer_0
  10
171.22224
  20
313.12924
  0
VERTEX
  5
744
  8
Layer_0
  10
171.25162
  20
313.05823
  0
VERTEX
  5
745
  8
Layer_0
  10
171.32225
  20
313.02924
  0
VERTEX
  5
746
  8
Layer_0
  10
177.02225
  20
313.02924
  0
VERTEX
  5
747
  8
Layer_0
  10
177.09286
  20
313.05823
  0
VERTEX
  5
748
  8
Layer_0
  10
177.12225
  20
313.12924
  0
VERTEX
  5
749
  8
Layer_0
  10
177.12225
  20
315.87924
  0
VERTEX
  5
74a
  8
Layer_0
  10
177.10818
  20
315.92145
  0
VERTEX
  5
74b
  8
Layer_0
  10
177.08475
  20
315.91675
  0
VERTEX
  5
74c
  8
Layer_0
  10
177.08006
  20
315.89331
  0
VERTEX
  5
74d
  8
Layer_0
  10
177.12225
  20
315.87924
  0
VERTEX
  5
74e
  8
Layer_0
  10
182.62225
  20
315.87924
  0
VERTEX
  5
74f
  8
Layer_0
  10
182.66443
  20
315.89331
  0
VERTEX
  5
750
  8
Layer_0
  10
182.65974
  20
315.91675
  0
VERTEX
  5
751
  8
Layer_0
  10
182.63632
  20
315.92145
  0
VERTEX
  5
752
  8
Layer_0
  10
182.62225
  20
315.87924
  0
VERTEX
  5
753
  8
Layer_0
  10
182.62225
  20
313.12924
  0
VERTEX
  5
754
  8
Layer_0
  10
182.65161
  20
313.05823
  0
VERTEX
  5
755
  8
Layer_0
  10
182.72224
  20
313.02924
  0
VERTEX
  5
756
  8
Layer_0
  10
188.42224
  20
313.02927
  0
VERTEX
  5
757
  8
Layer_0
  10
188.49287
  20
313.05829
  0
VERTEX
  5
758
  8
Layer_0
  10
188.52225
  20
313.12927
  0
VERTEX
  5
759
  8
Layer_0
  10
188.52225
  20
315.87927
  0
VERTEX
  5
75a
  8
Layer_0
  10
188.50818
  20
315.92145
  0
VERTEX
  5
75b
  8
Layer_0
  10
188.48474
  20
315.91675
  0
VERTEX
  5
75c
  8
Layer_0
  10
188.48006
  20
315.89334
  0
VERTEX
  5
75d
  8
Layer_0
  10
188.52225
  20
315.87927
  0
VERTEX
  5
75e
  8
Layer_0
  10
194.02225
  20
315.87927
  0
VERTEX
  5
75f
  8
Layer_0
  10
194.06444
  20
315.89334
  0
VERTEX
  5
760
  8
Layer_0
  10
194.05975
  20
315.91675
  0
VERTEX
  5
761
  8
Layer_0
  10
194.03632
  20
315.92145
  0
VERTEX
  5
762
  8
Layer_0
  10
194.02225
  20
315.87927
  0
VERTEX
  5
763
  8
Layer_0
  10
194.02225
  20
313.12927
  0
VERTEX
  5
764
  8
Layer_0
  10
194.05162
  20
313.05829
  0
VERTEX
  5
765
  8
Layer_0
  10
194.12225
  20
313.02927
  0
VERTEX
  5
766
  8
Layer_0
  10
199.82225
  20
313.02927
  0
VERTEX
  5
767
  8
Layer_0
  10
199.89288
  20
313.05829
  0
VERTEX
  5
768
  8
Layer_0
  10
199.92224
  20
313.12927
  0
VERTEX
  5
769
  8
Layer_0
  10
199.92224
  20
315.87927
  0
VERTEX
  5
76a
  8
Layer_0
  10
199.90817
  20
315.92145
  0
VERTEX
  5
76b
  8
Layer_0
  10
199.88475
  20
315.91675
  0
VERTEX
  5
76c
  8
Layer_0
  10
199.88007
  20
315.89334
  0
VERTEX
  5
76d
  8
Layer_0
  10
199.92224
  20
315.87927
  0
VERTEX
  5
76e
  8
Layer_0
  10
205.42224
  20
315.87927
  0
VERTEX
  5
76f
  8
Layer_0
  10
205.46443
  20
315.89334
  0
VERTEX
  5
770
  8
Layer_0
  10
205.45975
  20
315.91675
  0
VERTEX
  5
771
  8
Layer_0
  10
205.43631
  20
315.92145
  0
VERTEX
  5
772
  8
Layer_0
  10
205.42224
  20
315.87927
  0
VERTEX
  5
773
  8
Layer_0
  10
205.42226
  20
313.12927
  0
VERTEX
  5
774
  8
Layer_0
  10
205.45163
  20
313.05829
  0
VERTEX
  5
775
  8
Layer_0
  10
205.52225
  20
313.02927
  0
VERTEX
  5
776
  8
Layer_0
  10
213.12225
  20
313.02927
  0
VERTEX
  5
777
  8
Layer_0
  10
213.19287
  20
313.05829
  0
VERTEX
  5
778
  8
Layer_0
  10
213.22224
  20
313.12927
  0
VERTEX
  5
779
  8
Layer_0
  10
213.22224
  20
315.97925
  0
SEQEND
  0
POLYLINE
  5
77b
  8
Layer_0
  62
0
  70
1
  66
1
  10
0
  20
0
  30
0
  0
VERTEX
  5
77b
  8
Layer_0
  10
240.91525
  20
374.00775
  0
VERTEX
  5
77c
  8
Layer_0
  10
240.91
  20
374.03973
  0
VERTEX
  5
77d
  8
Layer_0
  10
240.89426
  20
374.06876
  0
VERTEX
  5
77e
  8
Layer_0
  10
240.30725
  20
374.81143
  0
VERTEX
  5
77f
  8
Layer_0
  10
239.70001
  20
375.53592
  0
VERTEX
  5
780
  8
Layer_0
  10
239.07303
  20
376.24179
  0
VERTEX
  5
781
  8
Layer_0
  10
238.4267
  20
376.92874
  0
VERTEX
  5
782
  8
Layer_0
  10
237.76149
  20
377.59634
  0
VERTEX
  5
783
  8
Layer_0
  10
237.07785
  20
378.24426
  0
VERTEX
  5
784
  8
Layer_0
  10
236.37625
  20
378.8721
  0
VERTEX
  5
785
  8
Layer_0
  10
235.65714
  20
379.47952
  0
VERTEX
  5
786
  8
Layer_0
  10
234.92093
  20
380.06613
  0
VERTEX
  5
787
  8
Layer_0
  10
234.16812
  20
380.63165
  0
VERTEX
  5
788
  8
Layer_0
  10
233.39911
  20
381.1756
  0
VERTEX
  5
789
  8
Layer_0
  10
232.6144
  20
381.69769
  0
VERTEX
  5
78a
  8
Layer_0
  10
231.81439
  20
382.19751
  0
VERTEX
  5
78b
  8
Layer_0
  10
230.99957
  20
382.67468
  0
VERTEX
  5
78c
  8
Layer_0
  10
230.17038
  20
383.12891
  0
VERTEX
  5
78d
  8
Layer_0
  10
229.32726
  20
383.55975
  0
VERTEX
  5
78e
  8
Layer_0
  10
228.47226
  20
383.96625
  0
VERTEX
  5
78f
  8
Layer_0
  10
227.60721
  20
384.34744
  0
VERTEX
  5
790
  8
Layer_0
  10
226.73265
  20
384.70325
  0
VERTEX
  5
791
  8
Layer_0
  10
225.84915
  20
385.03357
  0
VERTEX
  5
792
  8
Layer_0
  10
224.95726
  20
385.33823
  0
VERTEX
  5
793
  8
Layer_0
  10
224.05757
  20
385.61707
  0
VERTEX
  5
794
  8
Layer_0
  10
223.15063
  20
385.87
  0
VERTEX
  5
795
  8
Layer_0
  10
222.237
  20
386.09686
  0
VERTEX
  5
796
  8
Layer_0
  10
221.31726
  20
386.29755
  0
VERTEX
  5
797
  8
Layer_0
  10
220.39197
  20
386.47192
  0
VERTEX
  5
798
  8
Layer_0
  10
219.46169
  20
386.61981
  0
VERTEX
  5
799
  8
Layer_0
  10
218.52698
  20
386.74112
  0
VERTEX
  5
79a
  8
Layer_0
  10
217.58841
  20
386.83569
  0
VERTEX
  5
79b
  8
Layer_0
  10
216.64656
  20
386.90341
  0
VERTEX
  5
79c
  8
Layer_0
  10
215.70197
  20
386.94415
  0
VERTEX
  5
79d
  8
Layer_0
  10
214.75525
  20
386.95773
  0
VERTEX
  5
79e
  8
Layer_0
  10
209.73026
  20
386.95773
  0
VERTEX
  5
79f
  8
Layer_0
  10
209.65962
  20
386.92834
  0
VERTEX
  5
7a0
  8
Layer_0
  10
209.63025
  20
386.85773
  0
VERTEX
  5
7a1
  8
Layer_0
  10
209.63025
  20
384.10773
  0
VERTEX
  5
7a2
  8
Layer_0
  10
209.64432
  20
384.06555
  0
VERTEX
  5
7a3
  8
Layer_0
  10
209.66776
  20
384.07025
  0
VERTEX
  5
7a4
  8
Layer_0
  10
209.67244
  20
384.09366
  0
VERTEX
  5
7a5
  8
Layer_0
  10
209.63025
  20
384.10773
  0
VERTEX
  5
7a6
  8
Layer_0
  10
204.13025
  20
384.10773
  0
VERTEX
  5
7a7
  8
Layer_0
  10
204.08807
  20
384.09366
  0
VERTEX
  5
7a8
  8
Layer_0
  10
204.09276
  20
384.07025
  0
VERTEX
  5
7a9
  8
Layer_0
  10
204.11618
  20
384.06555
  0
VERTEX
  5
7aa
  8
Layer_0
  10
204.13025
  20
384.10773
  0
VERTEX
  5
7ab
  8
Layer_0
  10
204.13025
  20
386.85773
  0
VERTEX
  5
7ac
  8
Layer_0
  10
204.10089
  20
386.92834
  0
VERTEX
  5
7ad
  8
Layer_0
  10
204.03026
  20
386.95773
  0
VERTEX
  5
7ae
  8
Layer_0
  10
198.33026
  20
386.95773
  0
VERTEX
  5
7af
  8
Layer_0
  10
198.25963
  20
386.92834
  0
VERTEX
  5
7b0
  8
Layer_0
  10
198.23026
  20
386.85773
  0
VERTEX
  5
7b1
  8
Layer_0
  10
198.23026
  20
384.10773
  0
VERTEX
  5
7b2
  8
Layer_0
  10
198.24432
  20
384.06555
  0
VERTEX
  5
7b3
  8
Layer_0
  10
198.26776
  20
384.07025
  0
VERTEX
  5
7b4
  8
Layer_0
  10
198.27245
  20
384.09366
  0
VERTEX
  5
7b5
  8
Layer_0
  10
198.23026
  20
384.10773
  0
VERTEX
  5
7b6
  8
Layer_0
  10
192.73026
  20
384.10773
  0
VERTEX
  5
7b7
  8
Layer_0
  10
192.68806
  20
384.09366
  0
VERTEX
  5
7b8
  8
Layer_0
  10
192.69275
  20
384.07025
  0
VERTEX
  5
7b9
  8
Layer_0
  10
192.71619
  20
384.06555
  0
VERTEX
  5
7ba
  8
Layer_0
  10
192.73026
  20
384.10773
  0
VERTEX
  5
7bb
  8
Layer_0
  10
192.73026
  20
386.85773
  0
VERTEX
  5
7bc
  8
Layer_0
  10
192.70087
  20
386.92834
  0
VERTEX
  5
7bd
  8
Layer_0
  10
192.63025
  20
386.95773
  0
VERTEX
  5
7be
  8
Layer_0
  10
187.60526
  20
386.95773
  0
VERTEX
  5
7bf
  8
Layer_0
  10
187.53464
  20
386.92834
  0
VERTEX
  5
7c0
  8
Layer_0
  10
187.50525
  20
386.85773
  0
VERTEX
  5
7c1
  8
Layer_0
  10
187.50525
  20
380.53271
  0
VERTEX
  5
7c2
  8
Layer_0
  10
187.51932
  20
380.49054
  0
VERTEX
  5
7c3
  8
Layer_0
  10
187.54276
  20
380.49524
  0
VERTEX
  5
7c4
  8
Layer_0
  10
187.54744
  20
380.51865
  0
VERTEX
  5
7c5
  8
Layer_0
  10
187.50525
  20
380.53271
  0
VERTEX
  5
7c6
  8
Layer_0
  10
184.75525
  20
380.53271
  0
VERTEX
  5
7c7
  8
Layer_0
  10
184.68463
  20
380.50336
  0
VERTEX
  5
7c8
  8
Layer_0
  10
184.65524
  20
380.43274
  0
VERTEX
  5
7c9
  8
Layer_0
  10
184.65524
  20
377.58273
  0
VERTEX
  5
7ca
  8
Layer_0
  10
184.68463
  20
377.51172
  0
VERTEX
  5
7cb
  8
Layer_0
  10
184.75525
  20
377.48273
  0
VERTEX
  5
7cc
  8
Layer_0
  10
187.50525
  20
377.48273
  0
VERTEX
  5
7cd
  8
Layer_0
  10
187.54744
  20
377.4968
  0
VERTEX
  5
7ce
  8
Layer_0
  10
187.54276
  20
377.5202
  0
VERTEX
  5
7cf
  8
Layer_0
  10
187.51932
  20
377.5249
  0
VERTEX
  5
7d0
  8
Layer_0
  10
187.50525
  20
377.48273
  0
VERTEX
  5
7d1
  8
Layer_0
  10
187.50525
  20
374.00775
  0
VERTEX
  5
7d2
  8
Layer_0
  10
187.53464
  20
373.93671
  0
VERTEX
  5
7d3
  8
Layer_0
  10
187.60526
  20
373.90771
  0
VERTEX
  5
7d4
  8
Layer_0
  10
240.81525
  20
373.90775
  0
VERTEX
  5
7d5
  8
Layer_0
  10
240.88588
  20
373.93677
  0
VERTEX
  5
7d6
  8
Layer_0
  10
240.91525
  20
374.00775
  0
SEQEND
  0
POLYLINE
  5
7d8
  8
Layer_0
  62
0
  70
1
  66
1
  10
0
  20
0
  30
0
  0
VERTEX
  5
7d8
  8
Layer_0
  10
240.91525
  20
401.33276
  0
VERTEX
  5
7d9
  8
Layer_0
  10
240.91
  20
401.30035
  0
VERTEX
  5
7da
  8
Layer_0
  10
240.89426
  20
401.27176
  0
VERTEX
  5
7db
  8
Layer_0
  10
240.30725
  20
400.52905
  0
VERTEX
  5
7dc
  8
Layer_0
  10
239.70001
  20
399.80457
  0
VERTEX
  5
7dd
  8
Layer_0
  10
239.07303
  20
399.09863
  0
VERTEX
  5
7de
  8
Layer_0
  10
238.4267
  20
398.41162
  0
VERTEX
  5
7df
  8
Layer_0
  10
237.76149
  20
397.74396
  0
VERTEX
  5
7e0
  8
Layer_0
  10
237.07785
  20
397.09595
  0
VERTEX
  5
7e1
  8
Layer_0
  10
236.37625
  20
396.46802
  0
VERTEX
  5
7e2
  8
Layer_0
  10
235.65714
  20
395.8605
  0
VERTEX
  5
7e3
  8
Layer_0
  10
234.92093
  20
395.2738
  0
VERTEX
  5
7e4
  8
Layer_0
  10
234.16812
  20
394.70819
  0
VERTEX
  5
7e5
  8
Layer_0
  10
233.39911
  20
394.16418
  0
VERTEX
  5
7e6
  8
Layer_0
  10
232.6144
  20
393.64203
  0
VERTEX
  5
7e7
  8
Layer_0
  10
231.81439
  20
393.14215
  0
VERTEX
  5
7e8
  8
Layer_0
  10
230.99957
  20
392.66486
  0
VERTEX
  5
7e9
  8
Layer_0
  10
230.17038
  20
392.21063
  0
VERTEX
  5
7ea
  8
Layer_0
  10
229.32726
  20
391.77975
  0
VERTEX
  5
7eb
  8
Layer_0
  10
228.47226
  20
391.37329
  0
VERTEX
  5
7ec
  8
Layer_0
  10
227.60721
  20
390.9921
  0
VERTEX
  5
7ed
  8
Layer_0
  10
226.73265
  20
390.63632
  0
VERTEX
  5
7ee
  8
Layer_0
  10
225.84915
  20
390.30606
  0
VERTEX
  5
7ef
  8
Layer_0
  10
224.95726
  20
390.0015
  0
VERTEX
  5
7f0
  8
Layer_0
  10
224.05757
  20
389.72272
  0
VERTEX
  5
7f1
  8
Layer_0
  10
223.15063
  20
389.46985
  0
VERTEX
  5
7f2
  8
Layer_0
  10
222.237
  20
389.2431
  0
VERTEX
  5
7f3
  8
Layer_0
  10
221.31726
  20
389.04254
  0
VERTEX
  5
7f4
  8
Layer_0
  10
220.39197
  20
388.86829
  0
VERTEX
  5
7f5
  8
Layer_0
  10
219.46169
  20
388.72046
  0
VERTEX
  5
7f6
  8
Layer_0
  10
218.52698
  20
388.59924
  0
VERTEX
  5
7f7
  8
Layer_0
  10
217.58841
  20
388.50473
  0
VERTEX
  5
7f8
  8
Layer_0
  10
216.64656
  20
388.43707
  0
VERTEX
  5
7f9
  8
Layer_0
  10
215.70197
  20
388.39636
  0
VERTEX
  5
7fa
  8
Layer_0
  10
214.75525
  20
388.38275
  0
VERTEX
  5
7fb
  8
Layer_0
  10
209.73026
  20
388.38275
  0
VERTEX
  5
7fc
  8
Layer_0
  10
209.65962
  20
388.41174
  0
VERTEX
  5
7fd
  8
Layer_0
  10
209.63025
  20
388.48273
  0
VERTEX
  5
7fe
  8
Layer_0
  10
209.63025
  20
391.23273
  0
VERTEX
  5
7ff
  8
Layer_0
  10
209.64432
  20
391.2749
  0
VERTEX
  5
800
  8
Layer_0
  10
209.66776
  20
391.2702
  0
VERTEX
  5
801
  8
Layer_0
  10
209.67244
  20
391.2468
  0
VERTEX
  5
802
  8
Layer_0
  10
209.63025
  20
391.23273
  0
VERTEX
  5
803
  8
Layer_0
  10
204.13025
  20
391.23273
  0
VERTEX
  5
804
  8
Layer_0
  10
204.08807
  20
391.2468
  0
VERTEX
  5
805
  8
Layer_0
  10
204.09276
  20
391.2702
  0
VERTEX
  5
806
  8
Layer_0
  10
204.11618
  20
391.2749
  0
VERTEX
  5
807
  8
Layer_0
  10
204.13025
  20
391.23273
  0
VERTEX
  5
808
  8
Layer_0
  10
204.13025
  20
388.48273
  0
VERTEX
  5
809
  8
Layer_0
  10
204.10089
  20
388.41174
  0
VERTEX
  5
80a
  8
Layer_0
  10
204.03026
  20
388.38275
  0
VERTEX
  5
80b
  8
Layer_0
  10
198.33026
  20
388.38275
  0
VERTEX
  5
80c
  8
Layer_0
  10
198.25963
  20
388.41174
  0
VERTEX
  5
80d
  8
Layer_0
  10
198.23026
  20
388.48273
  0
VERTEX
  5
80e
  8
Layer_0
  10
198.23026
  20
391.23273
  0
VERTEX
  5
80f
  8
Layer_0
  10
198.24432
  20
391.2749
  0
VERTEX
  5
810
  8
Layer_0
  10
198.26776
  20
391.2702
  0
VERTEX
  5
811
  8
Layer_0
  10
198.27245
  20
391.2468
  0
VERTEX
  5
812
  8
Layer_0
  10
198.23026
  20
391.23273
  0
VERTEX
  5
813
  8
Layer_0
  10
192.73026
  20
391.23273
  0
VERTEX
  5
814
  8
Layer_0
  10
192.68806
  20
391.2468
  0
VERTEX
  5
815
  8
Layer_0
  10
192.69275
  20
391.2702
  0
VERTEX
  5
816
  8
Layer_0
  10
192.71619
  20
391.2749
  0
VERTEX
  5
817
  8
Layer_0
  10
192.73026
  20
391.23273
  0
VERTEX
  5
818
  8
Layer_0
  10
192.73026
  20
388.48273
  0
VERTEX
  5
819
  8
Layer_0
  10
192.70087
  20
388.41174
  0
VERTEX
  5
81a
  8
Layer_0
  10
192.63025
  20
388.38275
  0
VERTEX
  5
81b
  8
Layer_0
  10
187.60526
  20
388.38275
  0
VERTEX
  5
81c
  8
Layer_0
  10
187.53464
  20
388.41174
  0
VERTEX
  5
81d
  8
Layer_0
  10
187.50525
  20
388.48273
  0
VERTEX
  5
81e
  8
Layer_0
  10
187.50525
  20
394.80774
  0
VERTEX
  5
81f
  8
Layer_0
  10
187.51932
  20
394.84991
  0
VERTEX
  5
820
  8
Layer_0
  10
187.54276
  20
394.84521
  0
VERTEX
  5
821
  8
Layer_0
  10
187.54744
  20
394.82181
  0
VERTEX
  5
822
  8
Layer_0
  10
187.50525
  20
394.80774
  0
VERTEX
  5
823
  8
Layer_0
  10
184.75525
  20
394.80774
  0
VERTEX
  5
824
  8
Layer_0
  10
184.68463
  20
394.83673
  0
VERTEX
  5
825
  8
Layer_0
  10
184.65524
  20
394.90771
  0
VERTEX
  5
826
  8
Layer_0
  10
184.65524
  20
397.75775
  0
VERTEX
  5
827
  8
Layer_0
  10
184.68463
  20
397.82837
  0
VERTEX
  5
828
  8
Layer_0
  10
184.75525
  20
397.85773
  0
VERTEX
  5
829
  8
Layer_0
  10
187.50525
  20
397.85773
  0
VERTEX
  5
82a
  8
Layer_0
  10
187.54744
  20
397.84366
  0
VERTEX
  5
82b
  8
Layer_0
  10
187.54276
  20
397.82025
  0
VERTEX
  5
82c
  8
Layer_0
  10
187.51932
  20
397.81555
  0
VERTEX
  5
82d
  8
Layer_0
  10
187.50525
  20
397.85773
  0
VERTEX
  5
82e
  8
Layer_0
  10
187.50525
  20
401.33273
  0
VERTEX
  5
82f
  8
Layer_0
  10
187.53464
  20
401.40338
  0
VERTEX
  5
830
  8
Layer_0
  10
187.60526
  20
401.43274
  0
VERTEX
  5
831
  8
Layer_0
  10
240.81525
  20
401.43274
  0
VERTEX
  5
832
  8
Layer_0
  10
240.88588
  20
401.40338
  0
VERTEX
  5
833
  8
Layer_0
  10
240.91525
  20
401.33276
  0
SEQEND
  0
POLYLINE
  5
835
  8
Layer_0
  62
0
  70
1
  66
1
  10
0
  20
0
  30
0
  0
VERTEX
  5
835
  8
Layer_0
  10
54.034752
  20
372.47076
  0
VERTEX
  5
836
  8
Layer_0
  10
61.13475
  20
372.47076
  0
VERTEX
  5
837
  8
Layer_0
  10
61.176941
  20
372.48483
  0
VERTEX
  5
838
  8
Layer_0
  10
61.172253
  20
372.50824
  0
VERTEX
  5
839
  8
Layer_0
  10
61.148811
  20
372.51294
  0
VERTEX
  5
83a
  8
Layer_0
  10
61.13475
  20
372.47076
  0
VERTEX
  5
83b
  8
Layer_0
  10
61.13475
  20
369.72076
  0
VERTEX
  5
83c
  8
Layer_0
  10
61.164124
  20
369.65012
  0
VERTEX
  5
83d
  8
Layer_0
  10
61.234753
  20
369.62073
  0
VERTEX
  5
83e
  8
Layer_0
  10
66.934753
  20
369.62073
  0
VERTEX
  5
83f
  8
Layer_0
  10
67.005371
  20
369.65012
  0
VERTEX
  5
840
  8
Layer_0
  10
67.034752
  20
369.72076
  0
VERTEX
  5
841
  8
Layer_0
  10
67.034752
  20
372.47076
  0
VERTEX
  5
842
  8
Layer_0
  10
67.020691
  20
372.51294
  0
VERTEX
  5
843
  8
Layer_0
  10
66.997253
  20
372.50824
  0
VERTEX
  5
844
  8
Layer_0
  10
66.992569
  20
372.48483
  0
VERTEX
  5
845
  8
Layer_0
  10
67.034752
  20
372.47076
  0
VERTEX
  5
846
  8
Layer_0
  10
72.534752
  20
372.47076
  0
VERTEX
  5
847
  8
Layer_0
  10
72.576935
  20
372.48483
  0
VERTEX
  5
848
  8
Layer_0
  10
72.57225
  20
372.50824
  0
VERTEX
  5
849
  8
Layer_0
  10
72.548813
  20
372.51294
  0
VERTEX
  5
84a
  8
Layer_0
  10
72.534752
  20
372.47076
  0
VERTEX
  5
84b
  8
Layer_0
  10
72.534752
  20
369.72076
  0
VERTEX
  5
84c
  8
Layer_0
  10
72.564133
  20
369.65012
  0
VERTEX
  5
84d
  8
Layer_0
  10
72.63475
  20
369.62073
  0
VERTEX
  5
84e
  8
Layer_0
  10
78.334747
  20
369.62073
  0
VERTEX
  5
84f
  8
Layer_0
  10
78.40538
  20
369.65012
  0
VERTEX
  5
850
  8
Layer_0
  10
78.434753
  20
369.72076
  0
VERTEX
  5
851
  8
Layer_0
  10
78.434753
  20
372.47076
  0
VERTEX
  5
852
  8
Layer_0
  10
78.420692
  20
372.51294
  0
VERTEX
  5
853
  8
Layer_0
  10
78.397247
  20
372.50824
  0
VERTEX
  5
854
  8
Layer_0
  10
78.392563
  20
372.48483
  0
VERTEX
  5
855
  8
Layer_0
  10
78.434753
  20
372.47076
  0
VERTEX
  5
856
  8
Layer_0
  10
83.934753
  20
372.47076
  0
VERTEX
  5
857
  8
Layer_0
  10
83.976944
  20
372.48483
  0
VERTEX
  5
858
  8
Layer_0
  10
83.97226
  20
372.50824
  0
VERTEX
  5
859
  8
Layer_0
  10
83.948814
  20
372.51294
  0
VERTEX
  5
85a
  8
Layer_0
  10
83.934753
  20
372.47076
  0
VERTEX
  5
85b
  8
Layer_0
  10
83.934753
  20
369.72076
  0
VERTEX
  5
85c
  8
Layer_0
  10
83.964127
  20
369.65012
  0
VERTEX
  5
85d
  8
Layer_0
  10
84.034752
  20
369.62073
  0
VERTEX
  5
85e
  8
Layer_0
  10
89.734756
  20
369.62073
  0
VERTEX
  5
85f
  8
Layer_0
  10
89.805374
  20
369.65012
  0
VERTEX
  5
860
  8
Layer_0
  10
89.834747
  20
369.72076
  0
VERTEX
  5
861
  8
Layer_0
  10
89.834747
  20
372.47076
  0
VERTEX
  5
862
  8
Layer_0
  10
89.820694
  20
372.51294
  0
VERTEX
  5
863
  8
Layer_0
  10
89.797256
  20
372.50824
  0
VERTEX
  5
864
  8
Layer_0
  10
89.792564
  20
372.48483
  0
VERTEX
  5
865
  8
Layer_0
  10
89.834747
  20
372.47076
  0
VERTEX
  5
866
  8
Layer_0
  10
95.334747
  20
372.47076
  0
VERTEX
  5
867
  8
Layer_0
  10
95.376938
  20
372.48483
  0
VERTEX
  5
868
  8
Layer_0
  10
95.372253
  20
372.50824
  0
VERTEX
  5
869
  8
Layer_0
  10
95.348808
  20
372.51294
  0
VERTEX
  5
86a
  8
Layer_0
  10
95.334747
  20
372.47076
  0
VERTEX
  5
86b
  8
Layer_0
  10
95.334747
  20
369.72076
  0
VERTEX
  5
86c
  8
Layer_0
  10
95.364128
  20
369.65012
  0
VERTEX
  5
86d
  8
Layer_0
  10
95.434753
  20
369.62073
  0
VERTEX
  5
86e
  8
Layer_0
  10
101.13475
  20
369.62073
  0
VERTEX
  5
86f
  8
Layer_0
  10
101.20538
  20
369.65012
  0
VERTEX
  5
870
  8
Layer_0
  10
101.23476
  20
369.72076
  0
VERTEX
  5
871
  8
Layer_0
  10
101.23476
  20
372.47076
  0
VERTEX
  5
872
  8
Layer_0
  10
101.2207
  20
372.51294
  0
VERTEX
  5
873
  8
Layer_0
  10
101.19725
  20
372.50824
  0
VERTEX
  5
874
  8
Layer_0
  10
101.19257
  20
372.48483
  0
VERTEX
  5
875
  8
Layer_0
  10
101.23476
  20
372.47076
  0
VERTEX
  5
876
  8
Layer_0
  10
108.33475
  20
372.47076
  0
VERTEX
  5
877
  8
Layer_0
  10
108.40538
  20
372.50012
  0
VERTEX
  5
878
  8
Layer_0
  10
108.43475
  20
372.57074
  0
VERTEX
  5
879
  8
Layer_0
  10
108.43475
  20
376.87073
  0
VERTEX
  5
87a
  8
Layer_0
  10
108.41849
  20
377.86023
  0
VERTEX
  5
87b
  8
Layer_0
  10
108.36983
  20
378.8468
  0
VERTEX
  5
87c
  8
Layer_0
  10
108.28897
  20
379.82965
  0
VERTEX
  5
87d
  8
Layer_0
  10
108.17613
  20
380.80798
  0
VERTEX
  5
87e
  8
Layer_0
  10
108.03151
  20
381.7811
  0
VERTEX
  5
87f
  8
Layer_0
  10
107.85531
  20
382.74817
  0
VERTEX
  5
880
  8
Layer_0
  10
107.64774
  20
383.70847
  0
VERTEX
  5
881
  8
Layer_0
  10
107.409
  20
384.66122
  0
VERTEX
  5
882
  8
Layer_0
  10
107.13931
  20
385.60568
  0
VERTEX
  5
883
  8
Layer_0
  10
106.83885
  20
386.54111
  0
VERTEX
  5
884
  8
Layer_0
  10
106.50785
  20
387.46667
  0
VERTEX
  5
885
  8
Layer_0
  10
106.1465
  20
388.38171
  0
VERTEX
  5
886
  8
Layer_0
  10
105.755
  20
389.2854
  0
VERTEX
  5
887
  8
Layer_0
  10
105.33359
  20
390.17697
  0
VERTEX
  5
888
  8
Layer_0
  10
104.88243
  20
391.05569
  0
VERTEX
  5
889
  8
Layer_0
  10
104.40175
  20
391.92075
  0
VERTEX
  5
88a
  8
Layer_0
  10
103.89307
  20
392.76953
  0
VERTEX
  5
88b
  8
Layer_0
  10
103.3578
  20
393.59961
  0
VERTEX
  5
88c
  8
Layer_0
  10
102.79649
  20
394.4104
  0
VERTEX
  5
88d
  8
Layer_0
  10
102.20968
  20
395.20126
  0
VERTEX
  5
88e
  8
Layer_0
  10
101.59795
  20
395.97174
  0
VERTEX
  5
88f
  8
Layer_0
  10
100.96187
  20
396.72116
  0
VERTEX
  5
890
  8
Layer_0
  10
100.30199
  20
397.44907
  0
VERTEX
  5
891
  8
Layer_0
  10
99.618881
  20
398.15488
  0
VERTEX
  5
892
  8
Layer_0
  10
98.913086
  20
398.83801
  0
VERTEX
  5
893
  8
Layer_0
  10
98.185181
  20
399.49786
  0
VERTEX
  5
894
  8
Layer_0
  10
97.435722
  20
400.13397
  0
VERTEX
  5
895
  8
Layer_0
  10
96.665268
  20
400.74567
  0
VERTEX
  5
896
  8
Layer_0
  10
95.874382
  20
401.33246
  0
VERTEX
  5
897
  8
Layer_0
  10
95.063629
  20
401.8938
  0
VERTEX
  5
898
  8
Layer_0
  10
94.233566
  20
402.42908
  0
VERTEX
  5
899
  8
Layer_0
  10
93.38475
  20
402.93774
  0
VERTEX
  5
89a
  8
Layer_0
  10
92.519684
  20
403.41843
  0
VERTEX
  5
89b
  8
Layer_0
  10
91.640984
  20
403.86957
  0
VERTEX
  5
89c
  8
Layer_0
  10
90.74942
  20
404.29102
  0
VERTEX
  5
89d
  8
Layer_0
  10
89.845749
  20
404.6825
  0
VERTEX
  5
89e
  8
Layer_0
  10
88.930725
  20
405.04388
  0
VERTEX
  5
89f
  8
Layer_0
  10
88.005135
  20
405.37488
  0
VERTEX
  5
8a0
  8
Layer_0
  10
87.069717
  20
405.67532
  0
VERTEX
  5
8a1
  8
Layer_0
  10
86.125244
  20
405.94501
  0
VERTEX
  5
8a2
  8
Layer_0
  10
85.172478
  20
406.18372
  0
VERTEX
  5
8a3
  8
Layer_0
  10
84.212173
  20
406.3913
  0
VERTEX
  5
8a4
  8
Layer_0
  10
83.245087
  20
406.5675
  0
VERTEX
  5
8a5
  8
Layer_0
  10
82.271996
  20
406.71213
  0
VERTEX
  5
8a6
  8
Layer_0
  10
81.293655
  20
406.82498
  0
VERTEX
  5
8a7
  8
Layer_0
  10
80.310822
  20
406.90582
  0
VERTEX
  5
8a8
  8
Layer_0
  10
79.324265
  20
406.9545
  0
VERTEX
  5
8a9
  8
Layer_0
  10
78.334747
  20
406.97076
  0
VERTEX
  5
8aa
  8
Layer_0
  10
54.034752
  20
406.97076
  0
VERTEX
  5
8ab
  8
Layer_0
  10
53.964127
  20
406.94138
  0
VERTEX
  5
8ac
  8
Layer_0
  10
53.934753
  20
406.87073
  0
VERTEX
  5
8ad
  8
Layer_0
  10
53.934753
  20
404.07074
  0
VERTEX
  5
8ae
  8
Layer_0
  10
53.948814
  20
404.02856
  0
VERTEX
  5
8af
  8
Layer_0
  10
53.972252
  20
404.03326
  0
VERTEX
  5
8b0
  8
Layer_0
  10
53.97694
  20
404.05667
  0
VERTEX
  5
8b1
  8
Layer_0
  10
53.934753
  20
404.07074
  0
VERTEX
  5
8b2
  8
Layer_0
  10
51.184753
  20
404.07074
  0
VERTEX
  5
8b3
  8
Layer_0
  10
51.114128
  20
404.04138
  0
VERTEX
  5
8b4
  8
Layer_0
  10
51.084751
  20
403.97076
  0
VERTEX
  5
8b5
  8
Layer_0
  10
51.084751
  20
398.27075
  0
VERTEX
  5
8b6
  8
Layer_0
  10
51.114128
  20
398.20013
  0
VERTEX
  5
8b7
  8
Layer_0
  10
51.184753
  20
398.17075
  0
VERTEX
  5
8b8
  8
Layer_0
  10
53.934753
  20
398.17075
  0
VERTEX
  5
8b9
  8
Layer_0
  10
53.97694
  20
398.18481
  0
VERTEX
  5
8ba
  8
Layer_0
  10
53.972252
  20
398.20825
  0
VERTEX
  5
8bb
  8
Layer_0
  10
53.948814
  20
398.21295
  0
VERTEX
  5
8bc
  8
Layer_0
  10
53.934753
  20
398.17075
  0
VERTEX
  5
8bd
  8
Layer_0
  10
53.934753
  20
392.67075
  0
VERTEX
  5
8be
  8
Layer_0
  10
53.948814
  20
392.62854
  0
VERTEX
  5
8bf
  8
Layer_0
  10
53.972252
  20
392.63324
  0
VERTEX
  5
8c0
  8
Layer_0
  10
53.97694
  20
392.65668
  0
VERTEX
  5
8c1
  8
Layer_0
  10
53.934753
  20
392.67075
  0
VERTEX
  5
8c2
  8
Layer_0
  10
51.184753
  20
392.67075
  0
VERTEX
  5
8c3
  8
Layer_0
  10
51.114128
  20
392.64136
  0
VERTEX
  5
8c4
  8
Layer_0
  10
51.084751
  20
392.57074
  0
VERTEX
  5
8c5
  8
Layer_0
  10
51.084751
  20
386.87073
  0
VERTEX
  5
8c6
  8
Layer_0
  10
51.114128
  20
386.80011
  0
VERTEX
  5
8c7
  8
Layer_0
  10
51.184753
  20
386.77075
  0
VERTEX
  5
8c8
  8
Layer_0
  10
53.934753
  20
386.77075
  0
VERTEX
  5
8c9
  8
Layer_0
  10
53.97694
  20
386.78482
  0
VERTEX
  5
8ca
  8
Layer_0
  10
53.972252
  20
386.80823
  0
VERTEX
  5
8cb
  8
Layer_0
  10
53.948814
  20
386.81293
  0
VERTEX
  5
8cc
  8
Layer_0
  10
53.934753
  20
386.77075
  0
VERTEX
  5
8cd
  8
Layer_0
  10
53.934753
  20
381.27075
  0
VERTEX
  5
8ce
  8
Layer_0
  10
53.948814
  20
381.22858
  0
VERTEX
  5
8cf
  8
Layer_0
  10
53.972252
  20
381.23328
  0
VERTEX
  5
8d0
  8
Layer_0
  10
53.97694
  20
381.25668
  0
VERTEX
  5
8d1
  8
Layer_0
  10
53.934753
  20
381.27075
  0
VERTEX
  5
8d2
  8
Layer_0
  10
51.184753
  20
381.27075
  0
VERTEX
  5
8d3
  8
Layer_0
  10
51.114128
  20
381.24136
  0
VERTEX
  5
8d4
  8
Layer_0
  10
51.084751
  20
381.17075
  0
VERTEX
  5
8d5
  8
Layer_0
  10
51.084751
  20
375.47076
  0
VERTEX
  5
8d6
  8
Layer_0
  10
51.114128
  20
375.40012
  0
VERTEX
  5
8d7
  8
Layer_0
  10
51.184753
  20
375.37073
  0
VERTEX
  5
8d8
  8
Layer_0
  10
53.934753
  20
375.37073
  0
VERTEX
  5
8d9
  8
Layer_0
  10
53.97694
  20
375.38483
  0
VERTEX
  5
8da
  8
Layer_0
  10
53.972252
  20
375.40826
  0
VERTEX
  5
8db
  8
Layer_0
  10
53.948814
  20
375.41293
  0
VERTEX
  5
8dc
  8
Layer_0
  10
53.934753
  20
375.37073
  0
VERTEX
  5
8dd
  8
Layer_0
  10
53.934753
  20
372.57074
  0
VERTEX
  5
8de
  8
Layer_0
  10
53.964127
  20
372.50012
  0
VERTEX
  5
8df
  8
Layer_0
  10
54.034752
  20
372.47076
  0
SEQEND
  0
POLYLINE
  5
8e1
  8
Layer_0
  62
0
  70
1
  66
1
  10
0
  20
0
  30
0
  0
VERTEX
  5
8e1
  8
Layer_0
  10
169.95975
  20
372.47076
  0
VERTEX
  5
8e2
  8
Layer_0
  10
162.85974
  20
372.47076
  0
VERTEX
  5
8e3
  8
Layer_0
  10
162.81757
  20
372.48483
  0
VERTEX
  5
8e4
  8
Layer_0
  10
162.82225
  20
372.50824
  0
VERTEX
  5
8e5
  8
Layer_0
  10
162.84567
  20
372.51294
  0
VERTEX
  5
8e6
  8
Layer_0
  10
162.85974
  20
372.47076
  0
VERTEX
  5
8e7
  8
Layer_0
  10
162.85974
  20
369.72076
  0
VERTEX
  5
8e8
  8
Layer_0
  10
162.83038
  20
369.65012
  0
VERTEX
  5
8e9
  8
Layer_0
  10
162.75975
  20
369.62073
  0
VERTEX
  5
8ea
  8
Layer_0
  10
157.05975
  20
369.62073
  0
VERTEX
  5
8eb
  8
Layer_0
  10
156.98914
  20
369.65012
  0
VERTEX
  5
8ec
  8
Layer_0
  10
156.95975
  20
369.72076
  0
VERTEX
  5
8ed
  8
Layer_0
  10
156.95975
  20
372.47076
  0
VERTEX
  5
8ee
  8
Layer_0
  10
156.97382
  20
372.51294
  0
VERTEX
  5
8ef
  8
Layer_0
  10
156.99725
  20
372.50824
  0
VERTEX
  5
8f0
  8
Layer_0
  10
157.00194
  20
372.48483
  0
VERTEX
  5
8f1
  8
Layer_0
  10
156.95975
  20
372.47076
  0
VERTEX
  5
8f2
  8
Layer_0
  10
151.45975
  20
372.47076
  0
VERTEX
  5
8f3
  8
Layer_0
  10
151.41756
  20
372.48483
  0
VERTEX
  5
8f4
  8
Layer_0
  10
151.42224
  20
372.50824
  0
VERTEX
  5
8f5
  8
Layer_0
  10
151.44568
  20
372.51294
  0
VERTEX
  5
8f6
  8
Layer_0
  10
151.45975
  20
372.47076
  0
VERTEX
  5
8f7
  8
Layer_0
  10
151.45975
  20
369.72076
  0
VERTEX
  5
8f8
  8
Layer_0
  10
151.43037
  20
369.65012
  0
VERTEX
  5
8f9
  8
Layer_0
  10
151.35974
  20
369.62073
  0
VERTEX
  5
8fa
  8
Layer_0
  10
145.65976
  20
369.62073
  0
VERTEX
  5
8fb
  8
Layer_0
  10
145.58913
  20
369.65012
  0
VERTEX
  5
8fc
  8
Layer_0
  10
145.55975
  20
369.72076
  0
VERTEX
  5
8fd
  8
Layer_0
  10
145.55975
  20
372.47076
  0
VERTEX
  5
8fe
  8
Layer_0
  10
145.57382
  20
372.51294
  0
VERTEX
  5
8ff
  8
Layer_0
  10
145.59726
  20
372.50824
  0
VERTEX
  5
900
  8
Layer_0
  10
145.60194
  20
372.48483
  0
VERTEX
  5
901
  8
Layer_0
  10
145.55975
  20
372.47076
  0
VERTEX
  5
902
  8
Layer_0
  10
140.05975
  20
372.47076
  0
VERTEX
  5
903
  8
Layer_0
  10
140.01756
  20
372.48483
  0
VERTEX
  5
904
  8
Layer_0
  10
140.02225
  20
372.50824
  0
VERTEX
  5
905
  8
Layer_0
  10
140.04568
  20
372.51294
  0
VERTEX
  5
906
  8
Layer_0
  10
140.05975
  20
372.47076
  0
VERTEX
  5
907
  8
Layer_0
  10
140.05975
  20
369.72076
  0
VERTEX
  5
908
  8
Layer_0
  10
140.03038
  20
369.65012
  0
VERTEX
  5
909
  8
Layer_0
  10
139.95975
  20
369.62073
  0
VERTEX
  5
90a
  8
Layer_0
  10
134.25975
  20
369.62073
  0
VERTEX
  5
90b
  8
Layer_0
  10
134.18912
  20
369.65012
  0
VERTEX
  5
90c
  8
Layer_0
  10
134.15976
  20
369.72076
  0
VERTEX
  5
90d
  8
Layer_0
  10
134.15976
  20
372.47076
  0
VERTEX
  5
90e
  8
Layer_0
  10
134.17383
  20
372.51294
  0
VERTEX
  5
90f
  8
Layer_0
  10
134.19725
  20
372.50824
  0
VERTEX
  5
910
  8
Layer_0
  10
134.20193
  20
372.48483
  0
VERTEX
  5
911
  8
Layer_0
  10
134.15976
  20
372.47076
  0
VERTEX
  5
912
  8
Layer_0
  10
128.65976
  20
372.47076
  0
VERTEX
  5
913
  8
Layer_0
  10
128.61757
  20
372.48483
  0
VERTEX
  5
914
  8
Layer_0
  10
128.62225
  20
372.50824
  0
VERTEX
  5
915
  8
Layer_0
  10
128.64569
  20
372.51294
  0
VERTEX
  5
916
  8
Layer_0
  10
128.65976
  20
372.47076
  0
VERTEX
  5
917
  8
Layer_0
  10
128.65976
  20
369.72076
  0
VERTEX
  5
918
  8
Layer_0
  10
128.63037
  20
369.65012
  0
VERTEX
  5
919
  8
Layer_0
  10
128.55975
  20
369.62073
  0
VERTEX
  5
91a
  8
Layer_0
  10
122.85975
  20
369.62073
  0
VERTEX
  5
91b
  8
Layer_0
  10
122.78912
  20
369.65012
  0
VERTEX
  5
91c
  8
Layer_0
  10
122.75975
  20
369.72076
  0
VERTEX
  5
91d
  8
Layer_0
  10
122.75975
  20
372.47076
  0
VERTEX
  5
91e
  8
Layer_0
  10
122.77381
  20
372.51294
  0
VERTEX
  5
91f
  8
Layer_0
  10
122.79726
  20
372.50824
  0
VERTEX
  5
920
  8
Layer_0
  10
122.80194
  20
372.48483
  0
VERTEX
  5
921
  8
Layer_0
  10
122.75975
  20
372.47076
  0
VERTEX
  5
922
  8
Layer_0
  10
115.65975
  20
372.47076
  0
VERTEX
  5
923
  8
Layer_0
  10
115.58913
  20
372.50012
  0
VERTEX
  5
924
  8
Layer_0
  10
115.55975
  20
372.57074
  0
VERTEX
  5
925
  8
Layer_0
  10
115.55975
  20
376.87073
  0
VERTEX
  5
926
  8
Layer_0
  10
115.57602
  20
377.86023
  0
VERTEX
  5
927
  8
Layer_0
  10
115.62468
  20
378.8468
  0
VERTEX
  5
928
  8
Layer_0
  10
115.70554
  20
379.82965
  0
VERTEX
  5
929
  8
Layer_0
  10
115.81837
  20
380.80798
  0
VERTEX
  5
92a
  8
Layer_0
  10
115.963
  20
381.7811
  0
VERTEX
  5
92b
  8
Layer_0
  10
116.1392
  20
382.74817
  0
VERTEX
  5
92c
  8
Layer_0
  10
116.34676
  20
383.70847
  0
VERTEX
  5
92d
  8
Layer_0
  10
116.5855
  20
384.66122
  0
VERTEX
  5
92e
  8
Layer_0
  10
116.8552
  20
385.60568
  0
VERTEX
  5
92f
  8
Layer_0
  10
117.15565
  20
386.54111
  0
VERTEX
  5
930
  8
Layer_0
  10
117.48666
  20
387.46667
  0
VERTEX
  5
931
  8
Layer_0
  10
117.848
  20
388.38171
  0
VERTEX
  5
932
  8
Layer_0
  10
118.23949
  20
389.2854
  0
VERTEX
  5
933
  8
Layer_0
  10
118.66092
  20
390.17697
  0
VERTEX
  5
934
  8
Layer_0
  10
119.11208
  20
391.05569
  0
VERTEX
  5
935
  8
Layer_0
  10
119.59275
  20
391.92075
  0
VERTEX
  5
936
  8
Layer_0
  10
120.10143
  20
392.76953
  0
VERTEX
  5
937
  8
Layer_0
  10
120.63671
  20
393.59961
  0
VERTEX
  5
938
  8
Layer_0
  10
121.19802
  20
394.4104
  0
VERTEX
  5
939
  8
Layer_0
  10
121.78483
  20
395.20126
  0
VERTEX
  5
93a
  8
Layer_0
  10
122.39655
  20
395.97174
  0
VERTEX
  5
93b
  8
Layer_0
  10
123.03264
  20
396.72116
  0
VERTEX
  5
93c
  8
Layer_0
  10
123.69252
  20
397.44907
  0
VERTEX
  5
93d
  8
Layer_0
  10
124.37563
  20
398.15488
  0
VERTEX
  5
93e
  8
Layer_0
  10
125.08142
  20
398.83801
  0
VERTEX
  5
93f
  8
Layer_0
  10
125.80933
  20
399.49786
  0
VERTEX
  5
940
  8
Layer_0
  10
126.55878
  20
400.13397
  0
VERTEX
  5
941
  8
Layer_0
  10
127.32923
  20
400.74567
  0
VERTEX
  5
942
  8
Layer_0
  10
128.12012
  20
401.33246
  0
VERTEX
  5
943
  8
Layer_0
  10
128.93088
  20
401.8938
  0
VERTEX
  5
944
  8
Layer_0
  10
129.76093
  20
402.42908
  0
VERTEX
  5
945
  8
Layer_0
  10
130.60974
  20
402.93774
  0
VERTEX
  5
946
  8
Layer_0
  10
131.47481
  20
403.41843
  0
VERTEX
  5
947
  8
Layer_0
  10
132.35352
  20
403.86957
  0
VERTEX
  5
948
  8
Layer_0
  10
133.24509
  20
404.29102
  0
VERTEX
  5
949
  8
Layer_0
  10
134.14876
  20
404.6825
  0
VERTEX
  5
94a
  8
Layer_0
  10
135.06377
  20
405.04388
  0
VERTEX
  5
94b
  8
Layer_0
  10
135.98936
  20
405.37488
  0
VERTEX
  5
94c
  8
Layer_0
  10
136.92477
  20
405.67532
  0
VERTEX
  5
94d
  8
Layer_0
  10
137.86926
  20
405.94501
  0
VERTEX
  5
94e
  8
Layer_0
  10
138.82204
  20
406.18372
  0
VERTEX
  5
94f
  8
Layer_0
  10
139.78235
  20
406.3913
  0
VERTEX
  5
950
  8
Layer_0
  10
140.74942
  20
406.5675
  0
VERTEX
  5
951
  8
Layer_0
  10
141.7225
  20
406.71213
  0
VERTEX
  5
952
  8
Layer_0
  10
142.70085
  20
406.82498
  0
VERTEX
  5
953
  8
Layer_0
  10
143.68369
  20
406.90582
  0
VERTEX
  5
954
  8
Layer_0
  10
144.67024
  20
406.9545
  0
VERTEX
  5
955
  8
Layer_0
  10
145.65976
  20
406.97076
  0
VERTEX
  5
956
  8
Layer_0
  10
169.95975
  20
406.97076
  0
VERTEX
  5
957
  8
Layer_0
  10
170.03036
  20
406.94138
  0
VERTEX
  5
958
  8
Layer_0
  10
170.05975
  20
406.87073
  0
VERTEX
  5
959
  8
Layer_0
  10
170.05975
  20
404.07074
  0
VERTEX
  5
95a
  8
Layer_0
  10
170.04568
  20
404.02856
  0
VERTEX
  5
95b
  8
Layer_0
  10
170.02225
  20
404.03326
  0
VERTEX
  5
95c
  8
Layer_0
  10
170.01756
  20
404.05667
  0
VERTEX
  5
95d
  8
Layer_0
  10
170.05975
  20
404.07074
  0
VERTEX
  5
95e
  8
Layer_0
  10
172.80975
  20
404.07074
  0
VERTEX
  5
95f
  8
Layer_0
  10
172.88037
  20
404.04138
  0
VERTEX
  5
960
  8
Layer_0
  10
172.90976
  20
403.97076
  0
VERTEX
  5
961
  8
Layer_0
  10
172.90976
  20
398.27075
  0
VERTEX
  5
962
  8
Layer_0
  10
172.88037
  20
398.20013
  0
VERTEX
  5
963
  8
Layer_0
  10
172.80975
  20
398.17075
  0
VERTEX
  5
964
  8
Layer_0
  10
170.05975
  20
398.17075
  0
VERTEX
  5
965
  8
Layer_0
  10
170.01756
  20
398.18481
  0
VERTEX
  5
966
  8
Layer_0
  10
170.02225
  20
398.20825
  0
VERTEX
  5
967
  8
Layer_0
  10
170.04568
  20
398.21295
  0
VERTEX
  5
968
  8
Layer_0
  10
170.05975
  20
398.17075
  0
VERTEX
  5
969
  8
Layer_0
  10
170.05975
  20
392.67075
  0
VERTEX
  5
96a
  8
Layer_0
  10
170.04568
  20
392.62854
  0
VERTEX
  5
96b
  8
Layer_0
  10
170.02225
  20
392.63324
  0
VERTEX
  5
96c
  8
Layer_0
  10
170.01756
  20
392.65668
  0
VERTEX
  5
96d
  8
Layer_0
  10
170.05975
  20
392.67075
  0
VERTEX
  5
96e
  8
Layer_0
  10
172.80975
  20
392.67075
  0
VERTEX
  5
96f
  8
Layer_0
  10
172.88037
  20
392.64136
  0
VERTEX
  5
970
  8
Layer_0
  10
172.90976
  20
392.57074
  0
VERTEX
  5
971
  8
Layer_0
  10
172.90976
  20
386.87073
  0
VERTEX
  5
972
  8
Layer_0
  10
172.88037
  20
386.80011
  0
VERTEX
  5
973
  8
Layer_0
  10
172.80975
  20
386.77075
  0
VERTEX
  5
974
  8
Layer_0
  10
170.05975
  20
386.77075
  0
VERTEX
  5
975
  8
Layer_0
  10
170.01756
  20
386.78482
  0
VERTEX
  5
976
  8
Layer_0
  10
170.02225
  20
386.80823
  0
VERTEX
  5
977
  8
Layer_0
  10
170.04568
  20
386.81293
  0
VERTEX
  5
978
  8
Layer_0
  10
170.05975
  20
386.77075
  0
VERTEX
  5
979
  8
Layer_0
  10
170.05975
  20
381.27075
  0
VERTEX
  5
97a
  8
Layer_0
  10
170.04568
  20
381.22858
  0
VERTEX
  5
97b
  8
Layer_0
  10
170.02225
  20
381.23328
  0
VERTEX
  5
97c
  8
Layer_0
  10
170.01756
  20
381.25668
  0
VERTEX
  5
97d
  8
Layer_0
  10
170.05975
  20
381.27075
  0
VERTEX
  5
97e
  8
Layer_0
  10
172.80975
  20
381.27075
  0
VERTEX
  5
97f
  8
Layer_0
  10
172.88037
  20
381.24136
  0
VERTEX
  5
980
  8
Layer_0
  10
172.90976
  20
381.17075
  0
VERTEX
  5
981
  8
Layer_0
  10
172.90976
  20
375.47076
  0
VERTEX
  5
982
  8
Layer_0
  10
172.88037
  20
375.40012
  0
VERTEX
  5
983
  8
Layer_0
  10
172.80975
  20
375.37073
  0
VERTEX
  5
984
  8
Layer_0
  10
170.05975
  20
375.37073
  0
VERTEX
  5
985
  8
Layer_0
  10
170.01756
  20
375.38483
  0
VERTEX
  5
986
  8
Layer_0
  10
170.02225
  20
375.40826
  0
VERTEX
  5
987
  8
Layer_0
  10
170.04568
  20
375.41293
  0
VERTEX
  5
988
  8
Layer_0
  10
170.05975
  20
375.37073
  0
VERTEX
  5
989
  8
Layer_0
  10
170.05975
  20
372.57074
  0
VERTEX
  5
98a
  8
Layer_0
  10
170.03036
  20
372.50012
  0
VERTEX
  5
98b
  8
Layer_0
  10
169.95975
  20
372.47076
  0
SEQEND
  0
POLYLINE
  5
98d
  8
Layer_0
  62
0
  70
1
  66
1
  10
0
  20
0
  30
0
  0
VERTEX
  5
98d
  8
Layer_0
  10
61.697281
  20
331.73627
  0
VERTEX
  5
98e
  8
Layer_0
  10
68.197281
  20
331.73627
  0
VERTEX
  5
98f
  8
Layer_0
  10
68.239471
  20
331.75034
  0
VERTEX
  5
990
  8
Layer_0
  10
68.234787
  20
331.77374
  0
VERTEX
  5
991
  8
Layer_0
  10
68.211342
  20
331.77844
  0
VERTEX
  5
992
  8
Layer_0
  10
68.197281
  20
331.73627
  0
VERTEX
  5
993
  8
Layer_0
  10
68.197281
  20
328.98627
  0
VERTEX
  5
994
  8
Layer_0
  10
68.226654
  20
328.91562
  0
VERTEX
  5
995
  8
Layer_0
  10
68.297287
  20
328.88623
  0
VERTEX
  5
996
  8
Layer_0
  10
73.997284
  20
328.88623
  0
VERTEX
  5
997
  8
Layer_0
  10
74.067902
  20
328.91562
  0
VERTEX
  5
998
  8
Layer_0
  10
74.097275
  20
328.98627
  0
VERTEX
  5
999
  8
Layer_0
  10
74.097275
  20
331.73627
  0
VERTEX
  5
99a
  8
Layer_0
  10
74.083221
  20
331.77844
  0
VERTEX
  5
99b
  8
Layer_0
  10
74.059784
  20
331.77374
  0
VERTEX
  5
99c
  8
Layer_0
  10
74.055092
  20
331.75034
  0
VERTEX
  5
99d
  8
Layer_0
  10
74.097275
  20
331.73627
  0
VERTEX
  5
99e
  8
Layer_0
  10
79.597275
  20
331.73627
  0
VERTEX
  5
99f
  8
Layer_0
  10
79.639465
  20
331.75034
  0
VERTEX
  5
9a0
  8
Layer_0
  10
79.634781
  20
331.77374
  0
VERTEX
  5
9a1
  8
Layer_0
  10
79.611336
  20
331.77844
  0
VERTEX
  5
9a2
  8
Layer_0
  10
79.597275
  20
331.73627
  0
VERTEX
  5
9a3
  8
Layer_0
  10
79.597275
  20
328.98627
  0
VERTEX
  5
9a4
  8
Layer_0
  10
79.626656
  20
328.91562
  0
VERTEX
  5
9a5
  8
Layer_0
  10
79.697281
  20
328.88623
  0
VERTEX
  5
9a6
  8
Layer_0
  10
85.397278
  20
328.88623
  0
VERTEX
  5
9a7
  8
Layer_0
  10
85.467911
  20
328.91562
  0
VERTEX
  5
9a8
  8
Layer_0
  10
85.497284
  20
328.98627
  0
VERTEX
  5
9a9
  8
Layer_0
  10
85.497284
  20
331.73627
  0
VERTEX
  5
9aa
  8
Layer_0
  10
85.483223
  20
331.77844
  0
VERTEX
  5
9ab
  8
Layer_0
  10
85.459778
  20
331.77374
  0
VERTEX
  5
9ac
  8
Layer_0
  10
85.455093
  20
331.75034
  0
VERTEX
  5
9ad
  8
Layer_0
  10
85.497284
  20
331.73627
  0
VERTEX
  5
9ae
  8
Layer_0
  10
90.997284
  20
331.73627
  0
VERTEX
  5
9af
  8
Layer_0
  10
91.039467
  20
331.75034
  0
VERTEX
  5
9b0
  8
Layer_0
  10
91.034775
  20
331.77374
  0
VERTEX
  5
9b1
  8
Layer_0
  10
91.011337
  20
331.77844
  0
VERTEX
  5
9b2
  8
Layer_0
  10
90.997284
  20
331.73627
  0
VERTEX
  5
9b3
  8
Layer_0
  10
90.997284
  20
328.98627
  0
VERTEX
  5
9b4
  8
Layer_0
  10
91.026657
  20
328.91562
  0
VERTEX
  5
9b5
  8
Layer_0
  10
91.097275
  20
328.88623
  0
VERTEX
  5
9b6
  8
Layer_0
  10
96.797287
  20
328.88623
  0
VERTEX
  5
9b7
  8
Layer_0
  10
96.867905
  20
328.91562
  0
VERTEX
  5
9b8
  8
Layer_0
  10
96.897278
  20
328.98627
  0
VERTEX
  5
9b9
  8
Layer_0
  10
96.897278
  20
331.73627
  0
VERTEX
  5
9ba
  8
Layer_0
  10
96.883224
  20
331.77844
  0
VERTEX
  5
9bb
  8
Layer_0
  10
96.859787
  20
331.77374
  0
VERTEX
  5
9bc
  8
Layer_0
  10
96.855095
  20
331.75034
  0
VERTEX
  5
9bd
  8
Layer_0
  10
96.897278
  20
331.73627
  0
VERTEX
  5
9be
  8
Layer_0
  10
102.39728
  20
331.73627
  0
VERTEX
  5
9bf
  8
Layer_0
  10
102.43947
  20
331.75034
  0
VERTEX
  5
9c0
  8
Layer_0
  10
102.43478
  20
331.77374
  0
VERTEX
  5
9c1
  8
Layer_0
  10
102.41134
  20
331.77844
  0
VERTEX
  5
9c2
  8
Layer_0
  10
102.39728
  20
331.73627
  0
VERTEX
  5
9c3
  8
Layer_0
  10
102.39728
  20
328.98627
  0
VERTEX
  5
9c4
  8
Layer_0
  10
102.42665
  20
328.91562
  0
VERTEX
  5
9c5
  8
Layer_0
  10
102.49728
  20
328.88623
  0
VERTEX
  5
9c6
  8
Layer_0
  10
108.19728
  20
328.88623
  0
VERTEX
  5
9c7
  8
Layer_0
  10
108.26791
  20
328.91562
  0
VERTEX
  5
9c8
  8
Layer_0
  10
108.29729
  20
328.98627
  0
VERTEX
  5
9c9
  8
Layer_0
  10
108.29729
  20
331.73627
  0
VERTEX
  5
9ca
  8
Layer_0
  10
108.28323
  20
331.77844
  0
VERTEX
  5
9cb
  8
Layer_0
  10
108.25978
  20
331.77374
  0
VERTEX
  5
9cc
  8
Layer_0
  10
108.2551
  20
331.75034
  0
VERTEX
  5
9cd
  8
Layer_0
  10
108.29729
  20
331.73627
  0
VERTEX
  5
9ce
  8
Layer_0
  10
113.79729
  20
331.73627
  0
VERTEX
  5
9cf
  8
Layer_0
  10
113.83947
  20
331.75034
  0
VERTEX
  5
9d0
  8
Layer_0
  10
113.83478
  20
331.77374
  0
VERTEX
  5
9d1
  8
Layer_0
  10
113.81134
  20
331.77844
  0
VERTEX
  5
9d2
  8
Layer_0
  10
113.79729
  20
331.73627
  0
VERTEX
  5
9d3
  8
Layer_0
  10
113.79729
  20
328.98627
  0
VERTEX
  5
9d4
  8
Layer_0
  10
113.82666
  20
328.91562
  0
VERTEX
  5
9d5
  8
Layer_0
  10
113.89728
  20
328.88623
  0
VERTEX
  5
9d6
  8
Layer_0
  10
119.59727
  20
328.88623
  0
VERTEX
  5
9d7
  8
Layer_0
  10
119.66791
  20
328.91562
  0
VERTEX
  5
9d8
  8
Layer_0
  10
119.69728
  20
328.98627
  0
VERTEX
  5
9d9
  8
Layer_0
  10
119.69728
  20
331.73627
  0
VERTEX
  5
9da
  8
Layer_0
  10
119.68322
  20
331.77844
  0
VERTEX
  5
9db
  8
Layer_0
  10
119.65977
  20
331.77374
  0
VERTEX
  5
9dc
  8
Layer_0
  10
119.65509
  20
331.75034
  0
VERTEX
  5
9dd
  8
Layer_0
  10
119.69728
  20
331.73627
  0
VERTEX
  5
9de
  8
Layer_0
  10
125.19728
  20
331.73627
  0
VERTEX
  5
9df
  8
Layer_0
  10
125.23947
  20
331.75034
  0
VERTEX
  5
9e0
  8
Layer_0
  10
125.23479
  20
331.77374
  0
VERTEX
  5
9e1
  8
Layer_0
  10
125.21134
  20
331.77844
  0
VERTEX
  5
9e2
  8
Layer_0
  10
125.19728
  20
331.73627
  0
VERTEX
  5
9e3
  8
Layer_0
  10
125.19728
  20
328.98627
  0
VERTEX
  5
9e4
  8
Layer_0
  10
125.22665
  20
328.91562
  0
VERTEX
  5
9e5
  8
Layer_0
  10
125.29729
  20
328.88623
  0
VERTEX
  5
9e6
  8
Layer_0
  10
130.99728
  20
328.88623
  0
VERTEX
  5
9e7
  8
Layer_0
  10
131.0679
  20
328.91562
  0
VERTEX
  5
9e8
  8
Layer_0
  10
131.09727
  20
328.98627
  0
VERTEX
  5
9e9
  8
Layer_0
  10
131.09727
  20
331.73627
  0
VERTEX
  5
9ea
  8
Layer_0
  10
131.08322
  20
331.77844
  0
VERTEX
  5
9eb
  8
Layer_0
  10
131.05977
  20
331.77374
  0
VERTEX
  5
9ec
  8
Layer_0
  10
131.05508
  20
331.75034
  0
VERTEX
  5
9ed
  8
Layer_0
  10
131.09727
  20
331.73627
  0
VERTEX
  5
9ee
  8
Layer_0
  10
136.59727
  20
331.73627
  0
VERTEX
  5
9ef
  8
Layer_0
  10
136.63947
  20
331.75034
  0
VERTEX
  5
9f0
  8
Layer_0
  10
136.63478
  20
331.77374
  0
VERTEX
  5
9f1
  8
Layer_0
  10
136.61133
  20
331.77844
  0
VERTEX
  5
9f2
  8
Layer_0
  10
136.59727
  20
331.73627
  0
VERTEX
  5
9f3
  8
Layer_0
  10
136.59727
  20
328.98627
  0
VERTEX
  5
9f4
  8
Layer_0
  10
136.62665
  20
328.91562
  0
VERTEX
  5
9f5
  8
Layer_0
  10
136.69728
  20
328.88623
  0
VERTEX
  5
9f6
  8
Layer_0
  10
142.39728
  20
328.88623
  0
VERTEX
  5
9f7
  8
Layer_0
  10
142.46791
  20
328.91562
  0
VERTEX
  5
9f8
  8
Layer_0
  10
142.49728
  20
328.98627
  0
VERTEX
  5
9f9
  8
Layer_0
  10
142.49728
  20
331.73627
  0
VERTEX
  5
9fa
  8
Layer_0
  10
142.48322
  20
331.77844
  0
VERTEX
  5
9fb
  8
Layer_0
  10
142.45978
  20
331.77374
  0
VERTEX
  5
9fc
  8
Layer_0
  10
142.45509
  20
331.75034
  0
VERTEX
  5
9fd
  8
Layer_0
  10
142.49728
  20
331.73627
  0
VERTEX
  5
9fe
  8
Layer_0
  10
147.99728
  20
331.73627
  0
VERTEX
  5
9ff
  8
Layer_0
  10
148.03946
  20
331.75034
  0
VERTEX
  5
a00
  8
Layer_0
  10
148.03477
  20
331.77374
  0
VERTEX
  5
a01
  8
Layer_0
  10
148.01135
  20
331.77844
  0
VERTEX
  5
a02
  8
Layer_0
  10
147.99728
  20
331.73627
  0
VERTEX
  5
a03
  8
Layer_0
  10
147.99728
  20
328.98627
  0
VERTEX
  5
a04
  8
Layer_0
  10
148.02664
  20
328.91562
  0
VERTEX
  5
a05
  8
Layer_0
  10
148.09727
  20
328.88623
  0
VERTEX
  5
a06
  8
Layer_0
  10
153.79729
  20
328.88623
  0
VERTEX
  5
a07
  8
Layer_0
  10
153.86792
  20
328.91562
  0
VERTEX
  5
a08
  8
Layer_0
  10
153.89728
  20
328.98627
  0
VERTEX
  5
a09
  8
Layer_0
  10
153.89728
  20
331.73627
  0
VERTEX
  5
a0a
  8
Layer_0
  10
153.88321
  20
331.77844
  0
VERTEX
  5
a0b
  8
Layer_0
  10
153.85979
  20
331.77374
  0
VERTEX
  5
a0c
  8
Layer_0
  10
153.8551
  20
331.75034
  0
VERTEX
  5
a0d
  8
Layer_0
  10
153.89728
  20
331.73627
  0
VERTEX
  5
a0e
  8
Layer_0
  10
159.39728
  20
331.73627
  0
VERTEX
  5
a0f
  8
Layer_0
  10
159.43947
  20
331.75034
  0
VERTEX
  5
a10
  8
Layer_0
  10
159.43478
  20
331.77374
  0
VERTEX
  5
a11
  8
Layer_0
  10
159.41135
  20
331.77844
  0
VERTEX
  5
a12
  8
Layer_0
  10
159.39728
  20
331.73627
  0
VERTEX
  5
a13
  8
Layer_0
  10
159.39728
  20
328.98627
  0
VERTEX
  5
a14
  8
Layer_0
  10
159.42665
  20
328.91562
  0
VERTEX
  5
a15
  8
Layer_0
  10
159.49728
  20
328.88623
  0
VERTEX
  5
a16
  8
Layer_0
  10
165.19728
  20
328.88623
  0
VERTEX
  5
a17
  8
Layer_0
  10
165.26791
  20
328.91562
  0
VERTEX
  5
a18
  8
Layer_0
  10
165.29729
  20
328.98627
  0
VERTEX
  5
a19
  8
Layer_0
  10
165.29729
  20
331.73627
  0
VERTEX
  5
a1a
  8
Layer_0
  10
165.28323
  20
331.77844
  0
VERTEX
  5
a1b
  8
Layer_0
  10
165.25978
  20
331.77374
  0
VERTEX
  5
a1c
  8
Layer_0
  10
165.2551
  20
331.75034
  0
VERTEX
  5
a1d
  8
Layer_0
  10
165.29729
  20
331.73627
  0
VERTEX
  5
a1e
  8
Layer_0
  10
170.79729
  20
331.73627
  0
VERTEX
  5
a1f
  8
Layer_0
  10
170.83948
  20
331.75034
  0
VERTEX
  5
a20
  8
Layer_0
  10
170.83479
  20
331.77374
  0
VERTEX
  5
a21
  8
Layer_0
  10
170.81134
  20
331.77844
  0
VERTEX
  5
a22
  8
Layer_0
  10
170.79729
  20
331.73627
  0
VERTEX
  5
a23
  8
Layer_0
  10
170.79729
  20
328.98627
  0
VERTEX
  5
a24
  8
Layer_0
  10
170.82666
  20
328.91562
  0
VERTEX
  5
a25
  8
Layer_0
  10
170.89728
  20
328.88623
  0
VERTEX
  5
a26
  8
Layer_0
  10
176.59727
  20
328.88623
  0
VERTEX
  5
a27
  8
Layer_0
  10
176.66791
  20
328.91562
  0
VERTEX
  5
a28
  8
Layer_0
  10
176.69728
  20
328.98627
  0
VERTEX
  5
a29
  8
Layer_0
  10
176.69728
  20
331.73627
  0
VERTEX
  5
a2a
  8
Layer_0
  10
176.68323
  20
331.77844
  0
VERTEX
  5
a2b
  8
Layer_0
  10
176.65977
  20
331.77374
  0
VERTEX
  5
a2c
  8
Layer_0
  10
176.65509
  20
331.75034
  0
VERTEX
  5
a2d
  8
Layer_0
  10
176.69728
  20
331.73627
  0
VERTEX
  5
a2e
  8
Layer_0
  10
182.19728
  20
331.73627
  0
VERTEX
  5
a2f
  8
Layer_0
  10
182.23947
  20
331.75034
  0
VERTEX
  5
a30
  8
Layer_0
  10
182.23479
  20
331.77374
  0
VERTEX
  5
a31
  8
Layer_0
  10
182.21133
  20
331.77844
  0
VERTEX
  5
a32
  8
Layer_0
  10
182.19728
  20
331.73627
  0
VERTEX
  5
a33
  8
Layer_0
  10
182.19728
  20
328.98627
  0
VERTEX
  5
a34
  8
Layer_0
  10
182.22665
  20
328.91562
  0
VERTEX
  5
a35
  8
Layer_0
  10
182.29729
  20
328.88623
  0
VERTEX
  5
a36
  8
Layer_0
  10
187.99727
  20
328.88623
  0
VERTEX
  5
a37
  8
Layer_0
  10
188.0679
  20
328.91562
  0
VERTEX
  5
a38
  8
Layer_0
  10
188.09727
  20
328.98627
  0
VERTEX
  5
a39
  8
Layer_0
  10
188.09727
  20
331.73627
  0
VERTEX
  5
a3a
  8
Layer_0
  10
188.08322
  20
331.77844
  0
VERTEX
  5
a3b
  8
Layer_0
  10
188.05977
  20
331.77374
  0
VERTEX
  5
a3c
  8
Layer_0
  10
188.05508
  20
331.75034
  0
VERTEX
  5
a3d
  8
Layer_0
  10
188.09727
  20
331.73627
  0
VERTEX
  5
a3e
  8
Layer_0
  10
193.59727
  20
331.73627
  0
VERTEX
  5
a3f
  8
Layer_0
  10
193.63947
  20
331.75034
  0
VERTEX
  5
a40
  8
Layer_0
  10
193.63478
  20
331.77374
  0
VERTEX
  5
a41
  8
Layer_0
  10
193.61133
  20
331.77844
  0
VERTEX
  5
a42
  8
Layer_0
  10
193.59727
  20
331.73627
  0
VERTEX
  5
a43
  8
Layer_0
  10
193.59727
  20
328.98627
  0
VERTEX
  5
a44
  8
Layer_0
  10
193.62665
  20
328.91562
  0
VERTEX
  5
a45
  8
Layer_0
  10
193.69728
  20
328.88623
  0
VERTEX
  5
a46
  8
Layer_0
  10
199.39729
  20
328.88623
  0
VERTEX
  5
a47
  8
Layer_0
  10
199.4679
  20
328.91562
  0
VERTEX
  5
a48
  8
Layer_0
  10
199.49727
  20
328.98627
  0
VERTEX
  5
a49
  8
Layer_0
  10
199.49727
  20
331.73627
  0
VERTEX
  5
a4a
  8
Layer_0
  10
199.48322
  20
331.77844
  0
VERTEX
  5
a4b
  8
Layer_0
  10
199.45978
  20
331.77374
  0
VERTEX
  5
a4c
  8
Layer_0
  10
199.45509
  20
331.75034
  0
VERTEX
  5
a4d
  8
Layer_0
  10
199.49727
  20
331.73627
  0
VERTEX
  5
a4e
  8
Layer_0
  10
208.84727
  20
331.73627
  0
VERTEX
  5
a4f
  8
Layer_0
  10
208.91791
  20
331.76563
  0
VERTEX
  5
a50
  8
Layer_0
  10
208.94728
  20
331.83624
  0
VERTEX
  5
a51
  8
Layer_0
  10
208.94728
  20
334.73627
  0
VERTEX
  5
a52
  8
Layer_0
  10
208.91791
  20
334.80688
  0
VERTEX
  5
a53
  8
Layer_0
  10
208.84727
  20
334.83624
  0
VERTEX
  5
a54
  8
Layer_0
  10
206.09727
  20
334.83624
  0
VERTEX
  5
a55
  8
Layer_0
  10
206.05508
  20
334.82217
  0
VERTEX
  5
a56
  8
Layer_0
  10
206.05977
  20
334.79877
  0
VERTEX
  5
a57
  8
Layer_0
  10
206.08322
  20
334.79407
  0
VERTEX
  5
a58
  8
Layer_0
  10
206.09727
  20
334.83624
  0
VERTEX
  5
a59
  8
Layer_0
  10
206.09727
  20
340.33624
  0
VERTEX
  5
a5a
  8
Layer_0
  10
206.08322
  20
340.37842
  0
VERTEX
  5
a5b
  8
Layer_0
  10
206.05977
  20
340.37372
  0
VERTEX
  5
a5c
  8
Layer_0
  10
206.05508
  20
340.35031
  0
VERTEX
  5
a5d
  8
Layer_0
  10
206.09727
  20
340.33624
  0
VERTEX
  5
a5e
  8
Layer_0
  10
208.84727
  20
340.33624
  0
VERTEX
  5
a5f
  8
Layer_0
  10
208.91791
  20
340.36563
  0
VERTEX
  5
a60
  8
Layer_0
  10
208.94728
  20
340.43625
  0
VERTEX
  5
a61
  8
Layer_0
  10
208.94728
  20
346.13623
  0
VERTEX
  5
a62
  8
Layer_0
  10
208.91791
  20
346.20688
  0
VERTEX
  5
a63
  8
Layer_0
  10
208.84727
  20
346.23627
  0
VERTEX
  5
a64
  8
Layer_0
  10
206.09727
  20
346.23627
  0
VERTEX
  5
a65
  8
Layer_0
  10
206.05508
  20
346.22217
  0
VERTEX
  5
a66
  8
Layer_0
  10
206.05977
  20
346.19873
  0
VERTEX
  5
a67
  8
Layer_0
  10
206.08322
  20
346.19406
  0
VERTEX
  5
a68
  8
Layer_0
  10
206.09727
  20
346.23627
  0
VERTEX
  5
a69
  8
Layer_0
  10
206.09727
  20
351.73627
  0
VERTEX
  5
a6a
  8
Layer_0
  10
206.08322
  20
351.77844
  0
VERTEX
  5
a6b
  8
Layer_0
  10
206.05977
  20
351.77374
  0
VERTEX
  5
a6c
  8
Layer_0
  10
206.05508
  20
351.75034
  0
VERTEX
  5
a6d
  8
Layer_0
  10
206.09727
  20
351.73627
  0
VERTEX
  5
a6e
  8
Layer_0
  10
208.84727
  20
351.73627
  0
VERTEX
  5
a6f
  8
Layer_0
  10
208.91791
  20
351.76563
  0
VERTEX
  5
a70
  8
Layer_0
  10
208.94728
  20
351.83624
  0
VERTEX
  5
a71
  8
Layer_0
  10
208.94728
  20
357.53625
  0
VERTEX
  5
a72
  8
Layer_0
  10
208.91791
  20
357.60687
  0
VERTEX
  5
a73
  8
Layer_0
  10
208.84727
  20
357.63623
  0
VERTEX
  5
a74
  8
Layer_0
  10
206.09727
  20
357.63623
  0
VERTEX
  5
a75
  8
Layer_0
  10
206.05508
  20
357.62216
  0
VERTEX
  5
a76
  8
Layer_0
  10
206.05977
  20
357.59875
  0
VERTEX
  5
a77
  8
Layer_0
  10
206.08322
  20
357.59406
  0
VERTEX
  5
a78
  8
Layer_0
  10
206.09727
  20
357.63623
  0
VERTEX
  5
a79
  8
Layer_0
  10
206.09727
  20
363.13623
  0
VERTEX
  5
a7a
  8
Layer_0
  10
206.08322
  20
363.17844
  0
VERTEX
  5
a7b
  8
Layer_0
  10
206.05977
  20
363.17377
  0
VERTEX
  5
a7c
  8
Layer_0
  10
206.05508
  20
363.15033
  0
VERTEX
  5
a7d
  8
Layer_0
  10
206.09727
  20
363.13623
  0
VERTEX
  5
a7e
  8
Layer_0
  10
208.84727
  20
363.13623
  0
VERTEX
  5
a7f
  8
Layer_0
  10
208.91791
  20
363.16562
  0
VERTEX
  5
a80
  8
Layer_0
  10
208.94728
  20
363.23627
  0
VERTEX
  5
a81
  8
Layer_0
  10
208.94728
  20
366.13623
  0
VERTEX
  5
a82
  8
Layer_0
  10
208.91791
  20
366.20688
  0
VERTEX
  5
a83
  8
Layer_0
  10
208.84727
  20
366.23627
  0
VERTEX
  5
a84
  8
Layer_0
  10
58.847275
  20
366.23627
  0
VERTEX
  5
a85
  8
Layer_0
  10
58.776657
  20
366.20688
  0
VERTEX
  5
a86
  8
Layer_0
  10
58.747284
  20
366.13623
  0
VERTEX
  5
a87
  8
Layer_0
  10
58.747284
  20
363.23627
  0
VERTEX
  5
a88
  8
Layer_0
  10
58.776657
  20
363.16562
  0
VERTEX
  5
a89
  8
Layer_0
  10
58.847275
  20
363.13623
  0
VERTEX
  5
a8a
  8
Layer_0
  10
61.597275
  20
363.13623
  0
VERTEX
  5
a8b
  8
Layer_0
  10
61.639465
  20
363.15033
  0
VERTEX
  5
a8c
  8
Layer_0
  10
61.634777
  20
363.17377
  0
VERTEX
  5
a8d
  8
Layer_0
  10
61.611336
  20
363.17844
  0
VERTEX
  5
a8e
  8
Layer_0
  10
61.597275
  20
363.13623
  0
VERTEX
  5
a8f
  8
Layer_0
  10
61.597275
  20
357.63623
  0
VERTEX
  5
a90
  8
Layer_0
  10
61.611336
  20
357.59406
  0
VERTEX
  5
a91
  8
Layer_0
  10
61.634777
  20
357.59875
  0
VERTEX
  5
a92
  8
Layer_0
  10
61.639465
  20
357.62216
  0
VERTEX
  5
a93
  8
Layer_0
  10
61.597275
  20
357.63623
  0
VERTEX
  5
a94
  8
Layer_0
  10
58.847275
  20
357.63623
  0
VERTEX
  5
a95
  8
Layer_0
  10
58.776657
  20
357.60687
  0
VERTEX
  5
a96
  8
Layer_0
  10
58.747284
  20
357.53625
  0
VERTEX
  5
a97
  8
Layer_0
  10
58.747284
  20
351.83624
  0
VERTEX
  5
a98
  8
Layer_0
  10
58.776657
  20
351.76563
  0
VERTEX
  5
a99
  8
Layer_0
  10
58.847275
  20
351.73627
  0
VERTEX
  5
a9a
  8
Layer_0
  10
61.597275
  20
351.73627
  0
VERTEX
  5
a9b
  8
Layer_0
  10
61.639465
  20
351.75034
  0
VERTEX
  5
a9c
  8
Layer_0
  10
61.634777
  20
351.77374
  0
VERTEX
  5
a9d
  8
Layer_0
  10
61.611336
  20
351.77844
  0
VERTEX
  5
a9e
  8
Layer_0
  10
61.597275
  20
351.73627
  0
VERTEX
  5
a9f
  8
Layer_0
  10
61.597275
  20
346.23627
  0
VERTEX
  5
aa0
  8
Layer_0
  10
61.611336
  20
346.19406
  0
VERTEX
  5
aa1
  8
Layer_0
  10
61.634777
  20
346.19873
  0
VERTEX
  5
aa2
  8
Layer_0
  10
61.639465
  20
346.22217
  0
VERTEX
  5
aa3
  8
Layer_0
  10
61.597275
  20
346.23627
  0
VERTEX
  5
aa4
  8
Layer_0
  10
58.847275
  20
346.23627
  0
VERTEX
  5
aa5
  8
Layer_0
  10
58.776657
  20
346.20688
  0
VERTEX
  5
aa6
  8
Layer_0
  10
58.747284
  20
346.13623
  0
VERTEX
  5
aa7
  8
Layer_0
  10
58.747284
  20
340.43625
  0
VERTEX
  5
aa8
  8
Layer_0
  10
58.776657
  20
340.36563
  0
VERTEX
  5
aa9
  8
Layer_0
  10
58.847275
  20
340.33624
  0
VERTEX
  5
aaa
  8
Layer_0
  10
61.597275
  20
340.33624
  0
VERTEX
  5
aab
  8
Layer_0
  10
61.639465
  20
340.35031
  0
VERTEX
  5
aac
  8
Layer_0
  10
61.634777
  20
340.37372
  0
VERTEX
  5
aad
  8
Layer_0
  10
61.611336
  20
340.37842
  0
VERTEX
  5
aae
  8
Layer_0
  10
61.597275
  20
340.33624
  0
VERTEX
  5
aaf
  8
Layer_0
  10
61.597275
  20
334.83624
  0
VERTEX
  5
ab0
  8
Layer_0
  10
61.611336
  20
334.79407
  0
VERTEX
  5
ab1
  8
Layer_0
  10
61.634777
  20
334.79877
  0
VERTEX
  5
ab2
  8
Layer_0
  10
61.639465
  20
334.82217
  0
VERTEX
  5
ab3
  8
Layer_0
  10
61.597275
  20
334.83624
  0
VERTEX
  5
ab4
  8
Layer_0
  10
58.847275
  20
334.83624
  0
VERTEX
  5
ab5
  8
Layer_0
  10
58.776657
  20
334.80688
  0
VERTEX
  5
ab6
  8
Layer_0
  10
58.747284
  20
334.73627
  0
VERTEX
  5
ab7
  8
Layer_0
  10
58.747284
  20
331.83624
  0
VERTEX
  5
ab8
  8
Layer_0
  10
58.776657
  20
331.76563
  0
VERTEX
  5
ab9
  8
Layer_0
  10
58.847275
  20
331.73627
  0
VERTEX
  5
aba
  8
Layer_0
  10
61.697281
  20
331.73627
  0
SEQEND
  0
ENDSEC
  0
EOF
