999
dxflib 3.17.0.0
  0
SECTION
  2
HEADER
  9
$ACADVER
  1
AC1015
  9
$HANDSEED
  5
FFFF
  9
$INSUNITS
 70
4
  9
$DIMEXE
 40
1.25
  9
$TEXTSTYLE
  7
Standard
  9
$LIMMIN
 10
0.0
 20
0.0
  0
ENDSEC
  0
SECTION
  2
TABLES
  0
TABLE
  2
VPORT
  5
8
100
AcDbSymbolTable
 70
1
  0
VPORT
  5
30
100
AcDbSymbolTableRecord
100
AcDbViewportTableRecord
  2
*Active
 70
0
 10
0.0
 20
0.0
 11
1.0
 21
1.0
 12
286.30555555555549
 22
148.5
 13
0.0
 23
0.0
 14
10.0
 24
10.0
 15
10.0
 25
10.0
 16
0.0
 26
0.0
 36
1.0
 17
0.0
 27
0.0
 37
0.0
 40
297.0
 41
1.92798353909465
 42
50.0
 43
0.0
 44
0.0
 50
0.0
 51
0.0
 71
0
 72
100
 73
1
 74
3
 75
1
 76
1
 77
0
 78
0
281
0
 65
1
110
0.0
120
0.0
130
0.0
111
1.0
121
0.0
131
0.0
112
0.0
122
1.0
132
0.0
 79
0
146
0.0
  0
ENDTAB
  0
TABLE
  2
LTYPE
  5
5
100
AcDbSymbolTable
 70
25
  0
LTYPE
  5
14
100
AcDbSymbolTableRecord
100
AcDbLinetypeTableRecord
  2
BYBLOCK
 70
0
  3

 72
65
 73
0
 40
0.0
  0
LTYPE
  5
15
100
AcDbSymbolTableRecord
100
AcDbLinetypeTableRecord
  2
BYLAYER
 70
0
  3

 72
65
 73
0
 40
0.0
  0
LTYPE
  5
16
100
AcDbSymbolTableRecord
100
AcDbLinetypeTableRecord
  2
CONTINUOUS
 70
0
  3
Solid line
 72
65
 73
0
 40
0.0
  0
LTYPE
  5
31
100
AcDbSymbolTableRecord
100
AcDbLinetypeTableRecord
  2
ACAD_ISO02W100
 70
0
  3

 72
65
 73
0
 40
0.0
  0
LTYPE
  5
32
100
AcDbSymbolTableRecord
100
AcDbLinetypeTableRecord
  2
ACAD_ISO03W100
 70
0
  3

 72
65
 73
0
 40
0.0
  0
LTYPE
  5
33
100
AcDbSymbolTableRecord
100
AcDbLinetypeTableRecord
  2
ACAD_ISO04W100
 70
0
  3

 72
65
 73
0
 40
0.0
  0
LTYPE
  5
34
100
AcDbSymbolTableRecord
100
AcDbLinetypeTableRecord
  2
ACAD_ISO05W100
 70
0
  3

 72
65
 73
0
 40
0.0
  0
LTYPE
  5
35
100
AcDbSymbolTableRecord
100
AcDbLinetypeTableRecord
  2
BORDER
 70
0
  3

 72
65
 73
0
 40
0.0
  0
LTYPE
  5
36
100
AcDbSymbolTableRecord
100
AcDbLinetypeTableRecord
  2
BORDER2
 70
0
  3

 72
65
 73
0
 40
0.0
  0
LTYPE
  5
37
100
AcDbSymbolTableRecord
100
AcDbLinetypeTableRecord
  2
BORDERX2
 70
0
  3

 72
65
 73
0
 40
0.0
  0
LTYPE
  5
38
100
AcDbSymbolTableRecord
100
AcDbLinetypeTableRecord
  2
CENTER
 70
0
  3

 72
65
 73
0
 40
0.0
  0
LTYPE
  5
39
100
AcDbSymbolTableRecord
100
AcDbLinetypeTableRecord
  2
CENTER2
 70
0
  3

 72
65
 73
0
 40
0.0
  0
LTYPE
  5
3A
100
AcDbSymbolTableRecord
100
AcDbLinetypeTableRecord
  2
CENTERX2
 70
0
  3

 72
65
 73
0
 40
0.0
  0
LTYPE
  5
3B
100
AcDbSymbolTableRecord
100
AcDbLinetypeTableRecord
  2
DASHDOT
 70
0
  3

 72
65
 73
0
 40
0.0
  0
LTYPE
  5
3C
100
AcDbSymbolTableRecord
100
AcDbLinetypeTableRecord
  2
DASHDOT2
 70
0
  3

 72
65
 73
0
 40
0.0
  0
LTYPE
  5
3D
100
AcDbSymbolTableRecord
100
AcDbLinetypeTableRecord
  2
DASHDOTX2
 70
0
  3

 72
65
 73
0
 40
0.0
  0
LTYPE
  5
3E
100
AcDbSymbolTableRecord
100
AcDbLinetypeTableRecord
  2
DASHED
 70
0
  3

 72
65
 73
0
 40
0.0
  0
LTYPE
  5
3F
100
AcDbSymbolTableRecord
100
AcDbLinetypeTableRecord
  2
DASHED2
 70
0
  3

 72
65
 73
0
 40
0.0
  0
LTYPE
  5
40
100
AcDbSymbolTableRecord
100
AcDbLinetypeTableRecord
  2
DASHEDX2
 70
0
  3

 72
65
 73
0
 40
0.0
  0
LTYPE
  5
41
100
AcDbSymbolTableRecord
100
AcDbLinetypeTableRecord
  2
DIVIDE
 70
0
  3

 72
65
 73
0
 40
0.0
  0
LTYPE
  5
42
100
AcDbSymbolTableRecord
100
AcDbLinetypeTableRecord
  2
DIVIDE2
 70
0
  3

 72
65
 73
0
 40
0.0
  0
LTYPE
  5
43
100
AcDbSymbolTableRecord
100
AcDbLinetypeTableRecord
  2
DIVIDEX2
 70
0
  3

 72
65
 73
0
 40
0.0
  0
LTYPE
  5
44
100
AcDbSymbolTableRecord
100
AcDbLinetypeTableRecord
  2
DOT
 70
0
  3

 72
65
 73
0
 40
0.0
  0
LTYPE
  5
45
100
AcDbSymbolTableRecord
100
AcDbLinetypeTableRecord
  2
DOT2
 70
0
  3

 72
65
 73
0
 40
0.0
  0
LTYPE
  5
46
100
AcDbSymbolTableRecord
100
AcDbLinetypeTableRecord
  2
DOTX2
 70
0
  3

 72
65
 73
0
 40
0.0
  0
ENDTAB
  0
TABLE
  2
LAYER
  5
2
100
AcDbSymbolTable
 70
1
  0
LAYER
  5
10
100
AcDbSymbolTableRecord
100
AcDbLayerTableRecord
  2
0
 70
0
 62
7
420
16777215
  6
CONTINUOUS
390
F
  0
ENDTAB
  0
TABLE
  2
STYLE
  5
3
100
AcDbSymbolTable
 70
1
  0
STYLE
  5
47
100
AcDbSymbolTableRecord
100
AcDbTextStyleTableRecord
  2
Standard
 70
0
 40
2.5
 41
1.0
 50
0.0
 71
0
 42
2.5
  3

  4

1001
ACAD
1000
txt
1071
0
  0
ENDTAB
  0
TABLE
  2
VIEW
  5
6
100
AcDbSymbolTable
 70
0
  0
ENDTAB
  0
TABLE
  2
UCS
  5
7
100
AcDbSymbolTable
 70
0
  0
ENDTAB
  0
TABLE
  2
APPID
  5
9
100
AcDbSymbolTable
 70
1
  0
APPID
  5
12
100
AcDbSymbolTableRecord
100
AcDbRegAppTableRecord
  2
ACAD
 70
0
 70
0
  0
ENDTAB
  0
TABLE
  2
DIMSTYLE
  5
A
100
AcDbSymbolTable
 70
1
100
AcDbDimStyleTable
 71
0
  0
DIMSTYLE
105
27
100
AcDbSymbolTableRecord
100
AcDbDimStyleTableRecord
  2
Standard
 41
1.0
 42
1.0
 43
3.75
 44
1.0
 70
0
 73
0
 74
0
 77
1
 78
8
140
1.0
141
2.5
143
0.03937007874016
147
1.0
171
3
172
1
271
2
272
2
274
3
278
44
283
0
284
8
340
47
  0
ENDTAB
  0
TABLE
  2
BLOCK_RECORD
  5
1
100
AcDbSymbolTable
 70
1
  0
BLOCK_RECORD
  5
1F
100
AcDbSymbolTableRecord
100
AcDbBlockTableRecord
  2
*Model_Space
340
22
  0
BLOCK_RECORD
  5
1B
100
AcDbSymbolTableRecord
100
AcDbBlockTableRecord
  2
*Paper_Space
340
1E
  0
BLOCK_RECORD
  5
23
100
AcDbSymbolTableRecord
100
AcDbBlockTableRecord
  2
*Paper_Space0
340
26
  0
BLOCK_RECORD
  5
48
100
AcDbSymbolTableRecord
100
AcDbBlockTableRecord
  2
myblock1
340
0
  0
BLOCK_RECORD
  5
49
100
AcDbSymbolTableRecord
100
AcDbBlockTableRecord
  2
myblock2
340
0
  0
ENDTAB
  0
ENDSEC
  0
SECTION
  2
BLOCKS
  0
BLOCK
  5
20
100
AcDbEntity
  8
0
100
AcDbBlockBegin
  2
*Model_Space
 70
0
 10
0.0
 20
0.0
 30
0.0
  3
*Model_Space
  1

  0
ENDBLK
  5
21
100
AcDbEntity
  8
0
100
AcDbBlockEnd
  0
BLOCK
  5
1C
100
AcDbEntity
 67
1
  8
0
100
AcDbBlockBegin
  2
*Paper_Space
 70
0
 10
0.0
 20
0.0
 30
0.0
  3
*Paper_Space
  1

  0
ENDBLK
  5
1D
100
AcDbEntity
 67
1
  8
0
100
AcDbBlockEnd
  0
BLOCK
  5
24
100
AcDbEntity
  8
0
100
AcDbBlockBegin
  2
*Paper_Space0
 70
0
 10
0.0
 20
0.0
 30
0.0
  3
*Paper_Space0
  1

  0
ENDBLK
  5
25
100
AcDbEntity
  8
0
100
AcDbBlockEnd
  0
BLOCK
  5
4A
100
AcDbEntity
  8
0
100
AcDbBlockBegin
  2
myblock1
 70
0
 10
0.0
 20
0.0
 30
0.0
  3
myblock1
  1

  0
ENDBLK
  5
4B
100
AcDbEntity
  8
0
100
AcDbBlockEnd
  0
BLOCK
  5
4C
100
AcDbEntity
  8
0
100
AcDbBlockBegin
  2
myblock2
 70
0
 10
0.0
 20
0.0
 30
0.0
  3
myblock2
  1

  0
ENDBLK
  5
4D
100
AcDbEntity
  8
0
100
AcDbBlockEnd
  0
ENDSEC
  0
SECTION
  2
ENTITIES
  0
LWPOLYLINE
  5
4E
100
AcDbEntity
  8
0
 62
256
420
16777215
370
-1
 48
1.0
  6
CONTINUOUS
100
AcDbPolyline
 90
33
 70
0
 10
370.5970458984375
 20
220.59707641601562
 30
0.0
 10
378.17391967773437
 20
261.15704345703125
 30
0.0
 10
361.43218994140625
 20
264.10906982421875
 30
0.0
 10
370.95632934570312
 20
277.21795654296875
 30
0.0
 10
337.707275390625
 20
300.00003051757812
 30
0.0
 10
371.74514770507812
 20
323.32260131835937
 30
0.0
 10
361.99435424804687
 20
337.2481689453125
 30
0.0
 10
377.99832153320312
 20
339.782958984375
 30
0.0
 10
370.5970458984375
 20
379.4029541015625
 30
0.0
 10
411.15701293945313
 20
371.8260498046875
 30
0.0
 10
414.10903930664062
 20
388.56781005859375
 30
0.0
 10
427.21792602539062
 20
379.04364013671875
 30
0.0
 10
450.0
 20
412.292724609375
 30
0.0
 10
473.32257080078125
 20
378.25482177734375
 30
0.0
 10
487.24813842773437
 20
388.005615234375
 30
0.0
 10
489.78292846679687
 20
372.00164794921875
 30
0.0
 10
529.4029541015625
 20
379.4029541015625
 30
0.0
 10
521.8260498046875
 20
338.84298706054687
 30
0.0
 10
538.56781005859375
 20
335.89096069335937
 30
0.0
 10
529.04364013671875
 20
322.7821044921875
 30
0.0
 10
562.292724609375
 20
300.00003051757812
 30
0.0
 10
528.25482177734375
 20
276.67745971679687
 30
0.0
 10
538.005615234375
 20
262.75186157226562
 30
0.0
 10
522.00164794921875
 20
260.21707153320312
 30
0.0
 10
529.4029541015625
 20
220.59707641601562
 30
0.0
 10
488.84295654296875
 20
228.1739501953125
 30
0.0
 10
485.89093017578125
 20
211.43222045898437
 30
0.0
 10
472.78207397460937
 20
220.95635986328125
 30
0.0
 10
450.0
 20
187.70730590820313
 30
0.0
 10
426.67742919921875
 20
221.74517822265625
 30
0.0
 10
412.7518310546875
 20
211.994384765625
 30
0.0
 10
410.217041015625
 20
227.99835205078125
 30
0.0
 10
370.5970458984375
 20
220.59707641601562
 30
0.0
  0
LWPOLYLINE
  5
4F
100
AcDbEntity
  8
0
 62
256
420
16777215
370
-1
 48
1.0
  6
CONTINUOUS
100
AcDbPolyline
 90
83
 70
0
 10
509.20248413085937
 20
262.64749145507812
 30
0.0
 10
510.1474609375
 20
264.18746948242187
 30
0.0
 10
511.0474853515625
 20
265.74249267578125
 30
0.0
 10
511.90496826171875
 20
267.31246948242187
 30
0.0
 10
512.7149658203125
 20
268.89248657226562
 30
0.0
 10
513.4849853515625
 20
270.48748779296875
 30
0.0
 10
514.2099609375
 20
272.09246826171875
 30
0.0
 10
514.88995361328125
 20
273.70999145507812
 30
0.0
 10
515.5274658203125
 20
275.33746337890625
 30
0.0
 10
516.1224365234375
 20
276.97247314453125
 30
0.0
 10
516.67498779296875
 20
278.61749267578125
 30
0.0
 10
517.18243408203125
 20
280.27249145507812
 30
0.0
 10
517.6474609375
 20
281.92999267578125
 30
0.0
 10
518.07244873046875
 20
283.59747314453125
 30
0.0
 10
518.45245361328125
 20
285.26998901367187
 30
0.0
 10
518.79248046875
 20
286.94497680664062
 30
0.0
 10
519.0899658203125
 20
288.62747192382812
 30
0.0
 10
519.344970703125
 20
290.30996704101562
 30
0.0
 10
519.5599365234375
 20
291.99746704101562
 30
0.0
 10
519.72998046875
 20
293.68496704101562
 30
0.0
 10
519.86248779296875
 20
295.37496948242187
 30
0.0
 10
519.95245361328125
 20
297.06497192382812
 30
0.0
 10
519.99993896484375
 20
298.75247192382812
 30
0.0
 10
520.00994873046875
 20
300.43997192382812
 30
0.0
 10
519.97747802734375
 20
302.12747192382812
 30
0.0
 10
519.9024658203125
 20
303.80996704101562
 30
0.0
 10
519.78997802734375
 20
305.489990234375
 30
0.0
 10
519.637451171875
 20
307.16497802734375
 30
0.0
 10
519.4449462890625
 20
308.83499145507812
 30
0.0
 10
518.93743896484375
 20
312.157470703125
 30
0.0
 10
518.27496337890625
 20
315.44998168945312
 30
0.0
 10
517.45745849609375
 20
318.70748901367187
 30
0.0
 10
516.48248291015625
 20
321.9224853515625
 30
0.0
 10
515.35498046875
 20
325.09246826171875
 30
0.0
 10
514.074951171875
 20
328.20748901367187
 30
0.0
 10
512.64495849609375
 20
331.26248168945312
 30
0.0
 10
511.06497192382813
 20
334.25247192382812
 30
0.0
 10
509.33746337890625
 20
337.16998291015625
 30
0.0
 10
507.46246337890625
 20
340.00997924804687
 30
0.0
 10
505.44247436523437
 20
342.76748657226562
 30
0.0
 10
503.27996826171875
 20
345.43246459960937
 30
0.0
 10
500.9749755859375
 20
348.00247192382812
 30
0.0
 10
498.5274658203125
 20
350.47247314453125
 30
0.0
 10
495.93997192382812
 20
352.83248901367187
 30
0.0
 10
493.2149658203125
 20
355.07748413085937
 30
0.0
 10
490.35247802734375
 20
357.20248413085937
 30
0.0
 10
487.35498046875
 20
359.20248413085937
 30
0.0
 10
485.92996215820312
 20
360.07748413085937
 30
0.0
 10
484.4849853515625
 20
360.91748046875
 30
0.0
 10
483.0224609375
 20
361.72247314453125
 30
0.0
 10
481.54248046875
 20
362.49246215820313
 30
0.0
 10
480.04498291015625
 20
363.2249755859375
 30
0.0
 10
478.52996826171875
 20
363.9224853515625
 30
0.0
 10
476.99996948242187
 20
364.58499145507812
 30
0.0
 10
475.45748901367187
 20
365.20748901367187
 30
0.0
 10
473.8974609375
 20
365.79498291015625
 30
0.0
 10
472.32498168945312
 20
366.34747314453125
 30
0.0
 10
470.73748779296875
 20
366.8599853515625
 30
0.0
 10
469.13998413085937
 20
367.33499145507812
 30
0.0
 10
467.52996826171875
 20
367.77249145507812
 30
0.0
 10
465.907470703125
 20
368.16998291015625
 30
0.0
 10
464.2774658203125
 20
368.52996826171875
 30
0.0
 10
462.63497924804687
 20
368.85247802734375
 30
0.0
 10
462.63497924804687
 20
364.532470703125
 30
0.0
 10
466.63497924804687
 20
364.532470703125
 30
0.0
 10
466.63497924804687
 20
360.532470703125
 30
0.0
 10
462.63497924804687
 20
360.532470703125
 30
0.0
 10
462.63497924804687
 20
350.52996826171875
 30
0.0
 10
472.89996337890625
 20
337.89996337890625
 30
0.0
 10
468.89996337890625
 20
337.89996337890625
 30
0.0
 10
468.89996337890625
 20
307.89996337890625
 30
0.0
 10
481.46746826171875
 20
307.89996337890625
 30
0.0
 10
509.969970703125
 20
284.782470703125
 30
0.0
 10
501.89248657226562
 20
284.782470703125
 30
0.0
 10
501.89248657226562
 20
257.54248046875
 30
0.0
 10
502.67745971679687
 20
258.3499755859375
 30
0.0
 10
503.50247192382812
 20
259.11248779296875
 30
0.0
 10
504.36746215820312
 20
259.82748413085937
 30
0.0
 10
505.26748657226562
 20
260.49249267578125
 30
0.0
 10
506.20498657226562
 20
261.1099853515625
 30
0.0
 10
507.1724853515625
 20
261.67498779296875
 30
0.0
 10
508.1724853515625
 20
262.18746948242187
 30
0.0
 10
509.20248413085937
 20
262.64749145507812
 30
0.0
  0
LWPOLYLINE
  5
50
100
AcDbEntity
  8
0
 62
256
420
16777215
370
-1
 48
1.0
  6
CONTINUOUS
100
AcDbPolyline
 90
212
 70
0
 10
418.25247192382812
 20
362.38748168945312
 30
0.0
 10
419.42498779296875
 20
362.969970703125
 30
0.0
 10
420.60498046875
 20
363.52996826171875
 30
0.0
 10
421.79498291015625
 20
364.06747436523437
 30
0.0
 10
422.99496459960937
 20
364.58248901367187
 30
0.0
 10
424.19998168945312
 20
365.07247924804687
 30
0.0
 10
425.41497802734375
 20
365.54248046875
 30
0.0
 10
426.63748168945312
 20
365.98748779296875
 30
0.0
 10
427.864990234375
 20
366.40997314453125
 30
0.0
 10
429.10247802734375
 20
366.80996704101562
 30
0.0
 10
430.344970703125
 20
367.18496704101562
 30
0.0
 10
431.59246826171875
 20
367.5374755859375
 30
0.0
 10
432.844970703125
 20
367.86746215820312
 30
0.0
 10
434.10498046875
 20
368.1724853515625
 30
0.0
 10
435.36996459960937
 20
368.45498657226562
 30
0.0
 10
436.63998413085937
 20
368.7149658203125
 30
0.0
 10
437.91497802734375
 20
368.94998168945312
 30
0.0
 10
439.19247436523437
 20
369.1624755859375
 30
0.0
 10
440.4749755859375
 20
369.3499755859375
 30
0.0
 10
441.75997924804687
 20
369.51498413085937
 30
0.0
 10
443.0474853515625
 20
369.65496826171875
 30
0.0
 10
444.3399658203125
 20
369.77249145507812
 30
0.0
 10
445.63247680664062
 20
369.864990234375
 30
0.0
 10
446.92996215820312
 20
369.93496704101562
 30
0.0
 10
448.22747802734375
 20
369.97998046875
 30
0.0
 10
449.52496337890625
 20
369.99996948242187
 30
0.0
 10
450.82748413085937
 20
369.99746704101562
 30
0.0
 10
452.12747192382812
 20
369.969970703125
 30
0.0
 10
453.42996215820313
 20
369.91748046875
 30
0.0
 10
454.72998046875
 20
369.84246826171875
 30
0.0
 10
456.032470703125
 20
369.74246215820312
 30
0.0
 10
457.3349609375
 20
369.61746215820313
 30
0.0
 10
458.63497924804687
 20
369.46746826171875
 30
0.0
 10
458.63497924804687
 20
364.532470703125
 30
0.0
 10
454.63497924804687
 20
364.532470703125
 30
0.0
 10
454.63497924804687
 20
360.532470703125
 30
0.0
 10
458.63497924804687
 20
360.532470703125
 30
0.0
 10
458.63497924804687
 20
350.52996826171875
 30
0.0
 10
448.37246704101562
 20
337.89996337890625
 30
0.0
 10
452.37246704101562
 20
337.89996337890625
 30
0.0
 10
452.37246704101562
 20
307.89996337890625
 30
0.0
 10
439.80496215820312
 20
307.89996337890625
 30
0.0
 10
411.69998168945312
 20
285.10498046875
 30
0.0
 10
411.61996459960937
 20
285.28497314453125
 30
0.0
 10
411.42996215820313
 20
285.69998168945312
 30
0.0
 10
410.99746704101562
 20
286.64996337890625
 30
0.0
 10
410.77496337890625
 20
287.14749145507812
 30
0.0
 10
410.58746337890625
 20
287.69497680664062
 30
0.0
 10
410.18997192382812
 20
288.86248779296875
 30
0.0
 10
410.01748657226562
 20
289.36996459960937
 30
0.0
 10
409.94998168945312
 20
289.59747314453125
 30
0.0
 10
409.8599853515625
 20
289.95999145507812
 30
0.0
 10
409.53497314453125
 20
291.27496337890625
 30
0.0
 10
409.35498046875
 20
291.99496459960937
 30
0.0
 10
409.23248291015625
 20
292.59246826171875
 30
0.0
 10
408.97247314453125
 20
294.00747680664062
 30
0.0
 10
408.82247924804687
 20
294.81747436523437
 30
0.0
 10
408.7349853515625
 20
295.28997802734375
 30
0.0
 10
408.6624755859375
 20
295.76248168945312
 30
0.0
 10
408.38748168945312
 20
296.90997314453125
 30
0.0
 10
408.06497192382812
 20
298.0474853515625
 30
0.0
 10
407.69747924804688
 20
299.16748046875
 30
0.0
 10
407.28497314453125
 20
300.27249145507812
 30
0.0
 10
407.2149658203125
 20
299.739990234375
 30
0.0
 10
407.12747192382812
 20
299.20748901367187
 30
0.0
 10
407.0224609375
 20
298.67999267578125
 30
0.0
 10
406.89996337890625
 20
298.15496826171875
 30
0.0
 10
406.46746826171875
 20
296.32247924804687
 30
0.0
 10
406.23748779296875
 20
295.3599853515625
 30
0.0
 10
406.07748413085937
 20
294.78497314453125
 30
0.0
 10
405.44998168945312
 20
292.69747924804687
 30
0.0
 10
405.2249755859375
 20
291.96746826171875
 30
0.0
 10
404.74246215820313
 20
290.66497802734375
 30
0.0
 10
404.22747802734375
 20
289.27496337890625
 30
0.0
 10
404.11746215820312
 20
289.00997924804687
 30
0.0
 10
403.81246948242187
 20
288.33746337890625
 30
0.0
 10
403.29498291015625
 20
287.19247436523437
 30
0.0
 10
403.05996704101562
 20
286.67498779296875
 30
0.0
 10
402.80746459960937
 20
286.17999267578125
 30
0.0
 10
402.17996215820313
 20
285.04998779296875
 30
0.0
 10
401.91497802734375
 20
284.57498168945312
 30
0.0
 10
401.77496337890625
 20
284.31997680664062
 30
0.0
 10
401.6099853515625
 20
284.0474853515625
 30
0.0
 10
400.282470703125
 20
282.14248657226562
 30
0.0
 10
399.802490234375
 20
281.51998901367187
 30
0.0
 10
399.38748168945312
 20
280.93997192382812
 30
0.0
 10
399.36996459960937
 20
280.9024658203125
 30
0.0
 10
399.36996459960937
 20
280.87246704101562
 30
0.0
 10
399.427490234375
 20
280.82998657226563
 30
0.0
 10
399.47747802734375
 20
280.81497192382812
 30
0.0
 10
399.60748291015625
 20
280.79998779296875
 30
0.0
 10
399.74996948242187
 20
280.802490234375
 30
0.0
 10
399.89248657226562
 20
280.81997680664062
 30
0.0
 10
400.18496704101562
 20
280.85247802734375
 30
0.0
 10
400.5999755859375
 20
280.91497802734375
 30
0.0
 10
401.9599609375
 20
281.21746826171875
 30
0.0
 10
402.44497680664062
 20
281.29248046875
 30
0.0
 10
402.62747192382812
 20
281.2974853515625
 30
0.0
 10
402.66998291015625
 20
281.28997802734375
 30
0.0
 10
402.68997192382812
 20
281.27996826171875
 30
0.0
 10
402.71246337890625
 20
281.24996948242187
 30
0.0
 10
402.72747802734375
 20
281.19497680664062
 30
0.0
 10
402.7249755859375
 20
281.06497192382812
 30
0.0
 10
402.70748901367187
 20
280.93746948242187
 30
0.0
 10
402.64498901367187
 20
280.68246459960938
 30
0.0
 10
402.50747680664062
 20
280.24746704101562
 30
0.0
 10
402.19497680664062
 20
279.2874755859375
 30
0.0
 10
401.74746704101562
 20
278.16497802734375
 30
0.0
 10
401.43746948242187
 20
277.38748168945312
 30
0.0
 10
400.97998046875
 20
276.38247680664062
 30
0.0
 10
399.35247802734375
 20
272.88247680664062
 30
0.0
 10
399.13497924804687
 20
272.4649658203125
 30
0.0
 10
398.93746948242187
 20
272.10748291015625
 30
0.0
 10
398.60748291015625
 20
271.51248168945312
 30
0.0
 10
398.38497924804687
 20
271.1099853515625
 30
0.0
 10
398.2099609375
 20
270.83248901367187
 30
0.0
 10
397.94247436523437
 20
270.44247436523437
 30
0.0
 10
397.92996215820312
 20
270.42498779296875
 30
0.0
 10
397.24746704101562
 20
269.53997802734375
 30
0.0
 10
397.79998779296875
 20
269.34246826171875
 30
0.0
 10
397.99246215820312
 20
269.29248046875
 30
0.0
 10
398.15997314453125
 20
269.25247192382812
 30
0.0
 10
398.32998657226562
 20
269.22998046875
 30
0.0
 10
399.07998657226562
 20
269.16998291015625
 30
0.0
 10
399.30746459960937
 20
269.1524658203125
 30
0.0
 10
399.53497314453125
 20
269.15997314453125
 30
0.0
 10
399.94497680664062
 20
269.177490234375
 30
0.0
 10
400.5374755859375
 20
269.20748901367187
 30
0.0
 10
400.9849853515625
 20
269.302490234375
 30
0.0
 10
401.42498779296875
 20
269.39999389648437
 30
0.0
 10
401.532470703125
 20
269.39749145507812
 30
0.0
 10
401.57748413085937
 20
269.36996459960937
 30
0.0
 10
401.5999755859375
 20
269.32247924804687
 30
0.0
 10
401.59747314453125
 20
269.17999267578125
 30
0.0
 10
401.56747436523437
 20
269.06246948242187
 30
0.0
 10
401.46246337890625
 20
268.71746826171875
 30
0.0
 10
401.052490234375
 20
267.64248657226562
 30
0.0
 10
400.75997924804687
 20
266.9024658203125
 30
0.0
 10
400.40997314453125
 20
266.1524658203125
 30
0.0
 10
400.114990234375
 20
265.51998901367187
 30
0.0
 10
399.95748901367187
 20
265.18496704101562
 30
0.0
 10
399.78997802734375
 20
264.85748291015625
 30
0.0
 10
399.04248046875
 20
263.61749267578125
 30
0.0
 10
398.86996459960937
 20
263.32998657226563
 30
0.0
 10
398.76748657226562
 20
263.16497802734375
 30
0.0
 10
398.6474609375
 20
263.01248168945312
 30
0.0
 10
398.22247314453125
 20
262.4749755859375
 30
0.0
 10
397.77996826171875
 20
261.91748046875
 30
0.0
 10
397.50497436523437
 20
261.5899658203125
 30
0.0
 10
396.95748901367187
 20
260.97747802734375
 30
0.0
 10
396.78497314453125
 20
260.76498413085937
 30
0.0
 10
396.75747680664062
 20
260.70999145507812
 30
0.0
 10
396.74246215820312
 20
260.66497802734375
 30
0.0
 10
396.74496459960937
 20
260.657470703125
 30
0.0
 10
396.76748657226562
 20
260.64248657226562
 30
0.0
 10
396.81997680664062
 20
260.61749267578125
 30
0.0
 10
397.239990234375
 20
260.39498901367187
 30
0.0
 10
397.67498779296875
 20
260.21746826171875
 30
0.0
 10
398.12496948242187
 20
260.08248901367187
 30
0.0
 10
398.58746337890625
 20
259.99496459960938
 30
0.0
 10
399.052490234375
 20
259.95248413085937
 30
0.0
 10
399.5224609375
 20
259.95748901367187
 30
0.0
 10
399.99246215820312
 20
260.00997924804687
 30
0.0
 10
400.45748901367187
 20
260.1099853515625
 30
0.0
 10
400.53497314453125
 20
259.63247680664062
 30
0.0
 10
400.56997680664062
 20
259.157470703125
 30
0.0
 10
400.56497192382812
 20
258.68496704101562
 30
0.0
 10
400.51998901367187
 20
258.219970703125
 30
0.0
 10
400.43496704101562
 20
257.76248168945312
 30
0.0
 10
400.31497192382812
 20
257.31747436523437
 30
0.0
 10
400.157470703125
 20
256.88247680664062
 30
0.0
 10
399.9649658203125
 20
256.4649658203125
 30
0.0
 10
399.73748779296875
 20
256.06497192382813
 30
0.0
 10
399.47747802734375
 20
255.68247985839844
 30
0.0
 10
399.18746948242187
 20
255.32247924804688
 30
0.0
 10
398.864990234375
 20
254.98748779296875
 30
0.0
 10
398.51498413085937
 20
254.67999267578125
 30
0.0
 10
398.13497924804687
 20
254.39749145507812
 30
0.0
 10
397.72998046875
 20
254.14999389648438
 30
0.0
 10
397.2974853515625
 20
253.93247985839844
 30
0.0
 10
395.05996704101562
 20
256.62246704101562
 30
0.0
 10
392.97747802734375
 20
259.39248657226562
 30
0.0
 10
391.052490234375
 20
262.2349853515625
 30
0.0
 10
389.282470703125
 20
265.14749145507812
 30
0.0
 10
387.66748046875
 20
268.11749267578125
 30
0.0
 10
386.20748901367187
 20
271.14749145507812
 30
0.0
 10
384.9024658203125
 20
274.2249755859375
 30
0.0
 10
383.75247192382812
 20
277.34747314453125
 30
0.0
 10
382.75497436523437
 20
280.50997924804687
 30
0.0
 10
381.9124755859375
 20
283.70498657226562
 30
0.0
 10
381.22247314453125
 20
286.927490234375
 30
0.0
 10
380.68746948242187
 20
290.16998291015625
 30
0.0
 10
380.30496215820312
 20
293.42999267578125
 30
0.0
 10
380.07748413085937
 20
296.69998168945312
 30
0.0
 10
379.99996948242187
 20
299.9749755859375
 30
0.0
 10
380.07498168945312
 20
303.24746704101562
 30
0.0
 10
380.30496215820312
 20
306.51248168945312
 30
0.0
 10
380.68246459960937
 20
309.76748657226563
 30
0.0
 10
381.2149658203125
 20
312.99996948242187
 30
0.0
 10
381.89749145507812
 20
316.21246337890625
 30
0.0
 10
382.72998046875
 20
319.39248657226562
 30
0.0
 10
383.7149658203125
 20
322.53497314453125
 30
0.0
 10
384.8499755859375
 20
325.63998413085937
 30
0.0
 10
386.13497924804687
 20
328.69497680664062
 30
0.0
 10
387.56997680664062
 20
331.69747924804687
 30
0.0
 10
389.15496826171875
 20
334.64248657226562
 30
0.0
 10
390.88998413085937
 20
337.52249145507812
 30
0.0
 10
392.7724609375
 20
340.33248901367187
 30
0.0
 10
394.80496215820312
 20
343.06497192382812
 30
0.0
 10
396.9849853515625
 20
345.71746826171875
 30
0.0
 10
399.31497192382812
 20
348.282470703125
 30
0.0
 10
401.79248046875
 20
350.75497436523437
 30
0.0
  0
LWPOLYLINE
  5
51
100
AcDbEntity
  8
0
 62
256
420
16777215
370
-1
 48
1.0
  6
CONTINUOUS
100
AcDbPolyline
 90
32
 70
0
 10
414.90496826171875
 20
247.43498229980469
 30
0.0
 10
415.0274658203125
 20
246.93498229980469
 30
0.0
 10
415.18746948242187
 20
246.47499084472656
 30
0.0
 10
415.26498413085937
 20
246.27499389648437
 30
0.0
 10
415.3599853515625
 20
246.08248901367187
 30
0.0
 10
415.5999755859375
 20
245.59999084472656
 30
0.0
 10
415.8499755859375
 20
245.10498046875
 30
0.0
 10
416.10247802734375
 20
244.71748352050781
 30
0.0
 10
416.39498901367187
 20
244.27748107910156
 30
0.0
 10
416.552490234375
 20
244.03999328613281
 30
0.0
 10
416.74996948242187
 20
243.77998352050781
 30
0.0
 10
417.18746948242187
 20
243.26498413085937
 30
0.0
 10
417.38247680664062
 20
243.03248596191406
 30
0.0
 10
417.62997436523437
 20
242.77499389648437
 30
0.0
 10
418.114990234375
 20
242.33749389648437
 30
0.0
 10
418.32498168945312
 20
242.14749145507812
 30
0.0
 10
418.48248291015625
 20
242.01998901367187
 30
0.0
 10
418.89996337890625
 20
241.74748229980469
 30
0.0
 10
419.23748779296875
 20
241.58499145507812
 30
0.0
 10
419.37997436523437
 20
241.52998352050781
 30
0.0
 10
419.37997436523437
 20
284.782470703125
 30
0.0
 10
411.87997436523437
 20
284.782470703125
 30
0.0
 10
411.87496948242187
 20
284.78997802734375
 30
0.0
 10
412.4649658203125
 20
283.77496337890625
 30
0.0
 10
412.90997314453125
 20
283.01498413085937
 30
0.0
 10
413.11248779296875
 20
282.69998168945312
 30
0.0
 10
413.27496337890625
 20
282.45999145507812
 30
0.0
 10
413.74246215820312
 20
281.71246337890625
 30
0.0
 10
414.15997314453125
 20
281.02496337890625
 30
0.0
 10
414.20748901367187
 20
280.92498779296875
 30
0.0
 10
414.22998046875
 20
280.8599853515625
 30
0.0
 10
414.22998046875
 20
280.84747314453125
 30
0.0
  0
LWPOLYLINE
  5
52
100
AcDbEntity
  8
0
 62
256
420
16777215
370
-1
 48
1.0
  6
CONTINUOUS
100
AcDbPolyline
 90
52
 70
0
 10
464.75497436523437
 20
267.95999145507812
 30
0.0
 10
464.34246826171875
 20
268.12997436523437
 30
0.0
 10
463.92498779296875
 20
268.27499389648437
 30
0.0
 10
463.49996948242187
 20
268.39999389648438
 30
0.0
 10
463.07247924804688
 20
268.50247192382812
 30
0.0
 10
462.63998413085937
 20
268.57998657226562
 30
0.0
 10
462.20748901367187
 20
268.63748168945312
 30
0.0
 10
461.76998901367187
 20
268.66998291015625
 30
0.0
 10
461.33248901367187
 20
268.68246459960937
 30
0.0
 10
460.8974609375
 20
268.66998291015625
 30
0.0
 10
460.4599609375
 20
268.63748168945312
 30
0.0
 10
460.0274658203125
 20
268.57998657226562
 30
0.0
 10
459.594970703125
 20
268.50247192382812
 30
0.0
 10
459.16748046875
 20
268.39999389648438
 30
0.0
 10
458.74246215820313
 20
268.27499389648437
 30
0.0
 10
458.32498168945312
 20
268.12997436523437
 30
0.0
 10
457.9124755859375
 20
267.95999145507812
 30
0.0
 10
457.51498413085937
 20
267.76748657226562
 30
0.0
 10
457.13497924804687
 20
267.54498291015625
 30
0.0
 10
456.77496337890625
 20
267.29998779296875
 30
0.0
 10
456.43496704101562
 20
267.032470703125
 30
0.0
 10
456.11996459960937
 20
266.739990234375
 30
0.0
 10
455.82498168945312
 20
266.427490234375
 30
0.0
 10
455.55496215820313
 20
266.09747314453125
 30
0.0
 10
455.30746459960937
 20
265.74746704101562
 30
0.0
 10
455.08746337890625
 20
265.37997436523437
 30
0.0
 10
454.89248657226562
 20
264.99996948242187
 30
0.0
 10
454.72747802734375
 20
264.60247802734375
 30
0.0
 10
454.58746337890625
 20
264.19497680664062
 30
0.0
 10
454.47998046875
 20
263.7774658203125
 30
0.0
 10
454.39996337890625
 20
263.3499755859375
 30
0.0
 10
454.35247802734375
 20
262.9124755859375
 30
0.0
 10
454.3349609375
 20
262.469970703125
 30
0.0
 10
454.3349609375
 20
256.9849853515625
 30
0.0
 10
468.3349609375
 20
256.9849853515625
 30
0.0
 10
468.3349609375
 20
262.469970703125
 30
0.0
 10
468.31747436523437
 20
262.9124755859375
 30
0.0
 10
468.26998901367187
 20
263.3499755859375
 30
0.0
 10
468.18997192382812
 20
263.7774658203125
 30
0.0
 10
468.08248901367187
 20
264.19497680664062
 30
0.0
 10
467.94247436523437
 20
264.60247802734375
 30
0.0
 10
467.77496337890625
 20
264.99746704101562
 30
0.0
 10
467.58248901367187
 20
265.37997436523437
 30
0.0
 10
467.3599853515625
 20
265.74746704101562
 30
0.0
 10
467.11495971679687
 20
266.09747314453125
 30
0.0
 10
466.84246826171875
 20
266.427490234375
 30
0.0
 10
466.54998779296875
 20
266.739990234375
 30
0.0
 10
466.23248291015625
 20
267.032470703125
 30
0.0
 10
465.89248657226562
 20
267.29998779296875
 30
0.0
 10
465.532470703125
 20
267.54498291015625
 30
0.0
 10
465.1524658203125
 20
267.76748657226562
 30
0.0
 10
464.75497436523437
 20
267.95999145507812
 30
0.0
  0
LWPOLYLINE
  5
53
100
AcDbEntity
  8
0
 62
256
420
16777215
370
-1
 48
1.0
  6
CONTINUOUS
100
AcDbPolyline
 90
5
 70
0
 10
435.83444213867187
 20
259.94607543945312
 30
0.0
 10
442.33444213867187
 20
259.94607543945312
 30
0.0
 10
442.33444213867187
 20
266.44607543945313
 30
0.0
 10
435.83444213867187
 20
266.44607543945313
 30
0.0
 10
435.83444213867187
 20
259.94607543945312
 30
0.0
  0
LWPOLYLINE
  5
54
100
AcDbEntity
  8
0
 62
256
420
16777215
370
-1
 48
1.0
  6
CONTINUOUS
100
AcDbPolyline
 90
5
 70
0
 10
434.0499267578125
 20
259.94607543945312
 30
0.0
 10
427.5499267578125
 20
259.94607543945312
 30
0.0
 10
427.5499267578125
 20
266.44607543945313
 30
0.0
 10
434.0499267578125
 20
266.44607543945313
 30
0.0
 10
434.0499267578125
 20
259.94607543945312
 30
0.0
  0
LWPOLYLINE
  5
55
100
AcDbEntity
  8
0
 62
256
420
16777215
370
-1
 48
1.0
  6
CONTINUOUS
100
AcDbPolyline
 90
22
 70
0
 10
438.43496704101562
 20
277.15496826171875
 30
0.0
 10
435.8349609375
 20
277.15496826171875
 30
0.0
 10
435.8349609375
 20
268.05499267578125
 30
0.0
 10
442.3349609375
 20
268.05499267578125
 30
0.0
 10
442.3349609375
 20
273.25497436523437
 30
0.0
 10
442.31497192382812
 20
273.6524658203125
 30
0.0
 10
442.25497436523437
 20
274.03997802734375
 30
0.0
 10
442.15997314453125
 20
274.41497802734375
 30
0.0
 10
442.0274658203125
 20
274.77249145507812
 30
0.0
 10
441.86495971679687
 20
275.11248779296875
 30
0.0
 10
441.66998291015625
 20
275.43496704101562
 30
0.0
 10
441.44497680664062
 20
275.7349853515625
 30
0.0
 10
441.19247436523437
 20
276.01248168945312
 30
0.0
 10
440.91497802734375
 20
276.26498413085937
 30
0.0
 10
440.61495971679687
 20
276.48748779296875
 30
0.0
 10
440.29498291015625
 20
276.68496704101562
 30
0.0
 10
439.95248413085937
 20
276.84747314453125
 30
0.0
 10
439.594970703125
 20
276.97998046875
 30
0.0
 10
439.22247314453125
 20
277.07498168945312
 30
0.0
 10
438.8349609375
 20
277.13497924804687
 30
0.0
 10
438.43496704101562
 20
277.15496826171875
 30
0.0
 10
438.43496704101562
 20
277.15496826171875
 30
0.0
  0
LWPOLYLINE
  5
56
100
AcDbEntity
  8
0
 62
256
420
16777215
370
-1
 48
1.0
  6
CONTINUOUS
100
AcDbPolyline
 90
21
 70
0
 10
431.44998168945312
 20
277.15496826171875
 30
0.0
 10
434.04998779296875
 20
277.15496826171875
 30
0.0
 10
434.04998779296875
 20
268.05499267578125
 30
0.0
 10
427.54998779296875
 20
268.05499267578125
 30
0.0
 10
427.54998779296875
 20
273.25497436523437
 30
0.0
 10
427.56997680664062
 20
273.6524658203125
 30
0.0
 10
427.62997436523437
 20
274.03997802734375
 30
0.0
 10
427.7249755859375
 20
274.41497802734375
 30
0.0
 10
427.85748291015625
 20
274.77249145507812
 30
0.0
 10
428.01998901367187
 20
275.11248779296875
 30
0.0
 10
428.21746826171875
 20
275.43496704101562
 30
0.0
 10
428.43997192382812
 20
275.7349853515625
 30
0.0
 10
428.69247436523437
 20
276.01248168945312
 30
0.0
 10
428.969970703125
 20
276.26498413085937
 30
0.0
 10
429.26998901367187
 20
276.48748779296875
 30
0.0
 10
429.59246826171875
 20
276.68496704101562
 30
0.0
 10
429.93246459960937
 20
276.84747314453125
 30
0.0
 10
430.28997802734375
 20
276.97998046875
 30
0.0
 10
430.66497802734375
 20
277.07498168945312
 30
0.0
 10
431.052490234375
 20
277.13497924804687
 30
0.0
 10
431.44998168945312
 20
277.15496826171875
 30
0.0
  0
LWPOLYLINE
  5
57
100
AcDbEntity
  8
0
 62
256
420
16777215
370
-1
 48
1.0
  6
CONTINUOUS
100
AcDbPolyline
 90
5
 70
0
 10
461.63491821289062
 20
297.13037109375
 30
0.0
 10
468.63491821289062
 20
297.13037109375
 30
0.0
 10
468.63491821289062
 20
304.13037109375
 30
0.0
 10
461.63491821289062
 20
304.13037109375
 30
0.0
 10
461.63491821289062
 20
297.13037109375
 30
0.0
  0
LWPOLYLINE
  5
58
100
AcDbEntity
  8
0
 62
256
420
16777215
370
-1
 48
1.0
  6
CONTINUOUS
100
AcDbPolyline
 90
5
 70
0
 10
468.63491821289062
 20
288.46356201171875
 30
0.0
 10
468.63491821289062
 20
295.46356201171875
 30
0.0
 10
461.63491821289062
 20
295.46356201171875
 30
0.0
 10
461.63491821289062
 20
288.46356201171875
 30
0.0
 10
468.63491821289062
 20
288.46356201171875
 30
0.0
  0
LWPOLYLINE
  5
59
100
AcDbEntity
  8
0
 62
256
420
16777215
370
-1
 48
1.0
  6
CONTINUOUS
100
AcDbPolyline
 90
5
 70
0
 10
459.63491821289062
 20
304.13037109375
 30
0.0
 10
459.63491821289062
 20
297.13037109375
 30
0.0
 10
452.63491821289062
 20
297.13037109375
 30
0.0
 10
452.63491821289062
 20
304.13037109375
 30
0.0
 10
459.63491821289062
 20
304.13037109375
 30
0.0
  0
LWPOLYLINE
  5
5A
100
AcDbEntity
  8
0
 62
256
420
16777215
370
-1
 48
1.0
  6
CONTINUOUS
100
AcDbPolyline
 90
5
 70
0
 10
452.63491821289062
 20
288.46356201171875
 30
0.0
 10
452.63491821289062
 20
295.46356201171875
 30
0.0
 10
459.63491821289062
 20
295.46356201171875
 30
0.0
 10
459.63491821289062
 20
288.46356201171875
 30
0.0
 10
452.63491821289062
 20
288.46356201171875
 30
0.0
  0
LWPOLYLINE
  5
5B
100
AcDbEntity
  8
0
 62
256
420
16777215
370
-1
 48
1.0
  6
CONTINUOUS
100
AcDbPolyline
 90
4
 70
0
 10
495.99069213867187
 20
288.46356201171875
 30
0.0
 10
476.6749267578125
 20
304.13037109375
 30
0.0
 10
476.6749267578125
 20
288.46356201171875
 30
0.0
 10
495.99069213867187
 20
288.46356201171875
 30
0.0
  0
LWPOLYLINE
  5
5C
100
AcDbEntity
  8
0
 62
256
420
16777215
370
-1
 48
1.0
  6
CONTINUOUS
100
AcDbPolyline
 90
4
 70
0
 10
425.27914428710937
 20
288.46356201171875
 30
0.0
 10
444.59487915039062
 20
304.13037109375
 30
0.0
 10
444.59487915039062
 20
288.46356201171875
 30
0.0
 10
425.27914428710937
 20
288.46356201171875
 30
0.0
  0
LWPOLYLINE
  5
5D
100
AcDbEntity
  8
0
 62
256
420
16777215
370
-1
 48
1.0
  6
CONTINUOUS
100
AcDbPolyline
 90
2
 70
0
 10
465.89950561523437
 20
307.89840698242187
 30
0.0
 10
455.37030029296875
 20
307.89840698242187
 30
0.0
  0
LWPOLYLINE
  5
5E
100
AcDbEntity
  8
0
 62
256
420
16777215
370
-1
 48
1.0
  6
CONTINUOUS
100
AcDbPolyline
 90
2
 70
0
 10
455.37030029296875
 20
336.9122314453125
 30
0.0
 10
465.89950561523437
 20
336.9122314453125
 30
0.0
  0
LWPOLYLINE
  5
5F
100
AcDbEntity
  8
0
 62
256
420
16777215
370
-1
 48
1.0
  6
CONTINUOUS
100
AcDbPolyline
 90
6
 70
0
 10
454.74789428710937
 20
339.71017456054687
 30
0.0
 10
466.52191162109375
 20
339.71017456054687
 30
0.0
 10
461.59490966796875
 20
345.7724609375
 30
0.0
 10
460.63491821289062
 20
346.95367431640625
 30
0.0
 10
459.67489624023437
 20
345.7724609375
 30
0.0
 10
454.74789428710937
 20
339.71017456054687
 30
0.0
  0
LWPOLYLINE
  5
60
100
AcDbEntity
  8
0
 62
256
420
16777215
370
-1
 48
1.0
  6
CONTINUOUS
100
AcDbPolyline
 90
37
 70
0
 10
455.63497924804687
 20
328.77249145507812
 30
0.0
 10
455.63497924804687
 20
311.59246826171875
 30
0.0
 10
465.63497924804687
 20
311.59246826171875
 30
0.0
 10
465.63497924804687
 20
328.77249145507812
 30
0.0
 10
465.6099853515625
 20
329.28497314453125
 30
0.0
 10
465.532470703125
 20
329.77996826171875
 30
0.0
 10
465.40997314453125
 20
330.25997924804688
 30
0.0
 10
465.24246215820312
 20
330.719970703125
 30
0.0
 10
465.032470703125
 20
331.157470703125
 30
0.0
 10
464.782470703125
 20
331.56747436523437
 30
0.0
 10
464.49246215820313
 20
331.95248413085937
 30
0.0
 10
464.16998291015625
 20
332.30746459960937
 30
0.0
 10
463.81497192382812
 20
332.62997436523437
 30
0.0
 10
463.42996215820312
 20
332.91998291015625
 30
0.0
 10
463.01998901367187
 20
333.16998291015625
 30
0.0
 10
462.58248901367187
 20
333.37997436523437
 30
0.0
 10
462.12246704101562
 20
333.5474853515625
 30
0.0
 10
461.64248657226562
 20
333.66998291015625
 30
0.0
 10
461.1474609375
 20
333.74746704101562
 30
0.0
 10
460.63497924804687
 20
333.77249145507812
 30
0.0
 10
460.12496948242187
 20
333.74746704101562
 30
0.0
 10
459.62747192382812
 20
333.66998291015625
 30
0.0
 10
459.1474609375
 20
333.5474853515625
 30
0.0
 10
458.68997192382812
 20
333.37997436523437
 30
0.0
 10
458.25247192382812
 20
333.16998291015625
 30
0.0
 10
457.8399658203125
 20
332.91998291015625
 30
0.0
 10
457.45498657226562
 20
332.62997436523437
 30
0.0
 10
457.0999755859375
 20
332.30746459960937
 30
0.0
 10
456.7774658203125
 20
331.95248413085937
 30
0.0
 10
456.48995971679687
 20
331.56747436523437
 30
0.0
 10
456.23995971679687
 20
331.157470703125
 30
0.0
 10
456.0274658203125
 20
330.719970703125
 30
0.0
 10
455.8599853515625
 20
330.25997924804688
 30
0.0
 10
455.73748779296875
 20
329.77996826171875
 30
0.0
 10
455.65997314453125
 20
329.28497314453125
 30
0.0
 10
455.63497924804687
 20
328.77249145507812
 30
0.0
 10
455.63497924804687
 20
328.77249145507812
 30
0.0
  0
LWPOLYLINE
  5
61
100
AcDbEntity
  8
0
 62
256
420
16777215
370
-1
 48
1.0
  6
CONTINUOUS
100
AcDbPolyline
 90
3
 70
0
 10
409.93939208984375
 20
234.40345764160156
 30
0.0
 10
378.537353515625
 20
228.53736877441406
 30
0.0
 10
384.0736083984375
 20
258.17376708984375
 30
0.0
  0
LWPOLYLINE
  5
62
100
AcDbEntity
  8
0
 62
256
420
16777215
370
-1
 48
1.0
  6
CONTINUOUS
100
AcDbPolyline
 90
3
 70
0
 10
380.01422119140625
 20
265.98330688476562
 30
0.0
 10
370.28897094726562
 20
267.69815063476563
 30
0.0
 10
376.38873291015625
 20
276.09378051757812
 30
0.0
  0
LWPOLYLINE
  5
63
100
AcDbEntity
  8
0
 62
256
420
16777215
370
-1
 48
1.0
  6
CONTINUOUS
100
AcDbPolyline
 90
3
 70
0
 10
375.28909301757812
 20
281.943359375
 30
0.0
 10
348.93655395507812
 20
300.0
 30
0.0
 10
373.80740356445312
 20
317.0413818359375
 30
0.0
  0
LWPOLYLINE
  5
64
100
AcDbEntity
  8
0
 62
256
420
16777215
370
-1
 48
1.0
  6
CONTINUOUS
100
AcDbPolyline
 90
3
 70
0
 10
376.45913696289062
 20
325.43399047851562
 30
0.0
 10
370.794921875
 20
333.52334594726562
 30
0.0
 10
381.04473876953125
 20
335.14675903320312
 30
0.0
  0
LWPOLYLINE
  5
65
100
AcDbEntity
  8
0
 62
256
420
16777215
370
-1
 48
1.0
  6
CONTINUOUS
100
AcDbPolyline
 90
3
 70
0
 10
384.4034423828125
 20
340.06060791015625
 30
0.0
 10
378.537353515625
 20
371.46261596679687
 30
0.0
 10
408.17379760742187
 20
365.92633056640625
 30
0.0
  0
LWPOLYLINE
  5
66
100
AcDbEntity
  8
0
 62
256
420
16777215
370
-1
 48
1.0
  6
CONTINUOUS
100
AcDbPolyline
 90
3
 70
0
 10
415.98330688476562
 20
369.98574829101562
 30
0.0
 10
417.69815063476562
 20
379.71099853515625
 30
0.0
 10
426.09378051757813
 20
373.61123657226562
 30
0.0
  0
LWPOLYLINE
  5
67
100
AcDbEntity
  8
0
 62
256
420
16777215
370
-1
 48
1.0
  6
CONTINUOUS
100
AcDbPolyline
 90
3
 70
0
 10
431.943359375
 20
374.71087646484375
 30
0.0
 10
450.0
 20
401.06341552734375
 30
0.0
 10
467.0413818359375
 20
376.19256591796875
 30
0.0
  0
LWPOLYLINE
  5
68
100
AcDbEntity
  8
0
 62
256
420
16777215
370
-1
 48
1.0
  6
CONTINUOUS
100
AcDbPolyline
 90
3
 70
0
 10
475.43399047851562
 20
373.54083251953125
 30
0.0
 10
483.52334594726562
 20
379.20504760742187
 30
0.0
 10
485.14675903320312
 20
368.95526123046875
 30
0.0
  0
LWPOLYLINE
  5
69
100
AcDbEntity
  8
0
 62
256
420
16777215
370
-1
 48
1.0
  6
CONTINUOUS
100
AcDbPolyline
 90
3
 70
0
 10
490.06060791015625
 20
365.59652709960937
 30
0.0
 10
521.462646484375
 20
371.462646484375
 30
0.0
 10
515.92633056640625
 20
341.82623291015625
 30
0.0
  0
LWPOLYLINE
  5
6A
100
AcDbEntity
  8
0
 62
256
420
16777215
370
-1
 48
1.0
  6
CONTINUOUS
100
AcDbPolyline
 90
3
 70
0
 10
519.9857177734375
 20
334.01663208007812
 30
0.0
 10
529.71099853515625
 20
332.30181884765625
 30
0.0
 10
523.6112060546875
 20
323.90618896484375
 30
0.0
  0
LWPOLYLINE
  5
6B
100
AcDbEntity
  8
0
 62
256
420
16777215
370
-1
 48
1.0
  6
CONTINUOUS
100
AcDbPolyline
 90
3
 70
0
 10
524.71087646484375
 20
318.056640625
 30
0.0
 10
551.06341552734375
 20
300.00003051757812
 30
0.0
 10
526.19256591796875
 20
282.95864868164062
 30
0.0
  0
LWPOLYLINE
  5
6C
100
AcDbEntity
  8
0
 62
256
420
16777215
370
-1
 48
1.0
  6
CONTINUOUS
100
AcDbPolyline
 90
3
 70
0
 10
523.54083251953125
 20
274.56600952148437
 30
0.0
 10
529.20501708984375
 20
266.47665405273438
 30
0.0
 10
518.95526123046875
 20
264.85324096679688
 30
0.0
  0
LWPOLYLINE
  5
6D
100
AcDbEntity
  8
0
 62
256
420
16777215
370
-1
 48
1.0
  6
CONTINUOUS
100
AcDbPolyline
 90
3
 70
0
 10
515.59649658203125
 20
259.93939208984375
 30
0.0
 10
521.462646484375
 20
228.53736877441406
 30
0.0
 10
491.82620239257812
 20
234.07362365722656
 30
0.0
  0
LWPOLYLINE
  5
6E
100
AcDbEntity
  8
0
 62
256
420
16777215
370
-1
 48
1.0
  6
CONTINUOUS
100
AcDbPolyline
 90
3
 70
0
 10
484.01666259765625
 20
230.01426696777344
 30
0.0
 10
482.30184936523437
 20
220.28901672363281
 30
0.0
 10
473.90621948242187
 20
226.38877868652344
 30
0.0
  0
LWPOLYLINE
  5
6F
100
AcDbEntity
  8
0
 62
256
420
16777215
370
-1
 48
1.0
  6
CONTINUOUS
100
AcDbPolyline
 90
3
 70
0
 10
468.05661010742187
 20
225.28910827636719
 30
0.0
 10
450.0
 20
198.93656921386719
 30
0.0
 10
432.9586181640625
 20
223.80741882324219
 30
0.0
  0
LWPOLYLINE
  5
70
100
AcDbEntity
  8
0
 62
256
420
16777215
370
-1
 48
1.0
  6
CONTINUOUS
100
AcDbPolyline
 90
3
 70
0
 10
414.85324096679687
 20
231.04475402832031
 30
0.0
 10
416.47665405273437
 20
220.79493713378906
 30
0.0
 10
424.56600952148437
 20
226.45915222167969
 30
0.0
  0
LWPOLYLINE
  5
71
100
AcDbEntity
  8
0
 62
256
420
16777215
370
-1
 48
1.0
  6
CONTINUOUS
100
AcDbPolyline
 90
2
 70
0
 10
423.37954711914062
 20
282.8604736328125
 30
0.0
 10
497.89028930664062
 20
282.8604736328125
 30
0.0
  0
LWPOLYLINE
  5
72
100
AcDbEntity
  8
0
 62
256
420
16777215
370
-1
 48
1.0
  6
CONTINUOUS
100
AcDbPolyline
 90
5
 70
0
 10
485.43536376953125
 20
259.94607543945312
 30
0.0
 10
478.93536376953125
 20
259.94607543945312
 30
0.0
 10
478.93536376953125
 20
266.44607543945313
 30
0.0
 10
485.43536376953125
 20
266.44607543945313
 30
0.0
 10
485.43536376953125
 20
259.94607543945312
 30
0.0
  0
LWPOLYLINE
  5
73
100
AcDbEntity
  8
0
 62
256
420
16777215
370
-1
 48
1.0
  6
CONTINUOUS
100
AcDbPolyline
 90
5
 70
0
 10
487.21990966796875
 20
259.94607543945312
 30
0.0
 10
493.71990966796875
 20
259.94607543945312
 30
0.0
 10
493.71990966796875
 20
266.44607543945313
 30
0.0
 10
487.21990966796875
 20
266.44607543945313
 30
0.0
 10
487.21990966796875
 20
259.94607543945312
 30
0.0
  0
LWPOLYLINE
  5
74
100
AcDbEntity
  8
0
 62
256
420
16777215
370
-1
 48
1.0
  6
CONTINUOUS
100
AcDbPolyline
 90
21
 70
0
 10
482.83746337890625
 20
277.15496826171875
 30
0.0
 10
485.43746948242187
 20
277.15496826171875
 30
0.0
 10
485.43746948242187
 20
268.05499267578125
 30
0.0
 10
478.93746948242187
 20
268.05499267578125
 30
0.0
 10
478.93746948242187
 20
273.25497436523437
 30
0.0
 10
478.95748901367187
 20
273.6524658203125
 30
0.0
 10
479.01748657226562
 20
274.03997802734375
 30
0.0
 10
479.11248779296875
 20
274.41497802734375
 30
0.0
 10
479.24496459960937
 20
274.77249145507812
 30
0.0
 10
479.407470703125
 20
275.11248779296875
 30
0.0
 10
479.60247802734375
 20
275.43496704101562
 30
0.0
 10
479.82748413085937
 20
275.7349853515625
 30
0.0
 10
480.07998657226562
 20
276.01248168945312
 30
0.0
 10
480.35748291015625
 20
276.26498413085937
 30
0.0
 10
480.657470703125
 20
276.48748779296875
 30
0.0
 10
480.97747802734375
 20
276.68496704101562
 30
0.0
 10
481.31997680664062
 20
276.84747314453125
 30
0.0
 10
481.67745971679687
 20
276.97998046875
 30
0.0
 10
482.04998779296875
 20
277.07498168945312
 30
0.0
 10
482.43746948242187
 20
277.13497924804687
 30
0.0
 10
482.83746337890625
 20
277.15496826171875
 30
0.0
  0
LWPOLYLINE
  5
75
100
AcDbEntity
  8
0
 62
256
420
16777215
370
-1
 48
1.0
  6
CONTINUOUS
100
AcDbPolyline
 90
22
 70
0
 10
489.81997680664062
 20
277.15496826171875
 30
0.0
 10
487.219970703125
 20
277.15496826171875
 30
0.0
 10
487.219970703125
 20
268.05499267578125
 30
0.0
 10
493.719970703125
 20
268.05499267578125
 30
0.0
 10
493.719970703125
 20
273.25497436523437
 30
0.0
 10
493.69998168945312
 20
273.6524658203125
 30
0.0
 10
493.63998413085937
 20
274.03997802734375
 30
0.0
 10
493.54498291015625
 20
274.41497802734375
 30
0.0
 10
493.4124755859375
 20
274.77249145507812
 30
0.0
 10
493.24996948242187
 20
275.11248779296875
 30
0.0
 10
493.05496215820312
 20
275.43496704101562
 30
0.0
 10
492.82998657226562
 20
275.7349853515625
 30
0.0
 10
492.57748413085937
 20
276.01248168945312
 30
0.0
 10
492.29998779296875
 20
276.26498413085937
 30
0.0
 10
491.99996948242187
 20
276.48748779296875
 30
0.0
 10
491.67996215820312
 20
276.68496704101562
 30
0.0
 10
491.33746337890625
 20
276.84747314453125
 30
0.0
 10
490.97998046875
 20
276.97998046875
 30
0.0
 10
490.60748291015625
 20
277.07498168945312
 30
0.0
 10
490.219970703125
 20
277.13497924804687
 30
0.0
 10
489.81997680664062
 20
277.15496826171875
 30
0.0
 10
489.81997680664062
 20
277.15496826171875
 30
0.0
  0
LWPOLYLINE
  5
76
100
AcDbEntity
  8
0
 62
256
420
16777215
370
-1
 48
1.0
  6
CONTINUOUS
100
AcDbPolyline
 90
9
 70
0
 10
418.25186157226562
 20
362.3863525390625
 30
0.0
 10
422.03768920898437
 20
352.22235107421875
 30
0.0
 10
434.51837158203125
 20
351.400146484375
 30
0.0
 10
424.7227783203125
 20
343.62527465820312
 30
0.0
 10
427.798095703125
 20
331.504638671875
 30
0.0
 10
417.37847900390625
 20
338.41976928710937
 30
0.0
 10
406.79962158203125
 20
331.7470703125
 30
0.0
 10
410.15518188476562
 20
343.79458618164062
 30
0.0
 10
401.79183959960937
 20
350.7540283203125
 30
0.0
  0
LWPOLYLINE
  5
77
100
AcDbEntity
  8
0
 62
256
420
16777215
370
-1
 48
1.0
  6
CONTINUOUS
100
AcDbPolyline
 90
3
 70
0
 10
403.02685546875
 20
351.899169921875
 30
0.0
 10
413.03594970703125
 20
352.323974609375
 30
0.0
 10
416.73519897460937
 20
361.59100341796875
 30
0.0
  0
LWPOLYLINE
  5
78
100
AcDbEntity
  8
0
 62
256
420
16777215
370
-1
 48
1.0
  6
CONTINUOUS
100
AcDbPolyline
 90
5
 70
0
 10
449.84747314453125
 20
375.30364990234375
 30
0.0
 10
455.90185546875
 20
371.13153076171875
 30
0.0
 10
454.21755981445312
 20
378.2906494140625
 30
0.0
 10
460.056396484375
 20
382.7596435546875
 30
0.0
 10
452.72845458984375
 20
383.3704833984375
 30
0.0
  0
LWPOLYLINE
  5
79
100
AcDbEntity
  8
0
 62
256
420
16777215
370
-1
 48
1.0
  6
CONTINUOUS
100
AcDbPolyline
 90
7
 70
0
 10
452.72845458984375
 20
383.3704833984375
 30
0.0
 10
450.28152465820313
 20
390.3050537109375
 30
0.0
 10
447.43658447265625
 20
383.523193359375
 30
0.0
 10
440.08563232421875
 20
383.33981323242187
 30
0.0
 10
445.65472412109375
 20
378.53897094726562
 30
0.0
 10
443.5587158203125
 20
371.49041748046875
 30
0.0
 10
449.84747314453125
 20
375.30364990234375
 30
0.0
  0
LWPOLYLINE
  5
7A
100
AcDbEntity
  8
0
 62
256
420
16777215
370
-1
 48
1.0
  6
CONTINUOUS
100
AcDbPolyline
 90
157
 70
0
 10
414.9024658203125
 20
247.44499206542969
 30
0.0
 10
414.8974609375
 20
247.46998596191406
 30
0.0
 10
414.7874755859375
 20
248.052490234375
 30
0.0
 10
414.7874755859375
 20
248.052490234375
 30
0.0
 10
415.25747680664062
 20
247.80747985839844
 30
0.0
 10
415.45498657226562
 20
247.70248413085937
 30
0.0
 10
415.93746948242187
 20
247.47998046875
 30
0.0
 10
416.10498046875
 20
247.40498352050781
 30
0.0
 10
416.27496337890625
 20
247.34498596191406
 30
0.0
 10
416.60498046875
 20
247.24249267578125
 30
0.0
 10
417.18746948242187
 20
247.06748962402344
 30
0.0
 10
417.44998168945312
 20
247.01998901367187
 30
0.0
 10
417.71246337890625
 20
246.9849853515625
 30
0.0
 10
417.94497680664062
 20
246.96998596191406
 30
0.0
 10
418.094970703125
 20
246.96998596191406
 30
0.0
 10
418.22747802734375
 20
246.98748779296875
 30
0.0
 10
418.52496337890625
 20
247.05747985839844
 30
0.0
 10
418.75497436523437
 20
247.114990234375
 30
0.0
 10
418.76998901367187
 20
247.11997985839844
 30
0.0
 10
418.7724609375
 20
247.11997985839844
 30
0.0
 10
418.74496459960937
 20
247.15498352050781
 30
0.0
 10
418.25997924804688
 20
247.78749084472656
 30
0.0
 10
417.7349853515625
 20
248.52249145507812
 30
0.0
 10
417.31747436523437
 20
249.18748474121094
 30
0.0
 10
416.71246337890625
 20
250.17999267578125
 30
0.0
 10
416.56997680664062
 20
250.43247985839844
 30
0.0
 10
416.32247924804687
 20
250.90998840332031
 30
0.0
 10
415.87747192382812
 20
251.77249145507812
 30
0.0
 10
415.68246459960937
 20
252.16998291015625
 30
0.0
 10
415.50747680664062
 20
252.57247924804688
 30
0.0
 10
415.15496826171875
 20
253.38249206542969
 30
0.0
 10
414.97247314453125
 20
253.83749389648437
 30
0.0
 10
414.87496948242187
 20
254.13748168945313
 30
0.0
 10
414.65997314453125
 20
254.7974853515625
 30
0.0
 10
414.59246826171875
 20
255.00997924804687
 30
0.0
 10
414.54998779296875
 20
255.22998046875
 30
0.0
 10
414.51998901367187
 20
255.40248107910156
 30
0.0
 10
414.49996948242187
 20
255.56248474121094
 30
0.0
 10
414.49746704101562
 20
255.72248840332031
 30
0.0
 10
414.50997924804687
 20
255.81999206542969
 30
0.0
 10
414.53997802734375
 20
255.91748046875
 30
0.0
 10
414.5899658203125
 20
255.98748779296875
 30
0.0
 10
414.64996337890625
 20
256.02249145507812
 30
0.0
 10
414.7149658203125
 20
256.032470703125
 30
0.0
 10
414.97998046875
 20
256.00497436523437
 30
0.0
 10
415.32498168945312
 20
255.94998168945312
 30
0.0
 10
416.1474609375
 20
255.79998779296875
 30
0.0
 10
417.7874755859375
 20
255.49998474121094
 30
0.0
 10
417.89498901367187
 20
255.4849853515625
 30
0.0
 10
417.89996337890625
 20
255.489990234375
 30
0.0
 10
417.87496948242187
 20
255.54248046875
 30
0.0
 10
417.12747192382812
 20
256.4124755859375
 30
0.0
 10
416.35748291015625
 20
257.25997924804687
 30
0.0
 10
416.11248779296875
 20
257.5274658203125
 30
0.0
 10
415.88998413085937
 20
257.79248046875
 30
0.0
 10
415.57998657226562
 20
258.19747924804687
 30
0.0
 10
415.24746704101562
 20
258.63748168945312
 30
0.0
 10
414.98748779296875
 20
259.04998779296875
 30
0.0
 10
414.719970703125
 20
259.4849853515625
 30
0.0
 10
414.59747314453125
 20
259.69247436523437
 30
0.0
 10
414.49496459960937
 20
259.907470703125
 30
0.0
 10
414.27996826171875
 20
260.36749267578125
 30
0.0
 10
414.10498046875
 20
260.76498413085937
 30
0.0
 10
413.8399658203125
 20
261.55996704101562
 30
0.0
 10
413.74246215820312
 20
261.91497802734375
 30
0.0
 10
413.6724853515625
 20
262.25997924804687
 30
0.0
 10
413.57998657226562
 20
262.69998168945312
 30
0.0
 10
413.5224609375
 20
263.09246826171875
 30
0.0
 10
413.427490234375
 20
263.96249389648437
 30
0.0
 10
413.41998291015625
 20
264.11248779296875
 30
0.0
 10
413.42996215820312
 20
264.26248168945312
 30
0.0
 10
413.45248413085937
 20
264.33749389648437
 30
0.0
 10
413.49246215820313
 20
264.37246704101562
 30
0.0
 10
413.55996704101562
 20
264.37496948242187
 30
0.0
 10
413.62246704101562
 20
264.35498046875
 30
0.0
 10
414.38748168945312
 20
264.0374755859375
 30
0.0
 10
415.13748168945312
 20
263.7874755859375
 30
0.0
 10
415.35498046875
 20
263.73748779296875
 30
0.0
 10
415.57748413085937
 20
263.71249389648437
 30
0.0
 10
415.69998168945312
 20
263.7149658203125
 30
0.0
 10
415.81997680664062
 20
263.74746704101562
 30
0.0
 10
415.91998291015625
 20
263.79998779296875
 30
0.0
 10
415.94998168945312
 20
263.82748413085937
 30
0.0
 10
415.9749755859375
 20
263.87246704101562
 30
0.0
 10
415.9749755859375
 20
263.927490234375
 30
0.0
 10
415.95248413085937
 20
263.99746704101562
 30
0.0
 10
415.84747314453125
 20
264.157470703125
 30
0.0
 10
415.7249755859375
 20
264.30746459960937
 30
0.0
 10
415.34747314453125
 20
264.76498413085937
 30
0.0
 10
415.21746826171875
 20
264.927490234375
 30
0.0
 10
415.10748291015625
 20
265.10247802734375
 30
0.0
 10
414.80496215820312
 20
265.59747314453125
 30
0.0
 10
414.6474609375
 20
265.8599853515625
 30
0.0
 10
414.4849853515625
 20
266.19497680664062
 30
0.0
 10
414.14498901367187
 20
266.907470703125
 30
0.0
 10
413.8599853515625
 20
267.64498901367187
 30
0.0
 10
413.69998168945312
 20
268.06246948242187
 30
0.0
 10
413.58248901367187
 20
268.43997192382812
 30
0.0
 10
413.407470703125
 20
269.032470703125
 30
0.0
 10
413.33746337890625
 20
269.26998901367187
 30
0.0
 10
413.2874755859375
 20
269.51248168945312
 30
0.0
 10
413.157470703125
 20
270.16748046875
 30
0.0
 10
413.114990234375
 20
270.40496826171875
 30
0.0
 10
413.09747314453125
 20
270.64498901367187
 30
0.0
 10
413.06246948242187
 20
271.24996948242187
 30
0.0
 10
413.06997680664062
 20
271.80746459960937
 30
0.0
 10
413.0899658203125
 20
272.00997924804687
 30
0.0
 10
413.10247802734375
 20
272.05746459960937
 30
0.0
 10
413.12496948242187
 20
272.10247802734375
 30
0.0
 10
413.15997314453125
 20
272.13497924804687
 30
0.0
 10
413.21246337890625
 20
272.14248657226562
 30
0.0
 10
413.23248291015625
 20
272.13998413085937
 30
0.0
 10
413.30746459960937
 20
272.11248779296875
 30
0.0
 10
413.54998779296875
 20
271.99249267578125
 30
0.0
 10
413.62496948242187
 20
271.96746826171875
 30
0.0
 10
413.79498291015625
 20
271.9224853515625
 30
0.0
 10
414.08746337890625
 20
271.864990234375
 30
0.0
 10
414.8499755859375
 20
271.7249755859375
 30
0.0
 10
415.54248046875
 20
271.6624755859375
 30
0.0
 10
415.69998168945312
 20
271.64999389648437
 30
0.0
 10
415.8599853515625
 20
271.6524658203125
 30
0.0
 10
415.88998413085937
 20
271.6524658203125
 30
0.0
 10
415.96246337890625
 20
271.66748046875
 30
0.0
 10
416.00997924804687
 20
271.68246459960937
 30
0.0
 10
416.04998779296875
 20
271.71249389648437
 30
0.0
 10
416.07247924804687
 20
271.77249145507812
 30
0.0
 10
416.06497192382812
 20
271.83499145507812
 30
0.0
 10
416.0274658203125
 20
271.92999267578125
 30
0.0
 10
415.8349609375
 20
272.219970703125
 30
0.0
 10
415.157470703125
 20
273.06497192382813
 30
0.0
 10
414.32998657226563
 20
274.09246826171875
 30
0.0
 10
413.8499755859375
 20
274.68997192382812
 30
0.0
 10
413.54998779296875
 20
275.10498046875
 30
0.0
 10
413.00997924804687
 20
275.9024658203125
 30
0.0
 10
412.78997802734375
 20
276.24249267578125
 30
0.0
 10
412.5899658203125
 20
276.59246826171875
 30
0.0
 10
412.1524658203125
 20
277.3499755859375
 30
0.0
 10
411.82998657226562
 20
278.01248168945312
 30
0.0
 10
411.58248901367187
 20
278.52996826171875
 30
0.0
 10
411.41497802734375
 20
278.95498657226562
 30
0.0
 10
411.2349853515625
 20
279.44747924804688
 30
0.0
 10
411.14498901367187
 20
279.69247436523437
 30
0.0
 10
411.06497192382812
 20
279.94247436523437
 30
0.0
 10
410.82247924804687
 20
280.98248291015625
 30
0.0
 10
410.78497314453125
 20
281.24249267578125
 30
0.0
 10
410.74746704101562
 20
281.67498779296875
 30
0.0
 10
410.75747680664062
 20
281.79248046875
 30
0.0
 10
410.79998779296875
 20
281.8599853515625
 30
0.0
 10
410.82498168945312
 20
281.86996459960937
 30
0.0
 10
410.93246459960937
 20
281.85748291015625
 30
0.0
 10
411.01498413085937
 20
281.82498168945312
 30
0.0
 10
411.1524658203125
 20
281.77249145507812
 30
0.0
 10
411.344970703125
 20
281.69998168945312
 30
0.0
 10
411.552490234375
 20
281.63497924804687
 30
0.0
 10
413.87747192382812
 20
280.9024658203125
 30
0.0
 10
414.13998413085937
 20
280.84246826171875
 30
0.0
 10
414.219970703125
 20
280.8399658203125
 30
0.0
  0
LWPOLYLINE
  5
7B
100
AcDbEntity
  8
0
 62
256
420
16777215
370
-1
 48
1.0
  6
CONTINUOUS
100
AcDbPolyline
 90
7
 70
0
 10
396.6444091796875
 20
353.13986206054687
 30
0.0
 10
394.89395141601562
 20
345.9967041015625
 30
0.0
 10
391.3919677734375
 20
352.462890625
 30
0.0
 10
384.05929565429687
 20
351.91964721679687
 30
0.0
 10
389.12753295898438
 20
357.24722290039062
 30
0.0
 10
386.34375
 20
364.05441284179687
 30
0.0
 10
392.97744750976562
 20
360.88116455078125
 30
0.0
  0
LWPOLYLINE
  5
7C
100
AcDbEntity
  8
0
 62
256
420
16777215
370
-1
 48
1.0
  6
CONTINUOUS
100
AcDbPolyline
 90
5
 70
0
 10
392.97744750976562
 20
360.88116455078125
 30
0.0
 10
398.59100341796875
 20
365.630859375
 30
0.0
 10
397.62240600585937
 20
358.34213256835937
 30
0.0
 10
403.87564086914062
 20
354.47085571289062
 30
0.0
 10
396.6444091796875
 20
353.139892578125
 30
0.0
  0
LWPOLYLINE
  5
7D
100
AcDbEntity
  8
0
 62
256
420
16777215
370
-1
 48
1.0
  6
CONTINUOUS
100
AcDbPolyline
 90
7
 70
0
 10
374.69631958007812
 20
299.84747314453125
 30
0.0
 10
378.50955200195312
 20
293.5587158203125
 30
0.0
 10
371.46099853515625
 20
295.65472412109375
 30
0.0
 10
366.66015625
 20
290.08563232421875
 30
0.0
 10
366.47677612304688
 20
297.43658447265625
 30
0.0
 10
359.69491577148437
 20
300.28152465820313
 30
0.0
 10
366.62948608398437
 20
302.72845458984375
 30
0.0
  0
LWPOLYLINE
  5
7E
100
AcDbEntity
  8
0
 62
256
420
16777215
370
-1
 48
1.0
  6
CONTINUOUS
100
AcDbPolyline
 90
5
 70
0
 10
366.62948608398437
 20
302.72842407226562
 30
0.0
 10
367.24032592773437
 20
310.05633544921875
 30
0.0
 10
371.70932006835937
 20
304.217529296875
 30
0.0
 10
378.86843872070312
 20
305.90182495117187
 30
0.0
 10
374.69631958007812
 20
299.84744262695312
 30
0.0
  0
LWPOLYLINE
  5
7F
100
AcDbEntity
  8
0
 62
256
420
16777215
370
-1
 48
1.0
  6
CONTINUOUS
100
AcDbPolyline
 90
7
 70
0
 10
396.860107421875
 20
246.64445495605469
 30
0.0
 10
404.00326538085937
 20
244.89399719238281
 30
0.0
 10
397.53707885742187
 20
241.39201354980469
 30
0.0
 10
398.080322265625
 20
234.05934143066406
 30
0.0
 10
392.75274658203125
 20
239.12757873535156
 30
0.0
 10
385.94558715820312
 20
236.34376525878906
 30
0.0
 10
389.11880493164062
 20
242.97749328613281
 30
0.0
  0
LWPOLYLINE
  5
80
100
AcDbEntity
  8
0
 62
256
420
16777215
370
-1
 48
1.0
  6
CONTINUOUS
100
AcDbPolyline
 90
5
 70
0
 10
389.11880493164062
 20
242.97746276855469
 30
0.0
 10
384.36911010742187
 20
248.59101867675781
 30
0.0
 10
391.65786743164062
 20
247.62242126464844
 30
0.0
 10
395.52911376953125
 20
253.87565612792969
 30
0.0
 10
396.860107421875
 20
246.64442443847656
 30
0.0
  0
LWPOLYLINE
  5
81
100
AcDbEntity
  8
0
 62
256
420
16777215
370
-1
 48
1.0
  6
CONTINUOUS
100
AcDbPolyline
 90
7
 70
0
 10
450.15249633789062
 20
224.69633483886719
 30
0.0
 10
456.44125366210937
 20
228.50956726074219
 30
0.0
 10
454.34524536132812
 20
221.46101379394531
 30
0.0
 10
459.91436767578125
 20
216.66017150878906
 30
0.0
 10
452.56341552734375
 20
216.47679138183594
 30
0.0
 10
449.71844482421875
 20
209.69493103027344
 30
0.0
 10
447.27151489257812
 20
216.62950134277344
 30
0.0
  0
LWPOLYLINE
  5
82
100
AcDbEntity
  8
0
 62
256
420
16777215
370
-1
 48
1.0
  6
CONTINUOUS
100
AcDbPolyline
 90
5
 70
0
 10
447.27151489257812
 20
216.62950134277344
 30
0.0
 10
439.943603515625
 20
217.24034118652344
 30
0.0
 10
445.78240966796875
 20
221.70933532714844
 30
0.0
 10
444.09811401367187
 20
228.86845397949219
 30
0.0
 10
450.15249633789062
 20
224.69633483886719
 30
0.0
  0
LWPOLYLINE
  5
83
100
AcDbEntity
  8
0
 62
256
420
16777215
370
-1
 48
1.0
  6
CONTINUOUS
100
AcDbPolyline
 90
7
 70
0
 10
503.35556030273437
 20
246.86012268066406
 30
0.0
 10
505.10604858398437
 20
254.00331115722656
 30
0.0
 10
508.6080322265625
 20
247.53712463378906
 30
0.0
 10
515.940673828125
 20
248.08036804199219
 30
0.0
 10
510.8724365234375
 20
242.75279235839844
 30
0.0
 10
513.65625
 20
235.94560241699219
 30
0.0
 10
507.02252197265625
 20
239.11885070800781
 30
0.0
  0
LWPOLYLINE
  5
84
100
AcDbEntity
  8
0
 62
256
420
16777215
370
-1
 48
1.0
  6
CONTINUOUS
100
AcDbPolyline
 90
5
 70
0
 10
507.02252197265625
 20
239.11882019042969
 30
0.0
 10
501.40896606445312
 20
234.36912536621094
 30
0.0
 10
502.37759399414063
 20
241.65785217285156
 30
0.0
 10
496.12435913085937
 20
245.52912902832031
 30
0.0
 10
503.35556030273437
 20
246.86009216308594
 30
0.0
  0
LWPOLYLINE
  5
85
100
AcDbEntity
  8
0
 62
256
420
16777215
370
-1
 48
1.0
  6
CONTINUOUS
100
AcDbPolyline
 90
7
 70
0
 10
525.30364990234375
 20
300.15249633789062
 30
0.0
 10
521.49041748046875
 20
306.44125366210937
 30
0.0
 10
528.53900146484375
 20
304.34524536132812
 30
0.0
 10
533.33984375
 20
309.91433715820313
 30
0.0
 10
533.523193359375
 20
302.56338500976562
 30
0.0
 10
540.3050537109375
 20
299.71844482421875
 30
0.0
 10
533.3704833984375
 20
297.27151489257812
 30
0.0
  0
LWPOLYLINE
  5
86
100
AcDbEntity
  8
0
 62
256
420
16777215
370
-1
 48
1.0
  6
CONTINUOUS
100
AcDbPolyline
 90
5
 70
0
 10
533.3704833984375
 20
297.27151489257812
 30
0.0
 10
532.7596435546875
 20
289.94357299804687
 30
0.0
 10
528.2906494140625
 20
295.78240966796875
 30
0.0
 10
521.13153076171875
 20
294.09811401367187
 30
0.0
 10
525.30364990234375
 20
300.15249633789062
 30
0.0
  0
LWPOLYLINE
  5
87
100
AcDbEntity
  8
0
 62
256
420
16777215
370
-1
 48
1.0
  6
CONTINUOUS
100
AcDbPolyline
 90
7
 70
0
 10
503.139892578125
 20
353.35556030273437
 30
0.0
 10
495.9967041015625
 20
355.10601806640625
 30
0.0
 10
502.462890625
 20
358.60800170898437
 30
0.0
 10
501.91964721679687
 20
365.940673828125
 30
0.0
 10
507.24722290039062
 20
360.8724365234375
 30
0.0
 10
514.05438232421875
 20
363.65625
 30
0.0
 10
510.88116455078125
 20
357.02252197265625
 30
0.0
  0
LWPOLYLINE
  5
88
100
AcDbEntity
  8
0
 62
256
420
16777215
370
-1
 48
1.0
  6
CONTINUOUS
100
AcDbPolyline
 90
5
 70
0
 10
510.88116455078125
 20
357.02249145507812
 30
0.0
 10
515.630859375
 20
351.408935546875
 30
0.0
 10
508.34213256835937
 20
352.3775634765625
 30
0.0
 10
504.47085571289062
 20
346.12432861328125
 30
0.0
 10
503.139892578125
 20
353.35552978515625
 30
0.0
  0
LWPOLYLINE
  5
89
100
AcDbEntity
  8
0
 62
256
420
16777215
370
-1
 48
1.0
  6
CONTINUOUS
100
AcDbPolyline
 90
9
 70
0
 10
416.73748779296875
 20
361.59246826171875
 30
0.0
 10
414.89996337890625
 20
360.56497192382812
 30
0.0
 10
413.094970703125
 20
359.48248291015625
 30
0.0
 10
411.32498168945312
 20
358.34747314453125
 30
0.0
 10
409.5899658203125
 20
357.15997314453125
 30
0.0
 10
407.89248657226563
 20
355.91998291015625
 30
0.0
 10
406.23248291015625
 20
354.62997436523437
 30
0.0
 10
404.6099853515625
 20
353.28997802734375
 30
0.0
 10
403.0274658203125
 20
351.89996337890625
 30
0.0
  0
LWPOLYLINE
  5
8A
100
AcDbEntity
  8
0
 62
256
420
16777215
370
-1
 48
1.0
  6
CONTINUOUS
100
AcDbPolyline
 90
65
 70
0
 10
497.03497314453125
 20
248.15748596191406
 30
0.0
 10
495.0274658203125
 20
246.40498352050781
 30
0.0
 10
492.96746826171875
 20
244.73748779296875
 30
0.0
 10
490.85498046875
 20
243.15748596191406
 30
0.0
 10
488.69747924804687
 20
241.66499328613281
 30
0.0
 10
486.49246215820312
 20
240.26248168945312
 30
0.0
 10
484.24496459960937
 20
238.94499206542969
 30
0.0
 10
481.9599609375
 20
237.71748352050781
 30
0.0
 10
479.63497924804687
 20
236.57998657226562
 30
0.0
 10
477.2774658203125
 20
235.52998352050781
 30
0.0
 10
474.88748168945312
 20
234.57249450683594
 30
0.0
 10
472.46746826171875
 20
233.70248413085937
 30
0.0
 10
470.01998901367187
 20
232.92498779296875
 30
0.0
 10
467.54998779296875
 20
232.23748779296875
 30
0.0
 10
465.05996704101562
 20
231.63998413085937
 30
0.0
 10
462.54998779296875
 20
231.13499450683594
 30
0.0
 10
460.0224609375
 20
230.72248840332031
 30
0.0
 10
457.48248291015625
 20
230.40248107910156
 30
0.0
 10
454.93246459960937
 20
230.17498779296875
 30
0.0
 10
452.37496948242187
 20
230.03999328613281
 30
0.0
 10
449.81246948242187
 20
229.99998474121094
 30
0.0
 10
447.24496459960937
 20
230.05499267578125
 30
0.0
 10
444.67745971679687
 20
230.20248413085937
 30
0.0
 10
442.11495971679687
 20
230.44499206542969
 30
0.0
 10
439.55496215820312
 20
230.78248596191406
 30
0.0
 10
437.00497436523437
 20
231.21498107910156
 30
0.0
 10
434.46246337890625
 20
231.74249267578125
 30
0.0
 10
431.93496704101562
 20
232.36997985839844
 30
0.0
 10
429.42498779296875
 20
233.08998107910156
 30
0.0
 10
426.92996215820312
 20
233.90998840332031
 30
0.0
 10
424.45748901367187
 20
234.82498168945312
 30
0.0
 10
422.00997924804687
 20
235.83998107910156
 30
0.0
 10
419.58746337890625
 20
236.95248413085937
 30
0.0
 10
421.844970703125
 20
238.03999328613281
 30
0.0
 10
424.11996459960937
 20
239.08248901367187
 30
0.0
 10
426.40997314453125
 20
240.07498168945312
 30
0.0
 10
428.71746826171875
 20
241.02249145507812
 30
0.0
 10
431.04248046875
 20
241.92498779296875
 30
0.0
 10
433.37997436523437
 20
242.77748107910156
 30
0.0
 10
435.73248291015625
 20
243.58499145507812
 30
0.0
 10
438.09747314453125
 20
244.34498596191406
 30
0.0
 10
440.47747802734375
 20
245.05747985839844
 30
0.0
 10
442.86746215820313
 20
245.72248840332031
 30
0.0
 10
445.26998901367187
 20
246.33998107910156
 30
0.0
 10
447.68246459960937
 20
246.90998840332031
 30
0.0
 10
450.10247802734375
 20
247.43247985839844
 30
0.0
 10
452.53497314453125
 20
247.90748596191406
 30
0.0
 10
454.9749755859375
 20
248.33248901367187
 30
0.0
 10
457.4224853515625
 20
248.71249389648437
 30
0.0
 10
459.87496948242187
 20
249.04248046875
 30
0.0
 10
462.3349609375
 20
249.32498168945312
 30
0.0
 10
464.80245971679687
 20
249.55747985839844
 30
0.0
 10
467.2724609375
 20
249.74497985839844
 30
0.0
 10
469.74746704101562
 20
249.87998962402344
 30
0.0
 10
472.2249755859375
 20
249.96998596191406
 30
0.0
 10
474.70748901367187
 20
250.00997924804687
 30
0.0
 10
477.18997192382812
 20
249.99998474121094
 30
0.0
 10
479.6724853515625
 20
249.94248962402344
 30
0.0
 10
482.157470703125
 20
249.83499145507812
 30
0.0
 10
484.64248657226563
 20
249.67999267578125
 30
0.0
 10
487.12496948242187
 20
249.47248840332031
 30
0.0
 10
489.60748291015625
 20
249.21748352050781
 30
0.0
 10
492.08746337890625
 20
248.91499328613281
 30
0.0
 10
494.56246948242187
 20
248.55998229980469
 30
0.0
 10
497.03497314453125
 20
248.15748596191406
 30
0.0
  0
ENDSEC
  0
SECTION
  2
OBJECTS
  0
DICTIONARY
  5
C
100
AcDbDictionary
280
0
281
1
  3
ACAD_GROUP
350
D
  3
ACAD_LAYOUT
350
1A
  3
ACAD_MLINESTYLE
350
17
  3
ACAD_PLOTSETTINGS
350
19
  3
ACAD_PLOTSTYLENAME
350
E
  3
AcDbVariableDictionary
350
8B
  0
DICTIONARY
  5
D
100
AcDbDictionary
280
0
281
1
  0
ACDBDICTIONARYWDFLT
  5
E
100
AcDbDictionary
281
1
  3
Normal
350
F
100
AcDbDictionaryWithDefault
340
F
  0
ACDBPLACEHOLDER
  5
F
  0
DICTIONARY
  5
17
100
AcDbDictionary
280
0
281
1
  3
Standard
350
18
  0
MLINESTYLE
  5
18
100
AcDbMlineStyle
  2
STANDARD
 70
0
  3

 62
256
 51
90.0
 52
90.0
 71
2
 49
0.5
 62
256
  6
BYLAYER
 49
-0.5
 62
256
  6
BYLAYER
  0
DICTIONARY
  5
19
100
AcDbDictionary
280
0
281
1
  0
DICTIONARY
  5
1A
100
AcDbDictionary
281
1
  3
Layout1
350
1E
  3
Layout2
350
26
  3
Model
350
22
  0
LAYOUT
  5
1E
100
AcDbPlotSettings
  1

  2
none_device
  4

  6

 40
0.0
 41
0.0
 42
0.0
 43
0.0
 44
0.0
 45
0.0
 46
0.0
 47
0.0
 48
0.0
 49
0.0
140
0.0
141
0.0
142
1.0
143
1.0
 70
688
 72
0
 73
0
 74
5
  7

 75
16
147
1.0
148
0.0
149
0.0
100
AcDbLayout
  1
Layout1
 70
1
 71
1
 10
0.0
 20
0.0
 11
420.0
 21
297.0
 12
0.0
 22
0.0
 32
0.0
 14
100000000000000000000.0
 24
100000000000000000000.0
 34
100000000000000000000.0
 15
-100000000000000000000.0
 25
-100000000000000000000.0
 35
-100000000000000000000.0
146
0.0
 13
0.0
 23
0.0
 33
0.0
 16
1.0
 26
0.0
 36
0.0
 17
0.0
 27
1.0
 37
0.0
 76
0
330
1B
  0
LAYOUT
  5
22
100
AcDbPlotSettings
  1

  2
none_device
  4

  6

 40
0.0
 41
0.0
 42
0.0
 43
0.0
 44
0.0
 45
0.0
 46
0.0
 47
0.0
 48
0.0
 49
0.0
140
0.0
141
0.0
142
1.0
143
1.0
 70
1712
 72
0
 73
0
 74
0
  7

 75
0
147
1.0
148
0.0
149
0.0
100
AcDbLayout
  1
Model
 70
1
 71
0
 10
0.0
 20
0.0
 11
12.0
 21
9.0
 12
0.0
 22
0.0
 32
0.0
 14
0.0
 24
0.0
 34
0.0
 15
0.0
 25
0.0
 35
0.0
146
0.0
 13
0.0
 23
0.0
 33
0.0
 16
1.0
 26
0.0
 36
0.0
 17
0.0
 27
1.0
 37
0.0
 76
0
330
1F
  0
LAYOUT
  5
26
100
AcDbPlotSettings
  1

  2
none_device
  4

  6

 40
0.0
 41
0.0
 42
0.0
 43
0.0
 44
0.0
 45
0.0
 46
0.0
 47
0.0
 48
0.0
 49
0.0
140
0.0
141
0.0
142
1.0
143
1.0
 70
688
 72
0
 73
0
 74
5
  7

 75
16
147
1.0
148
0.0
149
0.0
100
AcDbLayout
  1
Layout2
 70
1
 71
2
 10
0.0
 20
0.0
 11
12.0
 21
9.0
 12
0.0
 22
0.0
 32
0.0
 14
0.0
 24
0.0
 34
0.0
 15
0.0
 25
0.0
 35
0.0
146
0.0
 13
0.0
 23
0.0
 33
0.0
 16
1.0
 26
0.0
 36
0.0
 17
0.0
 27
1.0
 37
0.0
 76
0
330
23
  0
DICTIONARY
  5
8B
100
AcDbDictionary
281
1
  3
DIMASSOC
350
8D
  3
HIDETEXT
350
8C
  0
DICTIONARYVAR
  5
8C
100
DictionaryVariables
280
0
  1
2
  0
DICTIONARYVAR
  5
8D
100
DictionaryVariables
280
0
  1
1
  0
ENDSEC
  0
EOF
