999
dxflib 3.17.0.0
  0
SECTION
  2
HEADER
  9
$ACADVER
  1
AC1015
  9
$HANDSEED
  5
FFFF
  9
$INSUNITS
 70
4
  9
$DIMEXE
 40
1.25
  9
$TEXTSTYLE
  7
Standard
  9
$LIMMIN
 10
0.0
 20
0.0
  0
ENDSEC
  0
SECTION
  2
TABLES
  0
TABLE
  2
VPORT
  5
8
100
AcDbSymbolTable
 70
1
  0
VPORT
  5
30
100
AcDbSymbolTableRecord
100
AcDbViewportTableRecord
  2
*Active
 70
0
 10
0.0
 20
0.0
 11
1.0
 21
1.0
 12
286.30555555555549
 22
148.5
 13
0.0
 23
0.0
 14
10.0
 24
10.0
 15
10.0
 25
10.0
 16
0.0
 26
0.0
 36
1.0
 17
0.0
 27
0.0
 37
0.0
 40
297.0
 41
1.92798353909465
 42
50.0
 43
0.0
 44
0.0
 50
0.0
 51
0.0
 71
0
 72
100
 73
1
 74
3
 75
1
 76
1
 77
0
 78
0
281
0
 65
1
110
0.0
120
0.0
130
0.0
111
1.0
121
0.0
131
0.0
112
0.0
122
1.0
132
0.0
 79
0
146
0.0
  0
ENDTAB
  0
TABLE
  2
LTYPE
  5
5
100
AcDbSymbolTable
 70
25
  0
LTYPE
  5
14
100
AcDbSymbolTableRecord
100
AcDbLinetypeTableRecord
  2
BYBLOCK
 70
0
  3

 72
65
 73
0
 40
0.0
  0
LTYPE
  5
15
100
AcDbSymbolTableRecord
100
AcDbLinetypeTableRecord
  2
BYLAYER
 70
0
  3

 72
65
 73
0
 40
0.0
  0
LTYPE
  5
16
100
AcDbSymbolTableRecord
100
AcDbLinetypeTableRecord
  2
CONTINUOUS
 70
0
  3
Solid line
 72
65
 73
0
 40
0.0
  0
LTYPE
  5
31
100
AcDbSymbolTableRecord
100
AcDbLinetypeTableRecord
  2
ACAD_ISO02W100
 70
0
  3

 72
65
 73
0
 40
0.0
  0
LTYPE
  5
32
100
AcDbSymbolTableRecord
100
AcDbLinetypeTableRecord
  2
ACAD_ISO03W100
 70
0
  3

 72
65
 73
0
 40
0.0
  0
LTYPE
  5
33
100
AcDbSymbolTableRecord
100
AcDbLinetypeTableRecord
  2
ACAD_ISO04W100
 70
0
  3

 72
65
 73
0
 40
0.0
  0
LTYPE
  5
34
100
AcDbSymbolTableRecord
100
AcDbLinetypeTableRecord
  2
ACAD_ISO05W100
 70
0
  3

 72
65
 73
0
 40
0.0
  0
LTYPE
  5
35
100
AcDbSymbolTableRecord
100
AcDbLinetypeTableRecord
  2
BORDER
 70
0
  3

 72
65
 73
0
 40
0.0
  0
LTYPE
  5
36
100
AcDbSymbolTableRecord
100
AcDbLinetypeTableRecord
  2
BORDER2
 70
0
  3

 72
65
 73
0
 40
0.0
  0
LTYPE
  5
37
100
AcDbSymbolTableRecord
100
AcDbLinetypeTableRecord
  2
BORDERX2
 70
0
  3

 72
65
 73
0
 40
0.0
  0
LTYPE
  5
38
100
AcDbSymbolTableRecord
100
AcDbLinetypeTableRecord
  2
CENTER
 70
0
  3

 72
65
 73
0
 40
0.0
  0
LTYPE
  5
39
100
AcDbSymbolTableRecord
100
AcDbLinetypeTableRecord
  2
CENTER2
 70
0
  3

 72
65
 73
0
 40
0.0
  0
LTYPE
  5
3A
100
AcDbSymbolTableRecord
100
AcDbLinetypeTableRecord
  2
CENTERX2
 70
0
  3

 72
65
 73
0
 40
0.0
  0
LTYPE
  5
3B
100
AcDbSymbolTableRecord
100
AcDbLinetypeTableRecord
  2
DASHDOT
 70
0
  3

 72
65
 73
0
 40
0.0
  0
LTYPE
  5
3C
100
AcDbSymbolTableRecord
100
AcDbLinetypeTableRecord
  2
DASHDOT2
 70
0
  3

 72
65
 73
0
 40
0.0
  0
LTYPE
  5
3D
100
AcDbSymbolTableRecord
100
AcDbLinetypeTableRecord
  2
DASHDOTX2
 70
0
  3

 72
65
 73
0
 40
0.0
  0
LTYPE
  5
3E
100
AcDbSymbolTableRecord
100
AcDbLinetypeTableRecord
  2
DASHED
 70
0
  3

 72
65
 73
0
 40
0.0
  0
LTYPE
  5
3F
100
AcDbSymbolTableRecord
100
AcDbLinetypeTableRecord
  2
DASHED2
 70
0
  3

 72
65
 73
0
 40
0.0
  0
LTYPE
  5
40
100
AcDbSymbolTableRecord
100
AcDbLinetypeTableRecord
  2
DASHEDX2
 70
0
  3

 72
65
 73
0
 40
0.0
  0
LTYPE
  5
41
100
AcDbSymbolTableRecord
100
AcDbLinetypeTableRecord
  2
DIVIDE
 70
0
  3

 72
65
 73
0
 40
0.0
  0
LTYPE
  5
42
100
AcDbSymbolTableRecord
100
AcDbLinetypeTableRecord
  2
DIVIDE2
 70
0
  3

 72
65
 73
0
 40
0.0
  0
LTYPE
  5
43
100
AcDbSymbolTableRecord
100
AcDbLinetypeTableRecord
  2
DIVIDEX2
 70
0
  3

 72
65
 73
0
 40
0.0
  0
LTYPE
  5
44
100
AcDbSymbolTableRecord
100
AcDbLinetypeTableRecord
  2
DOT
 70
0
  3

 72
65
 73
0
 40
0.0
  0
LTYPE
  5
45
100
AcDbSymbolTableRecord
100
AcDbLinetypeTableRecord
  2
DOT2
 70
0
  3

 72
65
 73
0
 40
0.0
  0
LTYPE
  5
46
100
AcDbSymbolTableRecord
100
AcDbLinetypeTableRecord
  2
DOTX2
 70
0
  3

 72
65
 73
0
 40
0.0
  0
ENDTAB
  0
TABLE
  2
LAYER
  5
2
100
AcDbSymbolTable
 70
1
  0
LAYER
  5
10
100
AcDbSymbolTableRecord
100
AcDbLayerTableRecord
  2
0
 70
0
 62
7
420
16777215
  6
CONTINUOUS
390
F
  0
ENDTAB
  0
TABLE
  2
STYLE
  5
3
100
AcDbSymbolTable
 70
1
  0
STYLE
  5
47
100
AcDbSymbolTableRecord
100
AcDbTextStyleTableRecord
  2
Standard
 70
0
 40
2.5
 41
1.0
 50
0.0
 71
0
 42
2.5
  3

  4

1001
ACAD
1000
txt
1071
0
  0
ENDTAB
  0
TABLE
  2
VIEW
  5
6
100
AcDbSymbolTable
 70
0
  0
ENDTAB
  0
TABLE
  2
UCS
  5
7
100
AcDbSymbolTable
 70
0
  0
ENDTAB
  0
TABLE
  2
APPID
  5
9
100
AcDbSymbolTable
 70
1
  0
APPID
  5
12
100
AcDbSymbolTableRecord
100
AcDbRegAppTableRecord
  2
ACAD
 70
0
 70
0
  0
ENDTAB
  0
TABLE
  2
DIMSTYLE
  5
A
100
AcDbSymbolTable
 70
1
100
AcDbDimStyleTable
 71
0
  0
DIMSTYLE
105
27
100
AcDbSymbolTableRecord
100
AcDbDimStyleTableRecord
  2
Standard
 41
1.0
 42
1.0
 43
3.75
 44
1.0
 70
0
 73
0
 74
0
 77
1
 78
8
140
1.0
141
2.5
143
0.03937007874016
147
1.0
171
3
172
1
271
2
272
2
274
3
278
44
283
0
284
8
340
47
  0
ENDTAB
  0
TABLE
  2
BLOCK_RECORD
  5
1
100
AcDbSymbolTable
 70
1
  0
BLOCK_RECORD
  5
1F
100
AcDbSymbolTableRecord
100
AcDbBlockTableRecord
  2
*Model_Space
340
22
  0
BLOCK_RECORD
  5
1B
100
AcDbSymbolTableRecord
100
AcDbBlockTableRecord
  2
*Paper_Space
340
1E
  0
BLOCK_RECORD
  5
23
100
AcDbSymbolTableRecord
100
AcDbBlockTableRecord
  2
*Paper_Space0
340
26
  0
BLOCK_RECORD
  5
48
100
AcDbSymbolTableRecord
100
AcDbBlockTableRecord
  2
myblock1
340
0
  0
BLOCK_RECORD
  5
49
100
AcDbSymbolTableRecord
100
AcDbBlockTableRecord
  2
myblock2
340
0
  0
ENDTAB
  0
ENDSEC
  0
SECTION
  2
BLOCKS
  0
BLOCK
  5
20
100
AcDbEntity
  8
0
100
AcDbBlockBegin
  2
*Model_Space
 70
0
 10
0.0
 20
0.0
 30
0.0
  3
*Model_Space
  1

  0
ENDBLK
  5
21
100
AcDbEntity
  8
0
100
AcDbBlockEnd
  0
BLOCK
  5
1C
100
AcDbEntity
 67
1
  8
0
100
AcDbBlockBegin
  2
*Paper_Space
 70
0
 10
0.0
 20
0.0
 30
0.0
  3
*Paper_Space
  1

  0
ENDBLK
  5
1D
100
AcDbEntity
 67
1
  8
0
100
AcDbBlockEnd
  0
BLOCK
  5
24
100
AcDbEntity
  8
0
100
AcDbBlockBegin
  2
*Paper_Space0
 70
0
 10
0.0
 20
0.0
 30
0.0
  3
*Paper_Space0
  1

  0
ENDBLK
  5
25
100
AcDbEntity
  8
0
100
AcDbBlockEnd
  0
BLOCK
  5
4A
100
AcDbEntity
  8
0
100
AcDbBlockBegin
  2
myblock1
 70
0
 10
0.0
 20
0.0
 30
0.0
  3
myblock1
  1

  0
ENDBLK
  5
4B
100
AcDbEntity
  8
0
100
AcDbBlockEnd
  0
BLOCK
  5
4C
100
AcDbEntity
  8
0
100
AcDbBlockBegin
  2
myblock2
 70
0
 10
0.0
 20
0.0
 30
0.0
  3
myblock2
  1

  0
ENDBLK
  5
4D
100
AcDbEntity
  8
0
100
AcDbBlockEnd
  0
ENDSEC
  0
SECTION
  2
ENTITIES
  0
LWPOLYLINE
  5
4E
100
AcDbEntity
  8
0
 62
256
420
16777215
370
-1
 48
1.0
  6
CONTINUOUS
100
AcDbPolyline
 90
2
 70
0
 10
387.74996948242187
 20
298.47500610351562
 30
0.0
 10
377.27496337890625
 20
280.375
 30
0.0
  0
LWPOLYLINE
  5
4F
100
AcDbEntity
  8
0
 62
256
420
16777215
370
-1
 48
1.0
  6
CONTINUOUS
100
AcDbPolyline
 90
2
 70
0
 10
385.3499755859375
 20
298.47500610351562
 30
0.0
 10
374.87496948242187
 20
280.375
 30
0.0
  0
LWPOLYLINE
  5
50
100
AcDbEntity
  8
0
 62
256
420
16777215
370
-1
 48
1.0
  6
CONTINUOUS
100
AcDbPolyline
 90
2
 70
0
 10
382.94998168945312
 20
298.47500610351562
 30
0.0
 10
372.4749755859375
 20
280.375
 30
0.0
  0
LWPOLYLINE
  5
51
100
AcDbEntity
  8
0
 62
256
420
16777215
370
-1
 48
1.0
  6
CONTINUOUS
100
AcDbPolyline
 90
2
 70
0
 10
380.54995727539062
 20
298.47500610351562
 30
0.0
 10
370.07498168945312
 20
280.375
 30
0.0
  0
LWPOLYLINE
  5
52
100
AcDbEntity
  8
0
 62
256
420
16777215
370
-1
 48
1.0
  6
CONTINUOUS
100
AcDbPolyline
 90
2
 70
0
 10
378.04995727539062
 20
298.47500610351562
 30
0.0
 10
367.57498168945312
 20
280.375
 30
0.0
  0
LWPOLYLINE
  5
53
100
AcDbEntity
  8
0
 62
256
420
16777215
370
-1
 48
1.0
  6
CONTINUOUS
100
AcDbPolyline
 90
2
 70
0
 10
375.64996337890625
 20
298.47500610351562
 30
0.0
 10
365.17495727539062
 20
280.375
 30
0.0
  0
LWPOLYLINE
  5
54
100
AcDbEntity
  8
0
 62
256
420
16777215
370
-1
 48
1.0
  6
CONTINUOUS
100
AcDbPolyline
 90
2
 70
0
 10
373.2249755859375
 20
298.47500610351562
 30
0.0
 10
362.74996948242187
 20
280.375
 30
0.0
  0
LWPOLYLINE
  5
55
100
AcDbEntity
  8
0
 62
256
420
16777215
370
-1
 48
1.0
  6
CONTINUOUS
100
AcDbPolyline
 90
2
 70
0
 10
370.82498168945312
 20
298.47500610351562
 30
0.0
 10
360.3499755859375
 20
280.375
 30
0.0
  0
LWPOLYLINE
  5
56
100
AcDbEntity
  8
0
 62
256
420
16777215
370
-1
 48
1.0
  6
CONTINUOUS
100
AcDbPolyline
 90
2
 70
0
 10
368.39996337890625
 20
298.47500610351562
 30
0.0
 10
357.94998168945312
 20
280.375
 30
0.0
  0
LWPOLYLINE
  5
57
100
AcDbEntity
  8
0
 62
256
420
16777215
370
-1
 48
1.0
  6
CONTINUOUS
100
AcDbPolyline
 90
2
 70
0
 10
365.9749755859375
 20
298.47500610351562
 30
0.0
 10
355.49996948242187
 20
280.375
 30
0.0
  0
LWPOLYLINE
  5
58
100
AcDbEntity
  8
0
 62
256
420
16777215
370
-1
 48
1.0
  6
CONTINUOUS
100
AcDbPolyline
 90
2
 70
0
 10
363.57498168945312
 20
298.47500610351562
 30
0.0
 10
353.0999755859375
 20
280.375
 30
0.0
  0
LWPOLYLINE
  5
59
100
AcDbEntity
  8
0
 62
256
420
16777215
370
-1
 48
1.0
  6
CONTINUOUS
100
AcDbPolyline
 90
2
 70
0
 10
361.17495727539062
 20
298.47500610351562
 30
0.0
 10
350.69998168945312
 20
280.375
 30
0.0
  0
LWPOLYLINE
  5
5A
100
AcDbEntity
  8
0
 62
256
420
16777215
370
-1
 48
1.0
  6
CONTINUOUS
100
AcDbPolyline
 90
2
 70
0
 10
358.77496337890625
 20
298.47500610351562
 30
0.0
 10
348.29995727539062
 20
280.375
 30
0.0
  0
LWPOLYLINE
  5
5B
100
AcDbEntity
  8
0
 62
256
420
16777215
370
-1
 48
1.0
  6
CONTINUOUS
100
AcDbPolyline
 90
2
 70
0
 10
356.27496337890625
 20
298.47500610351562
 30
0.0
 10
345.79995727539062
 20
280.375
 30
0.0
  0
LWPOLYLINE
  5
5C
100
AcDbEntity
  8
0
 62
256
420
16777215
370
-1
 48
1.0
  6
CONTINUOUS
100
AcDbPolyline
 90
2
 70
0
 10
353.87496948242187
 20
298.47500610351562
 30
0.0
 10
343.39996337890625
 20
280.375
 30
0.0
  0
LWPOLYLINE
  5
5D
100
AcDbEntity
  8
0
 62
256
420
16777215
370
-1
 48
1.0
  6
CONTINUOUS
100
AcDbPolyline
 90
2
 70
0
 10
351.44998168945312
 20
298.47500610351562
 30
0.0
 10
340.9749755859375
 20
280.375
 30
0.0
  0
LWPOLYLINE
  5
5E
100
AcDbEntity
  8
0
 62
256
420
16777215
370
-1
 48
1.0
  6
CONTINUOUS
100
AcDbPolyline
 90
2
 70
0
 10
349.04995727539062
 20
298.47500610351562
 30
0.0
 10
338.57498168945312
 20
280.375
 30
0.0
  0
LWPOLYLINE
  5
5F
100
AcDbEntity
  8
0
 62
256
420
16777215
370
-1
 48
1.0
  6
CONTINUOUS
100
AcDbPolyline
 90
2
 70
0
 10
346.64996337890625
 20
298.47500610351562
 30
0.0
 10
336.17495727539062
 20
280.375
 30
0.0
  0
LWPOLYLINE
  5
60
100
AcDbEntity
  8
0
 62
256
420
16777215
370
-1
 48
1.0
  6
CONTINUOUS
100
AcDbPolyline
 90
2
 70
0
 10
344.19998168945312
 20
298.47500610351562
 30
0.0
 10
333.7249755859375
 20
280.375
 30
0.0
  0
LWPOLYLINE
  5
61
100
AcDbEntity
  8
0
 62
256
420
16777215
370
-1
 48
1.0
  6
CONTINUOUS
100
AcDbPolyline
 90
2
 70
0
 10
341.79995727539062
 20
298.47500610351562
 30
0.0
 10
331.32498168945312
 20
280.375
 30
0.0
  0
LWPOLYLINE
  5
62
100
AcDbEntity
  8
0
 62
256
420
16777215
370
-1
 48
1.0
  6
CONTINUOUS
100
AcDbPolyline
 90
2
 70
0
 10
339.39996337890625
 20
298.47500610351562
 30
0.0
 10
328.92495727539062
 20
280.375
 30
0.0
  0
LWPOLYLINE
  5
63
100
AcDbEntity
  8
0
 62
256
420
16777215
370
-1
 48
1.0
  6
CONTINUOUS
100
AcDbPolyline
 90
2
 70
0
 10
336.99996948242187
 20
298.47500610351562
 30
0.0
 10
326.52496337890625
 20
280.375
 30
0.0
  0
LWPOLYLINE
  5
64
100
AcDbEntity
  8
0
 62
256
420
16777215
370
-1
 48
1.0
  6
CONTINUOUS
100
AcDbPolyline
 90
2
 70
0
 10
334.49996948242187
 20
298.47500610351562
 30
0.0
 10
324.02496337890625
 20
280.375
 30
0.0
  0
LWPOLYLINE
  5
65
100
AcDbEntity
  8
0
 62
256
420
16777215
370
-1
 48
1.0
  6
CONTINUOUS
100
AcDbPolyline
 90
2
 70
0
 10
332.0999755859375
 20
298.47500610351562
 30
0.0
 10
321.62496948242187
 20
280.375
 30
0.0
  0
LWPOLYLINE
  5
66
100
AcDbEntity
  8
0
 62
256
420
16777215
370
-1
 48
1.0
  6
CONTINUOUS
100
AcDbPolyline
 90
2
 70
0
 10
329.67495727539062
 20
298.47500610351562
 30
0.0
 10
319.19998168945312
 20
280.375
 30
0.0
  0
LWPOLYLINE
  5
67
100
AcDbEntity
  8
0
 62
256
420
16777215
370
-1
 48
1.0
  6
CONTINUOUS
100
AcDbPolyline
 90
2
 70
0
 10
327.27496337890625
 20
298.47500610351562
 30
0.0
 10
316.79995727539062
 20
280.375
 30
0.0
  0
LWPOLYLINE
  5
68
100
AcDbEntity
  8
0
 62
256
420
16777215
370
-1
 48
1.0
  6
CONTINUOUS
100
AcDbPolyline
 90
2
 70
0
 10
324.87496948242187
 20
298.47500610351562
 30
0.0
 10
314.39996337890625
 20
280.375
 30
0.0
  0
LWPOLYLINE
  5
69
100
AcDbEntity
  8
0
 62
256
420
16777215
370
-1
 48
1.0
  6
CONTINUOUS
100
AcDbPolyline
 90
2
 70
0
 10
400.074951171875
 20
319.8499755859375
 30
0.0
 10
389.62496948242187
 20
301.7249755859375
 30
0.0
  0
LWPOLYLINE
  5
6A
100
AcDbEntity
  8
0
 62
256
420
16777215
370
-1
 48
1.0
  6
CONTINUOUS
100
AcDbPolyline
 90
2
 70
0
 10
397.67495727539062
 20
319.8499755859375
 30
0.0
 10
387.2249755859375
 20
301.7249755859375
 30
0.0
  0
LWPOLYLINE
  5
6B
100
AcDbEntity
  8
0
 62
256
420
16777215
370
-1
 48
1.0
  6
CONTINUOUS
100
AcDbPolyline
 90
2
 70
0
 10
395.27496337890625
 20
319.8499755859375
 30
0.0
 10
384.82498168945312
 20
301.7249755859375
 30
0.0
  0
LWPOLYLINE
  5
6C
100
AcDbEntity
  8
0
 62
256
420
16777215
370
-1
 48
1.0
  6
CONTINUOUS
100
AcDbPolyline
 90
2
 70
0
 10
392.87496948242187
 20
319.8499755859375
 30
0.0
 10
382.42495727539062
 20
301.7249755859375
 30
0.0
  0
LWPOLYLINE
  5
6D
100
AcDbEntity
  8
0
 62
256
420
16777215
370
-1
 48
1.0
  6
CONTINUOUS
100
AcDbPolyline
 90
2
 70
0
 10
390.37496948242187
 20
319.8499755859375
 30
0.0
 10
379.92495727539062
 20
301.7249755859375
 30
0.0
  0
LWPOLYLINE
  5
6E
100
AcDbEntity
  8
0
 62
256
420
16777215
370
-1
 48
1.0
  6
CONTINUOUS
100
AcDbPolyline
 90
2
 70
0
 10
387.9749755859375
 20
319.8499755859375
 30
0.0
 10
377.52496337890625
 20
301.7249755859375
 30
0.0
  0
LWPOLYLINE
  5
6F
100
AcDbEntity
  8
0
 62
256
420
16777215
370
-1
 48
1.0
  6
CONTINUOUS
100
AcDbPolyline
 90
2
 70
0
 10
385.54995727539062
 20
319.8499755859375
 30
0.0
 10
375.0999755859375
 20
301.7249755859375
 30
0.0
  0
LWPOLYLINE
  5
70
100
AcDbEntity
  8
0
 62
256
420
16777215
370
-1
 48
1.0
  6
CONTINUOUS
100
AcDbPolyline
 90
2
 70
0
 10
383.14996337890625
 20
319.8499755859375
 30
0.0
 10
372.69998168945312
 20
301.7249755859375
 30
0.0
  0
LWPOLYLINE
  5
71
100
AcDbEntity
  8
0
 62
256
420
16777215
370
-1
 48
1.0
  6
CONTINUOUS
100
AcDbPolyline
 90
2
 70
0
 10
380.74996948242187
 20
319.8499755859375
 30
0.0
 10
370.27496337890625
 20
301.7249755859375
 30
0.0
  0
LWPOLYLINE
  5
72
100
AcDbEntity
  8
0
 62
256
420
16777215
370
-1
 48
1.0
  6
CONTINUOUS
100
AcDbPolyline
 90
2
 70
0
 10
378.29995727539062
 20
319.8499755859375
 30
0.0
 10
367.8499755859375
 20
301.7249755859375
 30
0.0
  0
LWPOLYLINE
  5
73
100
AcDbEntity
  8
0
 62
256
420
16777215
370
-1
 48
1.0
  6
CONTINUOUS
100
AcDbPolyline
 90
2
 70
0
 10
375.89996337890625
 20
319.8499755859375
 30
0.0
 10
365.44998168945312
 20
301.7249755859375
 30
0.0
  0
LWPOLYLINE
  5
74
100
AcDbEntity
  8
0
 62
256
420
16777215
370
-1
 48
1.0
  6
CONTINUOUS
100
AcDbPolyline
 90
2
 70
0
 10
373.49996948242187
 20
319.8499755859375
 30
0.0
 10
363.04995727539062
 20
301.7249755859375
 30
0.0
  0
LWPOLYLINE
  5
75
100
AcDbEntity
  8
0
 62
256
420
16777215
370
-1
 48
1.0
  6
CONTINUOUS
100
AcDbPolyline
 90
2
 70
0
 10
371.0999755859375
 20
319.8499755859375
 30
0.0
 10
360.64996337890625
 20
301.7249755859375
 30
0.0
  0
LWPOLYLINE
  5
76
100
AcDbEntity
  8
0
 62
256
420
16777215
370
-1
 48
1.0
  6
CONTINUOUS
100
AcDbPolyline
 90
2
 70
0
 10
368.5999755859375
 20
319.8499755859375
 30
0.0
 10
358.14996337890625
 20
301.7249755859375
 30
0.0
  0
LWPOLYLINE
  5
77
100
AcDbEntity
  8
0
 62
256
420
16777215
370
-1
 48
1.0
  6
CONTINUOUS
100
AcDbPolyline
 90
2
 70
0
 10
366.19998168945312
 20
319.8499755859375
 30
0.0
 10
355.74996948242187
 20
301.7249755859375
 30
0.0
  0
LWPOLYLINE
  5
78
100
AcDbEntity
  8
0
 62
256
420
16777215
370
-1
 48
1.0
  6
CONTINUOUS
100
AcDbPolyline
 90
2
 70
0
 10
363.77496337890625
 20
319.8499755859375
 30
0.0
 10
353.32498168945312
 20
301.7249755859375
 30
0.0
  0
LWPOLYLINE
  5
79
100
AcDbEntity
  8
0
 62
256
420
16777215
370
-1
 48
1.0
  6
CONTINUOUS
100
AcDbPolyline
 90
2
 70
0
 10
361.37496948242187
 20
319.8499755859375
 30
0.0
 10
350.92495727539062
 20
301.7249755859375
 30
0.0
  0
LWPOLYLINE
  5
7A
100
AcDbEntity
  8
0
 62
256
420
16777215
370
-1
 48
1.0
  6
CONTINUOUS
100
AcDbPolyline
 90
2
 70
0
 10
358.9749755859375
 20
319.8499755859375
 30
0.0
 10
348.49996948242187
 20
301.7249755859375
 30
0.0
  0
LWPOLYLINE
  5
7B
100
AcDbEntity
  8
0
 62
256
420
16777215
370
-1
 48
1.0
  6
CONTINUOUS
100
AcDbPolyline
 90
2
 70
0
 10
356.52496337890625
 20
319.8499755859375
 30
0.0
 10
346.07498168945312
 20
301.7249755859375
 30
0.0
  0
LWPOLYLINE
  5
7C
100
AcDbEntity
  8
0
 62
256
420
16777215
370
-1
 48
1.0
  6
CONTINUOUS
100
AcDbPolyline
 90
2
 70
0
 10
354.12496948242187
 20
319.8499755859375
 30
0.0
 10
343.67495727539062
 20
301.7249755859375
 30
0.0
  0
LWPOLYLINE
  5
7D
100
AcDbEntity
  8
0
 62
256
420
16777215
370
-1
 48
1.0
  6
CONTINUOUS
100
AcDbPolyline
 90
2
 70
0
 10
351.7249755859375
 20
319.8499755859375
 30
0.0
 10
341.27496337890625
 20
301.7249755859375
 30
0.0
  0
LWPOLYLINE
  5
7E
100
AcDbEntity
  8
0
 62
256
420
16777215
370
-1
 48
1.0
  6
CONTINUOUS
100
AcDbPolyline
 90
2
 70
0
 10
349.32498168945312
 20
319.8499755859375
 30
0.0
 10
338.87496948242187
 20
301.7249755859375
 30
0.0
  0
LWPOLYLINE
  5
7F
100
AcDbEntity
  8
0
 62
256
420
16777215
370
-1
 48
1.0
  6
CONTINUOUS
100
AcDbPolyline
 90
2
 70
0
 10
346.82498168945312
 20
319.8499755859375
 30
0.0
 10
336.37496948242187
 20
301.7249755859375
 30
0.0
  0
LWPOLYLINE
  5
80
100
AcDbEntity
  8
0
 62
256
420
16777215
370
-1
 48
1.0
  6
CONTINUOUS
100
AcDbPolyline
 90
2
 70
0
 10
344.42495727539062
 20
319.8499755859375
 30
0.0
 10
333.9749755859375
 20
301.7249755859375
 30
0.0
  0
LWPOLYLINE
  5
81
100
AcDbEntity
  8
0
 62
256
420
16777215
370
-1
 48
1.0
  6
CONTINUOUS
100
AcDbPolyline
 90
2
 70
0
 10
341.99996948242187
 20
319.8499755859375
 30
0.0
 10
331.54995727539062
 20
301.7249755859375
 30
0.0
  0
LWPOLYLINE
  5
82
100
AcDbEntity
  8
0
 62
256
420
16777215
370
-1
 48
1.0
  6
CONTINUOUS
100
AcDbPolyline
 90
2
 70
0
 10
339.5999755859375
 20
319.8499755859375
 30
0.0
 10
329.14996337890625
 20
301.7249755859375
 30
0.0
  0
LWPOLYLINE
  5
83
100
AcDbEntity
  8
0
 62
256
420
16777215
370
-1
 48
1.0
  6
CONTINUOUS
100
AcDbPolyline
 90
2
 70
0
 10
337.19998168945312
 20
319.8499755859375
 30
0.0
 10
326.74996948242187
 20
301.7249755859375
 30
0.0
  0
LWPOLYLINE
  5
84
100
AcDbEntity
  8
0
 62
256
420
16777215
370
-1
 48
1.0
  6
CONTINUOUS
100
AcDbPolyline
 90
2
 70
0
 10
398.074951171875
 20
318.4749755859375
 30
0.0
 10
377.69998168945312
 20
283.17498779296875
 30
0.0
  0
LWPOLYLINE
  5
85
100
AcDbEntity
  8
0
 62
256
420
16777215
370
-1
 48
1.0
  6
CONTINUOUS
100
AcDbPolyline
 90
2
 70
0
 10
395.67495727539062
 20
318.4749755859375
 30
0.0
 10
375.29995727539062
 20
283.17498779296875
 30
0.0
  0
LWPOLYLINE
  5
86
100
AcDbEntity
  8
0
 62
256
420
16777215
370
-1
 48
1.0
  6
CONTINUOUS
100
AcDbPolyline
 90
2
 70
0
 10
393.27496337890625
 20
318.4749755859375
 30
0.0
 10
372.89996337890625
 20
283.17498779296875
 30
0.0
  0
LWPOLYLINE
  5
87
100
AcDbEntity
  8
0
 62
256
420
16777215
370
-1
 48
1.0
  6
CONTINUOUS
100
AcDbPolyline
 90
2
 70
0
 10
390.87496948242187
 20
318.4749755859375
 30
0.0
 10
370.49996948242187
 20
283.17498779296875
 30
0.0
  0
LWPOLYLINE
  5
88
100
AcDbEntity
  8
0
 62
256
420
16777215
370
-1
 48
1.0
  6
CONTINUOUS
100
AcDbPolyline
 90
2
 70
0
 10
388.37496948242187
 20
318.4749755859375
 30
0.0
 10
367.99996948242187
 20
283.17498779296875
 30
0.0
  0
LWPOLYLINE
  5
89
100
AcDbEntity
  8
0
 62
256
420
16777215
370
-1
 48
1.0
  6
CONTINUOUS
100
AcDbPolyline
 90
2
 70
0
 10
385.9749755859375
 20
318.4749755859375
 30
0.0
 10
365.5999755859375
 20
283.17498779296875
 30
0.0
  0
LWPOLYLINE
  5
8A
100
AcDbEntity
  8
0
 62
256
420
16777215
370
-1
 48
1.0
  6
CONTINUOUS
100
AcDbPolyline
 90
2
 70
0
 10
383.54995727539062
 20
318.4749755859375
 30
0.0
 10
363.17495727539062
 20
283.17498779296875
 30
0.0
  0
LWPOLYLINE
  5
8B
100
AcDbEntity
  8
0
 62
256
420
16777215
370
-1
 48
1.0
  6
CONTINUOUS
100
AcDbPolyline
 90
2
 70
0
 10
381.14996337890625
 20
318.4749755859375
 30
0.0
 10
360.77496337890625
 20
283.17498779296875
 30
0.0
  0
LWPOLYLINE
  5
8C
100
AcDbEntity
  8
0
 62
256
420
16777215
370
-1
 48
1.0
  6
CONTINUOUS
100
AcDbPolyline
 90
2
 70
0
 10
378.74996948242187
 20
318.4749755859375
 30
0.0
 10
358.37496948242187
 20
283.17498779296875
 30
0.0
  0
LWPOLYLINE
  5
8D
100
AcDbEntity
  8
0
 62
256
420
16777215
370
-1
 48
1.0
  6
CONTINUOUS
100
AcDbPolyline
 90
2
 70
0
 10
376.29995727539062
 20
318.4749755859375
 30
0.0
 10
355.92495727539062
 20
283.17498779296875
 30
0.0
  0
LWPOLYLINE
  5
8E
100
AcDbEntity
  8
0
 62
256
420
16777215
370
-1
 48
1.0
  6
CONTINUOUS
100
AcDbPolyline
 90
2
 70
0
 10
373.89996337890625
 20
318.4749755859375
 30
0.0
 10
353.52496337890625
 20
283.17498779296875
 30
0.0
  0
LWPOLYLINE
  5
8F
100
AcDbEntity
  8
0
 62
256
420
16777215
370
-1
 48
1.0
  6
CONTINUOUS
100
AcDbPolyline
 90
2
 70
0
 10
371.49996948242187
 20
318.4749755859375
 30
0.0
 10
351.12496948242187
 20
283.17498779296875
 30
0.0
  0
LWPOLYLINE
  5
90
100
AcDbEntity
  8
0
 62
256
420
16777215
370
-1
 48
1.0
  6
CONTINUOUS
100
AcDbPolyline
 90
2
 70
0
 10
369.0999755859375
 20
318.4749755859375
 30
0.0
 10
348.7249755859375
 20
283.17498779296875
 30
0.0
  0
LWPOLYLINE
  5
91
100
AcDbEntity
  8
0
 62
256
420
16777215
370
-1
 48
1.0
  6
CONTINUOUS
100
AcDbPolyline
 90
2
 70
0
 10
366.5999755859375
 20
318.4749755859375
 30
0.0
 10
346.2249755859375
 20
283.17498779296875
 30
0.0
  0
LWPOLYLINE
  5
92
100
AcDbEntity
  8
0
 62
256
420
16777215
370
-1
 48
1.0
  6
CONTINUOUS
100
AcDbPolyline
 90
2
 70
0
 10
364.19998168945312
 20
318.4749755859375
 30
0.0
 10
343.82498168945312
 20
283.17498779296875
 30
0.0
  0
LWPOLYLINE
  5
93
100
AcDbEntity
  8
0
 62
256
420
16777215
370
-1
 48
1.0
  6
CONTINUOUS
100
AcDbPolyline
 90
2
 70
0
 10
361.77496337890625
 20
318.4749755859375
 30
0.0
 10
341.39996337890625
 20
283.17498779296875
 30
0.0
  0
LWPOLYLINE
  5
94
100
AcDbEntity
  8
0
 62
256
420
16777215
370
-1
 48
1.0
  6
CONTINUOUS
100
AcDbPolyline
 90
2
 70
0
 10
359.37496948242187
 20
318.4749755859375
 30
0.0
 10
338.99996948242187
 20
283.17498779296875
 30
0.0
  0
LWPOLYLINE
  5
95
100
AcDbEntity
  8
0
 62
256
420
16777215
370
-1
 48
1.0
  6
CONTINUOUS
100
AcDbPolyline
 90
2
 70
0
 10
356.9749755859375
 20
318.4749755859375
 30
0.0
 10
336.5999755859375
 20
283.17498779296875
 30
0.0
  0
LWPOLYLINE
  5
96
100
AcDbEntity
  8
0
 62
256
420
16777215
370
-1
 48
1.0
  6
CONTINUOUS
100
AcDbPolyline
 90
2
 70
0
 10
354.52496337890625
 20
318.4749755859375
 30
0.0
 10
334.14996337890625
 20
283.17498779296875
 30
0.0
  0
LWPOLYLINE
  5
97
100
AcDbEntity
  8
0
 62
256
420
16777215
370
-1
 48
1.0
  6
CONTINUOUS
100
AcDbPolyline
 90
2
 70
0
 10
352.12496948242187
 20
318.4749755859375
 30
0.0
 10
331.74996948242187
 20
283.17498779296875
 30
0.0
  0
LWPOLYLINE
  5
98
100
AcDbEntity
  8
0
 62
256
420
16777215
370
-1
 48
1.0
  6
CONTINUOUS
100
AcDbPolyline
 90
2
 70
0
 10
349.7249755859375
 20
318.4749755859375
 30
0.0
 10
329.3499755859375
 20
283.17498779296875
 30
0.0
  0
LWPOLYLINE
  5
99
100
AcDbEntity
  8
0
 62
256
420
16777215
370
-1
 48
1.0
  6
CONTINUOUS
100
AcDbPolyline
 90
2
 70
0
 10
347.32498168945312
 20
318.4749755859375
 30
0.0
 10
326.94998168945312
 20
283.17498779296875
 30
0.0
  0
LWPOLYLINE
  5
9A
100
AcDbEntity
  8
0
 62
256
420
16777215
370
-1
 48
1.0
  6
CONTINUOUS
100
AcDbPolyline
 90
2
 70
0
 10
344.82498168945312
 20
318.4749755859375
 30
0.0
 10
324.44998168945312
 20
283.17498779296875
 30
0.0
  0
LWPOLYLINE
  5
9B
100
AcDbEntity
  8
0
 62
256
420
16777215
370
-1
 48
1.0
  6
CONTINUOUS
100
AcDbPolyline
 90
2
 70
0
 10
342.42495727539062
 20
318.4749755859375
 30
0.0
 10
322.04995727539062
 20
283.17498779296875
 30
0.0
  0
LWPOLYLINE
  5
9C
100
AcDbEntity
  8
0
 62
256
420
16777215
370
-1
 48
1.0
  6
CONTINUOUS
100
AcDbPolyline
 90
2
 70
0
 10
339.99996948242187
 20
318.4749755859375
 30
0.0
 10
319.62496948242187
 20
283.17498779296875
 30
0.0
  0
LWPOLYLINE
  5
9D
100
AcDbEntity
  8
0
 62
256
420
16777215
370
-1
 48
1.0
  6
CONTINUOUS
100
AcDbPolyline
 90
2
 70
0
 10
337.5999755859375
 20
318.4749755859375
 30
0.0
 10
317.2249755859375
 20
283.17498779296875
 30
0.0
  0
LWPOLYLINE
  5
9E
100
AcDbEntity
  8
0
 62
256
420
16777215
370
-1
 48
1.0
  6
CONTINUOUS
100
AcDbPolyline
 90
2
 70
0
 10
335.19998168945312
 20
318.4749755859375
 30
0.0
 10
314.82498168945312
 20
283.17498779296875
 30
0.0
  0
LWPOLYLINE
  5
9F
100
AcDbEntity
  8
0
 62
256
420
16777215
370
-1
 48
1.0
  6
CONTINUOUS
100
AcDbPolyline
 90
17
 70
0
 10
603.3499755859375
 20
288.4000244140625
 30
0.0
 10
604.0499267578125
 20
289.42501831054687
 30
0.0
 10
604.99993896484375
 20
290.20001220703125
 30
0.0
 10
606.12493896484375
 20
290.70001220703125
 30
0.0
 10
607.3499755859375
 20
290.875
 30
0.0
 10
609.074951171875
 20
290.5250244140625
 30
0.0
 10
610.4749755859375
 20
289.57501220703125
 30
0.0
 10
611.4249267578125
 20
288.1500244140625
 30
0.0
 10
611.77496337890625
 20
286.42501831054687
 30
0.0
 10
611.4249267578125
 20
284.70001220703125
 30
0.0
 10
610.4749755859375
 20
283.2750244140625
 30
0.0
 10
609.074951171875
 20
282.32501220703125
 30
0.0
 10
607.3499755859375
 20
281.97500610351562
 30
0.0
 10
606.12493896484375
 20
282.1500244140625
 30
0.0
 10
604.99993896484375
 20
282.6500244140625
 30
0.0
 10
604.0499267578125
 20
283.42501831054687
 30
0.0
 10
603.3499755859375
 20
284.45001220703125
 30
0.0
  0
LWPOLYLINE
  5
A0
100
AcDbEntity
  8
0
 62
256
420
16777215
370
-1
 48
1.0
  6
CONTINUOUS
100
AcDbPolyline
 90
5
 70
0
 10
603.3499755859375
 20
284.4749755859375
 30
0.0
 10
600.12493896484375
 20
284.4749755859375
 30
0.0
 10
600.0999755859375
 20
280.14999389648437
 30
0.0
 10
299.87496948242187
 20
280.14999389648437
 30
0.0
 10
299.87496948242187
 20
284.77499389648437
 30
0.0
  0
LWPOLYLINE
  5
A1
100
AcDbEntity
  8
0
 62
256
420
16777215
370
-1
 48
1.0
  6
CONTINUOUS
100
AcDbPolyline
 90
3
 70
0
 10
603.3499755859375
 20
288.37496948242187
 30
0.0
 10
600.12493896484375
 20
288.37496948242187
 30
0.0
 10
600.0999755859375
 20
298.14999389648437
 30
0.0
  0
LWPOLYLINE
  5
A2
100
AcDbEntity
  8
0
 62
256
420
16777215
370
-1
 48
1.0
  6
CONTINUOUS
100
AcDbPolyline
 90
20
 70
0
 10
603.3499755859375
 20
311.449951171875
 30
0.0
 10
604.0499267578125
 20
310.42495727539062
 30
0.0
 10
604.99993896484375
 20
309.64996337890625
 30
0.0
 10
606.0999755859375
 20
309.14996337890625
 30
0.0
 10
607.324951171875
 20
308.97494506835937
 30
0.0
 10
609.074951171875
 20
309.324951171875
 30
0.0
 10
610.4749755859375
 20
310.27496337890625
 30
0.0
 10
611.4249267578125
 20
311.67495727539062
 30
0.0
 10
611.77496337890625
 20
313.42495727539062
 30
0.0
 10
611.4249267578125
 20
315.14996337890625
 30
0.0
 10
610.4749755859375
 20
316.54995727539063
 30
0.0
 10
609.074951171875
 20
317.49993896484375
 30
0.0
 10
607.324951171875
 20
317.84994506835937
 30
0.0
 10
606.0999755859375
 20
317.67495727539062
 30
0.0
 10
604.99993896484375
 20
317.199951171875
 30
0.0
 10
604.0499267578125
 20
316.39996337890625
 30
0.0
 10
603.3499755859375
 20
315.37493896484375
 30
0.0
 10
600.0999755859375
 20
315.37493896484375
 30
0.0
 10
600.0999755859375
 20
319.824951171875
 30
0.0
 10
600.0999755859375
 20
315.37493896484375
 30
0.0
  0
LWPOLYLINE
  5
A3
100
AcDbEntity
  8
0
 62
256
420
16777215
370
-1
 48
1.0
  6
CONTINUOUS
100
AcDbPolyline
 90
3
 70
0
 10
603.3499755859375
 20
311.4749755859375
 30
0.0
 10
600.0999755859375
 20
311.4749755859375
 30
0.0
 10
600.0999755859375
 20
301.7249755859375
 30
0.0
  0
LWPOLYLINE
  5
A4
100
AcDbEntity
  8
0
 62
256
420
16777215
370
-1
 48
1.0
  6
CONTINUOUS
100
AcDbPolyline
 90
17
 70
0
 10
296.64996337890625
 20
302.0250244140625
 30
0.0
 10
295.94998168945312
 20
303.05001831054687
 30
0.0
 10
294.99996948242187
 20
303.82501220703125
 30
0.0
 10
293.87496948242187
 20
304.32501220703125
 30
0.0
 10
292.64996337890625
 20
304.5
 30
0.0
 10
290.92495727539062
 20
304.1500244140625
 30
0.0
 10
289.52496337890625
 20
303.20001220703125
 30
0.0
 10
288.57498168945312
 20
301.7750244140625
 30
0.0
 10
288.2249755859375
 20
300.05001831054687
 30
0.0
 10
288.57498168945312
 20
298.32501220703125
 30
0.0
 10
289.52496337890625
 20
296.9000244140625
 30
0.0
 10
290.92495727539062
 20
295.95001220703125
 30
0.0
 10
292.64996337890625
 20
295.60000610351562
 30
0.0
 10
293.87496948242187
 20
295.7750244140625
 30
0.0
 10
294.99996948242187
 20
296.2750244140625
 30
0.0
 10
295.94998168945312
 20
297.05001831054687
 30
0.0
 10
296.64996337890625
 20
298.07501220703125
 30
0.0
  0
LWPOLYLINE
  5
A5
100
AcDbEntity
  8
0
 62
256
420
16777215
370
-1
 48
1.0
  6
CONTINUOUS
100
AcDbPolyline
 90
21
 70
0
 10
600.14996337890625
 20
301.72500610351562
 30
0.0
 10
596.7249755859375
 20
301.72500610351562
 30
0.0
 10
596.699951171875
 20
301.7750244140625
 30
0.0
 10
596.02496337890625
 20
302.7750244140625
 30
0.0
 10
595.12493896484375
 20
303.5250244140625
 30
0.0
 10
594.0499267578125
 20
304.0250244140625
 30
0.0
 10
592.8499755859375
 20
304.20001220703125
 30
0.0
 10
591.199951171875
 20
303.85000610351562
 30
0.0
 10
589.8499755859375
 20
302.95001220703125
 30
0.0
 10
588.9249267578125
 20
301.60000610351562
 30
0.0
 10
588.5999755859375
 20
299.92501831054687
 30
0.0
 10
588.9249267578125
 20
298.2750244140625
 30
0.0
 10
589.8499755859375
 20
296.92501831054687
 30
0.0
 10
591.199951171875
 20
296.0
 30
0.0
 10
592.8499755859375
 20
295.67501831054687
 30
0.0
 10
594.0499267578125
 20
295.82501220703125
 30
0.0
 10
595.12493896484375
 20
296.32501220703125
 30
0.0
 10
596.02496337890625
 20
297.10000610351562
 30
0.0
 10
596.699951171875
 20
298.10000610351562
 30
0.0
 10
596.7249755859375
 20
298.1500244140625
 30
0.0
 10
600.14996337890625
 20
298.1500244140625
 30
0.0
  0
LWPOLYLINE
  5
A6
100
AcDbEntity
  8
0
 62
256
420
16777215
370
-1
 48
1.0
  6
CONTINUOUS
100
AcDbPolyline
 90
3
 70
0
 10
296.64996337890625
 20
298.10000610351562
 30
0.0
 10
299.87496948242187
 20
298.10000610351562
 30
0.0
 10
299.87496948242187
 20
288.375
 30
0.0
  0
LWPOLYLINE
  5
A7
100
AcDbEntity
  8
0
 62
256
420
16777215
370
-1
 48
1.0
  6
CONTINUOUS
100
AcDbPolyline
 90
3
 70
0
 10
296.64996337890625
 20
301.99996948242187
 30
0.0
 10
299.87496948242187
 20
301.99996948242187
 30
0.0
 10
299.87496948242187
 20
311.74996948242187
 30
0.0
  0
LWPOLYLINE
  5
A8
100
AcDbEntity
  8
0
 62
256
420
16777215
370
-1
 48
1.0
  6
CONTINUOUS
100
AcDbPolyline
 90
21
 70
0
 10
299.82498168945312
 20
284.77499389648437
 30
0.0
 10
303.24996948242187
 20
284.77499389648437
 30
0.0
 10
303.27496337890625
 20
284.7249755859375
 30
0.0
 10
303.94998168945312
 20
283.7249755859375
 30
0.0
 10
304.8499755859375
 20
282.9749755859375
 30
0.0
 10
305.92495727539062
 20
282.4749755859375
 30
0.0
 10
307.12496948242187
 20
282.29998779296875
 30
0.0
 10
308.77496337890625
 20
282.64999389648438
 30
0.0
 10
310.12496948242187
 20
283.54998779296875
 30
0.0
 10
311.04995727539062
 20
284.92498779296875
 30
0.0
 10
311.37496948242187
 20
286.57498168945312
 30
0.0
 10
311.04995727539062
 20
288.2249755859375
 30
0.0
 10
310.12496948242187
 20
289.57498168945312
 30
0.0
 10
308.77496337890625
 20
290.49996948242187
 30
0.0
 10
307.12496948242187
 20
290.8499755859375
 30
0.0
 10
305.92495727539062
 20
290.67498779296875
 30
0.0
 10
304.8499755859375
 20
290.17498779296875
 30
0.0
 10
303.94998168945312
 20
289.42498779296875
 30
0.0
 10
303.27496337890625
 20
288.42498779296875
 30
0.0
 10
303.24996948242187
 20
288.37496948242187
 30
0.0
 10
299.82498168945312
 20
288.37496948242187
 30
0.0
  0
LWPOLYLINE
  5
A9
100
AcDbEntity
  8
0
 62
256
420
16777215
370
-1
 48
1.0
  6
CONTINUOUS
100
AcDbPolyline
 90
21
 70
0
 10
299.82498168945312
 20
311.74993896484375
 30
0.0
 10
303.24996948242187
 20
311.74993896484375
 30
0.0
 10
303.27496337890625
 20
311.699951171875
 30
0.0
 10
303.94998168945312
 20
310.699951171875
 30
0.0
 10
304.8499755859375
 20
309.92495727539062
 30
0.0
 10
305.92495727539062
 20
309.449951171875
 30
0.0
 10
307.12496948242187
 20
309.27496337890625
 30
0.0
 10
308.77496337890625
 20
309.59994506835937
 30
0.0
 10
310.12496948242187
 20
310.52496337890625
 30
0.0
 10
311.04995727539062
 20
311.87493896484375
 30
0.0
 10
311.37496948242187
 20
313.54995727539062
 30
0.0
 10
311.04995727539062
 20
315.199951171875
 30
0.0
 10
310.12496948242187
 20
316.54995727539063
 30
0.0
 10
308.77496337890625
 20
317.47494506835937
 30
0.0
 10
307.12496948242187
 20
317.79995727539062
 30
0.0
 10
305.92495727539062
 20
317.62493896484375
 30
0.0
 10
304.8499755859375
 20
317.14996337890625
 30
0.0
 10
303.94998168945312
 20
316.37493896484375
 30
0.0
 10
303.27496337890625
 20
315.37493896484375
 30
0.0
 10
303.24996948242187
 20
315.324951171875
 30
0.0
 10
299.82498168945312
 20
315.324951171875
 30
0.0
  0
LWPOLYLINE
  5
AA
100
AcDbEntity
  8
0
 62
256
420
16777215
370
-1
 48
1.0
  6
CONTINUOUS
100
AcDbPolyline
 90
3
 70
0
 10
299.87496948242187
 20
315.32498168945312
 30
0.0
 10
299.87496948242187
 20
319.82498168945312
 30
0.0
 10
600.0999755859375
 20
319.82498168945312
 30
0.0
  0
LWPOLYLINE
  5
AB
100
AcDbEntity
  8
0
 62
256
420
16777215
370
-1
 48
1.0
  6
CONTINUOUS
100
AcDbPolyline
 90
2
 70
0
 10
582.6749267578125
 20
298.47500610351562
 30
0.0
 10
572.199951171875
 20
280.375
 30
0.0
  0
LWPOLYLINE
  5
AC
100
AcDbEntity
  8
0
 62
256
420
16777215
370
-1
 48
1.0
  6
CONTINUOUS
100
AcDbPolyline
 90
2
 70
0
 10
580.27496337890625
 20
298.47500610351562
 30
0.0
 10
569.7999267578125
 20
280.375
 30
0.0
  0
LWPOLYLINE
  5
AD
100
AcDbEntity
  8
0
 62
256
420
16777215
370
-1
 48
1.0
  6
CONTINUOUS
100
AcDbPolyline
 90
2
 70
0
 10
577.87493896484375
 20
298.47500610351562
 30
0.0
 10
567.39996337890625
 20
280.375
 30
0.0
  0
LWPOLYLINE
  5
AE
100
AcDbEntity
  8
0
 62
256
420
16777215
370
-1
 48
1.0
  6
CONTINUOUS
100
AcDbPolyline
 90
2
 70
0
 10
575.4749755859375
 20
298.47500610351562
 30
0.0
 10
564.99993896484375
 20
280.375
 30
0.0
  0
LWPOLYLINE
  5
AF
100
AcDbEntity
  8
0
 62
256
420
16777215
370
-1
 48
1.0
  6
CONTINUOUS
100
AcDbPolyline
 90
2
 70
0
 10
572.9749755859375
 20
298.47500610351562
 30
0.0
 10
562.49993896484375
 20
280.375
 30
0.0
  0
LWPOLYLINE
  5
B0
100
AcDbEntity
  8
0
 62
256
420
16777215
370
-1
 48
1.0
  6
CONTINUOUS
100
AcDbPolyline
 90
2
 70
0
 10
570.574951171875
 20
298.47500610351562
 30
0.0
 10
560.0999755859375
 20
280.375
 30
0.0
  0
LWPOLYLINE
  5
B1
100
AcDbEntity
  8
0
 62
256
420
16777215
370
-1
 48
1.0
  6
CONTINUOUS
100
AcDbPolyline
 90
2
 70
0
 10
568.14996337890625
 20
298.47500610351562
 30
0.0
 10
557.699951171875
 20
280.375
 30
0.0
  0
LWPOLYLINE
  5
B2
100
AcDbEntity
  8
0
 62
256
420
16777215
370
-1
 48
1.0
  6
CONTINUOUS
100
AcDbPolyline
 90
2
 70
0
 10
565.74993896484375
 20
298.47500610351562
 30
0.0
 10
555.2999267578125
 20
280.375
 30
0.0
  0
LWPOLYLINE
  5
B3
100
AcDbEntity
  8
0
 62
256
420
16777215
370
-1
 48
1.0
  6
CONTINUOUS
100
AcDbPolyline
 90
2
 70
0
 10
563.3499755859375
 20
298.47500610351562
 30
0.0
 10
552.87493896484375
 20
280.375
 30
0.0
  0
LWPOLYLINE
  5
B4
100
AcDbEntity
  8
0
 62
256
420
16777215
370
-1
 48
1.0
  6
CONTINUOUS
100
AcDbPolyline
 90
2
 70
0
 10
560.89996337890625
 20
298.47500610351562
 30
0.0
 10
550.449951171875
 20
280.375
 30
0.0
  0
LWPOLYLINE
  5
B5
100
AcDbEntity
  8
0
 62
256
420
16777215
370
-1
 48
1.0
  6
CONTINUOUS
100
AcDbPolyline
 90
2
 70
0
 10
558.49993896484375
 20
298.47500610351562
 30
0.0
 10
548.0499267578125
 20
280.375
 30
0.0
  0
LWPOLYLINE
  5
B6
100
AcDbEntity
  8
0
 62
256
420
16777215
370
-1
 48
1.0
  6
CONTINUOUS
100
AcDbPolyline
 90
2
 70
0
 10
556.0999755859375
 20
298.47500610351562
 30
0.0
 10
545.64996337890625
 20
280.375
 30
0.0
  0
LWPOLYLINE
  5
B7
100
AcDbEntity
  8
0
 62
256
420
16777215
370
-1
 48
1.0
  6
CONTINUOUS
100
AcDbPolyline
 90
2
 70
0
 10
553.699951171875
 20
298.47500610351562
 30
0.0
 10
543.24993896484375
 20
280.375
 30
0.0
  0
LWPOLYLINE
  5
B8
100
AcDbEntity
  8
0
 62
256
420
16777215
370
-1
 48
1.0
  6
CONTINUOUS
100
AcDbPolyline
 90
2
 70
0
 10
551.199951171875
 20
298.47500610351562
 30
0.0
 10
540.74993896484375
 20
280.375
 30
0.0
  0
LWPOLYLINE
  5
B9
100
AcDbEntity
  8
0
 62
256
420
16777215
370
-1
 48
1.0
  6
CONTINUOUS
100
AcDbPolyline
 90
2
 70
0
 10
548.7999267578125
 20
298.47500610351562
 30
0.0
 10
538.3499755859375
 20
280.375
 30
0.0
  0
LWPOLYLINE
  5
BA
100
AcDbEntity
  8
0
 62
256
420
16777215
370
-1
 48
1.0
  6
CONTINUOUS
100
AcDbPolyline
 90
2
 70
0
 10
546.37493896484375
 20
298.47500610351562
 30
0.0
 10
535.9249267578125
 20
280.375
 30
0.0
  0
LWPOLYLINE
  5
BB
100
AcDbEntity
  8
0
 62
256
420
16777215
370
-1
 48
1.0
  6
CONTINUOUS
100
AcDbPolyline
 90
2
 70
0
 10
543.9749755859375
 20
298.47500610351562
 30
0.0
 10
533.52496337890625
 20
280.375
 30
0.0
  0
LWPOLYLINE
  5
BC
100
AcDbEntity
  8
0
 62
256
420
16777215
370
-1
 48
1.0
  6
CONTINUOUS
100
AcDbPolyline
 90
2
 70
0
 10
541.574951171875
 20
298.47500610351562
 30
0.0
 10
531.0999755859375
 20
280.375
 30
0.0
  0
LWPOLYLINE
  5
BD
100
AcDbEntity
  8
0
 62
256
420
16777215
370
-1
 48
1.0
  6
CONTINUOUS
100
AcDbPolyline
 90
2
 70
0
 10
539.12493896484375
 20
298.47500610351562
 30
0.0
 10
528.6749267578125
 20
280.375
 30
0.0
  0
LWPOLYLINE
  5
BE
100
AcDbEntity
  8
0
 62
256
420
16777215
370
-1
 48
1.0
  6
CONTINUOUS
100
AcDbPolyline
 90
2
 70
0
 10
536.7249755859375
 20
298.47500610351562
 30
0.0
 10
526.27496337890625
 20
280.375
 30
0.0
  0
LWPOLYLINE
  5
BF
100
AcDbEntity
  8
0
 62
256
420
16777215
370
-1
 48
1.0
  6
CONTINUOUS
100
AcDbPolyline
 90
2
 70
0
 10
534.324951171875
 20
298.47500610351562
 30
0.0
 10
523.87493896484375
 20
280.375
 30
0.0
  0
LWPOLYLINE
  5
C0
100
AcDbEntity
  8
0
 62
256
420
16777215
370
-1
 48
1.0
  6
CONTINUOUS
100
AcDbPolyline
 90
2
 70
0
 10
531.9249267578125
 20
298.47500610351562
 30
0.0
 10
521.4749755859375
 20
280.375
 30
0.0
  0
LWPOLYLINE
  5
C1
100
AcDbEntity
  8
0
 62
256
420
16777215
370
-1
 48
1.0
  6
CONTINUOUS
100
AcDbPolyline
 90
2
 70
0
 10
529.4249267578125
 20
298.47500610351562
 30
0.0
 10
518.9749755859375
 20
280.375
 30
0.0
  0
LWPOLYLINE
  5
C2
100
AcDbEntity
  8
0
 62
256
420
16777215
370
-1
 48
1.0
  6
CONTINUOUS
100
AcDbPolyline
 90
2
 70
0
 10
527.02496337890625
 20
298.47500610351562
 30
0.0
 10
516.574951171875
 20
280.375
 30
0.0
  0
LWPOLYLINE
  5
C3
100
AcDbEntity
  8
0
 62
256
420
16777215
370
-1
 48
1.0
  6
CONTINUOUS
100
AcDbPolyline
 90
2
 70
0
 10
524.5999755859375
 20
298.47500610351562
 30
0.0
 10
514.14996337890625
 20
280.375
 30
0.0
  0
LWPOLYLINE
  5
C4
100
AcDbEntity
  8
0
 62
256
420
16777215
370
-1
 48
1.0
  6
CONTINUOUS
100
AcDbPolyline
 90
2
 70
0
 10
522.199951171875
 20
298.47500610351562
 30
0.0
 10
511.74996948242187
 20
280.375
 30
0.0
  0
LWPOLYLINE
  5
C5
100
AcDbEntity
  8
0
 62
256
420
16777215
370
-1
 48
1.0
  6
CONTINUOUS
100
AcDbPolyline
 90
2
 70
0
 10
519.7999267578125
 20
298.47500610351562
 30
0.0
 10
509.324951171875
 20
280.375
 30
0.0
  0
LWPOLYLINE
  5
C6
100
AcDbEntity
  8
0
 62
256
420
16777215
370
-1
 48
1.0
  6
CONTINUOUS
100
AcDbPolyline
 90
2
 70
0
 10
594.99993896484375
 20
319.8499755859375
 30
0.0
 10
584.5499267578125
 20
301.7249755859375
 30
0.0
  0
LWPOLYLINE
  5
C7
100
AcDbEntity
  8
0
 62
256
420
16777215
370
-1
 48
1.0
  6
CONTINUOUS
100
AcDbPolyline
 90
2
 70
0
 10
592.5999755859375
 20
319.8499755859375
 30
0.0
 10
582.14996337890625
 20
301.7249755859375
 30
0.0
  0
LWPOLYLINE
  5
C8
100
AcDbEntity
  8
0
 62
256
420
16777215
370
-1
 48
1.0
  6
CONTINUOUS
100
AcDbPolyline
 90
2
 70
0
 10
590.199951171875
 20
319.8499755859375
 30
0.0
 10
579.74993896484375
 20
301.7249755859375
 30
0.0
  0
LWPOLYLINE
  5
C9
100
AcDbEntity
  8
0
 62
256
420
16777215
370
-1
 48
1.0
  6
CONTINUOUS
100
AcDbPolyline
 90
2
 70
0
 10
587.7999267578125
 20
319.8499755859375
 30
0.0
 10
577.3499755859375
 20
301.7249755859375
 30
0.0
  0
LWPOLYLINE
  5
CA
100
AcDbEntity
  8
0
 62
256
420
16777215
370
-1
 48
1.0
  6
CONTINUOUS
100
AcDbPolyline
 90
2
 70
0
 10
585.2999267578125
 20
319.8499755859375
 30
0.0
 10
574.8499755859375
 20
301.7249755859375
 30
0.0
  0
LWPOLYLINE
  5
CB
100
AcDbEntity
  8
0
 62
256
420
16777215
370
-1
 48
1.0
  6
CONTINUOUS
100
AcDbPolyline
 90
2
 70
0
 10
582.89996337890625
 20
319.8499755859375
 30
0.0
 10
572.449951171875
 20
301.7249755859375
 30
0.0
  0
LWPOLYLINE
  5
CC
100
AcDbEntity
  8
0
 62
256
420
16777215
370
-1
 48
1.0
  6
CONTINUOUS
100
AcDbPolyline
 90
2
 70
0
 10
580.49993896484375
 20
319.8499755859375
 30
0.0
 10
570.02496337890625
 20
301.7249755859375
 30
0.0
  0
LWPOLYLINE
  5
CD
100
AcDbEntity
  8
0
 62
256
420
16777215
370
-1
 48
1.0
  6
CONTINUOUS
100
AcDbPolyline
 90
2
 70
0
 10
578.0999755859375
 20
319.8499755859375
 30
0.0
 10
567.62493896484375
 20
301.7249755859375
 30
0.0
  0
LWPOLYLINE
  5
CE
100
AcDbEntity
  8
0
 62
256
420
16777215
370
-1
 48
1.0
  6
CONTINUOUS
100
AcDbPolyline
 90
2
 70
0
 10
575.6749267578125
 20
319.8499755859375
 30
0.0
 10
565.2249755859375
 20
301.7249755859375
 30
0.0
  0
LWPOLYLINE
  5
CF
100
AcDbEntity
  8
0
 62
256
420
16777215
370
-1
 48
1.0
  6
CONTINUOUS
100
AcDbPolyline
 90
2
 70
0
 10
573.24993896484375
 20
319.8499755859375
 30
0.0
 10
562.77496337890625
 20
301.7249755859375
 30
0.0
  0
LWPOLYLINE
  5
D0
100
AcDbEntity
  8
0
 62
256
420
16777215
370
-1
 48
1.0
  6
CONTINUOUS
100
AcDbPolyline
 90
2
 70
0
 10
570.8499755859375
 20
319.8499755859375
 30
0.0
 10
560.37493896484375
 20
301.7249755859375
 30
0.0
  0
LWPOLYLINE
  5
D1
100
AcDbEntity
  8
0
 62
256
420
16777215
370
-1
 48
1.0
  6
CONTINUOUS
100
AcDbPolyline
 90
2
 70
0
 10
568.449951171875
 20
319.8499755859375
 30
0.0
 10
557.9749755859375
 20
301.7249755859375
 30
0.0
  0
LWPOLYLINE
  5
D2
100
AcDbEntity
  8
0
 62
256
420
16777215
370
-1
 48
1.0
  6
CONTINUOUS
100
AcDbPolyline
 90
2
 70
0
 10
566.0499267578125
 20
319.8499755859375
 30
0.0
 10
555.574951171875
 20
301.7249755859375
 30
0.0
  0
LWPOLYLINE
  5
D3
100
AcDbEntity
  8
0
 62
256
420
16777215
370
-1
 48
1.0
  6
CONTINUOUS
100
AcDbPolyline
 90
2
 70
0
 10
563.5499267578125
 20
319.8499755859375
 30
0.0
 10
553.074951171875
 20
301.7249755859375
 30
0.0
  0
LWPOLYLINE
  5
D4
100
AcDbEntity
  8
0
 62
256
420
16777215
370
-1
 48
1.0
  6
CONTINUOUS
100
AcDbPolyline
 90
2
 70
0
 10
561.14996337890625
 20
319.8499755859375
 30
0.0
 10
550.6749267578125
 20
301.7249755859375
 30
0.0
  0
LWPOLYLINE
  5
D5
100
AcDbEntity
  8
0
 62
256
420
16777215
370
-1
 48
1.0
  6
CONTINUOUS
100
AcDbPolyline
 90
2
 70
0
 10
558.7249755859375
 20
319.8499755859375
 30
0.0
 10
548.24993896484375
 20
301.7249755859375
 30
0.0
  0
LWPOLYLINE
  5
D6
100
AcDbEntity
  8
0
 62
256
420
16777215
370
-1
 48
1.0
  6
CONTINUOUS
100
AcDbPolyline
 90
2
 70
0
 10
556.324951171875
 20
319.8499755859375
 30
0.0
 10
545.8499755859375
 20
301.7249755859375
 30
0.0
  0
LWPOLYLINE
  5
D7
100
AcDbEntity
  8
0
 62
256
420
16777215
370
-1
 48
1.0
  6
CONTINUOUS
100
AcDbPolyline
 90
2
 70
0
 10
553.89996337890625
 20
319.8499755859375
 30
0.0
 10
543.449951171875
 20
301.7249755859375
 30
0.0
  0
LWPOLYLINE
  5
D8
100
AcDbEntity
  8
0
 62
256
420
16777215
370
-1
 48
1.0
  6
CONTINUOUS
100
AcDbPolyline
 90
2
 70
0
 10
551.4749755859375
 20
319.8499755859375
 30
0.0
 10
540.99993896484375
 20
301.7249755859375
 30
0.0
  0
LWPOLYLINE
  5
D9
100
AcDbEntity
  8
0
 62
256
420
16777215
370
-1
 48
1.0
  6
CONTINUOUS
100
AcDbPolyline
 90
2
 70
0
 10
549.074951171875
 20
319.8499755859375
 30
0.0
 10
538.5999755859375
 20
301.7249755859375
 30
0.0
  0
LWPOLYLINE
  5
DA
100
AcDbEntity
  8
0
 62
256
420
16777215
370
-1
 48
1.0
  6
CONTINUOUS
100
AcDbPolyline
 90
2
 70
0
 10
546.6749267578125
 20
319.8499755859375
 30
0.0
 10
536.199951171875
 20
301.7249755859375
 30
0.0
  0
LWPOLYLINE
  5
DB
100
AcDbEntity
  8
0
 62
256
420
16777215
370
-1
 48
1.0
  6
CONTINUOUS
100
AcDbPolyline
 90
2
 70
0
 10
544.27496337890625
 20
319.8499755859375
 30
0.0
 10
533.7999267578125
 20
301.7249755859375
 30
0.0
  0
LWPOLYLINE
  5
DC
100
AcDbEntity
  8
0
 62
256
420
16777215
370
-1
 48
1.0
  6
CONTINUOUS
100
AcDbPolyline
 90
2
 70
0
 10
541.77496337890625
 20
319.8499755859375
 30
0.0
 10
531.2999267578125
 20
301.7249755859375
 30
0.0
  0
LWPOLYLINE
  5
DD
100
AcDbEntity
  8
0
 62
256
420
16777215
370
-1
 48
1.0
  6
CONTINUOUS
100
AcDbPolyline
 90
2
 70
0
 10
539.37493896484375
 20
319.8499755859375
 30
0.0
 10
528.89996337890625
 20
301.7249755859375
 30
0.0
  0
LWPOLYLINE
  5
DE
100
AcDbEntity
  8
0
 62
256
420
16777215
370
-1
 48
1.0
  6
CONTINUOUS
100
AcDbPolyline
 90
2
 70
0
 10
536.949951171875
 20
319.8499755859375
 30
0.0
 10
526.4749755859375
 20
301.7249755859375
 30
0.0
  0
LWPOLYLINE
  5
DF
100
AcDbEntity
  8
0
 62
256
420
16777215
370
-1
 48
1.0
  6
CONTINUOUS
100
AcDbPolyline
 90
2
 70
0
 10
534.5499267578125
 20
319.8499755859375
 30
0.0
 10
524.074951171875
 20
301.7249755859375
 30
0.0
  0
LWPOLYLINE
  5
E0
100
AcDbEntity
  8
0
 62
256
420
16777215
370
-1
 48
1.0
  6
CONTINUOUS
100
AcDbPolyline
 90
2
 70
0
 10
532.14996337890625
 20
319.8499755859375
 30
0.0
 10
521.6749267578125
 20
301.7249755859375
 30
0.0
  0
LWPOLYLINE
  5
E1
100
AcDbEntity
  8
0
 62
256
420
16777215
370
-1
 48
1.0
  6
CONTINUOUS
100
AcDbPolyline
 90
2
 70
0
 10
592.99993896484375
 20
318.4749755859375
 30
0.0
 10
572.62493896484375
 20
283.17498779296875
 30
0.0
  0
LWPOLYLINE
  5
E2
100
AcDbEntity
  8
0
 62
256
420
16777215
370
-1
 48
1.0
  6
CONTINUOUS
100
AcDbPolyline
 90
2
 70
0
 10
590.5999755859375
 20
318.4749755859375
 30
0.0
 10
570.2249755859375
 20
283.17498779296875
 30
0.0
  0
LWPOLYLINE
  5
E3
100
AcDbEntity
  8
0
 62
256
420
16777215
370
-1
 48
1.0
  6
CONTINUOUS
100
AcDbPolyline
 90
2
 70
0
 10
588.199951171875
 20
318.4749755859375
 30
0.0
 10
567.824951171875
 20
283.17498779296875
 30
0.0
  0
LWPOLYLINE
  5
E4
100
AcDbEntity
  8
0
 62
256
420
16777215
370
-1
 48
1.0
  6
CONTINUOUS
100
AcDbPolyline
 90
2
 70
0
 10
585.7999267578125
 20
318.4749755859375
 30
0.0
 10
565.4249267578125
 20
283.17498779296875
 30
0.0
  0
LWPOLYLINE
  5
E5
100
AcDbEntity
  8
0
 62
256
420
16777215
370
-1
 48
1.0
  6
CONTINUOUS
100
AcDbPolyline
 90
2
 70
0
 10
583.2999267578125
 20
318.4749755859375
 30
0.0
 10
562.9249267578125
 20
283.17498779296875
 30
0.0
  0
LWPOLYLINE
  5
E6
100
AcDbEntity
  8
0
 62
256
420
16777215
370
-1
 48
1.0
  6
CONTINUOUS
100
AcDbPolyline
 90
2
 70
0
 10
580.89996337890625
 20
318.4749755859375
 30
0.0
 10
560.52496337890625
 20
283.17498779296875
 30
0.0
  0
LWPOLYLINE
  5
E7
100
AcDbEntity
  8
0
 62
256
420
16777215
370
-1
 48
1.0
  6
CONTINUOUS
100
AcDbPolyline
 90
2
 70
0
 10
578.4749755859375
 20
318.4749755859375
 30
0.0
 10
558.0999755859375
 20
283.17498779296875
 30
0.0
  0
LWPOLYLINE
  5
E8
100
AcDbEntity
  8
0
 62
256
420
16777215
370
-1
 48
1.0
  6
CONTINUOUS
100
AcDbPolyline
 90
2
 70
0
 10
576.074951171875
 20
318.4749755859375
 30
0.0
 10
555.699951171875
 20
283.17498779296875
 30
0.0
  0
LWPOLYLINE
  5
E9
100
AcDbEntity
  8
0
 62
256
420
16777215
370
-1
 48
1.0
  6
CONTINUOUS
100
AcDbPolyline
 90
2
 70
0
 10
573.6749267578125
 20
318.4749755859375
 30
0.0
 10
553.2999267578125
 20
283.17498779296875
 30
0.0
  0
LWPOLYLINE
  5
EA
100
AcDbEntity
  8
0
 62
256
420
16777215
370
-1
 48
1.0
  6
CONTINUOUS
100
AcDbPolyline
 90
2
 70
0
 10
571.2249755859375
 20
318.4749755859375
 30
0.0
 10
550.8499755859375
 20
283.17498779296875
 30
0.0
  0
LWPOLYLINE
  5
EB
100
AcDbEntity
  8
0
 62
256
420
16777215
370
-1
 48
1.0
  6
CONTINUOUS
100
AcDbPolyline
 90
2
 70
0
 10
568.824951171875
 20
318.4749755859375
 30
0.0
 10
548.449951171875
 20
283.17498779296875
 30
0.0
  0
LWPOLYLINE
  5
EC
100
AcDbEntity
  8
0
 62
256
420
16777215
370
-1
 48
1.0
  6
CONTINUOUS
100
AcDbPolyline
 90
2
 70
0
 10
566.4249267578125
 20
318.4749755859375
 30
0.0
 10
546.0499267578125
 20
283.17498779296875
 30
0.0
  0
LWPOLYLINE
  5
ED
100
AcDbEntity
  8
0
 62
256
420
16777215
370
-1
 48
1.0
  6
CONTINUOUS
100
AcDbPolyline
 90
2
 70
0
 10
564.02496337890625
 20
318.4749755859375
 30
0.0
 10
543.64996337890625
 20
283.17498779296875
 30
0.0
  0
LWPOLYLINE
  5
EE
100
AcDbEntity
  8
0
 62
256
420
16777215
370
-1
 48
1.0
  6
CONTINUOUS
100
AcDbPolyline
 90
2
 70
0
 10
561.52496337890625
 20
318.4749755859375
 30
0.0
 10
541.14996337890625
 20
283.17498779296875
 30
0.0
  0
LWPOLYLINE
  5
EF
100
AcDbEntity
  8
0
 62
256
420
16777215
370
-1
 48
1.0
  6
CONTINUOUS
100
AcDbPolyline
 90
2
 70
0
 10
559.12493896484375
 20
318.4749755859375
 30
0.0
 10
538.74993896484375
 20
283.17498779296875
 30
0.0
  0
LWPOLYLINE
  5
F0
100
AcDbEntity
  8
0
 62
256
420
16777215
370
-1
 48
1.0
  6
CONTINUOUS
100
AcDbPolyline
 90
2
 70
0
 10
556.699951171875
 20
318.4749755859375
 30
0.0
 10
536.324951171875
 20
283.17498779296875
 30
0.0
  0
LWPOLYLINE
  5
F1
100
AcDbEntity
  8
0
 62
256
420
16777215
370
-1
 48
1.0
  6
CONTINUOUS
100
AcDbPolyline
 90
2
 70
0
 10
554.2999267578125
 20
318.4749755859375
 30
0.0
 10
533.9249267578125
 20
283.17498779296875
 30
0.0
  0
LWPOLYLINE
  5
F2
100
AcDbEntity
  8
0
 62
256
420
16777215
370
-1
 48
1.0
  6
CONTINUOUS
100
AcDbPolyline
 90
2
 70
0
 10
551.89996337890625
 20
318.4749755859375
 30
0.0
 10
531.52496337890625
 20
283.17498779296875
 30
0.0
  0
LWPOLYLINE
  5
F3
100
AcDbEntity
  8
0
 62
256
420
16777215
370
-1
 48
1.0
  6
CONTINUOUS
100
AcDbPolyline
 90
2
 70
0
 10
549.449951171875
 20
318.4749755859375
 30
0.0
 10
529.074951171875
 20
283.17498779296875
 30
0.0
  0
LWPOLYLINE
  5
F4
100
AcDbEntity
  8
0
 62
256
420
16777215
370
-1
 48
1.0
  6
CONTINUOUS
100
AcDbPolyline
 90
2
 70
0
 10
547.0499267578125
 20
318.4749755859375
 30
0.0
 10
526.6749267578125
 20
283.17498779296875
 30
0.0
  0
LWPOLYLINE
  5
F5
100
AcDbEntity
  8
0
 62
256
420
16777215
370
-1
 48
1.0
  6
CONTINUOUS
100
AcDbPolyline
 90
2
 70
0
 10
544.64996337890625
 20
318.4749755859375
 30
0.0
 10
524.27496337890625
 20
283.17498779296875
 30
0.0
  0
LWPOLYLINE
  5
F6
100
AcDbEntity
  8
0
 62
256
420
16777215
370
-1
 48
1.0
  6
CONTINUOUS
100
AcDbPolyline
 90
2
 70
0
 10
542.24993896484375
 20
318.4749755859375
 30
0.0
 10
521.87493896484375
 20
283.17498779296875
 30
0.0
  0
LWPOLYLINE
  5
F7
100
AcDbEntity
  8
0
 62
256
420
16777215
370
-1
 48
1.0
  6
CONTINUOUS
100
AcDbPolyline
 90
2
 70
0
 10
539.74993896484375
 20
318.4749755859375
 30
0.0
 10
519.37493896484375
 20
283.17498779296875
 30
0.0
  0
LWPOLYLINE
  5
F8
100
AcDbEntity
  8
0
 62
256
420
16777215
370
-1
 48
1.0
  6
CONTINUOUS
100
AcDbPolyline
 90
2
 70
0
 10
537.3499755859375
 20
318.4749755859375
 30
0.0
 10
516.9749755859375
 20
283.17498779296875
 30
0.0
  0
LWPOLYLINE
  5
F9
100
AcDbEntity
  8
0
 62
256
420
16777215
370
-1
 48
1.0
  6
CONTINUOUS
100
AcDbPolyline
 90
2
 70
0
 10
534.949951171875
 20
318.4749755859375
 30
0.0
 10
514.5499267578125
 20
283.17498779296875
 30
0.0
  0
LWPOLYLINE
  5
FA
100
AcDbEntity
  8
0
 62
256
420
16777215
370
-1
 48
1.0
  6
CONTINUOUS
100
AcDbPolyline
 90
2
 70
0
 10
532.5499267578125
 20
318.4749755859375
 30
0.0
 10
512.14996337890625
 20
283.17498779296875
 30
0.0
  0
LWPOLYLINE
  5
FB
100
AcDbEntity
  8
0
 62
256
420
16777215
370
-1
 48
1.0
  6
CONTINUOUS
100
AcDbPolyline
 90
2
 70
0
 10
530.12493896484375
 20
318.4749755859375
 30
0.0
 10
509.74996948242187
 20
283.17498779296875
 30
0.0
  0
LWPOLYLINE
  5
FC
100
AcDbEntity
  8
0
 62
256
420
16777215
370
-1
 48
1.0
  6
CONTINUOUS
100
AcDbPolyline
 90
2
 70
0
 10
422.8499755859375
 20
298.47500610351562
 30
0.0
 10
433.324951171875
 20
280.375
 30
0.0
  0
LWPOLYLINE
  5
FD
100
AcDbEntity
  8
0
 62
256
420
16777215
370
-1
 48
1.0
  6
CONTINUOUS
100
AcDbPolyline
 90
2
 70
0
 10
425.24996948242187
 20
298.47500610351562
 30
0.0
 10
435.7249755859375
 20
280.375
 30
0.0
  0
LWPOLYLINE
  5
FE
100
AcDbEntity
  8
0
 62
256
420
16777215
370
-1
 48
1.0
  6
CONTINUOUS
100
AcDbPolyline
 90
2
 70
0
 10
427.64996337890625
 20
298.47500610351562
 30
0.0
 10
438.12496948242187
 20
280.375
 30
0.0
  0
LWPOLYLINE
  5
FF
100
AcDbEntity
  8
0
 62
256
420
16777215
370
-1
 48
1.0
  6
CONTINUOUS
100
AcDbPolyline
 90
2
 70
0
 10
430.04995727539062
 20
298.47500610351562
 30
0.0
 10
440.52496337890625
 20
280.375
 30
0.0
  0
LWPOLYLINE
  5
100
100
AcDbEntity
  8
0
 62
256
420
16777215
370
-1
 48
1.0
  6
CONTINUOUS
100
AcDbPolyline
 90
2
 70
0
 10
432.54995727539062
 20
298.47500610351562
 30
0.0
 10
443.02496337890625
 20
280.375
 30
0.0
  0
LWPOLYLINE
  5
101
100
AcDbEntity
  8
0
 62
256
420
16777215
370
-1
 48
1.0
  6
CONTINUOUS
100
AcDbPolyline
 90
2
 70
0
 10
434.949951171875
 20
298.47500610351562
 30
0.0
 10
445.42495727539062
 20
280.375
 30
0.0
  0
LWPOLYLINE
  5
102
100
AcDbEntity
  8
0
 62
256
420
16777215
370
-1
 48
1.0
  6
CONTINUOUS
100
AcDbPolyline
 90
2
 70
0
 10
437.37496948242187
 20
298.47500610351562
 30
0.0
 10
447.824951171875
 20
280.375
 30
0.0
  0
LWPOLYLINE
  5
103
100
AcDbEntity
  8
0
 62
256
420
16777215
370
-1
 48
1.0
  6
CONTINUOUS
100
AcDbPolyline
 90
2
 70
0
 10
439.77496337890625
 20
298.47500610351562
 30
0.0
 10
450.2249755859375
 20
280.375
 30
0.0
  0
LWPOLYLINE
  5
104
100
AcDbEntity
  8
0
 62
256
420
16777215
370
-1
 48
1.0
  6
CONTINUOUS
100
AcDbPolyline
 90
2
 70
0
 10
442.17495727539062
 20
298.47500610351562
 30
0.0
 10
452.64996337890625
 20
280.375
 30
0.0
  0
LWPOLYLINE
  5
105
100
AcDbEntity
  8
0
 62
256
420
16777215
370
-1
 48
1.0
  6
CONTINUOUS
100
AcDbPolyline
 90
2
 70
0
 10
444.62496948242187
 20
298.47500610351562
 30
0.0
 10
455.074951171875
 20
280.375
 30
0.0
  0
LWPOLYLINE
  5
106
100
AcDbEntity
  8
0
 62
256
420
16777215
370
-1
 48
1.0
  6
CONTINUOUS
100
AcDbPolyline
 90
2
 70
0
 10
447.02496337890625
 20
298.47500610351562
 30
0.0
 10
457.4749755859375
 20
280.375
 30
0.0
  0
LWPOLYLINE
  5
107
100
AcDbEntity
  8
0
 62
256
420
16777215
370
-1
 48
1.0
  6
CONTINUOUS
100
AcDbPolyline
 90
2
 70
0
 10
449.42495727539062
 20
298.47500610351562
 30
0.0
 10
459.87496948242187
 20
280.375
 30
0.0
  0
LWPOLYLINE
  5
108
100
AcDbEntity
  8
0
 62
256
420
16777215
370
-1
 48
1.0
  6
CONTINUOUS
100
AcDbPolyline
 90
2
 70
0
 10
451.824951171875
 20
298.47500610351562
 30
0.0
 10
462.27496337890625
 20
280.375
 30
0.0
  0
LWPOLYLINE
  5
109
100
AcDbEntity
  8
0
 62
256
420
16777215
370
-1
 48
1.0
  6
CONTINUOUS
100
AcDbPolyline
 90
2
 70
0
 10
454.324951171875
 20
298.47500610351562
 30
0.0
 10
464.77496337890625
 20
280.375
 30
0.0
  0
LWPOLYLINE
  5
10A
100
AcDbEntity
  8
0
 62
256
420
16777215
370
-1
 48
1.0
  6
CONTINUOUS
100
AcDbPolyline
 90
2
 70
0
 10
456.7249755859375
 20
298.47500610351562
 30
0.0
 10
467.17495727539062
 20
280.375
 30
0.0
  0
LWPOLYLINE
  5
10B
100
AcDbEntity
  8
0
 62
256
420
16777215
370
-1
 48
1.0
  6
CONTINUOUS
100
AcDbPolyline
 90
2
 70
0
 10
459.14996337890625
 20
298.47500610351562
 30
0.0
 10
469.5999755859375
 20
280.375
 30
0.0
  0
LWPOLYLINE
  5
10C
100
AcDbEntity
  8
0
 62
256
420
16777215
370
-1
 48
1.0
  6
CONTINUOUS
100
AcDbPolyline
 90
2
 70
0
 10
461.54995727539062
 20
298.47500610351562
 30
0.0
 10
471.99996948242187
 20
280.375
 30
0.0
  0
LWPOLYLINE
  5
10D
100
AcDbEntity
  8
0
 62
256
420
16777215
370
-1
 48
1.0
  6
CONTINUOUS
100
AcDbPolyline
 90
2
 70
0
 10
463.949951171875
 20
298.47500610351562
 30
0.0
 10
474.42495727539062
 20
280.375
 30
0.0
  0
LWPOLYLINE
  5
10E
100
AcDbEntity
  8
0
 62
256
420
16777215
370
-1
 48
1.0
  6
CONTINUOUS
100
AcDbPolyline
 90
2
 70
0
 10
466.39996337890625
 20
298.47500610351562
 30
0.0
 10
476.8499755859375
 20
280.375
 30
0.0
  0
LWPOLYLINE
  5
10F
100
AcDbEntity
  8
0
 62
256
420
16777215
370
-1
 48
1.0
  6
CONTINUOUS
100
AcDbPolyline
 90
2
 70
0
 10
468.79995727539062
 20
298.47500610351562
 30
0.0
 10
479.24996948242187
 20
280.375
 30
0.0
  0
LWPOLYLINE
  5
110
100
AcDbEntity
  8
0
 62
256
420
16777215
370
-1
 48
1.0
  6
CONTINUOUS
100
AcDbPolyline
 90
2
 70
0
 10
471.199951171875
 20
298.47500610351562
 30
0.0
 10
481.64996337890625
 20
280.375
 30
0.0
  0
LWPOLYLINE
  5
111
100
AcDbEntity
  8
0
 62
256
420
16777215
370
-1
 48
1.0
  6
CONTINUOUS
100
AcDbPolyline
 90
2
 70
0
 10
473.5999755859375
 20
298.47500610351562
 30
0.0
 10
484.04995727539062
 20
280.375
 30
0.0
  0
LWPOLYLINE
  5
112
100
AcDbEntity
  8
0
 62
256
420
16777215
370
-1
 48
1.0
  6
CONTINUOUS
100
AcDbPolyline
 90
2
 70
0
 10
476.0999755859375
 20
298.47500610351562
 30
0.0
 10
486.54995727539062
 20
280.375
 30
0.0
  0
LWPOLYLINE
  5
113
100
AcDbEntity
  8
0
 62
256
420
16777215
370
-1
 48
1.0
  6
CONTINUOUS
100
AcDbPolyline
 90
2
 70
0
 10
478.49996948242187
 20
298.47500610351562
 30
0.0
 10
488.949951171875
 20
280.375
 30
0.0
  0
LWPOLYLINE
  5
114
100
AcDbEntity
  8
0
 62
256
420
16777215
370
-1
 48
1.0
  6
CONTINUOUS
100
AcDbPolyline
 90
2
 70
0
 10
480.92495727539062
 20
298.47500610351562
 30
0.0
 10
491.37496948242187
 20
280.375
 30
0.0
  0
LWPOLYLINE
  5
115
100
AcDbEntity
  8
0
 62
256
420
16777215
370
-1
 48
1.0
  6
CONTINUOUS
100
AcDbPolyline
 90
2
 70
0
 10
483.324951171875
 20
298.47500610351562
 30
0.0
 10
493.77496337890625
 20
280.375
 30
0.0
  0
LWPOLYLINE
  5
116
100
AcDbEntity
  8
0
 62
256
420
16777215
370
-1
 48
1.0
  6
CONTINUOUS
100
AcDbPolyline
 90
2
 70
0
 10
485.7249755859375
 20
298.47500610351562
 30
0.0
 10
496.17495727539062
 20
280.375
 30
0.0
  0
LWPOLYLINE
  5
117
100
AcDbEntity
  8
0
 62
256
420
16777215
370
-1
 48
1.0
  6
CONTINUOUS
100
AcDbPolyline
 90
2
 70
0
 10
410.52496337890625
 20
319.8499755859375
 30
0.0
 10
420.9749755859375
 20
301.7249755859375
 30
0.0
  0
LWPOLYLINE
  5
118
100
AcDbEntity
  8
0
 62
256
420
16777215
370
-1
 48
1.0
  6
CONTINUOUS
100
AcDbPolyline
 90
2
 70
0
 10
412.92495727539062
 20
319.8499755859375
 30
0.0
 10
423.37496948242187
 20
301.7249755859375
 30
0.0
  0
LWPOLYLINE
  5
119
100
AcDbEntity
  8
0
 62
256
420
16777215
370
-1
 48
1.0
  6
CONTINUOUS
100
AcDbPolyline
 90
2
 70
0
 10
415.324951171875
 20
319.8499755859375
 30
0.0
 10
425.77496337890625
 20
301.7249755859375
 30
0.0
  0
LWPOLYLINE
  5
11A
100
AcDbEntity
  8
0
 62
256
420
16777215
370
-1
 48
1.0
  6
CONTINUOUS
100
AcDbPolyline
 90
2
 70
0
 10
417.7249755859375
 20
319.8499755859375
 30
0.0
 10
428.17495727539062
 20
301.7249755859375
 30
0.0
  0
LWPOLYLINE
  5
11B
100
AcDbEntity
  8
0
 62
256
420
16777215
370
-1
 48
1.0
  6
CONTINUOUS
100
AcDbPolyline
 90
2
 70
0
 10
420.2249755859375
 20
319.8499755859375
 30
0.0
 10
430.67495727539062
 20
301.7249755859375
 30
0.0
  0
LWPOLYLINE
  5
11C
100
AcDbEntity
  8
0
 62
256
420
16777215
370
-1
 48
1.0
  6
CONTINUOUS
100
AcDbPolyline
 90
2
 70
0
 10
422.62496948242187
 20
319.8499755859375
 30
0.0
 10
433.074951171875
 20
301.7249755859375
 30
0.0
  0
LWPOLYLINE
  5
11D
100
AcDbEntity
  8
0
 62
256
420
16777215
370
-1
 48
1.0
  6
CONTINUOUS
100
AcDbPolyline
 90
2
 70
0
 10
425.02496337890625
 20
319.8499755859375
 30
0.0
 10
435.49996948242187
 20
301.7249755859375
 30
0.0
  0
LWPOLYLINE
  5
11E
100
AcDbEntity
  8
0
 62
256
420
16777215
370
-1
 48
1.0
  6
CONTINUOUS
100
AcDbPolyline
 90
2
 70
0
 10
427.42495727539062
 20
319.8499755859375
 30
0.0
 10
437.89996337890625
 20
301.7249755859375
 30
0.0
  0
LWPOLYLINE
  5
11F
100
AcDbEntity
  8
0
 62
256
420
16777215
370
-1
 48
1.0
  6
CONTINUOUS
100
AcDbPolyline
 90
2
 70
0
 10
429.8499755859375
 20
319.8499755859375
 30
0.0
 10
440.29995727539062
 20
301.7249755859375
 30
0.0
  0
LWPOLYLINE
  5
120
100
AcDbEntity
  8
0
 62
256
420
16777215
370
-1
 48
1.0
  6
CONTINUOUS
100
AcDbPolyline
 90
2
 70
0
 10
432.27496337890625
 20
319.8499755859375
 30
0.0
 10
442.74996948242187
 20
301.7249755859375
 30
0.0
  0
LWPOLYLINE
  5
121
100
AcDbEntity
  8
0
 62
256
420
16777215
370
-1
 48
1.0
  6
CONTINUOUS
100
AcDbPolyline
 90
2
 70
0
 10
434.67495727539062
 20
319.8499755859375
 30
0.0
 10
445.14996337890625
 20
301.7249755859375
 30
0.0
  0
LWPOLYLINE
  5
122
100
AcDbEntity
  8
0
 62
256
420
16777215
370
-1
 48
1.0
  6
CONTINUOUS
100
AcDbPolyline
 90
2
 70
0
 10
437.074951171875
 20
319.8499755859375
 30
0.0
 10
447.54995727539062
 20
301.7249755859375
 30
0.0
  0
LWPOLYLINE
  5
123
100
AcDbEntity
  8
0
 62
256
420
16777215
370
-1
 48
1.0
  6
CONTINUOUS
100
AcDbPolyline
 90
2
 70
0
 10
439.4749755859375
 20
319.8499755859375
 30
0.0
 10
449.949951171875
 20
301.7249755859375
 30
0.0
  0
LWPOLYLINE
  5
124
100
AcDbEntity
  8
0
 62
256
420
16777215
370
-1
 48
1.0
  6
CONTINUOUS
100
AcDbPolyline
 90
2
 70
0
 10
441.9749755859375
 20
319.8499755859375
 30
0.0
 10
452.449951171875
 20
301.7249755859375
 30
0.0
  0
LWPOLYLINE
  5
125
100
AcDbEntity
  8
0
 62
256
420
16777215
370
-1
 48
1.0
  6
CONTINUOUS
100
AcDbPolyline
 90
2
 70
0
 10
444.37496948242187
 20
319.8499755859375
 30
0.0
 10
454.8499755859375
 20
301.7249755859375
 30
0.0
  0
LWPOLYLINE
  5
126
100
AcDbEntity
  8
0
 62
256
420
16777215
370
-1
 48
1.0
  6
CONTINUOUS
100
AcDbPolyline
 90
2
 70
0
 10
446.79995727539062
 20
319.8499755859375
 30
0.0
 10
457.27496337890625
 20
301.7249755859375
 30
0.0
  0
LWPOLYLINE
  5
127
100
AcDbEntity
  8
0
 62
256
420
16777215
370
-1
 48
1.0
  6
CONTINUOUS
100
AcDbPolyline
 90
2
 70
0
 10
449.199951171875
 20
319.8499755859375
 30
0.0
 10
459.67495727539062
 20
301.7249755859375
 30
0.0
  0
LWPOLYLINE
  5
128
100
AcDbEntity
  8
0
 62
256
420
16777215
370
-1
 48
1.0
  6
CONTINUOUS
100
AcDbPolyline
 90
2
 70
0
 10
451.62496948242187
 20
319.8499755859375
 30
0.0
 10
462.074951171875
 20
301.7249755859375
 30
0.0
  0
LWPOLYLINE
  5
129
100
AcDbEntity
  8
0
 62
256
420
16777215
370
-1
 48
1.0
  6
CONTINUOUS
100
AcDbPolyline
 90
2
 70
0
 10
454.04995727539062
 20
319.8499755859375
 30
0.0
 10
464.52496337890625
 20
301.7249755859375
 30
0.0
  0
LWPOLYLINE
  5
12A
100
AcDbEntity
  8
0
 62
256
420
16777215
370
-1
 48
1.0
  6
CONTINUOUS
100
AcDbPolyline
 90
2
 70
0
 10
456.449951171875
 20
319.8499755859375
 30
0.0
 10
466.92495727539062
 20
301.7249755859375
 30
0.0
  0
LWPOLYLINE
  5
12B
100
AcDbEntity
  8
0
 62
256
420
16777215
370
-1
 48
1.0
  6
CONTINUOUS
100
AcDbPolyline
 90
2
 70
0
 10
458.8499755859375
 20
319.8499755859375
 30
0.0
 10
469.324951171875
 20
301.7249755859375
 30
0.0
  0
LWPOLYLINE
  5
12C
100
AcDbEntity
  8
0
 62
256
420
16777215
370
-1
 48
1.0
  6
CONTINUOUS
100
AcDbPolyline
 90
2
 70
0
 10
461.24996948242187
 20
319.8499755859375
 30
0.0
 10
471.7249755859375
 20
301.7249755859375
 30
0.0
  0
LWPOLYLINE
  5
12D
100
AcDbEntity
  8
0
 62
256
420
16777215
370
-1
 48
1.0
  6
CONTINUOUS
100
AcDbPolyline
 90
2
 70
0
 10
463.74996948242187
 20
319.8499755859375
 30
0.0
 10
474.2249755859375
 20
301.7249755859375
 30
0.0
  0
LWPOLYLINE
  5
12E
100
AcDbEntity
  8
0
 62
256
420
16777215
370
-1
 48
1.0
  6
CONTINUOUS
100
AcDbPolyline
 90
2
 70
0
 10
466.14996337890625
 20
319.8499755859375
 30
0.0
 10
476.62496948242187
 20
301.7249755859375
 30
0.0
  0
LWPOLYLINE
  5
12F
100
AcDbEntity
  8
0
 62
256
420
16777215
370
-1
 48
1.0
  6
CONTINUOUS
100
AcDbPolyline
 90
2
 70
0
 10
468.574951171875
 20
319.8499755859375
 30
0.0
 10
479.04995727539062
 20
301.7249755859375
 30
0.0
  0
LWPOLYLINE
  5
130
100
AcDbEntity
  8
0
 62
256
420
16777215
370
-1
 48
1.0
  6
CONTINUOUS
100
AcDbPolyline
 90
2
 70
0
 10
470.9749755859375
 20
319.8499755859375
 30
0.0
 10
481.449951171875
 20
301.7249755859375
 30
0.0
  0
LWPOLYLINE
  5
131
100
AcDbEntity
  8
0
 62
256
420
16777215
370
-1
 48
1.0
  6
CONTINUOUS
100
AcDbPolyline
 90
2
 70
0
 10
473.37496948242187
 20
319.8499755859375
 30
0.0
 10
483.8499755859375
 20
301.7249755859375
 30
0.0
  0
LWPOLYLINE
  5
132
100
AcDbEntity
  8
0
 62
256
420
16777215
370
-1
 48
1.0
  6
CONTINUOUS
100
AcDbPolyline
 90
2
 70
0
 10
412.52496337890625
 20
318.4749755859375
 30
0.0
 10
432.89996337890625
 20
283.17498779296875
 30
0.0
  0
LWPOLYLINE
  5
133
100
AcDbEntity
  8
0
 62
256
420
16777215
370
-1
 48
1.0
  6
CONTINUOUS
100
AcDbPolyline
 90
2
 70
0
 10
414.92495727539062
 20
318.4749755859375
 30
0.0
 10
435.29995727539062
 20
283.17498779296875
 30
0.0
  0
LWPOLYLINE
  5
134
100
AcDbEntity
  8
0
 62
256
420
16777215
370
-1
 48
1.0
  6
CONTINUOUS
100
AcDbPolyline
 90
2
 70
0
 10
417.324951171875
 20
318.4749755859375
 30
0.0
 10
437.699951171875
 20
283.17498779296875
 30
0.0
  0
LWPOLYLINE
  5
135
100
AcDbEntity
  8
0
 62
256
420
16777215
370
-1
 48
1.0
  6
CONTINUOUS
100
AcDbPolyline
 90
2
 70
0
 10
419.7249755859375
 20
318.4749755859375
 30
0.0
 10
440.0999755859375
 20
283.17498779296875
 30
0.0
  0
LWPOLYLINE
  5
136
100
AcDbEntity
  8
0
 62
256
420
16777215
370
-1
 48
1.0
  6
CONTINUOUS
100
AcDbPolyline
 90
2
 70
0
 10
422.2249755859375
 20
318.4749755859375
 30
0.0
 10
442.5999755859375
 20
283.17498779296875
 30
0.0
  0
LWPOLYLINE
  5
137
100
AcDbEntity
  8
0
 62
256
420
16777215
370
-1
 48
1.0
  6
CONTINUOUS
100
AcDbPolyline
 90
2
 70
0
 10
424.62496948242187
 20
318.4749755859375
 30
0.0
 10
444.99996948242187
 20
283.17498779296875
 30
0.0
  0
LWPOLYLINE
  5
138
100
AcDbEntity
  8
0
 62
256
420
16777215
370
-1
 48
1.0
  6
CONTINUOUS
100
AcDbPolyline
 90
2
 70
0
 10
427.04995727539062
 20
318.4749755859375
 30
0.0
 10
447.42495727539062
 20
283.17498779296875
 30
0.0
  0
LWPOLYLINE
  5
139
100
AcDbEntity
  8
0
 62
256
420
16777215
370
-1
 48
1.0
  6
CONTINUOUS
100
AcDbPolyline
 90
2
 70
0
 10
429.449951171875
 20
318.4749755859375
 30
0.0
 10
449.824951171875
 20
283.17498779296875
 30
0.0
  0
LWPOLYLINE
  5
13A
100
AcDbEntity
  8
0
 62
256
420
16777215
370
-1
 48
1.0
  6
CONTINUOUS
100
AcDbPolyline
 90
2
 70
0
 10
431.8499755859375
 20
318.4749755859375
 30
0.0
 10
452.2249755859375
 20
283.17498779296875
 30
0.0
  0
LWPOLYLINE
  5
13B
100
AcDbEntity
  8
0
 62
256
420
16777215
370
-1
 48
1.0
  6
CONTINUOUS
100
AcDbPolyline
 90
2
 70
0
 10
434.29995727539062
 20
318.4749755859375
 30
0.0
 10
454.67495727539062
 20
283.17498779296875
 30
0.0
  0
LWPOLYLINE
  5
13C
100
AcDbEntity
  8
0
 62
256
420
16777215
370
-1
 48
1.0
  6
CONTINUOUS
100
AcDbPolyline
 90
2
 70
0
 10
436.699951171875
 20
318.4749755859375
 30
0.0
 10
457.074951171875
 20
283.17498779296875
 30
0.0
  0
LWPOLYLINE
  5
13D
100
AcDbEntity
  8
0
 62
256
420
16777215
370
-1
 48
1.0
  6
CONTINUOUS
100
AcDbPolyline
 90
2
 70
0
 10
439.0999755859375
 20
318.4749755859375
 30
0.0
 10
459.4749755859375
 20
283.17498779296875
 30
0.0
  0
LWPOLYLINE
  5
13E
100
AcDbEntity
  8
0
 62
256
420
16777215
370
-1
 48
1.0
  6
CONTINUOUS
100
AcDbPolyline
 90
2
 70
0
 10
441.49996948242187
 20
318.4749755859375
 30
0.0
 10
461.87496948242187
 20
283.17498779296875
 30
0.0
  0
LWPOLYLINE
  5
13F
100
AcDbEntity
  8
0
 62
256
420
16777215
370
-1
 48
1.0
  6
CONTINUOUS
100
AcDbPolyline
 90
2
 70
0
 10
443.99996948242187
 20
318.4749755859375
 30
0.0
 10
464.37496948242187
 20
283.17498779296875
 30
0.0
  0
LWPOLYLINE
  5
140
100
AcDbEntity
  8
0
 62
256
420
16777215
370
-1
 48
1.0
  6
CONTINUOUS
100
AcDbPolyline
 90
2
 70
0
 10
446.39996337890625
 20
318.4749755859375
 30
0.0
 10
466.77496337890625
 20
283.17498779296875
 30
0.0
  0
LWPOLYLINE
  5
141
100
AcDbEntity
  8
0
 62
256
420
16777215
370
-1
 48
1.0
  6
CONTINUOUS
100
AcDbPolyline
 90
2
 70
0
 10
448.824951171875
 20
318.4749755859375
 30
0.0
 10
469.199951171875
 20
283.17498779296875
 30
0.0
  0
LWPOLYLINE
  5
142
100
AcDbEntity
  8
0
 62
256
420
16777215
370
-1
 48
1.0
  6
CONTINUOUS
100
AcDbPolyline
 90
2
 70
0
 10
451.2249755859375
 20
318.4749755859375
 30
0.0
 10
471.5999755859375
 20
283.17498779296875
 30
0.0
  0
LWPOLYLINE
  5
143
100
AcDbEntity
  8
0
 62
256
420
16777215
370
-1
 48
1.0
  6
CONTINUOUS
100
AcDbPolyline
 90
2
 70
0
 10
453.62496948242187
 20
318.4749755859375
 30
0.0
 10
473.99996948242187
 20
283.17498779296875
 30
0.0
  0
LWPOLYLINE
  5
144
100
AcDbEntity
  8
0
 62
256
420
16777215
370
-1
 48
1.0
  6
CONTINUOUS
100
AcDbPolyline
 90
2
 70
0
 10
456.074951171875
 20
318.4749755859375
 30
0.0
 10
476.449951171875
 20
283.17498779296875
 30
0.0
  0
LWPOLYLINE
  5
145
100
AcDbEntity
  8
0
 62
256
420
16777215
370
-1
 48
1.0
  6
CONTINUOUS
100
AcDbPolyline
 90
2
 70
0
 10
458.4749755859375
 20
318.4749755859375
 30
0.0
 10
478.8499755859375
 20
283.17498779296875
 30
0.0
  0
LWPOLYLINE
  5
146
100
AcDbEntity
  8
0
 62
256
420
16777215
370
-1
 48
1.0
  6
CONTINUOUS
100
AcDbPolyline
 90
2
 70
0
 10
460.87496948242187
 20
318.4749755859375
 30
0.0
 10
481.24996948242187
 20
283.17498779296875
 30
0.0
  0
LWPOLYLINE
  5
147
100
AcDbEntity
  8
0
 62
256
420
16777215
370
-1
 48
1.0
  6
CONTINUOUS
100
AcDbPolyline
 90
2
 70
0
 10
463.27496337890625
 20
318.4749755859375
 30
0.0
 10
483.64996337890625
 20
283.17498779296875
 30
0.0
  0
LWPOLYLINE
  5
148
100
AcDbEntity
  8
0
 62
256
420
16777215
370
-1
 48
1.0
  6
CONTINUOUS
100
AcDbPolyline
 90
2
 70
0
 10
465.77496337890625
 20
318.4749755859375
 30
0.0
 10
486.14996337890625
 20
283.17498779296875
 30
0.0
  0
LWPOLYLINE
  5
149
100
AcDbEntity
  8
0
 62
256
420
16777215
370
-1
 48
1.0
  6
CONTINUOUS
100
AcDbPolyline
 90
2
 70
0
 10
468.17495727539062
 20
318.4749755859375
 30
0.0
 10
488.54995727539062
 20
283.17498779296875
 30
0.0
  0
LWPOLYLINE
  5
14A
100
AcDbEntity
  8
0
 62
256
420
16777215
370
-1
 48
1.0
  6
CONTINUOUS
100
AcDbPolyline
 90
2
 70
0
 10
470.574951171875
 20
318.4749755859375
 30
0.0
 10
490.9749755859375
 20
283.17498779296875
 30
0.0
  0
LWPOLYLINE
  5
14B
100
AcDbEntity
  8
0
 62
256
420
16777215
370
-1
 48
1.0
  6
CONTINUOUS
100
AcDbPolyline
 90
2
 70
0
 10
472.9749755859375
 20
318.4749755859375
 30
0.0
 10
493.37496948242187
 20
283.17498779296875
 30
0.0
  0
LWPOLYLINE
  5
14C
100
AcDbEntity
  8
0
 62
256
420
16777215
370
-1
 48
1.0
  6
CONTINUOUS
100
AcDbPolyline
 90
2
 70
0
 10
475.39996337890625
 20
318.4749755859375
 30
0.0
 10
495.77496337890625
 20
283.17498779296875
 30
0.0
  0
ENDSEC
  0
SECTION
  2
OBJECTS
  0
DICTIONARY
  5
C
100
AcDbDictionary
280
0
281
1
  3
ACAD_GROUP
350
D
  3
ACAD_LAYOUT
350
1A
  3
ACAD_MLINESTYLE
350
17
  3
ACAD_PLOTSETTINGS
350
19
  3
ACAD_PLOTSTYLENAME
350
E
  3
AcDbVariableDictionary
350
14D
  0
DICTIONARY
  5
D
100
AcDbDictionary
280
0
281
1
  0
ACDBDICTIONARYWDFLT
  5
E
100
AcDbDictionary
281
1
  3
Normal
350
F
100
AcDbDictionaryWithDefault
340
F
  0
ACDBPLACEHOLDER
  5
F
  0
DICTIONARY
  5
17
100
AcDbDictionary
280
0
281
1
  3
Standard
350
18
  0
MLINESTYLE
  5
18
100
AcDbMlineStyle
  2
STANDARD
 70
0
  3

 62
256
 51
90.0
 52
90.0
 71
2
 49
0.5
 62
256
  6
BYLAYER
 49
-0.5
 62
256
  6
BYLAYER
  0
DICTIONARY
  5
19
100
AcDbDictionary
280
0
281
1
  0
DICTIONARY
  5
1A
100
AcDbDictionary
281
1
  3
Layout1
350
1E
  3
Layout2
350
26
  3
Model
350
22
  0
LAYOUT
  5
1E
100
AcDbPlotSettings
  1

  2
none_device
  4

  6

 40
0.0
 41
0.0
 42
0.0
 43
0.0
 44
0.0
 45
0.0
 46
0.0
 47
0.0
 48
0.0
 49
0.0
140
0.0
141
0.0
142
1.0
143
1.0
 70
688
 72
0
 73
0
 74
5
  7

 75
16
147
1.0
148
0.0
149
0.0
100
AcDbLayout
  1
Layout1
 70
1
 71
1
 10
0.0
 20
0.0
 11
420.0
 21
297.0
 12
0.0
 22
0.0
 32
0.0
 14
100000000000000000000.0
 24
100000000000000000000.0
 34
100000000000000000000.0
 15
-100000000000000000000.0
 25
-100000000000000000000.0
 35
-100000000000000000000.0
146
0.0
 13
0.0
 23
0.0
 33
0.0
 16
1.0
 26
0.0
 36
0.0
 17
0.0
 27
1.0
 37
0.0
 76
0
330
1B
  0
LAYOUT
  5
22
100
AcDbPlotSettings
  1

  2
none_device
  4

  6

 40
0.0
 41
0.0
 42
0.0
 43
0.0
 44
0.0
 45
0.0
 46
0.0
 47
0.0
 48
0.0
 49
0.0
140
0.0
141
0.0
142
1.0
143
1.0
 70
1712
 72
0
 73
0
 74
0
  7

 75
0
147
1.0
148
0.0
149
0.0
100
AcDbLayout
  1
Model
 70
1
 71
0
 10
0.0
 20
0.0
 11
12.0
 21
9.0
 12
0.0
 22
0.0
 32
0.0
 14
0.0
 24
0.0
 34
0.0
 15
0.0
 25
0.0
 35
0.0
146
0.0
 13
0.0
 23
0.0
 33
0.0
 16
1.0
 26
0.0
 36
0.0
 17
0.0
 27
1.0
 37
0.0
 76
0
330
1F
  0
LAYOUT
  5
26
100
AcDbPlotSettings
  1

  2
none_device
  4

  6

 40
0.0
 41
0.0
 42
0.0
 43
0.0
 44
0.0
 45
0.0
 46
0.0
 47
0.0
 48
0.0
 49
0.0
140
0.0
141
0.0
142
1.0
143
1.0
 70
688
 72
0
 73
0
 74
5
  7

 75
16
147
1.0
148
0.0
149
0.0
100
AcDbLayout
  1
Layout2
 70
1
 71
2
 10
0.0
 20
0.0
 11
12.0
 21
9.0
 12
0.0
 22
0.0
 32
0.0
 14
0.0
 24
0.0
 34
0.0
 15
0.0
 25
0.0
 35
0.0
146
0.0
 13
0.0
 23
0.0
 33
0.0
 16
1.0
 26
0.0
 36
0.0
 17
0.0
 27
1.0
 37
0.0
 76
0
330
23
  0
DICTIONARY
  5
14D
100
AcDbDictionary
281
1
  3
DIMASSOC
350
14F
  3
HIDETEXT
350
14E
  0
DICTIONARYVAR
  5
14E
100
DictionaryVariables
280
0
  1
2
  0
DICTIONARYVAR
  5
14F
100
DictionaryVariables
280
0
  1
1
  0
ENDSEC
  0
EOF
