999
dxflib 3.17.0.0
  0
SECTION
  2
HEADER
  9
$ACADVER
  1
AC1015
  9
$HANDSEED
  5
FFFF
  9
$INSUNITS
 70
4
  9
$DIMEXE
 40
1.25
  9
$TEXTSTYLE
  7
Standard
  9
$LIMMIN
 10
0.0
 20
0.0
  0
ENDSEC
  0
SECTION
  2
TABLES
  0
TABLE
  2
VPORT
  5
8
100
AcDbSymbolTable
 70
1
  0
VPORT
  5
30
100
AcDbSymbolTableRecord
100
AcDbViewportTableRecord
  2
*Active
 70
0
 10
0.0
 20
0.0
 11
1.0
 21
1.0
 12
286.30555555555549
 22
148.5
 13
0.0
 23
0.0
 14
10.0
 24
10.0
 15
10.0
 25
10.0
 16
0.0
 26
0.0
 36
1.0
 17
0.0
 27
0.0
 37
0.0
 40
297.0
 41
1.92798353909465
 42
50.0
 43
0.0
 44
0.0
 50
0.0
 51
0.0
 71
0
 72
100
 73
1
 74
3
 75
1
 76
1
 77
0
 78
0
281
0
 65
1
110
0.0
120
0.0
130
0.0
111
1.0
121
0.0
131
0.0
112
0.0
122
1.0
132
0.0
 79
0
146
0.0
  0
ENDTAB
  0
TABLE
  2
LTYPE
  5
5
100
AcDbSymbolTable
 70
25
  0
LTYPE
  5
14
100
AcDbSymbolTableRecord
100
AcDbLinetypeTableRecord
  2
BYBLOCK
 70
0
  3

 72
65
 73
0
 40
0.0
  0
LTYPE
  5
15
100
AcDbSymbolTableRecord
100
AcDbLinetypeTableRecord
  2
BYLAYER
 70
0
  3

 72
65
 73
0
 40
0.0
  0
LTYPE
  5
16
100
AcDbSymbolTableRecord
100
AcDbLinetypeTableRecord
  2
CONTINUOUS
 70
0
  3
Solid line
 72
65
 73
0
 40
0.0
  0
LTYPE
  5
31
100
AcDbSymbolTableRecord
100
AcDbLinetypeTableRecord
  2
ACAD_ISO02W100
 70
0
  3

 72
65
 73
0
 40
0.0
  0
LTYPE
  5
32
100
AcDbSymbolTableRecord
100
AcDbLinetypeTableRecord
  2
ACAD_ISO03W100
 70
0
  3

 72
65
 73
0
 40
0.0
  0
LTYPE
  5
33
100
AcDbSymbolTableRecord
100
AcDbLinetypeTableRecord
  2
ACAD_ISO04W100
 70
0
  3

 72
65
 73
0
 40
0.0
  0
LTYPE
  5
34
100
AcDbSymbolTableRecord
100
AcDbLinetypeTableRecord
  2
ACAD_ISO05W100
 70
0
  3

 72
65
 73
0
 40
0.0
  0
LTYPE
  5
35
100
AcDbSymbolTableRecord
100
AcDbLinetypeTableRecord
  2
BORDER
 70
0
  3

 72
65
 73
0
 40
0.0
  0
LTYPE
  5
36
100
AcDbSymbolTableRecord
100
AcDbLinetypeTableRecord
  2
BORDER2
 70
0
  3

 72
65
 73
0
 40
0.0
  0
LTYPE
  5
37
100
AcDbSymbolTableRecord
100
AcDbLinetypeTableRecord
  2
BORDERX2
 70
0
  3

 72
65
 73
0
 40
0.0
  0
LTYPE
  5
38
100
AcDbSymbolTableRecord
100
AcDbLinetypeTableRecord
  2
CENTER
 70
0
  3

 72
65
 73
0
 40
0.0
  0
LTYPE
  5
39
100
AcDbSymbolTableRecord
100
AcDbLinetypeTableRecord
  2
CENTER2
 70
0
  3

 72
65
 73
0
 40
0.0
  0
LTYPE
  5
3A
100
AcDbSymbolTableRecord
100
AcDbLinetypeTableRecord
  2
CENTERX2
 70
0
  3

 72
65
 73
0
 40
0.0
  0
LTYPE
  5
3B
100
AcDbSymbolTableRecord
100
AcDbLinetypeTableRecord
  2
DASHDOT
 70
0
  3

 72
65
 73
0
 40
0.0
  0
LTYPE
  5
3C
100
AcDbSymbolTableRecord
100
AcDbLinetypeTableRecord
  2
DASHDOT2
 70
0
  3

 72
65
 73
0
 40
0.0
  0
LTYPE
  5
3D
100
AcDbSymbolTableRecord
100
AcDbLinetypeTableRecord
  2
DASHDOTX2
 70
0
  3

 72
65
 73
0
 40
0.0
  0
LTYPE
  5
3E
100
AcDbSymbolTableRecord
100
AcDbLinetypeTableRecord
  2
DASHED
 70
0
  3

 72
65
 73
0
 40
0.0
  0
LTYPE
  5
3F
100
AcDbSymbolTableRecord
100
AcDbLinetypeTableRecord
  2
DASHED2
 70
0
  3

 72
65
 73
0
 40
0.0
  0
LTYPE
  5
40
100
AcDbSymbolTableRecord
100
AcDbLinetypeTableRecord
  2
DASHEDX2
 70
0
  3

 72
65
 73
0
 40
0.0
  0
LTYPE
  5
41
100
AcDbSymbolTableRecord
100
AcDbLinetypeTableRecord
  2
DIVIDE
 70
0
  3

 72
65
 73
0
 40
0.0
  0
LTYPE
  5
42
100
AcDbSymbolTableRecord
100
AcDbLinetypeTableRecord
  2
DIVIDE2
 70
0
  3

 72
65
 73
0
 40
0.0
  0
LTYPE
  5
43
100
AcDbSymbolTableRecord
100
AcDbLinetypeTableRecord
  2
DIVIDEX2
 70
0
  3

 72
65
 73
0
 40
0.0
  0
LTYPE
  5
44
100
AcDbSymbolTableRecord
100
AcDbLinetypeTableRecord
  2
DOT
 70
0
  3

 72
65
 73
0
 40
0.0
  0
LTYPE
  5
45
100
AcDbSymbolTableRecord
100
AcDbLinetypeTableRecord
  2
DOT2
 70
0
  3

 72
65
 73
0
 40
0.0
  0
LTYPE
  5
46
100
AcDbSymbolTableRecord
100
AcDbLinetypeTableRecord
  2
DOTX2
 70
0
  3

 72
65
 73
0
 40
0.0
  0
ENDTAB
  0
TABLE
  2
LAYER
  5
2
100
AcDbSymbolTable
 70
1
  0
LAYER
  5
10
100
AcDbSymbolTableRecord
100
AcDbLayerTableRecord
  2
0
 70
0
 62
7
420
16777215
  6
CONTINUOUS
390
F
  0
ENDTAB
  0
TABLE
  2
STYLE
  5
3
100
AcDbSymbolTable
 70
1
  0
STYLE
  5
47
100
AcDbSymbolTableRecord
100
AcDbTextStyleTableRecord
  2
Standard
 70
0
 40
2.5
 41
1.0
 50
0.0
 71
0
 42
2.5
  3

  4

1001
ACAD
1000
txt
1071
0
  0
ENDTAB
  0
TABLE
  2
VIEW
  5
6
100
AcDbSymbolTable
 70
0
  0
ENDTAB
  0
TABLE
  2
UCS
  5
7
100
AcDbSymbolTable
 70
0
  0
ENDTAB
  0
TABLE
  2
APPID
  5
9
100
AcDbSymbolTable
 70
1
  0
APPID
  5
12
100
AcDbSymbolTableRecord
100
AcDbRegAppTableRecord
  2
ACAD
 70
0
 70
0
  0
ENDTAB
  0
TABLE
  2
DIMSTYLE
  5
A
100
AcDbSymbolTable
 70
1
100
AcDbDimStyleTable
 71
0
  0
DIMSTYLE
105
27
100
AcDbSymbolTableRecord
100
AcDbDimStyleTableRecord
  2
Standard
 41
1.0
 42
1.0
 43
3.75
 44
1.0
 70
0
 73
0
 74
0
 77
1
 78
8
140
1.0
141
2.5
143
0.03937007874016
147
1.0
171
3
172
1
271
2
272
2
274
3
278
44
283
0
284
8
340
47
  0
ENDTAB
  0
TABLE
  2
BLOCK_RECORD
  5
1
100
AcDbSymbolTable
 70
1
  0
BLOCK_RECORD
  5
1F
100
AcDbSymbolTableRecord
100
AcDbBlockTableRecord
  2
*Model_Space
340
22
  0
BLOCK_RECORD
  5
1B
100
AcDbSymbolTableRecord
100
AcDbBlockTableRecord
  2
*Paper_Space
340
1E
  0
BLOCK_RECORD
  5
23
100
AcDbSymbolTableRecord
100
AcDbBlockTableRecord
  2
*Paper_Space0
340
26
  0
BLOCK_RECORD
  5
48
100
AcDbSymbolTableRecord
100
AcDbBlockTableRecord
  2
myblock1
340
0
  0
BLOCK_RECORD
  5
49
100
AcDbSymbolTableRecord
100
AcDbBlockTableRecord
  2
myblock2
340
0
  0
ENDTAB
  0
ENDSEC
  0
SECTION
  2
BLOCKS
  0
BLOCK
  5
20
100
AcDbEntity
  8
0
100
AcDbBlockBegin
  2
*Model_Space
 70
0
 10
0.0
 20
0.0
 30
0.0
  3
*Model_Space
  1

  0
ENDBLK
  5
21
100
AcDbEntity
  8
0
100
AcDbBlockEnd
  0
BLOCK
  5
1C
100
AcDbEntity
 67
1
  8
0
100
AcDbBlockBegin
  2
*Paper_Space
 70
0
 10
0.0
 20
0.0
 30
0.0
  3
*Paper_Space
  1

  0
ENDBLK
  5
1D
100
AcDbEntity
 67
1
  8
0
100
AcDbBlockEnd
  0
BLOCK
  5
24
100
AcDbEntity
  8
0
100
AcDbBlockBegin
  2
*Paper_Space0
 70
0
 10
0.0
 20
0.0
 30
0.0
  3
*Paper_Space0
  1

  0
ENDBLK
  5
25
100
AcDbEntity
  8
0
100
AcDbBlockEnd
  0
BLOCK
  5
4A
100
AcDbEntity
  8
0
100
AcDbBlockBegin
  2
myblock1
 70
0
 10
0.0
 20
0.0
 30
0.0
  3
myblock1
  1

  0
ENDBLK
  5
4B
100
AcDbEntity
  8
0
100
AcDbBlockEnd
  0
BLOCK
  5
4C
100
AcDbEntity
  8
0
100
AcDbBlockBegin
  2
myblock2
 70
0
 10
0.0
 20
0.0
 30
0.0
  3
myblock2
  1

  0
ENDBLK
  5
4D
100
AcDbEntity
  8
0
100
AcDbBlockEnd
  0
ENDSEC
  0
SECTION
  2
ENTITIES
  0
LWPOLYLINE
  5
4E
100
AcDbEntity
  8
0
 62
256
420
16777215
370
-1
 48
1.0
  6
CONTINUOUS
100
AcDbPolyline
 90
34
 70
0
 10
463.36630249023437
 20
262.04171752929687
 30
0.0
 10
462.94619750976563
 20
262.58633422851562
 30
0.0
 10
462.80612182617187
 20
263.05313110351562
 30
0.0
 10
462.77505493164062
 20
263.56661987304687
 30
0.0
 10
462.99288940429688
 20
264.45355224609375
 30
0.0
 10
463.19512939453125
 20
264.84259033203125
 30
0.0
 10
463.56857299804687
 20
265.44940185546875
 30
0.0
 10
464.393310546875
 20
265.91622924804688
 30
0.0
 10
465.03121948242187
 20
266.28970336914062
 30
0.0
 10
466.27609252929687
 20
266.70980834960937
 30
0.0
 10
466.9451904296875
 20
267.06765747070312
 30
0.0
 10
467.38088989257812
 20
267.02102661132812
 30
0.0
 10
467.83209228515625
 20
266.83428955078125
 30
0.0
 10
468.39230346679687
 20
266.616455078125
 30
0.0
 10
468.84353637695312
 20
266.33636474609375
 30
0.0
 10
469.12362670898437
 20
265.91622924804688
 30
0.0
 10
469.29476928710937
 20
265.40277099609375
 30
0.0
 10
469.35702514648437
 20
264.92037963867187
 30
0.0
 10
468.98361206054687
 20
264.23574829101562
 30
0.0
 10
468.93692016601562
 20
263.66000366210937
 30
0.0
 10
468.9991455078125
 20
263.05313110351562
 30
0.0
 10
468.92132568359375
 20
262.39959716796875
 30
0.0
 10
468.95245361328125
 20
261.77719116210937
 30
0.0
 10
469.20144653320312
 20
261.31036376953125
 30
0.0
 10
469.21701049804687
 20
260.7657470703125
 30
0.0
 10
469.10806274414062
 20
260.29898071289062
 30
0.0
 10
468.8280029296875
 20
259.92550659179687
 30
0.0
 10
468.25225830078125
 20
259.67654418945312
 30
0.0
 10
467.66098022460937
 20
259.7698974609375
 30
0.0
 10
467.05410766601562
 20
260.39230346679687
 30
0.0
 10
466.49398803710937
 20
260.78131103515625
 30
0.0
 10
465.560302734375
 20
261.15478515625
 30
0.0
 10
463.36630249023437
 20
262.04171752929687
 30
0.0
 10
463.36630249023437
 20
262.04171752929687
 30
0.0
  0
LWPOLYLINE
  5
4F
100
AcDbEntity
  8
0
 62
256
420
16777215
370
-1
 48
1.0
  6
CONTINUOUS
100
AcDbPolyline
 90
76
 70
0
 10
398.9620361328125
 20
315.13360595703125
 30
0.0
 10
399.88009643554687
 20
312.42611694335937
 30
0.0
 10
402.572021484375
 20
313.34417724609375
 30
0.0
 10
402.61871337890625
 20
313.25079345703125
 30
0.0
 10
402.82101440429687
 20
312.441650390625
 30
0.0
 10
402.88323974609375
 20
311.61697387695312
 30
0.0
 10
403.20999145507812
 20
310.69888305664062
 30
0.0
 10
403.20999145507812
 20
310.1231689453125
 30
0.0
 10
402.94546508789062
 20
309.60968017578125
 30
0.0
 10
402.64984130859375
 20
309.22067260742188
 30
0.0
 10
402.229736328125
 20
308.87835693359375
 30
0.0
 10
401.35833740234375
 20
308.5360107421875
 30
0.0
 10
400.8448486328125
 20
308.45822143554687
 30
0.0
 10
400.33132934570312
 20
308.52047729492187
 30
0.0
 10
399.64669799804687
 20
308.8939208984375
 30
0.0
 10
398.88424682617187
 20
309.22067260742188
 30
0.0
 10
397.997314453125
 20
309.17398071289062
 30
0.0
 10
397.03256225585938
 20
308.8939208984375
 30
0.0
 10
395.44540405273437
 20
308.45822143554687
 30
0.0
 10
392.81570434570312
 20
307.61795043945312
 30
0.0
 10
390.55947875976562
 20
307.15115356445312
 30
0.0
 10
388.6766357421875
 20
306.90219116210937
 30
0.0
 10
387.33843994140625
 20
306.37313842773437
 30
0.0
 10
385.54901123046875
 20
305.17498779296875
 30
0.0
 10
385.11337280273437
 20
304.67706298828125
 30
0.0
 10
384.84881591796875
 20
304.19467163085937
 30
0.0
 10
384.475341796875
 20
303.61895751953125
 30
0.0
 10
383.96188354492187
 20
303.15213012695312
 30
0.0
 10
383.09051513671875
 20
302.93429565429687
 30
0.0
 10
382.62368774414062
 20
302.91873168945312
 30
0.0
 10
382.2191162109375
 20
303.04324340820312
 30
0.0
 10
381.90786743164062
 20
303.52560424804687
 30
0.0
 10
381.72119140625
 20
304.21023559570312
 30
0.0
 10
381.2232666015625
 20
305.159423828125
 30
0.0
 10
380.9898681640625
 20
305.64178466796875
 30
0.0
 10
380.86538696289062
 20
306.1864013671875
 30
0.0
 10
380.88092041015625
 20
306.4820556640625
 30
0.0
 10
383.82180786132813
 20
307.509033203125
 30
0.0
 10
382.88821411132812
 20
310.20095825195312
 30
0.0
 10
380.11846923828125
 20
309.23623657226562
 30
0.0
 10
379.94732666015625
 20
310.20095825195312
 30
0.0
 10
379.52716064453125
 20
311.4146728515625
 30
0.0
 10
379.37161254882812
 20
312.1771240234375
 30
0.0
 10
379.38714599609375
 20
312.8306884765625
 30
0.0
 10
379.48049926757812
 20
313.15744018554688
 30
0.0
 10
379.72946166992187
 20
313.45309448242187
 30
0.0
 10
380.35186767578125
 20
313.857666015625
 30
0.0
 10
381.02093505859375
 20
313.84210205078125
 30
0.0
 10
381.5966796875
 20
313.56201171875
 30
0.0
 10
382.26580810546875
 20
313.07965087890625
 30
0.0
 10
382.87265014648437
 20
312.89291381835938
 30
0.0
 10
383.61953735351562
 20
312.98626708984375
 30
0.0
 10
384.94216918945312
 20
313.15744018554688
 30
0.0
 10
386.73159790039062
 20
313.67092895507812
 30
0.0
 10
388.7388916015625
 20
314.10662841796875
 30
0.0
 10
389.29904174804687
 20
314.24667358398437
 30
0.0
 10
390.74618530273437
 20
314.60455322265625
 30
0.0
 10
392.115478515625
 20
315.04025268554688
 30
0.0
 10
393.34475708007812
 20
315.55374145507812
 30
0.0
 10
394.822998046875
 20
316.1138916015625
 30
0.0
 10
396.25454711914062
 20
316.81414794921875
 30
0.0
 10
396.8458251953125
 20
317.24981689453125
 30
0.0
 10
397.3126220703125
 20
317.74774169921875
 30
0.0
 10
397.60830688476562
 20
318.38571166992187
 30
0.0
 10
397.872802734375
 20
318.97702026367188
 30
0.0
 10
398.27740478515625
 20
319.22598266601562
 30
0.0
 10
398.80645751953125
 20
319.3193359375
 30
0.0
 10
399.50665283203125
 20
319.4593505859375
 30
0.0
 10
399.94235229492187
 20
319.39712524414062
 30
0.0
 10
400.2535400390625
 20
319.0859375
 30
0.0
 10
400.9071044921875
 20
318.15231323242187
 30
0.0
 10
401.60733032226562
 20
317.20315551757812
 30
0.0
 10
401.87179565429687
 20
316.7052001953125
 30
0.0
 10
402.01187133789062
 20
316.16058349609375
 30
0.0
 10
398.9620361328125
 20
315.13360595703125
 30
0.0
 10
398.9620361328125
 20
315.13360595703125
 30
0.0
  0
LWPOLYLINE
  5
50
100
AcDbEntity
  8
0
 62
256
420
16777215
370
-1
 48
1.0
  6
CONTINUOUS
100
AcDbPolyline
 90
6
 70
0
 10
476.82598876953125
 20
324.82769775390625
 30
0.0
 10
476.82598876953125
 20
206.89593505859375
 30
0.0
 10
349.40240478515625
 20
206.89593505859375
 30
0.0
 10
349.40240478515625
 20
324.82769775390625
 30
0.0
 10
476.82598876953125
 20
324.82769775390625
 30
0.0
 10
476.82598876953125
 20
324.82769775390625
 30
0.0
  0
LWPOLYLINE
  5
51
100
AcDbEntity
  8
0
 62
256
420
16777215
370
-1
 48
1.0
  6
CONTINUOUS
100
AcDbPolyline
 90
35
 70
0
 10
390.3883056640625
 20
260.50128173828125
 30
0.0
 10
391.35305786132812
 20
260.42349243164062
 30
0.0
 10
392.30224609375
 20
260.45458984375
 30
0.0
 10
393.68710327148437
 20
260.59463500976562
 30
0.0
 10
396.472412109375
 20
260.76580810546875
 30
0.0
 10
399.2576904296875
 20
260.98367309570312
 30
0.0
 10
401.047119140625
 20
261.29486083984375
 30
0.0
 10
402.80548095703125
 20
261.7772216796875
 30
0.0
 10
405.91754150390625
 20
262.9287109375
 30
0.0
 10
407.05343627929687
 20
263.28659057617187
 30
0.0
 10
408.04928588867188
 20
263.64443969726562
 30
0.0
 10
408.5472412109375
 20
263.75335693359375
 30
0.0
 10
409.06072998046875
 20
263.73782348632812
 30
0.0
 10
409.3408203125
 20
263.66000366210937
 30
0.0
 10
409.82315063476562
 20
263.45773315429687
 30
0.0
 10
410.41445922851563
 20
262.81976318359375
 30
0.0
 10
410.52340698242187
 20
262.0728759765625
 30
0.0
 10
410.43002319335937
 20
261.62164306640625
 30
0.0
 10
410.22775268554687
 20
261.23263549804687
 30
0.0
 10
409.72982788085937
 20
260.84359741210937
 30
0.0
 10
408.5472412109375
 20
260.33010864257812
 30
0.0
 10
408.36050415039063
 20
260.23675537109375
 30
0.0
 10
406.97564697265625
 20
259.76992797851562
 30
0.0
 10
406.1353759765625
 20
259.4898681640625
 30
0.0
 10
401.576171875
 20
258.276123046875
 30
0.0
 10
399.24212646484375
 20
257.82489013671875
 30
0.0
 10
396.9080810546875
 20
257.52926635742187
 30
0.0
 10
392.81570434570312
 20
257.342529296875
 30
0.0
 10
390.20156860351562
 20
257.40475463867187
 30
0.0
 10
388.91006469726562
 20
257.56039428710937
 30
0.0
 10
387.63409423828125
 20
257.87158203125
 30
0.0
 10
385.87579345703125
 20
258.64959716796875
 30
0.0
 10
385.11334228515625
 20
259.20977783203125
 30
0.0
 10
384.45980834960937
 20
259.87887573242187
 30
0.0
 10
383.9930419921875
 20
260.67245483398438
 30
0.0
  0
LWPOLYLINE
  5
52
100
AcDbEntity
  8
0
 62
256
420
16777215
370
-1
 48
1.0
  6
CONTINUOUS
100
AcDbPolyline
 90
77
 70
0
 10
390.38833618164062
 20
260.79690551757813
 30
0.0
 10
390.8551025390625
 20
260.84356689453125
 30
0.0
 10
391.4464111328125
 20
261.23260498046875
 30
0.0
 10
391.92877197265625
 20
261.917236328125
 30
0.0
 10
391.9443359375
 20
262.69525146484375
 30
0.0
 10
391.89764404296875
 20
263.51995849609375
 30
0.0
 10
391.99102783203125
 20
264.15792846679687
 30
0.0
 10
391.89764404296875
 20
264.68698120117187
 30
0.0
 10
391.9443359375
 20
265.13824462890625
 30
0.0
 10
392.177734375
 20
265.51168823242187
 30
0.0
 10
392.53561401367187
 20
265.7451171875
 30
0.0
 10
392.97134399414062
 20
265.83843994140625
 30
0.0
 10
393.79598999023437
 20
265.76065063476562
 30
0.0
 10
394.60516357421875
 20
265.60504150390625
 30
0.0
 10
395.056396484375
 20
265.60504150390625
 30
0.0
 10
395.92779541015625
 20
265.94735717773437
 30
0.0
 10
396.472412109375
 20
266.42974853515625
 30
0.0
 10
397.23486328125
 20
266.98992919921875
 30
0.0
 10
398.05953979492187
 20
267.45672607421875
 30
0.0
 10
399.14877319335937
 20
267.92352294921875
 30
0.0
 10
399.86456298828125
 20
268.06356811523438
 30
0.0
 10
400.82928466796875
 20
268.42147827148437
 30
0.0
 10
401.21832275390625
 20
268.51483154296875
 30
0.0
 10
402.05853271484375
 20
268.91940307617187
 30
0.0
 10
402.82101440429687
 20
269.46401977539062
 30
0.0
 10
403.00775146484375
 20
269.69741821289062
 30
0.0
 10
403.50567626953125
 20
270.3509521484375
 30
0.0
 10
403.78579711914062
 20
270.70883178710937
 30
0.0
 10
404.05026245117187
 20
270.63104248046875
 30
0.0
 10
404.34591674804687
 20
270.41317749023437
 30
0.0
 10
405.38845825195312
 20
269.61959838867187
 30
0.0
 10
405.79306030273437
 20
269.10610961914062
 30
0.0
 10
406.91342163085937
 20
267.83016967773437
 30
0.0
 10
408.00259399414062
 20
266.55422973632812
 30
0.0
 10
408.79620361328125
 20
265.20046997070312
 30
0.0
 10
409.23190307617187
 20
264.5936279296875
 30
0.0
 10
409.77651977539062
 20
264.11126708984375
 30
0.0
 10
410.49227905273437
 20
263.800048828125
 30
0.0
 10
411.25473022460937
 20
263.72225952148437
 30
0.0
 10
411.58148193359375
 20
263.75338745117187
 30
0.0
 10
412.46841430664062
 20
263.97119140625
 30
0.0
 10
412.8885498046875
 20
264.01788330078125
 30
0.0
 10
413.26199340820312
 20
263.90896606445312
 30
0.0
 10
413.72879028320312
 20
263.44216918945312
 30
0.0
 10
414.50680541992187
 20
262.6485595703125
 30
0.0
 10
415.14480590820312
 20
261.77719116210937
 30
0.0
 10
415.33151245117187
 20
261.40371704101562
 30
0.0
 10
415.81390380859375
 20
261.1859130859375
 30
0.0
 10
416.43630981445312
 20
261.23260498046875
 30
0.0
 10
417.46328735351562
 20
261.55935668945312
 30
0.0
 10
418.28799438476562
 20
262.10397338867187
 30
0.0
 10
419.268310546875
 20
262.85089111328125
 30
0.0
 10
419.73513793945313
 20
263.03756713867187
 30
0.0
 10
420.55978393554687
 20
263.03756713867187
 30
0.0
 10
421.5556640625
 20
262.866455078125
 30
0.0
 10
422.551513671875
 20
262.78860473632812
 30
0.0
 10
423.39178466796875
 20
262.88198852539062
 30
0.0
 10
424.12313842773437
 20
263.23989868164062
 30
0.0
 10
424.44989013671875
 20
263.6444091796875
 30
0.0
 10
424.68328857421875
 20
264.12680053710938
 30
0.0
 10
424.82333374023437
 20
264.8892822265625
 30
0.0
 10
424.79220581054687
 20
265.65170288085938
 30
0.0
 10
424.51211547851562
 20
266.95880126953125
 30
0.0
 10
424.38763427734375
 20
268.12582397460937
 30
0.0
 10
424.325439453125
 20
268.39035034179687
 30
0.0
 10
418.80148315429687
 20
267.7056884765625
 30
0.0
 10
418.45913696289062
 20
270.53768920898437
 30
0.0
 10
423.25173950195312
 20
271.12896728515625
 30
0.0
 10
423.26730346679687
 20
271.25344848632812
 30
0.0
 10
423.50070190429687
 20
272.35824584960937
 30
0.0
 10
423.967529296875
 20
273.30740356445313
 30
0.0
 10
424.434326171875
 20
274.0543212890625
 30
0.0
 10
425.18124389648437
 20
275.39251708984375
 30
0.0
 10
425.67913818359375
 20
276.139404296875
 30
0.0
 10
426.30160522460937
 20
276.76177978515625
 30
0.0
 10
427.77981567382812
 20
277.88214111328125
 30
0.0
 10
427.85760498046875
 20
277.92880249023437
 30
0.0
  0
LWPOLYLINE
  5
53
100
AcDbEntity
  8
0
 62
256
420
16777215
370
-1
 48
1.0
  6
CONTINUOUS
100
AcDbPolyline
 90
2
 70
0
 10
383.01275634765625
 20
307.8358154296875
 30
0.0
 10
383.02828979492187
 20
307.85134887695312
 30
0.0
  0
LWPOLYLINE
  5
54
100
AcDbEntity
  8
0
 62
256
420
16777215
370
-1
 48
1.0
  6
CONTINUOUS
100
AcDbPolyline
 90
129
 70
0
 10
451.54049682617187
 20
300.27346801757812
 30
0.0
 10
450.762451171875
 20
299.96224975585937
 30
0.0
 10
449.05081176757812
 20
299.23092651367187
 30
0.0
 10
447.30807495117187
 20
298.79522705078125
 30
0.0
 10
446.59228515625
 20
298.63961791992187
 30
0.0
 10
445.89208984375
 20
298.59292602539062
 30
0.0
 10
445.28521728515625
 20
298.73300170898437
 30
0.0
 10
444.6783447265625
 20
298.98196411132812
 30
0.0
 10
442.26651000976562
 20
300.08673095703125
 30
0.0
 10
441.3328857421875
 20
300.52243041992187
 30
0.0
 10
440.35260009765625
 20
300.77139282226562
 30
0.0
 10
439.40338134765625
 20
300.74026489257812
 30
0.0
 10
437.831787109375
 20
300.693603515625
 30
0.0
 10
437.17828369140625
 20
300.64691162109375
 30
0.0
 10
436.02679443359375
 20
300.39794921875
 30
0.0
 10
435.1087646484375
 20
300.05563354492187
 30
0.0
 10
432.4635009765625
 20
298.74853515625
 30
0.0
 10
431.85662841796875
 20
298.42178344726562
 30
0.0
 10
431.21865844726562
 20
298.21951293945312
 30
0.0
 10
430.67404174804687
 20
298.21951293945312
 30
0.0
 10
430.12942504882812
 20
298.46847534179687
 30
0.0
 10
429.72488403320312
 20
298.85748291015625
 30
0.0
 10
429.61599731445312
 20
299.33984375
 30
0.0
 10
429.69375610351562
 20
299.94668579101563
 30
0.0
 10
430.14498901367187
 20
300.81805419921875
 30
0.0
 10
430.84521484375
 20
301.54940795898437
 30
0.0
 10
431.59210205078125
 20
302.17181396484375
 30
0.0
 10
432.58798217773438
 20
302.79425048828125
 30
0.0
 10
433.64608764648437
 20
303.27664184570312
 30
0.0
 10
435.1087646484375
 20
303.8056640625
 30
0.0
 10
436.49365234375
 20
304.14801025390625
 30
0.0
 10
437.81625366210937
 20
304.2724609375
 30
0.0
 10
439.16998291015625
 20
304.28802490234375
 30
0.0
 10
440.50820922851563
 20
304.334716796875
 30
0.0
 10
441.84637451171875
 20
304.2724609375
 30
0.0
 10
443.72918701171875
 20
303.97683715820313
 30
0.0
 10
444.61611938476562
 20
303.99240112304687
 30
0.0
 10
445.34747314453125
 20
304.19467163085937
 30
0.0
 10
445.96987915039062
 20
304.61480712890625
 30
0.0
 10
446.40554809570312
 20
305.43951416015625
 30
0.0
 10
446.43670654296875
 20
306.1241455078125
 30
0.0
 10
446.24996948242187
 20
306.80880737304687
 30
0.0
 10
445.64312744140625
 20
308.06918334960937
 30
0.0
 10
444.61611938476562
 20
310.10760498046875
 30
0.0
 10
444.10263061523437
 20
311.21237182617187
 30
0.0
 10
443.7447509765625
 20
312.36386108398437
 30
0.0
 10
443.6824951171875
 20
313.65536499023437
 30
0.0
 10
443.77584838867187
 20
314.40225219726562
 30
0.0
 10
443.99371337890625
 20
315.13357543945313
 30
0.0
 10
444.60055541992187
 20
316.09832763671875
 30
0.0
 10
445.48751831054687
 20
316.8763427734375
 30
0.0
 10
446.31219482421875
 20
317.34317016601562
 30
0.0
 10
447.85269165039063
 20
317.88775634765625
 30
0.0
 10
450.29562377929687
 20
318.35458374023437
 30
0.0
 10
451.21368408203125
 20
318.49462890625
 30
0.0
 10
451.99169921875
 20
318.86807250976562
 30
0.0
 10
452.47406005859375
 20
319.38156127929687
 30
0.0
 10
453.42327880859375
 20
319.91061401367187
 30
0.0
 10
454.06121826171875
 20
320.19070434570312
 30
0.0
 10
454.73031616210937
 20
320.33074951171875
 30
0.0
 10
455.19711303710937
 20
320.2529296875
 30
0.0
 10
455.63284301757812
 20
320.03509521484375
 30
0.0
 10
456.06851196289062
 20
319.66168212890625
 30
0.0
 10
456.3797607421875
 20
319.17929077148437
 30
0.0
 10
456.58200073242187
 20
318.51019287109375
 30
0.0
 10
456.59756469726562
 20
317.79440307617187
 30
0.0
 10
456.2552490234375
 20
316.65850830078125
 30
0.0
 10
455.78842163085937
 20
315.5537109375
 30
0.0
 10
455.4305419921875
 20
314.07550048828125
 30
0.0
 10
455.32162475585937
 20
313.34414672851563
 30
0.0
 10
455.41497802734375
 20
312.65951538085937
 30
0.0
 10
455.83514404296875
 20
312.1771240234375
 30
0.0
 10
456.45751953125
 20
311.8814697265625
 30
0.0
 10
456.92434692382812
 20
311.80368041992187
 30
0.0
 10
457.36001586914062
 20
311.85037231445312
 30
0.0
 10
457.96685791015625
 20
312.208251953125
 30
0.0
 10
458.5426025390625
 20
312.69061279296875
 30
0.0
 10
460.25424194335937
 20
313.733154296875
 30
0.0
 10
461.748046875
 20
314.8223876953125
 30
0.0
 10
462.635009765625
 20
315.30474853515625
 30
0.0
 10
463.5997314453125
 20
315.53814697265625
 30
0.0
 10
464.22210693359375
 20
315.52261352539062
 30
0.0
 10
464.86013793945312
 20
315.382568359375
 30
0.0
 10
465.54476928710937
 20
315.10247802734375
 30
0.0
 10
466.12051391601562
 20
314.68234252929687
 30
0.0
 10
466.52505493164062
 20
314.07550048828125
 30
0.0
 10
466.80517578125
 20
313.37527465820313
 30
0.0
 10
467.17861938476562
 20
311.99041748046875
 30
0.0
 10
467.27197265625
 20
310.90118408203125
 30
0.0
 10
467.443115234375
 20
309.8275146484375
 30
0.0
 10
467.94107055664062
 20
308.52044677734375
 30
0.0
 10
468.53231811523437
 20
306.57540893554687
 30
0.0
 10
469.1859130859375
 20
305.00381469726562
 30
0.0
 10
469.40374755859375
 20
304.0701904296875
 30
0.0
 10
469.52822875976562
 20
303.12103271484375
 30
0.0
 10
469.9483642578125
 20
301.11370849609375
 30
0.0
 10
470.07284545898437
 20
300.63134765625
 30
0.0
 10
470.1195068359375
 20
300.08673095703125
 30
0.0
 10
470.04168701171875
 20
299.52655029296875
 30
0.0
 10
469.65267944335937
 20
298.48403930664062
 30
0.0
 10
468.625732421875
 20
296.7568359375
 30
0.0
 10
468.267822265625
 20
295.9010009765625
 30
0.0
 10
467.801025390625
 20
295.2008056640625
 30
0.0
 10
458.24697875976562
 20
305.84408569335937
 30
0.0
 10
456.13076782226562
 20
303.94570922851562
 30
0.0
 10
465.79376220703125
 20
293.16241455078125
 30
0.0
 10
464.51776123046875
 20
292.3221435546875
 30
0.0
 10
463.64642333984375
 20
291.57522583007812
 30
0.0
 10
462.635009765625
 20
291.061767578125
 30
0.0
 10
461.68582153320312
 20
290.89059448242187
 30
0.0
 10
460.75216674804687
 20
291.04620361328125
 30
0.0
 10
460.14535522460937
 20
291.40408325195312
 30
0.0
 10
459.69403076171875
 20
291.93313598632812
 30
0.0
 10
459.52291870117187
 20
292.41549682617187
 30
0.0
 10
459.4295654296875
 20
292.94454956054687
 30
0.0
 10
459.3050537109375
 20
293.67587280273437
 30
0.0
 10
459.02499389648437
 20
294.0804443359375
 30
0.0
 10
458.58929443359375
 20
294.3760986328125
 30
0.0
 10
457.46893310546875
 20
294.78067016601562
 30
0.0
 10
456.3797607421875
 20
295.12298583984375
 30
0.0
 10
455.92849731445312
 20
295.3719482421875
 30
0.0
 10
455.57058715820312
 20
295.71429443359375
 30
0.0
 10
455.22821044921875
 20
296.36782836914063
 30
0.0
 10
454.77700805664062
 20
298.00167846679687
 30
0.0
 10
454.49691772460937
 20
298.79522705078125
 30
0.0
 10
454.04568481445312
 20
299.51101684570312
 30
0.0
 10
453.45437622070313
 20
300.05563354492187
 30
0.0
 10
452.72305297851562
 20
300.3668212890625
 30
0.0
 10
451.80496215820312
 20
300.335693359375
 30
0.0
  0
LWPOLYLINE
  5
55
100
AcDbEntity
  8
0
 62
256
420
16777215
370
-1
 48
1.0
  6
CONTINUOUS
100
AcDbPolyline
 90
129
 70
0
 10
411.9549560546875
 20
237.84542846679687
 30
0.0
 10
411.53482055664062
 20
237.73651123046875
 30
0.0
 10
410.24331665039062
 20
237.30081176757812
 30
0.0
 10
408.99850463867187
 20
236.72506713867187
 30
0.0
 10
407.395751953125
 20
235.88482666015625
 30
0.0
 10
406.47769165039063
 20
235.40243530273438
 30
0.0
 10
405.99533081054687
 20
235.13790893554687
 30
0.0
 10
405.637451171875
 20
234.780029296875
 30
0.0
 10
405.51300048828125
 20
234.20428466796875
 30
0.0
 10
405.6063232421875
 20
233.75308227539062
 30
0.0
 10
405.79302978515625
 20
233.31735229492187
 30
0.0
 10
406.22872924804687
 20
232.77273559570312
 30
0.0
 10
406.74224853515625
 20
232.67941284179687
 30
0.0
 10
407.33352661132812
 20
232.81942749023437
 30
0.0
 10
409.26303100585937
 20
233.5196533203125
 30
0.0
 10
411.45700073242187
 20
234.49993896484375
 30
0.0
 10
413.05972290039062
 20
235.07568359375
 30
0.0
 10
413.80661010742187
 20
235.35577392578125
 30
0.0
 10
414.67800903320312
 20
235.55807495117187
 30
0.0
 10
415.90725708007812
 20
235.900390625
 30
0.0
 10
416.93426513671875
 20
236.1649169921875
 30
0.0
 10
417.99234008789062
 20
236.28939819335937
 30
0.0
 10
419.8284912109375
 20
236.58502197265625
 30
0.0
 10
421.33782958984375
 20
236.67840576171875
 30
0.0
 10
422.67599487304687
 20
236.60061645507812
 30
0.0
 10
424.60549926757812
 20
236.18048095703125
 30
0.0
 10
425.5235595703125
 20
235.82260131835937
 30
0.0
 10
426.37939453125
 20
235.32464599609375
 30
0.0
 10
427.09512329101562
 20
234.63998413085937
 30
0.0
 10
427.6397705078125
 20
233.79977416992187
 30
0.0
 10
427.98208618164062
 20
232.94393920898437
 30
0.0
 10
428.19992065429687
 20
232.02584838867187
 30
0.0
 10
428.52670288085937
 20
230.42315673828125
 30
0.0
 10
428.65118408203125
 20
229.90966796875
 30
0.0
 10
432.32342529296875
 20
230.1119384765625
 30
0.0
 10
432.47900390625
 20
227.27996826171875
 30
0.0
 10
428.86904907226563
 20
227.06210327148437
 30
0.0
 10
428.71340942382812
 20
225.73947143554687
 30
0.0
 10
428.58895874023437
 20
224.51022338867187
 30
0.0
 10
428.2777099609375
 20
223.24984741210937
 30
0.0
 10
427.96652221679687
 20
222.39401245117187
 30
0.0
 10
427.18850708007812
 20
221.55374145507812
 30
0.0
 10
426.44161987304687
 20
220.8846435546875
 30
0.0
 10
425.21234130859375
 20
220.34002685546875
 30
0.0
 10
424.09201049804687
 20
220.04437255859375
 30
0.0
 10
422.03805541992187
 20
219.68649291992187
 30
0.0
 10
419.735107421875
 20
219.67092895507812
 30
0.0
 10
417.41659545898437
 20
219.82656860351562
 30
0.0
 10
416.04730224609375
 20
220.02883911132812
 30
0.0
 10
414.35122680664062
 20
220.37118530273437
 30
0.0
 10
413.2464599609375
 20
220.5889892578125
 30
0.0
 10
411.34808349609375
 20
221.02468872070312
 30
0.0
 10
409.51199340820312
 20
221.66268920898437
 30
0.0
 10
408.85842895507812
 20
221.9427490234375
 30
0.0
 10
408.1893310546875
 20
222.11392211914062
 30
0.0
 10
407.42684936523437
 20
222.05166625976562
 30
0.0
 10
406.695556640625
 20
221.75604248046875
 30
0.0
 10
406.39990234375
 20
221.58486938476562
 30
0.0
 10
406.16647338867187
 20
221.36703491210937
 30
0.0
 10
406.08871459960937
 20
221.05581665039062
 30
0.0
 10
406.13540649414062
 20
220.7135009765625
 30
0.0
 10
406.52438354492188
 20
219.81100463867187
 30
0.0
 10
406.91336059570312
 20
219.4686279296875
 30
0.0
 10
407.395751953125
 20
219.20413208007812
 30
0.0
 10
408.46942138671875
 20
218.81512451171875
 30
0.0
 10
410.803466796875
 20
218.099365234375
 30
0.0
 10
412.63961791992187
 20
217.64810180664062
 30
0.0
 10
414.2734375
 20
217.25912475585937
 30
0.0
 10
416.327392578125
 20
217.02569580078125
 30
0.0
 10
418.14794921875
 20
216.74560546875
 30
0.0
 10
420.03076171875
 20
216.82339477539062
 30
0.0
 10
421.91357421875
 20
216.68338012695312
 30
0.0
 10
423.48516845703125
 20
216.80783081054687
 30
0.0
 10
425.05673217773437
 20
217.0723876953125
 30
0.0
 10
426.50387573242187
 20
217.29019165039062
 30
0.0
 10
427.8731689453125
 20
217.632568359375
 30
0.0
 10
428.76010131835937
 20
218.05264282226562
 30
0.0
 10
429.600341796875
 20
218.59725952148437
 30
0.0
 10
430.11386108398437
 20
218.98629760742187
 30
0.0
 10
430.54953002929687
 20
219.43753051757813
 30
0.0
 10
430.8763427734375
 20
220.13775634765625
 30
0.0
 10
431.29644775390625
 20
221.47592163085937
 30
0.0
 10
431.66989135742187
 20
222.68966674804687
 30
0.0
 10
431.9810791015625
 20
223.95004272460937
 30
0.0
 10
432.19894409179687
 20
224.69696044921875
 30
0.0
 10
432.65020751953125
 20
225.07037353515625
 30
0.0
 10
433.27261352539062
 20
225.22598266601562
 30
0.0
 10
433.91058349609375
 20
225.17929077148437
 30
0.0
 10
434.51742553710938
 20
224.97702026367187
 30
0.0
 10
435.7467041015625
 20
224.37017822265625
 30
0.0
 10
436.5091552734375
 20
224.1212158203125
 30
0.0
 10
437.44277954101562
 20
224.07455444335938
 30
0.0
 10
437.87847900390625
 20
224.18344116210937
 30
0.0
 10
438.189697265625
 20
224.43240356445312
 30
0.0
 10
438.34527587890625
 20
225.16375732421875
 30
0.0
 10
438.56314086914062
 20
225.5838623046875
 30
0.0
 10
438.73428344726562
 20
225.98843383789062
 30
0.0
 10
438.60980224609375
 20
226.51748657226562
 30
0.0
 10
438.40753173828125
 20
227.435546875
 30
0.0
 10
438.36083984375
 20
228.3536376953125
 30
0.0
 10
438.57870483398437
 20
230.29867553710937
 30
0.0
 10
438.67205810546875
 20
232.01028442382812
 30
0.0
 10
438.51641845703125
 20
232.7572021484375
 30
0.0
 10
438.0963134765625
 20
233.33291625976562
 30
0.0
 10
437.41168212890625
 20
233.65969848632812
 30
0.0
 10
436.60250854492187
 20
233.6907958984375
 30
0.0
 10
435.85562133789062
 20
233.45742797851563
 30
0.0
 10
435.13986206054687
 20
233.11508178710937
 30
0.0
 10
434.00396728515625
 20
232.6949462890625
 30
0.0
 10
432.91473388671875
 20
232.29037475585937
 30
0.0
 10
432.24560546875
 20
232.27481079101562
 30
0.0
 10
431.4365234375
 20
232.64828491210937
 30
0.0
 10
430.89187622070312
 20
233.33291625976562
 30
0.0
 10
430.68960571289062
 20
234.09536743164062
 30
0.0
 10
430.54953002929687
 20
234.87338256835937
 30
0.0
 10
430.191650390625
 20
235.68252563476562
 30
0.0
 10
429.64703369140625
 20
236.41387939453125
 30
0.0
 10
428.52670288085937
 20
237.596435546875
 30
0.0
 10
427.23519897460937
 20
238.51449584960937
 30
0.0
 10
426.23931884765625
 20
238.91909790039062
 30
0.0
 10
425.18124389648437
 20
239.2147216796875
 30
0.0
 10
423.71853637695312
 20
239.52593994140625
 30
0.0
 10
422.24032592773437
 20
239.71261596679687
 30
0.0
 10
420.20193481445312
 20
239.6815185546875
 30
0.0
 10
417.4788818359375
 20
239.33920288085937
 30
0.0
 10
416.18734741210937
 20
239.10577392578125
 30
0.0
 10
414.91140747070312
 20
238.76345825195312
 30
0.0
 10
412.96636962890625
 20
238.09439086914063
 30
0.0
 10
412.20391845703125
 20
237.90765380859375
 30
0.0
  0
LWPOLYLINE
  5
56
100
AcDbEntity
  8
0
 62
256
420
16777215
370
-1
 48
1.0
  6
CONTINUOUS
100
AcDbPolyline
 90
186
 70
0
 10
413.07528686523437
 20
231.37237548828125
 30
0.0
 10
412.59292602539062
 20
231.24789428710937
 30
0.0
 10
411.923828125
 20
231.23233032226562
 30
0.0
 10
411.23916625976562
 20
231.32568359375
 30
0.0
 10
409.8387451171875
 20
231.4813232421875
 30
0.0
 10
408.90512084960937
 20
231.4190673828125
 30
0.0
 10
408.03372192382812
 20
231.54354858398437
 30
0.0
 10
406.86669921875
 20
231.5902099609375
 30
0.0
 10
405.68411254882812
 20
231.4813232421875
 30
0.0
 10
403.86358642578125
 20
231.1856689453125
 30
0.0
 10
402.10525512695312
 20
230.62548828125
 30
0.0
 10
401.42059326171875
 20
230.267578125
 30
0.0
 10
400.54922485351562
 20
229.34951782226562
 30
0.0
 10
399.80233764648437
 20
228.27587890625
 30
0.0
 10
399.47552490234375
 20
227.17108154296875
 30
0.0
 10
399.33547973632812
 20
226.20632934570312
 30
0.0
 10
399.27328491210937
 20
225.66171264648437
 30
0.0
 10
399.33547973632812
 20
224.74365234375
 30
0.0
 10
399.47552490234375
 20
224.04345703125
 30
0.0
 10
399.33547973632812
 20
223.70114135742187
 30
0.0
 10
398.96206665039062
 20
223.57662963867187
 30
0.0
 10
398.24627685546875
 20
223.4832763671875
 30
0.0
 10
397.95062255859375
 20
223.23431396484375
 30
0.0
 10
397.28155517578125
 20
222.9853515625
 30
0.0
 10
397.07925415039062
 20
222.76748657226562
 30
0.0
 10
396.95477294921875
 20
222.51852416992187
 30
0.0
 10
396.705810546875
 20
222.14508056640625
 30
0.0
 10
396.39462280273437
 20
221.8961181640625
 30
0.0
 10
396.02114868164062
 20
221.80276489257812
 30
0.0
 10
395.56991577148437
 20
221.756103515625
 30
0.0
 10
394.88522338867188
 20
221.6627197265625
 30
0.0
 10
394.58956909179687
 20
221.70941162109375
 30
0.0
 10
394.0294189453125
 20
221.6004638671875
 30
0.0
 10
393.46923828125
 20
221.42935180664062
 30
0.0
 10
392.53564453125
 20
221.44488525390625
 30
0.0
 10
391.99102783203125
 20
221.39816284179687
 30
0.0
 10
391.50863647460937
 20
221.47598266601562
 30
0.0
 10
390.77731323242187
 20
221.94277954101562
 30
0.0
 10
390.3260498046875
 20
222.098388671875
 30
0.0
 10
390.07708740234375
 20
222.30072021484375
 30
0.0
 10
389.890380859375
 20
222.62747192382812
 30
0.0
 10
389.656982421875
 20
223.4832763671875
 30
0.0
 10
389.50137329101563
 20
224.26129150390625
 30
0.0
 10
389.19015502929687
 20
224.8681640625
 30
0.0
 10
388.77005004882812
 20
225.4283447265625
 30
0.0
 10
388.08535766601562
 20
226.1285400390625
 30
0.0
 10
387.60302734375
 20
226.54867553710937
 30
0.0
 10
386.35818481445312
 20
227.4822998046875
 30
0.0
 10
385.54904174804687
 20
228.32254028320312
 30
0.0
 10
384.833251953125
 20
229.33395385742187
 30
0.0
 10
384.3975830078125
 20
230.18978881835937
 30
0.0
 10
384.1953125
 20
230.796630859375
 30
0.0
 10
384.00857543945312
 20
231.96368408203125
 30
0.0
 10
383.5106201171875
 20
233.08401489257812
 30
0.0
 10
382.99716186523437
 20
233.81533813476562
 30
0.0
 10
382.35916137695312
 20
234.2666015625
 30
0.0
 10
381.58114624023437
 20
234.49996948242187
 30
0.0
 10
380.86538696289062
 20
234.49996948242187
 30
0.0
 10
380.2274169921875
 20
234.2666015625
 30
0.0
 10
379.79168701171875
 20
233.86203002929687
 30
0.0
 10
379.4027099609375
 20
233.41079711914063
 30
0.0
 10
378.68692016601562
 20
232.61721801757812
 30
0.0
 10
377.97116088867187
 20
231.57464599609375
 30
0.0
 10
377.3798828125
 20
230.563232421875
 30
0.0
 10
376.4617919921875
 20
228.50924682617187
 30
0.0
 10
376.16616821289062
 20
227.80905151367187
 30
0.0
 10
376.13507080078125
 20
227.40447998046875
 30
0.0
 10
376.21282958984375
 20
227.03103637695312
 30
0.0
 10
376.49295043945312
 20
226.6575927734375
 30
0.0
 10
376.86639404296875
 20
226.34640502929687
 30
0.0
 10
377.79998779296875
 20
225.5994873046875
 30
0.0
 10
378.546875
 20
225.22604370117187
 30
0.0
 10
379.35604858398437
 20
224.96151733398437
 30
0.0
 10
381.05209350585937
 20
224.5413818359375
 30
0.0
 10
382.82598876953125
 20
223.90338134765625
 30
0.0
 10
383.74404907226562
 20
223.514404296875
 30
0.0
 10
384.6309814453125
 20
223.04757690429687
 30
0.0
 10
385.6890869140625
 20
222.1295166015625
 30
0.0
 10
386.2803955078125
 20
221.3670654296875
 30
0.0
 10
386.7783203125
 20
220.52679443359375
 30
0.0
 10
387.5096435546875
 20
219.03302001953125
 30
0.0
 10
388.02313232421875
 20
217.8970947265625
 30
0.0
 10
388.17874145507812
 20
217.103515625
 30
0.0
 10
388.30322265625
 20
216.76119995117187
 30
0.0
 10
388.52105712890625
 20
216.54336547851562
 30
0.0
 10
394.24728393554687
 20
218.03717041015625
 30
0.0
 10
394.96304321289062
 20
215.28298950195312
 30
0.0
 10
387.89865112304687
 20
213.44686889648437
 30
0.0
 10
387.92977905273438
 20
213.33792114257812
 30
0.0
 10
388.17874145507812
 20
212.27981567382812
 30
0.0
 10
388.38104248046875
 20
211.51736450195312
 30
0.0
 10
388.92562866210937
 20
210.77047729492187
 30
0.0
 10
389.70364379882812
 20
210.33480834960937
 30
0.0
 10
390.55947875976562
 20
210.27252197265625
 30
0.0
 10
391.1507568359375
 20
210.45925903320312
 30
0.0
 10
391.7420654296875
 20
210.59930419921875
 30
0.0
 10
392.22442626953125
 20
210.583740234375
 30
0.0
 10
393.34475708007812
 20
210.80160522460937
 30
0.0
 10
393.88937377929687
 20
210.9105224609375
 30
0.0
 10
394.40289306640625
 20
210.89495849609375
 30
0.0
 10
395.33648681640625
 20
210.38150024414062
 30
0.0
 10
396.239013671875
 20
209.89907836914063
 30
0.0
 10
397.18817138671875
 20
209.6812744140625
 30
0.0
 10
397.997314453125
 20
209.79019165039062
 30
0.0
 10
398.57302856445312
 20
210.0235595703125
 30
0.0
 10
399.0242919921875
 20
210.39703369140625
 30
0.0
 10
399.33547973632812
 20
210.941650390625
 30
0.0
 10
399.53781127929687
 20
211.54852294921875
 30
0.0
 10
400.06683349609375
 20
212.51321411132812
 30
0.0
 10
400.6114501953125
 20
212.90225219726562
 30
0.0
 10
401.24945068359375
 20
212.85552978515625
 30
0.0
 10
401.91854858398437
 20
212.69998168945312
 30
0.0
 10
402.7276611328125
 20
212.7933349609375
 30
0.0
 10
403.59902954101562
 20
213.16677856445312
 30
0.0
 10
404.0191650390625
 20
213.85140991210937
 30
0.0
 10
404.17477416992187
 20
214.73837280273437
 30
0.0
 10
404.112548828125
 20
215.98318481445312
 30
0.0
 10
403.80133056640625
 20
217.15023803710937
 30
0.0
 10
403.521240234375
 20
217.91265869140625
 30
0.0
 10
403.33450317382812
 20
218.69070434570312
 30
0.0
 10
403.44342041015625
 20
219.62429809570312
 30
0.0
 10
403.81689453125
 20
220.52679443359375
 30
0.0
 10
404.345947265625
 20
221.47598266601562
 30
0.0
 10
405.12393188476562
 20
223.07870483398437
 30
0.0
 10
405.51296997070312
 20
223.90338134765625
 30
0.0
 10
406.0108642578125
 20
224.63473510742187
 30
0.0
 10
406.78890991210937
 20
225.21047973632812
 30
0.0
 10
407.6602783203125
 20
225.78622436523437
 30
0.0
 10
408.29824829101562
 20
226.37750244140625
 30
0.0
 10
408.98291015625
 20
226.7198486328125
 30
0.0
 10
409.41860961914062
 20
226.688720703125
 30
0.0
 10
409.88540649414063
 20
226.54867553710937
 30
0.0
 10
410.35223388671875
 20
226.45529174804687
 30
0.0
 10
410.7723388671875
 20
226.48641967773437
 30
0.0
 10
411.3636474609375
 20
226.8909912109375
 30
0.0
 10
411.861572265625
 20
227.13995361328125
 30
0.0
 10
412.40618896484375
 20
227.24887084960937
 30
0.0
 10
413.37091064453125
 20
227.155517578125
 30
0.0
 10
414.335693359375
 20
226.922119140625
 30
0.0
 10
415.33154296875
 20
226.78204345703125
 30
0.0
 10
416.26513671875
 20
226.87545776367187
 30
0.0
 10
416.87197875976562
 20
227.1866455078125
 30
0.0
 10
417.46331787109375
 20
227.59121704101562
 30
0.0
 10
417.89898681640625
 20
227.87127685546875
 30
0.0
 10
418.35025024414062
 20
228.04248046875
 30
0.0
 10
419.01931762695312
 20
227.99578857421875
 30
0.0
 10
419.7039794921875
 20
227.73129272460937
 30
0.0
 10
420.31082153320312
 20
227.40447998046875
 30
0.0
 10
420.83990478515625
 20
226.98434448242187
 30
0.0
 10
421.33782958984375
 20
226.2374267578125
 30
0.0
 10
421.44674682617187
 20
225.64614868164062
 30
0.0
 10
421.43115234375
 20
225.02374267578125
 30
0.0
 10
421.4779052734375
 20
224.23016357421875
 30
0.0
 10
421.75799560546875
 20
223.514404296875
 30
0.0
 10
422.05361938476562
 20
223.20318603515625
 30
0.0
 10
422.42706298828125
 20
223.03201293945312
 30
0.0
 10
422.92498779296875
 20
223.03201293945312
 30
0.0
 10
423.42288208007812
 20
222.9853515625
 30
0.0
 10
423.7030029296875
 20
222.89199829101562
 30
0.0
 10
423.92083740234375
 20
222.9542236328125
 30
0.0
 10
424.092041015625
 20
223.15652465820312
 30
0.0
 10
424.29428100585937
 20
223.747802734375
 30
0.0
 10
424.18536376953125
 20
224.5413818359375
 30
0.0
 10
424.18536376953125
 20
225.28826904296875
 30
0.0
 10
424.1697998046875
 20
226.53311157226562
 30
0.0
 10
423.82748413085937
 20
227.90240478515625
 30
0.0
 10
423.81192016601562
 20
228.4781494140625
 30
0.0
 10
423.74969482421875
 20
229.05389404296875
 30
0.0
 10
423.57852172851563
 20
229.41177368164062
 30
0.0
 10
423.29843139648437
 20
229.70742797851562
 30
0.0
 10
422.72271728515625
 20
229.98751831054687
 30
0.0
 10
422.27142333984375
 20
230.18978881835937
 30
0.0
 10
421.91357421875
 20
230.5009765625
 30
0.0
 10
421.64901733398437
 20
230.85891723632812
 30
0.0
 10
421.24447631835937
 20
231.1234130859375
 30
0.0
 10
420.9954833984375
 20
231.49685668945312
 30
0.0
 10
420.73098754882812
 20
231.76138305664062
 30
0.0
 10
420.34197998046875
 20
231.88583374023437
 30
0.0
 10
419.90628051757813
 20
231.88583374023437
 30
0.0
 10
418.97268676757812
 20
231.77694702148437
 30
0.0
 10
417.96124267578125
 20
232.04147338867187
 30
0.0
 10
417.0587158203125
 20
232.25930786132812
 30
0.0
 10
415.96951293945313
 20
232.52383422851562
 30
0.0
 10
415.05145263671875
 20
232.33712768554688
 30
0.0
 10
414.14895629882812
 20
231.87030029296875
 30
0.0
 10
413.33981323242187
 20
231.46575927734375
 30
0.0
  0
LWPOLYLINE
  5
57
100
AcDbEntity
  8
0
 62
256
420
16777215
370
-1
 48
1.0
  6
CONTINUOUS
100
AcDbPolyline
 90
61
 70
0
 10
420.85543823242187
 20
287.96527099609375
 30
0.0
 10
420.03076171875
 20
286.658203125
 30
0.0
 10
418.7703857421875
 20
284.71316528320312
 30
0.0
 10
417.49441528320312
 20
282.58139038085937
 30
0.0
 10
416.70089721679687
 20
280.94757080078125
 30
0.0
 10
416.31185913085937
 20
280.04507446289062
 30
0.0
 10
416.0784912109375
 20
279.1114501953125
 30
0.0
 10
416.17181396484375
 20
278.27117919921875
 30
0.0
 10
416.48300170898437
 20
277.74209594726562
 30
0.0
 10
416.96539306640625
 20
277.39981079101562
 30
0.0
 10
417.54110717773438
 20
277.32199096679687
 30
0.0
 10
418.11685180664062
 20
277.4931640625
 30
0.0
 10
418.72369384765625
 20
278.022216796875
 30
0.0
 10
419.19052124023437
 20
278.70687866210937
 30
0.0
 10
420.20196533203125
 20
280.4029541015625
 30
0.0
 10
421.10443115234375
 20
282.33242797851562
 30
0.0
 10
421.66461181640625
 20
283.35943603515625
 30
0.0
 10
422.58267211914062
 20
284.74429321289062
 30
0.0
 10
423.29843139648437
 20
285.97354125976562
 30
0.0
 10
423.81195068359375
 20
286.76712036132812
 30
0.0
 10
424.58993530273437
 20
287.73187255859375
 30
0.0
 10
425.92813110351562
 20
289.28790283203125
 30
0.0
 10
426.5816650390625
 20
290.06591796875
 30
0.0
 10
427.31301879882812
 20
290.75057983398437
 30
0.0
 10
428.07550048828125
 20
291.357421875
 30
0.0
 10
428.38668823242187
 20
291.77752685546875
 30
0.0
 10
428.82235717773437
 20
292.13543701171875
 30
0.0
 10
429.3203125
 20
292.41552734375
 30
0.0
 10
430.42507934570312
 20
292.92901611328125
 30
0.0
 10
431.56100463867187
 20
293.25576782226562
 30
0.0
 10
432.74356079101562
 20
293.27130126953125
 30
0.0
 10
433.94171142578125
 20
292.944580078125
 30
0.0
 10
435.55999755859375
 20
291.90203857421875
 30
0.0
 10
435.99569702148437
 20
291.66860961914062
 30
0.0
 10
437.02267456054687
 20
290.98397827148437
 30
0.0
 10
437.98739624023437
 20
290.17483520507812
 30
0.0
 10
438.04965209960937
 20
290.128173828125
 30
0.0
 10
440.3681640625
 20
292.18212890625
 30
0.0
 10
442.25094604492187
 20
290.05035400390625
 30
0.0
 10
440.05694580078125
 20
288.10531616210937
 30
0.0
 10
440.8660888671875
 20
286.82937622070313
 30
0.0
 10
441.73745727539062
 20
285.071044921875
 30
0.0
 10
442.20425415039062
 20
283.96624755859375
 30
0.0
 10
442.48434448242187
 20
282.83035278320312
 30
0.0
 10
442.48434448242187
 20
281.9901123046875
 30
0.0
 10
442.35986328125
 20
281.1654052734375
 30
0.0
 10
442.01754760742187
 20
279.98281860351562
 30
0.0
 10
441.64407348632812
 20
279.14254760742187
 30
0.0
 10
440.99057006835937
 20
277.9599609375
 30
0.0
 10
440.24365234375
 20
277.197509765625
 30
0.0
 10
439.4189453125
 20
276.4661865234375
 30
0.0
 10
438.90548706054687
 20
275.92160034179687
 30
0.0
 10
438.11190795898437
 20
275.28359985351562
 30
0.0
 10
437.22494506835937
 20
274.78567504882812
 30
0.0
 10
435.715576171875
 20
274.13211059570312
 30
0.0
 10
433.03921508789062
 20
272.91842651367187
 30
0.0
 10
430.26947021484375
 20
271.93814086914062
 30
0.0
 10
428.97796630859375
 20
271.39352416992187
 30
0.0
 10
427.23519897460937
 20
270.8333740234375
 30
0.0
 10
425.86587524414062
 20
270.3509521484375
 30
0.0
 10
425.087890625
 20
269.86859130859375
 30
0.0
  0
LWPOLYLINE
  5
58
100
AcDbEntity
  8
0
 62
256
420
16777215
370
-1
 48
1.0
  6
CONTINUOUS
100
AcDbPolyline
 90
107
 70
0
 10
390.13934326171875
 20
320.47079467773437
 30
0.0
 10
388.08538818359375
 20
319.41268920898437
 30
0.0
 10
387.13616943359375
 20
318.790283203125
 30
0.0
 10
386.3115234375
 20
318.02783203125
 30
0.0
 10
385.90692138671875
 20
317.4365234375
 30
0.0
 10
385.73580932617187
 20
316.76742553710937
 30
0.0
 10
385.87579345703125
 20
316.1761474609375
 30
0.0
 10
386.20257568359375
 20
315.74044799804687
 30
0.0
 10
386.54489135742187
 20
315.63153076171875
 30
0.0
 10
386.91836547851562
 20
315.6470947265625
 30
0.0
 10
387.7430419921875
 20
315.8804931640625
 30
0.0
 10
389.85928344726562
 20
316.86080932617187
 30
0.0
 10
392.42672729492187
 20
318.26123046875
 30
0.0
 10
393.87380981445312
 20
318.93032836914063
 30
0.0
 10
395.35205078125
 20
319.53717041015625
 30
0.0
 10
397.11038208007812
 20
320.15960693359375
 30
0.0
 10
399.2576904296875
 20
320.56414794921875
 30
0.0
 10
400.79815673828125
 20
320.59527587890625
 30
0.0
 10
401.91851806640625
 20
320.42410278320312
 30
0.0
 10
402.63430786132812
 20
320.00396728515625
 30
0.0
 10
403.50567626953125
 20
319.30377197265625
 30
0.0
 10
403.98806762695312
 20
318.65023803710937
 30
0.0
 10
404.36151123046875
 20
317.91891479492187
 30
0.0
 10
404.79718017578125
 20
316.98526000976562
 30
0.0
 10
405.07723999023437
 20
316.37841796875
 30
0.0
 10
409.21630859375
 20
317.34317016601562
 30
0.0
 10
409.85430908203125
 20
314.57342529296875
 30
0.0
 10
406.0731201171875
 20
313.68649291992187
 30
0.0
 10
406.16647338867187
 20
313.37527465820313
 30
0.0
 10
406.32208251953125
 20
311.61697387695312
 30
0.0
 10
406.32208251953125
 20
310.71444702148437
 30
0.0
 10
406.29098510742187
 20
309.90533447265625
 30
0.0
 10
406.104248046875
 20
309.39181518554687
 30
0.0
 10
405.79302978515625
 20
308.90945434570312
 30
0.0
 10
405.21731567382812
 20
308.31814575195312
 30
0.0
 10
404.14364624023437
 20
307.7735595703125
 30
0.0
 10
402.86770629882812
 20
307.36898803710937
 30
0.0
 10
400.59591674804687
 20
306.65322875976562
 30
0.0
 10
399.13323974609375
 20
306.326416015625
 30
0.0
 10
397.01699829101562
 20
305.93743896484375
 30
0.0
 10
394.86968994140625
 20
305.75070190429687
 30
0.0
 10
391.648681640625
 20
305.93743896484375
 30
0.0
 10
389.92147827148437
 20
305.87518310546875
 30
0.0
 10
389.37686157226563
 20
305.79739379882812
 30
0.0
 10
388.9256591796875
 20
305.56396484375
 30
0.0
 10
388.61444091796875
 20
305.00381469726562
 30
0.0
 10
388.6300048828125
 20
304.31915283203125
 30
0.0
 10
388.8011474609375
 20
303.93014526367188
 30
0.0
 10
389.08123779296875
 20
303.61892700195312
 30
0.0
 10
389.87481689453125
 20
303.3388671875
 30
0.0
 10
390.76174926757812
 20
303.27664184570312
 30
0.0
 10
392.13107299804687
 20
303.13656616210937
 30
0.0
 10
393.78045654296875
 20
303.19879150390625
 30
0.0
 10
396.19229125976562
 20
303.40109252929687
 30
0.0
 10
398.41744995117187
 20
303.68121337890625
 30
0.0
 10
400.79815673828125
 20
304.14801025390625
 30
0.0
 10
402.63430786132812
 20
304.58367919921875
 30
0.0
 10
405.1395263671875
 20
305.26834106445312
 30
0.0
 10
406.86672973632812
 20
305.99966430664062
 30
0.0
 10
407.76922607421875
 20
306.60653686523437
 30
0.0
 10
408.5472412109375
 20
307.38455200195313
 30
0.0
 10
408.99847412109375
 20
308.0692138671875
 30
0.0
 10
409.30966186523437
 20
308.83163452148437
 30
0.0
 10
409.46530151367187
 20
309.76528930664062
 30
0.0
 10
409.511962890625
 20
310.71444702148437
 30
0.0
 10
409.72982788085937
 20
311.78811645507812
 30
0.0
 10
409.93209838867187
 20
312.16156005859375
 30
0.0
 10
410.19659423828125
 20
312.4105224609375
 30
0.0
 10
410.75677490234375
 20
312.50390625
 30
0.0
 10
411.37921142578125
 20
312.45721435546875
 30
0.0
 10
412.68624877929687
 20
312.45721435546875
 30
0.0
 10
413.30868530273437
 20
312.33273315429687
 30
0.0
 10
414.98919677734375
 20
312.11489868164062
 30
0.0
 10
416.12509155273437
 20
312.14602661132812
 30
0.0
 10
416.99649047851562
 20
312.58169555664062
 30
0.0
 10
417.50997924804687
 20
313.28192138671875
 30
0.0
 10
417.75894165039063
 20
314.12216186523437
 30
0.0
 10
417.74337768554687
 20
315.04025268554688
 30
0.0
 10
417.54110717773438
 20
315.92718505859375
 30
0.0
 10
416.57635498046875
 20
318.47906494140625
 30
0.0
 10
416.21847534179687
 20
319.91061401367187
 30
0.0
 10
415.76724243164062
 20
321.31103515625
 30
0.0
 10
415.502685546875
 20
321.76229858398437
 30
0.0
 10
415.160400390625
 20
322.15133666992187
 30
0.0
 10
414.66244506835937
 20
322.4002685546875
 30
0.0
 10
414.11782836914062
 20
322.47808837890625
 30
0.0
 10
413.38650512695312
 20
322.27578735351562
 30
0.0
 10
412.68624877929687
 20
321.88677978515625
 30
0.0
 10
411.1302490234375
 20
320.85980224609375
 30
0.0
 10
410.19659423828125
 20
320.03509521484375
 30
0.0
 10
409.68313598632812
 20
319.72390747070312
 30
0.0
 10
409.13851928710937
 20
319.56829833984375
 30
0.0
 10
408.40719604492187
 20
319.66165161132812
 30
0.0
 10
407.753662109375
 20
320.0506591796875
 30
0.0
 10
407.33349609375
 20
320.62640380859375
 30
0.0
 10
406.97564697265625
 20
321.26437377929687
 30
0.0
 10
406.32208251953125
 20
322.08905029296875
 30
0.0
 10
405.48184204101562
 20
322.72705078125
 30
0.0
 10
403.98806762695312
 20
323.38055419921875
 30
0.0
 10
402.9610595703125
 20
323.6917724609375
 30
0.0
 10
401.90292358398437
 20
323.84735107421875
 30
0.0
 10
400.75149536132812
 20
323.8162841796875
 30
0.0
 10
399.6156005859375
 20
323.62954711914062
 30
0.0
 10
396.79916381835937
 20
322.96044921875
 30
0.0
 10
394.060546875
 20
322.07351684570312
 30
0.0
 10
391.46197509765625
 20
321.04653930664062
 30
0.0
 10
390.3883056640625
 20
320.57974243164062
 30
0.0
  0
LWPOLYLINE
  5
59
100
AcDbEntity
  8
0
 62
256
420
16777215
370
-1
 48
1.0
  6
CONTINUOUS
100
AcDbPolyline
 90
109
 70
0
 10
404.92166137695312
 20
241.33090209960937
 30
0.0
 10
404.7816162109375
 20
241.4398193359375
 30
0.0
 10
403.97250366210937
 20
242.07778930664062
 30
0.0
 10
403.458984375
 20
242.45126342773437
 30
0.0
 10
400.50253295898437
 20
239.93045043945312
 30
0.0
 10
398.65084838867187
 20
242.09335327148437
 30
0.0
 10
401.32723999023437
 20
244.3807373046875
 30
0.0
 10
401.07827758789062
 20
244.62969970703125
 30
0.0
 10
400.1446533203125
 20
246.1390380859375
 30
0.0
 10
399.72451782226562
 20
246.93258666992187
 30
0.0
 10
399.38217163085937
 20
247.66397094726562
 30
0.0
 10
399.30438232421875
 20
248.20858764648437
 30
0.0
 10
399.36663818359375
 20
248.76873779296875
 30
0.0
 10
399.60003662109375
 20
249.56231689453125
 30
0.0
 10
400.30023193359375
 20
250.5426025390625
 30
0.0
 10
401.24945068359375
 20
251.47622680664062
 30
0.0
 10
402.929931640625
 20
253.17230224609375
 30
0.0
 10
404.0814208984375
 20
254.12152099609375
 30
0.0
 10
405.79306030273437
 20
255.45968627929688
 30
0.0
 10
407.59805297851562
 20
256.61114501953125
 30
0.0
 10
410.5389404296875
 20
257.93377685546875
 30
0.0
 10
412.04827880859375
 20
258.7740478515625
 30
0.0
 10
412.48397827148437
 20
259.10079956054687
 30
0.0
 10
412.77963256835937
 20
259.52096557617187
 30
0.0
 10
412.79519653320312
 20
260.15890502929687
 30
0.0
 10
412.48397827148437
 20
260.76577758789063
 30
0.0
 10
412.14169311523437
 20
261.03030395507812
 30
0.0
 10
411.75265502929687
 20
261.1702880859375
 30
0.0
 10
411.34811401367187
 20
261.1702880859375
 30
0.0
 10
410.927978515625
 20
261.0614013671875
 30
0.0
 10
410.103271484375
 20
260.70352172851562
 30
0.0
 10
408.81173706054687
 20
260.19003295898437
 30
0.0
 10
407.395751953125
 20
259.38088989257812
 30
0.0
 10
405.34182739257812
 20
258.08938598632812
 30
0.0
 10
403.4901123046875
 20
256.81341552734375
 30
0.0
 10
401.60733032226562
 20
255.28851318359375
 30
0.0
 10
400.17578125
 20
254.0748291015625
 30
0.0
 10
398.2618408203125
 20
252.3009033203125
 30
0.0
 10
397.07925415039062
 20
250.869384765625
 30
0.0
 10
396.55020141601562
 20
249.9046630859375
 30
0.0
 10
396.2078857421875
 20
248.86209106445312
 30
0.0
 10
396.13006591796875
 20
248.03738403320312
 30
0.0
 10
396.2078857421875
 20
247.22824096679687
 30
0.0
 10
396.50350952148437
 20
246.32577514648437
 30
0.0
 10
396.89251708984375
 20
245.45437622070312
 30
0.0
 10
397.2037353515625
 20
244.39630126953125
 30
0.0
 10
397.18817138671875
 20
243.99172973632812
 30
0.0
 10
397.06369018554687
 20
243.6182861328125
 30
0.0
 10
396.6124267578125
 20
243.29150390625
 30
0.0
 10
396.03671264648437
 20
243.05810546875
 30
0.0
 10
394.88522338867188
 20
242.43569946289062
 30
0.0
 10
394.2628173828125
 20
242.28009033203125
 30
0.0
 10
392.6756591796875
 20
241.6732177734375
 30
0.0
 10
391.69537353515625
 20
241.12860107421875
 30
0.0
 10
391.35305786132812
 20
240.77072143554687
 30
0.0
 10
391.11965942382813
 20
240.33505249023437
 30
0.0
 10
390.97964477539062
 20
239.4947509765625
 30
0.0
 10
391.1507568359375
 20
238.6234130859375
 30
0.0
 10
391.58648681640625
 20
237.81427001953125
 30
0.0
 10
392.17776489257812
 20
237.12960815429687
 30
0.0
 10
394.20059204101562
 20
235.30908203125
 30
0.0
 10
395.18087768554687
 20
234.20431518554687
 30
0.0
 10
396.239013671875
 20
233.17730712890625
 30
0.0
 10
396.67471313476563
 20
232.88165283203125
 30
0.0
 10
397.15704345703125
 20
232.71047973632812
 30
0.0
 10
397.70166015625
 20
232.71047973632812
 30
0.0
 10
398.23074340820312
 20
232.897216796875
 30
0.0
 10
398.7908935546875
 20
233.41070556640625
 30
0.0
 10
399.22659301757812
 20
234.07980346679687
 30
0.0
 10
400.12908935546875
 20
235.69808959960937
 30
0.0
 10
400.59591674804687
 20
236.86508178710937
 30
0.0
 10
400.89151000976562
 20
237.37860107421875
 30
0.0
 10
401.31167602539062
 20
237.78314208984375
 30
0.0
 10
402.01187133789062
 20
238.0321044921875
 30
0.0
 10
402.75875854492188
 20
237.98544311523437
 30
0.0
 10
403.41232299804687
 20
237.67422485351562
 30
0.0
 10
404.0191650390625
 20
237.25408935546875
 30
0.0
 10
404.9683837890625
 20
236.833984375
 30
0.0
 10
406.01089477539062
 20
236.64724731445312
 30
0.0
 10
407.62918090820312
 20
236.75619506835937
 30
0.0
 10
408.70285034179687
 20
236.9739990234375
 30
0.0
 10
409.71426391601562
 20
237.30081176757812
 30
0.0
 10
410.71014404296875
 20
237.8609619140625
 30
0.0
 10
411.628173828125
 20
238.56118774414062
 30
0.0
 10
413.82220458984375
 20
240.45953369140625
 30
0.0
 10
415.84503173828125
 20
242.4979248046875
 30
0.0
 10
417.68112182617187
 20
244.6141357421875
 30
0.0
 10
418.84817504882812
 20
246.0767822265625
 30
0.0
 10
419.92181396484375
 20
247.61727905273437
 30
0.0
 10
420.46646118164062
 20
248.59756469726562
 30
0.0
 10
420.85543823242187
 20
249.67123413085937
 30
0.0
 10
420.93325805664062
 20
250.37149047851562
 30
0.0
 10
420.77767944335937
 20
251.04055786132812
 30
0.0
 10
420.40423583984375
 20
251.50738525390625
 30
0.0
 10
419.8907470703125
 20
251.74075317382812
 30
0.0
 10
419.54840087890625
 20
251.694091796875
 30
0.0
 10
419.22164916992187
 20
251.50738525390625
 30
0.0
 10
418.5992431640625
 20
250.91604614257813
 30
0.0
 10
417.16763305664062
 20
249.06439208984375
 30
0.0
 10
415.53384399414062
 20
246.63699340820312
 30
0.0
 10
414.55349731445312
 20
245.3765869140625
 30
0.0
 10
413.5421142578125
 20
244.16290283203125
 30
0.0
 10
412.25057983398438
 20
242.7935791015625
 30
0.0
 10
410.5389404296875
 20
241.4398193359375
 30
0.0
 10
409.1851806640625
 20
240.70849609375
 30
0.0
 10
408.11154174804687
 20
240.33505249023437
 30
0.0
 10
407.27127075195312
 20
240.38168334960937
 30
0.0
 10
406.18203735351562
 20
240.6151123046875
 30
0.0
 10
405.15505981445312
 20
241.15972900390625
 30
0.0
  0
LWPOLYLINE
  5
5A
100
AcDbEntity
  8
0
 62
256
420
16777215
370
-1
 48
1.0
  6
CONTINUOUS
100
AcDbPolyline
 90
89
 70
0
 10
383.86856079101562
 20
260.93695068359375
 30
0.0
 10
383.6351318359375
 20
261.79278564453125
 30
0.0
 10
383.51065063476562
 20
263.42660522460937
 30
0.0
 10
383.37060546875
 20
264.18905639648437
 30
0.0
 10
382.99716186523437
 20
264.84262084960937
 30
0.0
 10
382.40585327148437
 20
265.27828979492187
 30
0.0
 10
381.81454467773437
 20
265.37167358398437
 30
0.0
 10
381.192138671875
 20
265.30938720703125
 30
0.0
 10
378.67135620117187
 20
264.71810913085937
 30
0.0
 10
377.73776245117187
 20
264.46914672851563
 30
0.0
 10
376.77301025390625
 20
264.391357421875
 30
0.0
 10
376.2906494140625
 20
264.50027465820312
 30
0.0
 10
375.91720581054687
 20
264.73367309570312
 30
0.0
 10
375.74603271484375
 20
265.07601928710937
 30
0.0
 10
375.65267944335937
 20
265.4805908203125
 30
0.0
 10
375.06137084960937
 20
268.8883056640625
 30
0.0
 10
375.01473999023437
 20
270.50656127929687
 30
0.0
 10
375.27920532226562
 20
272.10928344726562
 30
0.0
 10
375.69937133789062
 20
273.02737426757812
 30
0.0
 10
376.36843872070312
 20
273.63421630859375
 30
0.0
 10
377.20870971679687
 20
273.92984008789063
 30
0.0
 10
378.09564208984375
 20
273.85202026367187
 30
0.0
 10
378.96701049804687
 20
273.54083251953125
 30
0.0
 10
379.86953735351562
 20
273.198486328125
 30
0.0
 10
380.80313110351562
 20
273.01177978515625
 30
0.0
 10
381.33221435546875
 20
273.02737426757812
 30
0.0
 10
381.83010864257812
 20
273.198486328125
 30
0.0
 10
382.39028930664062
 20
273.7586669921875
 30
0.0
 10
382.79486083984375
 20
274.73898315429687
 30
0.0
 10
383.01272583007812
 20
275.79708862304687
 30
0.0
 10
383.37060546875
 20
277.01080322265625
 30
0.0
 10
383.97744750976562
 20
277.9910888671875
 30
0.0
 10
384.80215454101562
 20
278.84689331054687
 30
0.0
 10
386.23370361328125
 20
279.92056274414062
 30
0.0
 10
387.38519287109375
 20
280.62075805664062
 30
0.0
 10
388.6300048828125
 20
281.1031494140625
 30
0.0
 10
390.5128173828125
 20
281.35211181640625
 30
0.0
 10
392.50454711914062
 20
281.663330078125
 30
0.0
 10
393.5003662109375
 20
281.80337524414062
 30
0.0
 10
394.49624633789062
 20
281.83447265625
 30
0.0
 10
395.77218627929687
 20
281.74111938476562
 30
0.0
 10
397.37490844726562
 20
281.772216796875
 30
0.0
 10
399.03988647460938
 20
281.60107421875
 30
0.0
 10
400.45587158203125
 20
281.38323974609375
 30
0.0
 10
402.12081909179687
 20
281.0408935546875
 30
0.0
 10
403.988037109375
 20
280.44961547851562
 30
0.0
 10
405.80865478515625
 20
279.73382568359375
 30
0.0
 10
407.70697021484375
 20
279.00250244140625
 30
0.0
 10
409.24746704101562
 20
278.4267578125
 30
0.0
 10
410.38336181640625
 20
277.7576904296875
 30
0.0
 10
411.23916625976562
 20
277.13525390625
 30
0.0
 10
411.50372314453125
 20
276.74627685546875
 30
0.0
 10
411.61264038085937
 20
276.31057739257812
 30
0.0
 10
411.58151245117187
 20
275.96826171875
 30
0.0
 10
411.31698608398437
 20
275.51699829101562
 30
0.0
 10
410.8968505859375
 20
275.17465209960937
 30
0.0
 10
410.49227905273437
 20
274.98794555664062
 30
0.0
 10
410.08773803710937
 20
274.91015625
 30
0.0
 10
409.49642944335937
 20
275.03463745117187
 30
0.0
 10
408.68728637695312
 20
275.25244140625
 30
0.0
 10
407.44244384765625
 20
275.68817138671875
 30
0.0
 10
406.7578125
 20
275.98382568359375
 30
0.0
 10
404.408203125
 20
276.97967529296875
 30
0.0
 10
401.2650146484375
 20
277.9599609375
 30
0.0
 10
398.0284423828125
 20
278.56683349609375
 30
0.0
 10
394.83856201171875
 20
278.78466796875
 30
0.0
 10
393.889404296875
 20
278.80023193359375
 30
0.0
 10
392.75350952148437
 20
278.78466796875
 30
0.0
 10
391.43087768554688
 20
278.64459228515625
 30
0.0
 10
390.0926513671875
 20
278.38009643554687
 30
0.0
 10
388.91006469726562
 20
278.08441162109375
 30
0.0
 10
387.89865112304687
 20
277.50869750976563
 30
0.0
 10
387.40072631835937
 20
276.90185546875
 30
0.0
 10
387.02728271484375
 20
276.20166015625
 30
0.0
 10
386.32705688476562
 20
274.52114868164062
 30
0.0
 10
386.07809448242187
 20
273.2296142578125
 30
0.0
 10
385.96917724609375
 20
271.89144897460937
 30
0.0
 10
385.9224853515625
 20
270.78668212890625
 30
0.0
 10
382.141357421875
 20
270.56878662109375
 30
0.0
 10
382.29690551757813
 20
267.73684692382812
 30
0.0
 10
386.15591430664062
 20
267.95468139648437
 30
0.0
 10
386.5137939453125
 20
266.63204956054687
 30
0.0
 10
386.82501220703125
 20
265.26272583007812
 30
0.0
 10
387.02728271484375
 20
263.58218383789062
 30
0.0
 10
387.22955322265625
 20
262.80419921875
 30
0.0
 10
387.6341552734375
 20
262.15066528320313
 30
0.0
 10
388.132080078125
 20
261.69940185546875
 30
0.0
 10
389.05014038085937
 20
260.983642578125
 30
0.0
 10
390.12380981445312
 20
260.54794311523437
 30
0.0
  0
LWPOLYLINE
  5
5B
100
AcDbEntity
  8
0
 62
256
420
16777215
370
-1
 48
1.0
  6
CONTINUOUS
100
AcDbPolyline
 90
90
 70
0
 10
392.08438110351562
 20
253.37466430664062
 30
0.0
 10
392.08438110351562
 20
253.39019775390625
 30
0.0
 10
392.06881713867187
 20
254.09039306640625
 30
0.0
 10
391.7420654296875
 20
255.11740112304688
 30
0.0
 10
391.4464111328125
 20
255.77093505859375
 30
0.0
 10
391.05740356445312
 20
256.3155517578125
 30
0.0
 10
390.65283203125
 20
256.56451416015625
 30
0.0
 10
390.18603515625
 20
256.70455932617187
 30
0.0
 10
389.61029052734375
 20
256.72012329101562
 30
0.0
 10
389.065673828125
 20
256.58004760742187
 30
0.0
 10
388.45883178710937
 20
256.22219848632812
 30
0.0
 10
387.96087646484375
 20
255.70867919921875
 30
0.0
 10
387.4473876953125
 20
254.635009765625
 30
0.0
 10
387.04281616210937
 20
253.49911499023437
 30
0.0
 10
386.31149291992187
 20
252.176513671875
 30
0.0
 10
385.90692138671875
 20
251.5540771484375
 30
0.0
 10
385.37789916992187
 20
251.118408203125
 30
0.0
 10
384.73992919921875
 20
251.04061889648438
 30
0.0
 10
384.08636474609375
 20
251.24288940429687
 30
0.0
 10
383.68179321289062
 20
251.49185180664062
 30
0.0
 10
383.40170288085937
 20
251.83413696289063
 30
0.0
 10
383.18386840820312
 20
252.50326538085937
 30
0.0
 10
383.09051513671875
 20
253.25015258789062
 30
0.0
 10
382.82598876953125
 20
254.21490478515625
 30
0.0
 10
382.53033447265625
 20
255.16409301757813
 30
0.0
 10
382.15689086914063
 20
256.98468017578125
 30
0.0
 10
381.81454467773437
 20
257.933837890625
 30
0.0
 10
381.28549194335937
 20
258.75851440429687
 30
0.0
 10
380.80313110351562
 20
259.17864990234375
 30
0.0
 10
380.2274169921875
 20
259.4898681640625
 30
0.0
 10
379.542724609375
 20
259.75436401367187
 30
0.0
 10
378.842529296875
 20
259.81658935546875
 30
0.0
 10
378.12677001953125
 20
259.64547729492187
 30
0.0
 10
377.44210815429687
 20
259.31869506835937
 30
0.0
 10
376.2283935546875
 20
258.54067993164062
 30
0.0
 10
375.41925048828125
 20
257.809326171875
 30
0.0
 10
374.57901000976562
 20
257.12469482421875
 30
0.0
 10
373.33419799804687
 20
256.48672485351562
 30
0.0
 10
371.57586669921875
 20
255.459716796875
 30
0.0
 10
370.05093383789062
 20
254.74395751953125
 30
0.0
 10
369.25735473632812
 20
254.1993408203125
 30
0.0
 10
368.52603149414062
 20
253.57693481445313
 30
0.0
 10
366.86105346679687
 20
252.3787841796875
 30
0.0
 10
366.44094848632812
 20
252.1142578125
 30
0.0
 10
365.72515869140625
 20
251.27398681640625
 30
0.0
 10
365.30502319335937
 20
250.23147583007812
 30
0.0
 10
364.90048217773437
 20
248.2708740234375
 30
0.0
 10
364.58926391601562
 20
247.39947509765625
 30
0.0
 10
364.46481323242187
 20
246.57476806640625
 30
0.0
 10
378.68692016601562
 20
247.99078369140625
 30
0.0
 10
378.98260498046875
 20
245.15878295898437
 30
0.0
 10
364.57373046875
 20
243.711669921875
 30
0.0
 10
364.9471435546875
 20
242.2178955078125
 30
0.0
 10
365.0716552734375
 20
241.08197021484375
 30
0.0
 10
365.49172973632812
 20
240.0394287109375
 30
0.0
 10
366.0675048828125
 20
239.26141357421875
 30
0.0
 10
366.86105346679687
 20
238.7479248046875
 30
0.0
 10
367.54571533203125
 20
238.59234619140625
 30
0.0
 10
368.24594116210937
 20
238.70126342773437
 30
0.0
 10
369.1173095703125
 20
239.26141357421875
 30
0.0
 10
369.69305419921875
 20
239.71267700195312
 30
0.0
 10
370.17544555664062
 20
239.82159423828125
 30
0.0
 10
370.7044677734375
 20
239.74380493164062
 30
0.0
 10
371.80926513671875
 20
239.29251098632812
 30
0.0
 10
372.83624267578125
 20
238.8101806640625
 30
0.0
 10
373.33419799804687
 20
238.68569946289062
 30
0.0
 10
373.83209228515625
 20
238.70126342773437
 30
0.0
 10
374.53231811523437
 20
238.96578979492188
 30
0.0
 10
375.9638671875
 20
239.85269165039062
 30
0.0
 10
376.71078491210937
 20
240.24172973632812
 30
0.0
 10
377.5198974609375
 20
240.47512817382812
 30
0.0
 10
378.32904052734375
 20
240.47512817382812
 30
0.0
 10
379.07595825195312
 20
240.21060180664062
 30
0.0
 10
379.77615356445312
 20
239.52593994140625
 30
0.0
 10
380.25851440429687
 20
238.60791015625
 30
0.0
 10
381.02099609375
 20
236.896240234375
 30
0.0
 10
382.016845703125
 20
235.4024658203125
 30
0.0
 10
382.43698120117187
 20
234.81118774414062
 30
0.0
 10
382.9193115234375
 20
234.313232421875
 30
0.0
 10
383.47952270507812
 20
234.00204467773437
 30
0.0
 10
384.08636474609375
 20
233.7841796875
 30
0.0
 10
386.60714721679687
 20
232.95950317382812
 30
0.0
 10
387.60302734375
 20
232.64828491210937
 30
0.0
 10
388.48995971679687
 20
232.18145751953125
 30
0.0
 10
389.15902709960937
 20
231.52792358398437
 30
0.0
 10
390.294921875
 20
230.42315673828125
 30
0.0
 10
390.7462158203125
 20
229.95635986328125
 30
0.0
 10
391.43084716796875
 20
228.99160766601562
 30
0.0
 10
391.86654663085937
 20
228.1202392578125
 30
0.0
 10
392.006591796875
 20
227.8245849609375
 30
0.0
  0
LWPOLYLINE
  5
5C
100
AcDbEntity
  8
0
 62
256
420
16777215
370
-1
 48
1.0
  6
CONTINUOUS
100
AcDbPolyline
 90
128
 70
0
 10
354.14822387695312
 20
309.20510864257812
 30
0.0
 10
354.1326904296875
 20
309.1273193359375
 30
0.0
 10
354.07046508789063
 20
308.55157470703125
 30
0.0
 10
354.14822387695312
 20
307.97586059570312
 30
0.0
 10
354.35052490234375
 20
307.337890625
 30
0.0
 10
354.49057006835937
 20
306.69992065429687
 30
0.0
 10
354.42831420898437
 20
306.217529296875
 30
0.0
 10
354.00820922851562
 20
305.31503295898437
 30
0.0
 10
353.29241943359375
 20
304.52145385742187
 30
0.0
 10
352.46771240234375
 20
303.82125854492187
 30
0.0
 10
351.65859985351562
 20
303.12103271484375
 30
0.0
 10
351.00506591796875
 20
302.32742309570312
 30
0.0
 10
350.6627197265625
 20
301.5494384765625
 30
0.0
 10
350.50717163085937
 20
300.70916748046875
 30
0.0
 10
350.50717163085937
 20
299.9622802734375
 30
0.0
 10
350.61605834960937
 20
299.24652099609375
 30
0.0
 10
350.83389282226562
 20
298.56185913085937
 30
0.0
 10
351.19180297851562
 20
297.95498657226562
 30
0.0
 10
351.7208251953125
 20
297.410400390625
 30
0.0
 10
352.3121337890625
 20
296.94357299804687
 30
0.0
 10
353.68145751953125
 20
296.04107666015625
 30
0.0
 10
354.95736694335937
 20
295.57427978515625
 30
0.0
 10
355.9532470703125
 20
295.32528686523437
 30
0.0
 10
356.6845703125
 20
295.060791015625
 30
0.0
 10
357.35369873046875
 20
294.65618896484375
 30
0.0
 10
357.66488647460938
 20
294.34500122070312
 30
0.0
 10
359.8277587890625
 20
291.90200805664062
 30
0.0
 10
360.32571411132812
 20
291.26406860351562
 30
0.0
 10
361.52383422851562
 20
290.11257934570312
 30
0.0
 10
362.11514282226562
 20
289.59912109375
 30
0.0
 10
362.61306762695312
 20
289.49017333984375
 30
0.0
 10
363.14212036132812
 20
289.52130126953125
 30
0.0
 10
364.04461669921875
 20
289.770263671875
 30
0.0
 10
364.72927856445312
 20
290.20596313476562
 30
0.0
 10
365.24276733398437
 20
290.7972412109375
 30
0.0
 10
365.553955078125
 20
291.52859497070312
 30
0.0
 10
365.849609375
 20
291.99542236328125
 30
0.0
 10
360.03005981445312
 20
295.60537719726562
 30
0.0
 10
361.52383422851562
 20
298.01724243164062
 30
0.0
 10
367.14114379882812
 20
294.53173828125
 30
0.0
 10
367.28115844726562
 20
294.82736206054687
 30
0.0
 10
367.56124877929687
 20
295.46533203125
 30
0.0
 10
367.60797119140625
 20
295.96328735351563
 30
0.0
 10
367.57681274414062
 20
296.50787353515625
 30
0.0
 10
367.4990234375
 20
297.0836181640625
 30
0.0
 10
367.28115844726562
 20
297.56600952148437
 30
0.0
 10
366.73654174804687
 20
297.98611450195312
 30
0.0
 10
366.3475341796875
 20
298.35955810546875
 30
0.0
 10
366.02078247070312
 20
298.76412963867187
 30
0.0
 10
365.78738403320312
 20
299.21536254882812
 30
0.0
 10
365.70956420898437
 20
299.7288818359375
 30
0.0
 10
365.80291748046875
 20
300.25790405273438
 30
0.0
 10
366.145263671875
 20
300.86477661132812
 30
0.0
 10
366.503173828125
 20
301.09820556640625
 30
0.0
 10
366.95440673828125
 20
301.23822021484375
 30
0.0
 10
367.82577514648437
 20
301.58056640625
 30
0.0
 10
368.4326171875
 20
302.21853637695312
 30
0.0
 10
369.03952026367188
 20
302.71646118164062
 30
0.0
 10
369.86419677734375
 20
303.5411376953125
 30
0.0
 10
370.39321899414062
 20
304.53701782226562
 30
0.0
 10
370.51773071289063
 20
305.20611572265625
 30
0.0
 10
370.54885864257812
 20
306.43539428710937
 30
0.0
 10
370.735595703125
 20
307.61795043945312
 30
0.0
 10
370.93783569335937
 20
308.17813110351562
 30
0.0
 10
371.03125
 20
308.8939208984375
 30
0.0
 10
371.23348999023437
 20
309.37628173828125
 30
0.0
 10
371.59140014648437
 20
309.78085327148437
 30
0.0
 10
372.04266357421875
 20
310.07650756835937
 30
0.0
 10
372.54058837890625
 20
310.24765014648437
 30
0.0
 10
373.08517456054687
 20
310.27880859375
 30
0.0
 10
373.62982177734375
 20
310.16986083984375
 30
0.0
 10
374.75015258789062
 20
309.87420654296875
 30
0.0
 10
375.434814453125
 20
309.79641723632812
 30
0.0
 10
376.04165649414062
 20
309.9208984375
 30
0.0
 10
376.44622802734375
 20
310.24765014648437
 30
0.0
 10
376.85076904296875
 20
310.683349609375
 30
0.0
 10
377.44207763671875
 20
311.21240234375
 30
0.0
 10
371.8714599609375
 20
314.682373046875
 30
0.0
 10
373.38082885742187
 20
317.09420776367188
 30
0.0
 10
379.13815307617187
 20
313.51531982421875
 30
0.0
 10
379.46490478515625
 20
313.96658325195312
 30
0.0
 10
379.82278442382812
 20
314.72903442382812
 30
0.0
 10
380.07177734375
 20
315.46038818359375
 30
0.0
 10
380.4296875
 20
316.39398193359375
 30
0.0
 10
380.52304077148437
 20
316.8763427734375
 30
0.0
 10
380.47634887695312
 20
317.32763671875
 30
0.0
 10
380.2740478515625
 20
317.68548583984375
 30
0.0
 10
379.99398803710937
 20
317.98114013671875
 30
0.0
 10
379.49603271484375
 20
318.27679443359375
 30
0.0
 10
378.951416015625
 20
318.44796752929688
 30
0.0
 10
377.92446899414062
 20
318.57244873046875
 30
0.0
 10
376.8974609375
 20
318.619140625
 30
0.0
 10
375.48147583007812
 20
318.94589233398437
 30
0.0
 10
374.06549072265625
 20
319.41268920898437
 30
0.0
 10
372.82064819335937
 20
319.91064453125
 30
0.0
 10
371.77810668945312
 20
320.8131103515625
 30
0.0
 10
370.75115966796875
 20
321.54449462890625
 30
0.0
 10
369.33514404296875
 20
322.66482543945312
 30
0.0
 10
368.261474609375
 20
323.27166748046875
 30
0.0
 10
367.59234619140625
 20
323.39614868164062
 30
0.0
 10
366.89215087890625
 20
323.42727661132812
 30
0.0
 10
365.74072265625
 20
323.42727661132812
 30
0.0
 10
364.93154907226562
 20
323.17831420898437
 30
0.0
 10
364.1846923828125
 20
322.7581787109375
 30
0.0
 10
363.39111328125
 20
322.10464477539062
 30
0.0
 10
363.095458984375
 20
321.60671997070312
 30
0.0
 10
362.89315795898437
 20
321.04653930664062
 30
0.0
 10
362.72198486328125
 20
320.29965209960937
 30
0.0
 10
362.67529296875
 20
319.50607299804687
 30
0.0
 10
362.737548828125
 20
318.8214111328125
 30
0.0
 10
362.67529296875
 20
318.19900512695312
 30
0.0
 10
362.23965454101562
 20
317.66995239257812
 30
0.0
 10
361.5860595703125
 20
317.21868896484375
 30
0.0
 10
361.10372924804687
 20
316.90750122070312
 30
0.0
 10
360.5902099609375
 20
316.7052001953125
 30
0.0
 10
359.9833984375
 20
316.6429443359375
 30
0.0
 10
359.39208984375
 20
316.54959106445312
 30
0.0
 10
358.84747314453125
 20
316.19171142578125
 30
0.0
 10
358.333984375
 20
315.72491455078125
 30
0.0
 10
357.88272094726562
 20
315.35147094726562
 30
0.0
 10
357.15139770507812
 20
314.34002685546875
 30
0.0
 10
356.94912719726562
 20
314.16885375976562
 30
0.0
 10
365.087158203125
 20
309.11175537109375
 30
0.0
 10
363.57778930664062
 20
306.68435668945312
 30
0.0
 10
355.37753295898437
 20
311.78811645507812
 30
0.0
 10
354.94183349609375
 20
311.08792114257812
 30
0.0
 10
354.61508178710937
 20
310.30987548828125
 30
0.0
 10
354.24163818359375
 20
309.46963500976562
 30
0.0
  0
LWPOLYLINE
  5
5D
100
AcDbEntity
  8
0
 62
256
420
16777215
370
-1
 48
1.0
  6
CONTINUOUS
100
AcDbPolyline
 90
42
 70
0
 10
392.11553955078125
 20
227.56002807617187
 30
0.0
 10
392.95578002929688
 20
225.36602783203125
 30
0.0
 10
393.17361450195312
 20
224.7125244140625
 30
0.0
 10
393.50039672851562
 20
224.13677978515625
 30
0.0
 10
393.90496826171875
 20
223.76333618164062
 30
0.0
 10
394.49624633789062
 20
223.5921630859375
 30
0.0
 10
395.04086303710937
 20
223.60772705078125
 30
0.0
 10
395.44540405273437
 20
223.87225341796875
 30
0.0
 10
395.8033447265625
 20
224.37017822265625
 30
0.0
 10
396.05230712890625
 20
225.33493041992187
 30
0.0
 10
396.03671264648437
 20
226.34634399414062
 30
0.0
 10
395.9122314453125
 20
227.31106567382812
 30
0.0
 10
395.58544921875
 20
228.43142700195312
 30
0.0
 10
395.13421630859375
 20
229.52069091796875
 30
0.0
 10
394.40289306640625
 20
230.88995361328125
 30
0.0
 10
393.6248779296875
 20
232.07254028320312
 30
0.0
 10
392.706787109375
 20
233.0528564453125
 30
0.0
 10
391.7420654296875
 20
233.97091674804687
 30
0.0
 10
390.76174926757812
 20
234.92010498046875
 30
0.0
 10
389.73477172851562
 20
235.77593994140625
 30
0.0
 10
388.1632080078125
 20
236.81845092773437
 30
0.0
 10
387.50967407226562
 20
237.42529296875
 30
0.0
 10
387.10507202148437
 20
238.078857421875
 30
0.0
 10
386.9339599609375
 20
238.8101806640625
 30
0.0
 10
386.98062133789062
 20
239.2769775390625
 30
0.0
 10
387.15176391601562
 20
239.712646484375
 30
0.0
 10
387.60302734375
 20
240.22613525390625
 30
0.0
 10
388.19430541992187
 20
240.61517333984375
 30
0.0
 10
389.48580932617187
 20
241.12863159179687
 30
0.0
 10
391.63314819335937
 20
241.95333862304687
 30
0.0
 10
392.75347900390625
 20
242.420166015625
 30
0.0
 10
393.79605102539062
 20
243.02700805664062
 30
0.0
 10
394.71408081054687
 20
243.945068359375
 30
0.0
 10
395.1497802734375
 20
244.55191040039062
 30
0.0
 10
395.4765625
 20
245.236572265625
 30
0.0
 10
395.6788330078125
 20
246.37246704101562
 30
0.0
 10
395.55435180664062
 20
247.53952026367188
 30
0.0
 10
395.25869750976562
 20
248.4420166015625
 30
0.0
 10
394.49624633789062
 20
249.87353515625
 30
0.0
 10
392.98690795898437
 20
251.88082885742187
 30
0.0
 10
392.5045166015625
 20
252.47213745117187
 30
0.0
 10
392.14663696289062
 20
253.11007690429688
 30
0.0
  0
LWPOLYLINE
  5
5E
100
AcDbEntity
  8
0
 62
256
420
16777215
370
-1
 48
1.0
  6
CONTINUOUS
100
AcDbPolyline
 90
157
 70
0
 10
422.44265747070312
 20
259.30307006835937
 30
0.0
 10
422.55157470703125
 20
259.87881469726562
 30
0.0
 10
422.83163452148437
 20
260.42340087890625
 30
0.0
 10
423.53182983398437
 20
261.15475463867187
 30
0.0
 10
423.95196533203125
 20
261.37258911132812
 30
0.0
 10
424.41879272460937
 20
261.48153686523437
 30
0.0
 10
425.49246215820312
 20
261.35702514648437
 30
0.0
 10
426.42608642578125
 20
261.40371704101562
 30
0.0
 10
427.39080810546875
 20
261.48153686523437
 30
0.0
 10
427.95098876953125
 20
261.51266479492187
 30
0.0
 10
428.2310791015625
 20
261.73049926757812
 30
0.0
 10
428.4022216796875
 20
262.10394287109375
 30
0.0
 10
428.54229736328125
 20
263.00643920898437
 30
0.0
 10
428.5267333984375
 20
263.8466796875
 30
0.0
 10
428.27774047851562
 20
264.84255981445312
 30
0.0
 10
428.13772583007812
 20
265.85397338867187
 30
0.0
 10
428.27774047851562
 20
266.39859008789063
 30
0.0
 10
428.57339477539062
 20
266.91207885742187
 30
0.0
 10
429.38253784179687
 20
267.62783813476562
 30
0.0
 10
429.8804931640625
 20
267.8145751953125
 30
0.0
 10
430.37838745117187
 20
267.86123657226562
 30
0.0
 10
431.23419189453125
 20
267.51895141601562
 30
0.0
 10
432.49462890625
 20
266.50753784179687
 30
0.0
 10
432.97698974609375
 20
266.07180786132812
 30
0.0
 10
433.56826782226562
 20
265.74505615234375
 30
0.0
 10
434.06619262695312
 20
265.65170288085938
 30
0.0
 10
434.47076416015625
 20
265.7606201171875
 30
0.0
 10
434.67306518554687
 20
266.25857543945312
 30
0.0
 10
434.79754638671875
 20
266.8809814453125
 30
0.0
 10
435.20208740234375
 20
267.31661987304687
 30
0.0
 10
435.68447875976562
 20
267.67453002929687
 30
0.0
 10
436.08905029296875
 20
268.45254516601562
 30
0.0
 10
436.4625244140625
 20
269.26168823242187
 30
0.0
 10
436.78927612304688
 20
269.58847045898438
 30
0.0
 10
437.20938110351562
 20
269.8062744140625
 30
0.0
 10
438.17416381835937
 20
269.91519165039062
 30
0.0
 10
438.8587646484375
 20
269.6973876953125
 30
0.0
 10
439.41897583007812
 20
269.24612426757812
 30
0.0
 10
439.99468994140625
 20
268.3436279296875
 30
0.0
 10
440.36813354492187
 20
267.39447021484375
 30
0.0
 10
440.81939697265625
 20
266.6942138671875
 30
0.0
 10
441.47293090820312
 20
266.25857543945312
 30
0.0
 10
441.98641967773437
 20
266.22744750976563
 30
0.0
 10
442.49990844726562
 20
266.38302612304687
 30
0.0
 10
443.122314453125
 20
266.86541748046875
 30
0.0
 10
443.713623046875
 20
267.42556762695312
 30
0.0
 10
444.6160888671875
 20
267.83013916015625
 30
0.0
 10
445.596435546875
 20
267.845703125
 30
0.0
 10
446.21884155273437
 20
267.6434326171875
 30
0.0
 10
446.73233032226562
 20
267.26998901367187
 30
0.0
 10
447.33917236328125
 20
266.1962890625
 30
0.0
 10
447.63479614257812
 20
265.68280029296875
 30
0.0
 10
448.03936767578125
 20
265.30935668945312
 30
0.0
 10
448.53732299804687
 20
265.15377807617187
 30
0.0
 10
449.113037109375
 20
265.15377807617187
 30
0.0
 10
450.062255859375
 20
265.38720703125
 30
0.0
 10
450.38900756835937
 20
265.49609375
 30
0.0
 10
451.0269775390625
 20
265.35601806640625
 30
0.0
 10
451.66494750976563
 20
265.2626953125
 30
0.0
 10
452.62969970703125
 20
265.2626953125
 30
0.0
 10
453.29879760742187
 20
265.58944702148437
 30
0.0
 10
453.81228637695312
 20
265.85397338867187
 30
0.0
 10
454.45022583007812
 20
265.80728149414062
 30
0.0
 10
455.61727905273437
 20
265.85397338867187
 30
0.0
 10
456.33306884765625
 20
265.65170288085938
 30
0.0
 10
456.58197021484375
 20
265.37161254882812
 30
0.0
 10
456.73757934570312
 20
265.01373291015625
 30
0.0
 10
456.89321899414062
 20
264.17343139648438
 30
0.0
 10
457.0799560546875
 20
263.36431884765625
 30
0.0
 10
457.18887329101562
 20
262.850830078125
 30
0.0
 10
442.90444946289062
 20
260.20556640625
 30
0.0
 10
443.41796875
 20
257.40472412109375
 30
0.0
 10
456.33306884765625
 20
259.80099487304687
 30
0.0
 10
456.42636108398437
 20
259.70767211914062
 30
0.0
 10
457.53118896484375
 20
258.80511474609375
 30
0.0
 10
458.12249755859375
 20
258.43167114257812
 30
0.0
 10
458.76043701171875
 20
258.18270874023437
 30
0.0
 10
460.0052490234375
 20
257.96487426757812
 30
0.0
 10
460.58102416992187
 20
257.8248291015625
 30
0.0
 10
461.04782104492187
 20
257.52920532226562
 30
0.0
 10
461.452392578125
 20
256.84457397460937
 30
0.0
 10
461.5457763671875
 20
255.97317504882812
 30
0.0
 10
461.29678344726562
 20
255.02395629882813
 30
0.0
 10
460.75216674804687
 20
254.277099609375
 30
0.0
 10
460.68994140625
 20
254.24594116210937
 30
0.0
 10
448.59957885742187
 20
253.54574584960937
 30
0.0
 10
448.77072143554687
 20
250.71377563476562
 30
0.0
 10
461.56130981445312
 20
251.44509887695312
 30
0.0
 10
461.56130981445312
 20
251.32061767578125
 30
0.0
 10
461.5457763671875
 20
250.38699340820313
 30
0.0
 10
461.37457275390625
 20
249.515625
 30
0.0
 10
461.07894897460937
 20
248.53530883789062
 30
0.0
 10
460.54986572265625
 20
247.7261962890625
 30
0.0
 10
459.77188110351562
 20
247.27493286132812
 30
0.0
 10
458.916015625
 20
246.870361328125
 30
0.0
 10
458.49591064453125
 20
246.46578979492187
 30
0.0
 10
458.10693359375
 20
245.3143310546875
 30
0.0
 10
444.05593872070312
 20
246.29464721679687
 30
0.0
 10
443.86923217773437
 20
243.44711303710937
 30
0.0
 10
458.35589599609375
 20
242.4356689453125
 30
0.0
 10
458.35589599609375
 20
242.4356689453125
 30
0.0
 10
458.2469482421875
 20
241.87548828125
 30
0.0
 10
458.09140014648437
 20
241.39309692382812
 30
0.0
 10
457.7490234375
 20
240.7862548828125
 30
0.0
 10
456.97097778320312
 20
240.24163818359375
 30
0.0
 10
456.45751953125
 20
240.00823974609375
 30
0.0
 10
455.91290283203125
 20
239.91488647460937
 30
0.0
 10
455.27493286132812
 20
240.03939819335937
 30
0.0
 10
454.59030151367187
 20
240.10165405273437
 30
0.0
 10
454.23239135742187
 20
239.96157836914062
 30
0.0
 10
453.82781982421875
 20
239.88375854492187
 30
0.0
 10
453.46990966796875
 20
239.99267578125
 30
0.0
 10
452.67636108398437
 20
240.36614990234375
 30
0.0
 10
451.820556640625
 20
240.44393920898437
 30
0.0
 10
450.93362426757812
 20
240.3194580078125
 30
0.0
 10
450.21783447265625
 20
240.03939819335937
 30
0.0
 10
449.56430053710937
 20
239.43252563476562
 30
0.0
 10
449.1441650390625
 20
238.54559326171875
 30
0.0
 10
448.7396240234375
 20
237.70535278320312
 30
0.0
 10
447.86822509765625
 20
236.67837524414062
 30
0.0
 10
447.3236083984375
 20
236.33602905273437
 30
0.0
 10
446.74789428710937
 20
236.21157836914063
 30
0.0
 10
446.296630859375
 20
236.30490112304688
 30
0.0
 10
445.8609619140625
 20
236.53829956054687
 30
0.0
 10
445.11404418945312
 20
237.31634521484375
 30
0.0
 10
444.4449462890625
 20
238.35888671875
 30
0.0
 10
444.07147216796875
 20
238.763427734375
 30
0.0
 10
443.6202392578125
 20
238.98129272460937
 30
0.0
 10
442.9822998046875
 20
238.9190673828125
 30
0.0
 10
442.40655517578125
 20
238.5611572265625
 30
0.0
 10
442.14202880859375
 20
238.10992431640625
 30
0.0
 10
442.001953125
 20
237.59640502929687
 30
0.0
 10
441.61297607421875
 20
236.35159301757812
 30
0.0
 10
441.22396850585937
 20
235.5113525390625
 30
0.0
 10
440.63262939453125
 20
234.82669067382812
 30
0.0
 10
440.16586303710937
 20
234.5621337890625
 30
0.0
 10
439.63677978515625
 20
234.422119140625
 30
0.0
 10
439.09219360351562
 20
234.3909912109375
 30
0.0
 10
438.56314086914062
 20
234.48434448242187
 30
0.0
 10
438.065185546875
 20
234.73330688476562
 30
0.0
 10
437.61395263671875
 20
235.07565307617187
 30
0.0
 10
436.85150146484375
 20
235.947021484375
 30
0.0
 10
436.24465942382812
 20
236.78729248046875
 30
0.0
 10
435.77783203125
 20
237.75201416015625
 30
0.0
 10
435.606689453125
 20
238.31219482421875
 30
0.0
 10
435.38882446289062
 20
238.77902221679687
 30
0.0
 10
435.015380859375
 20
238.996826171875
 30
0.0
 10
434.53302001953125
 20
238.98129272460937
 30
0.0
 10
434.05062866210937
 20
238.77902221679687
 30
0.0
 10
433.61495971679687
 20
238.43667602539062
 30
0.0
 10
433.02365112304687
 20
237.59640502929687
 30
0.0
 10
432.18341064453125
 20
236.63168334960937
 30
0.0
 10
431.31204223632812
 20
236.22711181640625
 30
0.0
 10
430.8763427734375
 20
236.21157836914063
 30
0.0
 10
430.45620727539062
 20
236.33602905273437
 30
0.0
 10
429.80267333984375
 20
236.91177368164062
 30
0.0
 10
429.33584594726562
 20
237.76760864257812
 30
0.0
  0
LWPOLYLINE
  5
5F
100
AcDbEntity
  8
0
 62
256
420
16777215
370
-1
 48
1.0
  6
CONTINUOUS
100
AcDbPolyline
 90
136
 70
0
 10
420.71539306640625
 20
300.70916748046875
 30
0.0
 10
420.88656616210937
 20
301.87619018554688
 30
0.0
 10
420.9954833984375
 20
302.20294189453125
 30
0.0
 10
421.322265625
 20
302.93429565429687
 30
0.0
 10
421.7890625
 20
303.572265625
 30
0.0
 10
422.6448974609375
 20
304.21023559570312
 30
0.0
 10
423.29840087890625
 20
304.73928833007812
 30
0.0
 10
424.138671875
 20
305.37725830078125
 30
0.0
 10
425.15011596679687
 20
306.51315307617187
 30
0.0
 10
425.94369506835937
 20
307.8358154296875
 30
0.0
 10
426.69058227539062
 20
309.51632690429687
 30
0.0
 10
427.17294311523437
 20
311.25906372070312
 30
0.0
 10
427.31298828125
 20
312.34829711914062
 30
0.0
 10
427.32858276367187
 20
313.43753051757812
 30
0.0
 10
427.141845703125
 20
315.615966796875
 30
0.0
 10
427.141845703125
 20
316.89193725585937
 30
0.0
 10
427.250732421875
 20
319.13259887695312
 30
0.0
 10
427.49969482421875
 20
319.83282470703125
 30
0.0
 10
427.904296875
 20
320.48635864257812
 30
0.0
 10
428.30886840820312
 20
320.8753662109375
 30
0.0
 10
428.77569580078125
 20
321.0465087890625
 30
0.0
 10
429.24246215820312
 20
320.9376220703125
 30
0.0
 10
429.70928955078125
 20
320.6419677734375
 30
0.0
 10
430.5184326171875
 20
320.42413330078125
 30
0.0
 10
431.29641723632812
 20
320.1129150390625
 30
0.0
 10
432.51016235351562
 20
319.3504638671875
 30
0.0
 10
433.3037109375
 20
318.99258422851562
 30
0.0
 10
433.33486938476562
 20
318.99258422851562
 30
0.0
 10
429.83377075195312
 20
312.2705078125
 30
0.0
 10
432.35455322265625
 20
310.9478759765625
 30
0.0
 10
435.99566650390625
 20
317.93447875976562
 30
0.0
 10
436.63363647460937
 20
317.4676513671875
 30
0.0
 10
437.36495971679687
 20
316.9385986328125
 30
0.0
 10
439.10775756835937
 20
315.53817749023437
 30
0.0
 10
439.6212158203125
 20
315.02468872070312
 30
0.0
 10
439.96356201171875
 20
314.43338012695312
 30
0.0
 10
440.04135131835937
 20
313.90435791015625
 30
0.0
 10
439.96356201171875
 20
313.37527465820313
 30
0.0
 10
439.46560668945312
 20
312.34829711914062
 30
0.0
 10
438.67202758789063
 20
311.52362060546875
 30
0.0
 10
437.55169677734375
 20
310.73004150390625
 30
0.0
 10
436.36907958984375
 20
310.04534912109375
 30
0.0
 10
433.75497436523437
 20
308.44265747070312
 30
0.0
 10
432.79025268554687
 20
307.75799560546875
 30
0.0
 10
431.96554565429687
 20
306.917724609375
 30
0.0
 10
431.43649291992187
 20
306.04635620117187
 30
0.0
 10
431.00076293945312
 20
305.08160400390625
 30
0.0
 10
429.81820678710937
 20
302.40524291992187
 30
0.0
 10
429.21136474609375
 20
300.77139282226562
 30
0.0
 10
428.88458251953125
 20
298.873046875
 30
0.0
 10
428.85345458984375
 20
298.21951293945312
 30
0.0
 10
428.71340942382812
 20
297.59710693359375
 30
0.0
 10
428.24661254882812
 20
296.89688110351562
 30
0.0
 10
427.77981567382812
 20
296.47674560546875
 30
0.0
 10
427.250732421875
 20
296.21221923828125
 30
0.0
 10
426.00592041015625
 20
296.04107666015625
 30
0.0
 10
425.39907836914062
 20
295.9010009765625
 30
0.0
 10
424.88558959960937
 20
295.57424926757812
 30
0.0
 10
424.49658203125
 20
295.09185791015625
 30
0.0
 10
423.99862670898437
 20
294.29830932617187
 30
0.0
 10
423.81192016601562
 20
293.76925659179687
 30
0.0
 10
423.54739379882812
 20
293.30242919921875
 30
0.0
 10
423.23617553710937
 20
293.10015869140625
 30
0.0
 10
422.83160400390625
 20
292.9912109375
 30
0.0
 10
421.63348388671875
 20
292.83563232421875
 30
0.0
 10
420.4664306640625
 20
292.86676025390625
 30
0.0
 10
418.13238525390625
 20
293.16241455078125
 30
0.0
 10
417.21432495117187
 20
293.22463989257812
 30
0.0
 10
416.31185913085937
 20
293.11572265625
 30
0.0
 10
415.51824951171875
 20
292.72671508789062
 30
0.0
 10
414.89584350585937
 20
292.04205322265625
 30
0.0
 10
414.36679077148437
 20
291.2640380859375
 30
0.0
 10
413.7755126953125
 20
290.61050415039062
 30
0.0
 10
413.09085083007812
 20
290.12814331054687
 30
0.0
 10
412.328369140625
 20
289.92587280273437
 30
0.0
 10
411.51925659179687
 20
289.81695556640625
 30
0.0
 10
410.91241455078125
 20
289.69244384765625
 30
0.0
 10
410.36776733398438
 20
289.45904541015625
 30
0.0
 10
409.96322631835937
 20
288.99221801757812
 30
0.0
 10
409.66754150390625
 20
288.40093994140625
 30
0.0
 10
409.26300048828125
 20
286.78268432617188
 30
0.0
 10
409.04513549804687
 20
285.88015747070312
 30
0.0
 10
408.23599243164062
 20
284.29302978515625
 30
0.0
 10
408.0181884765625
 20
283.63949584960937
 30
0.0
 10
407.987060546875
 20
282.93927001953125
 30
0.0
 10
408.14266967773437
 20
282.41021728515625
 30
0.0
 10
408.453857421875
 20
281.958984375
 30
0.0
 10
408.88955688476562
 20
281.663330078125
 30
0.0
 10
409.26300048828125
 20
281.3365478515625
 30
0.0
 10
409.41860961914062
 20
280.93197631835937
 30
0.0
 10
409.403076171875
 20
280.46514892578125
 30
0.0
 10
409.26300048828125
 20
280.013916015625
 30
0.0
 10
408.96734619140625
 20
279.65603637695312
 30
0.0
 10
408.56277465820312
 20
279.46929931640625
 30
0.0
 10
408.09597778320312
 20
279.4537353515625
 30
0.0
 10
407.33349609375
 20
279.71826171875
 30
0.0
 10
406.63330078125
 20
280.20065307617187
 30
0.0
 10
405.09280395507812
 20
281.39877319335938
 30
0.0
 10
404.221435546875
 20
282.20794677734375
 30
0.0
 10
403.80133056640625
 20
282.83035278320312
 30
0.0
 10
403.521240234375
 20
283.5150146484375
 30
0.0
 10
403.412353515625
 20
284.18408203125
 30
0.0
 10
403.4901123046875
 20
284.837646484375
 30
0.0
 10
403.84799194335937
 20
285.63119506835937
 30
0.0
 10
404.14364624023437
 20
286.42477416992187
 30
0.0
 10
404.11251831054687
 20
287.06277465820312
 30
0.0
 10
404.01919555664062
 20
287.70071411132812
 30
0.0
 10
404.05029296875
 20
288.52542114257812
 30
0.0
 10
404.1903076171875
 20
289.36569213867187
 30
0.0
 10
404.37704467773438
 20
290.20596313476562
 30
0.0
 10
404.85943603515625
 20
290.64163208007812
 30
0.0
 10
405.49740600585937
 20
290.93728637695312
 30
0.0
 10
406.38433837890625
 20
291.43521118164062
 30
0.0
 10
406.91339111328125
 20
292.33773803710938
 30
0.0
 10
407.4268798828125
 20
293.28689575195312
 30
0.0
 10
408.04928588867188
 20
293.80035400390625
 30
0.0
 10
408.687255859375
 20
294.111572265625
 30
0.0
 10
409.35635375976562
 20
294.26718139648438
 30
0.0
 10
410.99017333984375
 20
294.34500122070312
 30
0.0
 10
411.73709106445312
 20
294.54727172851562
 30
0.0
 10
412.46841430664062
 20
294.88958740234375
 30
0.0
 10
413.49539184570312
 20
295.41864013671875
 30
0.0
 10
414.41348266601562
 20
296.04107666015625
 30
0.0
 10
415.09814453125
 20
296.7879638671875
 30
0.0
 10
415.689453125
 20
297.67489624023437
 30
0.0
 10
416.31185913085937
 20
298.71743774414062
 30
0.0
 10
416.66970825195312
 20
299.1375732421875
 30
0.0
 10
417.10540771484375
 20
299.40206909179687
 30
0.0
 10
417.74337768554687
 20
299.46435546875
 30
0.0
 10
418.42803955078125
 20
299.27761840820312
 30
0.0
 10
419.09713745117187
 20
298.98196411132812
 30
0.0
 10
419.7039794921875
 20
298.873046875
 30
0.0
 10
419.9996337890625
 20
299.04421997070312
 30
0.0
 10
420.26416015625
 20
299.33984375
 30
0.0
 10
420.62203979492187
 20
300.18011474609375
 30
0.0
 10
420.68429565429687
 20
300.44464111328125
 30
0.0
  0
LWPOLYLINE
  5
60
100
AcDbEntity
  8
0
 62
256
420
16777215
370
-1
 48
1.0
  6
CONTINUOUS
100
AcDbPolyline
 90
46
 70
0
 10
429.24249267578125
 20
238.03213500976562
 30
0.0
 10
429.08688354492187
 20
238.99685668945312
 30
0.0
 10
429.28915405273437
 20
240.07052612304687
 30
0.0
 10
429.70928955078125
 20
241.00411987304688
 30
0.0
 10
429.81820678710937
 20
241.40872192382812
 30
0.0
 10
429.75595092773437
 20
241.71990966796875
 30
0.0
 10
429.30474853515625
 20
241.96890258789062
 30
0.0
 10
428.6356201171875
 20
242.14004516601562
 30
0.0
 10
427.79534912109375
 20
242.52908325195312
 30
0.0
 10
427.04849243164062
 20
242.71578979492187
 30
0.0
 10
426.37936401367187
 20
242.48236083984375
 30
0.0
 10
425.67916870117187
 20
242.09335327148437
 30
0.0
 10
425.07232666015625
 20
241.87548828125
 30
0.0
 10
424.4654541015625
 20
241.87548828125
 30
0.0
 10
424.09201049804687
 20
242.062255859375
 30
0.0
 10
423.78079223632812
 20
242.35791015625
 30
0.0
 10
423.32955932617187
 20
243.18258666992187
 30
0.0
 10
423.18951416015625
 20
244.1473388671875
 30
0.0
 10
423.42291259765625
 20
245.0498046875
 30
0.0
 10
423.76522827148437
 20
245.59442138671875
 30
0.0
 10
424.200927734375
 20
246.12347412109375
 30
0.0
 10
424.62106323242187
 20
246.65255737304687
 30
0.0
 10
424.94781494140625
 20
247.27496337890625
 30
0.0
 10
425.07232666015625
 20
247.92849731445312
 30
0.0
 10
424.9322509765625
 20
248.50424194335938
 30
0.0
 10
424.4031982421875
 20
248.90878295898437
 30
0.0
 10
423.68743896484375
 20
249.17330932617187
 30
0.0
 10
422.39590454101562
 20
249.68682861328125
 30
0.0
 10
421.68017578125
 20
250.10693359375
 30
0.0
 10
421.15109252929687
 20
250.68267822265625
 30
0.0
 10
421.01107788085937
 20
251.11837768554687
 30
0.0
 10
420.99554443359375
 20
251.58517456054687
 30
0.0
 10
421.29116821289062
 20
252.50326538085937
 30
0.0
 10
421.92913818359375
 20
253.218994140625
 30
0.0
 10
422.80050659179687
 20
253.67025756835938
 30
0.0
 10
423.76522827148437
 20
254.02813720703125
 30
0.0
 10
424.200927734375
 20
254.24600219726562
 30
0.0
 10
424.57437133789062
 20
254.55718994140625
 30
0.0
 10
424.88558959960937
 20
255.1329345703125
 30
0.0
 10
424.9322509765625
 20
255.802001953125
 30
0.0
 10
424.71444702148437
 20
256.33108520507812
 30
0.0
 10
424.10757446289062
 20
256.984619140625
 30
0.0
 10
423.37625122070312
 20
257.5914306640625
 30
0.0
 10
422.83160400390625
 20
258.151611328125
 30
0.0
 10
422.48931884765625
 20
258.82073974609375
 30
0.0
 10
422.45819091796875
 20
259.02297973632812
 30
0.0
  0
LWPOLYLINE
  5
61
100
AcDbEntity
  8
0
 62
256
420
16777215
370
-1
 48
1.0
  6
CONTINUOUS
100
AcDbPolyline
 90
62
 70
0
 10
363.51559448242187
 20
258.72738647460937
 30
0.0
 10
363.2354736328125
 20
259.1630859375
 30
0.0
 10
363.15771484375
 20
259.5987548828125
 30
0.0
 10
363.2977294921875
 20
259.97219848632812
 30
0.0
 10
363.57781982421875
 20
260.33010864257812
 30
0.0
 10
364.46475219726562
 20
260.99917602539062
 30
0.0
 10
364.83819580078125
 20
261.325927734375
 30
0.0
 10
365.04046630859375
 20
261.68380737304687
 30
0.0
 10
364.90045166015625
 20
262.33737182617187
 30
0.0
 10
364.5269775390625
 20
263.08425903320312
 30
0.0
 10
364.13800048828125
 20
264.3602294921875
 30
0.0
 10
364.09130859375
 20
265.63616943359375
 30
0.0
 10
364.2935791015625
 20
267.12997436523437
 30
0.0
 10
364.58926391601562
 20
268.26589965820312
 30
0.0
 10
364.74484252929688
 20
268.95050048828125
 30
0.0
 10
365.02493286132812
 20
269.557373046875
 30
0.0
 10
365.46063232421875
 20
269.96194458007812
 30
0.0
 10
365.98965454101562
 20
270.24200439453125
 30
0.0
 10
366.67431640625
 20
270.45986938476562
 30
0.0
 10
367.4056396484375
 20
270.55325317382812
 30
0.0
 10
368.2926025390625
 20
270.50653076171875
 30
0.0
 10
369.07058715820312
 20
270.1953125
 30
0.0
 10
369.50631713867187
 20
269.60403442382812
 30
0.0
 10
369.83306884765625
 20
268.857177734375
 30
0.0
 10
370.3465576171875
 20
267.799072265625
 30
0.0
 10
370.79779052734375
 20
266.74093627929687
 30
0.0
 10
371.06231689453125
 20
265.23159790039062
 30
0.0
 10
371.21795654296875
 20
263.95562744140625
 30
0.0
 10
371.37353515625
 20
262.9442138671875
 30
0.0
 10
371.32684326171875
 20
261.9794921875
 30
0.0
 10
370.87564086914063
 20
261.15478515625
 30
0.0
 10
370.22207641601562
 20
260.37677001953125
 30
0.0
 10
369.72415161132812
 20
259.6298828125
 30
0.0
 10
369.47518920898437
 20
258.80517578125
 30
0.0
 10
369.53741455078125
 20
258.19830322265625
 30
0.0
 10
369.80194091796875
 20
257.6536865234375
 30
0.0
 10
370.25320434570312
 20
257.26470947265625
 30
0.0
 10
370.844482421875
 20
257.04684448242187
 30
0.0
 10
371.498046875
 20
256.984619140625
 30
0.0
 10
372.15155029296875
 20
257.03128051757812
 30
0.0
 10
373.50531005859375
 20
257.43588256835937
 30
0.0
 10
374.89019775390625
 20
258.0738525390625
 30
0.0
 10
376.18170166015625
 20
258.88299560546875
 30
0.0
 10
377.27090454101562
 20
259.97219848632812
 30
0.0
 10
377.67547607421875
 20
260.64132690429687
 30
0.0
 10
377.83108520507812
 20
261.37261962890625
 30
0.0
 10
377.72216796875
 20
261.93280029296875
 30
0.0
 10
377.41098022460937
 20
262.4774169921875
 30
0.0
 10
376.53958129882812
 20
263.45773315429687
 30
0.0
 10
375.45034790039062
 20
264.60919189453125
 30
0.0
 10
374.29891967773437
 20
265.8228759765625
 30
0.0
 10
373.80096435546875
 20
266.44528198242187
 30
0.0
 10
373.42752075195312
 20
267.11441040039062
 30
0.0
 10
373.25634765625
 20
267.78350830078125
 30
0.0
 10
373.194091796875
 20
268.48370361328125
 30
0.0
 10
373.25634765625
 20
269.63516235351563
 30
0.0
 10
373.552001953125
 20
270.52212524414062
 30
0.0
 10
374.06549072265625
 20
271.3468017578125
 30
0.0
 10
375.26364135742187
 20
273.01177978515625
 30
0.0
 10
375.71487426757812
 20
274.02322387695312
 30
0.0
 10
368.54156494140625
 20
278.131103515625
 30
0.0
 10
369.16400146484375
 20
279.20474243164062
 30
0.0
  0
LWPOLYLINE
  5
62
100
AcDbEntity
  8
0
 62
256
420
16777215
370
-1
 48
1.0
  6
CONTINUOUS
100
AcDbPolyline
 90
102
 70
0
 10
461.1878662109375
 20
212.55984497070312
 30
0.0
 10
463.11737060546875
 20
212.77767944335937
 30
0.0
 10
463.14846801757812
 20
212.1552734375
 30
0.0
 10
463.0084228515625
 20
211.23724365234375
 30
0.0
 10
462.82168579101562
 20
210.39694213867187
 30
0.0
 10
462.79058837890625
 20
208.96539306640625
 30
0.0
 10
462.635009765625
 20
208.17181396484375
 30
0.0
 10
462.18368530273437
 20
207.61166381835937
 30
0.0
 10
461.53018188476562
 20
207.28488159179687
 30
0.0
 10
460.76773071289062
 20
207.22265625
 30
0.0
 10
459.32061767578125
 20
207.50274658203125
 30
0.0
 10
457.67120361328125
 20
208.15625
 30
0.0
 10
455.69503784179687
 20
208.70089721679687
 30
0.0
 10
454.55914306640625
 20
209.16769409179687
 30
0.0
 10
453.51663208007812
 20
209.4166259765625
 30
0.0
 10
452.45849609375
 20
209.572265625
 30
0.0
 10
450.80914306640625
 20
209.79010009765625
 30
0.0
 10
449.65765380859375
 20
209.74343872070312
 30
0.0
 10
448.56845092773437
 20
209.66558837890625
 30
0.0
 10
447.33917236328125
 20
209.65005493164062
 30
0.0
 10
446.77899169921875
 20
209.74343872070312
 30
0.0
 10
446.28106689453125
 20
209.99240112304688
 30
0.0
 10
445.87652587890625
 20
210.42807006835937
 30
0.0
 10
445.50308227539062
 20
210.94158935546875
 30
0.0
 10
444.61611938476562
 20
211.73516845703125
 30
0.0
 10
443.57357788085937
 20
212.20193481445312
 30
0.0
 10
442.4532470703125
 20
212.62210083007812
 30
0.0
 10
440.9283447265625
 20
213.32229614257812
 30
0.0
 10
440.16586303710937
 20
213.63351440429687
 30
0.0
 10
439.09219360351562
 20
213.92913818359375
 30
0.0
 10
438.42312622070312
 20
214.22479248046875
 30
0.0
 10
437.72286987304687
 20
214.45819091796875
 30
0.0
 10
437.08489990234375
 20
214.44265747070312
 30
0.0
 10
436.54031372070312
 20
214.16253662109375
 30
0.0
 10
436.15130615234375
 20
213.58682250976562
 30
0.0
 10
435.79339599609375
 20
212.99554443359375
 30
0.0
 10
435.35769653320312
 20
212.684326171875
 30
0.0
 10
434.93759155273437
 20
212.37313842773437
 30
0.0
 10
434.486328125
 20
212.1864013671875
 30
0.0
 10
434.03506469726562
 20
212.26419067382812
 30
0.0
 10
433.56829833984375
 20
212.4197998046875
 30
0.0
 10
432.8680419921875
 20
212.54425048828125
 30
0.0
 10
431.74771118164062
 20
212.66876220703125
 30
0.0
 10
430.65847778320312
 20
212.60653686523437
 30
0.0
 10
429.787109375
 20
212.31088256835937
 30
0.0
 10
429.04022216796875
 20
211.99966430664062
 30
0.0
 10
428.40225219726562
 20
211.56399536132812
 30
0.0
 10
428.04434204101562
 20
211.1282958984375
 30
0.0
 10
427.60867309570312
 20
210.58364868164062
 30
0.0
 10
427.12631225585937
 20
210.1324462890625
 30
0.0
 10
426.36383056640625
 20
209.7745361328125
 30
0.0
 10
425.53912353515625
 20
209.572265625
 30
0.0
 10
424.40322875976562
 20
209.40106201171875
 30
0.0
 10
423.625244140625
 20
209.5411376953125
 30
0.0
 10
422.89389038085937
 20
209.58779907226562
 30
0.0
 10
422.55154418945312
 20
209.38552856445312
 30
0.0
 10
422.25592041015625
 20
209.05877685546875
 30
0.0
 10
421.66461181640625
 20
208.35858154296875
 30
0.0
 10
420.87103271484375
 20
208.03179931640625
 30
0.0
 10
419.99966430664062
 20
208.04736328125
 30
0.0
 10
418.8326416015625
 20
208.34298706054687
 30
0.0
 10
417.68115234375
 20
208.70089721679687
 30
0.0
 10
416.96539306640625
 20
208.77865600585937
 30
0.0
 10
416.4830322265625
 20
208.79421997070312
 30
0.0
 10
416.093994140625
 20
208.63864135742187
 30
0.0
 10
415.860595703125
 20
208.34298706054687
 30
0.0
 10
415.6583251953125
 20
208.28073120117187
 30
0.0
 10
415.42489624023437
 20
208.34298706054687
 30
0.0
 10
414.84918212890625
 20
208.52969360351562
 30
0.0
 10
414.3668212890625
 20
208.54525756835937
 30
0.0
 10
414.0400390625
 20
208.65420532226562
 30
0.0
 10
413.93112182617187
 20
208.96539306640625
 30
0.0
 10
413.57321166992187
 20
209.61895751953125
 30
0.0
 10
413.15310668945312
 20
210.19467163085937
 30
0.0
 10
412.87301635742187
 20
210.8326416015625
 30
0.0
 10
412.70184326171875
 20
211.54843139648437
 30
0.0
 10
412.37509155273437
 20
212.6531982421875
 30
0.0
 10
411.89276123046875
 20
214.0069580078125
 30
0.0
 10
413.30868530273437
 20
214.73831176757813
 30
0.0
 10
413.96224975585937
 20
214.86279296875
 30
0.0
 10
414.55352783203125
 20
214.7071533203125
 30
0.0
 10
415.02035522460937
 20
214.33370971679687
 30
0.0
 10
415.61166381835937
 20
213.99139404296875
 30
0.0
 10
416.26519775390625
 20
213.8046875
 30
0.0
 10
416.60748291015625
 20
213.75799560546875
 30
0.0
 10
417.69671630859375
 20
213.74246215820312
 30
0.0
 10
418.78594970703125
 20
213.69573974609375
 30
0.0
 10
420.20196533203125
 20
213.30673217773437
 30
0.0
 10
420.83990478515625
 20
213.13555908203125
 30
0.0
 10
421.54013061523437
 20
213.151123046875
 30
0.0
 10
421.96026611328125
 20
213.30673217773437
 30
0.0
 10
422.25592041015625
 20
213.60238647460937
 30
0.0
 10
422.442626953125
 20
214.0069580078125
 30
0.0
 10
422.83163452148437
 20
214.81610107421875
 30
0.0
 10
423.267333984375
 20
215.18954467773437
 30
0.0
 10
423.81192016601562
 20
215.42291259765625
 30
0.0
 10
424.46548461914062
 20
215.54742431640625
 30
0.0
 10
425.44577026367187
 20
215.54742431640625
 30
0.0
 10
425.89703369140625
 20
215.46963500976562
 30
0.0
 10
426.56610107421875
 20
215.45407104492187
 30
0.0
 10
427.21963500976562
 20
215.60968017578125
 30
0.0
 10
428.44894409179687
 20
216.27871704101562
 30
0.0
  0
LWPOLYLINE
  5
63
100
AcDbEntity
  8
0
 62
256
420
16777215
370
-1
 48
1.0
  6
CONTINUOUS
100
AcDbPolyline
 90
97
 70
0
 10
428.09103393554687
 20
278.0533447265625
 30
0.0
 10
429.5225830078125
 20
278.58236694335937
 30
0.0
 10
430.62738037109375
 20
278.76910400390625
 30
0.0
 10
432.12118530273437
 20
279.080322265625
 30
0.0
 10
432.74359130859375
 20
279.34481811523438
 30
0.0
 10
433.25704956054687
 20
279.71826171875
 30
0.0
 10
433.84835815429687
 20
280.72970581054687
 30
0.0
 10
434.0506591796875
 20
281.14984130859375
 30
0.0
 10
434.14398193359375
 20
281.67889404296875
 30
0.0
 10
434.0506591796875
 20
282.64361572265625
 30
0.0
 10
433.4593505859375
 20
283.5772705078125
 30
0.0
 10
432.61911010742187
 20
284.72869873046875
 30
0.0
 10
431.82550048828125
 20
285.8023681640625
 30
0.0
 10
430.89190673828125
 20
286.72042846679687
 30
0.0
 10
429.491455078125
 20
287.52957153320312
 30
0.0
 10
428.7601318359375
 20
287.94970703125
 30
0.0
 10
427.98208618164062
 20
288.21420288085937
 30
0.0
 10
427.3441162109375
 20
288.21420288085937
 30
0.0
 10
426.75283813476562
 20
288.04306030273437
 30
0.0
 10
426.06820678710937
 20
287.48291015625
 30
0.0
 10
425.5546875
 20
286.72042846679687
 30
0.0
 10
425.025634765625
 20
285.2421875
 30
0.0
 10
424.94784545898437
 20
284.479736328125
 30
0.0
 10
425.0567626953125
 20
283.71728515625
 30
0.0
 10
425.1812744140625
 20
283.0482177734375
 30
0.0
 10
425.07232666015625
 20
282.55026245117187
 30
0.0
 10
424.68331909179687
 20
281.97454833984375
 30
0.0
 10
424.200927734375
 20
281.46102905273437
 30
0.0
 10
423.57852172851563
 20
280.8074951171875
 30
0.0
 10
422.36480712890625
 20
279.29815673828125
 30
0.0
 10
421.6490478515625
 20
278.00665283203125
 30
0.0
 10
421.22891235351562
 20
276.6373291015625
 30
0.0
 10
420.9488525390625
 20
274.78567504882812
 30
0.0
 10
420.8865966796875
 20
274.27218627929687
 30
0.0
 10
420.71542358398437
 20
273.77423095703125
 30
0.0
 10
420.26416015625
 20
273.30743408203125
 30
0.0
 10
419.65731811523437
 20
273.04293823242187
 30
0.0
 10
419.14382934570312
 20
272.98065185546875
 30
0.0
 10
418.61477661132812
 20
273.04293823242187
 30
0.0
 10
417.52557373046875
 20
273.2296142578125
 30
0.0
 10
416.8564453125
 20
273.24517822265625
 30
0.0
 10
416.28073120117187
 20
273.0584716796875
 30
0.0
 10
415.50271606445312
 20
272.34268188476562
 30
0.0
 10
415.08258056640625
 20
272.06259155273437
 30
0.0
 10
414.64691162109375
 20
271.96923828125
 30
0.0
 10
414.11782836914062
 20
272.28045654296875
 30
0.0
 10
413.66659545898437
 20
272.856201171875
 30
0.0
 10
413.02862548828125
 20
273.68087768554687
 30
0.0
 10
412.26617431640625
 20
274.27218627929687
 30
0.0
 10
411.83047485351562
 20
274.42779541015625
 30
0.0
 10
411.3636474609375
 20
274.47445678710937
 30
0.0
 10
410.88128662109375
 20
274.3499755859375
 30
0.0
 10
410.39892578125
 20
274.1165771484375
 30
0.0
 10
409.77651977539062
 20
273.80535888671875
 30
0.0
 10
409.20077514648437
 20
273.77423095703125
 30
0.0
 10
408.87399291992187
 20
274.0543212890625
 30
0.0
 10
408.56280517578125
 20
274.44332885742187
 30
0.0
 10
407.76925659179687
 20
275.19021606445313
 30
0.0
 10
406.49325561523437
 20
275.82818603515625
 30
0.0
 10
405.99533081054687
 20
275.96826171875
 30
0.0
 10
405.4974365234375
 20
275.98382568359375
 30
0.0
 10
404.98391723632812
 20
275.78152465820312
 30
0.0
 10
404.48599243164062
 20
275.47030639648437
 30
0.0
 10
404.00360107421875
 20
275.22134399414062
 30
0.0
 10
403.55239868164062
 20
275.22134399414062
 30
0.0
 10
402.9921875
 20
275.672607421875
 30
0.0
 10
402.40090942382812
 20
276.15496826171875
 30
0.0
 10
401.91854858398437
 20
276.43505859375
 30
0.0
 10
401.38949584960937
 20
276.5750732421875
 30
0.0
 10
400.67373657226562
 20
276.4039306640625
 30
0.0
 10
399.97348022460937
 20
275.82818603515625
 30
0.0
 10
399.49111938476562
 20
275.06576538085937
 30
0.0
 10
399.22662353515625
 20
274.42779541015625
 30
0.0
 10
398.51083374023438
 20
273.33856201171875
 30
0.0
 10
397.53054809570312
 20
272.43606567382812
 30
0.0
 10
396.3946533203125
 20
271.7047119140625
 30
0.0
 10
395.1497802734375
 20
271.16012573242187
 30
0.0
 10
394.48068237304687
 20
270.95779418945312
 30
0.0
 10
393.45370483398437
 20
270.45989990234375
 30
0.0
 10
392.48895263671875
 20
269.79080200195312
 30
0.0
 10
391.91323852539062
 20
269.44845581054687
 30
0.0
 10
391.32192993164062
 20
269.41732788085937
 30
0.0
 10
390.87069702148437
 20
269.35513305664062
 30
0.0
 10
390.49725341796875
 20
269.323974609375
 30
0.0
 10
390.18603515625
 20
269.21505737304687
 30
0.0
 10
389.95263671875
 20
268.90386962890625
 30
0.0
 10
389.57919311523437
 20
268.17251586914062
 30
0.0
 10
389.26800537109375
 20
267.69015502929687
 30
0.0
 10
388.84783935546875
 20
267.11444091796875
 30
0.0
 10
388.66116333007812
 20
266.42974853515625
 30
0.0
 10
388.75448608398437
 20
265.69842529296875
 30
0.0
 10
389.03457641601562
 20
264.46917724609375
 30
0.0
 10
389.19015502929687
 20
263.19320678710937
 30
0.0
 10
389.40802001953125
 20
261.87057495117187
 30
0.0
 10
389.64144897460937
 20
261.29483032226562
 30
0.0
 10
390.014892578125
 20
260.89028930664062
 30
0.0
 10
390.12380981445312
 20
260.84359741210937
 30
0.0
  0
LWPOLYLINE
  5
64
100
AcDbEntity
  8
0
 62
256
420
16777215
370
-1
 48
1.0
  6
CONTINUOUS
100
AcDbPolyline
 90
126
 70
0
 10
447.77484130859375
 20
228.27587890625
 30
0.0
 10
443.43350219726562
 20
234.62448120117187
 30
0.0
 10
443.96255493164063
 20
234.98236083984375
 30
0.0
 10
444.55386352539062
 20
235.20022583007812
 30
0.0
 10
445.22293090820312
 20
235.32470703125
 30
0.0
 10
445.87649536132812
 20
235.24688720703125
 30
0.0
 10
446.42108154296875
 20
234.9356689453125
 30
0.0
 10
446.9345703125
 20
234.54669189453125
 30
0.0
 10
447.99270629882813
 20
233.8931884765625
 30
0.0
 10
448.80181884765625
 20
233.55081176757812
 30
0.0
 10
449.2841796875
 20
233.504150390625
 30
0.0
 10
449.813232421875
 20
233.5975341796875
 30
0.0
 10
450.66903686523437
 20
233.9398193359375
 30
0.0
 10
450.96469116210937
 20
234.21994018554687
 30
0.0
 10
451.05807495117187
 20
234.54669189453125
 30
0.0
 10
451.0269775390625
 20
234.74899291992187
 30
0.0
 10
451.08920288085937
 20
235.495849609375
 30
0.0
 10
451.40042114257812
 20
236.211669921875
 30
0.0
 10
451.88278198242187
 20
236.86517333984375
 30
0.0
 10
452.45846557617187
 20
237.4097900390625
 30
0.0
 10
454.23236083984375
 20
238.63906860351562
 30
0.0
 10
455.1348876953125
 20
239.27703857421875
 30
0.0
 10
456.08404541015625
 20
239.65048217773437
 30
0.0
 10
456.75314331054687
 20
239.65048217773437
 30
0.0
 10
457.43777465820313
 20
239.58822631835937
 30
0.0
 10
458.27804565429687
 20
239.65048217773437
 30
0.0
 10
458.99380493164062
 20
240.00833129882812
 30
0.0
 10
459.30502319335937
 20
240.38177490234375
 30
0.0
 10
459.49176025390625
 20
240.84860229492187
 30
0.0
 10
459.50729370117187
 20
241.82888793945312
 30
0.0
 10
459.30502319335937
 20
242.46688842773437
 30
0.0
 10
459.0093994140625
 20
243.07373046875
 30
0.0
 10
458.52700805664062
 20
244.069580078125
 30
0.0
 10
458.4803466796875
 20
244.61419677734375
 30
0.0
 10
458.63595581054687
 20
245.11215209960937
 30
0.0
 10
458.9471435546875
 20
245.485595703125
 30
0.0
 10
459.336181640625
 20
245.78125
 30
0.0
 10
460.33203125
 20
246.52813720703125
 30
0.0
 10
460.42544555664062
 20
246.59036254882812
 30
0.0
 10
465.10903930664062
 20
239.728271484375
 30
0.0
 10
467.45867919921875
 20
241.3465576171875
 30
0.0
 10
463.05508422851562
 20
247.78851318359375
 30
0.0
 10
463.21066284179687
 20
247.944091796875
 30
0.0
 10
464.31549072265625
 20
248.70657348632812
 30
0.0
 10
465.04681396484375
 20
248.92440795898437
 30
0.0
 10
465.80926513671875
 20
248.93994140625
 30
0.0
 10
466.40057373046875
 20
248.75326538085937
 30
0.0
 10
466.92959594726562
 20
248.41094970703125
 30
0.0
 10
467.58316040039062
 20
247.61737060546875
 30
0.0
 10
468.018798828125
 20
246.66818237304687
 30
0.0
 10
468.28335571289063
 20
245.51669311523437
 30
0.0
 10
468.42343139648437
 20
244.44305419921875
 30
0.0
 10
468.67242431640625
 20
243.35382080078125
 30
0.0
 10
468.89019775390625
 20
242.21792602539062
 30
0.0
 10
469.40371704101562
 20
241.20648193359375
 30
0.0
 10
469.73043823242187
 20
240.80194091796875
 30
0.0
 10
470.19729614257812
 20
240.13284301757812
 30
0.0
 10
470.6485595703125
 20
239.63491821289062
 30
0.0
 10
471.17758178710937
 20
239.24588012695312
 30
0.0
 10
472.17349243164063
 20
238.63906860351562
 30
0.0
 10
472.546875
 20
238.1722412109375
 30
0.0
 10
472.842529296875
 20
237.64321899414062
 30
0.0
 10
473.35601806640625
 20
236.52285766601562
 30
0.0
 10
473.51162719726562
 20
235.6514892578125
 30
0.0
 10
473.49609375
 20
234.56222534179687
 30
0.0
 10
473.20040893554687
 20
233.51971435546875
 30
0.0
 10
472.8736572265625
 20
233.02178955078125
 30
0.0
 10
472.45355224609375
 20
232.57052612304687
 30
0.0
 10
471.17758178710937
 20
231.77694702148437
 30
0.0
 10
470.57073974609375
 20
231.45016479492187
 30
0.0
 10
469.34146118164062
 20
231.07675170898437
 30
0.0
 10
468.04995727539062
 20
230.563232421875
 30
0.0
 10
467.58316040039062
 20
230.39208984375
 30
0.0
 10
467.1785888671875
 20
230.12753295898437
 30
0.0
 10
466.86737060546875
 20
229.66073608398437
 30
0.0
 10
466.60284423828125
 20
228.86715698242187
 30
0.0
 10
466.4627685546875
 20
228.04248046875
 30
0.0
 10
466.32275390625
 20
227.24887084960937
 30
0.0
 10
466.027099609375
 20
226.53311157226562
 30
0.0
 10
465.38912963867187
 20
225.75509643554687
 30
0.0
 10
464.36212158203125
 20
224.89926147460937
 30
0.0
 10
459.75628662109375
 20
231.65249633789062
 30
0.0
 10
457.40667724609375
 20
230.04974365234375
 30
0.0
 10
461.8880615234375
 20
223.46774291992187
 30
0.0
 10
461.45233154296875
 20
223.21878051757813
 30
0.0
 10
460.92333984375
 20
223.03201293945312
 30
0.0
 10
460.1297607421875
 20
222.67413330078125
 30
0.0
 10
459.35171508789062
 20
222.39404296875
 30
0.0
 10
458.63595581054687
 20
222.37850952148437
 30
0.0
 10
457.88906860351562
 20
222.53411865234375
 30
0.0
 10
457.21994018554688
 20
222.76751708984375
 30
0.0
 10
456.56643676757812
 20
222.8453369140625
 30
0.0
 10
455.78839111328125
 20
222.456298828125
 30
0.0
 10
455.2437744140625
 20
221.864990234375
 30
0.0
 10
454.82366943359375
 20
220.91583251953125
 30
0.0
 10
454.20126342773437
 20
220.05999755859375
 30
0.0
 10
453.578857421875
 20
219.406494140625
 30
0.0
 10
452.86306762695312
 20
218.86187744140625
 30
0.0
 10
451.61825561523438
 20
218.27056884765625
 30
0.0
 10
450.9024658203125
 20
217.990478515625
 30
0.0
 10
450.18670654296875
 20
217.81930541992187
 30
0.0
 10
449.64208984375
 20
217.83486938476562
 30
0.0
 10
449.09747314453125
 20
217.97494506835937
 30
0.0
 10
448.10159301757812
 20
218.51953125
 30
0.0
 10
447.41693115234375
 20
219.17306518554687
 30
0.0
 10
446.85678100585937
 20
219.98223876953125
 30
0.0
 10
446.38995361328125
 20
220.85360717773437
 30
0.0
 10
445.45635986328125
 20
222.70526123046875
 30
0.0
 10
444.91171264648437
 20
223.82559204101562
 30
0.0
 10
444.24267578125
 20
224.82147216796875
 30
0.0
 10
443.37127685546875
 20
225.64617919921875
 30
0.0
 10
441.64407348632812
 20
226.62646484375
 30
0.0
 10
440.69488525390625
 20
227.17108154296875
 30
0.0
 10
439.80795288085937
 20
227.84017944335937
 30
0.0
 10
439.16995239257812
 20
228.52484130859375
 30
0.0
 10
438.92098999023437
 20
229.11611938476562
 30
0.0
 10
438.78097534179687
 20
229.78521728515625
 30
0.0
 10
438.76544189453125
 20
230.62548828125
 30
0.0
 10
438.98324584960937
 20
231.3568115234375
 30
0.0
 10
439.46560668945312
 20
231.854736328125
 30
0.0
 10
440.0880126953125
 20
232.32156372070312
 30
0.0
 10
440.55484008789063
 20
232.7728271484375
 30
0.0
 10
441.006103515625
 20
233.13070678710937
 30
0.0
 10
445.59640502929687
 20
226.40863037109375
 30
0.0
 10
447.94601440429688
 20
228.0113525390625
 30
0.0
 10
447.93045043945312
 20
228.05801391601562
 30
0.0
  0
LWPOLYLINE
  5
65
100
AcDbEntity
  8
0
 62
256
420
16777215
370
-1
 48
1.0
  6
CONTINUOUS
100
AcDbPolyline
 90
128
 70
0
 10
456.51971435546875
 20
260.95257568359375
 30
0.0
 10
456.8931884765625
 20
261.823974609375
 30
0.0
 10
457.50006103515625
 20
262.4619140625
 30
0.0
 10
458.02908325195312
 20
262.92874145507812
 30
0.0
 10
458.94717407226562
 20
263.64453125
 30
0.0
 10
459.336181640625
 20
264.03350830078125
 30
0.0
 10
459.55401611328125
 20
264.46920776367188
 30
0.0
 10
459.55401611328125
 20
265.16943359375
 30
0.0
 10
459.46063232421875
 20
265.91632080078125
 30
0.0
 10
459.4761962890625
 20
266.4609375
 30
0.0
 10
459.4295654296875
 20
266.94332885742187
 30
0.0
 10
459.1650390625
 20
267.39456176757812
 30
0.0
 10
458.83822631835937
 20
267.84579467773437
 30
0.0
 10
458.51144409179687
 20
268.4993896484375
 30
0.0
 10
458.12246704101562
 20
268.99728393554687
 30
0.0
 10
457.67120361328125
 20
269.4329833984375
 30
0.0
 10
456.41085815429687
 20
270.56887817382812
 30
0.0
 10
455.04150390625
 20
272.09378051757812
 30
0.0
 10
453.578857421875
 20
273.83651733398438
 30
0.0
 10
452.81637573242187
 20
274.94131469726562
 30
0.0
 10
452.28738403320312
 20
275.76602172851563
 30
0.0
 10
451.82052612304687
 20
276.54403686523437
 30
0.0
 10
450.93359375
 20
278.4735107421875
 30
0.0
 10
450.12445068359375
 20
279.88949584960937
 30
0.0
 10
449.39312744140625
 20
281.33663940429687
 30
0.0
 10
448.72402954101562
 20
282.87710571289062
 30
0.0
 10
448.44393920898437
 20
283.51507568359375
 30
0.0
 10
448.28839111328125
 20
284.15304565429687
 30
0.0
 10
448.33502197265625
 20
285.16445922851563
 30
0.0
 10
448.36614990234375
 20
285.97360229492187
 30
0.0
 10
448.5528564453125
 20
286.70492553710937
 30
0.0
 10
449.0819091796875
 20
287.35845947265625
 30
0.0
 10
449.51760864257813
 20
287.85638427734375
 30
0.0
 10
450.0
 20
288.260986328125
 30
0.0
 10
454.15460205078125
 20
279.87396240234375
 30
0.0
 10
456.70645141601562
 20
281.13433837890625
 30
0.0
 10
452.55184936523437
 20
289.5213623046875
 30
0.0
 10
453.23648071289063
 20
289.70806884765625
 30
0.0
 10
454.57470703125
 20
290.20602416992187
 30
0.0
 10
455.02593994140625
 20
290.37716674804687
 30
0.0
 10
456.11517333984375
 20
290.73504638671875
 30
0.0
 10
457.00210571289062
 20
290.67282104492188
 30
0.0
 10
458.26251220703125
 20
290.61056518554687
 30
0.0
 10
459.38284301757812
 20
290.78173828125
 30
0.0
 10
459.84963989257812
 20
290.79727172851562
 30
0.0
 10
460.17642211914062
 20
290.65725708007812
 30
0.0
 10
458.10690307617187
 20
284.47979736328125
 30
0.0
 10
460.81442260742187
 20
283.57730102539062
 30
0.0
 10
462.8372802734375
 20
289.61471557617187
 30
0.0
 10
464.67337036132812
 20
288.74334716796875
 30
0.0
 10
466.40057373046875
 20
288.02755737304687
 30
0.0
 10
467.38088989257812
 20
287.32736206054687
 30
0.0
 10
467.7076416015625
 20
286.8760986328125
 30
0.0
 10
467.86322021484375
 20
286.36257934570312
 30
0.0
 10
467.785400390625
 20
285.83352661132812
 30
0.0
 10
467.53646850585937
 20
285.35116577148437
 30
0.0
 10
466.618408203125
 20
284.44869995117187
 30
0.0
 10
466.2293701171875
 20
283.74847412109375
 30
0.0
 10
465.91818237304687
 20
282.93930053710937
 30
0.0
 10
465.5914306640625
 20
282.270263671875
 30
0.0
 10
465.4669189453125
 20
281.60116577148437
 30
0.0
 10
465.63812255859375
 20
281.14987182617187
 30
0.0
 10
465.93374633789062
 20
280.72976684570312
 30
0.0
 10
466.3538818359375
 20
280.26296997070312
 30
0.0
 10
467.318603515625
 20
279.64053344726562
 30
0.0
 10
467.95663452148437
 20
279.31378173828125
 30
0.0
 10
468.62570190429687
 20
279.09591674804687
 30
0.0
 10
469.99502563476562
 20
278.971435546875
 30
0.0
 10
470.67965698242187
 20
278.69137573242187
 30
0.0
 10
471.59768676757812
 20
278.14675903320312
 30
0.0
 10
471.92449951171875
 20
277.80441284179687
 30
0.0
 10
472.06451416015625
 20
277.446533203125
 30
0.0
 10
471.78445434570312
 20
276.79299926757812
 30
0.0
 10
471.317626953125
 20
276.0927734375
 30
0.0
 10
471.09979248046875
 20
275.34591674804687
 30
0.0
 10
471.06863403320312
 20
274.61456298828125
 30
0.0
 10
471.146484375
 20
273.88323974609375
 30
0.0
 10
471.56658935546875
 20
272.6539306640625
 30
0.0
 10
472.45352172851562
 20
271.37802124023438
 30
0.0
 10
474.60086059570312
 20
269.18399047851562
 30
0.0
 10
475.16107177734375
 20
268.65493774414062
 30
0.0
 10
475.84567260742187
 20
267.61239624023437
 30
0.0
 10
476.12576293945312
 20
266.83438110351562
 30
0.0
 10
476.2813720703125
 20
266.00970458984375
 30
0.0
 10
476.2813720703125
 20
265.16943359375
 30
0.0
 10
476.11019897460937
 20
264.3758544921875
 30
0.0
 10
475.50335693359375
 20
263.11544799804687
 30
0.0
 10
474.74090576171875
 20
262.04180908203125
 30
0.0
 10
473.80728149414062
 20
261.17041015625
 30
0.0
 10
473.07595825195312
 20
260.75027465820313
 30
0.0
 10
472.43798828125
 20
260.2056884765625
 30
0.0
 10
472.12677001953125
 20
259.50546264648437
 30
0.0
 10
472.15789794921875
 20
258.78970336914063
 30
0.0
 10
472.36019897460937
 20
258.50961303710937
 30
0.0
 10
472.68695068359375
 20
258.291748046875
 30
0.0
 10
473.4649658203125
 20
257.98056030273437
 30
0.0
 10
474.07180786132812
 20
257.76272583007812
 30
0.0
 10
474.53863525390625
 20
257.42037963867187
 30
0.0
 10
474.77203369140625
 20
256.93801879882812
 30
0.0
 10
474.75643920898437
 20
256.175537109375
 30
0.0
 10
474.49191284179687
 20
255.72430419921875
 30
0.0
 10
473.7294921875
 20
255.03964233398437
 30
0.0
 10
472.98257446289062
 20
254.5106201171875
 30
0.0
 10
471.59768676757812
 20
253.81039428710937
 30
0.0
 10
470.35287475585937
 20
253.32803344726562
 30
0.0
 10
469.37258911132812
 20
252.95455932617187
 30
0.0
 10
468.81243896484375
 20
252.90789794921875
 30
0.0
 10
468.25222778320312
 20
252.98565673828125
 30
0.0
 10
467.14749145507812
 20
253.42138671875
 30
0.0
 10
465.93374633789062
 20
254.32388305664062
 30
0.0
 10
465.06234741210937
 20
255.13302612304687
 30
0.0
 10
464.37771606445312
 20
256.066650390625
 30
0.0
 10
464.01983642578125
 20
256.81353759765625
 30
0.0
 10
463.63079833984375
 20
257.35812377929687
 30
0.0
 10
462.99285888671875
 20
258.35400390625
 30
0.0
 10
462.63497924804687
 20
258.96084594726562
 30
0.0
 10
462.1837158203125
 20
259.45880126953125
 30
0.0
 10
461.748046875
 20
259.64553833007812
 30
0.0
 10
461.26565551757812
 20
259.73886108398437
 30
0.0
 10
460.503173828125
 20
259.75442504882812
 30
0.0
 10
459.7718505859375
 20
259.61434936523437
 30
0.0
 10
458.96270751953125
 20
259.349853515625
 30
0.0
 10
458.13803100585937
 20
259.13201904296875
 30
0.0
 10
457.40670776367187
 20
259.1787109375
 30
0.0
 10
456.93984985351562
 20
259.4432373046875
 30
0.0
 10
456.61312866210937
 20
259.87890625
 30
0.0
 10
456.48861694335937
 20
260.407958984375
 30
0.0
 10
456.48861694335937
 20
260.68804931640625
 30
0.0
  0
LWPOLYLINE
  5
66
100
AcDbEntity
  8
0
 62
256
420
16777215
370
-1
 48
1.0
  6
CONTINUOUS
100
AcDbPolyline
 90
55
 70
0
 10
365.58514404296875
 20
224.01229858398437
 30
0.0
 10
365.69406127929687
 20
224.71249389648437
 30
0.0
 10
372.35391235351563
 20
223.73220825195312
 30
0.0
 10
372.54058837890625
 20
224.090087890625
 30
0.0
 10
372.742919921875
 20
224.93035888671875
 30
0.0
 10
372.78955078125
 20
225.80172729492188
 30
0.0
 10
372.86737060546875
 20
227.07769775390625
 30
0.0
 10
372.80511474609375
 20
227.68453979492187
 30
0.0
 10
372.61843872070313
 20
228.22915649414062
 30
0.0
 10
371.94931030273437
 20
228.97604370117187
 30
0.0
 10
371.03125
 20
229.5517578125
 30
0.0
 10
368.9150390625
 20
230.65652465820313
 30
0.0
 10
367.79470825195312
 20
231.09225463867187
 30
0.0
 10
366.72103881835937
 20
231.60574340820312
 30
0.0
 10
365.89633178710937
 20
232.2281494140625
 30
0.0
 10
365.24282836914062
 20
233.021728515625
 30
0.0
 10
364.76043701171875
 20
234.15765380859375
 30
0.0
 10
364.49594116210937
 20
235.38690185546875
 30
0.0
 10
364.18472290039062
 20
236.61618041992187
 30
0.0
 10
363.4222412109375
 20
237.79873657226562
 30
0.0
 10
362.56643676757812
 20
238.99691772460937
 30
0.0
 10
362.3330078125
 20
239.65042114257812
 30
0.0
 10
362.395263671875
 20
240.17947387695312
 30
0.0
 10
362.61309814453125
 20
240.69296264648437
 30
0.0
 10
362.84649658203125
 20
241.22198486328125
 30
0.0
 10
362.986572265625
 20
241.76663208007813
 30
0.0
 10
362.87762451171875
 20
242.52908325195312
 30
0.0
 10
362.4886474609375
 20
243.38491821289062
 30
0.0
 10
361.8973388671875
 20
244.14736938476562
 30
0.0
 10
361.50836181640625
 20
244.59860229492187
 30
0.0
 10
361.50836181640625
 20
245.0343017578125
 30
0.0
 10
361.86624145507812
 20
245.48553466796875
 30
0.0
 10
362.87762451171875
 20
246.46585083007812
 30
0.0
 10
363.34445190429688
 20
247.30612182617187
 30
0.0
 10
363.4222412109375
 20
247.72622680664062
 30
0.0
 10
363.36001586914062
 20
248.13082885742187
 30
0.0
 10
362.69091796875
 20
249.37564086914062
 30
0.0
 10
362.58197021484375
 20
249.84243774414062
 30
0.0
 10
362.5975341796875
 20
250.293701171875
 30
0.0
 10
362.84649658203125
 20
250.74493408203125
 30
0.0
 10
363.26666259765625
 20
251.11837768554687
 30
0.0
 10
363.67120361328125
 20
251.3829345703125
 30
0.0
 10
363.9512939453125
 20
251.67855834960937
 30
0.0
 10
363.982421875
 20
252.09869384765625
 30
0.0
 10
363.811279296875
 20
252.54995727539062
 30
0.0
 10
363.26666259765625
 20
253.25018310546875
 30
0.0
 10
362.79983520507812
 20
253.91925048828125
 30
0.0
 10
362.753173828125
 20
254.66616821289062
 30
0.0
 10
363.06436157226562
 20
255.36636352539062
 30
0.0
 10
363.56231689453125
 20
255.817626953125
 30
0.0
 10
364.04464721679687
 20
256.26885986328125
 30
0.0
 10
364.2158203125
 20
256.62673950195312
 30
0.0
 10
364.26251220703125
 20
257.046875
 30
0.0
 10
364.0758056640625
 20
257.90267944335937
 30
0.0
 10
363.811279296875
 20
258.33834838867187
 30
0.0
  0
LWPOLYLINE
  5
67
100
AcDbEntity
  8
0
 62
256
420
16777215
370
-1
 48
1.0
  6
CONTINUOUS
100
AcDbPolyline
 90
58
 70
0
 10
353.01235961914062
 20
228.27578735351562
 30
0.0
 10
352.52999877929687
 20
227.8245849609375
 30
0.0
 10
352.296630859375
 20
227.27993774414062
 30
0.0
 10
352.296630859375
 20
226.81314086914062
 30
0.0
 10
352.43661499023437
 20
226.33078002929687
 30
0.0
 10
352.68560791015625
 20
225.91064453125
 30
0.0
 10
353.02792358398437
 20
225.63058471679687
 30
0.0
 10
353.4947509765625
 20
225.52163696289062
 30
0.0
 10
354.0238037109375
 20
225.55276489257812
 30
0.0
 10
354.55282592773437
 20
225.58389282226562
 30
0.0
 10
355.05078125
 20
225.49053955078125
 30
0.0
 10
355.42422485351562
 20
225.22598266601562
 30
0.0
 10
355.70428466796875
 20
224.8525390625
 30
0.0
 10
355.87545776367188
 20
224.41683959960937
 30
0.0
 10
355.89102172851562
 20
223.98114013671875
 30
0.0
 10
355.59536743164062
 20
223.35873413085937
 30
0.0
 10
354.988525390625
 20
222.8297119140625
 30
0.0
 10
354.31942749023437
 20
222.3006591796875
 30
0.0
 10
353.94595336914063
 20
221.7093505859375
 30
0.0
 10
354.00823974609375
 20
221.16473388671875
 30
0.0
 10
354.22607421875
 20
220.57345581054687
 30
0.0
 10
354.41281127929687
 20
219.624267578125
 30
0.0
 10
354.33499145507812
 20
218.70623779296875
 30
0.0
 10
353.930419921875
 20
217.3057861328125
 30
0.0
 10
353.94595336914063
 20
216.23211669921875
 30
0.0
 10
354.10159301757812
 20
215.749755859375
 30
0.0
 10
354.35055541992187
 20
215.37628173828125
 30
0.0
 10
354.77069091796875
 20
215.08065795898437
 30
0.0
 10
355.26861572265625
 20
214.90948486328125
 30
0.0
 10
356.46673583984375
 20
214.58270263671875
 30
0.0
 10
357.63375854492187
 20
214.0380859375
 30
0.0
 10
358.162841796875
 20
213.80471801757812
 30
0.0
 10
358.629638671875
 20
213.75802612304687
 30
0.0
 10
359.79669189453125
 20
217.99041748046875
 30
0.0
 10
362.5352783203125
 20
217.22799682617187
 30
0.0
 10
361.39938354492187
 20
213.13558959960937
 30
0.0
 10
361.74172973632812
 20
212.94891357421875
 30
0.0
 10
362.628662109375
 20
212.65325927734375
 30
0.0
 10
363.50003051757812
 20
212.48208618164062
 30
0.0
 10
365.41397094726562
 20
212.06195068359375
 30
0.0
 10
366.20751953125
 20
211.87521362304687
 30
0.0
 10
366.89218139648438
 20
211.921875
 30
0.0
 10
367.23452758789062
 20
212.23309326171875
 30
0.0
 10
367.43679809570312
 20
212.74661254882812
 30
0.0
 10
367.561279296875
 20
214.08480834960937
 30
0.0
 10
367.63906860351562
 20
215.37628173828125
 30
0.0
 10
367.76358032226562
 20
215.9208984375
 30
0.0
 10
368.02810668945312
 20
216.35659790039062
 30
0.0
 10
368.82168579101562
 20
216.90121459960937
 30
0.0
 10
369.73971557617187
 20
217.39913940429687
 30
0.0
 10
370.42437744140625
 20
218.03713989257812
 30
0.0
 10
371.03125
 20
218.78399658203125
 30
0.0
 10
371.73147583007812
 20
219.54644775390625
 30
0.0
 10
372.01153564453125
 20
219.96658325195312
 30
0.0
 10
372.18267822265625
 20
220.448974609375
 30
0.0
 10
372.21383666992187
 20
220.86907958984375
 30
0.0
 10
365.27392578125
 20
221.89608764648437
 30
0.0
 10
365.5384521484375
 20
223.74777221679687
 30
0.0
  0
LWPOLYLINE
  5
68
100
AcDbEntity
  8
0
 62
256
420
16777215
370
-1
 48
1.0
  6
CONTINUOUS
100
AcDbPolyline
 90
45
 70
0
 10
428.83795166015625
 20
216.58999633789062
 30
0.0
 10
431.46762084960937
 20
219.07965087890625
 30
0.0
 10
431.91885375976562
 20
219.49978637695312
 30
0.0
 10
432.307861328125
 20
219.919921875
 30
0.0
 10
432.774658203125
 20
220.07550048828125
 30
0.0
 10
433.3348388671875
 20
219.9510498046875
 30
0.0
 10
434.59524536132812
 20
219.46865844726562
 30
0.0
 10
435.38882446289062
 20
219.390869140625
 30
0.0
 10
436.05789184570312
 20
219.63986206054687
 30
0.0
 10
436.47802734375
 20
220.1533203125
 30
0.0
 10
436.88259887695312
 20
221.040283203125
 30
0.0
 10
437.34939575195312
 20
221.849365234375
 30
0.0
 10
437.84735107421875
 20
222.20730590820312
 30
0.0
 10
438.48529052734375
 20
222.4095458984375
 30
0.0
 10
439.29443359375
 20
222.42507934570312
 30
0.0
 10
440.02578735351563
 20
222.16061401367187
 30
0.0
 10
440.49258422851562
 20
221.7716064453125
 30
0.0
 10
440.94384765625
 20
221.22695922851562
 30
0.0
 10
441.67520141601562
 20
220.52676391601562
 30
0.0
 10
442.51544189453125
 20
219.98214721679687
 30
0.0
 10
443.43350219726562
 20
219.49978637695312
 30
0.0
 10
444.56942749023437
 20
218.8306884765625
 30
0.0
 10
445.9075927734375
 20
218.20828247070312
 30
0.0
 10
447.121337890625
 20
217.69479370117187
 30
0.0
 10
448.70846557617187
 20
217.43023681640625
 30
0.0
 10
450.3734130859375
 20
217.44580078125
 30
0.0
 10
451.50930786132812
 20
217.53915405273438
 30
0.0
 10
452.59854125976562
 20
217.75701904296875
 30
0.0
 10
454.26348876953125
 20
218.41055297851563
 30
0.0
 10
455.4149169921875
 20
218.72174072265625
 30
0.0
 10
456.76873779296875
 20
219.17300415039062
 30
0.0
 10
457.51556396484375
 20
219.59317016601562
 30
0.0
 10
458.278076171875
 20
219.93545532226562
 30
0.0
 10
458.88491821289062
 20
220.01327514648437
 30
0.0
 10
459.53842163085937
 20
219.9510498046875
 30
0.0
 10
460.14529418945312
 20
219.79541015625
 30
0.0
 10
460.68988037109375
 20
219.48422241210937
 30
0.0
 10
461.07894897460937
 20
219.0640869140625
 30
0.0
 10
461.35903930664062
 20
218.5350341796875
 30
0.0
 10
461.71685791015625
 20
216.9478759765625
 30
0.0
 10
461.98141479492187
 20
216.07650756835937
 30
0.0
 10
462.01254272460937
 20
215.516357421875
 30
0.0
 10
455.0726318359375
 20
214.69161987304688
 30
0.0
 10
455.39938354492187
 20
211.87521362304687
 30
0.0
 10
460.8922119140625
 20
212.51321411132812
 30
0.0
  0
LWPOLYLINE
  5
69
100
AcDbEntity
  8
0
 62
256
420
16777215
370
-1
 48
1.0
  6
CONTINUOUS
100
AcDbPolyline
 90
76
 70
0
 10
425.13461303710937
 20
269.96194458007812
 30
0.0
 10
424.87008666992187
 20
269.51068115234375
 30
0.0
 10
424.68331909179687
 20
268.9971923828125
 30
0.0
 10
424.66775512695312
 20
268.54595947265625
 30
0.0
 10
424.82339477539062
 20
268.141357421875
 30
0.0
 10
425.21237182617187
 20
267.845703125
 30
0.0
 10
426.0059814453125
 20
267.53451538085937
 30
0.0
 10
426.675048828125
 20
267.56564331054687
 30
0.0
 10
427.43753051757812
 20
267.65902709960937
 30
0.0
 10
428.69790649414062
 20
267.98577880859375
 30
0.0
 10
429.9427490234375
 20
268.42144775390625
 30
0.0
 10
431.34317016601562
 20
268.87271118164062
 30
0.0
 10
433.63055419921875
 20
269.77520751953125
 30
0.0
 10
435.84011840820312
 20
270.83334350585937
 30
0.0
 10
438.45425415039063
 20
272.29598999023437
 30
0.0
 10
439.97915649414063
 20
273.26071166992187
 30
0.0
 10
441.255126953125
 20
274.34994506835937
 30
0.0
 10
442.57772827148437
 20
275.36138916015625
 30
0.0
 10
443.55804443359375
 20
276.27944946289062
 30
0.0
 10
444.49166870117187
 20
277.30642700195312
 30
0.0
 10
445.28524780273437
 20
278.4267578125
 30
0.0
 10
445.8609619140625
 20
279.76492309570312
 30
0.0
 10
446.03213500976562
 20
280.66744995117187
 30
0.0
 10
446.03213500976562
 20
281.67886352539062
 30
0.0
 10
445.87652587890625
 20
282.6591796875
 30
0.0
 10
445.3319091796875
 20
284.33969116210937
 30
0.0
 10
444.63168334960937
 20
285.92684936523437
 30
0.0
 10
444.304931640625
 20
286.73599243164063
 30
0.0
 10
444.0404052734375
 20
287.62289428710937
 30
0.0
 10
443.9781494140625
 20
288.19863891601562
 30
0.0
 10
444.13375854492188
 20
288.69659423828125
 30
0.0
 10
444.61611938476562
 20
289.03890991210937
 30
0.0
 10
446.04769897460937
 20
289.63018798828125
 30
0.0
 10
447.46365356445312
 20
290.12814331054687
 30
0.0
 10
448.03939819335937
 20
290.36154174804687
 30
0.0
 10
448.44400024414062
 20
290.61050415039062
 30
0.0
 10
448.770751953125
 20
290.90615844726562
 30
0.0
 10
448.9730224609375
 20
291.29513549804687
 30
0.0
 10
449.06640625
 20
291.76193237304687
 30
0.0
 10
449.004150390625
 20
292.21319580078125
 30
0.0
 10
448.69296264648437
 20
292.85116577148437
 30
0.0
 10
448.22613525390625
 20
293.44244384765625
 30
0.0
 10
446.99688720703125
 20
295.02960205078125
 30
0.0
 10
445.90765380859375
 20
296.29000854492187
 30
0.0
 10
445.0985107421875
 20
297.11471557617187
 30
0.0
 10
444.44497680664062
 20
297.923828125
 30
0.0
 10
444.08709716796875
 20
298.26617431640625
 30
0.0
 10
443.65139770507812
 20
298.53067016601562
 30
0.0
 10
443.2156982421875
 20
298.63961791992187
 30
0.0
 10
442.76446533203125
 20
298.62405395507812
 30
0.0
 10
442.06423950195312
 20
298.32839965820313
 30
0.0
 10
441.48849487304687
 20
297.84603881835937
 30
0.0
 10
440.91278076171875
 20
297.08358764648437
 30
0.0
 10
440.44598388671875
 20
296.18106079101562
 30
0.0
 10
439.8702392578125
 20
294.95181274414062
 30
0.0
 10
439.49679565429687
 20
294.48501586914063
 30
0.0
 10
438.98330688476562
 20
294.23605346679687
 30
0.0
 10
438.46978759765625
 20
294.26718139648438
 30
0.0
 10
438.0185546875
 20
294.54727172851562
 30
0.0
 10
437.61398315429687
 20
294.90512084960937
 30
0.0
 10
436.898193359375
 20
295.32522583007812
 30
0.0
 10
436.1668701171875
 20
295.68316650390625
 30
0.0
 10
435.09320068359375
 20
296.41448974609375
 30
0.0
 10
434.12847900390625
 20
296.78793334960937
 30
0.0
 10
432.91473388671875
 20
297.17694091796875
 30
0.0
 10
432.10562133789062
 20
297.20803833007812
 30
0.0
 10
430.39398193359375
 20
296.9591064453125
 30
0.0
 10
429.77157592773437
 20
296.86575317382812
 30
0.0
 10
429.0557861328125
 20
296.64788818359375
 30
0.0
 10
428.37115478515625
 20
296.30557250976562
 30
0.0
 10
427.11074829101562
 20
295.38751220703125
 30
0.0
 10
425.9437255859375
 20
294.23605346679687
 30
0.0
 10
424.46548461914062
 20
292.5555419921875
 30
0.0
 10
422.76943969726562
 20
290.59494018554688
 30
0.0
 10
421.4779052734375
 20
288.88330078125
 30
0.0
 10
421.01113891601562
 20
288.18310546875
 30
0.0
  0
LWPOLYLINE
  5
6A
100
AcDbEntity
  8
0
 62
256
420
16777215
370
-1
 48
1.0
  6
CONTINUOUS
100
AcDbPolyline
 90
424
 70
0
 10
353.27685546875
 20
228.4625244140625
 30
0.0
 10
354.5994873046875
 20
229.24053955078125
 30
0.0
 10
355.06631469726562
 20
229.61398315429687
 30
0.0
 10
355.1907958984375
 20
229.97186279296875
 30
0.0
 10
354.98849487304687
 20
230.20529174804687
 30
0.0
 10
354.58395385742187
 20
230.39202880859375
 30
0.0
 10
353.49472045898437
 20
230.60986328125
 30
0.0
 10
352.29656982421875
 20
230.57876586914062
 30
0.0
 10
351.814208984375
 20
230.60986328125
 30
0.0
 10
351.44076538085937
 20
230.78103637695312
 30
0.0
 10
351.14511108398437
 20
231.2322998046875
 30
0.0
 10
351.02066040039062
 20
231.88580322265625
 30
0.0
 10
351.0828857421875
 20
232.57049560546875
 30
0.0
 10
351.3162841796875
 20
233.1617431640625
 30
0.0
 10
351.75198364257813
 20
233.62857055664062
 30
0.0
 10
352.281005859375
 20
234.03314208984375
 30
0.0
 10
352.51443481445312
 20
234.26654052734375
 30
0.0
 10
358.0694580078125
 20
234.11093139648437
 30
0.0
 10
358.16281127929687
 20
236.95849609375
 30
0.0
 10
353.8992919921875
 20
237.08294677734375
 30
0.0
 10
353.60366821289062
 20
237.30081176757812
 30
0.0
 10
353.32357788085937
 20
237.78317260742187
 30
0.0
 10
353.18350219726562
 20
238.43670654296875
 30
0.0
 10
353.09014892578125
 20
240.02386474609375
 30
0.0
 10
352.99679565429687
 20
241.48654174804687
 30
0.0
 10
357.104736328125
 20
241.362060546875
 30
0.0
 10
357.18252563476562
 20
244.2095947265625
 30
0.0
 10
352.8411865234375
 20
244.33407592773437
 30
0.0
 10
352.93453979492187
 20
245.36105346679687
 30
0.0
 10
353.05905151367187
 20
246.6214599609375
 30
0.0
 10
352.8411865234375
 20
247.6795654296875
 30
0.0
 10
352.59222412109375
 20
248.58206176757812
 30
0.0
 10
356.54452514648437
 20
248.47311401367187
 30
0.0
 10
356.63790893554687
 20
251.3206787109375
 30
0.0
 10
353.21463012695312
 20
251.4140625
 30
0.0
 10
353.49472045898437
 20
252.93893432617187
 30
0.0
 10
353.43246459960937
 20
253.98150634765625
 30
0.0
 10
353.4013671875
 20
254.46383666992187
 30
0.0
 10
353.46359252929687
 20
254.94622802734375
 30
0.0
 10
353.49472045898437
 20
255.00845336914062
 30
0.0
 10
357.104736328125
 20
254.89956665039063
 30
0.0
 10
357.19808959960937
 20
257.74710083007812
 30
0.0
 10
354.02377319335937
 20
257.8404541015625
 30
0.0
 10
354.00820922851562
 20
258.18280029296875
 30
0.0
 10
354.02377319335937
 20
259.76992797851562
 30
0.0
 10
354.1326904296875
 20
260.61019897460937
 30
0.0
 10
354.44390869140625
 20
261.3726806640625
 30
0.0
 10
354.47503662109375
 20
261.40377807617187
 30
0.0
 10
358.1939697265625
 20
261.29489135742187
 30
0.0
 10
358.28732299804687
 20
264.14239501953125
 30
0.0
 10
355.20635986328125
 20
264.23577880859375
 30
0.0
 10
355.14413452148437
 20
264.84262084960937
 30
0.0
 10
354.94183349609375
 20
265.3094482421875
 30
0.0
 10
354.3349609375
 20
265.60507202148437
 30
0.0
 10
353.58810424804688
 20
265.82290649414062
 30
0.0
 10
353.09014892578125
 20
266.2430419921875
 30
0.0
 10
352.74786376953125
 20
266.81878662109375
 30
0.0
 10
352.6077880859375
 20
267.44119262695312
 30
0.0
 10
352.67001342773437
 20
267.98580932617187
 30
0.0
 10
352.90341186523437
 20
268.328125
 30
0.0
 10
353.27685546875
 20
268.5615234375
 30
0.0
 10
354.3349609375
 20
268.93496704101562
 30
0.0
 10
355.984375
 20
269.47958374023437
 30
0.0
 10
356.513427734375
 20
269.79080200195312
 30
0.0
 10
356.63790893554687
 20
269.96194458007812
 30
0.0
 10
356.62234497070312
 20
270.14871215820312
 30
0.0
 10
356.20223999023437
 20
270.50656127929687
 30
0.0
 10
355.4864501953125
 20
270.80221557617187
 30
0.0
 10
354.63064575195312
 20
271.03564453125
 30
0.0
 10
353.99267578125
 20
271.42465209960938
 30
0.0
 10
353.66586303710937
 20
272.14041137695312
 30
0.0
 10
353.65032958984375
 20
272.54498291015625
 30
0.0
 10
353.74368286132812
 20
272.91842651367187
 30
0.0
 10
354.1015625
 20
273.32302856445312
 30
0.0
 10
354.5994873046875
 20
273.58755493164062
 30
0.0
 10
355.56423950195313
 20
273.72756958007812
 30
0.0
 10
356.63790893554687
 20
273.69644165039062
 30
0.0
 10
357.12030029296875
 20
273.71200561523437
 30
0.0
 10
357.4781494140625
 20
273.86761474609375
 30
0.0
 10
357.58709716796875
 20
274.147705078125
 30
0.0
 10
357.50927734375
 20
274.53671264648437
 30
0.0
 10
356.99581909179687
 20
275.33029174804687
 30
0.0
 10
356.35781860351562
 20
275.85931396484375
 30
0.0
 10
355.81320190429687
 20
276.34170532226562
 30
0.0
 10
355.579833984375
 20
276.83966064453125
 30
0.0
 10
355.4864501953125
 20
277.41534423828125
 30
0.0
 10
355.56423950195313
 20
277.9910888671875
 30
0.0
 10
355.79763793945312
 20
278.489013671875
 30
0.0
 10
356.38894653320312
 20
278.92471313476562
 30
0.0
 10
357.18252563476562
 20
279.0491943359375
 30
0.0
 10
358.41177368164062
 20
278.89358520507812
 30
0.0
 10
358.94082641601562
 20
278.87802124023437
 30
0.0
 10
359.32986450195312
 20
279.0491943359375
 30
0.0
 10
359.56326293945312
 20
279.64047241210937
 30
0.0
 10
359.50100708007813
 20
280.38739013671875
 30
0.0
 10
359.22091674804687
 20
280.93197631835937
 30
0.0
 10
358.87860107421875
 20
281.429931640625
 30
0.0
 10
358.5673828125
 20
281.88116455078125
 30
0.0
 10
358.45846557617187
 20
282.34799194335937
 30
0.0
 10
358.61407470703125
 20
282.79922485351563
 30
0.0
 10
358.95639038085937
 20
283.2193603515625
 30
0.0
 10
359.42318725585937
 20
283.546142578125
 30
0.0
 10
359.9522705078125
 20
283.70172119140625
 30
0.0
 10
360.43463134765625
 20
283.67062377929687
 30
0.0
 10
360.90142822265625
 20
283.546142578125
 30
0.0
 10
361.36825561523437
 20
283.43722534179687
 30
0.0
 10
361.81948852539062
 20
283.4527587890625
 30
0.0
 10
362.37966918945312
 20
283.85736083984375
 30
0.0
 10
362.51971435546875
 20
284.29302978515625
 30
0.0
 10
362.44192504882812
 20
284.775390625
 30
0.0
 10
361.92843627929687
 20
285.8023681640625
 30
0.0
 10
361.50830078125
 20
286.595947265625
 30
0.0
 10
361.41494750976562
 20
286.96942138671875
 30
0.0
 10
361.43048095703125
 20
287.34283447265625
 30
0.0
 10
361.60165405273438
 20
287.70074462890625
 30
0.0
 10
361.89730834960937
 20
288.01193237304687
 30
0.0
 10
362.270751953125
 20
288.245361328125
 30
0.0
 10
362.67529296875
 20
288.33871459960937
 30
0.0
 10
363.04876708984375
 20
288.2764892578125
 30
0.0
 10
363.4222412109375
 20
288.1053466796875
 30
0.0
 10
364.12246704101562
 20
287.57626342773437
 30
0.0
 10
364.79153442382812
 20
287.125
 30
0.0
 10
365.10272216796875
 20
287.01608276367187
 30
0.0
 10
365.39837646484375
 20
287.062744140625
 30
0.0
 10
365.84963989257812
 20
287.52957153320312
 30
0.0
 10
366.03634643554687
 20
288.19866943359375
 30
0.0
 10
365.81851196289062
 20
288.945556640625
 30
0.0
 10
365.6473388671875
 20
289.52130126953125
 30
0.0
 10
365.56954956054687
 20
290.470458984375
 30
0.0
 10
365.67849731445312
 20
290.90618896484375
 30
0.0
 10
365.89633178710937
 20
291.2174072265625
 30
0.0
 10
366.4720458984375
 20
291.37298583984375
 30
0.0
 10
367.15670776367188
 20
291.27960205078125
 30
0.0
 10
368.80612182617187
 20
290.76611328125
 30
0.0
 10
369.44406127929687
 20
290.71945190429688
 30
0.0
 10
369.98867797851562
 20
290.90618896484375
 30
0.0
 10
370.28433227539062
 20
291.419677734375
 30
0.0
 10
370.3154296875
 20
292.07321166992188
 30
0.0
 10
370.00424194335937
 20
292.9134521484375
 30
0.0
 10
369.77081298828125
 20
293.56698608398437
 30
0.0
 10
369.73971557617187
 20
294.22052001953125
 30
0.0
 10
370.15985107421875
 20
294.92071533203125
 30
0.0
 10
370.51773071289063
 20
295.169677734375
 30
0.0
 10
370.92230224609375
 20
295.27862548828125
 30
0.0
 10
371.42025756835937
 20
295.10745239257812
 30
0.0
 10
371.91818237304687
 20
294.74957275390625
 30
0.0
 10
372.94515991210937
 20
293.9404296875
 30
0.0
 10
373.50534057617187
 20
293.69146728515625
 30
0.0
 10
374.0810546875
 20
293.62924194335937
 30
0.0
 10
374.59451293945313
 20
293.75372314453125
 30
0.0
 10
374.99911499023437
 20
294.0338134765625
 30
0.0
 10
375.21694946289062
 20
294.4072265625
 30
0.0
 10
375.29476928710937
 20
294.84295654296875
 30
0.0
 10
375.18582153320312
 20
295.7921142578125
 30
0.0
 10
375.076904296875
 20
296.66351318359375
 30
0.0
 10
375.31033325195312
 20
297.17697143554687
 30
0.0
 10
375.77713012695312
 20
297.56597900390625
 30
0.0
 10
376.492919921875
 20
297.73715209960937
 30
0.0
 10
377.1619873046875
 20
297.56597900390625
 30
0.0
 10
377.56658935546875
 20
297.19256591796875
 30
0.0
 10
377.92446899414062
 20
296.69461059570312
 30
0.0
 10
378.45352172851562
 20
296.14999389648437
 30
0.0
 10
378.76470947265625
 20
295.97882080078125
 30
0.0
 10
379.075927734375
 20
295.94769287109375
 30
0.0
 10
379.41824340820312
 20
296.0877685546875
 30
0.0
 10
379.68276977539062
 20
296.352294921875
 30
0.0
 10
379.83840942382812
 20
296.7879638671875
 30
0.0
 10
379.900634765625
 20
297.27035522460937
 30
0.0
 10
380.11846923828125
 20
298.4373779296875
 30
0.0
 10
380.32073974609375
 20
299.15313720703125
 30
0.0
 10
380.72531127929687
 20
299.69775390625
 30
0.0
 10
381.08322143554687
 20
299.868896484375
 30
0.0
 10
381.48779296875
 20
299.91558837890625
 30
0.0
 10
382.25021362304688
 20
299.66665649414062
 30
0.0
 10
382.87265014648437
 20
299.04421997070312
 30
0.0
 10
383.2772216796875
 20
298.39068603515625
 30
0.0
 10
383.5106201171875
 20
298.110595703125
 30
0.0
 10
383.79074096679687
 20
297.939453125
 30
0.0
 10
384.31976318359375
 20
297.95501708984375
 30
0.0
 10
384.84881591796875
 20
298.2039794921875
 30
0.0
 10
385.26895141601562
 20
298.73300170898437
 30
0.0
 10
385.53347778320312
 20
299.35543823242187
 30
0.0
 10
386.24923706054687
 20
300.77142333984375
 30
0.0
 10
386.65380859375
 20
301.26934814453125
 30
0.0
 10
387.21401977539062
 20
301.33160400390625
 30
0.0
 10
387.69635009765625
 20
301.1448974609375
 30
0.0
 10
388.08538818359375
 20
300.81808471679687
 30
0.0
 10
388.64553833007812
 20
299.93118286132812
 30
0.0
 10
388.98785400390625
 20
299.57327270507812
 30
0.0
 10
389.42355346679687
 20
299.3709716796875
 30
0.0
 10
389.765869140625
 20
299.3709716796875
 30
0.0
 10
390.123779296875
 20
299.4954833984375
 30
0.0
 10
390.68392944335937
 20
300.00897216796875
 30
0.0
 10
390.88623046875
 20
300.4913330078125
 30
0.0
 10
390.99514770507812
 20
301.03594970703125
 30
0.0
 10
391.0885009765625
 20
301.56500244140625
 30
0.0
 10
391.29080200195312
 20
302.06292724609375
 30
0.0
 10
391.882080078125
 20
302.6075439453125
 30
0.0
 10
392.2554931640625
 20
302.7320556640625
 30
0.0
 10
392.597900390625
 20
302.71646118164062
 30
0.0
 10
392.92465209960937
 20
302.5452880859375
 30
0.0
 10
393.20474243164062
 20
302.28076171875
 30
0.0
 10
393.7960205078125
 20
301.47164916992187
 30
0.0
 10
394.26278686523437
 20
300.81808471679687
 30
0.0
 10
394.54290771484375
 20
300.56915283203125
 30
0.0
 10
394.86968994140625
 20
300.4290771484375
 30
0.0
 10
395.39871215820312
 20
300.460205078125
 30
0.0
 10
395.94332885742187
 20
300.7869873046875
 30
0.0
 10
396.48794555664062
 20
301.6116943359375
 30
0.0
 10
396.92364501953125
 20
302.18743896484375
 30
0.0
 10
397.4993896484375
 20
302.59197998046875
 30
0.0
 10
398.10623168945312
 20
302.71646118164062
 30
0.0
 10
398.74420166015625
 20
302.65423583984375
 30
0.0
 10
399.30435180664062
 20
302.43634033203125
 30
0.0
 10
399.7867431640625
 20
302.03179931640625
 30
0.0
 10
400.42471313476562
 20
301.03594970703125
 30
0.0
 10
400.72036743164062
 20
300.6624755859375
 30
0.0
 10
401.0159912109375
 20
300.55355834960937
 30
0.0
 10
401.38946533203125
 20
300.9114990234375
 30
0.0
 10
401.70068359375
 20
301.56500244140625
 30
0.0
 10
402.08969116210937
 20
302.51416015625
 30
0.0
 10
402.86770629882812
 20
303.26107788085937
 30
0.0
 10
403.28781127929687
 20
303.55670166015625
 30
0.0
 10
403.7235107421875
 20
303.69677734375
 30
0.0
 10
404.29925537109375
 20
303.38555908203125
 30
0.0
 10
404.8438720703125
 20
302.85650634765625
 30
0.0
 10
405.52850341796875
 20
302.49862670898437
 30
0.0
 10
405.97976684570312
 20
302.40524291992187
 30
0.0
 10
406.41543579101562
 20
302.467529296875
 30
0.0
 10
406.96005249023437
 20
302.85650634765625
 30
0.0
 10
407.3023681640625
 20
303.47894287109375
 30
0.0
 10
407.50466918945312
 20
304.30364990234375
 30
0.0
 10
407.78475952148437
 20
305.0816650390625
 30
0.0
 10
408.18930053710937
 20
305.5484619140625
 30
0.0
 10
408.70281982421875
 20
305.79742431640625
 30
0.0
 10
409.04513549804687
 20
305.76629638671875
 30
0.0
 10
409.40304565429687
 20
305.61068725585937
 30
0.0
 10
410.16549682617187
 20
305.1905517578125
 30
0.0
 10
410.7723388671875
 20
305.00384521484375
 30
0.0
 10
411.34805297851562
 20
305.06607055664062
 30
0.0
 10
411.79931640625
 20
305.45510864257813
 30
0.0
 10
412.1260986328125
 20
306.0152587890625
 30
0.0
 10
412.60845947265625
 20
307.19784545898437
 30
0.0
 10
412.73294067382812
 20
307.58685302734375
 30
0.0
 10
412.919677734375
 20
307.8980712890625
 30
0.0
 10
413.44873046875
 20
308.0380859375
 30
0.0
 10
414.13339233398438
 20
307.96026611328125
 30
0.0
 10
414.8336181640625
 20
307.8980712890625
 30
0.0
 10
415.45602416992187
 20
308.0380859375
 30
0.0
 10
415.98504638671875
 20
308.4271240234375
 30
0.0
 10
416.34295654296875
 20
308.97171020507812
 30
0.0
 10
416.560791015625
 20
309.67193603515625
 30
0.0
 10
416.71640014648437
 20
310.37216186523437
 30
0.0
 10
417.18319702148437
 20
311.4769287109375
 30
0.0
 10
417.79006958007812
 20
312.2705078125
 30
0.0
 10
418.505859375
 20
312.98629760742188
 30
0.0
 10
419.23715209960937
 20
313.70208740234375
 30
0.0
 10
419.85955810546875
 20
314.4801025390625
 30
0.0
 10
420.35751342773437
 20
315.35147094726562
 30
0.0
 10
421.08883666992187
 20
316.674072265625
 30
0.0
 10
421.77349853515625
 20
318.51019287109375
 30
0.0
 10
422.39590454101562
 20
319.89508056640625
 30
0.0
 10
422.76937866210937
 20
320.45526123046875
 30
0.0
 10
423.31396484375
 20
320.906494140625
 30
0.0
 10
423.9052734375
 20
321.09320068359375
 30
0.0
 10
424.4654541015625
 20
320.98431396484375
 30
0.0
 10
424.57437133789062
 20
320.89093017578125
 30
0.0
 10
424.57437133789062
 20
320.906494140625
 30
0.0
 10
425.08786010742187
 20
320.54861450195313
 30
0.0
 10
425.41464233398438
 20
320.09735107421875
 30
0.0
 10
425.43020629882812
 20
319.45941162109375
 30
0.0
 10
425.38351440429687
 20
318.75918579101563
 30
0.0
 10
425.41464233398438
 20
318.4168701171875
 30
0.0
 10
425.21234130859375
 20
317.4676513671875
 30
0.0
 10
424.558837890625
 20
315.25811767578125
 30
0.0
 10
424.41876220703125
 20
314.6512451171875
 30
0.0
 10
423.8741455078125
 20
313.01739501953125
 30
0.0
 10
423.53182983398437
 20
311.75701904296875
 30
0.0
 10
423.12725830078125
 20
310.49664306640625
 30
0.0
 10
422.14694213867187
 20
308.81610107421875
 30
0.0
 10
421.47784423828125
 20
308.0692138671875
 30
0.0
 10
421.01104736328125
 20
307.58685302734375
 30
0.0
 10
420.9954833984375
 20
307.12002563476563
 30
0.0
 10
421.10440063476562
 20
306.575439453125
 30
0.0
 10
421.04217529296875
 20
305.85968017578125
 30
0.0
 10
420.66873168945312
 20
305.3150634765625
 30
0.0
 10
419.89071655273437
 20
305.00384521484375
 30
0.0
 10
419.22158813476562
 20
304.77044677734375
 30
0.0
 10
418.4747314453125
 20
304.64593505859375
 30
0.0
 10
418.07012939453125
 20
304.6614990234375
 30
0.0
 10
417.75894165039063
 20
304.59927368164062
 30
0.0
 10
417.69668579101562
 20
304.1947021484375
 30
0.0
 10
417.8211669921875
 20
303.61895751953125
 30
0.0
 10
417.83673095703125
 20
302.91876220703125
 30
0.0
 10
417.8211669921875
 20
302.23406982421875
 30
0.0
 10
417.91455078125
 20
301.70501708984375
 30
0.0
 10
417.8834228515625
 20
301.26934814453125
 30
0.0
 10
417.66558837890625
 20
301.11373901367187
 30
0.0
 10
417.30767822265625
 20
301.06707763671875
 30
0.0
 10
416.48300170898437
 20
301.160400390625
 30
0.0
 10
415.7672119140625
 20
301.30047607421875
 30
0.0
 10
415.34710693359375
 20
301.284912109375
 30
0.0
 10
414.9425048828125
 20
301.176025390625
 30
0.0
 10
414.42898559570312
 20
300.70916748046875
 30
0.0
 10
414.14895629882812
 20
300.0556640625
 30
0.0
 10
414.10226440429687
 20
299.33990478515625
 30
0.0
 10
414.211181640625
 20
298.68634033203125
 30
0.0
 10
414.211181640625
 20
298.01724243164062
 30
0.0
 10
413.75994873046875
 20
297.19256591796875
 30
0.0
 10
413.38650512695312
 20
296.91244506835937
 30
0.0
 10
412.96636962890625
 20
296.7879638671875
 30
0.0
 10
412.37506103515625
 20
296.94357299804687
 30
0.0
 10
411.81488037109375
 20
297.34814453125
 30
0.0
 10
411.34805297851562
 20
297.72158813476562
 30
0.0
 10
410.78793334960937
 20
297.9705810546875
 30
0.0
 10
410.336669921875
 20
298.01724243164062
 30
0.0
 10
410.00991821289062
 20
297.86163330078125
 30
0.0
 10
409.90097045898437
 20
297.53485107421875
 30
0.0
 10
409.57418823242187
 20
296.04107666015625
 30
0.0
 10
409.511962890625
 20
295.32528686523437
 30
0.0
 10
409.27853393554687
 20
294.71844482421875
 30
0.0
 10
408.88955688476562
 20
294.469482421875
 30
0.0
 10
408.40716552734375
 20
294.37612915039062
 30
0.0
 10
407.87811279296875
 20
294.4383544921875
 30
0.0
 10
407.39578247070312
 20
294.62506103515625
 30
0.0
 10
406.35321044921875
 20
295.24749755859375
 30
0.0
 10
405.9486083984375
 20
295.41867065429687
 30
0.0
 10
405.52850341796875
 20
295.46533203125
 30
0.0
 10
405.13949584960937
 20
295.32528686523437
 30
0.0
 10
404.79718017578125
 20
295.04522705078125
 30
0.0
 10
404.56378173828125
 20
294.65618896484375
 30
0.0
 10
404.47039794921875
 20
294.25164794921875
 30
0.0
 10
404.59490966796875
 20
293.30242919921875
 30
0.0
 10
404.39260864257812
 20
292.88232421875
 30
0.0
 10
403.988037109375
 20
292.5244140625
 30
0.0
 10
403.39675903320312
 20
292.27545166015625
 30
0.0
 10
402.82101440429687
 20
292.291015625
 30
0.0
 10
402.24530029296875
 20
292.69561767578125
 30
0.0
 10
401.84072875976562
 20
293.39581298828125
 30
0.0
 10
401.638427734375
 20
293.81594848632812
 30
0.0
 10
401.3739013671875
 20
294.12713623046875
 30
0.0
 10
401.047119140625
 20
294.22052001953125
 30
0.0
 10
400.67367553710937
 20
294.18939208984375
 30
0.0
 10
400.0201416015625
 20
293.83151245117187
 30
0.0
 10
399.77117919921875
 20
293.33355712890625
 30
0.0
 10
399.66226196289062
 20
292.74227905273438
 30
0.0
 10
399.3665771484375
 20
291.886474609375
 30
0.0
 10
399.13323974609375
 20
291.5596923828125
 30
0.0
 10
398.80642700195312
 20
291.357421875
 30
0.0
 10
398.15289306640625
 20
291.3262939453125
 30
0.0
 10
397.65496826171875
 20
291.31072998046875
 30
0.0
 10
397.21929931640625
 20
291.419677734375
 30
0.0
 10
396.939208984375
 20
291.69976806640625
 30
0.0
 10
396.73690795898437
 20
292.08877563476562
 30
0.0
 10
396.51904296875
 20
292.57110595703125
 30
0.0
 10
396.19229125976562
 20
292.944580078125
 30
0.0
 10
395.61654663085937
 20
293.10018920898437
 30
0.0
 10
395.0875244140625
 20
292.92901611328125
 30
0.0
 10
394.85409545898437
 20
292.54000854492187
 30
0.0
 10
394.74517822265625
 20
292.0576171875
 30
0.0
 10
394.2939453125
 20
290.99954223632812
 30
0.0
 10
393.93603515625
 20
290.61053466796875
 30
0.0
 10
393.5003662109375
 20
290.361572265625
 30
0.0
 10
393.06466674804687
 20
290.3304443359375
 30
0.0
 10
392.64453125
 20
290.45492553710938
 30
0.0
 10
392.06881713867187
 20
290.828369140625
 30
0.0
 10
391.53976440429687
 20
291.31072998046875
 30
0.0
 10
390.948486328125
 20
291.6842041015625
 30
0.0
 10
390.31048583984375
 20
291.8553466796875
 30
0.0
 10
389.8592529296875
 20
291.76202392578125
 30
0.0
 10
389.40798950195312
 20
291.5596923828125
 30
0.0
 10
388.47439575195312
 20
291.13958740234375
 30
0.0
 10
387.63409423828125
 20
291.04620361328125
 30
0.0
 10
386.77828979492187
 20
291.04620361328125
 30
0.0
 10
385.54904174804687
 20
290.68832397460937
 30
0.0
 10
384.366455078125
 20
290.15927124023437
 30
0.0
 10
382.0791015625
 20
289.4434814453125
 30
0.0
 10
380.600830078125
 20
288.836669921875
 30
0.0
 10
379.48049926757812
 20
288.1519775390625
 30
0.0
 10
377.92446899414062
 20
287.52957153320312
 30
0.0
 10
377.02197265625
 20
287.00054931640625
 30
0.0
 10
376.29061889648437
 20
286.23809814453125
 30
0.0
 10
376.01052856445312
 20
285.74014282226562
 30
0.0
 10
375.88604736328125
 20
285.17996215820312
 30
0.0
 10
375.99496459960937
 20
284.5731201171875
 30
0.0
 10
376.4617919921875
 20
284.0440673828125
 30
0.0
 10
377.130859375
 20
283.655029296875
 30
0.0
 10
377.9866943359375
 20
283.26605224609375
 30
0.0
 10
378.5157470703125
 20
283.37496948242187
 30
0.0
 10
379.02923583984375
 20
283.70172119140625
 30
0.0
 10
380.05624389648438
 20
284.55755615234375
 30
0.0
 10
380.74087524414062
 20
284.89984130859375
 30
0.0
 10
382.28134155273437
 20
285.24221801757812
 30
0.0
 10
383.12161254882812
 20
285.44448852539062
 30
0.0
 10
383.96188354492187
 20
285.5689697265625
 30
0.0
 10
385.37783813476562
 20
285.3978271484375
 30
0.0
 10
386.80938720703125
 20
285.19552612304687
 30
0.0
 10
387.96087646484375
 20
285.25775146484375
 30
0.0
 10
388.77001953125
 20
285.17996215820312
 30
0.0
 10
389.54803466796875
 20
284.88430786132812
 30
0.0
 10
389.96817016601562
 20
284.5731201171875
 30
0.0
 10
390.21713256835937
 20
284.15298461914062
 30
0.0
 10
390.23269653320312
 20
283.49945068359375
 30
0.0
 10
389.92147827148437
 20
282.6903076171875
 30
0.0
 10
389.3302001953125
 20
282.27020263671875
 30
0.0
 10
388.56771850585937
 20
282.27020263671875
 30
0.0
 10
387.78973388671875
 20
282.55026245117187
 30
0.0
 10
387.01168823242187
 20
282.86148071289062
 30
0.0
 10
386.24923706054687
 20
283.0482177734375
 30
0.0
 10
385.39340209960937
 20
283.06378173828125
 30
0.0
 10
384.5064697265625
 20
282.954833984375
 30
0.0
 10
383.61953735351562
 20
282.76809692382812
 30
0.0
 10
382.779296875
 20
282.47247314453125
 30
0.0
 10
382.01681518554687
 20
282.02120971679687
 30
0.0
 10
381.31661987304687
 20
281.4610595703125
 30
0.0
 10
380.35186767578125
 20
280.46517944335937
 30
0.0
 10
379.48049926757812
 20
279.37591552734375
 30
0.0
 10
378.67138671875
 20
278.33343505859375
 30
0.0
 10
377.73773193359375
 20
277.41534423828125
 30
0.0
 10
377.17755126953125
 20
277.088623046875
 30
0.0
 10
376.55514526367188
 20
276.8707275390625
 30
0.0
 10
376.492919921875
 20
276.85516357421875
 30
0.0
 10
369.9420166015625
 20
280.605224609375
 30
0.0
 10
369.3818359375
 20
279.59381103515625
 30
0.0
  0
ENDSEC
  0
SECTION
  2
OBJECTS
  0
DICTIONARY
  5
C
100
AcDbDictionary
280
0
281
1
  3
ACAD_GROUP
350
D
  3
ACAD_LAYOUT
350
1A
  3
ACAD_MLINESTYLE
350
17
  3
ACAD_PLOTSETTINGS
350
19
  3
ACAD_PLOTSTYLENAME
350
E
  3
AcDbVariableDictionary
350
6B
  0
DICTIONARY
  5
D
100
AcDbDictionary
280
0
281
1
  0
ACDBDICTIONARYWDFLT
  5
E
100
AcDbDictionary
281
1
  3
Normal
350
F
100
AcDbDictionaryWithDefault
340
F
  0
ACDBPLACEHOLDER
  5
F
  0
DICTIONARY
  5
17
100
AcDbDictionary
280
0
281
1
  3
Standard
350
18
  0
MLINESTYLE
  5
18
100
AcDbMlineStyle
  2
STANDARD
 70
0
  3

 62
256
 51
90.0
 52
90.0
 71
2
 49
0.5
 62
256
  6
BYLAYER
 49
-0.5
 62
256
  6
BYLAYER
  0
DICTIONARY
  5
19
100
AcDbDictionary
280
0
281
1
  0
DICTIONARY
  5
1A
100
AcDbDictionary
281
1
  3
Layout1
350
1E
  3
Layout2
350
26
  3
Model
350
22
  0
LAYOUT
  5
1E
100
AcDbPlotSettings
  1

  2
none_device
  4

  6

 40
0.0
 41
0.0
 42
0.0
 43
0.0
 44
0.0
 45
0.0
 46
0.0
 47
0.0
 48
0.0
 49
0.0
140
0.0
141
0.0
142
1.0
143
1.0
 70
688
 72
0
 73
0
 74
5
  7

 75
16
147
1.0
148
0.0
149
0.0
100
AcDbLayout
  1
Layout1
 70
1
 71
1
 10
0.0
 20
0.0
 11
420.0
 21
297.0
 12
0.0
 22
0.0
 32
0.0
 14
100000000000000000000.0
 24
100000000000000000000.0
 34
100000000000000000000.0
 15
-100000000000000000000.0
 25
-100000000000000000000.0
 35
-100000000000000000000.0
146
0.0
 13
0.0
 23
0.0
 33
0.0
 16
1.0
 26
0.0
 36
0.0
 17
0.0
 27
1.0
 37
0.0
 76
0
330
1B
  0
LAYOUT
  5
22
100
AcDbPlotSettings
  1

  2
none_device
  4

  6

 40
0.0
 41
0.0
 42
0.0
 43
0.0
 44
0.0
 45
0.0
 46
0.0
 47
0.0
 48
0.0
 49
0.0
140
0.0
141
0.0
142
1.0
143
1.0
 70
1712
 72
0
 73
0
 74
0
  7

 75
0
147
1.0
148
0.0
149
0.0
100
AcDbLayout
  1
Model
 70
1
 71
0
 10
0.0
 20
0.0
 11
12.0
 21
9.0
 12
0.0
 22
0.0
 32
0.0
 14
0.0
 24
0.0
 34
0.0
 15
0.0
 25
0.0
 35
0.0
146
0.0
 13
0.0
 23
0.0
 33
0.0
 16
1.0
 26
0.0
 36
0.0
 17
0.0
 27
1.0
 37
0.0
 76
0
330
1F
  0
LAYOUT
  5
26
100
AcDbPlotSettings
  1

  2
none_device
  4

  6

 40
0.0
 41
0.0
 42
0.0
 43
0.0
 44
0.0
 45
0.0
 46
0.0
 47
0.0
 48
0.0
 49
0.0
140
0.0
141
0.0
142
1.0
143
1.0
 70
688
 72
0
 73
0
 74
5
  7

 75
16
147
1.0
148
0.0
149
0.0
100
AcDbLayout
  1
Layout2
 70
1
 71
2
 10
0.0
 20
0.0
 11
12.0
 21
9.0
 12
0.0
 22
0.0
 32
0.0
 14
0.0
 24
0.0
 34
0.0
 15
0.0
 25
0.0
 35
0.0
146
0.0
 13
0.0
 23
0.0
 33
0.0
 16
1.0
 26
0.0
 36
0.0
 17
0.0
 27
1.0
 37
0.0
 76
0
330
23
  0
DICTIONARY
  5
6B
100
AcDbDictionary
281
1
  3
DIMASSOC
350
6D
  3
HIDETEXT
350
6C
  0
DICTIONARYVAR
  5
6C
100
DictionaryVariables
280
0
  1
2
  0
DICTIONARYVAR
  5
6D
100
DictionaryVariables
280
0
  1
1
  0
ENDSEC
  0
EOF
