  0
SECTION
  2
HEADER
  9
$ACADVER
  1
AC1009
  0
ENDSEC
  0
SECTION
  2
ENTITIES
  0
POLYLINE
  5
90
  8
Layer_2
  62
0
  70
1
  66
1
  10
0
  20
0
  30
0
  0
VERTEX
  5
90
  8
Layer_2
  10
41.472351
  20
112.19072
  0
VERTEX
  5
91
  8
Layer_2
  10
41.472412
  20
109.29228
  0
VERTEX
  5
92
  8
Layer_2
  10
60.795349
  20
109.29234
  0
VERTEX
  5
93
  8
Layer_2
  10
60.795288
  20
112.19078
  0
VERTEX
  5
94
  8
Layer_2
  10
41.472351
  20
112.19072
  0
SEQEND
  0
POLYLINE
  5
96
  8
Layer_2
  62
0
  70
1
  66
1
  10
0
  20
0
  30
0
  0
VERTEX
  5
96
  8
Layer_2
  10
101.18701
  20
112.19057
  0
VERTEX
  5
97
  8
Layer_2
  10
81.863586
  20
112.19069
  0
VERTEX
  5
98
  8
Layer_2
  10
81.863708
  20
109.2924
  0
VERTEX
  5
99
  8
Layer_2
  10
101.18695
  20
109.29228
  0
VERTEX
  5
9a
  8
Layer_2
  10
101.18701
  20
112.19057
  0
SEQEND
  0
POLYLINE
  5
9c
  8
Layer_2
  62
0
  70
1
  66
1
  10
0
  20
0
  30
0
  0
VERTEX
  5
9c
  8
Layer_2
  10
201.70471
  20
96.714157
  0
VERTEX
  5
9d
  8
Layer_2
  10
201.70355
  20
96.607071
  0
VERTEX
  5
9e
  8
Layer_2
  10
201.70001
  20
96.498611
  0
VERTEX
  5
9f
  8
Layer_2
  10
201.69391
  20
96.389603
  0
VERTEX
  5
a0
  8
Layer_2
  10
201.68524
  20
96.280136
  0
VERTEX
  5
a1
  8
Layer_2
  10
201.67401
  20
96.169785
  0
VERTEX
  5
a2
  8
Layer_2
  10
201.6601
  20
96.058426
  0
VERTEX
  5
a3
  8
Layer_2
  10
201.64355
  20
95.947067
  0
VERTEX
  5
a4
  8
Layer_2
  10
201.62421
  20
95.835312
  0
VERTEX
  5
a5
  8
Layer_2
  10
201.60205
  20
95.723007
  0
VERTEX
  5
a6
  8
Layer_2
  10
201.57703
  20
95.610275
  0
VERTEX
  5
a7
  8
Layer_2
  10
201.54907
  20
95.497543
  0
VERTEX
  5
a8
  8
Layer_2
  10
201.51825
  20
95.384781
  0
VERTEX
  5
a9
  8
Layer_2
  10
201.48456
  20
95.272049
  0
VERTEX
  5
aa
  8
Layer_2
  10
201.44788
  20
95.159744
  0
VERTEX
  5
ab
  8
Layer_2
  10
201.4082
  20
95.04747
  0
VERTEX
  5
ac
  8
Layer_2
  10
201.36554
  20
94.936111
  0
VERTEX
  5
ad
  8
Layer_2
  10
201.32007
  20
94.824814
  0
VERTEX
  5
ae
  8
Layer_2
  10
201.2713
  20
94.713943
  0
VERTEX
  5
af
  8
Layer_2
  10
201.2196
  20
94.604477
  0
VERTEX
  5
b0
  8
Layer_2
  10
201.16504
  20
94.495529
  0
VERTEX
  5
b1
  8
Layer_2
  10
201.10748
  20
94.387497
  0
VERTEX
  5
b2
  8
Layer_2
  10
201.047
  20
94.280411
  0
VERTEX
  5
b3
  8
Layer_2
  10
200.98364
  20
94.174728
  0
VERTEX
  5
b4
  8
Layer_2
  10
200.91742
  20
94.07048
  0
VERTEX
  5
b5
  8
Layer_2
  10
200.84833
  20
93.967606
  0
VERTEX
  5
b6
  8
Layer_2
  10
200.77631
  20
93.866684
  0
VERTEX
  5
b7
  8
Layer_2
  10
200.7016
  20
93.767105
  0
VERTEX
  5
b8
  8
Layer_2
  10
200.62445
  20
93.66951
  0
VERTEX
  5
b9
  8
Layer_2
  10
200.54449
  20
93.573257
  0
VERTEX
  5
ba
  8
Layer_2
  10
200.46204
  20
93.479385
  0
VERTEX
  5
bb
  8
Layer_2
  10
200.37708
  20
93.387802
  0
VERTEX
  5
bc
  8
Layer_2
  10
200.28979
  20
93.298203
  0
VERTEX
  5
bd
  8
Layer_2
  10
200.20026
  20
93.210922
  0
VERTEX
  5
be
  8
Layer_2
  10
200.10858
  20
93.126022
  0
VERTEX
  5
bf
  8
Layer_2
  10
200.01465
  20
93.043472
  0
VERTEX
  5
c0
  8
Layer_2
  10
199.91882
  20
92.963699
  0
VERTEX
  5
c1
  8
Layer_2
  10
199.82098
  20
92.886368
  0
VERTEX
  5
c2
  8
Layer_2
  10
199.7215
  20
92.811813
  0
VERTEX
  5
c3
  8
Layer_2
  10
199.6203
  20
92.740097
  0
VERTEX
  5
c4
  8
Layer_2
  10
199.51752
  20
92.670761
  0
VERTEX
  5
c5
  8
Layer_2
  10
199.41315
  20
92.604721
  0
VERTEX
  5
c6
  8
Layer_2
  10
199.30756
  20
92.541031
  0
VERTEX
  5
c7
  8
Layer_2
  10
199.20062
  20
92.480637
  0
VERTEX
  5
c8
  8
Layer_2
  10
199.09271
  20
92.42308
  0
VERTEX
  5
c9
  8
Layer_2
  10
198.98383
  20
92.368393
  0
VERTEX
  5
ca
  8
Layer_2
  10
198.87402
  20
92.31694
  0
VERTEX
  5
cb
  8
Layer_2
  10
198.76343
  20
92.268356
  0
VERTEX
  5
cc
  8
Layer_2
  10
198.65222
  20
92.22258
  0
VERTEX
  5
cd
  8
Layer_2
  10
198.54041
  20
92.179672
  0
VERTEX
  5
ce
  8
Layer_2
  10
198.42828
  20
92.14003
  0
VERTEX
  5
cf
  8
Layer_2
  10
198.31592
  20
92.103714
  0
VERTEX
  5
d0
  8
Layer_2
  10
198.20325
  20
92.069748
  0
VERTEX
  5
d1
  8
Layer_2
  10
198.09058
  20
92.039108
  0
VERTEX
  5
d2
  8
Layer_2
  10
197.97791
  20
92.011246
  0
VERTEX
  5
d3
  8
Layer_2
  10
197.86542
  20
91.986252
  0
VERTEX
  5
d4
  8
Layer_2
  10
197.75305
  20
91.964066
  0
VERTEX
  5
d5
  8
Layer_2
  10
197.64099
  20
91.944748
  0
VERTEX
  5
d6
  8
Layer_2
  10
197.52948
  20
91.928207
  0
VERTEX
  5
d7
  8
Layer_2
  10
197.41852
  20
91.914047
  0
VERTEX
  5
d8
  8
Layer_2
  10
197.30817
  20
91.902725
  0
VERTEX
  5
d9
  8
Layer_2
  10
197.1983
  20
91.894272
  0
VERTEX
  5
da
  8
Layer_2
  10
197.08936
  20
91.888168
  0
VERTEX
  5
db
  8
Layer_2
  10
196.9812
  20
91.884354
  0
VERTEX
  5
dc
  8
Layer_2
  10
187.10522
  20
91.884354
  0
VERTEX
  5
dd
  8
Layer_2
  10
186.99707
  20
91.888168
  0
VERTEX
  5
de
  8
Layer_2
  10
186.88806
  20
91.894272
  0
VERTEX
  5
df
  8
Layer_2
  10
186.77844
  20
91.902725
  0
VERTEX
  5
e0
  8
Layer_2
  10
186.66809
  20
91.914047
  0
VERTEX
  5
e1
  8
Layer_2
  10
186.55701
  20
91.928207
  0
VERTEX
  5
e2
  8
Layer_2
  10
186.4455
  20
91.944748
  0
VERTEX
  5
e3
  8
Layer_2
  10
186.33344
  20
91.964066
  0
VERTEX
  5
e4
  8
Layer_2
  10
186.22119
  20
91.986252
  0
VERTEX
  5
e5
  8
Layer_2
  10
186.10864
  20
92.011246
  0
VERTEX
  5
e6
  8
Layer_2
  10
185.99597
  20
92.039108
  0
VERTEX
  5
e7
  8
Layer_2
  10
185.8833
  20
92.069748
  0
VERTEX
  5
e8
  8
Layer_2
  10
185.77063
  20
92.103714
  0
VERTEX
  5
e9
  8
Layer_2
  10
185.65826
  20
92.14003
  0
VERTEX
  5
ea
  8
Layer_2
  10
185.54614
  20
92.179672
  0
VERTEX
  5
eb
  8
Layer_2
  10
185.43427
  20
92.22258
  0
VERTEX
  5
ec
  8
Layer_2
  10
185.32306
  20
92.268356
  0
VERTEX
  5
ed
  8
Layer_2
  10
185.21265
  20
92.31694
  0
VERTEX
  5
ee
  8
Layer_2
  10
185.10272
  20
92.368393
  0
VERTEX
  5
ef
  8
Layer_2
  10
184.99384
  20
92.42308
  0
VERTEX
  5
f0
  8
Layer_2
  10
184.88574
  20
92.480637
  0
VERTEX
  5
f1
  8
Layer_2
  10
184.77887
  20
92.541031
  0
VERTEX
  5
f2
  8
Layer_2
  10
184.6734
  20
92.604721
  0
VERTEX
  5
f3
  8
Layer_2
  10
184.56915
  20
92.670761
  0
VERTEX
  5
f4
  8
Layer_2
  10
184.46625
  20
92.740097
  0
VERTEX
  5
f5
  8
Layer_2
  10
184.36493
  20
92.811813
  0
VERTEX
  5
f6
  8
Layer_2
  10
184.26544
  20
92.886368
  0
VERTEX
  5
f7
  8
Layer_2
  10
184.1676
  20
92.963699
  0
VERTEX
  5
f8
  8
Layer_2
  10
184.0719
  20
93.043472
  0
VERTEX
  5
f9
  8
Layer_2
  10
183.97797
  20
93.126022
  0
VERTEX
  5
fa
  8
Layer_2
  10
183.88623
  20
93.210922
  0
VERTEX
  5
fb
  8
Layer_2
  10
183.79663
  20
93.298203
  0
VERTEX
  5
fc
  8
Layer_2
  10
183.70935
  20
93.387802
  0
VERTEX
  5
fd
  8
Layer_2
  10
183.62445
  20
93.479385
  0
VERTEX
  5
fe
  8
Layer_2
  10
183.54199
  20
93.573257
  0
VERTEX
  5
ff
  8
Layer_2
  10
183.46222
  20
93.66951
  0
VERTEX
  5
100
  8
Layer_2
  10
183.38477
  20
93.767105
  0
VERTEX
  5
101
  8
Layer_2
  10
183.31024
  20
93.866684
  0
VERTEX
  5
102
  8
Layer_2
  10
183.23834
  20
93.967606
  0
VERTEX
  5
103
  8
Layer_2
  10
183.16925
  20
94.07048
  0
VERTEX
  5
104
  8
Layer_2
  10
183.10291
  20
94.174728
  0
VERTEX
  5
105
  8
Layer_2
  10
183.03949
  20
94.280411
  0
VERTEX
  5
106
  8
Layer_2
  10
182.97894
  20
94.387497
  0
VERTEX
  5
107
  8
Layer_2
  10
182.92139
  20
94.495529
  0
VERTEX
  5
108
  8
Layer_2
  10
182.86682
  20
94.604477
  0
VERTEX
  5
109
  8
Layer_2
  10
182.81519
  20
94.713943
  0
VERTEX
  5
10a
  8
Layer_2
  10
182.76654
  20
94.824814
  0
VERTEX
  5
10b
  8
Layer_2
  10
182.72089
  20
94.936111
  0
VERTEX
  5
10c
  8
Layer_2
  10
182.67834
  20
95.04747
  0
VERTEX
  5
10d
  8
Layer_2
  10
182.63861
  20
95.159744
  0
VERTEX
  5
10e
  8
Layer_2
  10
182.60187
  20
95.272049
  0
VERTEX
  5
10f
  8
Layer_2
  10
182.56818
  20
95.384781
  0
VERTEX
  5
110
  8
Layer_2
  10
182.53741
  20
95.497543
  0
VERTEX
  5
111
  8
Layer_2
  10
182.50952
  20
95.610275
  0
VERTEX
  5
112
  8
Layer_2
  10
182.48456
  20
95.723007
  0
VERTEX
  5
113
  8
Layer_2
  10
182.46234
  20
95.835312
  0
VERTEX
  5
114
  8
Layer_2
  10
182.44305
  20
95.947067
  0
VERTEX
  5
115
  8
Layer_2
  10
182.42645
  20
96.058426
  0
VERTEX
  5
116
  8
Layer_2
  10
182.41254
  20
96.169785
  0
VERTEX
  5
117
  8
Layer_2
  10
182.40125
  20
96.280136
  0
VERTEX
  5
118
  8
Layer_2
  10
182.39264
  20
96.389603
  0
VERTEX
  5
119
  8
Layer_2
  10
182.38654
  20
96.498611
  0
VERTEX
  5
11a
  8
Layer_2
  10
182.38281
  20
96.607071
  0
VERTEX
  5
11b
  8
Layer_2
  10
182.38171
  20
96.714157
  0
VERTEX
  5
11c
  8
Layer_2
  10
182.38171
  20
116.03813
  0
VERTEX
  5
11d
  8
Layer_2
  10
161.64813
  20
116.03813
  0
VERTEX
  5
11e
  8
Layer_2
  10
161.64813
  20
96.714157
  0
VERTEX
  5
11f
  8
Layer_2
  10
161.64697
  20
96.607071
  0
VERTEX
  5
120
  8
Layer_2
  10
161.64325
  20
96.498611
  0
VERTEX
  5
121
  8
Layer_2
  10
161.63727
  20
96.389603
  0
VERTEX
  5
122
  8
Layer_2
  10
161.62854
  20
96.280136
  0
VERTEX
  5
123
  8
Layer_2
  10
161.61737
  20
96.169785
  0
VERTEX
  5
124
  8
Layer_2
  10
161.60345
  20
96.058426
  0
VERTEX
  5
125
  8
Layer_2
  10
161.58679
  20
95.947067
  0
VERTEX
  5
126
  8
Layer_2
  10
161.56744
  20
95.835312
  0
VERTEX
  5
127
  8
Layer_2
  10
161.54535
  20
95.723007
  0
VERTEX
  5
128
  8
Layer_2
  10
161.52026
  20
95.610275
  0
VERTEX
  5
129
  8
Layer_2
  10
161.49249
  20
95.497543
  0
VERTEX
  5
12a
  8
Layer_2
  10
161.46173
  20
95.384781
  0
VERTEX
  5
12b
  8
Layer_2
  10
161.42792
  20
95.272049
  0
VERTEX
  5
12c
  8
Layer_2
  10
161.3913
  20
95.159744
  0
VERTEX
  5
12d
  8
Layer_2
  10
161.35168
  20
95.04747
  0
VERTEX
  5
12e
  8
Layer_2
  10
161.30896
  20
94.936111
  0
VERTEX
  5
12f
  8
Layer_2
  10
161.26331
  20
94.824814
  0
VERTEX
  5
130
  8
Layer_2
  10
161.21466
  20
94.713943
  0
VERTEX
  5
131
  8
Layer_2
  10
161.16309
  20
94.604477
  0
VERTEX
  5
132
  8
Layer_2
  10
161.10846
  20
94.495529
  0
VERTEX
  5
133
  8
Layer_2
  10
161.05096
  20
94.387497
  0
VERTEX
  5
134
  8
Layer_2
  10
160.99042
  20
94.280411
  0
VERTEX
  5
135
  8
Layer_2
  10
160.92688
  20
94.174728
  0
VERTEX
  5
136
  8
Layer_2
  10
160.86066
  20
94.07048
  0
VERTEX
  5
137
  8
Layer_2
  10
160.79156
  20
93.967606
  0
VERTEX
  5
138
  8
Layer_2
  10
160.71979
  20
93.866684
  0
VERTEX
  5
139
  8
Layer_2
  10
160.64508
  20
93.767105
  0
VERTEX
  5
13a
  8
Layer_2
  10
160.56769
  20
93.66951
  0
VERTEX
  5
13b
  8
Layer_2
  10
160.48792
  20
93.573257
  0
VERTEX
  5
13c
  8
Layer_2
  10
160.40546
  20
93.479385
  0
VERTEX
  5
13d
  8
Layer_2
  10
160.32043
  20
93.387802
  0
VERTEX
  5
13e
  8
Layer_2
  10
160.23328
  20
93.298203
  0
VERTEX
  5
13f
  8
Layer_2
  10
160.14374
  20
93.210922
  0
VERTEX
  5
140
  8
Layer_2
  10
160.05194
  20
93.126022
  0
VERTEX
  5
141
  8
Layer_2
  10
159.95813
  20
93.043472
  0
VERTEX
  5
142
  8
Layer_2
  10
159.86218
  20
92.963699
  0
VERTEX
  5
143
  8
Layer_2
  10
159.76447
  20
92.886368
  0
VERTEX
  5
144
  8
Layer_2
  10
159.66486
  20
92.811813
  0
VERTEX
  5
145
  8
Layer_2
  10
159.56366
  20
92.740097
  0
VERTEX
  5
146
  8
Layer_2
  10
159.46088
  20
92.670761
  0
VERTEX
  5
147
  8
Layer_2
  10
159.35663
  20
92.604721
  0
VERTEX
  5
148
  8
Layer_2
  10
159.25092
  20
92.541031
  0
VERTEX
  5
149
  8
Layer_2
  10
159.14404
  20
92.480637
  0
VERTEX
  5
14a
  8
Layer_2
  10
159.03619
  20
92.42308
  0
VERTEX
  5
14b
  8
Layer_2
  10
158.92719
  20
92.368393
  0
VERTEX
  5
14c
  8
Layer_2
  10
158.81738
  20
92.31694
  0
VERTEX
  5
14d
  8
Layer_2
  10
158.70673
  20
92.268356
  0
VERTEX
  5
14e
  8
Layer_2
  10
158.59552
  20
92.22258
  0
VERTEX
  5
14f
  8
Layer_2
  10
158.48389
  20
92.179672
  0
VERTEX
  5
150
  8
Layer_2
  10
158.37177
  20
92.14003
  0
VERTEX
  5
151
  8
Layer_2
  10
158.25916
  20
92.103714
  0
VERTEX
  5
152
  8
Layer_2
  10
158.14673
  20
92.069748
  0
VERTEX
  5
153
  8
Layer_2
  10
158.03394
  20
92.039108
  0
VERTEX
  5
154
  8
Layer_2
  10
157.92126
  20
92.011246
  0
VERTEX
  5
155
  8
Layer_2
  10
157.80872
  20
91.986252
  0
VERTEX
  5
156
  8
Layer_2
  10
157.69635
  20
91.964066
  0
VERTEX
  5
157
  8
Layer_2
  10
157.58447
  20
91.944748
  0
VERTEX
  5
158
  8
Layer_2
  10
157.4729
  20
91.928207
  0
VERTEX
  5
159
  8
Layer_2
  10
157.36188
  20
91.914047
  0
VERTEX
  5
15a
  8
Layer_2
  10
157.2514
  20
91.902725
  0
VERTEX
  5
15b
  8
Layer_2
  10
157.14172
  20
91.894272
  0
VERTEX
  5
15c
  8
Layer_2
  10
157.03271
  20
91.888168
  0
VERTEX
  5
15d
  8
Layer_2
  10
156.92456
  20
91.884354
  0
VERTEX
  5
15e
  8
Layer_2
  10
147.04871
  20
91.884354
  0
VERTEX
  5
15f
  8
Layer_2
  10
146.94055
  20
91.888168
  0
VERTEX
  5
160
  8
Layer_2
  10
146.83154
  20
91.894272
  0
VERTEX
  5
161
  8
Layer_2
  10
146.72186
  20
91.902725
  0
VERTEX
  5
162
  8
Layer_2
  10
146.61139
  20
91.914047
  0
VERTEX
  5
163
  8
Layer_2
  10
146.50037
  20
91.928207
  0
VERTEX
  5
164
  8
Layer_2
  10
146.38879
  20
91.944748
  0
VERTEX
  5
165
  8
Layer_2
  10
146.27686
  20
91.964066
  0
VERTEX
  5
166
  8
Layer_2
  10
146.16461
  20
91.986252
  0
VERTEX
  5
167
  8
Layer_2
  10
146.05188
  20
92.011246
  0
VERTEX
  5
168
  8
Layer_2
  10
145.93933
  20
92.039108
  0
VERTEX
  5
169
  8
Layer_2
  10
145.82666
  20
92.069748
  0
VERTEX
  5
16a
  8
Layer_2
  10
145.71411
  20
92.103714
  0
VERTEX
  5
16b
  8
Layer_2
  10
145.6015
  20
92.14003
  0
VERTEX
  5
16c
  8
Layer_2
  10
145.48938
  20
92.179672
  0
VERTEX
  5
16d
  8
Layer_2
  10
145.37769
  20
92.22258
  0
VERTEX
  5
16e
  8
Layer_2
  10
145.26648
  20
92.268356
  0
VERTEX
  5
16f
  8
Layer_2
  10
145.15588
  20
92.31694
  0
VERTEX
  5
170
  8
Layer_2
  10
145.04608
  20
92.368393
  0
VERTEX
  5
171
  8
Layer_2
  10
144.93707
  20
92.42308
  0
VERTEX
  5
172
  8
Layer_2
  10
144.82916
  20
92.480637
  0
VERTEX
  5
173
  8
Layer_2
  10
144.72235
  20
92.541031
  0
VERTEX
  5
174
  8
Layer_2
  10
144.61664
  20
92.604721
  0
VERTEX
  5
175
  8
Layer_2
  10
144.51239
  20
92.670761
  0
VERTEX
  5
176
  8
Layer_2
  10
144.40961
  20
92.740097
  0
VERTEX
  5
177
  8
Layer_2
  10
144.30829
  20
92.811813
  0
VERTEX
  5
178
  8
Layer_2
  10
144.2088
  20
92.886368
  0
VERTEX
  5
179
  8
Layer_2
  10
144.11108
  20
92.963699
  0
VERTEX
  5
17a
  8
Layer_2
  10
144.01514
  20
93.043472
  0
VERTEX
  5
17b
  8
Layer_2
  10
143.92133
  20
93.126022
  0
VERTEX
  5
17c
  8
Layer_2
  10
143.82953
  20
93.210922
  0
VERTEX
  5
17d
  8
Layer_2
  10
143.73999
  20
93.298203
  0
VERTEX
  5
17e
  8
Layer_2
  10
143.65271
  20
93.387802
  0
VERTEX
  5
17f
  8
Layer_2
  10
143.56781
  20
93.479385
  0
VERTEX
  5
180
  8
Layer_2
  10
143.48535
  20
93.573257
  0
VERTEX
  5
181
  8
Layer_2
  10
143.40558
  20
93.66951
  0
VERTEX
  5
182
  8
Layer_2
  10
143.32819
  20
93.767105
  0
VERTEX
  5
183
  8
Layer_2
  10
143.25348
  20
93.866684
  0
VERTEX
  5
184
  8
Layer_2
  10
143.1817
  20
93.967606
  0
VERTEX
  5
185
  8
Layer_2
  10
143.11261
  20
94.07048
  0
VERTEX
  5
186
  8
Layer_2
  10
143.04626
  20
94.174728
  0
VERTEX
  5
187
  8
Layer_2
  10
142.98285
  20
94.280411
  0
VERTEX
  5
188
  8
Layer_2
  10
142.9223
  20
94.387497
  0
VERTEX
  5
189
  8
Layer_2
  10
142.86481
  20
94.495529
  0
VERTEX
  5
18a
  8
Layer_2
  10
142.81018
  20
94.604477
  0
VERTEX
  5
18b
  8
Layer_2
  10
142.75848
  20
94.713943
  0
VERTEX
  5
18c
  8
Layer_2
  10
142.70996
  20
94.824814
  0
VERTEX
  5
18d
  8
Layer_2
  10
142.66437
  20
94.936111
  0
VERTEX
  5
18e
  8
Layer_2
  10
142.62158
  20
95.04747
  0
VERTEX
  5
18f
  8
Layer_2
  10
142.58197
  20
95.159744
  0
VERTEX
  5
190
  8
Layer_2
  10
142.54535
  20
95.272049
  0
VERTEX
  5
191
  8
Layer_2
  10
142.51154
  20
95.384781
  0
VERTEX
  5
192
  8
Layer_2
  10
142.48077
  20
95.497543
  0
VERTEX
  5
193
  8
Layer_2
  10
142.453
  20
95.610275
  0
VERTEX
  5
194
  8
Layer_2
  10
142.42792
  20
95.723007
  0
VERTEX
  5
195
  8
Layer_2
  10
142.40582
  20
95.835312
  0
VERTEX
  5
196
  8
Layer_2
  10
142.38647
  20
95.947067
  0
VERTEX
  5
197
  8
Layer_2
  10
142.36981
  20
96.058426
  0
VERTEX
  5
198
  8
Layer_2
  10
142.3559
  20
96.169785
  0
VERTEX
  5
199
  8
Layer_2
  10
142.34467
  20
96.280136
  0
VERTEX
  5
19a
  8
Layer_2
  10
142.336
  20
96.389603
  0
VERTEX
  5
19b
  8
Layer_2
  10
142.3299
  20
96.498611
  0
VERTEX
  5
19c
  8
Layer_2
  10
142.32629
  20
96.607071
  0
VERTEX
  5
19d
  8
Layer_2
  10
142.32513
  20
96.714157
  0
VERTEX
  5
19e
  8
Layer_2
  10
142.32513
  20
188.49858
  0
VERTEX
  5
19f
  8
Layer_2
  10
151.98663
  20
198.16002
  0
VERTEX
  5
1a0
  8
Layer_2
  10
192.04327
  20
198.16002
  0
VERTEX
  5
1a1
  8
Layer_2
  10
201.70471
  20
188.49858
  0
VERTEX
  5
1a2
  8
Layer_2
  10
201.70471
  20
96.714157
  0
SEQEND
  0
POLYLINE
  5
1a4
  8
Layer_2
  62
0
  66
1
  10
0
  20
0
  30
0
  0
VERTEX
  5
1a4
  8
Layer_2
  10
38.450439
  20
101.32301
  0
VERTEX
  5
1a5
  8
Layer_2
  10
38.515137
  20
101.26262
  0
VERTEX
  5
1a6
  8
Layer_2
  10
38.842957
  20
100.98225
  0
VERTEX
  5
1a7
  8
Layer_2
  10
38.955078
  20
100.87444
  0
VERTEX
  5
1a8
  8
Layer_2
  10
39.05426
  20
100.77092
  0
VERTEX
  5
1a9
  8
Layer_2
  10
39.123291
  20
100.67174
  0
VERTEX
  5
1aa
  8
Layer_2
  10
39.153442
  20
100.5941
  0
VERTEX
  5
1ab
  8
Layer_2
  10
39.166443
  20
100.49486
  0
VERTEX
  5
1ac
  8
Layer_2
  10
39.157776
  20
100.46468
  0
VERTEX
  5
1ad
  8
Layer_2
  10
39.127625
  20
100.4388
  0
VERTEX
  5
1ae
  8
Layer_2
  10
39.062927
  20
100.40431
  0
VERTEX
  5
1af
  8
Layer_2
  10
38.782532
  20
100.3051
  0
VERTEX
  5
1b0
  8
Layer_2
  10
38.549622
  20
100.21886
  0
VERTEX
  5
1b1
  8
Layer_2
  10
38.230408
  20
100.1067
  0
VERTEX
  5
1b2
  8
Layer_2
  10
37.829346
  20
99.973007
  0
VERTEX
  5
1b3
  8
Layer_2
  10
36.85022
  20
99.666733
  0
VERTEX
  5
1b4
  8
Layer_2
  10
35.797852
  20
99.326004
  0
VERTEX
  5
1b5
  8
Layer_2
  10
35.297485
  20
99.153488
  0
VERTEX
  5
1b6
  8
Layer_2
  10
34.840271
  20
98.980942
  0
VERTEX
  5
1b7
  8
Layer_2
  10
33.999268
  20
98.627274
  0
VERTEX
  5
1b8
  8
Layer_2
  10
33.184021
  20
98.251999
  0
VERTEX
  5
1b9
  8
Layer_2
  10
32.424927
  20
97.872482
  0
VERTEX
  5
1ba
  8
Layer_2
  10
32.075562
  20
97.686996
  0
VERTEX
  5
1bb
  8
Layer_2
  10
31.752075
  20
97.510147
  0
VERTEX
  5
1bc
  8
Layer_2
  10
31.454468
  20
97.337631
  0
VERTEX
  5
1bd
  8
Layer_2
  10
31.182739
  20
97.165115
  0
VERTEX
  5
1be
  8
Layer_2
  10
30.695313
  20
96.832993
  0
VERTEX
  5
1bf
  8
Layer_2
  10
30.264038
  20
96.509506
  0
VERTEX
  5
1c0
  8
Layer_2
  10
29.43158
  20
95.8582
  0
VERTEX
  5
1c1
  8
Layer_2
  10
29.030457
  20
95.530411
  0
VERTEX
  5
1c2
  8
Layer_2
  10
28.689697
  20
95.219864
  0
VERTEX
  5
1c3
  8
Layer_2
  10
28.551697
  20
95.07753
  0
VERTEX
  5
1c4
  8
Layer_2
  10
28.443848
  20
94.948135
  0
VERTEX
  5
1c5
  8
Layer_2
  10
28.366211
  20
94.83168
  0
VERTEX
  5
1c6
  8
Layer_2
  10
28.314453
  20
94.723831
  0
VERTEX
  5
1c7
  8
Layer_2
  10
28.275635
  20
94.534042
  0
VERTEX
  5
1c8
  8
Layer_2
  10
28.31012
  20
94.374466
  0
VERTEX
  5
1c9
  8
Layer_2
  10
28.396423
  20
94.240768
  0
VERTEX
  5
1ca
  8
Layer_2
  10
28.495605
  20
94.150192
  0
VERTEX
  5
1cb
  8
Layer_2
  10
28.55603
  20
94.124313
  0
VERTEX
  5
1cc
  8
Layer_2
  10
28.732849
  20
94.076859
  0
VERTEX
  5
1cd
  8
Layer_2
  10
29.056335
  20
94.016495
  0
VERTEX
  5
1ce
  8
Layer_2
  10
29.599792
  20
93.90004
  0
VERTEX
  5
1cf
  8
Layer_2
  10
31.795227
  20
93.468704
  0
VERTEX
  5
1d0
  8
Layer_2
  10
32.248047
  20
93.369522
  0
VERTEX
  5
1d1
  8
Layer_2
  10
32.666504
  20
93.274612
  0
VERTEX
  5
1d2
  8
Layer_2
  10
33.46875
  20
93.080521
  0
VERTEX
  5
1d3
  8
Layer_2
  10
34.257996
  20
92.873489
  0
VERTEX
  5
1d4
  8
Layer_2
  10
34.999878
  20
92.657822
  0
VERTEX
  5
1d5
  8
Layer_2
  10
35.336304
  20
92.550003
  0
VERTEX
  5
1d6
  8
Layer_2
  10
35.642517
  20
92.442184
  0
VERTEX
  5
1d7
  8
Layer_2
  10
35.914246
  20
92.334335
  0
VERTEX
  5
1d8
  8
Layer_2
  10
36.160156
  20
92.23082
  0
VERTEX
  5
1d9
  8
Layer_2
  10
36.578491
  20
92.015182
  0
VERTEX
  5
1da
  8
Layer_2
  10
36.945129
  20
91.795212
  0
VERTEX
  5
1db
  8
Layer_2
  10
37.311707
  20
91.566574
  0
VERTEX
  5
1dc
  8
Layer_2
  10
38.023438
  20
91.087845
  0
VERTEX
  5
1dd
  8
Layer_2
  10
38.65741
  20
90.557327
  0
VERTEX
  5
1de
  8
Layer_2
  10
38.937805
  20
90.255386
  0
VERTEX
  5
1df
  8
Layer_2
  10
39.192322
  20
89.936234
  0
VERTEX
  5
1e0
  8
Layer_2
  10
40.184326
  20
88.594833
  0
VERTEX
  5
1e1
  8
Layer_2
  10
40.684692
  20
87.930588
  0
VERTEX
  5
1e2
  8
Layer_2
  10
41.184998
  20
87.292252
  0
VERTEX
  5
1e3
  8
Layer_2
  10
41.430847
  20
87.003281
  0
VERTEX
  5
1e4
  8
Layer_2
  10
41.668091
  20
86.766037
  0
VERTEX
  5
1e5
  8
Layer_2
  10
41.896667
  20
86.593521
  0
VERTEX
  5
1e6
  8
Layer_2
  10
42.116638
  20
86.472733
  0
VERTEX
  5
1e7
  8
Layer_2
  10
42.336609
  20
86.382156
  0
VERTEX
  5
1e8
  8
Layer_2
  10
42.552246
  20
86.313156
  0
VERTEX
  5
1e9
  8
Layer_2
  10
42.750671
  20
86.265701
  0
VERTEX
  5
1ea
  8
Layer_2
  10
42.94043
  20
86.239822
  0
VERTEX
  5
1eb
  8
Layer_2
  10
43.143127
  20
86.239822
  0
VERTEX
  5
1ec
  8
Layer_2
  10
43.401917
  20
86.265701
  0
VERTEX
  5
1ed
  8
Layer_2
  10
43.699585
  20
86.334732
  0
VERTEX
  5
1ee
  8
Layer_2
  10
44.027405
  20
86.438248
  0
VERTEX
  5
1ef
  8
Layer_2
  10
44.415588
  20
86.541763
  0
VERTEX
  5
1f0
  8
Layer_2
  10
44.644104
  20
86.584885
  0
VERTEX
  5
1f1
  8
Layer_2
  10
44.898621
  20
86.6194
  0
VERTEX
  5
1f2
  8
Layer_2
  10
45.191895
  20
86.645279
  0
VERTEX
  5
1f3
  8
Layer_2
  10
45.528381
  20
86.666824
  0
VERTEX
  5
1f4
  8
Layer_2
  10
45.890625
  20
86.684097
  0
VERTEX
  5
1f5
  8
Layer_2
  10
46.270203
  20
86.697006
  0
VERTEX
  5
1f6
  8
Layer_2
  10
47.029358
  20
86.709976
  0
VERTEX
  5
1f7
  8
Layer_2
  10
47.391602
  20
86.705643
  0
VERTEX
  5
1f8
  8
Layer_2
  10
47.719421
  20
86.692703
  0
VERTEX
  5
1f9
  8
Layer_2
  10
48.297424
  20
86.649582
  0
VERTEX
  5
1fa
  8
Layer_2
  10
48.815002
  20
86.584885
  0
VERTEX
  5
1fb
  8
Layer_2
  10
49.323975
  20
86.490005
  0
VERTEX
  5
1fc
  8
Layer_2
  10
49.863098
  20
86.369217
  0
VERTEX
  5
1fd
  8
Layer_2
  10
50.449707
  20
86.209641
  0
VERTEX
  5
1fe
  8
Layer_2
  10
51.053528
  20
86.024155
  0
VERTEX
  5
1ff
  8
Layer_2
  10
51.678955
  20
85.808517
  0
VERTEX
  5
200
  8
Layer_2
  10
52.308655
  20
85.571274
  0
VERTEX
  5
201
  8
Layer_2
  10
52.968567
  20
85.295242
  0
VERTEX
  5
202
  8
Layer_2
  10
53.654358
  20
84.988998
  0
VERTEX
  5
203
  8
Layer_2
  10
54.322937
  20
84.669815
  0
VERTEX
  5
204
  8
Layer_2
  10
54.931091
  20
84.363602
  0
VERTEX
  5
205
  8
Layer_2
  10
55.470215
  20
84.070297
  0
VERTEX
  5
206
  8
Layer_2
  10
55.961975
  20
83.781296
  0
VERTEX
  5
207
  8
Layer_2
  10
56.414795
  20
83.492325
  0
VERTEX
  5
208
  8
Layer_2
  10
56.828857
  20
83.207687
  0
VERTEX
  5
209
  8
Layer_2
  10
57.195496
  20
82.91008
  0
VERTEX
  5
20a
  8
Layer_2
  10
57.510376
  20
82.608139
  0
VERTEX
  5
20b
  8
Layer_2
  10
57.812256
  20
82.327774
  0
VERTEX
  5
20c
  8
Layer_2
  10
58.135742
  20
82.1035
  0
VERTEX
  5
20d
  8
Layer_2
  10
58.510986
  20
81.93959
  0
VERTEX
  5
20e
  8
Layer_2
  10
58.916443
  20
81.827469
  0
VERTEX
  5
20f
  8
Layer_2
  10
59.291687
  20
81.749832
  0
VERTEX
  5
210
  8
Layer_2
  10
59.44696
  20
81.728226
  0
VERTEX
  5
211
  8
Layer_2
  10
59.576355
  20
81.715317
  0
VERTEX
  5
212
  8
Layer_2
  10
59.735962
  20
81.702347
  0
VERTEX
  5
213
  8
Layer_2
  10
59.813599
  20
81.71962
  0
VERTEX
  5
214
  8
Layer_2
  10
59.848083
  20
81.792953
  0
VERTEX
  5
215
  8
Layer_2
  10
59.955933
  20
82.202713
  0
VERTEX
  5
216
  8
Layer_2
  10
60.02063
  20
82.526199
  0
VERTEX
  5
217
  8
Layer_2
  10
60.046509
  20
82.715958
  0
VERTEX
  5
218
  8
Layer_2
  10
60.063721
  20
82.935959
  0
VERTEX
  5
219
  8
Layer_2
  10
60.07666
  20
83.177475
  0
VERTEX
  5
21a
  8
Layer_2
  10
60.07666
  20
83.453506
  0
VERTEX
  5
21b
  8
Layer_2
  10
60.068054
  20
83.776993
  0
VERTEX
  5
21c
  8
Layer_2
  10
60.046509
  20
84.152267
  0
VERTEX
  5
21d
  8
Layer_2
  10
60.016296
  20
84.566299
  0
VERTEX
  5
21e
  8
Layer_2
  10
59.835205
  20
86.571945
  0
VERTEX
  5
21f
  8
Layer_2
  10
59.783447
  20
87.223251
  0
VERTEX
  5
220
  8
Layer_2
  10
59.77478
  20
87.378525
  0
VERTEX
  5
221
  8
Layer_2
  10
59.757507
  20
87.538101
  0
VERTEX
  5
222
  8
Layer_2
  10
59.735962
  20
87.71492
  0
VERTEX
  5
223
  8
Layer_2
  10
59.70575
  20
87.930588
  0
VERTEX
  5
224
  8
Layer_2
  10
59.662659
  20
88.198013
  0
VERTEX
  5
225
  8
Layer_2
  10
59.520325
  20
88.961441
  0
VERTEX
  5
226
  8
Layer_2
  10
59.425415
  20
89.422958
  0
VERTEX
  5
227
  8
Layer_2
  10
59.330505
  20
89.901718
  0
VERTEX
  5
228
  8
Layer_2
  10
59.149353
  20
90.785904
  0
VERTEX
  5
229
  8
Layer_2
  10
59.045837
  20
91.281937
  0
VERTEX
  5
22a
  8
Layer_2
  10
59.024292
  20
91.398392
  0
VERTEX
  5
22b
  8
Layer_2
  10
59.106201
  20
91.704605
  0
VERTEX
  5
22c
  8
Layer_2
  10
59.239929
  20
91.75209
  0
VERTEX
  5
22d
  8
Layer_2
  10
59.313232
  20
91.782242
  0
VERTEX
  5
22e
  8
Layer_2
  10
59.408203
  20
91.816757
  0
VERTEX
  5
22f
  8
Layer_2
  10
59.54187
  20
91.851273
  0
VERTEX
  5
230
  8
Layer_2
  10
59.723022
  20
91.885788
  0
VERTEX
  5
231
  8
Layer_2
  10
59.960205
  20
91.91597
  0
VERTEX
  5
232
  8
Layer_2
  10
60.275146
  20
91.937546
  0
VERTEX
  5
233
  8
Layer_2
  10
60.671936
  20
91.954788
  0
VERTEX
  5
234
  8
Layer_2
  10
61.146362
  20
91.972031
  0
VERTEX
  5
235
  8
Layer_2
  10
62.267822
  20
91.99791
  0
VERTEX
  5
236
  8
Layer_2
  10
62.880249
  20
92.006546
  0
VERTEX
  5
237
  8
Layer_2
  10
63.514282
  20
92.006546
  0
VERTEX
  5
238
  8
Layer_2
  10
64.148376
  20
91.99791
  0
VERTEX
  5
239
  8
Layer_2
  10
64.773743
  20
91.98497
  0
VERTEX
  5
23a
  8
Layer_2
  10
66.01593
  20
91.928909
  0
VERTEX
  5
23b
  8
Layer_2
  10
67.305603
  20
91.84697
  0
VERTEX
  5
23c
  8
Layer_2
  10
70.070313
  20
91.644241
  0
VERTEX
  5
23d
  8
Layer_2
  10
70.825134
  20
91.592484
  0
VERTEX
  5
23e
  8
Layer_2
  10
72.446899
  20
91.488968
  0
VERTEX
  5
23f
  8
Layer_2
  10
74.111755
  20
91.376846
  0
VERTEX
  5
240
  8
Layer_2
  10
74.922668
  20
91.316452
  0
VERTEX
  5
241
  8
Layer_2
  10
75.694702
  20
91.251724
  0
VERTEX
  5
242
  8
Layer_2
  10
76.419312
  20
91.182724
  0
VERTEX
  5
243
  8
Layer_2
  10
77.7995
  20
91.018845
  0
VERTEX
  5
244
  8
Layer_2
  10
78.468079
  20
90.923935
  0
VERTEX
  5
245
  8
Layer_2
  10
79.110718
  20
90.829056
  0
VERTEX
  5
246
  8
Layer_2
  10
79.710266
  20
90.734146
  0
VERTEX
  5
247
  8
Layer_2
  10
80.258057
  20
90.6436
  0
VERTEX
  5
248
  8
Layer_2
  10
81.142212
  20
90.509872
  0
VERTEX
  5
249
  8
Layer_2
  10
81.45282
  20
90.479691
  0
VERTEX
  5
24a
  8
Layer_2
  10
81.681396
  20
90.479691
  0
VERTEX
  5
24b
  8
Layer_2
  10
81.840942
  20
90.496933
  0
VERTEX
  5
24c
  8
Layer_2
  10
81.944519
  20
90.518478
  0
VERTEX
  5
24d
  8
Layer_2
  10
82.017822
  20
90.531448
  0
VERTEX
  5
24e
  8
Layer_2
  10
82.06958
  20
90.522812
  0
VERTEX
  5
24f
  8
Layer_2
  10
82.121338
  20
90.479691
  0
VERTEX
  5
250
  8
Layer_2
  10
82.190369
  20
90.393417
  0
VERTEX
  5
251
  8
Layer_2
  10
82.255066
  20
90.255386
  0
VERTEX
  5
252
  8
Layer_2
  10
82.293884
  20
90.078568
  0
VERTEX
  5
253
  8
Layer_2
  10
82.319763
  20
89.871506
  0
VERTEX
  5
254
  8
Layer_2
  10
82.358582
  20
89.146896
  0
VERTEX
  5
255
  8
Layer_2
  10
82.423279
  20
88.6595
  0
VERTEX
  5
256
  8
Layer_2
  10
82.526794
  20
88.19371
  0
VERTEX
  5
257
  8
Layer_2
  10
82.647583
  20
87.719254
  0
VERTEX
  5
258
  8
Layer_2
  10
82.811401
  20
87.227524
  0
VERTEX
  5
259
  8
Layer_2
  10
82.923584
  20
86.973068
  0
VERTEX
  5
25a
  8
Layer_2
  10
83.061646
  20
86.709976
  0
VERTEX
  5
25b
  8
Layer_2
  10
83.229858
  20
86.429611
  0
VERTEX
  5
25c
  8
Layer_2
  10
83.428223
  20
86.12767
  0
VERTEX
  5
25d
  8
Layer_2
  10
83.881165
  20
85.502274
  0
VERTEX
  5
25e
  8
Layer_2
  10
84.372864
  20
84.902756
  0
VERTEX
  5
25f
  8
Layer_2
  10
84.61438
  20
84.631027
  0
VERTEX
  5
260
  8
Layer_2
  10
84.842957
  20
84.398087
  0
VERTEX
  5
261
  8
Layer_2
  10
85.062927
  20
84.199692
  0
VERTEX
  5
262
  8
Layer_2
  10
85.274292
  20
84.022842
  0
VERTEX
  5
263
  8
Layer_2
  10
85.701294
  20
83.729568
  0
VERTEX
  5
264
  8
Layer_2
  10
86.136902
  20
83.492325
  0
VERTEX
  5
265
  8
Layer_2
  10
86.589783
  20
83.285324
  0
VERTEX
  5
266
  8
Layer_2
  10
87.081482
  20
83.117081
  0
VERTEX
  5
267
  8
Layer_2
  10
87.590454
  20
82.996323
  0
VERTEX
  5
268
  8
Layer_2
  10
88.112366
  20
82.89711
  0
VERTEX
  5
269
  8
Layer_2
  10
88.617004
  20
82.793594
  0
VERTEX
  5
26a
  8
Layer_2
  10
88.854187
  20
82.7332
  0
VERTEX
  5
26b
  8
Layer_2
  10
89.496826
  20
82.526199
  0
VERTEX
  5
26c
  8
Layer_2
  10
89.716858
  20
82.465805
  0
VERTEX
  5
26d
  8
Layer_2
  10
89.962708
  20
82.41835
  0
VERTEX
  5
26e
  8
Layer_2
  10
90.23877
  20
82.388168
  0
VERTEX
  5
26f
  8
Layer_2
  10
90.553589
  20
82.383835
  0
VERTEX
  5
270
  8
Layer_2
  10
91.282532
  20
82.43129
  0
VERTEX
  5
271
  8
Layer_2
  10
92.110657
  20
82.539108
  0
VERTEX
  5
272
  8
Layer_2
  10
93.029358
  20
82.703018
  0
VERTEX
  5
273
  8
Layer_2
  10
94.038635
  20
82.905746
  0
VERTEX
  5
274
  8
Layer_2
  10
94.586426
  20
83.022171
  0
VERTEX
  5
275
  8
Layer_2
  10
95.177307
  20
83.151596
  0
VERTEX
  5
276
  8
Layer_2
  10
95.802795
  20
83.29393
  0
VERTEX
  5
277
  8
Layer_2
  10
96.441101
  20
83.444901
  0
VERTEX
  5
278
  8
Layer_2
  10
97.735046
  20
83.785629
  0
VERTEX
  5
279
  8
Layer_2
  10
98.360474
  20
83.975418
  0
VERTEX
  5
27a
  8
Layer_2
  10
98.959961
  20
84.173813
  0
VERTEX
  5
27b
  8
Layer_2
  10
99.524963
  20
84.376541
  0
VERTEX
  5
27c
  8
Layer_2
  10
100.05988
  20
84.583572
  0
VERTEX
  5
27d
  8
Layer_2
  10
101.0993
  20
85.027817
  0
VERTEX
  5
27e
  8
Layer_2
  10
101.62122
  20
85.273666
  0
VERTEX
  5
27f
  8
Layer_2
  10
102.1604
  20
85.545425
  0
VERTEX
  5
280
  8
Layer_2
  10
102.72107
  20
85.847336
  0
VERTEX
  5
281
  8
Layer_2
  10
103.32495
  20
86.183762
  0
VERTEX
  5
282
  8
Layer_2
  10
104.6059
  20
86.929916
  0
VERTEX
  5
283
  8
Layer_2
  10
105.27448
  20
87.339676
  0
VERTEX
  5
284
  8
Layer_2
  10
105.96454
  20
87.771011
  0
VERTEX
  5
285
  8
Layer_2
  10
106.67194
  20
88.236832
  0
VERTEX
  5
286
  8
Layer_2
  10
107.40515
  20
88.74147
  0
VERTEX
  5
287
  8
Layer_2
  10
108.16431
  20
89.284927
  0
VERTEX
  5
288
  8
Layer_2
  10
108.94934
  20
89.871506
  0
VERTEX
  5
289
  8
Layer_2
  10
109.36768
  20
90.194992
  0
VERTEX
  5
28a
  8
Layer_2
  10
109.81195
  20
90.548691
  0
VERTEX
  5
28b
  8
Layer_2
  10
110.28204
  20
90.932571
  0
VERTEX
  5
28c
  8
Layer_2
  10
110.7738
  20
91.337997
  0
VERTEX
  5
28d
  8
Layer_2
  10
111.78729
  20
92.187698
  0
VERTEX
  5
28e
  8
Layer_2
  10
112.8139
  20
93.063278
  0
VERTEX
  5
28f
  8
Layer_2
  10
113.80164
  20
93.921585
  0
VERTEX
  5
290
  8
Layer_2
  10
114.2674
  20
94.331345
  0
VERTEX
  5
291
  8
Layer_2
  10
114.71167
  20
94.719559
  0
VERTEX
  5
292
  8
Layer_2
  10
115.83313
  20
95.711563
  0
VERTEX
  5
293
  8
Layer_2
  10
116.35931
  20
96.181686
  0
VERTEX
  5
294
  8
Layer_2
  10
116.86395
  20
96.65184
  0
VERTEX
  5
295
  8
Layer_2
  10
116.97174
  20
96.755356
  0
VERTEX
  5
296
  8
Layer_2
  10
117.05798
  20
96.845932
  0
VERTEX
  5
297
  8
Layer_2
  10
117.16583
  20
96.975327
  0
VERTEX
  5
298
  8
Layer_2
  10
117.21332
  20
97.0616
  0
VERTEX
  5
299
  8
Layer_2
  10
117.23059
  20
97.126266
  0
VERTEX
  5
29a
  8
Layer_2
  10
117.23926
  20
97.203903
  0
VERTEX
  5
29b
  8
Layer_2
  10
117.26935
  20
97.307449
  0
VERTEX
  5
29c
  8
Layer_2
  10
117.29523
  20
97.43251
  0
VERTEX
  5
29d
  8
Layer_2
  10
117.29095
  20
97.540359
  0
VERTEX
  5
29e
  8
Layer_2
  10
117.2608
  20
97.643875
  0
VERTEX
  5
29f
  8
Layer_2
  10
117.20471
  20
97.734451
  0
VERTEX
  5
2a0
  8
Layer_2
  10
117.04517
  20
97.894028
  0
VERTEX
  5
2a1
  8
Layer_2
  10
116.85101
  20
98.032059
  0
VERTEX
  5
2a2
  8
Layer_2
  10
116.63965
  20
98.14418
  0
VERTEX
  5
2a3
  8
Layer_2
  10
116.38092
  20
98.230453
  0
VERTEX
  5
2a4
  8
Layer_2
  10
116.07037
  20
98.303787
  0
VERTEX
  5
2a5
  8
Layer_2
  10
115.68646
  20
98.381424
  0
VERTEX
  5
2a6
  8
Layer_2
  10
115.20343
  20
98.472
  0
VERTEX
  5
2a7
  8
Layer_2
  10
114.63403
  20
98.562576
  0
VERTEX
  5
2a8
  8
Layer_2
  10
113.4436
  20
98.730789
  0
VERTEX
  5
2a9
  8
Layer_2
  10
112.83984
  20
98.799789
  0
VERTEX
  5
2aa
  8
Layer_2
  10
111.90381
  20
98.890366
  0
VERTEX
  5
2ab
  8
Layer_2
  10
111.62347
  20
98.916245
  0
VERTEX
  5
2ac
  8
Layer_2
  10
111.37756
  20
98.946457
  0
VERTEX
  5
2ad
  8
Layer_2
  10
111.17487
  20
98.976639
  0
VERTEX
  5
2ae
  8
Layer_2
  10
110.90308
  20
99.028397
  0
VERTEX
  5
2af
  8
Layer_2
  10
110.82117
  20
99.045639
  0
VERTEX
  5
2b0
  8
Layer_2
  10
110.76514
  20
99.071518
  0
VERTEX
  5
2b1
  8
Layer_2
  10
110.68323
  20
99.131912
  0
VERTEX
  5
2b2
  8
Layer_2
  10
110.59686
  20
99.239761
  0
VERTEX
  5
2b3
  8
Layer_2
  10
110.49335
  20
99.412247
  0
VERTEX
  5
2b4
  8
Layer_2
  10
110.4071
  20
99.632248
  0
VERTEX
  5
2b5
  8
Layer_2
  10
110.33813
  20
99.869461
  0
VERTEX
  5
2b6
  8
Layer_2
  10
110.29065
  20
100.11101
  0
VERTEX
  5
2b7
  8
Layer_2
  10
110.2561
  20
100.35686
  0
VERTEX
  5
2b8
  8
Layer_2
  10
110.23462
  20
100.61565
  0
VERTEX
  5
2b9
  8
Layer_2
  10
110.25189
  20
100.8701
  0
VERTEX
  5
2ba
  8
Layer_2
  10
110.34247
  20
101.10735
  0
VERTEX
  5
2bb
  8
Layer_2
  10
110.41577
  20
101.20222
  0
VERTEX
  5
2bc
  8
Layer_2
  10
110.50635
  20
101.27122
  0
VERTEX
  5
2bd
  8
Layer_2
  10
110.73926
  20
101.38771
  0
VERTEX
  5
2be
  8
Layer_2
  10
110.87299
  20
101.46101
  0
VERTEX
  5
2bf
  8
Layer_2
  10
111.01959
  20
101.55592
  0
VERTEX
  5
2c0
  8
Layer_2
  10
111.17487
  20
101.69395
  0
VERTEX
  5
2c1
  8
Layer_2
  10
111.33875
  20
101.87941
  0
VERTEX
  5
2c2
  8
Layer_2
  10
111.51996
  20
102.11662
  0
VERTEX
  5
2c3
  8
Layer_2
  10
111.71832
  20
102.38835
  0
VERTEX
  5
2c4
  8
Layer_2
  10
111.93402
  20
102.69029
  0
VERTEX
  5
2c5
  8
Layer_2
  10
112.15833
  20
103.02242
  0
VERTEX
  5
2c6
  8
Layer_2
  10
112.61121
  20
103.75133
  0
VERTEX
  5
2c7
  8
Layer_2
  10
113.02954
  20
104.55357
  0
VERTEX
  5
2c8
  8
Layer_2
  10
113.22363
  20
104.98921
  0
VERTEX
  5
2c9
  8
Layer_2
  10
113.41339
  20
105.46797
  0
VERTEX
  5
2ca
  8
Layer_2
  10
113.59882
  20
105.96831
  0
VERTEX
  5
2cb
  8
Layer_2
  10
113.78436
  20
106.48589
  0
VERTEX
  5
2cc
  8
Layer_2
  10
114.12946
  20
107.52534
  0
VERTEX
  5
2cd
  8
Layer_2
  10
114.70734
  20
109.31099
  0
VERTEX
  5
2ce
  8
Layer_2
  10
114.93597
  20
110.05721
  0
VERTEX
  5
2cf
  8
Layer_2
  10
115.03949
  20
110.43245
  0
VERTEX
  5
2d0
  8
Layer_2
  10
115.14301
  20
110.82924
  0
VERTEX
  5
2d1
  8
Layer_2
  10
115.24219
  20
111.25624
  0
VERTEX
  5
2d2
  8
Layer_2
  10
115.3457
  20
111.7307
  0
VERTEX
  5
2d3
  8
Layer_2
  10
115.44922
  20
112.26122
  0
VERTEX
  5
2d4
  8
Layer_2
  10
115.55273
  20
112.83058
  0
VERTEX
  5
2d5
  8
Layer_2
  10
115.65192
  20
113.4344
  0
VERTEX
  5
2d6
  8
Layer_2
  10
115.75122
  20
114.05983
  0
VERTEX
  5
2d7
  8
Layer_2
  10
115.93231
  20
115.32356
  0
VERTEX
  5
2d8
  8
Layer_2
  10
116.09186
  20
116.52696
  0
VERTEX
  5
2d9
  8
Layer_2
  10
116.22992
  20
117.66563
  0
VERTEX
  5
2da
  8
Layer_2
  10
116.34637
  20
118.77843
  0
VERTEX
  5
2db
  8
Layer_2
  10
116.43695
  20
119.85674
  0
VERTEX
  5
2dc
  8
Layer_2
  10
116.50171
  20
120.87462
  0
VERTEX
  5
2dd
  8
Layer_2
  10
116.52753
  20
121.84511
  0
VERTEX
  5
2de
  8
Layer_2
  10
116.51886
  20
122.77675
  0
VERTEX
  5
2df
  8
Layer_2
  10
116.4715
  20
124.4287
  0
VERTEX
  5
2e0
  8
Layer_2
  10
116.46283
  20
125.13606
  0
VERTEX
  5
2e1
  8
Layer_2
  10
116.43695
  20
126.32219
  0
VERTEX
  5
2e2
  8
Layer_2
  10
116.42401
  20
126.56371
  0
VERTEX
  5
2e3
  8
Layer_2
  10
116.41534
  20
126.77504
  0
VERTEX
  5
2e4
  8
Layer_2
  10
116.4024
  20
126.95622
  0
VERTEX
  5
2e5
  8
Layer_2
  10
116.38953
  20
127.09856
  0
VERTEX
  5
2e6
  8
Layer_2
  10
116.37659
  20
127.21501
  0
VERTEX
  5
2e7
  8
Layer_2
  10
116.3291
  20
127.46516
  0
VERTEX
  5
2e8
  8
Layer_2
  10
116.29034
  20
127.62477
  0
VERTEX
  5
2e9
  8
Layer_2
  10
116.19104
  20
127.95689
  0
VERTEX
  5
2ea
  8
Layer_2
  10
116.13934
  20
128.09059
  0
VERTEX
  5
2eb
  8
Layer_2
  10
116.1048
  20
128.18547
  0
VERTEX
  5
2ec
  8
Layer_2
  10
116.36365
  20
128.40544
  0
VERTEX
  5
2ed
  8
Layer_2
  10
116.52319
  20
128.48308
  0
VERTEX
  5
2ee
  8
Layer_2
  10
116.73022
  20
128.57796
  0
VERTEX
  5
2ef
  8
Layer_2
  10
116.97607
  20
128.69441
  0
VERTEX
  5
2f0
  8
Layer_2
  10
117.2522
  20
128.82814
  0
VERTEX
  5
2f1
  8
Layer_2
  10
117.86462
  20
129.13869
  0
VERTEX
  5
2f2
  8
Layer_2
  10
118.48999
  20
129.50529
  0
VERTEX
  5
2f3
  8
Layer_2
  10
118.8092
  20
129.71233
  0
VERTEX
  5
2f4
  8
Layer_2
  10
119.14563
  20
129.93663
  0
VERTEX
  5
2f5
  8
Layer_2
  10
119.85724
  20
130.43263
  0
VERTEX
  5
2f6
  8
Layer_2
  10
120.57764
  20
130.98039
  0
VERTEX
  5
2f7
  8
Layer_2
  10
121.2547
  20
131.567
  0
VERTEX
  5
2f8
  8
Layer_2
  10
121.87158
  20
132.15791
  0
VERTEX
  5
2f9
  8
Layer_2
  10
122.45813
  20
132.7747
  0
VERTEX
  5
2fa
  8
Layer_2
  10
122.74286
  20
133.1068
  0
VERTEX
  5
2fb
  8
Layer_2
  10
123.0318
  20
133.47343
  0
VERTEX
  5
2fc
  8
Layer_2
  10
123.32074
  20
133.87886
  0
VERTEX
  5
2fd
  8
Layer_2
  10
123.61414
  20
134.33174
  0
VERTEX
  5
2fe
  8
Layer_2
  10
123.92035
  20
134.84071
  0
VERTEX
  5
2ff
  8
Layer_2
  10
124.23517
  20
135.39711
  0
VERTEX
  5
300
  8
Layer_2
  10
124.55865
  20
135.99232
  0
VERTEX
  5
301
  8
Layer_2
  10
124.88214
  20
136.61772
  0
VERTEX
  5
302
  8
Layer_2
  10
125.4903
  20
137.92464
  0
VERTEX
  5
303
  8
Layer_2
  10
125.76208
  20
138.58885
  0
VERTEX
  5
304
  8
Layer_2
  10
126.00787
  20
139.24879
  0
VERTEX
  5
305
  8
Layer_2
  10
126.21918
  20
139.92595
  0
VERTEX
  5
306
  8
Layer_2
  10
126.41339
  20
140.64626
  0
VERTEX
  5
307
  8
Layer_2
  10
126.74115
  20
142.12566
  0
VERTEX
  5
308
  8
Layer_2
  10
126.87915
  20
142.8589
  0
VERTEX
  5
309
  8
Layer_2
  10
127.31476
  20
145.30879
  0
VERTEX
  5
30a
  8
Layer_2
  10
127.39679
  20
145.75734
  0
VERTEX
  5
30b
  8
Layer_2
  10
127.51312
  20
146.53804
  0
VERTEX
  5
30c
  8
Layer_2
  10
127.58221
  20
147.24971
  0
VERTEX
  5
30d
  8
Layer_2
  10
127.60382
  20
147.61632
  0
VERTEX
  5
30e
  8
Layer_2
  10
127.61664
  20
148.01317
  0
VERTEX
  5
30f
  8
Layer_2
  10
127.61243
  20
148.84129
  0
VERTEX
  5
310
  8
Layer_2
  10
127.56061
  20
149.68236
  0
VERTEX
  5
311
  8
Layer_2
  10
127.4787
  20
150.53636
  0
VERTEX
  5
312
  8
Layer_2
  10
127.27167
  20
152.36513
  0
VERTEX
  5
313
  8
Layer_2
  10
127.13794
  20
153.35716
  0
VERTEX
  5
314
  8
Layer_2
  10
127.06464
  20
153.84886
  0
VERTEX
  5
315
  8
Layer_2
  10
126.99127
  20
154.31902
  0
VERTEX
  5
316
  8
Layer_2
  10
126.91364
  20
154.75462
  0
VERTEX
  5
317
  8
Layer_2
  10
126.83606
  20
155.15578
  0
VERTEX
  5
318
  8
Layer_2
  10
126.75836
  20
155.50084
  0
VERTEX
  5
319
  8
Layer_2
  10
126.68073
  20
155.78548
  0
VERTEX
  5
31a
  8
Layer_2
  10
126.59882
  20
156.03996
  0
VERTEX
  5
31b
  8
Layer_2
  10
126.51691
  20
156.27287
  0
VERTEX
  5
31c
  8
Layer_2
  10
126.33563
  20
156.76891
  0
VERTEX
  5
31d
  8
Layer_2
  10
126.24078
  20
157.07082
  0
VERTEX
  5
31e
  8
Layer_2
  10
126.13727
  20
157.42882
  0
VERTEX
  5
31f
  8
Layer_2
  10
126.02942
  20
157.84288
  0
VERTEX
  5
320
  8
Layer_2
  10
125.9259
  20
158.28282
  0
VERTEX
  5
321
  8
Layer_2
  10
125.81812
  20
158.75294
  0
VERTEX
  5
322
  8
Layer_2
  10
125.70593
  20
159.25331
  0
VERTEX
  5
323
  8
Layer_2
  10
125.4472
  20
160.32295
  0
VERTEX
  5
324
  8
Layer_2
  10
125.11511
  20
161.47456
  0
VERTEX
  5
325
  8
Layer_2
  10
124.91241
  20
162.10429
  0
VERTEX
  5
326
  8
Layer_2
  10
124.67517
  20
162.79008
  0
VERTEX
  5
327
  8
Layer_2
  10
124.42065
  20
163.51039
  0
VERTEX
  5
328
  8
Layer_2
  10
124.15326
  20
164.24794
  0
VERTEX
  5
329
  8
Layer_2
  10
123.88147
  20
164.98119
  0
VERTEX
  5
32a
  8
Layer_2
  10
123.61414
  20
165.69286
  0
VERTEX
  5
32b
  8
Layer_2
  10
123.13965
  20
166.96523
  0
VERTEX
  5
32c
  8
Layer_2
  10
122.93695
  20
167.50438
  0
VERTEX
  5
32d
  8
Layer_2
  10
122.75146
  20
167.98747
  0
VERTEX
  5
32e
  8
Layer_2
  10
122.57458
  20
168.43605
  0
VERTEX
  5
32f
  8
Layer_2
  10
122.07861
  20
169.68254
  0
VERTEX
  5
330
  8
Layer_2
  10
121.91034
  20
170.11388
  0
VERTEX
  5
331
  8
Layer_2
  10
121.73352
  20
170.57539
  0
VERTEX
  5
332
  8
Layer_2
  10
120.95282
  20
172.67159
  0
VERTEX
  5
333
  8
Layer_2
  10
120.57764
  20
173.72832
  0
VERTEX
  5
334
  8
Layer_2
  10
120.40503
  20
174.22862
  0
VERTEX
  5
335
  8
Layer_2
  10
120.24982
  20
174.69447
  0
VERTEX
  5
336
  8
Layer_2
  10
120.10315
  20
175.12148
  0
VERTEX
  5
337
  8
Layer_2
  10
119.68475
  20
176.22133
  0
VERTEX
  5
338
  8
Layer_2
  10
119.57263
  20
176.57069
  0
VERTEX
  5
339
  8
Layer_2
  10
119.48639
  20
176.933
  0
VERTEX
  5
33a
  8
Layer_2
  10
119.43457
  20
177.31685
  0
VERTEX
  5
33b
  8
Layer_2
  10
119.42163
  20
177.73524
  0
VERTEX
  5
33c
  8
Layer_2
  10
119.46045
  20
178.214
  0
VERTEX
  5
33d
  8
Layer_2
  10
119.55536
  20
178.74883
  0
VERTEX
  5
33e
  8
Layer_2
  10
119.68475
  20
179.31819
  0
VERTEX
  5
33f
  8
Layer_2
  10
119.84009
  20
179.89183
  0
VERTEX
  5
340
  8
Layer_2
  10
119.99963
  20
180.44823
  0
VERTEX
  5
341
  8
Layer_2
  10
120.15497
  20
180.9615
  0
VERTEX
  5
342
  8
Layer_2
  10
120.34039
  20
181.60414
  0
VERTEX
  5
343
  8
Layer_2
  10
120.45251
  20
182.02687
  0
VERTEX
  5
344
  8
Layer_2
  10
120.50421
  20
182.20802
  0
VERTEX
  5
345
  8
Layer_2
  10
120.57764
  20
182.40211
  0
VERTEX
  5
346
  8
Layer_2
  10
120.59924
  20
182.44954
  0
VERTEX
  5
347
  8
Layer_2
  10
120.60773
  20
182.48405
  0
VERTEX
  5
348
  8
Layer_2
  10
120.61206
  20
182.52718
  0
VERTEX
  5
349
  8
Layer_2
  10
120.60352
  20
182.59621
  0
VERTEX
  5
34a
  8
Layer_2
  10
120.55603
  20
182.76012
  0
VERTEX
  5
34b
  8
Layer_2
  10
120.46118
  20
182.91106
  0
VERTEX
  5
34c
  8
Layer_2
  10
120.34473
  20
183.03615
  0
VERTEX
  5
34d
  8
Layer_2
  10
120.2196
  20
183.13103
  0
VERTEX
  5
34e
  8
Layer_2
  10
120.09882
  20
183.18712
  0
VERTEX
  5
34f
  8
Layer_2
  10
119.96942
  20
183.20866
  0
VERTEX
  5
350
  8
Layer_2
  10
119.66748
  20
183.20436
  0
VERTEX
  5
351
  8
Layer_2
  10
119.495
  20
183.20003
  0
VERTEX
  5
352
  8
Layer_2
  10
119.30957
  20
183.18279
  0
VERTEX
  5
353
  8
Layer_2
  10
119.09814
  20
183.1526
  0
VERTEX
  5
354
  8
Layer_2
  10
118.83508
  20
183.10515
  0
VERTEX
  5
355
  8
Layer_2
  10
118.5116
  20
183.02751
  0
VERTEX
  5
356
  8
Layer_2
  10
118.13629
  20
182.924
  0
VERTEX
  5
357
  8
Layer_2
  10
117.73523
  20
182.82048
  0
VERTEX
  5
358
  8
Layer_2
  10
117.34277
  20
182.75148
  0
VERTEX
  5
359
  8
Layer_2
  10
116.94153
  20
182.71696
  0
VERTEX
  5
35a
  8
Layer_2
  10
116.52753
  20
182.70403
  0
VERTEX
  5
35b
  8
Layer_2
  10
116.1264
  20
182.70833
  0
VERTEX
  5
35c
  8
Layer_2
  10
115.77271
  20
182.73851
  0
VERTEX
  5
35d
  8
Layer_2
  10
115.48804
  20
182.77736
  0
VERTEX
  5
35e
  8
Layer_2
  10
115.25079
  20
182.83342
  0
VERTEX
  5
35f
  8
Layer_2
  10
115.02655
  20
182.91969
  0
VERTEX
  5
360
  8
Layer_2
  10
114.78076
  20
183.05769
  0
VERTEX
  5
361
  8
Layer_2
  10
114.50464
  20
183.26476
  0
VERTEX
  5
362
  8
Layer_2
  10
114.22003
  20
183.52351
  0
VERTEX
  5
363
  8
Layer_2
  10
113.93097
  20
183.81682
  0
VERTEX
  5
364
  8
Layer_2
  10
113.66357
  20
184.11443
  0
VERTEX
  5
365
  8
Layer_2
  10
113.42206
  20
184.39912
  0
VERTEX
  5
366
  8
Layer_2
  10
113.19342
  20
184.68376
  0
VERTEX
  5
367
  8
Layer_2
  10
112.96912
  20
185.01588
  0
VERTEX
  5
368
  8
Layer_2
  10
112.84833
  20
185.21428
  0
VERTEX
  5
369
  8
Layer_2
  10
112.72333
  20
185.44289
  0
VERTEX
  5
36a
  8
Layer_2
  10
112.48608
  20
185.97774
  0
VERTEX
  5
36b
  8
Layer_2
  10
112.25751
  20
186.59019
  0
VERTEX
  5
36c
  8
Layer_2
  10
112.12378
  20
186.92662
  0
VERTEX
  5
36d
  8
Layer_2
  10
111.97284
  20
187.27599
  0
VERTEX
  5
36e
  8
Layer_2
  10
111.79596
  20
187.63832
  0
VERTEX
  5
36f
  8
Layer_2
  10
111.58032
  20
188.01357
  0
VERTEX
  5
370
  8
Layer_2
  10
111.32159
  20
188.41899
  0
VERTEX
  5
371
  8
Layer_2
  10
111.0282
  20
188.85893
  0
VERTEX
  5
372
  8
Layer_2
  10
110.70038
  20
189.32045
  0
VERTEX
  5
373
  8
Layer_2
  10
110.35541
  20
189.79054
  0
VERTEX
  5
374
  8
Layer_2
  10
109.64368
  20
190.72655
  0
VERTEX
  5
375
  8
Layer_2
  10
109.29858
  20
191.16649
  0
VERTEX
  5
376
  8
Layer_2
  10
108.9751
  20
191.56758
  0
VERTEX
  5
377
  8
Layer_2
  10
108.35406
  20
192.29222
  0
VERTEX
  5
378
  8
Layer_2
  10
107.74164
  20
192.94353
  0
VERTEX
  5
379
  8
Layer_2
  10
107.15063
  20
193.55162
  0
VERTEX
  5
37a
  8
Layer_2
  10
106.5899
  20
194.13823
  0
VERTEX
  5
37b
  8
Layer_2
  10
106.07239
  20
194.7076
  0
VERTEX
  5
37c
  8
Layer_2
  10
105.58936
  20
195.25105
  0
VERTEX
  5
37d
  8
Layer_2
  10
105.11487
  20
195.7643
  0
VERTEX
  5
37e
  8
Layer_2
  10
104.64044
  20
196.24306
  0
VERTEX
  5
37f
  8
Layer_2
  10
104.15302
  20
196.683
  0
VERTEX
  5
380
  8
Layer_2
  10
103.66998
  20
197.07985
  0
VERTEX
  5
381
  8
Layer_2
  10
102.69519
  20
197.83897
  0
VERTEX
  5
382
  8
Layer_2
  10
102.18622
  20
198.22716
  0
VERTEX
  5
383
  8
Layer_2
  10
101.66437
  20
198.61961
  0
VERTEX
  5
384
  8
Layer_2
  10
101.15106
  20
198.98628
  0
VERTEX
  5
385
  8
Layer_2
  10
100.6723
  20
199.31834
  0
VERTEX
  5
386
  8
Layer_2
  10
100.21515
  20
199.59441
  0
VERTEX
  5
387
  8
Layer_2
  10
99.77948
  20
199.83595
  0
VERTEX
  5
388
  8
Layer_2
  10
99.378357
  20
200.05595
  0
VERTEX
  5
389
  8
Layer_2
  10
99.037659
  20
200.28023
  0
VERTEX
  5
38a
  8
Layer_2
  10
98.752991
  20
200.52605
  0
VERTEX
  5
38b
  8
Layer_2
  10
98.52002
  20
200.7762
  0
VERTEX
  5
38c
  8
Layer_2
  10
98.343201
  20
201.00481
  0
VERTEX
  5
38d
  8
Layer_2
  10
98.226746
  20
201.19463
  0
VERTEX
  5
38e
  8
Layer_2
  10
98.170715
  20
201.26793
  0
VERTEX
  5
38f
  8
Layer_2
  10
98.101685
  20
201.32829
  0
VERTEX
  5
390
  8
Layer_2
  10
98.032654
  20
201.38005
  0
VERTEX
  5
391
  8
Layer_2
  10
97.985229
  20
201.42317
  0
VERTEX
  5
392
  8
Layer_2
  10
97.980896
  20
201.46205
  0
VERTEX
  5
393
  8
Layer_2
  10
98.032654
  20
201.4922
  0
VERTEX
  5
394
  8
Layer_2
  10
98.166382
  20
201.52669
  0
VERTEX
  5
395
  8
Layer_2
  10
98.394958
  20
201.55693
  0
VERTEX
  5
396
  8
Layer_2
  10
98.752991
  20
201.58708
  0
VERTEX
  5
397
  8
Layer_2
  10
98.977234
  20
201.60005
  0
VERTEX
  5
398
  8
Layer_2
  10
99.788147
  20
201.63026
  0
VERTEX
  5
399
  8
Layer_2
  10
100.40491
  20
201.65178
  0
VERTEX
  5
39a
  8
Layer_2
  10
101.67731
  20
201.67769
  0
VERTEX
  5
39b
  8
Layer_2
  10
102.79443
  20
201.6949
  0
VERTEX
  5
39c
  8
Layer_2
  10
103.25159
  20
201.69923
  0
VERTEX
  5
39d
  8
Layer_2
  10
103.67432
  20
201.6949
  0
VERTEX
  5
39e
  8
Layer_2
  10
105.20972
  20
201.66905
  0
VERTEX
  5
39f
  8
Layer_2
  10
105.60663
  20
201.66475
  0
VERTEX
  5
3a0
  8
Layer_2
  10
106.02063
  20
201.66905
  0
VERTEX
  5
3a1
  8
Layer_2
  10
106.4649
  20
201.67769
  0
VERTEX
  5
3a2
  8
Layer_2
  10
106.92639
  20
201.6949
  0
VERTEX
  5
3a3
  8
Layer_2
  10
107.87537
  20
201.73378
  0
VERTEX
  5
3a4
  8
Layer_2
  10
109.25555
  20
201.78554
  0
VERTEX
  5
3a5
  8
Layer_2
  10
109.67389
  20
201.79411
  0
VERTEX
  5
3a6
  8
Layer_2
  10
110.45459
  20
201.79411
  0
VERTEX
  5
3a7
  8
Layer_2
  10
111.18353
  20
201.7812
  0
VERTEX
  5
3a8
  8
Layer_2
  10
111.84778
  20
201.76393
  0
VERTEX
  5
3a9
  8
Layer_2
  10
112.44727
  20
201.76826
  0
VERTEX
  5
3aa
  8
Layer_2
  10
112.96478
  20
201.7812
  0
VERTEX
  5
3ab
  8
Layer_2
  10
113.41339
  20
201.79842
  0
VERTEX
  5
3ac
  8
Layer_2
  10
113.80164
  20
201.8373
  0
VERTEX
  5
3ad
  8
Layer_2
  10
114.138
  20
201.9149
  0
VERTEX
  5
3ae
  8
Layer_2
  10
114.41406
  20
202.03136
  0
VERTEX
  5
3af
  8
Layer_2
  10
114.62976
  20
202.1823
  0
VERTEX
  5
3b0
  8
Layer_2
  10
114.80652
  20
202.36348
  0
VERTEX
  5
3b1
  8
Layer_2
  10
114.96185
  20
202.57915
  0
VERTEX
  5
3b2
  8
Layer_2
  10
115.09991
  20
202.84654
  0
VERTEX
  5
3b3
  8
Layer_2
  10
115.20776
  20
203.16139
  0
VERTEX
  5
3b4
  8
Layer_2
  10
115.29401
  20
203.48921
  0
VERTEX
  5
3b5
  8
Layer_2
  10
115.35864
  20
203.79112
  0
VERTEX
  5
3b6
  8
Layer_2
  10
115.44489
  20
204.326
  0
VERTEX
  5
3b7
  8
Layer_2
  10
115.45782
  20
204.58046
  0
VERTEX
  5
3b8
  8
Layer_2
  10
115.44489
  20
204.82198
  0
VERTEX
  5
3b9
  8
Layer_2
  10
115.41046
  20
205.05922
  0
VERTEX
  5
3ba
  8
Layer_2
  10
115.35864
  20
205.28783
  0
VERTEX
  5
3bb
  8
Layer_2
  10
115.2724
  20
205.5078
  0
VERTEX
  5
3bc
  8
Layer_2
  10
115.15594
  20
205.71483
  0
VERTEX
  5
3bd
  8
Layer_2
  10
115.01788
  20
205.91322
  0
VERTEX
  5
3be
  8
Layer_2
  10
114.86267
  20
206.10301
  0
VERTEX
  5
3bf
  8
Layer_2
  10
114.65131
  20
206.2755
  0
VERTEX
  5
3c0
  8
Layer_2
  10
114.50897
  20
206.34886
  0
VERTEX
  5
3c1
  8
Layer_2
  10
114.33649
  20
206.41356
  0
VERTEX
  5
3c2
  8
Layer_2
  10
114.13379
  20
206.46962
  0
VERTEX
  5
3c3
  8
Layer_2
  10
113.89655
  20
206.52138
  0
VERTEX
  5
3c4
  8
Layer_2
  10
113.35736
  20
206.59898
  0
VERTEX
  5
3c5
  8
Layer_2
  10
112.76208
  20
206.64644
  0
VERTEX
  5
3c6
  8
Layer_2
  10
112.15399
  20
206.66371
  0
VERTEX
  5
3c7
  8
Layer_2
  10
111.52429
  20
206.64217
  0
VERTEX
  5
3c8
  8
Layer_2
  10
110.86005
  20
206.58177
  0
VERTEX
  5
3c9
  8
Layer_2
  10
110.18713
  20
206.5041
  0
VERTEX
  5
3ca
  8
Layer_2
  10
109.52722
  20
206.43077
  0
VERTEX
  5
3cb
  8
Layer_2
  10
108.26349
  20
206.30141
  0
VERTEX
  5
3cc
  8
Layer_2
  10
107.02985
  20
206.14183
  0
VERTEX
  5
3cd
  8
Layer_2
  10
105.83093
  20
205.93913
  0
VERTEX
  5
3ce
  8
Layer_2
  10
104.11414
  20
205.61995
  0
VERTEX
  5
3cf
  8
Layer_2
  10
103.57941
  20
205.52501
  0
VERTEX
  5
3d0
  8
Layer_2
  10
103.03595
  20
205.42149
  0
VERTEX
  5
3d1
  8
Layer_2
  10
102.45795
  20
205.30074
  0
VERTEX
  5
3d2
  8
Layer_2
  10
102.13879
  20
205.23177
  0
VERTEX
  5
3d3
  8
Layer_2
  10
101.0993
  20
204.98155
  0
VERTEX
  5
3d4
  8
Layer_2
  10
100.40918
  20
204.81334
  0
VERTEX
  5
3d5
  8
Layer_2
  10
99.796692
  20
204.67101
  0
VERTEX
  5
3d6
  8
Layer_2
  10
99.270508
  20
204.55455
  0
VERTEX
  5
3d7
  8
Layer_2
  10
98.800415
  20
204.45537
  0
VERTEX
  5
3d8
  8
Layer_2
  10
98.394958
  20
204.37343
  0
VERTEX
  5
3d9
  8
Layer_2
  10
98.071472
  20
204.3044
  0
VERTEX
  5
3da
  8
Layer_2
  10
97.825623
  20
204.23106
  0
VERTEX
  5
3db
  8
Layer_2
  10
97.653076
  20
204.15776
  0
VERTEX
  5
3dc
  8
Layer_2
  10
97.553894
  20
204.11891
  0
VERTEX
  5
3dd
  8
Layer_2
  10
97.532288
  20
204.14482
  0
VERTEX
  5
3de
  8
Layer_2
  10
97.558228
  20
204.19228
  0
VERTEX
  5
3df
  8
Layer_2
  10
97.592712
  20
204.21815
  0
VERTEX
  5
3e0
  8
Layer_2
  10
97.64447
  20
204.26561
  0
VERTEX
  5
3e1
  8
Layer_2
  10
97.72644
  20
204.33458
  0
VERTEX
  5
3e2
  8
Layer_2
  10
97.838562
  20
204.4424
  0
VERTEX
  5
3e3
  8
Layer_2
  10
97.993835
  20
204.59767
  0
VERTEX
  5
3e4
  8
Layer_2
  10
98.192261
  20
204.81334
  0
VERTEX
  5
3e5
  8
Layer_2
  10
98.752991
  20
205.4431
  0
VERTEX
  5
3e6
  8
Layer_2
  10
99.481873
  20
206.27119
  0
VERTEX
  5
3e7
  8
Layer_2
  10
100.29706
  20
207.1899
  0
VERTEX
  5
3e8
  8
Layer_2
  10
100.71112
  20
207.64711
  0
VERTEX
  5
3e9
  8
Layer_2
  10
101.11224
  20
208.08708
  0
VERTEX
  5
3ea
  8
Layer_2
  10
101.5177
  20
208.51408
  0
VERTEX
  5
3eb
  8
Layer_2
  10
101.94904
  20
208.94972
  0
VERTEX
  5
3ec
  8
Layer_2
  10
102.83319
  20
209.82957
  0
VERTEX
  5
3ed
  8
Layer_2
  10
103.7088
  20
210.71379
  0
VERTEX
  5
3ee
  8
Layer_2
  10
104.1228
  20
211.15373
  0
VERTEX
  5
3ef
  8
Layer_2
  10
104.51105
  20
211.58504
  0
VERTEX
  5
3f0
  8
Layer_2
  10
105.23993
  20
212.46922
  0
VERTEX
  5
3f1
  8
Layer_2
  10
105.91718
  20
213.36641
  0
VERTEX
  5
3f2
  8
Layer_2
  10
106.53821
  20
214.21608
  0
VERTEX
  5
3f3
  8
Layer_2
  10
106.82715
  20
214.6086
  0
VERTEX
  5
3f4
  8
Layer_2
  10
107.0946
  20
214.96657
  0
VERTEX
  5
3f5
  8
Layer_2
  10
108.02625
  20
216.16563
  0
VERTEX
  5
3f6
  8
Layer_2
  10
108.38428
  20
216.63576
  0
VERTEX
  5
3f7
  8
Layer_2
  10
108.52661
  20
216.83849
  0
VERTEX
  5
3f8
  8
Layer_2
  10
108.64734
  20
217.01964
  0
VERTEX
  5
3f9
  8
Layer_2
  10
108.73798
  20
217.16628
  0
VERTEX
  5
3fa
  8
Layer_2
  10
108.79834
  20
217.27409
  0
VERTEX
  5
3fb
  8
Layer_2
  10
108.83289
  20
217.35176
  0
VERTEX
  5
3fc
  8
Layer_2
  10
108.84583
  20
217.41649
  0
VERTEX
  5
3fd
  8
Layer_2
  10
108.83289
  20
217.51567
  0
VERTEX
  5
3fe
  8
Layer_2
  10
108.79401
  20
217.64934
  0
VERTEX
  5
3ff
  8
Layer_2
  10
108.74652
  20
217.82188
  0
VERTEX
  5
400
  8
Layer_2
  10
108.66888
  20
217.99443
  0
VERTEX
  5
401
  8
Layer_2
  10
108.54382
  20
218.17992
  0
VERTEX
  5
402
  8
Layer_2
  10
108.367
  20
218.38695
  0
VERTEX
  5
403
  8
Layer_2
  10
108.25055
  20
218.5034
  0
VERTEX
  5
404
  8
Layer_2
  10
108.11249
  20
218.63277
  0
VERTEX
  5
405
  8
Layer_2
  10
107.79333
  20
218.9045
  0
VERTEX
  5
406
  8
Layer_2
  10
107.45258
  20
219.17622
  0
VERTEX
  5
407
  8
Layer_2
  10
107.13336
  20
219.41347
  0
VERTEX
  5
408
  8
Layer_2
  10
106.55548
  20
219.79305
  0
VERTEX
  5
409
  8
Layer_2
  10
106.28369
  20
219.94398
  0
VERTEX
  5
40a
  8
Layer_2
  10
106.0379
  20
220.06477
  0
VERTEX
  5
40b
  8
Layer_2
  10
105.83514
  20
220.17259
  0
VERTEX
  5
40c
  8
Layer_2
  10
105.66693
  20
220.25883
  0
VERTEX
  5
40d
  8
Layer_2
  10
105.49878
  20
220.29765
  0
VERTEX
  5
40e
  8
Layer_2
  10
105.30029
  20
220.26317
  0
VERTEX
  5
40f
  8
Layer_2
  10
105.0976
  20
220.17259
  0
VERTEX
  5
410
  8
Layer_2
  10
104.89056
  20
220.02592
  0
VERTEX
  5
411
  8
Layer_2
  10
104.76978
  20
219.92241
  0
VERTEX
  5
412
  8
Layer_2
  10
104.63184
  20
219.79305
  0
VERTEX
  5
413
  8
Layer_2
  10
104.4679
  20
219.62483
  0
VERTEX
  5
414
  8
Layer_2
  10
104.2738
  20
219.42207
  0
VERTEX
  5
415
  8
Layer_2
  10
104.03656
  20
219.16759
  0
VERTEX
  5
416
  8
Layer_2
  10
103.76056
  20
218.85274
  0
VERTEX
  5
417
  8
Layer_2
  10
103.13519
  20
218.11952
  0
VERTEX
  5
418
  8
Layer_2
  10
102.48822
  20
217.35176
  0
VERTEX
  5
419
  8
Layer_2
  10
102.19055
  20
216.99379
  0
VERTEX
  5
41a
  8
Layer_2
  10
101.91882
  20
216.67458
  0
VERTEX
  5
41b
  8
Layer_2
  10
101.48322
  20
216.17427
  0
VERTEX
  5
41c
  8
Layer_2
  10
101.11658
  20
215.76448
  0
VERTEX
  5
41d
  8
Layer_2
  10
100.93542
  20
215.55315
  0
VERTEX
  5
41e
  8
Layer_2
  10
100.74133
  20
215.32027
  0
VERTEX
  5
41f
  8
Layer_2
  10
100.5257
  20
215.04424
  0
VERTEX
  5
420
  8
Layer_2
  10
100.27979
  20
214.70778
  0
VERTEX
  5
421
  8
Layer_2
  10
99.995178
  20
214.30232
  0
VERTEX
  5
422
  8
Layer_2
  10
99.675964
  20
213.8322
  0
VERTEX
  5
423
  8
Layer_2
  10
99.330933
  20
213.31895
  0
VERTEX
  5
424
  8
Layer_2
  10
98.977234
  20
212.78413
  0
VERTEX
  5
425
  8
Layer_2
  10
98.282837
  20
211.7144
  0
VERTEX
  5
426
  8
Layer_2
  10
97.967957
  20
211.21843
  0
VERTEX
  5
427
  8
Layer_2
  10
97.428772
  20
210.38597
  0
VERTEX
  5
428
  8
Layer_2
  10
97.200256
  20
210.028
  0
VERTEX
  5
429
  8
Layer_2
  10
96.786133
  20
209.36809
  0
VERTEX
  5
42a
  8
Layer_2
  10
96.419495
  20
208.76854
  0
VERTEX
  5
42b
  8
Layer_2
  10
96.078735
  20
208.1906
  0
VERTEX
  5
42c
  8
Layer_2
  10
95.750977
  20
207.61263
  0
VERTEX
  5
42d
  8
Layer_2
  10
95.453369
  20
207.0519
  0
VERTEX
  5
42e
  8
Layer_2
  10
95.19458
  20
206.55586
  0
VERTEX
  5
42f
  8
Layer_2
  10
94.901245
  20
206.0081
  0
VERTEX
  5
430
  8
Layer_2
  10
94.832275
  20
205.88737
  0
VERTEX
  5
431
  8
Layer_2
  10
94.737366
  20
205.71483
  0
VERTEX
  5
432
  8
Layer_2
  10
94.65979
  20
205.60701
  0
VERTEX
  5
433
  8
Layer_2
  10
94.577759
  20
205.52934
  0
VERTEX
  5
434
  8
Layer_2
  10
94.478577
  20
205.43877
  0
VERTEX
  5
435
  8
Layer_2
  10
94.379395
  20
205.36113
  0
VERTEX
  5
436
  8
Layer_2
  10
94.33197
  20
205.3568
  0
VERTEX
  5
437
  8
Layer_2
  10
94.284546
  20
205.38701
  0
VERTEX
  5
438
  8
Layer_2
  10
94.241333
  20
205.46031
  0
VERTEX
  5
439
  8
Layer_2
  10
94.206848
  20
205.58974
  0
VERTEX
  5
43a
  8
Layer_2
  10
94.172363
  20
205.77522
  0
VERTEX
  5
43b
  8
Layer_2
  10
94.142151
  20
205.99947
  0
VERTEX
  5
43c
  8
Layer_2
  10
94.116272
  20
206.26692
  0
VERTEX
  5
43d
  8
Layer_2
  10
94.094727
  20
206.57314
  0
VERTEX
  5
43e
  8
Layer_2
  10
94.073181
  20
206.91389
  0
VERTEX
  5
43f
  8
Layer_2
  10
94.055908
  20
207.28484
  0
VERTEX
  5
440
  8
Layer_2
  10
94.021423
  20
208.11723
  0
VERTEX
  5
441
  8
Layer_2
  10
93.995544
  20
209.1093
  0
VERTEX
  5
442
  8
Layer_2
  10
93.991211
  20
209.66997
  0
VERTEX
  5
443
  8
Layer_2
  10
93.982544
  20
210.25661
  0
VERTEX
  5
444
  8
Layer_2
  10
93.969666
  20
211.47292
  0
VERTEX
  5
445
  8
Layer_2
  10
93.96106
  20
212.07677
  0
VERTEX
  5
446
  8
Layer_2
  10
93.948059
  20
212.66768
  0
VERTEX
  5
447
  8
Layer_2
  10
93.930786
  20
213.2672
  0
VERTEX
  5
448
  8
Layer_2
  10
93.909302
  20
213.90553
  0
VERTEX
  5
449
  8
Layer_2
  10
93.861816
  20
215.19951
  0
VERTEX
  5
44a
  8
Layer_2
  10
93.835938
  20
215.82487
  0
VERTEX
  5
44b
  8
Layer_2
  10
93.814331
  20
216.41148
  0
VERTEX
  5
44c
  8
Layer_2
  10
93.792786
  20
216.93773
  0
VERTEX
  5
44d
  8
Layer_2
  10
93.77124
  20
217.38625
  0
VERTEX
  5
44e
  8
Layer_2
  10
93.741028
  20
218.32222
  0
VERTEX
  5
44f
  8
Layer_2
  10
93.736755
  20
218.53358
  0
VERTEX
  5
450
  8
Layer_2
  10
93.728088
  20
218.71474
  0
VERTEX
  5
451
  8
Layer_2
  10
93.715149
  20
218.87434
  0
VERTEX
  5
452
  8
Layer_2
  10
93.676331
  20
219.17192
  0
VERTEX
  5
453
  8
Layer_2
  10
93.646179
  20
219.30995
  0
VERTEX
  5
454
  8
Layer_2
  10
93.615967
  20
219.4178
  0
VERTEX
  5
455
  8
Layer_2
  10
93.53833
  20
219.58171
  0
VERTEX
  5
456
  8
Layer_2
  10
93.447754
  20
219.6938
  0
VERTEX
  5
457
  8
Layer_2
  10
93.344238
  20
219.80162
  0
VERTEX
  5
458
  8
Layer_2
  10
93.232056
  20
219.9052
  0
VERTEX
  5
459
  8
Layer_2
  10
93.111267
  20
219.9828
  0
VERTEX
  5
45a
  8
Layer_2
  10
92.964661
  20
220.0475
  0
VERTEX
  5
45b
  8
Layer_2
  10
92.774902
  20
220.09926
  0
VERTEX
  5
45c
  8
Layer_2
  10
92.524719
  20
220.14668
  0
VERTEX
  5
45d
  8
Layer_2
  10
92.227112
  20
220.1812
  0
VERTEX
  5
45e
  8
Layer_2
  10
91.899292
  20
220.19414
  0
VERTEX
  5
45f
  8
Layer_2
  10
91.571533
  20
220.16829
  0
VERTEX
  5
460
  8
Layer_2
  10
91.217834
  20
220.09926
  0
VERTEX
  5
461
  8
Layer_2
  10
90.84259
  20
220.00008
  0
VERTEX
  5
462
  8
Layer_2
  10
90.484558
  20
219.86632
  0
VERTEX
  5
463
  8
Layer_2
  10
90.325012
  20
219.79305
  0
VERTEX
  5
464
  8
Layer_2
  10
90.191345
  20
219.71107
  0
VERTEX
  5
465
  8
Layer_2
  10
89.992859
  20
219.54283
  0
VERTEX
  5
466
  8
Layer_2
  10
89.854858
  20
219.35307
  0
VERTEX
  5
467
  8
Layer_2
  10
89.74707
  20
219.1288
  0
VERTEX
  5
468
  8
Layer_2
  10
89.514099
  20
218.53789
  0
VERTEX
  5
469
  8
Layer_2
  10
89.389038
  20
218.18419
  0
VERTEX
  5
46a
  8
Layer_2
  10
89.289856
  20
217.76149
  0
VERTEX
  5
46b
  8
Layer_2
  10
89.259644
  20
217.51137
  0
VERTEX
  5
46c
  8
Layer_2
  10
89.242371
  20
217.23531
  0
VERTEX
  5
46d
  8
Layer_2
  10
89.242371
  20
216.92046
  0
VERTEX
  5
46e
  8
Layer_2
  10
89.259644
  20
216.57106
  0
VERTEX
  5
46f
  8
Layer_2
  10
89.294128
  20
216.19582
  0
VERTEX
  5
470
  8
Layer_2
  10
89.333008
  20
215.79903
  0
VERTEX
  5
471
  8
Layer_2
  10
89.43219
  20
214.96657
  0
VERTEX
  5
472
  8
Layer_2
  10
89.5271
  20
214.13847
  0
VERTEX
  5
473
  8
Layer_2
  10
89.617615
  20
213.31032
  0
VERTEX
  5
474
  8
Layer_2
  10
89.716858
  20
212.45631
  0
VERTEX
  5
475
  8
Layer_2
  10
89.820313
  20
211.60231
  0
VERTEX
  5
476
  8
Layer_2
  10
89.941101
  20
210.76985
  0
VERTEX
  5
477
  8
Layer_2
  10
90.079163
  20
209.94603
  0
VERTEX
  5
478
  8
Layer_2
  10
90.230103
  20
209.11794
  0
VERTEX
  5
479
  8
Layer_2
  10
90.389709
  20
208.3372
  0
VERTEX
  5
47a
  8
Layer_2
  10
90.540649
  20
207.63847
  0
VERTEX
  5
47b
  8
Layer_2
  10
90.60968
  20
207.33226
  0
VERTEX
  5
47c
  8
Layer_2
  10
90.678711
  20
207.0519
  0
VERTEX
  5
47d
  8
Layer_2
  10
90.808044
  20
206.55156
  0
VERTEX
  5
47e
  8
Layer_2
  10
90.941833
  20
206.09438
  0
VERTEX
  5
47f
  8
Layer_2
  10
91.084106
  20
205.6458
  0
VERTEX
  5
480
  8
Layer_2
  10
91.256653
  20
205.17567
  0
VERTEX
  5
481
  8
Layer_2
  10
91.541321
  20
204.48558
  0
VERTEX
  5
482
  8
Layer_2
  10
91.623291
  20
204.29576
  0
VERTEX
  5
483
  8
Layer_2
  10
91.696594
  20
204.13188
  0
VERTEX
  5
484
  8
Layer_2
  10
91.748352
  20
204.00676
  0
VERTEX
  5
485
  8
Layer_2
  10
91.817322
  20
203.76958
  0
VERTEX
  5
486
  8
Layer_2
  10
91.627563
  20
203.82133
  0
VERTEX
  5
487
  8
Layer_2
  10
91.200562
  20
203.92915
  0
VERTEX
  5
488
  8
Layer_2
  10
90.730469
  20
204.05428
  0
VERTEX
  5
489
  8
Layer_2
  10
90.23877
  20
204.17931
  0
VERTEX
  5
48a
  8
Layer_2
  10
89.742737
  20
204.30873
  0
VERTEX
  5
48b
  8
Layer_2
  10
89.272583
  20
204.43382
  0
VERTEX
  5
48c
  8
Layer_2
  10
89.052612
  20
204.48985
  0
VERTEX
  5
48d
  8
Layer_2
  10
88.474609
  20
204.64949
  0
VERTEX
  5
48e
  8
Layer_2
  10
88.125305
  20
204.74867
  0
VERTEX
  5
48f
  8
Layer_2
  10
87.137573
  20
205.03331
  0
VERTEX
  5
490
  8
Layer_2
  10
86.779602
  20
205.12825
  0
VERTEX
  5
491
  8
Layer_2
  10
86.171387
  20
205.27489
  0
VERTEX
  5
492
  8
Layer_2
  10
85.94281
  20
205.32231
  0
VERTEX
  5
493
  8
Layer_2
  10
85.451172
  20
205.43013
  0
VERTEX
  5
494
  8
Layer_2
  10
84.920593
  20
205.54228
  0
VERTEX
  5
495
  8
Layer_2
  10
84.355591
  20
205.65874
  0
VERTEX
  5
496
  8
Layer_2
  10
83.768982
  20
205.77522
  0
VERTEX
  5
497
  8
Layer_2
  10
83.165161
  20
205.88304
  0
VERTEX
  5
498
  8
Layer_2
  10
82.54834
  20
205.98225
  0
VERTEX
  5
499
  8
Layer_2
  10
81.927246
  20
206.0685
  0
VERTEX
  5
49a
  8
Layer_2
  10
81.306152
  20
206.13319
  0
VERTEX
  5
49b
  8
Layer_2
  10
80.676453
  20
206.18062
  0
VERTEX
  5
49c
  8
Layer_2
  10
80.029419
  20
206.2151
  0
VERTEX
  5
49d
  8
Layer_2
  10
79.369507
  20
206.23238
  0
VERTEX
  5
49e
  8
Layer_2
  10
78.700989
  20
206.24101
  0
VERTEX
  5
49f
  8
Layer_2
  10
78.028137
  20
206.24101
  0
VERTEX
  5
4a0
  8
Layer_2
  10
77.363953
  20
206.23238
  0
VERTEX
  5
4a1
  8
Layer_2
  10
76.712646
  20
206.21944
  0
VERTEX
  5
4a2
  8
Layer_2
  10
76.078552
  20
206.20222
  0
VERTEX
  5
4a3
  8
Layer_2
  10
74.836365
  20
206.15047
  0
VERTEX
  5
4a4
  8
Layer_2
  10
74.219604
  20
206.11162
  0
VERTEX
  5
4a5
  8
Layer_2
  10
73.615784
  20
206.0685
  0
VERTEX
  5
4a6
  8
Layer_2
  10
72.442566
  20
205.96498
  0
VERTEX
  5
4a7
  8
Layer_2
  10
71.886169
  20
205.90889
  0
VERTEX
  5
4a8
  8
Layer_2
  10
71.351318
  20
205.85283
  0
VERTEX
  5
4a9
  8
Layer_2
  10
70.825134
  20
205.79243
  0
VERTEX
  5
4aa
  8
Layer_2
  10
70.294617
  20
205.72777
  0
VERTEX
  5
4ab
  8
Layer_2
  10
69.781311
  20
205.65013
  0
VERTEX
  5
4ac
  8
Layer_2
  10
69.285339
  20
205.57246
  0
VERTEX
  5
4ad
  8
Layer_2
  10
68.819519
  20
205.50349
  0
VERTEX
  5
4ae
  8
Layer_2
  10
68.396851
  20
205.43446
  0
VERTEX
  5
4af
  8
Layer_2
  10
68.030212
  20
205.38271
  0
VERTEX
  5
4b0
  8
Layer_2
  10
67.870605
  20
205.36543
  0
VERTEX
  5
4b1
  8
Layer_2
  10
67.728271
  20
205.35249
  0
VERTEX
  5
4b2
  8
Layer_2
  10
67.503967
  20
205.33525
  0
VERTEX
  5
4b3
  8
Layer_2
  10
67.34436
  20
205.32661
  0
VERTEX
  5
4b4
  8
Layer_2
  10
67.240845
  20
205.33095
  0
VERTEX
  5
4b5
  8
Layer_2
  10
67.184814
  20
205.34389
  0
VERTEX
  5
4b6
  8
Layer_2
  10
67.15033
  20
205.36974
  0
VERTEX
  5
4b7
  8
Layer_2
  10
67.137329
  20
205.39998
  0
VERTEX
  5
4b8
  8
Layer_2
  10
67.128723
  20
205.43877
  0
VERTEX
  5
4b9
  8
Layer_2
  10
67.107178
  20
205.48189
  0
VERTEX
  5
4ba
  8
Layer_2
  10
67.094238
  20
205.53798
  0
VERTEX
  5
4bb
  8
Layer_2
  10
67.111511
  20
205.60701
  0
VERTEX
  5
4bc
  8
Layer_2
  10
67.145996
  20
205.68892
  0
VERTEX
  5
4bd
  8
Layer_2
  10
67.236572
  20
205.86577
  0
VERTEX
  5
4be
  8
Layer_2
  10
67.271118
  20
205.96065
  0
VERTEX
  5
4bf
  8
Layer_2
  10
67.292603
  20
206.05125
  0
VERTEX
  5
4c0
  8
Layer_2
  10
67.284058
  20
206.1375
  0
VERTEX
  5
4c1
  8
Layer_2
  10
67.262451
  20
206.22807
  0
VERTEX
  5
4c2
  8
Layer_2
  10
67.249512
  20
206.32295
  0
VERTEX
  5
4c3
  8
Layer_2
  10
67.232239
  20
206.4222
  0
VERTEX
  5
4c4
  8
Layer_2
  10
67.202087
  20
206.52571
  0
VERTEX
  5
4c5
  8
Layer_2
  10
67.141663
  20
206.61626
  0
VERTEX
  5
4c6
  8
Layer_2
  10
67.051086
  20
206.7025
  0
VERTEX
  5
4c7
  8
Layer_2
  10
66.913086
  20
206.77153
  0
VERTEX
  5
4c8
  8
Layer_2
  10
66.826843
  20
206.80174
  0
VERTEX
  5
4c9
  8
Layer_2
  10
66.723328
  20
206.82759
  0
VERTEX
  5
4ca
  8
Layer_2
  10
66.602539
  20
206.84486
  0
VERTEX
  5
4cb
  8
Layer_2
  10
66.300598
  20
206.87071
  0
VERTEX
  5
4cc
  8
Layer_2
  10
66.123779
  20
206.87505
  0
VERTEX
  5
4cd
  8
Layer_2
  10
65.739868
  20
206.87935
  0
VERTEX
  5
4ce
  8
Layer_2
  10
65.3172
  20
206.87505
  0
VERTEX
  5
4cf
  8
Layer_2
  10
64.890198
  20
206.86211
  0
VERTEX
  5
4d0
  8
Layer_2
  10
64.471863
  20
206.84486
  0
VERTEX
  5
4d1
  8
Layer_2
  10
64.079346
  20
206.83192
  0
VERTEX
  5
4d2
  8
Layer_2
  10
63.898132
  20
206.82329
  0
VERTEX
  5
4d3
  8
Layer_2
  10
63.440979
  20
206.79744
  0
VERTEX
  5
4d4
  8
Layer_2
  10
63.16925
  20
206.76723
  0
VERTEX
  5
4d5
  8
Layer_2
  10
62.910461
  20
206.73274
  0
VERTEX
  5
4d6
  8
Layer_2
  10
62.673218
  20
206.69392
  0
VERTEX
  5
4d7
  8
Layer_2
  10
62.440308
  20
206.66371
  0
VERTEX
  5
4d8
  8
Layer_2
  10
62.211731
  20
206.64217
  0
VERTEX
  5
4d9
  8
Layer_2
  10
61.983154
  20
206.63353
  0
VERTEX
  5
4da
  8
Layer_2
  10
61.750183
  20
206.65074
  0
VERTEX
  5
4db
  8
Layer_2
  10
61.504395
  20
206.68529
  0
VERTEX
  5
4dc
  8
Layer_2
  10
61.25415
  20
206.74135
  0
VERTEX
  5
4dd
  8
Layer_2
  10
60.999695
  20
206.81035
  0
VERTEX
  5
4de
  8
Layer_2
  10
60.749573
  20
206.88799
  0
VERTEX
  5
4df
  8
Layer_2
  10
60.512329
  20
206.97423
  0
VERTEX
  5
4e0
  8
Layer_2
  10
60.292358
  20
207.06487
  0
VERTEX
  5
4e1
  8
Layer_2
  10
60.098267
  20
207.15541
  0
VERTEX
  5
4e2
  8
Layer_2
  10
59.934387
  20
207.24165
  0
VERTEX
  5
4e3
  8
Layer_2
  10
59.809265
  20
207.33226
  0
VERTEX
  5
4e4
  8
Layer_2
  10
59.714417
  20
207.42284
  0
VERTEX
  5
4e5
  8
Layer_2
  10
59.649658
  20
207.52202
  0
VERTEX
  5
4e6
  8
Layer_2
  10
59.597961
  20
207.6212
  0
VERTEX
  5
4e7
  8
Layer_2
  10
59.520325
  20
207.81102
  0
VERTEX
  5
4e8
  8
Layer_2
  10
59.472839
  20
207.89726
  0
VERTEX
  5
4e9
  8
Layer_2
  10
59.412476
  20
207.97493
  0
VERTEX
  5
4ea
  8
Layer_2
  10
59.270142
  20
208.1302
  0
VERTEX
  5
4eb
  8
Layer_2
  10
59.123474
  20
208.27684
  0
VERTEX
  5
4ec
  8
Layer_2
  10
59.041504
  20
208.3372
  0
VERTEX
  5
4ed
  8
Layer_2
  10
58.959595
  20
208.38466
  0
VERTEX
  5
4ee
  8
Layer_2
  10
58.873352
  20
208.41057
  0
VERTEX
  5
4ef
  8
Layer_2
  10
58.774109
  20
208.4192
  0
VERTEX
  5
4f0
  8
Layer_2
  10
58.670593
  20
208.40193
  0
VERTEX
  5
4f1
  8
Layer_2
  10
58.558472
  20
208.37602
  0
VERTEX
  5
4f2
  8
Layer_2
  10
58.442017
  20
208.3372
  0
VERTEX
  5
4f3
  8
Layer_2
  10
58.321228
  20
208.27684
  0
VERTEX
  5
4f4
  8
Layer_2
  10
58.196167
  20
208.20354
  0
VERTEX
  5
4f5
  8
Layer_2
  10
58.071045
  20
208.11293
  0
VERTEX
  5
4f6
  8
Layer_2
  10
57.941711
  20
207.99644
  0
VERTEX
  5
4f7
  8
Layer_2
  10
57.816589
  20
207.86278
  0
VERTEX
  5
4f8
  8
Layer_2
  10
57.695801
  20
207.69456
  0
VERTEX
  5
4f9
  8
Layer_2
  10
57.566467
  20
207.48753
  0
VERTEX
  5
4fa
  8
Layer_2
  10
57.441345
  20
207.25029
  0
VERTEX
  5
4fb
  8
Layer_2
  10
57.311951
  20
207.00014
  0
VERTEX
  5
4fc
  8
Layer_2
  10
57.18689
  20
206.74998
  0
VERTEX
  5
4fd
  8
Layer_2
  10
57.057495
  20
206.5041
  0
VERTEX
  5
4fe
  8
Layer_2
  10
56.928101
  20
206.27983
  0
VERTEX
  5
4ff
  8
Layer_2
  10
56.798706
  20
206.09007
  0
VERTEX
  5
500
  8
Layer_2
  10
56.673584
  20
205.9305
  0
VERTEX
  5
501
  8
Layer_2
  10
56.561462
  20
205.79243
  0
VERTEX
  5
502
  8
Layer_2
  10
56.453613
  20
205.67171
  0
VERTEX
  5
503
  8
Layer_2
  10
56.341492
  20
205.56389
  0
VERTEX
  5
504
  8
Layer_2
  10
56.220764
  20
205.46031
  0
VERTEX
  5
505
  8
Layer_2
  10
56.086975
  20
205.3568
  0
VERTEX
  5
506
  8
Layer_2
  10
55.927429
  20
205.24898
  0
VERTEX
  5
507
  8
Layer_2
  10
55.737671
  20
205.13255
  0
VERTEX
  5
508
  8
Layer_2
  10
55.53064
  20
205.0161
  0
VERTEX
  5
509
  8
Layer_2
  10
55.310669
  20
204.91258
  0
VERTEX
  5
50a
  8
Layer_2
  10
55.077759
  20
204.81334
  0
VERTEX
  5
50b
  8
Layer_2
  10
54.823242
  20
204.70982
  0
VERTEX
  5
50c
  8
Layer_2
  10
54.547241
  20
204.5934
  0
VERTEX
  5
50d
  8
Layer_2
  10
54.240967
  20
204.45967
  0
VERTEX
  5
50e
  8
Layer_2
  10
53.900269
  20
204.30009
  0
VERTEX
  5
50f
  8
Layer_2
  10
53.525024
  20
204.11034
  0
VERTEX
  5
510
  8
Layer_2
  10
53.098022
  20
203.8774
  0
VERTEX
  5
511
  8
Layer_2
  10
52.623535
  20
203.60567
  0
VERTEX
  5
512
  8
Layer_2
  10
52.105957
  20
203.31236
  0
VERTEX
  5
513
  8
Layer_2
  10
51.571106
  20
203.00182
  0
VERTEX
  5
514
  8
Layer_2
  10
49.910583
  20
202.0443
  0
VERTEX
  5
515
  8
Layer_2
  10
49.388611
  20
201.74666
  0
VERTEX
  5
516
  8
Layer_2
  10
48.871094
  20
201.47063
  0
VERTEX
  5
517
  8
Layer_2
  10
48.344849
  20
201.19893
  0
VERTEX
  5
518
  8
Layer_2
  10
46.770569
  20
200.40096
  0
VERTEX
  5
519
  8
Layer_2
  10
46.270203
  20
200.12923
  0
VERTEX
  5
51a
  8
Layer_2
  10
45.795776
  20
199.84892
  0
VERTEX
  5
51b
  8
Layer_2
  10
45.351501
  20
199.55992
  0
VERTEX
  5
51c
  8
Layer_2
  10
44.941772
  20
199.26659
  0
VERTEX
  5
51d
  8
Layer_2
  10
44.562195
  20
198.96901
  0
VERTEX
  5
51e
  8
Layer_2
  10
44.204224
  20
198.66707
  0
VERTEX
  5
51f
  8
Layer_2
  10
43.867798
  20
198.36082
  0
VERTEX
  5
520
  8
Layer_2
  10
43.535645
  20
198.04167
  0
VERTEX
  5
521
  8
Layer_2
  10
43.207886
  20
197.71819
  0
VERTEX
  5
522
  8
Layer_2
  10
42.526367
  20
197.02809
  0
VERTEX
  5
523
  8
Layer_2
  10
42.168396
  20
196.65715
  0
VERTEX
  5
524
  8
Layer_2
  10
41.797424
  20
196.26033
  0
VERTEX
  5
525
  8
Layer_2
  10
41.42218
  20
195.8549
  0
VERTEX
  5
526
  8
Layer_2
  10
41.046936
  20
195.43648
  0
VERTEX
  5
527
  8
Layer_2
  10
40.322388
  20
194.60408
  0
VERTEX
  5
528
  8
Layer_2
  10
39.981628
  20
194.19862
  0
VERTEX
  5
529
  8
Layer_2
  10
39.360474
  20
193.4438
  0
VERTEX
  5
52a
  8
Layer_2
  10
39.088745
  20
193.1031
  0
VERTEX
  5
52b
  8
Layer_2
  10
38.829956
  20
192.77098
  0
VERTEX
  5
52c
  8
Layer_2
  10
38.584167
  20
192.44749
  0
VERTEX
  5
52d
  8
Layer_2
  10
38.338257
  20
192.11104
  0
VERTEX
  5
52e
  8
Layer_2
  10
38.088135
  20
191.7574
  0
VERTEX
  5
52f
  8
Layer_2
  10
37.825012
  20
191.36919
  0
VERTEX
  5
530
  8
Layer_2
  10
37.686951
  20
191.16216
  0
VERTEX
  5
531
  8
Layer_2
  10
37.544678
  20
190.94218
  0
VERTEX
  5
532
  8
Layer_2
  10
37.389404
  20
190.70927
  0
VERTEX
  5
533
  8
Layer_2
  10
37.234131
  20
190.46342
  0
VERTEX
  5
534
  8
Layer_2
  10
36.544006
  20
189.38515
  0
VERTEX
  5
535
  8
Layer_2
  10
36.190308
  20
188.81148
  0
VERTEX
  5
536
  8
Layer_2
  10
35.841003
  20
188.2292
  0
VERTEX
  5
537
  8
Layer_2
  10
35.513184
  20
187.64693
  0
VERTEX
  5
538
  8
Layer_2
  10
35.219849
  20
187.08623
  0
VERTEX
  5
539
  8
Layer_2
  10
34.965393
  20
186.54707
  0
VERTEX
  5
53a
  8
Layer_2
  10
34.749756
  20
186.0338
  0
VERTEX
  5
53b
  8
Layer_2
  10
34.568542
  20
185.52486
  0
VERTEX
  5
53c
  8
Layer_2
  10
34.408997
  20
185.02452
  0
VERTEX
  5
53d
  8
Layer_2
  10
34.275269
  20
184.53282
  0
VERTEX
  5
53e
  8
Layer_2
  10
34.158813
  20
184.04543
  0
VERTEX
  5
53f
  8
Layer_2
  10
34.050964
  20
183.57097
  0
VERTEX
  5
540
  8
Layer_2
  10
33.861206
  20
182.63933
  0
VERTEX
  5
541
  8
Layer_2
  10
33.774963
  20
182.19078
  0
VERTEX
  5
542
  8
Layer_2
  10
33.692993
  20
181.74651
  0
VERTEX
  5
543
  8
Layer_2
  10
33.572266
  20
180.8925
  0
VERTEX
  5
544
  8
Layer_2
  10
33.52478
  20
180.47411
  0
VERTEX
  5
545
  8
Layer_2
  10
33.498901
  20
180.06004
  0
VERTEX
  5
546
  8
Layer_2
  10
33.485962
  20
179.64598
  0
VERTEX
  5
547
  8
Layer_2
  10
33.490234
  20
179.23622
  0
VERTEX
  5
548
  8
Layer_2
  10
33.520508
  20
178.81355
  0
VERTEX
  5
549
  8
Layer_2
  10
33.580872
  20
178.38655
  0
VERTEX
  5
54a
  8
Layer_2
  10
33.658508
  20
177.95522
  0
VERTEX
  5
54b
  8
Layer_2
  10
33.749084
  20
177.52821
  0
VERTEX
  5
54c
  8
Layer_2
  10
34.025085
  20
176.37227
  0
VERTEX
  5
54d
  8
Layer_2
  10
34.094116
  20
176.05309
  0
VERTEX
  5
54e
  8
Layer_2
  10
34.145874
  20
175.77275
  0
VERTEX
  5
54f
  8
Layer_2
  10
34.309753
  20
174.91011
  0
VERTEX
  5
550
  8
Layer_2
  10
34.335693
  20
174.75914
  0
VERTEX
  5
551
  8
Layer_2
  10
34.383118
  20
174.52193
  0
VERTEX
  5
552
  8
Layer_2
  10
34.465027
  20
174.22862
  0
VERTEX
  5
553
  8
Layer_2
  10
33.917236
  20
173.98277
  0
VERTEX
  5
554
  8
Layer_2
  10
32.795837
  20
173.46519
  0
VERTEX
  5
555
  8
Layer_2
  10
32.200623
  20
173.17622
  0
VERTEX
  5
556
  8
Layer_2
  10
31.609741
  20
172.88292
  0
VERTEX
  5
557
  8
Layer_2
  10
31.027466
  20
172.58101
  0
VERTEX
  5
558
  8
Layer_2
  10
30.475342
  20
172.2877
  0
VERTEX
  5
559
  8
Layer_2
  10
30.216553
  20
172.14104
  0
VERTEX
  5
55a
  8
Layer_2
  10
29.742126
  20
171.86504
  0
VERTEX
  5
55b
  8
Layer_2
  10
29.526489
  20
171.73131
  0
VERTEX
  5
55c
  8
Layer_2
  10
29.142578
  20
171.47252
  0
VERTEX
  5
55d
  8
Layer_2
  10
28.801819
  20
171.21803
  0
VERTEX
  5
55e
  8
Layer_2
  10
28.499939
  20
170.96788
  0
VERTEX
  5
55f
  8
Layer_2
  10
28.22821
  20
170.72203
  0
VERTEX
  5
560
  8
Layer_2
  10
27.990967
  20
170.48479
  0
VERTEX
  5
561
  8
Layer_2
  10
27.770996
  20
170.25618
  0
VERTEX
  5
562
  8
Layer_2
  10
27.387146
  20
169.83781
  0
VERTEX
  5
563
  8
Layer_2
  10
27.227539
  20
169.65666
  0
VERTEX
  5
564
  8
Layer_2
  10
27.102478
  20
169.50569
  0
VERTEX
  5
565
  8
Layer_2
  10
27.003296
  20
169.37199
  0
VERTEX
  5
566
  8
Layer_2
  10
26.925598
  20
169.24693
  0
VERTEX
  5
567
  8
Layer_2
  10
26.856567
  20
169.1132
  0
VERTEX
  5
568
  8
Layer_2
  10
26.791931
  20
168.96223
  0
VERTEX
  5
569
  8
Layer_2
  10
26.684082
  20
168.6862
  0
VERTEX
  5
56a
  8
Layer_2
  10
26.645264
  20
168.57405
  0
VERTEX
  5
56b
  8
Layer_2
  10
26.550354
  20
168.31956
  0
VERTEX
  5
56c
  8
Layer_2
  10
26.455505
  20
168.03493
  0
VERTEX
  5
56d
  8
Layer_2
  10
26.356323
  20
167.72435
  0
VERTEX
  5
56e
  8
Layer_2
  10
26.261353
  20
167.39656
  0
VERTEX
  5
56f
  8
Layer_2
  10
26.088867
  20
166.71507
  0
VERTEX
  5
570
  8
Layer_2
  10
26.019836
  20
166.37865
  0
VERTEX
  5
571
  8
Layer_2
  10
25.968079
  20
166.05516
  0
VERTEX
  5
572
  8
Layer_2
  10
25.933594
  20
165.73167
  0
VERTEX
  5
573
  8
Layer_2
  10
25.912048
  20
165.40385
  0
VERTEX
  5
574
  8
Layer_2
  10
25.899109
  20
164.74397
  0
VERTEX
  5
575
  8
Layer_2
  10
25.920654
  20
164.097
  0
VERTEX
  5
576
  8
Layer_2
  10
25.9422
  20
163.79073
  0
VERTEX
  5
577
  8
Layer_2
  10
25.968079
  20
163.49745
  0
VERTEX
  5
578
  8
Layer_2
  10
26.041382
  20
162.94539
  0
VERTEX
  5
579
  8
Layer_2
  10
26.144958
  20
162.42778
  0
VERTEX
  5
57a
  8
Layer_2
  10
26.265686
  20
161.93608
  0
VERTEX
  5
57b
  8
Layer_2
  10
26.395081
  20
161.4789
  0
VERTEX
  5
57c
  8
Layer_2
  10
26.520203
  20
161.0648
  0
VERTEX
  5
57d
  8
Layer_2
  10
26.649597
  20
160.6982
  0
VERTEX
  5
57e
  8
Layer_2
  10
26.800537
  20
160.33159
  0
VERTEX
  5
57f
  8
Layer_2
  10
26.981689
  20
159.90889
  0
VERTEX
  5
580
  8
Layer_2
  10
27.085205
  20
159.66304
  0
VERTEX
  5
581
  8
Layer_2
  10
27.20166
  20
159.39992
  0
VERTEX
  5
582
  8
Layer_2
  10
27.451782
  20
158.84355
  0
VERTEX
  5
583
  8
Layer_2
  10
27.723572
  20
158.28282
  0
VERTEX
  5
584
  8
Layer_2
  10
27.870239
  20
158.0154
  0
VERTEX
  5
585
  8
Layer_2
  10
28.012573
  20
157.76094
  0
VERTEX
  5
586
  8
Layer_2
  10
28.154846
  20
157.52803
  0
VERTEX
  5
587
  8
Layer_2
  10
28.297241
  20
157.31236
  0
VERTEX
  5
588
  8
Layer_2
  10
28.586182
  20
156.8983
  0
VERTEX
  5
589
  8
Layer_2
  10
28.741455
  20
156.69127
  0
VERTEX
  5
58a
  8
Layer_2
  10
29.086548
  20
156.26424
  0
VERTEX
  5
58b
  8
Layer_2
  10
29.500549
  20
155.78117
  0
VERTEX
  5
58c
  8
Layer_2
  10
29.733521
  20
155.51808
  0
VERTEX
  5
58d
  8
Layer_2
  10
30.238159
  20
154.97029
  0
VERTEX
  5
58e
  8
Layer_2
  10
30.768677
  20
154.41389
  0
VERTEX
  5
58f
  8
Layer_2
  10
31.294861
  20
153.87474
  0
VERTEX
  5
590
  8
Layer_2
  10
31.7995
  20
153.3615
  0
VERTEX
  5
591
  8
Layer_2
  10
32.308472
  20
152.86116
  0
VERTEX
  5
592
  8
Layer_2
  10
32.830383
  20
152.36946
  0
VERTEX
  5
593
  8
Layer_2
  10
33.382446
  20
151.87776
  0
VERTEX
  5
594
  8
Layer_2
  10
33.968994
  20
151.39037
  0
VERTEX
  5
595
  8
Layer_2
  10
34.585815
  20
150.90297
  0
VERTEX
  5
596
  8
Layer_2
  10
35.224182
  20
150.42851
  0
VERTEX
  5
597
  8
Layer_2
  10
35.897034
  20
149.96703
  0
VERTEX
  5
598
  8
Layer_2
  10
36.250732
  20
149.73842
  0
VERTEX
  5
599
  8
Layer_2
  10
36.621643
  20
149.50981
  0
VERTEX
  5
59a
  8
Layer_2
  10
37.389404
  20
149.05693
  0
VERTEX
  5
59b
  8
Layer_2
  10
37.773254
  20
148.83696
  0
VERTEX
  5
59c
  8
Layer_2
  10
38.010437
  20
148.70326
  0
VERTEX
  5
59d
  8
Layer_2
  10
37.954468
  20
148.62563
  0
VERTEX
  5
59e
  8
Layer_2
  10
37.846619
  20
148.48329
  0
VERTEX
  5
59f
  8
Layer_2
  10
37.583435
  20
148.14687
  0
VERTEX
  5
5a0
  8
Layer_2
  10
37.428223
  20
147.95277
  0
VERTEX
  5
5a1
  8
Layer_2
  10
37.268616
  20
147.74144
  0
VERTEX
  5
5a2
  8
Layer_2
  10
37.096069
  20
147.52144
  0
VERTEX
  5
5a3
  8
Layer_2
  10
36.556946
  20
146.80977
  0
VERTEX
  5
5a4
  8
Layer_2
  10
36.185974
  20
146.30946
  0
VERTEX
  5
5a5
  8
Layer_2
  10
35.832336
  20
145.8091
  0
VERTEX
  5
5a6
  8
Layer_2
  10
35.50885
  20
145.32603
  0
VERTEX
  5
5a7
  8
Layer_2
  10
34.926575
  20
144.42461
  0
VERTEX
  5
5a8
  8
Layer_2
  10
34.64624
  20
143.976
  0
VERTEX
  5
5a9
  8
Layer_2
  10
34.370178
  20
143.51448
  0
VERTEX
  5
5aa
  8
Layer_2
  10
33.943176
  20
142.76399
  0
VERTEX
  5
5ab
  8
Layer_2
  10
33.796509
  20
142.48796
  0
VERTEX
  5
5ac
  8
Layer_2
  10
33.645508
  20
142.19466
  0
VERTEX
  5
5ad
  8
Layer_2
  10
33.490234
  20
141.88844
  0
VERTEX
  5
5ae
  8
Layer_2
  10
33.330688
  20
141.56062
  0
VERTEX
  5
5af
  8
Layer_2
  10
33.166748
  20
141.21126
  0
VERTEX
  5
5b0
  8
Layer_2
  10
32.98999
  20
140.82738
  0
VERTEX
  5
5b1
  8
Layer_2
  10
32.601746
  20
139.94753
  0
VERTEX
  5
5b2
  8
Layer_2
  10
32.394775
  20
139.46013
  0
VERTEX
  5
5b3
  8
Layer_2
  10
32.183411
  20
138.95549
  0
VERTEX
  5
5b4
  8
Layer_2
  10
31.532104
  20
137.36821
  0
VERTEX
  5
5b5
  8
Layer_2
  10
31.113708
  20
136.32445
  0
VERTEX
  5
5b6
  8
Layer_2
  10
30.911011
  20
135.82411
  0
VERTEX
  5
5b7
  8
Layer_2
  10
30.544373
  20
134.90108
  0
VERTEX
  5
5b8
  8
Layer_2
  10
30.384766
  20
134.48701
  0
VERTEX
  5
5b9
  8
Layer_2
  10
30.307129
  20
134.29723
  0
VERTEX
  5
5ba
  8
Layer_2
  10
30.238159
  20
134.11607
  0
VERTEX
  5
5bb
  8
Layer_2
  10
30.005249
  20
133.52519
  0
VERTEX
  5
5bc
  8
Layer_2
  10
29.910339
  20
133.27934
  0
VERTEX
  5
5bd
  8
Layer_2
  10
29.832703
  20
133.06367
  0
VERTEX
  5
5be
  8
Layer_2
  10
29.763672
  20
132.87822
  0
VERTEX
  5
5bf
  8
Layer_2
  10
29.707581
  20
132.71861
  0
VERTEX
  5
5c0
  8
Layer_2
  10
29.660156
  20
132.57628
  0
VERTEX
  5
5c1
  8
Layer_2
  10
29.548035
  20
132.18813
  0
VERTEX
  5
5c2
  8
Layer_2
  10
29.491943
  20
131.94658
  0
VERTEX
  5
5c3
  8
Layer_2
  10
29.457458
  20
131.83012
  0
VERTEX
  5
5c4
  8
Layer_2
  10
29.427307
  20
131.71364
  0
VERTEX
  5
5c5
  8
Layer_2
  10
29.172791
  20
131.77837
  0
VERTEX
  5
5c6
  8
Layer_2
  10
28.844971
  20
131.86461
  0
VERTEX
  5
5c7
  8
Layer_2
  10
28.452515
  20
131.96382
  0
VERTEX
  5
5c8
  8
Layer_2
  10
28.012573
  20
132.07164
  0
VERTEX
  5
5c9
  8
Layer_2
  10
27.546753
  20
132.1924
  0
VERTEX
  5
5ca
  8
Layer_2
  10
26.584839
  20
132.45122
  0
VERTEX
  5
5cb
  8
Layer_2
  10
25.670471
  20
132.71861
  0
VERTEX
  5
5cc
  8
Layer_2
  10
25.191711
  20
132.86098
  0
VERTEX
  5
5cd
  8
Layer_2
  10
24.700012
  20
133.01622
  0
VERTEX
  5
5ce
  8
Layer_2
  10
24.199707
  20
133.17149
  0
VERTEX
  5
5cf
  8
Layer_2
  10
23.703674
  20
133.3311
  0
VERTEX
  5
5d0
  8
Layer_2
  10
22.759094
  20
133.65459
  0
VERTEX
  5
5d1
  8
Layer_2
  10
22.319153
  20
133.80983
  0
VERTEX
  5
5d2
  8
Layer_2
  10
21.495361
  20
134.12904
  0
VERTEX
  5
5d3
  8
Layer_2
  10
21.102844
  20
134.29292
  0
VERTEX
  5
5d4
  8
Layer_2
  10
20.723267
  20
134.45683
  0
VERTEX
  5
5d5
  8
Layer_2
  10
20.356628
  20
134.62071
  0
VERTEX
  5
5d6
  8
Layer_2
  10
20.01593
  20
134.77602
  0
VERTEX
  5
5d7
  8
Layer_2
  10
19.692383
  20
134.92696
  0
VERTEX
  5
5d8
  8
Layer_2
  10
19.136047
  20
135.20732
  0
VERTEX
  5
5d9
  8
Layer_2
  10
18.903137
  20
135.33672
  0
VERTEX
  5
5da
  8
Layer_2
  10
18.696106
  20
135.45747
  0
VERTEX
  5
5db
  8
Layer_2
  10
18.51062
  20
135.57826
  0
VERTEX
  5
5dc
  8
Layer_2
  10
18.165588
  20
135.81117
  0
VERTEX
  5
5dd
  8
Layer_2
  10
17.988708
  20
135.92763
  0
VERTEX
  5
5de
  8
Layer_2
  10
17.807556
  20
136.04408
  0
VERTEX
  5
5df
  8
Layer_2
  10
17.104492
  20
136.47108
  0
VERTEX
  5
5e0
  8
Layer_2
  10
16.569702
  20
136.80751
  0
VERTEX
  5
5e1
  8
Layer_2
  10
16.371277
  20
136.9369
  0
VERTEX
  5
5e2
  8
Layer_2
  10
16.15564
  20
137.08354
  0
VERTEX
  5
5e3
  8
Layer_2
  10
15.927002
  20
137.24315
  0
VERTEX
  5
5e4
  8
Layer_2
  10
15.44397
  20
137.58818
  0
VERTEX
  5
5e5
  8
Layer_2
  10
15.19812
  20
137.76073
  0
VERTEX
  5
5e6
  8
Layer_2
  10
14.960876
  20
137.9203
  0
VERTEX
  5
5e7
  8
Layer_2
  10
14.727966
  20
138.06267
  0
VERTEX
  5
5e8
  8
Layer_2
  10
14.516602
  20
138.18343
  0
VERTEX
  5
5e9
  8
Layer_2
  10
14.119812
  20
138.37752
  0
VERTEX
  5
5ea
  8
Layer_2
  10
13.744568
  20
138.52415
  0
VERTEX
  5
5eb
  8
Layer_2
  10
13.572021
  20
138.57591
  0
VERTEX
  5
5ec
  8
Layer_2
  10
13.403809
  20
138.62337
  0
VERTEX
  5
5ed
  8
Layer_2
  10
13.252869
  20
138.65355
  0
VERTEX
  5
5ee
  8
Layer_2
  10
13.110474
  20
138.67513
  0
VERTEX
  5
5ef
  8
Layer_2
  10
12.864685
  20
138.68376
  0
VERTEX
  5
5f0
  8
Layer_2
  10
12.756836
  20
138.67513
  0
VERTEX
  5
5f1
  8
Layer_2
  10
12.661987
  20
138.65355
  0
VERTEX
  5
5f2
  8
Layer_2
  10
12.57135
  20
138.61903
  0
VERTEX
  5
5f3
  8
Layer_2
  10
12.498047
  20
138.56728
  0
VERTEX
  5
5f4
  8
Layer_2
  10
12.437683
  20
138.49397
  0
VERTEX
  5
5f5
  8
Layer_2
  10
12.385925
  20
138.4034
  0
VERTEX
  5
5f6
  8
Layer_2
  10
12.351379
  20
138.31279
  0
VERTEX
  5
5f7
  8
Layer_2
  10
12.321228
  20
138.22224
  0
VERTEX
  5
5f8
  8
Layer_2
  10
12.299622
  20
138.13167
  0
VERTEX
  5
5f9
  8
Layer_2
  10
12.295288
  20
138.01518
  0
VERTEX
  5
5fa
  8
Layer_2
  10
12.303955
  20
137.86424
  0
VERTEX
  5
5fb
  8
Layer_2
  10
12.312561
  20
137.76936
  0
VERTEX
  5
5fc
  8
Layer_2
  10
12.347046
  20
137.54076
  0
VERTEX
  5
5fd
  8
Layer_2
  10
12.372986
  20
137.39842
  0
VERTEX
  5
5fe
  8
Layer_2
  10
12.398865
  20
137.23882
  0
VERTEX
  5
5ff
  8
Layer_2
  10
12.472168
  20
136.85493
  0
VERTEX
  5
600
  8
Layer_2
  10
12.519592
  20
136.62206
  0
VERTEX
  5
601
  8
Layer_2
  10
12.567017
  20
136.36327
  0
VERTEX
  5
602
  8
Layer_2
  10
12.623108
  20
136.07857
  0
VERTEX
  5
603
  8
Layer_2
  10
12.687805
  20
135.78096
  0
VERTEX
  5
604
  8
Layer_2
  10
12.74823
  20
135.46611
  0
VERTEX
  5
605
  8
Layer_2
  10
12.890503
  20
134.8062
  0
VERTEX
  5
606
  8
Layer_2
  10
13.041504
  20
134.13335
  0
VERTEX
  5
607
  8
Layer_2
  10
13.205444
  20
133.47343
  0
VERTEX
  5
608
  8
Layer_2
  10
13.28302
  20
133.15425
  0
VERTEX
  5
609
  8
Layer_2
  10
13.36499
  20
132.84801
  0
VERTEX
  5
60a
  8
Layer_2
  10
13.44696
  20
132.56337
  0
VERTEX
  5
60b
  8
Layer_2
  10
13.606506
  20
132.04576
  0
VERTEX
  5
60c
  8
Layer_2
  10
13.684204
  20
131.81285
  0
VERTEX
  5
60d
  8
Layer_2
  10
13.839478
  20
131.38585
  0
VERTEX
  5
60e
  8
Layer_2
  10
13.994751
  20
130.98903
  0
VERTEX
  5
60f
  8
Layer_2
  10
14.162964
  20
130.60948
  0
VERTEX
  5
610
  8
Layer_2
  10
14.335449
  20
130.2256
  0
VERTEX
  5
611
  8
Layer_2
  10
14.529541
  20
129.82014
  0
VERTEX
  5
612
  8
Layer_2
  10
14.628723
  20
129.6002
  0
VERTEX
  5
613
  8
Layer_2
  10
14.857361
  20
129.12141
  0
VERTEX
  5
614
  8
Layer_2
  10
14.978149
  20
128.85402
  0
VERTEX
  5
615
  8
Layer_2
  10
15.107483
  20
128.57365
  0
VERTEX
  5
616
  8
Layer_2
  10
15.241211
  20
128.27174
  0
VERTEX
  5
617
  8
Layer_2
  10
15.534485
  20
127.62907
  0
VERTEX
  5
618
  8
Layer_2
  10
15.849426
  20
126.94759
  0
VERTEX
  5
619
  8
Layer_2
  10
16.181458
  20
126.24022
  0
VERTEX
  5
61a
  8
Layer_2
  10
16.522217
  20
125.52425
  0
VERTEX
  5
61b
  8
Layer_2
  10
16.862976
  20
124.82121
  0
VERTEX
  5
61c
  8
Layer_2
  10
17.203674
  20
124.14403
  0
VERTEX
  5
61d
  8
Layer_2
  10
17.531494
  20
123.50999
  0
VERTEX
  5
61e
  8
Layer_2
  10
17.850647
  20
122.92772
  0
VERTEX
  5
61f
  8
Layer_2
  10
18.156921
  20
122.37993
  0
VERTEX
  5
620
  8
Layer_2
  10
18.463196
  20
121.85374
  0
VERTEX
  5
621
  8
Layer_2
  10
18.769409
  20
121.34477
  0
VERTEX
  5
622
  8
Layer_2
  10
19.08429
  20
120.8315
  0
VERTEX
  5
623
  8
Layer_2
  10
19.416382
  20
120.30962
  0
VERTEX
  5
624
  8
Layer_2
  10
19.770081
  20
119.77046
  0
VERTEX
  5
625
  8
Layer_2
  10
20.56366
  20
118.58434
  0
VERTEX
  5
626
  8
Layer_2
  10
21.003662
  20
117.94167
  0
VERTEX
  5
627
  8
Layer_2
  10
21.465149
  20
117.28178
  0
VERTEX
  5
628
  8
Layer_2
  10
21.939636
  20
116.60893
  0
VERTEX
  5
629
  8
Layer_2
  10
22.427002
  20
115.94035
  0
VERTEX
  5
62a
  8
Layer_2
  10
22.914368
  20
115.28044
  0
VERTEX
  5
62b
  8
Layer_2
  10
23.406067
  20
114.64641
  0
VERTEX
  5
62c
  8
Layer_2
  10
23.893433
  20
114.04689
  0
VERTEX
  5
62d
  8
Layer_2
  10
24.372192
  20
113.47755
  0
VERTEX
  5
62e
  8
Layer_2
  10
24.851013
  20
112.9341
  0
VERTEX
  5
62f
  8
Layer_2
  10
25.325439
  20
112.40785
  0
VERTEX
  5
630
  8
Layer_2
  10
25.808533
  20
111.89461
  0
VERTEX
  5
631
  8
Layer_2
  10
26.300232
  20
111.39427
  0
VERTEX
  5
632
  8
Layer_2
  10
26.800537
  20
110.89824
  0
VERTEX
  5
633
  8
Layer_2
  10
27.318115
  20
110.40657
  0
VERTEX
  5
634
  8
Layer_2
  10
27.852966
  20
109.91054
  0
VERTEX
  5
635
  8
Layer_2
  10
28.137634
  20
109.65605
  0
VERTEX
  5
636
  8
Layer_2
  10
28.763062
  20
109.12123
  0
VERTEX
  5
637
  8
Layer_2
  10
29.099487
  20
108.8452
  0
VERTEX
  5
638
  8
Layer_2
  10
29.789551
  20
108.28877
  0
VERTEX
  5
639
  8
Layer_2
  10
30.479675
  20
107.74101
  0
VERTEX
  5
63a
  8
Layer_2
  10
31.139587
  20
107.23204
  0
VERTEX
  5
63b
  8
Layer_2
  10
31.450134
  20
106.99483
  0
VERTEX
  5
63c
  8
Layer_2
  10
32.002258
  20
106.56783
  0
VERTEX
  5
63d
  8
Layer_2
  10
32.4422
  20
106.22279
  0
VERTEX
  5
63e
  8
Layer_2
  10
32.610413
  20
106.0934
  0
VERTEX
  5
63f
  8
Layer_2
  10
32.787231
  20
105.92949
  0
VERTEX
  5
640
  8
Layer_2
  10
32.877808
  20
105.88634
  0
VERTEX
  5
641
  8
Layer_2
  10
33.14093
  20
105.76558
  0
VERTEX
  5
642
  8
Layer_2
  10
33.645508
  20
105.52406
  0
VERTEX
  5
643
  8
Layer_2
  10
33.809448
  20
105.44209
  0
VERTEX
  5
644
  8
Layer_2
  10
33.964722
  20
105.36015
  0
VERTEX
  5
645
  8
Layer_2
  10
34.529724
  20
105.07979
  0
VERTEX
  5
646
  8
Layer_2
  10
34.81012
  20
104.91588
  0
VERTEX
  5
647
  8
Layer_2
  10
34.96106
  20
104.81236
  0
VERTEX
  5
648
  8
Layer_2
  10
35.116333
  20
104.69591
  0
VERTEX
  5
649
  8
Layer_2
  10
35.280212
  20
104.55357
  0
VERTEX
  5
64a
  8
Layer_2
  10
35.452759
  20
104.38536
  0
VERTEX
  5
64b
  8
Layer_2
  10
35.629639
  20
104.20421
  0
VERTEX
  5
64c
  8
Layer_2
  10
35.81073
  20
104.01445
  0
VERTEX
  5
64d
  8
Layer_2
  10
36.336975
  20
103.44942
  0
VERTEX
  5
64e
  8
Layer_2
  10
36.496582
  20
103.2812
  0
VERTEX
  5
64f
  8
Layer_2
  10
36.802795
  20
102.97926
  0
VERTEX
  5
650
  8
Layer_2
  10
37.354919
  20
102.44444
  0
VERTEX
  5
651
  8
Layer_2
  10
37.609375
  20
102.19426
  0
VERTEX
  5
652
  8
Layer_2
  10
37.859497
  20
101.9398
  0
VERTEX
  5
653
  8
Layer_2
  10
38.208923
  20
101.57317
  0
VERTEX
  5
654
  8
Layer_2
  10
38.303772
  20
101.46965
  0
VERTEX
  5
655
  8
Layer_2
  10
38.390015
  20
101.38771
  0
VERTEX
  5
656
  8
Layer_2
  10
38.454712
  20
101.31871
  0
SEQEND
  0
POLYLINE
  5
658
  8
Layer_0
  62
52
  66
1
  10
0
  20
0
  30
0
  0
VERTEX
  5
658
  8
Layer_0
  10
38.082031
  20
148.66035
  0
VERTEX
  5
659
  8
Layer_0
  10
38.869629
  20
148.21367
  0
VERTEX
  5
65a
  8
Layer_0
  10
39.031982
  20
148.1187
  0
VERTEX
  5
65b
  8
Layer_0
  10
39.18396
  20
148.02657
  0
VERTEX
  5
65c
  8
Layer_0
  10
39.98053
  20
147.53584
  0
VERTEX
  5
65d
  8
Layer_0
  10
40.250793
  20
147.37617
  0
VERTEX
  5
65e
  8
Layer_0
  10
40.550781
  20
147.21083
  0
VERTEX
  5
65f
  8
Layer_0
  10
40.715454
  20
147.12425
  0
VERTEX
  5
660
  8
Layer_0
  10
40.894714
  20
147.03371
  0
VERTEX
  5
661
  8
Layer_0
  10
41.303772
  20
146.84138
  0
VERTEX
  5
662
  8
Layer_0
  10
41.768677
  20
146.63182
  0
VERTEX
  5
663
  8
Layer_0
  10
42.27417
  20
146.40694
  0
VERTEX
  5
664
  8
Layer_0
  10
42.81665
  20
146.16994
  0
VERTEX
  5
665
  8
Layer_0
  10
43.393616
  20
145.92812
  0
VERTEX
  5
666
  8
Layer_0
  10
44.001465
  20
145.68471
  0
VERTEX
  5
667
  8
Layer_0
  10
44.636658
  20
145.44301
  0
VERTEX
  5
668
  8
Layer_0
  10
45.295471
  20
145.20607
  0
VERTEX
  5
669
  8
Layer_0
  10
45.979004
  20
144.97823
  0
VERTEX
  5
66a
  8
Layer_0
  10
46.335938
  20
144.8669
  0
VERTEX
  5
66b
  8
Layer_0
  10
46.710327
  20
144.75322
  0
VERTEX
  5
66c
  8
Layer_0
  10
47.099731
  20
144.63768
  0
VERTEX
  5
66d
  8
Layer_0
  10
47.502747
  20
144.52296
  0
VERTEX
  5
66e
  8
Layer_0
  10
48.335083
  20
144.291
  0
VERTEX
  5
66f
  8
Layer_0
  10
49.189575
  20
144.06648
  0
VERTEX
  5
670
  8
Layer_0
  10
50.041443
  20
143.84938
  0
VERTEX
  5
671
  8
Layer_0
  10
50.874207
  20
143.64415
  0
VERTEX
  5
672
  8
Layer_0
  10
51.665405
  20
143.45903
  0
VERTEX
  5
673
  8
Layer_0
  10
52.393066
  20
143.29539
  0
VERTEX
  5
674
  8
Layer_0
  10
53.066528
  20
143.15514
  0
VERTEX
  5
675
  8
Layer_0
  10
53.703186
  20
143.03596
  0
VERTEX
  5
676
  8
Layer_0
  10
54.308777
  20
142.9341
  0
VERTEX
  5
677
  8
Layer_0
  10
54.890869
  20
142.8452
  0
VERTEX
  5
678
  8
Layer_0
  10
55.449158
  20
142.76714
  0
VERTEX
  5
679
  8
Layer_0
  10
55.991272
  20
142.69566
  0
VERTEX
  5
67a
  8
Layer_0
  10
57.041748
  20
142.5685
  0
VERTEX
  5
67b
  8
Layer_0
  10
57.997559
  20
142.45546
  0
VERTEX
  5
67c
  8
Layer_0
  10
58.43219
  20
142.4084
  0
VERTEX
  5
67d
  8
Layer_0
  10
58.854797
  20
142.36668
  0
VERTEX
  5
67e
  8
Layer_0
  10
59.280273
  20
142.33543
  0
VERTEX
  5
67f
  8
Layer_0
  10
59.721008
  20
142.31123
  0
VERTEX
  5
680
  8
Layer_0
  10
60.193359
  20
142.29652
  0
VERTEX
  5
681
  8
Layer_0
  10
60.706177
  20
142.29103
  0
VERTEX
  5
682
  8
Layer_0
  10
61.273193
  20
142.29561
  0
VERTEX
  5
683
  8
Layer_0
  10
61.885376
  20
142.31044
  0
VERTEX
  5
684
  8
Layer_0
  10
62.529236
  20
142.33473
  0
VERTEX
  5
685
  8
Layer_0
  10
63.186707
  20
142.36873
  0
VERTEX
  5
686
  8
Layer_0
  10
63.845398
  20
142.40694
  0
VERTEX
  5
687
  8
Layer_0
  10
64.488586
  20
142.45372
  0
VERTEX
  5
688
  8
Layer_0
  10
65.099243
  20
142.50471
  0
VERTEX
  5
689
  8
Layer_0
  10
65.387817
  20
142.53032
  0
VERTEX
  5
68a
  8
Layer_0
  10
66.188904
  20
142.61534
  0
VERTEX
  5
68b
  8
Layer_0
  10
66.68811
  20
142.67607
  0
VERTEX
  5
68c
  8
Layer_0
  10
67.165955
  20
142.74037
  0
VERTEX
  5
68d
  8
Layer_0
  10
67.62561
  20
142.81169
  0
VERTEX
  5
68e
  8
Layer_0
  10
68.064941
  20
142.89082
  0
VERTEX
  5
68f
  8
Layer_0
  10
68.487244
  20
142.98112
  0
VERTEX
  5
690
  8
Layer_0
  10
68.896606
  20
143.08165
  0
VERTEX
  5
691
  8
Layer_0
  10
69.294067
  20
143.19649
  0
VERTEX
  5
692
  8
Layer_0
  10
69.679321
  20
143.33257
  0
VERTEX
  5
693
  8
Layer_0
  10
70.050842
  20
143.49239
  0
VERTEX
  5
694
  8
Layer_0
  10
70.405884
  20
143.6656
  0
VERTEX
  5
695
  8
Layer_0
  10
70.7453
  20
143.84749
  0
VERTEX
  5
696
  8
Layer_0
  10
71.06958
  20
144.03114
  0
VERTEX
  5
697
  8
Layer_0
  10
71.374268
  20
144.20885
  0
VERTEX
  5
698
  8
Layer_0
  10
71.66156
  20
144.37114
  0
VERTEX
  5
699
  8
Layer_0
  10
71.93158
  20
144.51125
  0
VERTEX
  5
69a
  8
Layer_0
  10
72.173584
  20
144.62975
  0
VERTEX
  5
69b
  8
Layer_0
  10
72.385803
  20
144.72942
  0
VERTEX
  5
69c
  8
Layer_0
  10
72.752869
  20
144.8972
  0
VERTEX
  5
69d
  8
Layer_0
  10
73.260437
  20
145.13911
  0
VERTEX
  5
69e
  8
Layer_0
  10
73.44751
  20
145.23653
  0
VERTEX
  5
69f
  8
Layer_0
  10
73.643616
  20
145.33385
  0
VERTEX
  5
6a0
  8
Layer_0
  10
74.240784
  20
145.60982
  0
VERTEX
  5
6a1
  8
Layer_0
  10
74.445862
  20
145.71593
  0
VERTEX
  5
6a2
  8
Layer_0
  10
74.653931
  20
145.84129
  0
VERTEX
  5
6a3
  8
Layer_0
  10
74.866516
  20
145.99229
  0
VERTEX
  5
6a4
  8
Layer_0
  10
75.086914
  20
146.17244
  0
VERTEX
  5
6a5
  8
Layer_0
  10
75.319519
  20
146.38966
  0
VERTEX
  5
6a6
  8
Layer_0
  10
75.570129
  20
146.64006
  0
VERTEX
  5
6a7
  8
Layer_0
  10
75.829285
  20
146.91496
  0
VERTEX
  5
6a8
  8
Layer_0
  10
76.090881
  20
147.20714
  0
VERTEX
  5
6a9
  8
Layer_0
  10
76.348511
  20
147.50932
  0
VERTEX
  5
6aa
  8
Layer_0
  10
76.592102
  20
147.81746
  0
VERTEX
  5
6ab
  8
Layer_0
  10
76.818848
  20
148.12117
  0
VERTEX
  5
6ac
  8
Layer_0
  10
77.018188
  20
148.41438
  0
VERTEX
  5
6ad
  8
Layer_0
  10
77.188416
  20
148.69081
  0
VERTEX
  5
6ae
  8
Layer_0
  10
77.335876
  20
148.95763
  0
VERTEX
  5
6af
  8
Layer_0
  10
77.468628
  20
149.21941
  0
VERTEX
  5
6b0
  8
Layer_0
  10
77.586914
  20
149.48521
  0
VERTEX
  5
6b1
  8
Layer_0
  10
77.696777
  20
149.76213
  0
VERTEX
  5
6b2
  8
Layer_0
  10
77.802917
  20
150.05791
  0
VERTEX
  5
6b3
  8
Layer_0
  10
77.909485
  20
150.38042
  0
VERTEX
  5
6b4
  8
Layer_0
  10
78.02179
  20
150.73268
  0
VERTEX
  5
6b5
  8
Layer_0
  10
78.136353
  20
151.12688
  0
VERTEX
  5
6b6
  8
Layer_0
  10
78.245239
  20
151.55833
  0
VERTEX
  5
6b7
  8
Layer_0
  10
78.350403
  20
152.01765
  0
VERTEX
  5
6b8
  8
Layer_0
  10
78.660156
  20
153.45744
  0
VERTEX
  5
6b9
  8
Layer_0
  10
78.764282
  20
153.92149
  0
VERTEX
  5
6ba
  8
Layer_0
  10
78.873413
  20
154.3618
  0
VERTEX
  5
6bb
  8
Layer_0
  10
79.09021
  20
155.19597
  0
VERTEX
  5
6bc
  8
Layer_0
  10
79.308105
  20
156.00072
  0
VERTEX
  5
6bd
  8
Layer_0
  10
79.538086
  20
156.77544
  0
VERTEX
  5
6be
  8
Layer_0
  10
79.792603
  20
157.51674
  0
VERTEX
  5
6bf
  8
Layer_0
  10
80.082214
  20
158.2307
  0
VERTEX
  5
6c0
  8
Layer_0
  10
80.399719
  20
158.91478
  0
VERTEX
  5
6c1
  8
Layer_0
  10
80.72644
  20
159.55849
  0
VERTEX
  5
6c2
  8
Layer_0
  10
80.888794
  20
159.86385
  0
VERTEX
  5
6c3
  8
Layer_0
  10
81.048767
  20
160.15193
  0
VERTEX
  5
6c4
  8
Layer_0
  10
81.204224
  20
160.42336
  0
VERTEX
  5
6c5
  8
Layer_0
  10
81.359375
  20
160.6769
  0
VERTEX
  5
6c6
  8
Layer_0
  10
81.513245
  20
160.91743
  0
VERTEX
  5
6c7
  8
Layer_0
  10
81.668457
  20
161.14638
  0
VERTEX
  5
6c8
  8
Layer_0
  10
81.982361
  20
161.58336
  0
VERTEX
  5
6c9
  8
Layer_0
  10
82.315552
  20
162.01729
  0
VERTEX
  5
6ca
  8
Layer_0
  10
82.654297
  20
162.43864
  0
VERTEX
  5
6cb
  8
Layer_0
  10
82.996887
  20
162.84099
  0
VERTEX
  5
6cc
  8
Layer_0
  10
83.371033
  20
163.24391
  0
VERTEX
  5
6cd
  8
Layer_0
  10
83.576721
  20
163.45262
  0
VERTEX
  5
6ce
  8
Layer_0
  10
83.799866
  20
163.66789
  0
VERTEX
  5
6cf
  8
Layer_0
  10
84.04834
  20
163.89424
  0
VERTEX
  5
6d0
  8
Layer_0
  10
84.328491
  20
164.13002
  0
VERTEX
  5
6d1
  8
Layer_0
  10
84.623901
  20
164.37282
  0
VERTEX
  5
6d2
  8
Layer_0
  10
84.930847
  20
164.61711
  0
VERTEX
  5
6d3
  8
Layer_0
  10
85.233032
  20
164.86034
  0
VERTEX
  5
6d4
  8
Layer_0
  10
85.523132
  20
165.10014
  0
VERTEX
  5
6d5
  8
Layer_0
  10
85.793152
  20
165.33192
  0
VERTEX
  5
6d6
  8
Layer_0
  10
86.028381
  20
165.55064
  0
VERTEX
  5
6d7
  8
Layer_0
  10
86.235718
  20
165.75673
  0
VERTEX
  5
6d8
  8
Layer_0
  10
86.423523
  20
165.95683
  0
VERTEX
  5
6d9
  8
Layer_0
  10
86.594421
  20
166.15257
  0
VERTEX
  5
6da
  8
Layer_0
  10
86.751648
  20
166.33849
  0
VERTEX
  5
6db
  8
Layer_0
  10
87.023376
  20
166.70174
  0
VERTEX
  5
6dc
  8
Layer_0
  10
87.258179
  20
167.05251
  0
VERTEX
  5
6dd
  8
Layer_0
  10
87.449829
  20
167.38356
  0
VERTEX
  5
6de
  8
Layer_0
  10
87.591187
  20
167.6945
  0
VERTEX
  5
6df
  8
Layer_0
  10
87.69751
  20
167.99919
  0
VERTEX
  5
6e0
  8
Layer_0
  10
87.775696
  20
168.3159
  0
VERTEX
  5
6e1
  8
Layer_0
  10
87.819275
  20
168.47862
  0
VERTEX
  5
6e2
  8
Layer_0
  10
87.86908
  20
168.63972
  0
VERTEX
  5
6e3
  8
Layer_0
  10
87.91748
  20
168.80339
  0
VERTEX
  5
6e4
  8
Layer_0
  10
87.956909
  20
168.96724
  0
VERTEX
  5
6e5
  8
Layer_0
  10
87.975525
  20
169.1367
  0
VERTEX
  5
6e6
  8
Layer_0
  10
87.963074
  20
169.30772
  0
VERTEX
  5
6e7
  8
Layer_0
  10
87.914795
  20
169.48613
  0
VERTEX
  5
6e8
  8
Layer_0
  10
87.872375
  20
169.57802
  0
VERTEX
  5
6e9
  8
Layer_0
  10
87.816833
  20
169.67116
  0
VERTEX
  5
6ea
  8
Layer_0
  10
87.672363
  20
169.86641
  0
VERTEX
  5
6eb
  8
Layer_0
  10
87.490295
  20
170.07173
  0
VERTEX
  5
6ec
  8
Layer_0
  10
87.274353
  20
170.28389
  0
VERTEX
  5
6ed
  8
Layer_0
  10
87.027466
  20
170.49757
  0
VERTEX
  5
6ee
  8
Layer_0
  10
86.752441
  20
170.7144
  0
VERTEX
  5
6ef
  8
Layer_0
  10
86.449463
  20
170.92751
  0
VERTEX
  5
6f0
  8
Layer_0
  10
86.124451
  20
171.13313
  0
VERTEX
  5
6f1
  8
Layer_0
  10
85.781433
  20
171.33012
  0
VERTEX
  5
6f2
  8
Layer_0
  10
85.40686
  20
171.51772
  0
VERTEX
  5
6f3
  8
Layer_0
  10
84.992371
  20
171.6981
  0
VERTEX
  5
6f4
  8
Layer_0
  10
84.545166
  20
171.87383
  0
VERTEX
  5
6f5
  8
Layer_0
  10
84.079163
  20
172.04564
  0
VERTEX
  5
6f6
  8
Layer_0
  10
82.635437
  20
172.55769
  0
VERTEX
  5
6f7
  8
Layer_0
  10
82.167297
  20
172.73012
  0
VERTEX
  5
6f8
  8
Layer_0
  10
81.694092
  20
172.90834
  0
VERTEX
  5
6f9
  8
Layer_0
  10
81.199951
  20
173.09218
  0
VERTEX
  5
6fa
  8
Layer_0
  10
79.705383
  20
173.64024
  0
VERTEX
  5
6fb
  8
Layer_0
  10
79.244141
  20
173.813
  0
VERTEX
  5
6fc
  8
Layer_0
  10
78.623596
  20
174.05083
  0
VERTEX
  5
6fd
  8
Layer_0
  10
77.638977
  20
174.44881
  0
VERTEX
  5
6fe
  8
Layer_0
  10
77.438782
  20
174.53603
  0
VERTEX
  5
6ff
  8
Layer_0
  10
77.250061
  20
174.62459
  0
VERTEX
  5
700
  8
Layer_0
  10
77.060974
  20
174.71999
  0
VERTEX
  5
701
  8
Layer_0
  10
76.85437
  20
174.83351
  0
VERTEX
  5
702
  8
Layer_0
  10
76.622498
  20
174.96944
  0
VERTEX
  5
703
  8
Layer_0
  10
76.361023
  20
175.12892
  0
VERTEX
  5
704
  8
Layer_0
  10
76.087891
  20
175.30272
  0
VERTEX
  5
705
  8
Layer_0
  10
75.515381
  20
175.68648
  0
VERTEX
  5
706
  8
Layer_0
  10
74.944946
  20
176.10316
  0
VERTEX
  5
707
  8
Layer_0
  10
74.673523
  20
176.31679
  0
VERTEX
  5
708
  8
Layer_0
  10
74.41571
  20
176.5312
  0
VERTEX
  5
709
  8
Layer_0
  10
74.174072
  20
176.748
  0
VERTEX
  5
70a
  8
Layer_0
  10
73.946777
  20
176.9677
  0
VERTEX
  5
70b
  8
Layer_0
  10
73.514343
  20
177.42345
  0
VERTEX
  5
70c
  8
Layer_0
  10
73.092224
  20
177.90105
  0
VERTEX
  5
70d
  8
Layer_0
  10
72.654846
  20
178.40511
  0
VERTEX
  5
70e
  8
Layer_0
  10
72.423584
  20
178.67729
  0
VERTEX
  5
70f
  8
Layer_0
  10
72.189148
  20
178.97038
  0
VERTEX
  5
710
  8
Layer_0
  10
71.235901
  20
180.17842
  0
VERTEX
  5
711
  8
Layer_0
  10
71.009399
  20
180.45152
  0
VERTEX
  5
712
  8
Layer_0
  10
70.790527
  20
180.7025
  0
VERTEX
  5
713
  8
Layer_0
  10
70.58313
  20
180.93022
  0
VERTEX
  5
714
  8
Layer_0
  10
70.385071
  20
181.14207
  0
VERTEX
  5
715
  8
Layer_0
  10
70.007446
  20
181.52724
  0
VERTEX
  5
716
  8
Layer_0
  10
69.632751
  20
181.86467
  0
VERTEX
  5
717
  8
Layer_0
  10
69.242126
  20
182.15941
  0
VERTEX
  5
718
  8
Layer_0
  10
69.038025
  20
182.29015
  0
VERTEX
  5
719
  8
Layer_0
  10
68.827698
  20
182.40688
  0
VERTEX
  5
71a
  8
Layer_0
  10
68.404541
  20
182.60524
  0
VERTEX
  5
71b
  8
Layer_0
  10
67.971924
  20
182.76811
  0
VERTEX
  5
71c
  8
Layer_0
  10
67.534058
  20
182.90331
  0
VERTEX
  5
71d
  8
Layer_0
  10
67.08551
  20
183.02348
  0
VERTEX
  5
71e
  8
Layer_0
  10
66.622864
  20
183.11617
  0
VERTEX
  5
71f
  8
Layer_0
  10
66.167969
  20
183.17101
  0
VERTEX
  5
720
  8
Layer_0
  10
65.948608
  20
183.17833
  0
VERTEX
  5
721
  8
Layer_0
  10
65.736267
  20
183.17039
  0
VERTEX
  5
722
  8
Layer_0
  10
65.531982
  20
183.14238
  0
VERTEX
  5
723
  8
Layer_0
  10
65.336304
  20
183.09645
  0
VERTEX
  5
724
  8
Layer_0
  10
65.142944
  20
183.03419
  0
VERTEX
  5
725
  8
Layer_0
  10
64.955688
  20
182.96135
  0
VERTEX
  5
726
  8
Layer_0
  10
64.589966
  20
182.79774
  0
VERTEX
  5
727
  8
Layer_0
  10
64.229858
  20
182.6393
  0
VERTEX
  5
728
  8
Layer_0
  10
63.878235
  20
182.47862
  0
VERTEX
  5
729
  8
Layer_0
  10
63.536926
  20
182.30617
  0
VERTEX
  5
72a
  8
Layer_0
  10
63.201355
  20
182.13896
  0
VERTEX
  5
72b
  8
Layer_0
  10
62.870483
  20
181.99724
  0
VERTEX
  5
72c
  8
Layer_0
  10
62.710266
  20
181.94182
  0
VERTEX
  5
72d
  8
Layer_0
  10
62.556458
  20
181.8936
  0
VERTEX
  5
72e
  8
Layer_0
  10
62.256592
  20
181.81743
  0
VERTEX
  5
72f
  8
Layer_0
  10
61.944641
  20
181.74669
  0
VERTEX
  5
730
  8
Layer_0
  10
61.594238
  20
181.65724
  0
VERTEX
  5
731
  8
Layer_0
  10
61.397888
  20
181.60033
  0
VERTEX
  5
732
  8
Layer_0
  10
60.742554
  20
181.39125
  0
VERTEX
  5
733
  8
Layer_0
  10
60.286011
  20
181.25642
  0
VERTEX
  5
734
  8
Layer_0
  10
60.060852
  20
181.20049
  0
VERTEX
  5
735
  8
Layer_0
  10
59.84314
  20
181.15596
  0
VERTEX
  5
736
  8
Layer_0
  10
59.434998
  20
181.09312
  0
VERTEX
  5
737
  8
Layer_0
  10
59.042542
  20
181.05522
  0
VERTEX
  5
738
  8
Layer_0
  10
58.639404
  20
181.04469
  0
VERTEX
  5
739
  8
Layer_0
  10
58.42572
  20
181.04829
  0
VERTEX
  5
73a
  8
Layer_0
  10
58.200012
  20
181.05733
  0
VERTEX
  5
73b
  8
Layer_0
  10
57.95874
  20
181.07503
  0
VERTEX
  5
73c
  8
Layer_0
  10
57.701965
  20
181.10133
  0
VERTEX
  5
73d
  8
Layer_0
  10
57.166077
  20
181.17113
  0
VERTEX
  5
73e
  8
Layer_0
  10
56.628967
  20
181.26137
  0
VERTEX
  5
73f
  8
Layer_0
  10
56.369446
  20
181.31075
  0
VERTEX
  5
740
  8
Layer_0
  10
56.123535
  20
181.36104
  0
VERTEX
  5
741
  8
Layer_0
  10
55.658691
  20
181.47887
  0
VERTEX
  5
742
  8
Layer_0
  10
55.213989
  20
181.61366
  0
VERTEX
  5
743
  8
Layer_0
  10
54.79187
  20
181.74916
  0
VERTEX
  5
744
  8
Layer_0
  10
54.390381
  20
181.86119
  0
VERTEX
  5
745
  8
Layer_0
  10
53.996887
  20
181.9532
  0
VERTEX
  5
746
  8
Layer_0
  10
53.61731
  20
182.03035
  0
VERTEX
  5
747
  8
Layer_0
  10
53.27356
  20
182.09114
  0
VERTEX
  5
748
  8
Layer_0
  10
53.121033
  20
182.11412
  0
VERTEX
  5
749
  8
Layer_0
  10
52.871521
  20
182.14299
  0
VERTEX
  5
74a
  8
Layer_0
  10
52.703613
  20
182.15886
  0
VERTEX
  5
74b
  8
Layer_0
  10
52.636536
  20
182.15898
  0
VERTEX
  5
74c
  8
Layer_0
  10
52.512573
  20
182.13847
  0
VERTEX
  5
74d
  8
Layer_0
  10
52.444092
  20
182.11662
  0
VERTEX
  5
74e
  8
Layer_0
  10
52.363281
  20
182.08232
  0
VERTEX
  5
74f
  8
Layer_0
  10
52.270325
  20
182.03572
  0
VERTEX
  5
750
  8
Layer_0
  10
52.16864
  20
181.97353
  0
VERTEX
  5
751
  8
Layer_0
  10
51.953979
  20
181.82304
  0
VERTEX
  5
752
  8
Layer_0
  10
51.744202
  20
181.65788
  0
VERTEX
  5
753
  8
Layer_0
  10
51.5625
  20
181.50533
  0
VERTEX
  5
754
  8
Layer_0
  10
51.422485
  20
181.37514
  0
VERTEX
  5
755
  8
Layer_0
  10
51.311462
  20
181.25285
  0
VERTEX
  5
756
  8
Layer_0
  10
51.208252
  20
181.12621
  0
VERTEX
  5
757
  8
Layer_0
  10
51.098389
  20
180.98347
  0
VERTEX
  5
758
  8
Layer_0
  10
50.991943
  20
180.81969
  0
VERTEX
  5
759
  8
Layer_0
  10
50.891479
  20
180.64531
  0
VERTEX
  5
75a
  8
Layer_0
  10
50.773621
  20
180.45558
  0
VERTEX
  5
75b
  8
Layer_0
  10
50.70166
  20
180.35408
  0
VERTEX
  5
75c
  8
Layer_0
  10
50.61554
  20
180.24968
  0
VERTEX
  5
75d
  8
Layer_0
  10
50.516174
  20
180.13765
  0
VERTEX
  5
75e
  8
Layer_0
  10
50.403076
  20
180.01591
  0
VERTEX
  5
75f
  8
Layer_0
  10
50.150879
  20
179.75923
  0
VERTEX
  5
760
  8
Layer_0
  10
49.878357
  20
179.5013
  0
VERTEX
  5
761
  8
Layer_0
  10
49.608704
  20
179.2628
  0
VERTEX
  5
762
  8
Layer_0
  10
49.369995
  20
179.05617
  0
VERTEX
  5
763
  8
Layer_0
  10
49.142517
  20
178.86665
  0
VERTEX
  5
764
  8
Layer_0
  10
49.016785
  20
178.7729
  0
VERTEX
  5
765
  8
Layer_0
  10
48.874207
  20
178.6747
  0
VERTEX
  5
766
  8
Layer_0
  10
48.705383
  20
178.57011
  0
VERTEX
  5
767
  8
Layer_0
  10
48.504883
  20
178.45616
  0
VERTEX
  5
768
  8
Layer_0
  10
48.266907
  20
178.32759
  0
VERTEX
  5
769
  8
Layer_0
  10
47.993652
  20
178.18391
  0
VERTEX
  5
76a
  8
Layer_0
  10
47.696167
  20
178.03328
  0
VERTEX
  5
76b
  8
Layer_0
  10
47.380188
  20
177.88091
  0
VERTEX
  5
76c
  8
Layer_0
  10
47.058105
  20
177.73021
  0
VERTEX
  5
76d
  8
Layer_0
  10
46.733459
  20
177.58684
  0
VERTEX
  5
76e
  8
Layer_0
  10
46.419006
  20
177.45647
  0
VERTEX
  5
76f
  8
Layer_0
  10
46.123169
  20
177.3456
  0
VERTEX
  5
770
  8
Layer_0
  10
45.989868
  20
177.2986
  0
VERTEX
  5
771
  8
Layer_0
  10
45.867615
  20
177.25981
  0
VERTEX
  5
772
  8
Layer_0
  10
45.65863
  20
177.19728
  0
VERTEX
  5
773
  8
Layer_0
  10
45.467651
  20
177.15233
  0
VERTEX
  5
774
  8
Layer_0
  10
45.271057
  20
177.1111
  0
VERTEX
  5
775
  8
Layer_0
  10
45.045532
  20
177.07088
  0
VERTEX
  5
776
  8
Layer_0
  10
44.765442
  20
177.01845
  0
VERTEX
  5
777
  8
Layer_0
  10
44.194946
  20
176.90074
  0
VERTEX
  5
778
  8
Layer_0
  10
43.363525
  20
176.7188
  0
VERTEX
  5
779
  8
Layer_0
  10
43.022339
  20
176.64699
  0
VERTEX
  5
77a
  8
Layer_0
  10
42.267273
  20
176.4915
  0
VERTEX
  5
77b
  8
Layer_0
  10
41.018555
  20
176.22902
  0
VERTEX
  5
77c
  8
Layer_0
  10
40.161926
  20
176.04491
  0
VERTEX
  5
77d
  8
Layer_0
  10
39.326294
  20
175.85512
  0
VERTEX
  5
77e
  8
Layer_0
  10
38.927551
  20
175.76076
  0
VERTEX
  5
77f
  8
Layer_0
  10
38.549194
  20
175.66756
  0
VERTEX
  5
780
  8
Layer_0
  10
38.191406
  20
175.57558
  0
VERTEX
  5
781
  8
Layer_0
  10
37.862976
  20
175.4847
  0
VERTEX
  5
782
  8
Layer_0
  10
37.557556
  20
175.39656
  0
VERTEX
  5
783
  8
Layer_0
  10
36.996643
  20
175.22267
  0
VERTEX
  5
784
  8
Layer_0
  10
36.734314
  20
175.1364
  0
VERTEX
  5
785
  8
Layer_0
  10
36.243042
  20
174.96391
  0
VERTEX
  5
786
  8
Layer_0
  10
35.782166
  20
174.78777
  0
VERTEX
  5
787
  8
Layer_0
  10
35.332703
  20
174.60408
  0
VERTEX
  5
788
  8
Layer_0
  10
34.88092
  20
174.41206
  0
VERTEX
  5
789
  8
Layer_0
  10
34.541443
  20
174.26088
  0
SEQEND
  0
POLYLINE
  5
78b
  8
Layer_0
  62
52
  66
1
  10
0
  20
0
  30
0
  0
VERTEX
  5
78b
  8
Layer_0
  10
67.038147
  20
205.22313
  0
VERTEX
  5
78c
  8
Layer_0
  10
66.938965
  20
205.19722
  0
VERTEX
  5
78d
  8
Layer_0
  10
66.119446
  20
204.99449
  0
VERTEX
  5
78e
  8
Layer_0
  10
65.265442
  20
204.75301
  0
VERTEX
  5
78f
  8
Layer_0
  10
64.786682
  20
204.61064
  0
VERTEX
  5
790
  8
Layer_0
  10
64.251892
  20
204.44673
  0
VERTEX
  5
791
  8
Layer_0
  10
63.64801
  20
204.244
  0
VERTEX
  5
792
  8
Layer_0
  10
62.957886
  20
204.0154
  0
VERTEX
  5
793
  8
Layer_0
  10
62.194458
  20
203.75664
  0
VERTEX
  5
794
  8
Layer_0
  10
61.374939
  20
203.45473
  0
VERTEX
  5
795
  8
Layer_0
  10
60.529602
  20
203.09669
  0
VERTEX
  5
796
  8
Layer_0
  10
59.628174
  20
202.66539
  0
VERTEX
  5
797
  8
Layer_0
  10
58.679199
  20
202.17799
  0
VERTEX
  5
798
  8
Layer_0
  10
57.721741
  20
201.64317
  0
VERTEX
  5
799
  8
Layer_0
  10
56.807312
  20
201.07384
  0
VERTEX
  5
79a
  8
Layer_0
  10
55.948975
  20
200.47432
  0
VERTEX
  5
79b
  8
Layer_0
  10
55.116516
  20
199.84029
  0
VERTEX
  5
79c
  8
Layer_0
  10
54.305664
  20
199.15019
  0
VERTEX
  5
79d
  8
Layer_0
  10
53.503418
  20
198.39964
  0
VERTEX
  5
79e
  8
Layer_0
  10
53.098022
  20
197.99422
  0
VERTEX
  5
79f
  8
Layer_0
  10
52.683899
  20
197.55858
  0
VERTEX
  5
7a0
  8
Layer_0
  10
51.864441
  20
196.64421
  0
VERTEX
  5
7a1
  8
Layer_0
  10
51.079407
  20
195.69533
  0
VERTEX
  5
7a2
  8
Layer_0
  10
50.712769
  20
195.22514
  0
VERTEX
  5
7a3
  8
Layer_0
  10
50.37207
  20
194.76366
  0
VERTEX
  5
7a4
  8
Layer_0
  10
49.746643
  20
193.86223
  0
VERTEX
  5
7a5
  8
Layer_0
  10
49.185913
  20
192.96504
  0
VERTEX
  5
7a6
  8
Layer_0
  10
48.68988
  20
192.06361
  0
VERTEX
  5
7a7
  8
Layer_0
  10
48.262878
  20
191.14922
  0
VERTEX
  5
7a8
  8
Layer_0
  10
47.909241
  20
190.20891
  0
VERTEX
  5
7a9
  8
Layer_0
  10
47.628845
  20
189.25572
  0
VERTEX
  5
7aa
  8
Layer_0
  10
47.408875
  20
188.2982
  0
VERTEX
  5
7ab
  8
Layer_0
  10
47.244995
  20
187.35362
  0
VERTEX
  5
7ac
  8
Layer_0
  10
47.141479
  20
186.3961
  0
VERTEX
  5
7ad
  8
Layer_0
  10
47.098328
  20
185.42995
  0
VERTEX
  5
7ae
  8
Layer_0
  10
47.102661
  20
184.50261
  0
VERTEX
  5
7af
  8
Layer_0
  10
47.111328
  20
184.0713
  0
VERTEX
  5
7b0
  8
Layer_0
  10
47.12854
  20
183.66588
  0
VERTEX
  5
7b1
  8
Layer_0
  10
47.150085
  20
183.29494
  0
VERTEX
  5
7b2
  8
Layer_0
  10
47.175964
  20
182.95418
  0
VERTEX
  5
7b3
  8
Layer_0
  10
47.253601
  20
182.32878
  0
VERTEX
  5
7b4
  8
Layer_0
  10
47.365784
  20
181.74651
  0
VERTEX
  5
7b5
  8
Layer_0
  10
47.503784
  20
181.14265
  0
VERTEX
  5
7b6
  8
Layer_0
  10
47.59436
  20
180.81053
  0
VERTEX
  5
7b7
  8
Layer_0
  10
47.706543
  20
180.45686
  0
VERTEX
  5
7b8
  8
Layer_0
  10
47.960999
  20
179.73656
  0
VERTEX
  5
7b9
  8
Layer_0
  10
48.08606
  20
179.3958
  0
VERTEX
  5
7ba
  8
Layer_0
  10
48.301758
  20
178.8351
  0
VERTEX
  5
7bb
  8
Layer_0
  10
48.370728
  20
178.64531
  0
SEQEND
  0
POLYLINE
  5
7bd
  8
Layer_0
  62
52
  70
1
  66
1
  10
0
  20
0
  30
0
  0
VERTEX
  5
7bd
  8
Layer_0
  10
83.005554
  20
184.44225
  0
VERTEX
  5
7be
  8
Layer_0
  10
83.212585
  20
184.63634
  0
VERTEX
  5
7bf
  8
Layer_0
  10
83.432556
  20
184.80455
  0
VERTEX
  5
7c0
  8
Layer_0
  10
83.876831
  20
185.08488
  0
VERTEX
  5
7c1
  8
Layer_0
  10
84.316772
  20
185.31349
  0
VERTEX
  5
7c2
  8
Layer_0
  10
84.730835
  20
185.52486
  0
VERTEX
  5
7c3
  8
Layer_0
  10
84.911987
  20
185.62404
  0
VERTEX
  5
7c4
  8
Layer_0
  10
85.075867
  20
185.71031
  0
VERTEX
  5
7c5
  8
Layer_0
  10
85.373474
  20
185.85698
  0
VERTEX
  5
7c6
  8
Layer_0
  10
85.528748
  20
185.92165
  0
VERTEX
  5
7c7
  8
Layer_0
  10
85.705627
  20
185.98634
  0
VERTEX
  5
7c8
  8
Layer_0
  10
85.908325
  20
186.05104
  0
VERTEX
  5
7c9
  8
Layer_0
  10
86.425842
  20
186.18907
  0
VERTEX
  5
7ca
  8
Layer_0
  10
86.732117
  20
186.26671
  0
VERTEX
  5
7cb
  8
Layer_0
  10
87.404968
  20
186.42632
  0
VERTEX
  5
7cc
  8
Layer_0
  10
88.151123
  20
186.54707
  0
VERTEX
  5
7cd
  8
Layer_0
  10
88.539368
  20
186.58159
  0
VERTEX
  5
7ce
  8
Layer_0
  10
88.936157
  20
186.59019
  0
VERTEX
  5
7cf
  8
Layer_0
  10
89.35022
  20
186.57295
  0
VERTEX
  5
7d0
  8
Layer_0
  10
89.790161
  20
186.53413
  0
VERTEX
  5
7d1
  8
Layer_0
  10
90.717529
  20
186.40471
  0
VERTEX
  5
7d2
  8
Layer_0
  10
91.653442
  20
186.22359
  0
VERTEX
  5
7d3
  8
Layer_0
  10
92.106323
  20
186.12871
  0
VERTEX
  5
7d4
  8
Layer_0
  10
92.533325
  20
186.02516
  0
VERTEX
  5
7d5
  8
Layer_0
  10
93.357178
  20
185.80089
  0
VERTEX
  5
7d6
  8
Layer_0
  10
94.15509
  20
185.5464
  0
VERTEX
  5
7d7
  8
Layer_0
  10
94.901245
  20
185.25743
  0
VERTEX
  5
7d8
  8
Layer_0
  10
95.574158
  20
184.94258
  0
VERTEX
  5
7d9
  8
Layer_0
  10
96.156433
  20
184.59322
  0
VERTEX
  5
7da
  8
Layer_0
  10
96.661072
  20
184.21364
  0
VERTEX
  5
7db
  8
Layer_0
  10
97.118225
  20
183.80821
  0
VERTEX
  5
7dc
  8
Layer_0
  10
97.553894
  20
183.38118
  0
VERTEX
  5
7dd
  8
Layer_0
  10
97.959351
  20
182.93694
  0
VERTEX
  5
7de
  8
Layer_0
  10
98.334595
  20
182.47542
  0
VERTEX
  5
7df
  8
Layer_0
  10
99.007446
  20
181.48341
  0
VERTEX
  5
7e0
  8
Layer_0
  10
99.335205
  20
180.93993
  0
VERTEX
  5
7e1
  8
Layer_0
  10
99.650085
  20
180.36195
  0
VERTEX
  5
7e2
  8
Layer_0
  10
99.930481
  20
179.78401
  0
VERTEX
  5
7e3
  8
Layer_0
  10
100.15045
  20
179.22331
  0
VERTEX
  5
7e4
  8
Layer_0
  10
100.29706
  20
178.68846
  0
VERTEX
  5
7e5
  8
Layer_0
  10
100.39197
  20
178.16225
  0
VERTEX
  5
7e6
  8
Layer_0
  10
100.43512
  20
177.65331
  0
VERTEX
  5
7e7
  8
Layer_0
  10
100.42645
  20
177.17021
  0
VERTEX
  5
7e8
  8
Layer_0
  10
100.38336
  20
176.71303
  0
VERTEX
  5
7e9
  8
Layer_0
  10
100.29272
  20
176.28603
  0
VERTEX
  5
7ea
  8
Layer_0
  10
100.14612
  20
175.86763
  0
VERTEX
  5
7eb
  8
Layer_0
  10
99.930481
  20
175.44926
  0
VERTEX
  5
7ec
  8
Layer_0
  10
99.788147
  20
175.23793
  0
VERTEX
  5
7ed
  8
Layer_0
  10
99.619934
  20
175.01796
  0
VERTEX
  5
7ee
  8
Layer_0
  10
99.227417
  20
174.58232
  0
VERTEX
  5
7ef
  8
Layer_0
  10
98.796082
  20
174.16823
  0
VERTEX
  5
7f0
  8
Layer_0
  10
98.373413
  20
173.80162
  0
VERTEX
  5
7f1
  8
Layer_0
  10
97.993835
  20
173.48677
  0
VERTEX
  5
7f2
  8
Layer_0
  10
97.627258
  20
173.20641
  0
VERTEX
  5
7f3
  8
Layer_0
  10
97.213135
  20
172.96489
  0
VERTEX
  5
7f4
  8
Layer_0
  10
96.971619
  20
172.85704
  0
VERTEX
  5
7f5
  8
Layer_0
  10
96.695557
  20
172.75786
  0
VERTEX
  5
7f6
  8
Layer_0
  10
96.380737
  20
172.66725
  0
VERTEX
  5
7f7
  8
Layer_0
  10
96.035645
  20
172.58101
  0
VERTEX
  5
7f8
  8
Layer_0
  10
95.276489
  20
172.43864
  0
VERTEX
  5
7f9
  8
Layer_0
  10
94.474304
  20
172.33513
  0
VERTEX
  5
7fa
  8
Layer_0
  10
93.68927
  20
172.27046
  0
VERTEX
  5
7fb
  8
Layer_0
  10
92.951721
  20
172.23164
  0
VERTEX
  5
7fc
  8
Layer_0
  10
92.222778
  20
172.2187
  0
VERTEX
  5
7fd
  8
Layer_0
  10
91.459351
  20
172.26613
  0
VERTEX
  5
7fe
  8
Layer_0
  10
91.045349
  20
172.32652
  0
VERTEX
  5
7ff
  8
Layer_0
  10
90.601074
  20
172.41277
  0
VERTEX
  5
800
  8
Layer_0
  10
90.113647
  20
172.53355
  0
VERTEX
  5
801
  8
Layer_0
  10
89.578857
  20
172.68883
  0
VERTEX
  5
802
  8
Layer_0
  10
89.018066
  20
172.86998
  0
VERTEX
  5
803
  8
Layer_0
  10
88.444458
  20
173.07271
  0
VERTEX
  5
804
  8
Layer_0
  10
87.87085
  20
173.28404
  0
VERTEX
  5
805
  8
Layer_0
  10
87.318726
  20
173.49971
  0
VERTEX
  5
806
  8
Layer_0
  10
86.796875
  20
173.71538
  0
VERTEX
  5
807
  8
Layer_0
  10
86.330994
  20
173.91811
  0
VERTEX
  5
808
  8
Layer_0
  10
85.912659
  20
174.1165
  0
VERTEX
  5
809
  8
Layer_0
  10
85.520142
  20
174.31059
  0
VERTEX
  5
80a
  8
Layer_0
  10
85.157837
  20
174.50899
  0
VERTEX
  5
80b
  8
Layer_0
  10
84.817078
  20
174.70738
  0
VERTEX
  5
80c
  8
Layer_0
  10
84.187378
  20
175.12578
  0
VERTEX
  5
80d
  8
Layer_0
  10
83.613708
  20
175.57866
  0
VERTEX
  5
80e
  8
Layer_0
  10
83.08313
  20
176.07469
  0
VERTEX
  5
80f
  8
Layer_0
  10
82.608704
  20
176.59657
  0
VERTEX
  5
810
  8
Layer_0
  10
82.198975
  20
177.15297
  0
VERTEX
  5
811
  8
Layer_0
  10
81.858215
  20
177.73958
  0
VERTEX
  5
812
  8
Layer_0
  10
81.711609
  20
178.05443
  0
VERTEX
  5
813
  8
Layer_0
  10
81.586487
  20
178.39085
  0
VERTEX
  5
814
  8
Layer_0
  10
81.383789
  20
179.09392
  0
VERTEX
  5
815
  8
Layer_0
  10
81.245789
  20
179.78401
  0
VERTEX
  5
816
  8
Layer_0
  10
81.198303
  20
180.1075
  0
VERTEX
  5
817
  8
Layer_0
  10
81.168152
  20
180.40511
  0
VERTEX
  5
818
  8
Layer_0
  10
81.150879
  20
180.67253
  0
VERTEX
  5
819
  8
Layer_0
  10
81.150879
  20
180.91405
  0
VERTEX
  5
81a
  8
Layer_0
  10
81.189697
  20
181.35402
  0
VERTEX
  5
81b
  8
Layer_0
  10
81.297546
  20
181.78102
  0
VERTEX
  5
81c
  8
Layer_0
  10
81.482971
  20
182.24684
  0
VERTEX
  5
81d
  8
Layer_0
  10
81.612427
  20
182.50993
  0
VERTEX
  5
81e
  8
Layer_0
  10
81.771973
  20
182.7946
  0
VERTEX
  5
81f
  8
Layer_0
  10
82.155884
  20
183.38982
  0
VERTEX
  5
820
  8
Layer_0
  10
82.582886
  20
183.96349
  0
VERTEX
  5
821
  8
Layer_0
  10
82.798523
  20
184.21794
  0
VERTEX
  5
822
  8
Layer_0
  10
83.005554
  20
184.44225
  0
SEQEND
  0
POLYLINE
  5
824
  8
Layer_0
  62
52
  66
1
  10
0
  20
0
  30
0
  0
VERTEX
  5
824
  8
Layer_0
  10
67.180481
  20
188.68208
  0
VERTEX
  5
825
  8
Layer_0
  10
67.167603
  20
188.79424
  0
VERTEX
  5
826
  8
Layer_0
  10
67.154602
  20
188.92793
  0
VERTEX
  5
827
  8
Layer_0
  10
67.107178
  20
189.65257
  0
VERTEX
  5
828
  8
Layer_0
  10
67.072632
  20
190.08818
  0
VERTEX
  5
829
  8
Layer_0
  10
67.025208
  20
190.54103
  0
VERTEX
  5
82a
  8
Layer_0
  10
66.964844
  20
190.98964
  0
VERTEX
  5
82b
  8
Layer_0
  10
66.878601
  20
191.408
  0
VERTEX
  5
82c
  8
Layer_0
  10
66.766418
  20
191.77461
  0
VERTEX
  5
82d
  8
Layer_0
  10
66.464539
  20
192.40437
  0
VERTEX
  5
82e
  8
Layer_0
  10
66.084961
  20
192.97801
  0
VERTEX
  5
82f
  8
Layer_0
  10
65.640686
  20
193.51283
  0
VERTEX
  5
830
  8
Layer_0
  10
65.161926
  20
194.03902
  0
VERTEX
  5
831
  8
Layer_0
  10
64.903137
  20
194.30644
  0
VERTEX
  5
832
  8
Layer_0
  10
64.618469
  20
194.57817
  0
VERTEX
  5
833
  8
Layer_0
  10
64.010315
  20
195.11732
  0
VERTEX
  5
834
  8
Layer_0
  10
63.393555
  20
195.60472
  0
VERTEX
  5
835
  8
Layer_0
  10
63.104553
  20
195.82036
  0
VERTEX
  5
836
  8
Layer_0
  10
62.832825
  20
196.01018
  0
VERTEX
  5
837
  8
Layer_0
  10
62.591309
  20
196.16975
  0
VERTEX
  5
838
  8
Layer_0
  10
62.367004
  20
196.29912
  0
VERTEX
  5
839
  8
Layer_0
  10
61.948608
  20
196.50188
  0
VERTEX
  5
83a
  8
Layer_0
  10
61.530212
  20
196.65715
  0
VERTEX
  5
83b
  8
Layer_0
  10
61.055786
  20
196.80809
  0
VERTEX
  5
83c
  8
Layer_0
  10
60.779724
  20
196.88576
  0
VERTEX
  5
83d
  8
Layer_0
  10
60.477844
  20
196.95906
  0
VERTEX
  5
83e
  8
Layer_0
  10
59.839478
  20
197.09279
  0
VERTEX
  5
83f
  8
Layer_0
  10
59.205444
  20
197.20061
  0
VERTEX
  5
840
  8
Layer_0
  10
58.649048
  20
197.29118
  0
VERTEX
  5
841
  8
Layer_0
  10
58.161682
  20
197.35588
  0
VERTEX
  5
842
  8
Layer_0
  10
57.523315
  20
197.41197
  0
VERTEX
  5
843
  8
Layer_0
  10
57.346497
  20
197.42061
  0
VERTEX
  5
844
  8
Layer_0
  10
57.204102
  20
197.43349
  0
VERTEX
  5
845
  8
Layer_0
  10
57.087708
  20
197.44212
  0
VERTEX
  5
846
  8
Layer_0
  10
56.958252
  20
197.40334
  0
VERTEX
  5
847
  8
Layer_0
  10
56.790039
  20
197.35588
  0
VERTEX
  5
848
  8
Layer_0
  10
56.583008
  20
197.29982
  0
VERTEX
  5
849
  8
Layer_0
  10
56.358704
  20
197.23509
  0
VERTEX
  5
84a
  8
Layer_0
  10
55.871338
  20
197.08849
  0
VERTEX
  5
84b
  8
Layer_0
  10
55.638489
  20
197.01082
  0
VERTEX
  5
84c
  8
Layer_0
  10
54.995728
  20
196.75636
  0
VERTEX
  5
84d
  8
Layer_0
  10
54.568726
  20
196.57518
  0
VERTEX
  5
84e
  8
Layer_0
  10
54.154724
  20
196.35521
  0
VERTEX
  5
84f
  8
Layer_0
  10
53.775146
  20
196.07057
  0
VERTEX
  5
850
  8
Layer_0
  10
53.598267
  20
195.89372
  0
VERTEX
  5
851
  8
Layer_0
  10
53.425781
  20
195.69533
  0
VERTEX
  5
852
  8
Layer_0
  10
53.098022
  20
195.24675
  0
VERTEX
  5
853
  8
Layer_0
  10
52.809021
  20
194.77229
  0
VERTEX
  5
854
  8
Layer_0
  10
52.567444
  20
194.31075
  0
VERTEX
  5
855
  8
Layer_0
  10
52.382019
  20
193.86653
  0
VERTEX
  5
856
  8
Layer_0
  10
52.239685
  20
193.42659
  0
VERTEX
  5
857
  8
Layer_0
  10
52.144775
  20
192.98232
  0
VERTEX
  5
858
  8
Layer_0
  10
52.093018
  20
192.54237
  0
VERTEX
  5
859
  8
Layer_0
  10
52.080078
  20
192.12401
  0
VERTEX
  5
85a
  8
Layer_0
  10
52.110291
  20
191.71852
  0
VERTEX
  5
85b
  8
Layer_0
  10
52.187927
  20
191.29152
  0
VERTEX
  5
85c
  8
Layer_0
  10
52.317261
  20
190.80415
  0
VERTEX
  5
85d
  8
Layer_0
  10
52.498474
  20
190.23915
  0
VERTEX
  5
85e
  8
Layer_0
  10
52.727051
  20
189.61369
  0
VERTEX
  5
85f
  8
Layer_0
  10
53.020325
  20
188.96672
  0
VERTEX
  5
860
  8
Layer_0
  10
53.395569
  20
188.33705
  0
VERTEX
  5
861
  8
Layer_0
  10
53.861389
  20
187.70299
  0
VERTEX
  5
862
  8
Layer_0
  10
54.413513
  20
187.05602
  0
VERTEX
  5
863
  8
Layer_0
  10
55.030273
  20
186.44356
  0
VERTEX
  5
864
  8
Layer_0
  10
55.358093
  20
186.16319
  0
VERTEX
  5
865
  8
Layer_0
  10
55.703125
  20
185.90874
  0
VERTEX
  5
866
  8
Layer_0
  10
56.069763
  20
185.6801
  0
VERTEX
  5
867
  8
Layer_0
  10
56.457947
  20
185.46877
  0
VERTEX
  5
868
  8
Layer_0
  10
57.294739
  20
185.09785
  0
VERTEX
  5
869
  8
Layer_0
  10
58.153015
  20
184.78728
  0
VERTEX
  5
86a
  8
Layer_0
  10
58.981201
  20
184.51555
  0
VERTEX
  5
86b
  8
Layer_0
  10
59.783447
  20
184.26973
  0
VERTEX
  5
86c
  8
Layer_0
  10
60.58136
  20
184.06267
  0
VERTEX
  5
86d
  8
Layer_0
  10
60.969543
  20
183.98073
  0
VERTEX
  5
86e
  8
Layer_0
  10
61.353455
  20
183.92464
  0
VERTEX
  5
86f
  8
Layer_0
  10
61.724365
  20
183.89445
  0
VERTEX
  5
870
  8
Layer_0
  10
62.08667
  20
183.89876
  0
VERTEX
  5
871
  8
Layer_0
  10
62.440308
  20
183.94191
  0
VERTEX
  5
872
  8
Layer_0
  10
62.789673
  20
184.01955
  0
VERTEX
  5
873
  8
Layer_0
  10
63.130432
  20
184.12306
  0
VERTEX
  5
874
  8
Layer_0
  10
63.466858
  20
184.25246
  0
VERTEX
  5
875
  8
Layer_0
  10
64.092285
  20
184.55437
  0
VERTEX
  5
876
  8
Layer_0
  10
64.648621
  20
184.86925
  0
VERTEX
  5
877
  8
Layer_0
  10
65.123108
  20
185.20137
  0
VERTEX
  5
878
  8
Layer_0
  10
65.532898
  20
185.58092
  0
VERTEX
  5
879
  8
Layer_0
  10
65.882263
  20
185.9691
  0
VERTEX
  5
87a
  8
Layer_0
  10
66.188477
  20
186.34435
  0
VERTEX
  5
87b
  8
Layer_0
  10
66.438599
  20
186.70665
  0
VERTEX
  5
87c
  8
Layer_0
  10
66.637085
  20
187.07329
  0
VERTEX
  5
87d
  8
Layer_0
  10
66.792358
  20
187.41835
  0
VERTEX
  5
87e
  8
Layer_0
  10
66.921692
  20
187.72456
  0
VERTEX
  5
87f
  8
Layer_0
  10
67.020874
  20
188.0006
  0
VERTEX
  5
880
  8
Layer_0
  10
67.085571
  20
188.25508
  0
VERTEX
  5
881
  8
Layer_0
  10
67.158936
  20
188.60878
  0
SEQEND
  0
POLYLINE
  5
883
  8
Layer_0
  62
52
  66
1
  10
0
  20
0
  30
0
  0
VERTEX
  5
883
  8
Layer_0
  10
29.392761
  20
131.60149
  0
VERTEX
  5
884
  8
Layer_0
  10
29.250427
  20
131.002
  0
VERTEX
  5
885
  8
Layer_0
  10
29.155579
  20
130.59224
  0
VERTEX
  5
886
  8
Layer_0
  10
28.935547
  20
129.6692
  0
VERTEX
  5
887
  8
Layer_0
  10
28.832031
  20
129.21202
  0
VERTEX
  5
888
  8
Layer_0
  10
28.741455
  20
128.78502
  0
VERTEX
  5
889
  8
Layer_0
  10
28.668152
  20
128.41838
  0
VERTEX
  5
88a
  8
Layer_0
  10
28.573303
  20
127.85765
  0
VERTEX
  5
88b
  8
Layer_0
  10
28.538757
  20
127.62477
  0
VERTEX
  5
88c
  8
Layer_0
  10
28.487
  20
127.1848
  0
VERTEX
  5
88d
  8
Layer_0
  10
28.465454
  20
126.94759
  0
VERTEX
  5
88e
  8
Layer_0
  10
28.387817
  20
125.98576
  0
VERTEX
  5
88f
  8
Layer_0
  10
28.361877
  20
125.58464
  0
VERTEX
  5
890
  8
Layer_0
  10
28.301575
  20
124.71336
  0
VERTEX
  5
891
  8
Layer_0
  10
28.258362
  20
123.77309
  0
VERTEX
  5
892
  8
Layer_0
  10
28.232544
  20
122.80263
  0
VERTEX
  5
893
  8
Layer_0
  10
28.223877
  20
121.76747
  0
VERTEX
  5
894
  8
Layer_0
  10
28.22821
  20
120.65898
  0
VERTEX
  5
895
  8
Layer_0
  10
28.258362
  20
119.56776
  0
VERTEX
  5
896
  8
Layer_0
  10
28.288574
  20
119.05016
  0
VERTEX
  5
897
  8
Layer_0
  10
28.33606
  20
118.56709
  0
VERTEX
  5
898
  8
Layer_0
  10
28.39209
  20
118.12715
  0
VERTEX
  5
899
  8
Layer_0
  10
28.456787
  20
117.72169
  0
VERTEX
  5
89a
  8
Layer_0
  10
28.612061
  20
116.97984
  0
VERTEX
  5
89b
  8
Layer_0
  10
28.819092
  20
116.23366
  0
VERTEX
  5
89c
  8
Layer_0
  10
28.95282
  20
115.83253
  0
VERTEX
  5
89d
  8
Layer_0
  10
29.103821
  20
115.3969
  0
VERTEX
  5
89e
  8
Layer_0
  10
29.470398
  20
114.44371
  0
VERTEX
  5
89f
  8
Layer_0
  10
29.910339
  20
113.42146
  0
VERTEX
  5
8a0
  8
Layer_0
  10
30.414978
  20
112.34749
  0
VERTEX
  5
8a1
  8
Layer_0
  10
30.971375
  20
111.23036
  0
VERTEX
  5
8a2
  8
Layer_0
  10
31.290527
  20
110.63084
  0
VERTEX
  5
8a3
  8
Layer_0
  10
31.648499
  20
109.97527
  0
VERTEX
  5
8a4
  8
Layer_0
  10
32.03241
  20
109.29375
  0
VERTEX
  5
8a5
  8
Layer_0
  10
32.424927
  20
108.60796
  0
VERTEX
  5
8a6
  8
Layer_0
  10
32.808777
  20
107.94804
  0
VERTEX
  5
8a7
  8
Layer_0
  10
33.171082
  20
107.33128
  0
VERTEX
  5
8a8
  8
Layer_0
  10
33.494568
  20
106.79213
  0
VERTEX
  5
8a9
  8
Layer_0
  10
33.761963
  20
106.35216
  0
VERTEX
  5
8aa
  8
Layer_0
  10
33.977661
  20
106.01573
  0
VERTEX
  5
8ab
  8
Layer_0
  10
34.15448
  20
105.76128
  0
VERTEX
  5
8ac
  8
Layer_0
  10
34.301147
  20
105.57149
  0
VERTEX
  5
8ad
  8
Layer_0
  10
34.417603
  20
105.43346
  0
VERTEX
  5
8ae
  8
Layer_0
  10
34.728149
  20
105.12294
  0
SEQEND
  0
POLYLINE
  5
8b0
  8
Layer_0
  62
52
  66
1
  10
0
  20
0
  30
0
  0
VERTEX
  5
8b0
  8
Layer_0
  10
39.405273
  20
100.41585
  0
VERTEX
  5
8b1
  8
Layer_0
  10
39.684937
  20
100.19112
  0
VERTEX
  5
8b2
  8
Layer_0
  10
40.06012
  20
99.880386
  0
VERTEX
  5
8b3
  8
Layer_0
  10
40.357239
  20
99.637558
  0
VERTEX
  5
8b4
  8
Layer_0
  10
40.683533
  20
99.377945
  0
VERTEX
  5
8b5
  8
Layer_0
  10
41.037292
  20
99.104263
  0
VERTEX
  5
8b6
  8
Layer_0
  10
41.414001
  20
98.824417
  0
VERTEX
  5
8b7
  8
Layer_0
  10
41.80542
  20
98.549576
  0
VERTEX
  5
8b8
  8
Layer_0
  10
42.225525
  20
98.264847
  0
VERTEX
  5
8b9
  8
Layer_0
  10
43.171814
  20
97.64006
  0
VERTEX
  5
8ba
  8
Layer_0
  10
43.68335
  20
97.312943
  0
VERTEX
  5
8bb
  8
Layer_0
  10
44.208618
  20
96.986618
  0
VERTEX
  5
8bc
  8
Layer_0
  10
44.739746
  20
96.665359
  0
VERTEX
  5
8bd
  8
Layer_0
  10
45.26947
  20
96.355759
  0
VERTEX
  5
8be
  8
Layer_0
  10
45.789612
  20
96.068771
  0
VERTEX
  5
8bf
  8
Layer_0
  10
46.812866
  20
95.539658
  0
VERTEX
  5
8c0
  8
Layer_0
  10
47.846802
  20
95.050217
  0
VERTEX
  5
8c1
  8
Layer_0
  10
48.907837
  20
94.587051
  0
VERTEX
  5
8c2
  8
Layer_0
  10
49.453674
  20
94.362503
  0
VERTEX
  5
8c3
  8
Layer_0
  10
50.015198
  20
94.138199
  0
VERTEX
  5
8c4
  8
Layer_0
  10
50.599304
  20
93.914658
  0
VERTEX
  5
8c5
  8
Layer_0
  10
51.204895
  20
93.687546
  0
VERTEX
  5
8c6
  8
Layer_0
  10
51.827209
  20
93.46489
  0
VERTEX
  5
8c7
  8
Layer_0
  10
52.457458
  20
93.246872
  0
VERTEX
  5
8c8
  8
Layer_0
  10
53.086426
  20
93.040268
  0
VERTEX
  5
8c9
  8
Layer_0
  10
53.706543
  20
92.842758
  0
VERTEX
  5
8ca
  8
Layer_0
  10
54.313416
  20
92.662338
  0
VERTEX
  5
8cb
  8
Layer_0
  10
54.895874
  20
92.499527
  0
VERTEX
  5
8cc
  8
Layer_0
  10
55.482849
  20
92.353439
  0
VERTEX
  5
8cd
  8
Layer_0
  10
56.094238
  20
92.22316
  0
VERTEX
  5
8ce
  8
Layer_0
  10
56.708313
  20
92.103348
  0
VERTEX
  5
8cf
  8
Layer_0
  10
57.304321
  20
91.999557
  0
VERTEX
  5
8d0
  8
Layer_0
  10
57.589111
  20
91.952286
  0
VERTEX
  5
8d1
  8
Layer_0
  10
58.362976
  20
91.827652
  0
VERTEX
  5
8d2
  8
Layer_0
  10
58.583374
  20
91.79097
  0
VERTEX
  5
8d3
  8
Layer_0
  10
58.783081
  20
91.759842
  0
VERTEX
  5
8d4
  8
Layer_0
  10
59.059875
  20
91.710709
  0
SEQEND
  0
POLYLINE
  5
8d6
  8
Layer_0
  62
52
  66
1
  10
0
  20
0
  30
0
  0
VERTEX
  5
8d6
  8
Layer_0
  10
82.401672
  20
91.087845
  0
VERTEX
  5
8d7
  8
Layer_0
  10
82.414673
  20
91.325058
  0
VERTEX
  5
8d8
  8
Layer_0
  10
82.418945
  20
91.471725
  0
VERTEX
  5
8d9
  8
Layer_0
  10
82.431946
  20
91.648544
  0
VERTEX
  5
8da
  8
Layer_0
  10
82.45343
  20
91.851273
  0
VERTEX
  5
8db
  8
Layer_0
  10
82.496582
  20
92.088486
  0
VERTEX
  5
8dc
  8
Layer_0
  10
82.565613
  20
92.364548
  0
VERTEX
  5
8dd
  8
Layer_0
  10
82.669128
  20
92.679398
  0
VERTEX
  5
8de
  8
Layer_0
  10
82.802856
  20
93.041702
  0
VERTEX
  5
8df
  8
Layer_0
  10
82.95813
  20
93.455765
  0
VERTEX
  5
8e0
  8
Layer_0
  10
83.134888
  20
93.912949
  0
VERTEX
  5
8e1
  8
Layer_0
  10
83.337646
  20
94.396072
  0
VERTEX
  5
8e2
  8
Layer_0
  10
83.794861
  20
95.426895
  0
VERTEX
  5
8e3
  8
Layer_0
  10
84.329651
  20
96.474991
  0
VERTEX
  5
8e4
  8
Layer_0
  10
84.627319
  20
97.005539
  0
VERTEX
  5
8e5
  8
Layer_0
  10
84.942139
  20
97.561905
  0
VERTEX
  5
8e6
  8
Layer_0
  10
85.636597
  20
98.709244
  0
VERTEX
  5
8e7
  8
Layer_0
  10
86.395691
  20
99.860855
  0
VERTEX
  5
8e8
  8
Layer_0
  10
86.796875
  20
100.41722
  0
VERTEX
  5
8e9
  8
Layer_0
  10
87.206604
  20
100.95638
  0
VERTEX
  5
8ea
  8
Layer_0
  10
87.642212
  20
101.48259
  0
VERTEX
  5
8eb
  8
Layer_0
  10
88.103699
  20
102.00447
  0
VERTEX
  5
8ec
  8
Layer_0
  10
89.082825
  20
103.02669
  0
VERTEX
  5
8ed
  8
Layer_0
  10
90.066223
  20
103.99287
  0
VERTEX
  5
8ee
  8
Layer_0
  10
90.536316
  20
104.45006
  0
VERTEX
  5
8ef
  8
Layer_0
  10
90.976318
  20
104.88567
  0
VERTEX
  5
8f0
  8
Layer_0
  10
91.813049
  20
105.69655
  0
VERTEX
  5
8f1
  8
Layer_0
  10
92.615295
  20
106.44704
  0
VERTEX
  5
8f2
  8
Layer_0
  10
92.99054
  20
106.79213
  0
VERTEX
  5
8f3
  8
Layer_0
  10
93.965332
  20
107.69356
  0
VERTEX
  5
8f4
  8
Layer_0
  10
94.228455
  20
107.94374
  0
VERTEX
  5
8f5
  8
Layer_0
  10
94.461304
  20
108.17232
  0
VERTEX
  5
8f6
  8
Layer_0
  10
94.668396
  20
108.37938
  0
VERTEX
  5
8f7
  8
Layer_0
  10
94.849548
  20
108.56483
  0
VERTEX
  5
8f8
  8
Layer_0
  10
95.177307
  20
108.87108
  0
VERTEX
  5
8f9
  8
Layer_0
  10
95.474976
  20
109.09535
  0
VERTEX
  5
8fa
  8
Layer_0
  10
95.750977
  20
109.23769
  0
VERTEX
  5
8fb
  8
Layer_0
  10
95.983887
  20
109.29808
  0
VERTEX
  5
8fc
  8
Layer_0
  10
96.190918
  20
109.2722
  0
VERTEX
  5
8fd
  8
Layer_0
  10
96.38501
  20
109.17729
  0
VERTEX
  5
8fe
  8
Layer_0
  10
96.566162
  20
109.00047
  0
VERTEX
  5
8ff
  8
Layer_0
  10
96.730042
  20
108.74599
  0
VERTEX
  5
900
  8
Layer_0
  10
96.885315
  20
108.41817
  0
VERTEX
  5
901
  8
Layer_0
  10
97.049255
  20
108.03001
  0
VERTEX
  5
902
  8
Layer_0
  10
97.135498
  20
107.79707
  0
VERTEX
  5
903
  8
Layer_0
  10
97.221741
  20
107.53398
  0
VERTEX
  5
904
  8
Layer_0
  10
97.571167
  20
106.34355
  0
VERTEX
  5
905
  8
Layer_0
  10
97.661743
  20
106.06752
  0
VERTEX
  5
906
  8
Layer_0
  10
97.752258
  20
105.81734
  0
VERTEX
  5
907
  8
Layer_0
  10
97.929138
  20
105.37306
  0
VERTEX
  5
908
  8
Layer_0
  10
98.106018
  20
104.97627
  0
VERTEX
  5
909
  8
Layer_0
  10
98.291443
  20
104.62257
  0
VERTEX
  5
90a
  8
Layer_0
  10
98.485535
  20
104.3293
  0
VERTEX
  5
90b
  8
Layer_0
  10
98.666687
  20
104.08345
  0
VERTEX
  5
90c
  8
Layer_0
  10
98.8349
  20
103.88933
  0
VERTEX
  5
90d
  8
Layer_0
  10
99.050537
  20
103.75563
  0
VERTEX
  5
90e
  8
Layer_0
  10
99.192932
  20
103.71251
  0
VERTEX
  5
90f
  8
Layer_0
  10
99.365417
  20
103.68663
  0
VERTEX
  5
910
  8
Layer_0
  10
99.77948
  20
103.69527
  0
VERTEX
  5
911
  8
Layer_0
  10
100.27124
  20
103.7729
  0
VERTEX
  5
912
  8
Layer_0
  10
100.84052
  20
103.9066
  0
VERTEX
  5
913
  8
Layer_0
  10
101.49182
  20
104.08775
  0
VERTEX
  5
914
  8
Layer_0
  10
101.85413
  20
104.19557
  0
VERTEX
  5
915
  8
Layer_0
  10
102.24231
  20
104.32497
  0
VERTEX
  5
916
  8
Layer_0
  10
103.08337
  20
104.61827
  0
VERTEX
  5
917
  8
Layer_0
  10
104.87329
  20
105.27818
  0
VERTEX
  5
918
  8
Layer_0
  10
105.83942
  20
105.64479
  0
VERTEX
  5
919
  8
Layer_0
  10
106.87463
  20
106.04164
  0
VERTEX
  5
91a
  8
Layer_0
  10
108.61285
  20
106.7188
  0
VERTEX
  5
91b
  8
Layer_0
  10
108.89319
  20
106.83525
  0
VERTEX
  5
91c
  8
Layer_0
  10
109.12183
  20
106.93443
  0
VERTEX
  5
91d
  8
Layer_0
  10
109.44531
  20
107.08974
  0
VERTEX
  5
91e
  8
Layer_0
  10
109.67389
  20
107.19756
  0
VERTEX
  5
91f
  8
Layer_0
  10
109.88525
  20
107.26656
  0
VERTEX
  5
920
  8
Layer_0
  10
110.08795
  20
107.29677
  0
VERTEX
  5
921
  8
Layer_0
  10
110.23895
  20
107.29243
  0
VERTEX
  5
922
  8
Layer_0
  10
110.35974
  20
107.24068
  0
VERTEX
  5
923
  8
Layer_0
  10
110.46759
  20
107.1458
  0
VERTEX
  5
924
  8
Layer_0
  10
110.57538
  20
106.99052
  0
VERTEX
  5
925
  8
Layer_0
  10
110.66595
  20
106.7878
  0
VERTEX
  5
926
  8
Layer_0
  10
110.73492
  20
106.55919
  0
VERTEX
  5
927
  8
Layer_0
  10
110.7738
  20
106.34355
  0
VERTEX
  5
928
  8
Layer_0
  10
110.7738
  20
106.1624
  0
VERTEX
  5
929
  8
Layer_0
  10
110.74359
  20
105.98985
  0
VERTEX
  5
92a
  8
Layer_0
  10
110.69177
  20
105.79579
  0
VERTEX
  5
92b
  8
Layer_0
  10
110.63574
  20
105.55424
  0
VERTEX
  5
92c
  8
Layer_0
  10
110.57538
  20
105.25664
  0
VERTEX
  5
92d
  8
Layer_0
  10
110.51062
  20
104.91154
  0
VERTEX
  5
92e
  8
Layer_0
  10
110.43732
  20
104.54063
  0
VERTEX
  5
92f
  8
Layer_0
  10
110.36829
  20
104.15245
  0
VERTEX
  5
930
  8
Layer_0
  10
110.29932
  20
103.74269
  0
VERTEX
  5
931
  8
Layer_0
  10
110.23035
  20
103.30708
  0
VERTEX
  5
932
  8
Layer_0
  10
110.16986
  20
102.87144
  0
VERTEX
  5
933
  8
Layer_0
  10
110.1311
  20
102.45735
  0
VERTEX
  5
934
  8
Layer_0
  10
110.1225
  20
102.04332
  0
VERTEX
  5
935
  8
Layer_0
  10
110.13544
  20
101.62492
  0
VERTEX
  5
936
  8
Layer_0
  10
110.14832
  20
101.43513
  0
VERTEX
  5
937
  8
Layer_0
  10
110.15692
  20
101.26262
  0
VERTEX
  5
938
  8
Layer_0
  10
110.16986
  20
101.12029
  0
VERTEX
  5
939
  8
Layer_0
  10
110.17419
  20
101.00813
  0
SEQEND
  0
POLYLINE
  5
93b
  8
Layer_2
  62
0
  66
1
  10
0
  20
0
  30
0
  0
VERTEX
  5
93b
  8
Layer_2
  10
110.1441
  20
127.46516
  0
VERTEX
  5
93c
  8
Layer_2
  10
110.57538
  20
127.37029
  0
VERTEX
  5
93d
  8
Layer_2
  10
110.87299
  20
127.31853
  0
VERTEX
  5
93e
  8
Layer_2
  10
111.20081
  20
127.29265
  0
VERTEX
  5
93f
  8
Layer_2
  10
111.54584
  20
127.30128
  0
VERTEX
  5
940
  8
Layer_2
  10
111.91675
  20
127.32716
  0
VERTEX
  5
941
  8
Layer_2
  10
112.33081
  20
127.37459
  0
VERTEX
  5
942
  8
Layer_2
  10
112.8053
  20
127.43929
  0
VERTEX
  5
943
  8
Layer_2
  10
113.39178
  20
127.52986
  0
VERTEX
  5
944
  8
Layer_2
  10
114.0647
  20
127.64632
  0
VERTEX
  5
945
  8
Layer_2
  10
114.72028
  20
127.77141
  0
VERTEX
  5
946
  8
Layer_2
  10
115.01355
  20
127.83611
  0
VERTEX
  5
947
  8
Layer_2
  10
115.25946
  20
127.9008
  0
VERTEX
  5
948
  8
Layer_2
  10
115.65625
  20
128.03453
  0
VERTEX
  5
949
  8
Layer_2
  10
115.96686
  20
128.18117
  0
VERTEX
  5
94a
  8
Layer_2
  10
116.36365
  20
128.40544
  0
SEQEND
  0
POLYLINE
  5
94c
  8
Layer_0
  62
52
  66
1
  10
0
  20
0
  30
0
  0
VERTEX
  5
94c
  8
Layer_0
  10
79.38678
  20
154.69859
  0
VERTEX
  5
94d
  8
Layer_0
  10
79.636963
  20
154.65544
  0
VERTEX
  5
94e
  8
Layer_0
  10
80.348633
  20
154.52171
  0
VERTEX
  5
94f
  8
Layer_0
  10
81.250061
  20
154.36214
  0
VERTEX
  5
950
  8
Layer_0
  10
81.728882
  20
154.2802
  0
VERTEX
  5
951
  8
Layer_0
  10
82.207642
  20
154.20686
  0
VERTEX
  5
952
  8
Layer_0
  10
82.669128
  20
154.14647
  0
VERTEX
  5
953
  8
Layer_0
  10
83.579163
  20
154.03435
  0
VERTEX
  5
954
  8
Layer_0
  10
84.523804
  20
153.93513
  0
VERTEX
  5
955
  8
Layer_0
  10
85.515808
  20
153.8532
  0
VERTEX
  5
956
  8
Layer_0
  10
86.563904
  20
153.80144
  0
VERTEX
  5
957
  8
Layer_0
  10
87.124634
  20
153.78847
  0
VERTEX
  5
958
  8
Layer_0
  10
87.715576
  20
153.78416
  0
VERTEX
  5
959
  8
Layer_0
  10
88.949097
  20
153.7928
  0
VERTEX
  5
95a
  8
Layer_0
  10
90.182678
  20
153.82732
  0
VERTEX
  5
95b
  8
Layer_0
  10
90.769287
  20
153.84886
  0
VERTEX
  5
95c
  8
Layer_0
  10
91.329956
  20
153.87474
  0
VERTEX
  5
95d
  8
Layer_0
  10
92.378052
  20
153.93513
  0
VERTEX
  5
95e
  8
Layer_0
  10
93.370117
  20
154.01711
  0
VERTEX
  5
95f
  8
Layer_0
  10
94.310364
  20
154.12059
  0
VERTEX
  5
960
  8
Layer_0
  10
95.198914
  20
154.23708
  0
VERTEX
  5
961
  8
Layer_0
  10
95.617249
  20
154.30174
  0
VERTEX
  5
962
  8
Layer_0
  10
96.005493
  20
154.36647
  0
VERTEX
  5
963
  8
Layer_0
  10
96.742981
  20
154.51311
  0
VERTEX
  5
964
  8
Layer_0
  10
97.467651
  20
154.68132
  0
VERTEX
  5
965
  8
Layer_0
  10
98.231018
  20
154.87971
  0
VERTEX
  5
966
  8
Layer_0
  10
98.658081
  20
155.00047
  0
VERTEX
  5
967
  8
Layer_0
  10
99.119568
  20
155.1385
  0
VERTEX
  5
968
  8
Layer_0
  10
100.07709
  20
155.44044
  0
VERTEX
  5
969
  8
Layer_0
  10
100.5343
  20
155.59138
  0
VERTEX
  5
96a
  8
Layer_0
  10
100.95697
  20
155.73372
  0
VERTEX
  5
96b
  8
Layer_0
  10
101.61694
  20
155.96663
  0
VERTEX
  5
96c
  8
Layer_0
  10
101.83258
  20
156.04857
  0
VERTEX
  5
96d
  8
Layer_0
  10
101.97919
  20
156.12193
  0
VERTEX
  5
96e
  8
Layer_0
  10
102.07843
  20
156.17799
  0
VERTEX
  5
96f
  8
Layer_0
  10
102.13879
  20
156.22112
  0
VERTEX
  5
970
  8
Layer_0
  10
102.16895
  20
156.25996
  0
VERTEX
  5
971
  8
Layer_0
  10
102.18622
  20
156.29012
  0
VERTEX
  5
972
  8
Layer_0
  10
102.2337
  20
156.3419
  0
SEQEND
  0
POLYLINE
  5
974
  8
Layer_0
  62
52
  66
1
  10
0
  20
0
  30
0
  0
VERTEX
  5
974
  8
Layer_0
  10
64.614136
  20
173.30562
  0
VERTEX
  5
975
  8
Layer_0
  10
64.803955
  20
173.39189
  0
VERTEX
  5
976
  8
Layer_0
  10
64.941956
  20
173.44795
  0
VERTEX
  5
977
  8
Layer_0
  10
65.101563
  20
173.50835
  0
VERTEX
  5
978
  8
Layer_0
  10
65.282715
  20
173.56441
  0
VERTEX
  5
979
  8
Layer_0
  10
65.718384
  20
173.68086
  0
VERTEX
  5
97a
  8
Layer_0
  10
65.981445
  20
173.7542
  0
VERTEX
  5
97b
  8
Layer_0
  10
66.279053
  20
173.83183
  0
VERTEX
  5
97c
  8
Layer_0
  10
66.611145
  20
173.92238
  0
VERTEX
  5
97d
  8
Layer_0
  10
67.732605
  20
174.21999
  0
VERTEX
  5
97e
  8
Layer_0
  10
68.181152
  20
174.33214
  0
VERTEX
  5
97f
  8
Layer_0
  10
68.746155
  20
174.48311
  0
VERTEX
  5
980
  8
Layer_0
  10
68.866943
  20
174.51329
  0
SEQEND
  0
POLYLINE
  5
982
  8
Layer_0
  62
52
  66
1
  10
0
  20
0
  30
0
  0
VERTEX
  5
982
  8
Layer_0
  10
59.39093
  20
178.03285
  0
VERTEX
  5
983
  8
Layer_0
  10
59.179565
  20
177.39021
  0
VERTEX
  5
984
  8
Layer_0
  10
59.097595
  20
177.13139
  0
VERTEX
  5
985
  8
Layer_0
  10
59.019958
  20
176.85106
  0
VERTEX
  5
986
  8
Layer_0
  10
58.937988
  20
176.54482
  0
VERTEX
  5
987
  8
Layer_0
  10
58.864685
  20
176.26015
  0
VERTEX
  5
988
  8
Layer_0
  10
58.8302
  20
176.13936
  0
VERTEX
  5
989
  8
Layer_0
  10
58.765503
  20
175.88921
  0
VERTEX
  5
98a
  8
Layer_0
  10
58.743958
  20
175.79863
  0
VERTEX
  5
98b
  8
Layer_0
  10
58.726685
  20
175.74257
  0
VERTEX
  5
98c
  8
Layer_0
  10
58.718018
  20
175.69942
  0
SEQEND
  0
POLYLINE
  5
98e
  8
Layer_1
  62
30
  70
1
  66
1
  10
0
  20
0
  30
0
  0
VERTEX
  5
98e
  8
Layer_1
  10
59.619507
  20
191.05003
  0
VERTEX
  5
98f
  8
Layer_1
  10
59.602234
  20
190.93355
  0
VERTEX
  5
990
  8
Layer_1
  10
59.610901
  20
190.81709
  0
VERTEX
  5
991
  8
Layer_1
  10
59.701416
  20
190.60143
  0
VERTEX
  5
992
  8
Layer_1
  10
59.873962
  20
190.42458
  0
VERTEX
  5
993
  8
Layer_1
  10
60.111206
  20
190.31242
  0
VERTEX
  5
994
  8
Layer_1
  10
60.374329
  20
190.29091
  0
VERTEX
  5
995
  8
Layer_1
  10
60.611511
  20
190.35561
  0
VERTEX
  5
996
  8
Layer_1
  10
60.796997
  20
190.49791
  0
VERTEX
  5
997
  8
Layer_1
  10
60.904846
  20
190.70494
  0
VERTEX
  5
998
  8
Layer_1
  10
60.922119
  20
190.82143
  0
VERTEX
  5
999
  8
Layer_1
  10
60.913452
  20
190.93788
  0
VERTEX
  5
99a
  8
Layer_1
  10
60.827148
  20
191.15355
  0
VERTEX
  5
99b
  8
Layer_1
  10
60.654663
  20
191.32607
  0
VERTEX
  5
99c
  8
Layer_1
  10
60.413147
  20
191.43822
  0
VERTEX
  5
99d
  8
Layer_1
  10
60.150024
  20
191.45976
  0
VERTEX
  5
99e
  8
Layer_1
  10
59.917114
  20
191.39503
  0
VERTEX
  5
99f
  8
Layer_1
  10
59.731689
  20
191.25703
  0
VERTEX
  5
9a0
  8
Layer_1
  10
59.619507
  20
191.05003
  0
SEQEND
  0
POLYLINE
  5
9a2
  8
Layer_1
  62
30
  70
1
  66
1
  10
0
  20
0
  30
0
  0
VERTEX
  5
9a2
  8
Layer_1
  10
89.026733
  20
179.87459
  0
VERTEX
  5
9a3
  8
Layer_1
  10
89.009521
  20
179.75813
  0
VERTEX
  5
9a4
  8
Layer_1
  10
89.018066
  20
179.64168
  0
VERTEX
  5
9a5
  8
Layer_1
  10
89.10437
  20
179.42601
  0
VERTEX
  5
9a6
  8
Layer_1
  10
89.276917
  20
179.24919
  0
VERTEX
  5
9a7
  8
Layer_1
  10
89.518433
  20
179.13704
  0
VERTEX
  5
9a8
  8
Layer_1
  10
89.781555
  20
179.11546
  0
VERTEX
  5
9a9
  8
Layer_1
  10
90.014465
  20
179.18016
  0
VERTEX
  5
9aa
  8
Layer_1
  10
90.19989
  20
179.32249
  0
VERTEX
  5
9ab
  8
Layer_1
  10
90.312073
  20
179.52953
  0
VERTEX
  5
9ac
  8
Layer_1
  10
90.329346
  20
179.64598
  0
VERTEX
  5
9ad
  8
Layer_1
  10
90.320679
  20
179.76244
  0
VERTEX
  5
9ae
  8
Layer_1
  10
90.230103
  20
179.9781
  0
VERTEX
  5
9af
  8
Layer_1
  10
90.057556
  20
180.15062
  0
VERTEX
  5
9b0
  8
Layer_1
  10
89.816101
  20
180.26277
  0
VERTEX
  5
9b1
  8
Layer_1
  10
89.552917
  20
180.28432
  0
VERTEX
  5
9b2
  8
Layer_1
  10
89.320068
  20
180.21965
  0
VERTEX
  5
9b3
  8
Layer_1
  10
89.134583
  20
180.08162
  0
VERTEX
  5
9b4
  8
Layer_1
  10
89.026733
  20
179.87459
  0
SEQEND
  0
POLYLINE
  5
9b6
  8
Layer_0
  62
52
  66
1
  10
0
  20
0
  30
0
  0
VERTEX
  5
9b6
  8
Layer_0
  10
101.95331
  20
130.96315
  0
VERTEX
  5
9b7
  8
Layer_0
  10
101.83258
  20
131.06667
  0
VERTEX
  5
9b8
  8
Layer_0
  10
101.67731
  20
131.2047
  0
VERTEX
  5
9b9
  8
Layer_0
  10
101.48749
  20
131.36427
  0
VERTEX
  5
9ba
  8
Layer_0
  10
101.28046
  20
131.54112
  0
VERTEX
  5
9bb
  8
Layer_0
  10
100.83191
  20
131.95085
  0
VERTEX
  5
9bc
  8
Layer_0
  10
100.39624
  20
132.39082
  0
VERTEX
  5
9bd
  8
Layer_0
  10
99.982239
  20
132.85234
  0
VERTEX
  5
9be
  8
Layer_0
  10
99.550903
  20
133.34834
  0
VERTEX
  5
9bf
  8
Layer_0
  10
99.128235
  20
133.90907
  0
VERTEX
  5
9c0
  8
Layer_0
  10
98.921204
  20
134.21959
  0
VERTEX
  5
9c1
  8
Layer_0
  10
98.722717
  20
134.55171
  0
VERTEX
  5
9c2
  8
Layer_0
  10
98.52002
  20
134.91402
  0
VERTEX
  5
9c3
  8
Layer_0
  10
98.312988
  20
135.3022
  0
VERTEX
  5
9c4
  8
Layer_0
  10
97.898987
  20
136.13896
  0
VERTEX
  5
9c5
  8
Layer_0
  10
97.709167
  20
136.57893
  0
VERTEX
  5
9c6
  8
Layer_0
  10
97.540955
  20
137.02748
  0
VERTEX
  5
9c7
  8
Layer_0
  10
97.402954
  20
137.48036
  0
VERTEX
  5
9c8
  8
Layer_0
  10
97.299438
  20
137.92894
  0
VERTEX
  5
9c9
  8
Layer_0
  10
97.234741
  20
138.37752
  0
VERTEX
  5
9ca
  8
Layer_0
  10
97.200256
  20
138.8304
  0
VERTEX
  5
9cb
  8
Layer_0
  10
97.191589
  20
139.28758
  0
VERTEX
  5
9cc
  8
Layer_0
  10
97.208801
  20
139.7491
  0
VERTEX
  5
9cd
  8
Layer_0
  10
97.286499
  20
140.70232
  0
VERTEX
  5
9ce
  8
Layer_0
  10
97.398621
  20
141.68571
  0
VERTEX
  5
9cf
  8
Layer_0
  10
97.528015
  20
142.67772
  0
VERTEX
  5
9d0
  8
Layer_0
  10
97.691895
  20
143.68272
  0
VERTEX
  5
9d1
  8
Layer_0
  10
97.799744
  20
144.20894
  0
VERTEX
  5
9d2
  8
Layer_0
  10
97.924805
  20
144.7567
  0
VERTEX
  5
9d3
  8
Layer_0
  10
98.075745
  20
145.33897
  0
VERTEX
  5
9d4
  8
Layer_0
  10
98.256958
  20
145.96007
  0
VERTEX
  5
9d5
  8
Layer_0
  10
98.481262
  20
146.63725
  0
VERTEX
  5
9d6
  8
Layer_0
  10
98.744324
  20
147.3748
  0
VERTEX
  5
9d7
  8
Layer_0
  10
99.037659
  20
148.15547
  0
VERTEX
  5
9d8
  8
Layer_0
  10
99.348206
  20
148.95341
  0
VERTEX
  5
9d9
  8
Layer_0
  10
99.667358
  20
149.75136
  0
VERTEX
  5
9da
  8
Layer_0
  10
99.982239
  20
150.53203
  0
VERTEX
  5
9db
  8
Layer_0
  10
100.27551
  20
151.27391
  0
VERTEX
  5
9dc
  8
Layer_0
  10
100.54297
  20
151.9597
  0
VERTEX
  5
9dd
  8
Layer_0
  10
101.02173
  20
153.19759
  0
VERTEX
  5
9de
  8
Layer_0
  10
101.24597
  20
153.77122
  0
VERTEX
  5
9df
  8
Layer_0
  10
101.86273
  20
155.36711
  0
VERTEX
  5
9e0
  8
Layer_0
  10
102.2337
  20
156.3419
  0
VERTEX
  5
9e1
  8
Layer_0
  10
102.39758
  20
156.78615
  0
VERTEX
  5
9e2
  8
Layer_0
  10
102.54852
  20
157.17867
  0
VERTEX
  5
9e3
  8
Layer_0
  10
102.81171
  20
157.8903
  0
VERTEX
  5
9e4
  8
Layer_0
  10
102.94104
  20
158.24831
  0
VERTEX
  5
9e5
  8
Layer_0
  10
103.07043
  20
158.62788
  0
VERTEX
  5
9e6
  8
Layer_0
  10
103.20844
  20
159.05489
  0
VERTEX
  5
9e7
  8
Layer_0
  10
103.35944
  20
159.54228
  0
VERTEX
  5
9e8
  8
Layer_0
  10
103.52765
  20
160.10728
  0
VERTEX
  5
9e9
  8
Layer_0
  10
103.71313
  20
160.74565
  0
VERTEX
  5
9ea
  8
Layer_0
  10
103.90717
  20
161.42281
  0
VERTEX
  5
9eb
  8
Layer_0
  10
104.10565
  20
162.13017
  0
VERTEX
  5
9ec
  8
Layer_0
  10
104.29968
  20
162.83754
  0
VERTEX
  5
9ed
  8
Layer_0
  10
104.48083
  20
163.52333
  0
VERTEX
  5
9ee
  8
Layer_0
  10
104.64899
  20
164.1703
  0
VERTEX
  5
9ef
  8
Layer_0
  10
104.79138
  20
164.75261
  0
VERTEX
  5
9f0
  8
Layer_0
  10
104.90784
  20
165.27446
  0
VERTEX
  5
9f1
  8
Layer_0
  10
105.00702
  20
165.75755
  0
VERTEX
  5
9f2
  8
Layer_0
  10
105.09326
  20
166.21043
  0
VERTEX
  5
9f3
  8
Layer_0
  10
105.16669
  20
166.63747
  0
VERTEX
  5
9f4
  8
Layer_0
  10
105.29596
  20
167.44402
  0
VERTEX
  5
9f5
  8
Layer_0
  10
105.41675
  20
168.23332
  0
VERTEX
  5
9f6
  8
Layer_0
  10
105.54614
  20
168.99242
  0
VERTEX
  5
9f7
  8
Layer_0
  10
105.66266
  20
169.70412
  0
VERTEX
  5
9f8
  8
Layer_0
  10
105.76184
  20
170.39421
  0
VERTEX
  5
9f9
  8
Layer_0
  10
105.83514
  20
171.10591
  0
VERTEX
  5
9fa
  8
Layer_0
  10
105.89124
  20
171.83916
  0
VERTEX
  5
9fb
  8
Layer_0
  10
105.93439
  20
172.57668
  0
VERTEX
  5
9fc
  8
Layer_0
  10
105.94727
  20
173.31856
  0
VERTEX
  5
9fd
  8
Layer_0
  10
105.92145
  20
174.05611
  0
VERTEX
  5
9fe
  8
Layer_0
  10
105.84375
  20
174.81953
  0
VERTEX
  5
9ff
  8
Layer_0
  10
105.72308
  20
175.60454
  0
VERTEX
  5
a00
  8
Layer_0
  10
105.64966
  20
175.98842
  0
VERTEX
  5
a01
  8
Layer_0
  10
105.57642
  20
176.34639
  0
VERTEX
  5
a02
  8
Layer_0
  10
105.49445
  20
176.68285
  0
VERTEX
  5
a03
  8
Layer_0
  10
105.41675
  20
176.98476
  0
VERTEX
  5
a04
  8
Layer_0
  10
105.33484
  20
177.24355
  0
VERTEX
  5
a05
  8
Layer_0
  10
105.2486
  20
177.46782
  0
VERTEX
  5
a06
  8
Layer_0
  10
105.15369
  20
177.66194
  0
VERTEX
  5
a07
  8
Layer_0
  10
105.05884
  20
177.84306
  0
VERTEX
  5
a08
  8
Layer_0
  10
104.86041
  20
178.17949
  0
VERTEX
  5
a09
  8
Layer_0
  10
104.76544
  20
178.36067
  0
VERTEX
  5
a0a
  8
Layer_0
  10
104.67059
  20
178.55907
  0
VERTEX
  5
a0b
  8
Layer_0
  10
104.47217
  20
179.01625
  0
VERTEX
  5
a0c
  8
Layer_0
  10
104.26947
  20
179.50795
  0
VERTEX
  5
a0d
  8
Layer_0
  10
104.08838
  20
179.9781
  0
VERTEX
  5
a0e
  8
Layer_0
  10
104.01495
  20
180.18513
  0
VERTEX
  5
a0f
  8
Layer_0
  10
103.95892
  20
180.37059
  0
VERTEX
  5
a10
  8
Layer_0
  10
103.88568
  20
180.67253
  0
VERTEX
  5
a11
  8
Layer_0
  10
103.85974
  20
180.91838
  0
VERTEX
  5
a12
  8
Layer_0
  10
103.87268
  20
181.11247
  0
VERTEX
  5
a13
  8
Layer_0
  10
103.9115
  20
181.27205
  0
VERTEX
  5
a14
  8
Layer_0
  10
103.97192
  20
181.3885
  0
VERTEX
  5
a15
  8
Layer_0
  10
104.06244
  20
181.46184
  0
VERTEX
  5
a16
  8
Layer_0
  10
104.19189
  20
181.5136
  0
VERTEX
  5
a17
  8
Layer_0
  10
104.36865
  20
181.55672
  0
VERTEX
  5
a18
  8
Layer_0
  10
104.59296
  20
181.59987
  0
VERTEX
  5
a19
  8
Layer_0
  10
104.85614
  20
181.63435
  0
VERTEX
  5
a1a
  8
Layer_0
  10
105.17096
  20
181.65163
  0
VERTEX
  5
a1b
  8
Layer_0
  10
105.54614
  20
181.64729
  0
VERTEX
  5
a1c
  8
Layer_0
  10
105.76611
  20
181.63002
  0
VERTEX
  5
a1d
  8
Layer_0
  10
106.01636
  20
181.59987
  0
VERTEX
  5
a1e
  8
Layer_0
  10
107.12054
  20
181.43596
  0
VERTEX
  5
a1f
  8
Layer_0
  10
107.36633
  20
181.40578
  0
VERTEX
  5
a20
  8
Layer_0
  10
107.58197
  20
181.3885
  0
VERTEX
  5
a21
  8
Layer_0
  10
107.93567
  20
181.3842
  0
VERTEX
  5
a22
  8
Layer_0
  10
108.22461
  20
181.41008
  0
VERTEX
  5
a23
  8
Layer_0
  10
108.46185
  20
181.45753
  0
VERTEX
  5
a24
  8
Layer_0
  10
108.66461
  20
181.52654
  0
VERTEX
  5
a25
  8
Layer_0
  10
108.81989
  20
181.61278
  0
VERTEX
  5
a26
  8
Layer_0
  10
108.9234
  20
181.72493
  0
VERTEX
  5
a27
  8
Layer_0
  10
109.11316
  20
182.02254
  0
VERTEX
  5
a28
  8
Layer_0
  10
109.25555
  20
182.22957
  0
VERTEX
  5
a29
  8
Layer_0
  10
109.40643
  20
182.47542
  0
VERTEX
  5
a2a
  8
Layer_0
  10
109.55743
  20
182.7256
  0
VERTEX
  5
a2b
  8
Layer_0
  10
109.68683
  20
182.95418
  0
VERTEX
  5
a2c
  8
Layer_0
  10
109.78607
  20
183.14827
  0
VERTEX
  5
a2d
  8
Layer_0
  10
109.87231
  20
183.32942
  0
VERTEX
  5
a2e
  8
Layer_0
  10
109.94989
  20
183.50197
  0
VERTEX
  5
a2f
  8
Layer_0
  10
110.03625
  20
183.68742
  0
VERTEX
  5
a30
  8
Layer_0
  10
110.21735
  20
184.11876
  0
VERTEX
  5
a31
  8
Layer_0
  10
110.42438
  20
184.54143
  0
VERTEX
  5
a32
  8
Layer_0
  10
110.55811
  20
184.73552
  0
VERTEX
  5
a33
  8
Layer_0
  10
110.70905
  20
184.92097
  0
VERTEX
  5
a34
  8
Layer_0
  10
110.86432
  20
185.08922
  0
VERTEX
  5
a35
  8
Layer_0
  10
111.01093
  20
185.23155
  0
VERTEX
  5
a36
  8
Layer_0
  10
111.14032
  20
185.3437
  0
VERTEX
  5
a37
  8
Layer_0
  10
111.26978
  20
185.42995
  0
VERTEX
  5
a38
  8
Layer_0
  10
111.39484
  20
185.49034
  0
VERTEX
  5
a39
  8
Layer_0
  10
111.5329
  20
185.52052
  0
VERTEX
  5
a3a
  8
Layer_0
  10
111.6795
  20
185.52052
  0
VERTEX
  5
a3b
  8
Layer_0
  10
111.83484
  20
185.48601
  0
VERTEX
  5
a3c
  8
Layer_0
  10
112.15833
  20
185.35231
  0
VERTEX
  5
a3d
  8
Layer_0
  10
112.34808
  20
185.24879
  0
VERTEX
  5
a3e
  8
Layer_0
  10
112.55939
  20
185.1151
  0
VERTEX
  5
a3f
  8
Layer_0
  10
112.75348
  20
184.98137
  0
VERTEX
  5
a40
  8
Layer_0
  10
112.96912
  20
184.83904
  0
VERTEX
  5
a41
  8
Layer_0
  10
113.008
  20
184.82179
  0
SEQEND
  0
ENDSEC
  0
EOF
