  0
SECTION
  2
HEADER
  9
$ACADVER
  1
AC1009
  9
$INSBASE
 10
0.0
 20
0.0
 30
0.0
  9
$EXTMIN
 10
1787.2116673527950752
 20
1799.8068358706850631
 30
0.0
  9
$EXTMAX
 10
2469.0411416387169083
 20
2228.7646667676540346
 30
0.0
  9
$LIMMIN
 10
0.0
 20
0.0
  9
$LIMMAX
 10
420.0
 20
297.0
  9
$ORTHOMODE
 70
     0
  9
$REGENMODE
 70
     1
  9
$FILLMODE
 70
     1
  9
$QTEXTMODE
 70
     0
  9
$MIRRTEXT
 70
     0
  9
$DRAGMODE
 70
     2
  9
$LTSCALE
 40
1.0
  9
$OSMODE
 70
  2479
  9
$ATTMODE
 70
     1
  9
$TEXTSIZE
 40
2.5
  9
$TRACEWID
 40
1.0
  9
$TEXTSTYLE
  7
STANDARD
  9
$CLAYER
  8
0
  9
$CELTYPE
  6
BYLAYER
  9
$CECOLOR
 62
   256
  9
$DIMSCALE
 40
1.0
  9
$DIMASZ
 40
2.5
  9
$DIMEXO
 40
0.625
  9
$DIMDLI
 40
3.75
  9
$DIMRND
 40
0.0
  9
$DIMDLE
 40
0.0
  9
$DIMEXE
 40
1.25
  9
$DIMTP
 40
0.0
  9
$DIMTM
 40
0.0
  9
$DIMTXT
 40
2.5
  9
$DIMCEN
 40
2.5
  9
$DIMTSZ
 40
0.0
  9
$DIMTOL
 70
     0
  9
$DIMLIM
 70
     0
  9
$DIMTIH
 70
     0
  9
$DIMTOH
 70
     0
  9
$DIMSE1
 70
     0
  9
$DIMSE2
 70
     0
  9
$DIMTAD
 70
     1
  9
$DIMZIN
 70
     8
  9
$DIMBLK
  1

  9
$DIMASO
 70
     1
  9
$DIMSHO
 70
     1
  9
$DIMPOST
  1

  9
$DIMAPOST
  1

  9
$DIMALT
 70
     0
  9
$DIMALTD
 70
     3
  9
$DIMALTF
 40
0.03937007874016
  9
$DIMLFAC
 40
1.0
  9
$DIMTOFL
 70
     1
  9
$DIMTVP
 40
0.0
  9
$DIMTIX
 70
     0
  9
$DIMSOXD
 70
     0
  9
$DIMSAH
 70
     0
  9
$DIMBLK1
  1

  9
$DIMBLK2
  1

  9
$DIMSTYLE
  2
ISO-25
  9
$DIMCLRD
 70
     0
  9
$DIMCLRE
 70
     0
  9
$DIMCLRT
 70
     0
  9
$DIMTFAC
 40
1.0
  9
$DIMGAP
 40
0.625
  9
$LUNITS
 70
     2
  9
$LUPREC
 70
     4
  9
$SKETCHINC
 40
1.0
  9
$FILLETRAD
 40
1.5
  9
$AUNITS
 70
     0
  9
$AUPREC
 70
     0
  9
$MENU
  1
.
  9
$ELEVATION
 40
0.0
  9
$PELEVATION
 40
0.0
  9
$THICKNESS
 40
0.0
  9
$LIMCHECK
 70
     0
  9
$BLIPMODE
 70
     0
  9
$CHAMFERA
 40
0.0
  9
$CHAMFERB
 40
0.0
  9
$SKPOLY
 70
     0
  9
$TDCREATE
 40
2459821.7553240740671754
  9
$TDUPDATE
 40
2459822.3527777781710029
  9
$TDINDWG
 40
0.1814930556
  9
$TDUSRTIMER
 40
0.1814930556
  9
$USRTIMER
 70
     1
  9
$ANGBASE
 50
0.0
  9
$ANGDIR
 70
     0
  9
$PDMODE
 70
     0
  9
$PDSIZE
 40
0.0
  9
$PLINEWID
 40
0.0
  9
$COORDS
 70
     1
  9
$SPLFRAME
 70
     0
  9
$SPLINETYPE
 70
     6
  9
$SPLINESEGS
 70
     8
  9
$ATTDIA
 70
     1
  9
$ATTREQ
 70
     1
  9
$HANDLING
 70
     1
  9
$HANDSEED
  5
107F
  9
$SURFTAB1
 70
     6
  9
$SURFTAB2
 70
     6
  9
$SURFTYPE
 70
     6
  9
$SURFU
 70
     6
  9
$SURFV
 70
     6
  9
$UCSNAME
  2

  9
$UCSORG
 10
0.0
 20
0.0
 30
0.0
  9
$UCSXDIR
 10
1.0
 20
0.0
 30
0.0
  9
$UCSYDIR
 10
0.0
 20
1.0
 30
0.0
  9
$PUCSNAME
  2

  9
$PUCSORG
 10
0.0
 20
0.0
 30
0.0
  9
$PUCSXDIR
 10
1.0
 20
0.0
 30
0.0
  9
$PUCSYDIR
 10
0.0
 20
1.0
 30
0.0
  9
$USERI1
 70
     0
  9
$USERI2
 70
     0
  9
$USERI3
 70
     0
  9
$USERI4
 70
     0
  9
$USERI5
 70
     0
  9
$USERR1
 40
0.0
  9
$USERR2
 40
0.0
  9
$USERR3
 40
0.0
  9
$USERR4
 40
0.0
  9
$USERR5
 40
0.0
  9
$WORLDVIEW
 70
     1
  9
$SHADEDGE
 70
     3
  9
$SHADEDIF
 70
    70
  9
$TILEMODE
 70
     1
  9
$MAXACTVP
 70
    64
  9
$PLIMCHECK
 70
     0
  9
$PEXTMIN
 10
0.0
 20
0.0
 30
0.0
  9
$PEXTMAX
 10
0.0
 20
0.0
 30
0.0
  9
$PLIMMIN
 10
0.0
 20
0.0
  9
$PLIMMAX
 10
12.0
 20
9.0
  9
$UNITMODE
 70
     0
  9
$VISRETAIN
 70
     1
  9
$PLINEGEN
 70
     0
  9
$PSLTSCALE
 70
     1
  0
ENDSEC
  0
SECTION
  2
TABLES
  0
TABLE
  2
VPORT
 70
     1
  0
VPORT
  2
*ACTIVE
 70
     0
 10
0.0
 20
0.0
 11
1.0
 21
1.0
 12
2223.149929337444064
 22
1880.0885379471710621
 13
0.0
 23
0.0
 14
10.0
 24
10.0
 15
10.0
 25
10.0
 16
0.0
 26
0.0
 36
1.0
 17
0.0
 27
0.0
 37
0.0
 40
763.3122932845939204
 41
2.501302083333333
 42
50.0
 43
0.0
 44
0.0
 50
0.0
 51
0.0
 71
     0
 72
  1000
 73
     1
 74
     3
 75
     0
 76
     1
 77
     0
 78
     0
  0
ENDTAB
  0
TABLE
  2
LTYPE
 70
     2
  0
LTYPE
  2
CONTINUOUS
 70
     0
  3
Solid line
 72
    65
 73
     0
 40
0.0
  0
ENDTAB
  0
TABLE
  2
LAYER
 70
     1
  0
LAYER
  2
0
 70
     0
 62
     7
  6
CONTINUOUS
  0
ENDTAB
  0
TABLE
  2
STYLE
 70
     2
  0
STYLE
  2
STANDARD
 70
     0
 40
0.0
 41
1.0
 50
0.0
 71
     0
 42
2.5
  3
txt
  4

  0
STYLE
  2
ANNOTATIVE
 70
     0
 40
0.0
 41
1.0
 50
0.0
 71
     0
 42
2.5
  3
txt
  4

  0
ENDTAB
  0
TABLE
  2
VIEW
 70
     0
  0
ENDTAB
  0
TABLE
  2
UCS
 70
     0
  0
ENDTAB
  0
TABLE
  2
APPID
 70
    11
  0
APPID
  2
ACAD
 70
     0
  0
APPID
  2
ACADANNOTATIVE
 70
     0
  0
APPID
  2
ACAD_PSEXT
 70
     0
  0
APPID
  2
ACADANNOPO
 70
     0
  0
APPID
  2
ACAD_DSTYLE_DIMJAG
 70
     0
  0
APPID
  2
ACAD_DSTYLE_DIMTALN
 70
     0
  0
APPID
  2
ACAD_MLEADERVER
 70
     0
  0
APPID
  2
ACAD_NAV_VCDISPLAY
 70
     0
  0
APPID
  2
ACAD_EXEMPT_FROM_CAD_STANDARDS
 70
     0
  0
APPID
  2
ACAD_DSTYLE_DIMRADIAL_EXTENSION
 70
     0
  0
APPID
  2
ACAD_TC
 70
     0
  0
ENDTAB
  0
TABLE
  2
DIMSTYLE
 70
     4
  0
DIMSTYLE
  2
STANDARD
 70
     0
  3

  4

  5

  6

  7

 40
1.0
 41
0.18
 42
0.0625
 43
0.38
 44
0.18
 45
0.0
 46
0.0
 47
0.0
 48
0.0
140
0.18
141
0.09
142
0.0
143
25.3999999999999986
144
1.0
145
0.0
146
1.0
147
0.09
 71
     0
 72
     0
 73
     1
 74
     1
 75
     0
 76
     0
 77
     0
 78
     0
170
     0
171
     2
172
     0
173
     0
174
     0
175
     0
176
     0
177
     0
178
     0
  0
DIMSTYLE
  2
ANNOTATIVE
 70
     0
  3

  4

  5

  6

  7

 40
0.0
 41
2.5
 42
0.625
 43
3.75
 44
1.25
 45
0.0
 46
0.0
 47
0.0
 48
0.0
140
2.5
141
2.5
142
0.0
143
0.03937007874016
144
1.0
145
0.0
146
1.0
147
0.625
 71
     0
 72
     0
 73
     0
 74
     0
 75
     0
 76
     0
 77
     1
 78
     8
170
     0
171
     3
172
     1
173
     0
174
     0
175
     0
176
     0
177
     0
178
     0
  0
DIMSTYLE
  2
ISO-25
 70
     0
  3

  4

  5

  6

  7

 40
1.0
 41
2.5
 42
0.625
 43
3.75
 44
1.25
 45
0.0
 46
0.0
 47
0.0
 48
0.0
140
2.5
141
2.5
142
0.0
143
0.03937007874016
144
1.0
145
0.0
146
1.0
147
0.625
 71
     0
 72
     0
 73
     0
 74
     0
 75
     0
 76
     0
 77
     1
 78
     8
170
     0
171
     3
172
     1
173
     0
174
     0
175
     0
176
     0
177
     0
178
     0
  0
ENDTAB
  0
ENDSEC
  0
SECTION
  2
BLOCKS
  0
BLOCK
  8
0
  2
$MODEL_SPACE
 70
     0
 10
0.0
 20
0.0
 30
0.0
  3
$MODEL_SPACE
  1

  0
ENDBLK
  5
F56
  8
0
  0
BLOCK
 67
     1
  8
0
  2
$PAPER_SPACE
 70
     0
 10
0.0
 20
0.0
 30
0.0
  3
$PAPER_SPACE
  1

  0
ENDBLK
  5
F52
 67
     1
  8
0
  0
BLOCK
  8
0
  2
A$C5CAA331D
 70
     0
 10
0.0
 20
0.0
 30
0.0
  3
A$C5CAA331D
  1

  0
LINE
  5
7B7
  8
0
 10
0.0
 20
0.0
 30
0.0
 11
0.0
 21
49.4974746830584991
 31
0.0
  0
ENDBLK
  5
7BA
  8
0
  0
BLOCK
  8
0
  2
A$CC41257A0
 70
     0
 10
0.0
 20
0.0
 30
0.0
  3
A$CC41257A0
  1

  0
LINE
  5
FB2
  8
0
 10
6.3580691609624864
 20
10.0000000000006803
 30
0.0
 11
9.1580691609626683
 21
10.0000000000006803
 31
0.0
  0
LINE
  5
FB3
  8
0
 10
9.1580691609626683
 20
10.0000000000006803
 30
0.0
 11
9.1580691609626683
 21
20.0000000000006786
 31
0.0
  0
LINE
  5
FB4
  8
0
 10
6.3580691609624864
 20
10.0000000000006803
 30
0.0
 11
6.3580691609624864
 21
20.0000000000006786
 31
0.0
  0
LINE
  5
FB5
  8
0
 10
0.2580691609625774
 20
0.0000000000006821
 30
0.0
 11
15.2580691609625703
 21
0.0000000000006821
 31
0.0
  0
ARC
  5
FB6
  8
0
 10
24.4730063242427605
 20
3.5446941651998709
 30
0.0
 40
24.4730063242426787
 50
137.7485175516200115
 51
188.3280706753197933
  0
ARC
  5
FB7
  8
0
 10
-8.9568680023176057
 20
3.5446941651998709
 30
0.0
 40
24.4730063242426787
 50
351.6719293246802067
 51
42.2514824483983205
  0
ENDBLK
  5
FBB
  8
0
  0
ENDSEC
  0
SECTION
  2
ENTITIES
  0
LINE
  5
3F1
  8
0
 10
2151.9791291687961348
 20
2135.0454229035399294
 30
0.0
 11
2151.9791291687961348
 21
2149.0454229035381104
 31
0.0
  0
LINE
  5
3F2
  8
0
 10
2154.7791291687958619
 20
2149.0454229035381104
 30
0.0
 11
2154.7791291687972262
 21
2135.0454229035399294
 31
0.0
  0
LINE
  5
415
  8
0
 10
2151.9791291687961348
 20
2149.0454229035381104
 30
0.0
 11
2154.7791291687958619
 21
2149.0454229035381104
 31
0.0
  0
LINE
  5
416
  8
0
 10
2151.9791291687961348
 20
2125.0454229035390199
 30
0.0
 11
2154.7791291687958619
 21
2125.0454229035390199
 31
0.0
  0
LINE
  5
42C
  8
0
 10
2176.5278665103269304
 20
2135.0454229035399294
 30
0.0
 11
2176.5278665103269304
 21
2149.0454229035381104
 31
0.0
  0
LINE
  5
42D
  8
0
 10
2173.7278665103272033
 20
2149.0454229035381104
 30
0.0
 11
2173.727866510325839
 21
2135.0454229035399294
 31
0.0
  0
LINE
  5
432
  8
0
 10
2176.5278665103269304
 20
2149.0454229035381104
 30
0.0
 11
2173.7278665103272033
 21
2149.0454229035381104
 31
0.0
  0
LINE
  5
433
  8
0
 10
2176.5278665103269304
 20
2125.0454229035390199
 30
0.0
 11
2173.7278665103272033
 21
2125.0454229035390199
 31
0.0
  0
LINE
  5
434
  8
0
 10
2151.9791291687961348
 20
2135.0454229035399294
 30
0.0
 11
2151.9791291687961348
 21
2125.0454229035390199
 31
0.0
  0
LINE
  5
435
  8
0
 10
2154.7791291687972262
 20
2135.0454229035399294
 30
0.0
 11
2154.7791291687981357
 21
2125.0454229035390199
 31
0.0
  0
LINE
  5
436
  8
0
 10
2173.7278665103272033
 20
2125.0454229035390199
 30
0.0
 11
2173.727866510325839
 21
2135.0454229035399294
 31
0.0
  0
LINE
  5
437
  8
0
 10
2176.5278665103269304
 20
2125.0454229035390199
 30
0.0
 11
2176.5278665103269304
 21
2135.0454229035399294
 31
0.0
  0
LINE
  5
44D
  8
0
 10
2156.7520291017149248
 20
2087.269612304086877
 30
0.0
 11
2156.7520291017149248
 21
2084.4696123040857856
 31
0.0
  0
LINE
  5
44E
  8
0
 10
2156.7520291017149248
 20
2065.5208749625571727
 30
0.0
 11
2156.7520291017149248
 21
2062.7208749625569908
 31
0.0
  0
LINE
  5
44F
  8
0
 10
2142.7520291017149248
 20
2087.269612304086877
 30
0.0
 11
2142.7520291017149248
 21
2084.4696123040871498
 31
0.0
  0
LINE
  5
450
  8
0
 10
2142.7520291017158343
 20
2065.5208749625571727
 30
0.0
 11
2142.7520291017158343
 21
2062.7208749625569908
 31
0.0
  0
LINE
  5
451
  8
0
 10
2142.7520291017149248
 20
2087.269612304086877
 30
0.0
 11
2156.7520291017149248
 21
2087.269612304086877
 31
0.0
  0
LINE
  5
452
  8
0
 10
2156.7520291017149248
 20
2084.4696123040857856
 30
0.0
 11
2142.7520291017149248
 21
2084.4696123040857856
 31
0.0
  0
LINE
  5
453
  8
0
 10
2156.7520291017149248
 20
2062.7208749625569908
 30
0.0
 11
2142.7520291017158343
 21
2062.7208749625569908
 31
0.0
  0
LINE
  5
454
  8
0
 10
2156.7520291017149248
 20
2065.5208749625571727
 30
0.0
 11
2142.7520291017158343
 21
2065.5208749625571727
 31
0.0
  0
LINE
  5
455
  8
0
 10
2164.7520291017158343
 20
2096.7439809748511834
 30
0.0
 11
2164.7520291017158343
 21
2099.5439809748518201
 31
0.0
  0
LINE
  5
456
  8
0
 10
2326.2929081718261841
 20
2097.158237153760183
 30
0.0
 11
2326.2929081718261841
 21
2099.9582371537599101
 31
0.0
  0
LINE
  5
45D
  8
0
 10
2326.2929081718261841
 20
2097.158237153760183
 30
0.0
 11
2323.4929081718260022
 21
2097.158237153760183
 31
0.0
  0
LINE
  5
467
  8
0
 10
2323.4929081718260022
 20
2097.158237153760183
 30
0.0
 11
2323.4929081718260022
 21
2087.158237153760183
 31
0.0
  0
LINE
  5
468
  8
0
 10
2323.4929081718260022
 20
2087.158237153760183
 30
0.0
 11
2326.2929081718261841
 21
2087.158237153760183
 31
0.0
  0
LINE
  5
469
  8
0
 10
2326.2929081718248199
 20
2053.6607624707007744
 30
0.0
 11
2323.4929081718260022
 21
2053.6607624707007744
 31
0.0
  0
LINE
  5
46A
  8
0
 10
2323.4929081718260022
 20
2053.6607624707007744
 30
0.0
 11
2323.4929081718260022
 21
2063.6607624707007744
 31
0.0
  0
LINE
  5
46B
  8
0
 10
2323.4929081718260022
 20
2063.6607624707007744
 30
0.0
 11
2326.2929081718248199
 21
2063.6607624707007744
 31
0.0
  0
LINE
  5
46C
  8
0
 10
2326.2929081718248199
 20
2063.6607624707007744
 30
0.0
 11
2326.2929081718261841
 21
2087.158237153760183
 31
0.0
  0
LINE
  5
46D
  8
0
 10
2326.2929081718248199
 20
2053.6607624707007744
 30
0.0
 11
2326.2929081718248199
 21
2050.8607624707010473
 31
0.0
  0
LINE
  5
4C0
  8
0
 10
2213.2885863644660276
 20
2057.2408246075769966
 30
0.0
 11
2213.2885863644660276
 21
2057.2408246075769966
 31
0.0
  0
LINE
  5
4CC
  8
0
 10
2203.4929081718260022
 20
2053.6607624707007744
 30
0.0
 11
2203.4929081718260022
 21
2063.6607624707007744
 31
0.0
  0
LINE
  5
4CD
  8
0
 10
2203.4929081718260022
 20
2063.6607624707007744
 30
0.0
 11
2200.6929081718249108
 21
2063.6607624707007744
 31
0.0
  0
LINE
  5
4CF
  8
0
 10
2203.4929081718260022
 20
2087.158237153760183
 30
0.0
 11
2200.6929081718249108
 21
2087.158237153760183
 31
0.0
  0
LINE
  5
4D0
  8
0
 10
2200.6929081718249108
 20
2087.158237153760183
 30
0.0
 11
2200.6929081718249108
 21
2063.6607624707007744
 31
0.0
  0
LINE
  5
4E9
  8
0
 10
2323.4929081718260022
 20
2050.8607624707010473
 30
0.0
 11
2323.4929081718260022
 21
2040.8607624707010473
 31
0.0
  0
LINE
  5
4EA
  8
0
 10
2323.4929081718260022
 20
2040.8607624707010473
 30
0.0
 11
2326.2929081718261841
 21
2040.8607624707010473
 31
0.0
  0
LINE
  5
4EB
  8
0
 10
2326.2929081718261841
 20
2040.8607624707010473
 30
0.0
 11
2326.2929081718261841
 21
2030.8607624706999104
 31
0.0
  0
LINE
  5
4EC
  8
0
 10
2326.2929081718261841
 20
2030.8607624706999104
 30
0.0
 11
2323.4929081718260022
 21
2030.8607624706999104
 31
0.0
  0
LINE
  5
4ED
  8
0
 10
2323.4929081718260022
 20
2030.8607624706999104
 30
0.0
 11
2323.4929081718260022
 21
2020.8607624707010473
 31
0.0
  0
LINE
  5
4EF
  8
0
 10
2326.2929081718261841
 20
2050.8607624707010473
 30
0.0
 11
2323.4929081718260022
 21
2050.8607624707010473
 31
0.0
  0
LINE
  5
4F2
  8
0
 10
2323.4929081718260022
 20
2020.8607624707010473
 30
0.0
 11
2203.4929081718260022
 21
2020.8607624707010473
 31
0.0
  0
LINE
  5
4F5
  8
0
 10
2323.4929081718260022
 20
2053.6607624707007744
 30
0.0
 11
2303.4929081718260022
 21
2053.6607624707007744
 31
0.0
  0
LINE
  5
4F6
  8
0
 10
2303.4929081718260022
 20
2053.6607624707007744
 30
0.0
 11
2303.4929081718260022
 21
2050.8607624707010473
 31
0.0
  0
LINE
  5
4F7
  8
0
 10
2303.4929081718260022
 20
2050.8607624707010473
 30
0.0
 11
2283.4929081718260022
 21
2050.8607624707010473
 31
0.0
  0
LINE
  5
4F8
  8
0
 10
2283.4929081718260022
 20
2050.8607624707010473
 30
0.0
 11
2283.4929081718260022
 21
2053.6607624707007744
 31
0.0
  0
LINE
  5
4F9
  8
0
 10
2283.4929081718260022
 20
2053.6607624707007744
 30
0.0
 11
2263.4929081718260022
 21
2053.6607624707007744
 31
0.0
  0
LINE
  5
4FA
  8
0
 10
2263.4929081718260022
 20
2053.6607624707007744
 30
0.0
 11
2263.4929081718260022
 21
2050.8607624707010473
 31
0.0
  0
LINE
  5
4FB
  8
0
 10
2263.4929081718260022
 20
2050.8607624707010473
 30
0.0
 11
2243.4929081718260022
 21
2050.8607624707010473
 31
0.0
  0
LINE
  5
4FC
  8
0
 10
2243.4929081718260022
 20
2050.8607624707010473
 30
0.0
 11
2243.4929081718260022
 21
2053.6607624707007744
 31
0.0
  0
LINE
  5
4FD
  8
0
 10
2243.4929081718260022
 20
2053.6607624707007744
 30
0.0
 11
2223.4929081718250927
 21
2053.6607624707007744
 31
0.0
  0
LINE
  5
4FE
  8
0
 10
2223.4929081718250927
 20
2053.6607624707007744
 30
0.0
 11
2223.4929081718250927
 21
2050.8607624707010473
 31
0.0
  0
LINE
  5
4FF
  8
0
 10
2223.4929081718250927
 20
2050.8607624707010473
 30
0.0
 11
2203.4929081718260022
 21
2050.8607624707010473
 31
0.0
  0
LINE
  5
512
  8
0
 10
2200.6929081718249108
 20
2050.8607624707010473
 30
0.0
 11
2223.4929081718250927
 21
2050.8607624707010473
 31
0.0
  0
LINE
  5
513
  8
0
 10
2223.4929081718250927
 20
2050.8607624707010473
 30
0.0
 11
2223.4929081718250927
 21
2053.6607624707007744
 31
0.0
  0
LINE
  5
514
  8
0
 10
2223.4929081718250927
 20
2053.6607624707007744
 30
0.0
 11
2243.4929081718260022
 21
2053.6607624707007744
 31
0.0
  0
LINE
  5
515
  8
0
 10
2243.4929081718260022
 20
2053.6607624707007744
 30
0.0
 11
2243.4929081718260022
 21
2050.8607624707010473
 31
0.0
  0
LINE
  5
516
  8
0
 10
2243.4929081718260022
 20
2050.8607624707010473
 30
0.0
 11
2263.4929081718260022
 21
2050.8607624707010473
 31
0.0
  0
LINE
  5
517
  8
0
 10
2263.4929081718260022
 20
2050.8607624707010473
 30
0.0
 11
2263.4929081718260022
 21
2053.6607624707007744
 31
0.0
  0
LINE
  5
518
  8
0
 10
2263.4929081718260022
 20
2053.6607624707007744
 30
0.0
 11
2283.4929081718260022
 21
2053.6607624707007744
 31
0.0
  0
LINE
  5
519
  8
0
 10
2283.4929081718260022
 20
2053.6607624707007744
 30
0.0
 11
2283.4929081718260022
 21
2050.8607624707010473
 31
0.0
  0
LINE
  5
51A
  8
0
 10
2283.4929081718260022
 20
2050.8607624707010473
 30
0.0
 11
2303.4929081718260022
 21
2050.8607624707010473
 31
0.0
  0
LINE
  5
51B
  8
0
 10
2303.4929081718260022
 20
2050.8607624707010473
 30
0.0
 11
2303.4929081718260022
 21
2053.6607624707007744
 31
0.0
  0
LINE
  5
51C
  8
0
 10
2303.4929081718260022
 20
2053.6607624707007744
 30
0.0
 11
2323.4929081718260022
 21
2053.6607624707007744
 31
0.0
  0
LINE
  5
51D
  8
0
 10
2203.4929081718260022
 20
2097.158237153760183
 30
0.0
 11
2203.4929081718260022
 21
2087.1582371537610925
 31
0.0
  0
LINE
  5
51E
  8
0
 10
2203.4929081718260022
 20
2099.9582371537608196
 30
0.0
 11
2223.4929081718250927
 21
2099.9582371537608196
 31
0.0
  0
LINE
  5
51F
  8
0
 10
2223.4929081718250927
 20
2099.9582371537608196
 30
0.0
 11
2223.4929081718250927
 21
2097.1582371537610925
 31
0.0
  0
LINE
  5
520
  8
0
 10
2223.4929081718250927
 20
2097.1582371537610925
 30
0.0
 11
2243.4929081718260022
 21
2097.1582371537610925
 31
0.0
  0
LINE
  5
521
  8
0
 10
2243.4929081718260022
 20
2097.1582371537610925
 30
0.0
 11
2243.4929081718260022
 21
2099.9582371537608196
 31
0.0
  0
LINE
  5
522
  8
0
 10
2243.4929081718260022
 20
2099.9582371537608196
 30
0.0
 11
2263.4929081718260022
 21
2099.9582371537608196
 31
0.0
  0
LINE
  5
523
  8
0
 10
2263.4929081718260022
 20
2099.9582371537608196
 30
0.0
 11
2263.4929081718260022
 21
2097.1582371537610925
 31
0.0
  0
LINE
  5
524
  8
0
 10
2263.4929081718260022
 20
2097.1582371537610925
 30
0.0
 11
2283.4929081718260022
 21
2097.1582371537610925
 31
0.0
  0
LINE
  5
525
  8
0
 10
2283.4929081718260022
 20
2097.1582371537610925
 30
0.0
 11
2283.4929081718260022
 21
2099.9582371537608196
 31
0.0
  0
LINE
  5
526
  8
0
 10
2283.4929081718260022
 20
2099.9582371537608196
 30
0.0
 11
2303.4929081718260022
 21
2099.9582371537608196
 31
0.0
  0
LINE
  5
527
  8
0
 10
2303.4929081718260022
 20
2099.9582371537608196
 30
0.0
 11
2303.4929081718260022
 21
2097.1582371537610925
 31
0.0
  0
LINE
  5
528
  8
0
 10
2303.4929081718260022
 20
2097.1582371537610925
 30
0.0
 11
2323.4929081718260022
 21
2097.1582371537610925
 31
0.0
  0
LINE
  5
59C
  8
0
 10
2165.8966026805660476
 20
2099.9582371537599101
 30
0.0
 11
2165.8966026805660476
 21
2053.6607624707007744
 31
0.0
  0
LINE
  5
5A5
  8
0
 10
2165.8966026805660476
 20
2053.6607624707007744
 30
0.0
 11
2165.8966026805660476
 21
2050.8607624707010473
 31
0.0
  0
LINE
  5
5A6
  8
0
 10
2200.6929081718249108
 20
2053.6607624707007744
 30
0.0
 11
2200.6929081718249108
 21
2050.8607624707010473
 31
0.0
  0
LINE
  5
5A7
  8
0
 10
2195.8966026805669571
 20
2050.8607624707010473
 30
0.0
 11
2185.7966026805670481
 21
2050.8607624707010473
 31
0.0
  0
LINE
  5
5A8
  8
0
 10
2185.7966026805670481
 20
2050.8607624707010473
 30
0.0
 11
2185.7966026805670481
 21
2053.6607624707007744
 31
0.0
  0
LINE
  5
5A9
  8
0
 10
2185.7966026805670481
 20
2053.6607624707007744
 30
0.0
 11
2175.9966026805659567
 21
2053.6607624707007744
 31
0.0
  0
LINE
  5
5AA
  8
0
 10
2175.9966026805659567
 20
2053.6607624707007744
 30
0.0
 11
2175.9966026805659567
 21
2050.8607624707010473
 31
0.0
  0
LINE
  5
5AB
  8
0
 10
2175.9966026805659567
 20
2050.8607624707010473
 30
0.0
 11
2165.8966026805660476
 21
2050.8607624707010473
 31
0.0
  0
LINE
  5
5AC
  8
0
 10
2200.6929081718249108
 20
2053.6607624707007744
 30
0.0
 11
2203.4929081718260022
 21
2053.6607624707007744
 31
0.0
  0
LINE
  5
5AD
  8
0
 10
2195.8966026805669571
 20
2099.9582371537599101
 30
0.0
 11
2185.7966026805670481
 21
2099.9582371537599101
 31
0.0
  0
LINE
  5
5AF
  8
0
 10
2185.7966026805670481
 20
2097.158237153760183
 30
0.0
 11
2175.9966026805659567
 21
2097.158237153760183
 31
0.0
  0
LINE
  5
5B1
  8
0
 10
2175.9966026805659567
 20
2099.9582371537599101
 30
0.0
 11
2165.8966026805660476
 21
2099.9582371537599101
 31
0.0
  0
LINE
  5
5B2
  8
0
 10
2198.696602680567139
 20
2053.6607624707007744
 30
0.0
 11
2198.696602680567139
 21
2063.7607624707011382
 31
0.0
  0
LINE
  5
5B4
  8
0
 10
2200.6929081718249108
 20
2097.158237153760183
 30
0.0
 11
2203.4929081718260022
 21
2097.158237153760183
 31
0.0
  0
LINE
  5
5B5
  8
0
 10
2198.696602680567139
 20
2097.158237153760183
 30
0.0
 11
2198.696602680567139
 21
2087.0582371537598192
 31
0.0
  0
LINE
  5
5B8
  8
0
 10
2200.6929081718249108
 20
2097.158237153760183
 30
0.0
 11
2200.6929081718249108
 21
2099.9582371537599101
 31
0.0
  0
LINE
  5
5BB
  8
0
 10
2200.6929081718249108
 20
2040.8607624707010473
 30
0.0
 11
2200.6929081718249108
 21
2030.8607624706999104
 31
0.0
  0
LINE
  5
5BE
  8
0
 10
2203.4929081718260022
 20
2050.8607624707010473
 30
0.0
 11
2203.4929081718260022
 21
2040.8607624707010473
 31
0.0
  0
LINE
  5
5BF
  8
0
 10
2203.4929081718260022
 20
2040.8607624707010473
 30
0.0
 11
2200.6929081718249108
 21
2040.8607624707010473
 31
0.0
  0
LINE
  5
5C1
  8
0
 10
2200.6929081718249108
 20
2030.8607624706999104
 30
0.0
 11
2203.4929081718260022
 21
2030.8607624706999104
 31
0.0
  0
LINE
  5
5C2
  8
0
 10
2203.4929081718260022
 20
2030.8607624706999104
 30
0.0
 11
2203.4929081718260022
 21
2020.8607624707010473
 31
0.0
  0
LINE
  5
5C3
  8
0
 10
2323.4929081718260022
 20
2099.9582371537608196
 30
0.0
 11
2323.4929081718260022
 21
2109.9582371537608196
 31
0.0
  0
LINE
  5
5C4
  8
0
 10
2323.4929081718260022
 20
2109.9582371537608196
 30
0.0
 11
2326.2929081718261841
 21
2109.9582371537608196
 31
0.0
  0
LINE
  5
5C5
  8
0
 10
2326.2929081718261841
 20
2109.9582371537608196
 30
0.0
 11
2326.2929081718261841
 21
2119.9582371537608196
 31
0.0
  0
LINE
  5
5C6
  8
0
 10
2326.2929081718261841
 20
2119.9582371537608196
 30
0.0
 11
2323.4929081718260022
 21
2119.9582371537608196
 31
0.0
  0
LINE
  5
5C7
  8
0
 10
2323.4929081718260022
 20
2119.9582371537608196
 30
0.0
 11
2323.4929081718260022
 21
2129.9582371537608196
 31
0.0
  0
LINE
  5
5C9
  8
0
 10
2326.2929081718261841
 20
2099.9582371537608196
 30
0.0
 11
2323.4929081718260022
 21
2099.9582371537608196
 31
0.0
  0
LINE
  5
5CB
  8
0
 10
2323.4929081718260022
 20
2129.9582371537608196
 30
0.0
 11
2203.4929081718260022
 21
2129.9582371537608196
 31
0.0
  0
LINE
  5
5CC
  8
0
 10
2323.4929081718260022
 20
2097.1582371537610925
 30
0.0
 11
2303.4929081718260022
 21
2097.1582371537610925
 31
0.0
  0
LINE
  5
5CD
  8
0
 10
2303.4929081718260022
 20
2097.1582371537610925
 30
0.0
 11
2303.4929081718260022
 21
2099.9582371537608196
 31
0.0
  0
LINE
  5
5CE
  8
0
 10
2303.4929081718260022
 20
2099.9582371537608196
 30
0.0
 11
2283.4929081718260022
 21
2099.9582371537608196
 31
0.0
  0
LINE
  5
5CF
  8
0
 10
2283.4929081718260022
 20
2099.9582371537608196
 30
0.0
 11
2283.4929081718260022
 21
2097.1582371537610925
 31
0.0
  0
LINE
  5
5D0
  8
0
 10
2283.4929081718260022
 20
2097.1582371537610925
 30
0.0
 11
2263.4929081718260022
 21
2097.1582371537610925
 31
0.0
  0
LINE
  5
5D1
  8
0
 10
2263.4929081718260022
 20
2097.1582371537610925
 30
0.0
 11
2263.4929081718260022
 21
2099.9582371537608196
 31
0.0
  0
LINE
  5
5D2
  8
0
 10
2263.4929081718260022
 20
2099.9582371537608196
 30
0.0
 11
2243.4929081718260022
 21
2099.9582371537608196
 31
0.0
  0
LINE
  5
5D3
  8
0
 10
2243.4929081718260022
 20
2099.9582371537608196
 30
0.0
 11
2243.4929081718260022
 21
2097.1582371537610925
 31
0.0
  0
LINE
  5
5D4
  8
0
 10
2243.4929081718260022
 20
2097.1582371537610925
 30
0.0
 11
2223.4929081718250927
 21
2097.1582371537610925
 31
0.0
  0
LINE
  5
5D5
  8
0
 10
2223.4929081718250927
 20
2097.1582371537610925
 30
0.0
 11
2223.4929081718250927
 21
2099.9582371537608196
 31
0.0
  0
LINE
  5
5D6
  8
0
 10
2223.4929081718250927
 20
2099.9582371537608196
 30
0.0
 11
2200.6929081718249108
 21
2099.9582371537599101
 31
0.0
  0
LINE
  5
5D7
  8
0
 10
2200.6929081718249108
 20
2109.9582371537608196
 30
0.0
 11
2200.6929081718249108
 21
2119.9582371537608196
 31
0.0
  0
LINE
  5
5D8
  8
0
 10
2203.4929081718260022
 20
2099.9582371537608196
 30
0.0
 11
2203.4929081718260022
 21
2109.9582371537608196
 31
0.0
  0
LINE
  5
5D9
  8
0
 10
2203.4929081718260022
 20
2109.9582371537608196
 30
0.0
 11
2200.6929081718249108
 21
2109.9582371537608196
 31
0.0
  0
LINE
  5
5DA
  8
0
 10
2200.6929081718249108
 20
2119.9582371537608196
 30
0.0
 11
2203.4929081718260022
 21
2119.9582371537608196
 31
0.0
  0
LINE
  5
5DB
  8
0
 10
2203.4929081718260022
 20
2119.9582371537608196
 30
0.0
 11
2203.4929081718260022
 21
2129.9582371537608196
 31
0.0
  0
LINE
  5
5DC
  8
0
 10
2195.8966026805669571
 20
2099.9582371537599101
 30
0.0
 11
2195.8966026805669571
 21
2097.158237153760183
 31
0.0
  0
LINE
  5
5DD
  8
0
 10
2195.8966026805669571
 20
2097.158237153760183
 30
0.0
 11
2198.696602680567139
 21
2097.158237153760183
 31
0.0
  0
LINE
  5
5DE
  8
0
 10
2195.8966026805669571
 20
2050.8607624707010473
 30
0.0
 11
2195.8966026805669571
 21
2053.6607624707007744
 31
0.0
  0
LINE
  5
5DF
  8
0
 10
2195.8966026805669571
 20
2053.6607624707007744
 30
0.0
 11
2198.696602680567139
 21
2053.6607624707007744
 31
0.0
  0
LINE
  5
5EC
  8
0
 10
2127.0181225430628729
 20
2117.0935039362811949
 30
0.0
 11
2127.0181225430628729
 21
2102.9935039362808311
 31
0.0
  0
LINE
  5
5ED
  8
0
 10
2129.8181225430648738
 20
2117.0935039362811949
 30
0.0
 11
2127.0181225430651466
 21
2117.0935039362811949
 31
0.0
  0
LINE
  5
5EE
  8
0
 10
2129.8181225430648738
 20
2092.8935039362809221
 30
0.0
 11
2127.0181225430651466
 21
2092.8935039362809221
 31
0.0
  0
LINE
  5
5EF
  8
0
 10
2127.0181225430651466
 20
2092.8935039362809221
 30
0.0
 11
2127.0181225430628729
 21
2102.9935039362808311
 31
0.0
  0
LINE
  5
5F0
  8
0
 10
2129.8181225430648738
 20
2092.8935039362809221
 30
0.0
 11
2129.8181225430648738
 21
2098.8890265112299858
 31
0.0
  0
LINE
  5
5FA
  8
0
 10
2129.8181225430648738
 20
2113.0890265112298039
 30
0.0
 11
2132.6181225430641462
 21
2113.0890265112298039
 31
0.0
  0
LINE
  5
5FB
  8
0
 10
2129.8181225430648738
 20
2098.8890265112299858
 30
0.0
 11
2132.6181225430641462
 21
2098.8890265112299858
 31
0.0
  0
LINE
  5
5FC
  8
0
 10
2132.6181225430641462
 20
2113.0890265112298039
 30
0.0
 11
2132.6181225430641462
 21
2098.8890265112299858
 31
0.0
  0
LINE
  5
5FE
  8
0
 10
2129.8181225430648738
 20
2113.0890265112298039
 30
0.0
 11
2129.8181225430648738
 21
2117.0935039362811949
 31
0.0
  0
LINE
  5
65E
  8
0
 10
2126.8413294405909255
 20
2089.4025230457377802
 30
0.0
 11
2126.8413294405909255
 21
2075.3025230457378711
 31
0.0
  0
LINE
  5
65F
  8
0
 10
2129.6413294405920169
 20
2089.4025230457377802
 30
0.0
 11
2126.841329440591835
 21
2089.4025230457377802
 31
0.0
  0
LINE
  5
660
  8
0
 10
2129.6413294405920169
 20
2065.2025230457370526
 30
0.0
 11
2126.841329440591835
 21
2065.2025230457370526
 31
0.0
  0
LINE
  5
661
  8
0
 10
2126.841329440591835
 20
2065.2025230457370526
 30
0.0
 11
2126.8413294405909255
 21
2075.3025230457378711
 31
0.0
  0
LINE
  5
662
  8
0
 10
2129.6413294405920169
 20
2065.2025230457370526
 30
0.0
 11
2129.6413294405920169
 21
2071.1980456206870258
 31
0.0
  0
LINE
  5
663
  8
0
 10
2129.6413294405920169
 20
2085.3980456206868439
 30
0.0
 11
2132.4413294405921988
 21
2085.3980456206868439
 31
0.0
  0
LINE
  5
664
  8
0
 10
2129.6413294405920169
 20
2071.1980456206870258
 30
0.0
 11
2132.4413294405921988
 21
2071.1980456206870258
 31
0.0
  0
LINE
  5
665
  8
0
 10
2132.4413294405921988
 20
2085.3980456206868439
 30
0.0
 11
2132.4413294405921988
 21
2071.1980456206870258
 31
0.0
  0
LINE
  5
666
  8
0
 10
2129.6413294405920169
 20
2085.3980456206868439
 30
0.0
 11
2129.6413294405920169
 21
2089.4025230457377802
 31
0.0
  0
LINE
  5
6B8
  8
0
 10
2185.7966026805670481
 20
2099.9582371537599101
 30
0.0
 11
2185.7966026805670481
 21
2097.158237153760183
 31
0.0
  0
LINE
  5
6B9
  8
0
 10
2175.9966026805659567
 20
2099.9582371537599101
 30
0.0
 11
2175.9966026805659567
 21
2097.158237153760183
 31
0.0
  0
LINE
  5
70B
  8
0
 10
2198.696602680567139
 20
2087.0582371537598192
 30
0.0
 11
2195.8966026805669571
 21
2087.0582371537598192
 31
0.0
  0
LINE
  5
70C
  8
0
 10
2198.696602680567139
 20
2063.7607624707011382
 30
0.0
 11
2195.8966026805669571
 21
2063.7607624707011382
 31
0.0
  0
LINE
  5
70D
  8
0
 10
2195.8966026805669571
 20
2087.0582371537598192
 30
0.0
 11
2195.8966026805669571
 21
2063.7607624707011382
 31
0.0
  0
LINE
  5
732
  8
0
 10
2164.7520291017158343
 20
2050.4465062917920477
 30
0.0
 11
2164.7520291017158343
 21
2096.7439809748511834
 31
0.0
  0
LINE
  5
733
  8
0
 10
2164.7520291017158343
 20
2096.7439809748511834
 30
0.0
 11
2164.7520291017158343
 21
2099.5439809748518201
 31
0.0
  0
LINE
  5
734
  8
0
 10
2134.7520291017149248
 20
2099.5439809748509106
 30
0.0
 11
2144.8520291017148338
 21
2099.5439809748509106
 31
0.0
  0
LINE
  5
735
  8
0
 10
2144.8520291017148338
 20
2099.5439809748509106
 30
0.0
 11
2144.8520291017148338
 21
2096.7439809748511834
 31
0.0
  0
LINE
  5
736
  8
0
 10
2144.8520291017148338
 20
2096.7439809748511834
 30
0.0
 11
2154.6520291017159252
 21
2096.7439809748511834
 31
0.0
  0
LINE
  5
737
  8
0
 10
2154.6520291017159252
 20
2096.7439809748511834
 30
0.0
 11
2154.6520291017159252
 21
2099.5439809748518201
 31
0.0
  0
LINE
  5
738
  8
0
 10
2154.6520291017159252
 20
2099.5439809748518201
 30
0.0
 11
2164.7520291017158343
 21
2099.5439809748518201
 31
0.0
  0
LINE
  5
739
  8
0
 10
2134.7520291017149248
 20
2050.4465062917920477
 30
0.0
 11
2144.8520291017148338
 21
2050.4465062917920477
 31
0.0
  0
LINE
  5
73A
  8
0
 10
2144.8520291017148338
 20
2053.2465062917917749
 30
0.0
 11
2154.6520291017159252
 21
2053.2465062917917749
 31
0.0
  0
LINE
  5
73B
  8
0
 10
2154.6520291017159252
 20
2050.4465062917920477
 30
0.0
 11
2164.7520291017158343
 21
2050.4465062917920477
 31
0.0
  0
LINE
  5
73C
  8
0
 10
2131.9520291017151976
 20
2096.7439809748511834
 30
0.0
 11
2131.9520291017151976
 21
2086.6439809748508196
 31
0.0
  0
LINE
  5
73D
  8
0
 10
2131.9520291017151976
 20
2053.2465062917917749
 30
0.0
 11
2131.9520291017151976
 21
2063.3465062917921387
 31
0.0
  0
LINE
  5
73E
  8
0
 10
2134.7520291017149248
 20
2050.4465062917920477
 30
0.0
 11
2134.7520291017149248
 21
2053.2465062917917749
 31
0.0
  0
LINE
  5
73F
  8
0
 10
2134.7520291017149248
 20
2053.2465062917917749
 30
0.0
 11
2131.9520291017151976
 21
2053.2465062917917749
 31
0.0
  0
LINE
  5
740
  8
0
 10
2134.7520291017149248
 20
2099.5439809748509106
 30
0.0
 11
2134.7520291017149248
 21
2096.7439809748511834
 31
0.0
  0
LINE
  5
741
  8
0
 10
2134.7520291017149248
 20
2096.7439809748511834
 30
0.0
 11
2131.9520291017151976
 21
2096.7439809748511834
 31
0.0
  0
LINE
  5
742
  8
0
 10
2144.8520291017148338
 20
2050.4465062917920477
 30
0.0
 11
2144.8520291017148338
 21
2053.2465062917917749
 31
0.0
  0
LINE
  5
743
  8
0
 10
2154.6520291017159252
 20
2050.4465062917920477
 30
0.0
 11
2154.6520291017159252
 21
2053.2465062917917749
 31
0.0
  0
LINE
  5
744
  8
0
 10
2131.9520291017151976
 20
2063.3465062917921387
 30
0.0
 11
2134.7520291017149248
 21
2063.3465062917921387
 31
0.0
  0
LINE
  5
745
  8
0
 10
2131.9520291017151976
 20
2086.6439809748508196
 30
0.0
 11
2134.7520291017149248
 21
2086.6439809748508196
 31
0.0
  0
LINE
  5
746
  8
0
 10
2134.7520291017149248
 20
2063.3465062917921387
 30
0.0
 11
2134.7520291017149248
 21
2086.6439809748508196
 31
0.0
  0
LINE
  5
7AD
  8
0
 10
2339.0411416387178178
 20
2077.4722427184788103
 30
0.0
 11
2339.0411416387178178
 21
2126.9697174015391283
 31
0.0
  0
LINE
  5
7C5
  8
0
 10
2339.0411416387178178
 20
2126.9697174015391283
 30
0.0
 11
2339.0411416387200916
 21
2173.6671920845969908
 31
0.0
  0
LINE
  5
7D5
  8
0
 10
2469.0411416387169083
 20
2126.9697174015391283
 30
0.0
 11
2469.0411416387169083
 21
2111.9697174015368546
 31
0.0
  0
LINE
  5
7D6
  8
0
 10
2469.0411416387169083
 20
2111.9697174015368546
 30
0.0
 11
2466.2411416387180907
 21
2111.9697174015368546
 31
0.0
  0
LINE
  5
7D7
  8
0
 10
2469.0411416387169083
 20
2077.4722427184788103
 30
0.0
 11
2469.0411416387169083
 21
2092.4722427184788103
 31
0.0
  0
LINE
  5
7D8
  8
0
 10
2469.0411416387169083
 20
2092.4722427184788103
 30
0.0
 11
2466.2411416387180907
 21
2092.4722427184788103
 31
0.0
  0
LINE
  5
7D9
  8
0
 10
2466.2411416387180907
 20
2092.4722427184788103
 30
0.0
 11
2466.2411416387180907
 21
2111.9697174015368546
 31
0.0
  0
LINE
  5
821
  8
0
 10
2469.0411416387169083
 20
2176.4671920845948989
 30
0.0
 11
2469.0411416387169083
 21
2161.4671920845948989
 31
0.0
  0
LINE
  5
822
  8
0
 10
2469.0411416387169083
 20
2161.4671920845948989
 30
0.0
 11
2466.2411416387180907
 21
2161.4671920845948989
 31
0.0
  0
LINE
  5
823
  8
0
 10
2469.0411416387169083
 20
2126.9697174015391283
 30
0.0
 11
2469.0411416387169083
 21
2141.9697174015359451
 31
0.0
  0
LINE
  5
824
  8
0
 10
2469.0411416387169083
 20
2141.9697174015359451
 30
0.0
 11
2466.2411416387180907
 21
2141.9697174015359451
 31
0.0
  0
LINE
  5
825
  8
0
 10
2466.2411416387180907
 20
2141.9697174015359451
 30
0.0
 11
2466.2411416387180907
 21
2161.4671920845948989
 31
0.0
  0
LINE
  5
851
  8
0
 10
2349.0411416387178178
 20
2129.769717401537946
 30
0.0
 11
2369.0411416387169083
 21
2129.769717401537946
 31
0.0
  0
LINE
  5
852
  8
0
 10
2369.0411416387169083
 20
2129.769717401537946
 30
0.0
 11
2369.0411416387169083
 21
2126.9697174015391283
 31
0.0
  0
LINE
  5
853
  8
0
 10
2369.0411416387169083
 20
2126.9697174015391283
 30
0.0
 11
2389.0411416387169083
 21
2126.9697174015391283
 31
0.0
  0
LINE
  5
854
  8
0
 10
2389.0411416387169083
 20
2126.9697174015391283
 30
0.0
 11
2389.0411416387169083
 21
2129.769717401537946
 31
0.0
  0
LINE
  5
855
  8
0
 10
2389.0411416387169083
 20
2129.769717401537946
 30
0.0
 11
2409.0411416387169083
 21
2129.769717401537946
 31
0.0
  0
LINE
  5
856
  8
0
 10
2409.0411416387169083
 20
2129.769717401537946
 30
0.0
 11
2409.0411416387169083
 21
2126.9697174015391283
 31
0.0
  0
LINE
  5
857
  8
0
 10
2409.0411416387169083
 20
2126.9697174015391283
 30
0.0
 11
2429.0411416387169083
 21
2126.9697174015391283
 31
0.0
  0
LINE
  5
858
  8
0
 10
2429.0411416387169083
 20
2126.9697174015391283
 30
0.0
 11
2429.0411416387169083
 21
2129.769717401537946
 31
0.0
  0
LINE
  5
859
  8
0
 10
2429.0411416387169083
 20
2129.769717401537946
 30
0.0
 11
2449.0411416387178178
 21
2129.769717401537946
 31
0.0
  0
LINE
  5
85A
  8
0
 10
2449.0411416387178178
 20
2129.769717401537946
 30
0.0
 11
2449.0411416387178178
 21
2126.9697174015391283
 31
0.0
  0
LINE
  5
85B
  8
0
 10
2449.0411416387178178
 20
2126.9697174015391283
 30
0.0
 11
2469.0411416387169083
 21
2126.9697174015391283
 31
0.0
  0
LINE
  5
85C
  8
0
 10
2469.0411416387169083
 20
2126.9697174015391283
 30
0.0
 11
2449.0411416387178178
 21
2126.9697174015391283
 31
0.0
  0
LINE
  5
85D
  8
0
 10
2449.0411416387178178
 20
2126.9697174015391283
 30
0.0
 11
2449.0411416387178178
 21
2129.769717401537946
 31
0.0
  0
LINE
  5
85E
  8
0
 10
2449.0411416387178178
 20
2129.769717401537946
 30
0.0
 11
2429.0411416387169083
 21
2129.769717401537946
 31
0.0
  0
LINE
  5
85F
  8
0
 10
2429.0411416387169083
 20
2129.769717401537946
 30
0.0
 11
2429.0411416387169083
 21
2126.9697174015391283
 31
0.0
  0
LINE
  5
860
  8
0
 10
2429.0411416387169083
 20
2126.9697174015391283
 30
0.0
 11
2409.0411416387169083
 21
2126.9697174015391283
 31
0.0
  0
LINE
  5
861
  8
0
 10
2409.0411416387169083
 20
2126.9697174015391283
 30
0.0
 11
2409.0411416387169083
 21
2129.769717401537946
 31
0.0
  0
LINE
  5
862
  8
0
 10
2409.0411416387169083
 20
2129.769717401537946
 30
0.0
 11
2389.0411416387169083
 21
2129.769717401537946
 31
0.0
  0
LINE
  5
863
  8
0
 10
2389.0411416387169083
 20
2129.769717401537946
 30
0.0
 11
2389.0411416387169083
 21
2126.9697174015391283
 31
0.0
  0
LINE
  5
864
  8
0
 10
2389.0411416387169083
 20
2126.9697174015391283
 30
0.0
 11
2369.0411416387169083
 21
2126.9697174015391283
 31
0.0
  0
LINE
  5
865
  8
0
 10
2369.0411416387169083
 20
2126.9697174015391283
 30
0.0
 11
2369.0411416387169083
 21
2129.769717401537946
 31
0.0
  0
LINE
  5
866
  8
0
 10
2369.0411416387169083
 20
2129.769717401537946
 30
0.0
 11
2339.0411416387178178
 21
2129.769717401536127
 31
0.0
  0
LINE
  5
868
  8
0
 10
2339.0411416387178178
 20
2077.4722427184788103
 30
0.0
 11
2339.0411416387178178
 21
2030.7747680354189015
 31
0.0
  0
LINE
  5
869
  8
0
 10
2469.0411416387169083
 20
2027.9747680354200838
 30
0.0
 11
2469.0411416387169083
 21
2042.9747680354209933
 31
0.0
  0
LINE
  5
86A
  8
0
 10
2469.0411416387169083
 20
2042.9747680354209933
 30
0.0
 11
2466.2411416387180907
 21
2042.9747680354209933
 31
0.0
  0
LINE
  5
86B
  8
0
 10
2469.0411416387169083
 20
2077.4722427184788103
 30
0.0
 11
2469.0411416387169083
 21
2062.4722427184788103
 31
0.0
  0
LINE
  5
86C
  8
0
 10
2469.0411416387169083
 20
2062.4722427184788103
 30
0.0
 11
2466.2411416387180907
 21
2062.4722427184788103
 31
0.0
  0
LINE
  5
86D
  8
0
 10
2466.2411416387180907
 20
2062.4722427184788103
 30
0.0
 11
2466.2411416387180907
 21
2042.9747680354209933
 31
0.0
  0
LINE
  5
86E
  8
0
 10
2349.0411416387178178
 20
2074.6722427184790831
 30
0.0
 11
2369.0411416387169083
 21
2074.6722427184790831
 31
0.0
  0
LINE
  5
86F
  8
0
 10
2369.0411416387169083
 20
2074.6722427184790831
 30
0.0
 11
2369.0411416387169083
 21
2077.4722427184788103
 31
0.0
  0
LINE
  5
870
  8
0
 10
2369.0411416387169083
 20
2077.4722427184788103
 30
0.0
 11
2389.0411416387169083
 21
2077.4722427184788103
 31
0.0
  0
LINE
  5
871
  8
0
 10
2389.0411416387169083
 20
2077.4722427184788103
 30
0.0
 11
2389.0411416387169083
 21
2074.6722427184790831
 31
0.0
  0
LINE
  5
872
  8
0
 10
2389.0411416387169083
 20
2074.6722427184790831
 30
0.0
 11
2409.0411416387169083
 21
2074.6722427184790831
 31
0.0
  0
LINE
  5
873
  8
0
 10
2409.0411416387169083
 20
2074.6722427184790831
 30
0.0
 11
2409.0411416387169083
 21
2077.4722427184788103
 31
0.0
  0
LINE
  5
874
  8
0
 10
2409.0411416387169083
 20
2077.4722427184788103
 30
0.0
 11
2429.0411416387169083
 21
2077.4722427184788103
 31
0.0
  0
LINE
  5
875
  8
0
 10
2429.0411416387169083
 20
2077.4722427184788103
 30
0.0
 11
2429.0411416387169083
 21
2074.6722427184790831
 31
0.0
  0
LINE
  5
876
  8
0
 10
2429.0411416387169083
 20
2074.6722427184790831
 30
0.0
 11
2449.0411416387178178
 21
2074.6722427184790831
 31
0.0
  0
LINE
  5
877
  8
0
 10
2449.0411416387178178
 20
2074.6722427184790831
 30
0.0
 11
2449.0411416387178178
 21
2077.4722427184788103
 31
0.0
  0
LINE
  5
878
  8
0
 10
2449.0411416387178178
 20
2077.4722427184788103
 30
0.0
 11
2469.0411416387169083
 21
2077.4722427184788103
 31
0.0
  0
LINE
  5
879
  8
0
 10
2469.0411416387169083
 20
2077.4722427184788103
 30
0.0
 11
2449.0411416387178178
 21
2077.4722427184788103
 31
0.0
  0
LINE
  5
87A
  8
0
 10
2449.0411416387178178
 20
2077.4722427184788103
 30
0.0
 11
2449.0411416387178178
 21
2074.6722427184790831
 31
0.0
  0
LINE
  5
87B
  8
0
 10
2449.0411416387178178
 20
2074.6722427184790831
 30
0.0
 11
2429.0411416387169083
 21
2074.6722427184790831
 31
0.0
  0
LINE
  5
87C
  8
0
 10
2429.0411416387169083
 20
2074.6722427184790831
 30
0.0
 11
2429.0411416387169083
 21
2077.4722427184788103
 31
0.0
  0
LINE
  5
87D
  8
0
 10
2429.0411416387169083
 20
2077.4722427184788103
 30
0.0
 11
2409.0411416387169083
 21
2077.4722427184788103
 31
0.0
  0
LINE
  5
87E
  8
0
 10
2409.0411416387169083
 20
2077.4722427184788103
 30
0.0
 11
2409.0411416387169083
 21
2074.6722427184790831
 31
0.0
  0
LINE
  5
87F
  8
0
 10
2409.0411416387169083
 20
2074.6722427184790831
 30
0.0
 11
2389.0411416387169083
 21
2074.6722427184790831
 31
0.0
  0
LINE
  5
880
  8
0
 10
2389.0411416387169083
 20
2074.6722427184790831
 30
0.0
 11
2389.0411416387169083
 21
2077.4722427184788103
 31
0.0
  0
LINE
  5
881
  8
0
 10
2389.0411416387169083
 20
2077.4722427184788103
 30
0.0
 11
2369.0411416387169083
 21
2077.4722427184788103
 31
0.0
  0
LINE
  5
882
  8
0
 10
2369.0411416387169083
 20
2077.4722427184788103
 30
0.0
 11
2369.0411416387169083
 21
2074.6722427184790831
 31
0.0
  0
LINE
  5
883
  8
0
 10
2369.0411416387169083
 20
2074.6722427184790831
 30
0.0
 11
2339.0411416387178178
 21
2074.6722427184799926
 31
0.0
  0
LINE
  5
884
  8
0
 10
2349.0411416387178178
 20
2030.7747680354209479
 30
0.0
 11
2369.0411416387169083
 21
2030.7747680354209479
 31
0.0
  0
LINE
  5
885
  8
0
 10
2369.0411416387169083
 20
2030.7747680354209479
 30
0.0
 11
2369.0411416387169083
 21
2027.9747680354200838
 31
0.0
  0
LINE
  5
886
  8
0
 10
2369.0411416387169083
 20
2027.9747680354200838
 30
0.0
 11
2389.0411416387169083
 21
2027.9747680354200838
 31
0.0
  0
LINE
  5
887
  8
0
 10
2389.0411416387169083
 20
2027.9747680354200838
 30
0.0
 11
2389.0411416387169083
 21
2030.7747680354209479
 31
0.0
  0
LINE
  5
888
  8
0
 10
2389.0411416387169083
 20
2030.7747680354209479
 30
0.0
 11
2409.0411416387169083
 21
2030.7747680354209479
 31
0.0
  0
LINE
  5
889
  8
0
 10
2409.0411416387169083
 20
2030.7747680354209479
 30
0.0
 11
2409.0411416387169083
 21
2027.9747680354200838
 31
0.0
  0
LINE
  5
88A
  8
0
 10
2409.0411416387169083
 20
2027.9747680354200838
 30
0.0
 11
2429.0411416387169083
 21
2027.9747680354200838
 31
0.0
  0
LINE
  5
88B
  8
0
 10
2429.0411416387169083
 20
2027.9747680354200838
 30
0.0
 11
2429.0411416387169083
 21
2030.7747680354209479
 31
0.0
  0
LINE
  5
88C
  8
0
 10
2429.0411416387169083
 20
2030.7747680354209479
 30
0.0
 11
2449.0411416387178178
 21
2030.7747680354209479
 31
0.0
  0
LINE
  5
88D
  8
0
 10
2449.0411416387178178
 20
2030.7747680354209479
 30
0.0
 11
2449.0411416387178178
 21
2027.9747680354200838
 31
0.0
  0
LINE
  5
88E
  8
0
 10
2449.0411416387178178
 20
2027.9747680354200838
 30
0.0
 11
2469.0411416387169083
 21
2027.9747680354200838
 31
0.0
  0
LINE
  5
88F
  8
0
 10
2469.0411416387169083
 20
2027.9747680354200838
 30
0.0
 11
2449.0411416387178178
 21
2027.9747680354200838
 31
0.0
  0
LINE
  5
890
  8
0
 10
2449.0411416387178178
 20
2027.9747680354200838
 30
0.0
 11
2449.0411416387178178
 21
2030.7747680354209479
 31
0.0
  0
LINE
  5
891
  8
0
 10
2449.0411416387178178
 20
2030.7747680354209479
 30
0.0
 11
2429.0411416387169083
 21
2030.7747680354209479
 31
0.0
  0
LINE
  5
892
  8
0
 10
2429.0411416387169083
 20
2030.7747680354209479
 30
0.0
 11
2429.0411416387169083
 21
2027.9747680354200838
 31
0.0
  0
LINE
  5
893
  8
0
 10
2429.0411416387169083
 20
2027.9747680354200838
 30
0.0
 11
2409.0411416387169083
 21
2027.9747680354200838
 31
0.0
  0
LINE
  5
894
  8
0
 10
2409.0411416387169083
 20
2027.9747680354200838
 30
0.0
 11
2409.0411416387169083
 21
2030.7747680354209479
 31
0.0
  0
LINE
  5
895
  8
0
 10
2409.0411416387169083
 20
2030.7747680354209479
 30
0.0
 11
2389.0411416387169083
 21
2030.7747680354209479
 31
0.0
  0
LINE
  5
896
  8
0
 10
2389.0411416387169083
 20
2030.7747680354209479
 30
0.0
 11
2389.0411416387169083
 21
2027.9747680354200838
 31
0.0
  0
LINE
  5
897
  8
0
 10
2389.0411416387169083
 20
2027.9747680354200838
 30
0.0
 11
2369.0411416387169083
 21
2027.9747680354200838
 31
0.0
  0
LINE
  5
898
  8
0
 10
2369.0411416387169083
 20
2027.9747680354200838
 30
0.0
 11
2369.0411416387169083
 21
2030.7747680354209479
 31
0.0
  0
LINE
  5
899
  8
0
 10
2369.0411416387169083
 20
2030.7747680354209479
 30
0.0
 11
2339.0411416387178178
 21
2030.7747680354189015
 31
0.0
  0
LINE
  5
89A
  8
0
 10
2349.0411416387178178
 20
2173.6671920845960813
 30
0.0
 11
2369.0411416387169083
 21
2173.6671920845960813
 31
0.0
  0
LINE
  5
89B
  8
0
 10
2369.0411416387169083
 20
2173.6671920845960813
 30
0.0
 11
2369.0411416387169083
 21
2176.4671920845948989
 31
0.0
  0
LINE
  5
89C
  8
0
 10
2369.0411416387169083
 20
2176.4671920845948989
 30
0.0
 11
2389.0411416387169083
 21
2176.4671920845948989
 31
0.0
  0
LINE
  5
89D
  8
0
 10
2389.0411416387169083
 20
2176.4671920845948989
 30
0.0
 11
2389.0411416387169083
 21
2173.6671920845960813
 31
0.0
  0
LINE
  5
89E
  8
0
 10
2389.0411416387169083
 20
2173.6671920845960813
 30
0.0
 11
2409.0411416387169083
 21
2173.6671920845960813
 31
0.0
  0
LINE
  5
89F
  8
0
 10
2409.0411416387169083
 20
2173.6671920845960813
 30
0.0
 11
2409.0411416387169083
 21
2176.4671920845948989
 31
0.0
  0
LINE
  5
8A0
  8
0
 10
2409.0411416387169083
 20
2176.4671920845948989
 30
0.0
 11
2429.0411416387169083
 21
2176.4671920845948989
 31
0.0
  0
LINE
  5
8A1
  8
0
 10
2429.0411416387169083
 20
2176.4671920845948989
 30
0.0
 11
2429.0411416387169083
 21
2173.6671920845960813
 31
0.0
  0
LINE
  5
8A2
  8
0
 10
2429.0411416387169083
 20
2173.6671920845960813
 30
0.0
 11
2449.0411416387178178
 21
2173.6671920845960813
 31
0.0
  0
LINE
  5
8A3
  8
0
 10
2449.0411416387178178
 20
2173.6671920845960813
 30
0.0
 11
2449.0411416387178178
 21
2176.4671920845948989
 31
0.0
  0
LINE
  5
8A4
  8
0
 10
2449.0411416387178178
 20
2176.4671920845948989
 30
0.0
 11
2469.0411416387169083
 21
2176.4671920845948989
 31
0.0
  0
LINE
  5
8A5
  8
0
 10
2469.0411416387169083
 20
2176.4671920845948989
 30
0.0
 11
2449.0411416387178178
 21
2176.4671920845948989
 31
0.0
  0
LINE
  5
8A6
  8
0
 10
2449.0411416387178178
 20
2176.4671920845948989
 30
0.0
 11
2449.0411416387178178
 21
2173.6671920845960813
 31
0.0
  0
LINE
  5
8A7
  8
0
 10
2449.0411416387178178
 20
2173.6671920845960813
 30
0.0
 11
2429.0411416387169083
 21
2173.6671920845960813
 31
0.0
  0
LINE
  5
8A8
  8
0
 10
2429.0411416387169083
 20
2173.6671920845960813
 30
0.0
 11
2429.0411416387169083
 21
2176.4671920845948989
 31
0.0
  0
LINE
  5
8A9
  8
0
 10
2429.0411416387169083
 20
2176.4671920845948989
 30
0.0
 11
2409.0411416387169083
 21
2176.4671920845948989
 31
0.0
  0
LINE
  5
8AA
  8
0
 10
2409.0411416387169083
 20
2176.4671920845948989
 30
0.0
 11
2409.0411416387169083
 21
2173.6671920845960813
 31
0.0
  0
LINE
  5
8AB
  8
0
 10
2409.0411416387169083
 20
2173.6671920845960813
 30
0.0
 11
2389.0411416387169083
 21
2173.6671920845960813
 31
0.0
  0
LINE
  5
8AC
  8
0
 10
2389.0411416387169083
 20
2173.6671920845960813
 30
0.0
 11
2389.0411416387169083
 21
2176.4671920845948989
 31
0.0
  0
LINE
  5
8AD
  8
0
 10
2389.0411416387169083
 20
2176.4671920845948989
 30
0.0
 11
2369.0411416387169083
 21
2176.4671920845948989
 31
0.0
  0
LINE
  5
8AE
  8
0
 10
2369.0411416387169083
 20
2176.4671920845948989
 30
0.0
 11
2369.0411416387169083
 21
2173.6671920845960813
 31
0.0
  0
LINE
  5
8AF
  8
0
 10
2369.0411416387169083
 20
2173.6671920845960813
 30
0.0
 11
2339.0411416387178178
 21
2173.6671920845969908
 31
0.0
  0
LINE
  5
8BB
  8
0
 10
2339.0411416387200916
 20
2173.6671920845969908
 30
0.0
 11
2339.0411416387178178
 21
2228.7646667676531251
 31
0.0
  0
LINE
  5
8BC
  8
0
 10
2469.0411416387169083
 20
2225.964666767655217
 30
0.0
 11
2469.0411416387169083
 21
2210.964666767655217
 31
0.0
  0
LINE
  5
8BD
  8
0
 10
2469.0411416387169083
 20
2210.964666767655217
 30
0.0
 11
2466.2411416387180907
 21
2210.964666767655217
 31
0.0
  0
LINE
  5
8BE
  8
0
 10
2469.0411416387169083
 20
2176.4671920845948989
 30
0.0
 11
2469.0411416387169083
 21
2191.4671920845958084
 31
0.0
  0
LINE
  5
8BF
  8
0
 10
2469.0411416387169083
 20
2191.4671920845958084
 30
0.0
 11
2466.2411416387180907
 21
2191.4671920845958084
 31
0.0
  0
LINE
  5
8C0
  8
0
 10
2466.2411416387180907
 20
2191.4671920845958084
 30
0.0
 11
2466.2411416387180907
 21
2210.964666767655217
 31
0.0
  0
LINE
  5
8DC
  8
0
 10
2349.0411416387178178
 20
2228.7646667676540346
 30
0.0
 11
2369.0411416387169083
 21
2228.7646667676540346
 31
0.0
  0
LINE
  5
8DD
  8
0
 10
2369.0411416387169083
 20
2228.7646667676540346
 30
0.0
 11
2369.0411416387169083
 21
2225.964666767655217
 31
0.0
  0
LINE
  5
8DE
  8
0
 10
2369.0411416387169083
 20
2225.964666767655217
 30
0.0
 11
2389.0411416387169083
 21
2225.964666767655217
 31
0.0
  0
LINE
  5
8DF
  8
0
 10
2389.0411416387169083
 20
2225.964666767655217
 30
0.0
 11
2389.0411416387169083
 21
2228.7646667676540346
 31
0.0
  0
LINE
  5
8E0
  8
0
 10
2389.0411416387169083
 20
2228.7646667676540346
 30
0.0
 11
2409.0411416387169083
 21
2228.7646667676540346
 31
0.0
  0
LINE
  5
8E1
  8
0
 10
2409.0411416387169083
 20
2228.7646667676540346
 30
0.0
 11
2409.0411416387169083
 21
2225.964666767655217
 31
0.0
  0
LINE
  5
8E2
  8
0
 10
2409.0411416387169083
 20
2225.964666767655217
 30
0.0
 11
2429.0411416387169083
 21
2225.964666767655217
 31
0.0
  0
LINE
  5
8E3
  8
0
 10
2429.0411416387169083
 20
2225.964666767655217
 30
0.0
 11
2429.0411416387169083
 21
2228.7646667676540346
 31
0.0
  0
LINE
  5
8E4
  8
0
 10
2429.0411416387169083
 20
2228.7646667676540346
 30
0.0
 11
2449.0411416387178178
 21
2228.7646667676540346
 31
0.0
  0
LINE
  5
8E5
  8
0
 10
2449.0411416387178178
 20
2228.7646667676540346
 30
0.0
 11
2449.0411416387178178
 21
2225.964666767655217
 31
0.0
  0
LINE
  5
8E6
  8
0
 10
2449.0411416387178178
 20
2225.964666767655217
 30
0.0
 11
2469.0411416387169083
 21
2225.964666767655217
 31
0.0
  0
LINE
  5
8E7
  8
0
 10
2469.0411416387169083
 20
2225.964666767655217
 30
0.0
 11
2449.0411416387178178
 21
2225.964666767655217
 31
0.0
  0
LINE
  5
8E8
  8
0
 10
2449.0411416387178178
 20
2225.964666767655217
 30
0.0
 11
2449.0411416387178178
 21
2228.7646667676540346
 31
0.0
  0
LINE
  5
8E9
  8
0
 10
2449.0411416387178178
 20
2228.7646667676540346
 30
0.0
 11
2429.0411416387169083
 21
2228.7646667676540346
 31
0.0
  0
LINE
  5
8EA
  8
0
 10
2429.0411416387169083
 20
2228.7646667676540346
 30
0.0
 11
2429.0411416387169083
 21
2225.964666767655217
 31
0.0
  0
LINE
  5
8EB
  8
0
 10
2429.0411416387169083
 20
2225.964666767655217
 30
0.0
 11
2409.0411416387169083
 21
2225.964666767655217
 31
0.0
  0
LINE
  5
8EC
  8
0
 10
2409.0411416387169083
 20
2225.964666767655217
 30
0.0
 11
2409.0411416387169083
 21
2228.7646667676540346
 31
0.0
  0
LINE
  5
8ED
  8
0
 10
2409.0411416387169083
 20
2228.7646667676540346
 30
0.0
 11
2389.0411416387169083
 21
2228.7646667676540346
 31
0.0
  0
LINE
  5
8EE
  8
0
 10
2389.0411416387169083
 20
2228.7646667676540346
 30
0.0
 11
2389.0411416387169083
 21
2225.964666767655217
 31
0.0
  0
LINE
  5
8EF
  8
0
 10
2389.0411416387169083
 20
2225.964666767655217
 30
0.0
 11
2369.0411416387169083
 21
2225.964666767655217
 31
0.0
  0
LINE
  5
8F0
  8
0
 10
2369.0411416387169083
 20
2225.964666767655217
 30
0.0
 11
2369.0411416387169083
 21
2228.7646667676540346
 31
0.0
  0
LINE
  5
8F1
  8
0
 10
2369.0411416387169083
 20
2228.7646667676540346
 30
0.0
 11
2339.0411416387178178
 21
2228.7646667676531251
 31
0.0
  0
ARC
  5
96B
  8
0
 10
1995.6566688910850189
 20
1920.9913292672820262
 30
0.0
 40
54.9999999999827622
 50
344.7006966548623268
 51
195.2993033451325005
  0
CIRCLE
  5
971
  8
0
 10
2164.2534978395619873
 20
2142.0454229035399294
 30
0.0
 40
35.0
  0
CIRCLE
  5
97C
  8
0
 10
2163.236748454561166
 20
1930.707666154456092
 30
0.0
 40
60.0
  0
CIRCLE
  5
98B
  8
0
 10
2285.8051600026078631
 20
1929.1536492211739642
 30
0.0
 40
60.0
  0
LINE
  5
991
  8
0
 10
1958.4507275798919181
 20
1848.5570149625880276
 30
0.0
 11
1964.5507275798909177
 21
1848.5570149625880276
 31
0.0
  0
ARC
  5
998
  8
0
 10
1837.1943651861140552
 20
1846.5148102102989469
 30
0.0
 40
121.2735613923742051
 50
0.964881583220724
 51
29.6337251069384493
  0
ARC
  5
999
  8
0
 10
2013.8103456105720852
 20
1820.0102233744589739
 30
0.0
 40
49.4349883944412767
 50
111.5444690356415975
 51
144.7278201364732126
  0
LINE
  5
99A
  8
0
 10
2032.8626102022810755
 20
1848.5570149625880276
 30
0.0
 11
2026.7626102022800296
 21
1848.5570149625880276
 31
0.0
  0
ARC
  5
99B
  8
0
 10
2154.1189725960589385
 20
1846.5148102102989469
 30
0.0
 40
121.2735613923742051
 50
150.3662748930640021
 51
179.0351184167793122
  0
ARC
  5
99C
  8
0
 10
1977.502992171599999
 20
1820.0102233744589739
 30
0.0
 40
49.4349883944412767
 50
35.2721798635340775
 51
68.4555309643480143
  0
ARC
  5
9AD
  8
0
 10
1881.4687830163450144
 20
1919.5808108970270496
 30
0.0
 40
54.9999999999827622
 50
344.7006966548643732
 51
39.8144903348357815
  0
LINE
  5
9B2
  8
0
 10
1844.2628417051510041
 20
1847.146496592333051
 30
0.0
 11
1850.3628417051520501
 21
1847.146496592333051
 31
0.0
  0
ARC
  5
9B3
  8
0
 10
1723.0064793113720043
 20
1845.1042918400430608
 30
0.0
 40
121.2735613923742051
 50
0.9648815832190342
 51
29.6337251069334684
  0
ARC
  5
9B4
  8
0
 10
1899.6224597358309438
 20
1818.5997050042039973
 30
0.0
 40
49.4349883944412767
 50
111.5444690356396933
 51
144.7278201364688925
  0
LINE
  5
9B5
  8
0
 10
1918.6747243275390247
 20
1847.146496592333051
 30
0.0
 11
1912.5747243275388882
 21
1847.146496592333051
 31
0.0
  0
ARC
  5
9B6
  8
0
 10
2039.9310867213180245
 20
1845.1042918400430608
 30
0.0
 40
121.2735613923742051
 50
150.3662748930665032
 51
179.0351184167809038
  0
ARC
  5
9B7
  8
0
 10
1863.315106296859085
 20
1818.5997050042039973
 30
0.0
 40
49.4349883944412767
 50
35.2721798635310435
 51
68.4555309643481706
  0
ARC
  5
9BF
  8
0
 10
1796.349288383602925
 20
1967.7246553057709662
 30
0.0
 40
44.7793262699195225
 50
343.220747189858173
 51
16.7792528101345617
  0
POLYLINE
  5
9C1
  8
0
 66
     1
 10
0.0
 20
0.0
 30
0.0
  0
VERTEX
  5
1039
  8
0
 10
1856.7200456748450961
 20
1968.6980176579929775
 30
0.0
  0
VERTEX
  5
103A
  8
0
 10
1856.7200489480169381
 20
1968.6980193072499787
 30
0.0
  0
VERTEX
  5
103B
  8
0
 10
1856.7200502157108986
 20
1968.6980199460028871
 30
0.0
  0
SEQEND
  5
103C
  8
0
  0
ARC
  5
9C4
  8
0
 10
1839.5385219509469152
 20
1954.271127591054892
 30
0.0
 40
26.3825508235689909
 50
37.6709505418167367
 51
90.6872118879246329
  0
ARC
  5
9C5
  8
0
 10
1966.5882776490850574
 20
1967.7246553057709662
 30
0.0
 40
44.7793262699195225
 50
163.2207471898655058
 51
196.7792528101408891
  0
ARC
  5
9C6
  8
0
 10
1923.3990440817410672
 20
1954.271127591054892
 30
0.0
 40
26.3825508235689909
 50
89.3127881120851015
 51
142.3290494581875976
  0
ARC
  5
9C7
  8
0
 10
1881.4687830163290982
 20
1919.5808108970279591
 30
0.0
 40
54.9999999999677698
 50
140.1855096651599979
 51
195.2993033451407996
  0
ARC
  5
9C9
  8
0
 10
1881.4687830163420585
 20
1919.5808108970450121
 30
0.0
 40
54.9999999999654392
 50
67.4999999999908056
 51
112.5000000000038938
  0
CIRCLE
  5
A30
  8
0
 10
1879.9888497203519364
 20
2034.3759881116129691
 30
0.0
 40
50.0
  0
LINE
  5
A32
  8
0
 10
1852.4888497203510269
 20
2007.1272507700839469
 30
0.0
 11
1907.4888497203510269
 21
2007.1272507700839469
 31
0.0
  0
LINE
  5
A34
  8
0
 10
1904.7375870618800491
 20
2056.6247254531422186
 30
0.0
 11
1855.2401123788220048
 21
2056.6247254531422186
 31
0.0
  0
CIRCLE
  5
A35
  8
0
 10
1861.0371180670790636
 20
2067.4294451018740801
 30
0.0
 40
5.0
  0
CIRCLE
  5
A36
  8
0
 10
1898.9405813736250366
 20
2067.4294451018740801
 30
0.0
 40
5.0
  0
LINE
  5
A59
  8
0
 10
2267.290257388991904
 20
2199.861530308699912
 30
0.0
 11
2282.1902573889929045
 21
2199.861530308699912
 31
0.0
  0
LINE
  5
A5A
  8
0
 10
2282.1902573889929045
 20
2199.861530308699912
 30
0.0
 11
2282.1902573889929045
 21
2202.6615303086991844
 31
0.0
  0
LINE
  5
A5B
  8
0
 10
2316.7389947305227906
 20
2199.861530308699912
 30
0.0
 11
2301.8389947305231544
 21
2199.861530308699912
 31
0.0
  0
LINE
  5
A5C
  8
0
 10
2301.8389947305231544
 20
2199.861530308699912
 30
0.0
 11
2301.8389947305231544
 21
2202.6615303086991844
 31
0.0
  0
LINE
  5
A5E
  8
0
 10
2267.290257388991904
 20
2155.6615303086991844
 30
0.0
 11
2282.1902573889929045
 21
2155.6615303086991844
 31
0.0
  0
LINE
  5
A5F
  8
0
 10
2282.1902573889929045
 20
2155.6615303086991844
 30
0.0
 11
2282.1902573889929045
 21
2152.8615303086990025
 31
0.0
  0
LINE
  5
A60
  8
0
 10
2316.7389947305227906
 20
2155.6615303086991844
 30
0.0
 11
2301.8389947305231544
 21
2155.6615303086991844
 31
0.0
  0
LINE
  5
A61
  8
0
 10
2301.8389947305231544
 20
2155.6615303086991844
 30
0.0
 11
2301.8389947305231544
 21
2152.8615303086990025
 31
0.0
  0
LINE
  5
A63
  8
0
 10
2316.7389947305227906
 20
2155.6615303086991844
 30
0.0
 11
2316.7389947305227906
 21
2170.5615303086979111
 31
0.0
  0
LINE
  5
A64
  8
0
 10
2316.7389947305227906
 20
2170.5615303086979111
 30
0.0
 11
2319.5389947305229725
 21
2170.5615303086979111
 31
0.0
  0
LINE
  5
A65
  8
0
 10
2316.7389947305227906
 20
2199.861530308699912
 30
0.0
 11
2316.7389947305227906
 21
2184.9615303086989115
 31
0.0
  0
LINE
  5
A66
  8
0
 10
2316.7389947305227906
 20
2184.9615303086989115
 30
0.0
 11
2319.5389947305229725
 21
2184.9615303086989115
 31
0.0
  0
LINE
  5
A68
  8
0
 10
2267.290257388991904
 20
2155.6615303086991844
 30
0.0
 11
2267.290257388991904
 21
2170.5615303086979111
 31
0.0
  0
LINE
  5
A69
  8
0
 10
2267.290257388991904
 20
2170.5615303086979111
 30
0.0
 11
2264.4902573889939958
 21
2170.5615303086979111
 31
0.0
  0
LINE
  5
A6A
  8
0
 10
2267.290257388991904
 20
2199.861530308699912
 30
0.0
 11
2267.290257388991904
 21
2184.9615303086989115
 31
0.0
  0
LINE
  5
A6B
  8
0
 10
2267.290257388991904
 20
2184.9615303086989115
 30
0.0
 11
2264.4902573889939958
 21
2184.9615303086989115
 31
0.0
  0
CIRCLE
  5
A6F
  8
0
 10
2292.0389947305229725
 20
2177.7615303086990934
 30
0.0
 40
40.0
  0
LINE
  5
A70
  8
0
 10
2264.4902573889939958
 20
2184.9615303086989115
 30
0.0
 11
2264.4902573889939958
 21
2202.6615303086991844
 31
0.0
  0
LINE
  5
A71
  8
0
 10
2282.1902573889929045
 20
2202.6615303086991844
 30
0.0
 11
2264.4902573889939958
 21
2202.6615303086991844
 31
0.0
  0
LINE
  5
A72
  8
0
 10
2301.8389947305231544
 20
2152.8615303086990025
 30
0.0
 11
2319.5389947305229725
 21
2152.8615303086990025
 31
0.0
  0
LINE
  5
A73
  8
0
 10
2319.5389947305229725
 20
2170.5615303086979111
 30
0.0
 11
2319.5389947305229725
 21
2152.8615303086990025
 31
0.0
  0
LINE
  5
A74
  8
0
 10
2264.4902573889939958
 20
2170.5615303086979111
 30
0.0
 11
2264.4902573889939958
 21
2152.8615303086990025
 31
0.0
  0
LINE
  5
A75
  8
0
 10
2282.1902573889929045
 20
2152.8615303086990025
 30
0.0
 11
2264.4902573889939958
 21
2152.8615303086990025
 31
0.0
  0
LINE
  5
A76
  8
0
 10
2301.8389947305231544
 20
2202.6615303086991844
 30
0.0
 11
2319.5389947305229725
 21
2202.6615303086991844
 31
0.0
  0
LINE
  5
A77
  8
0
 10
2319.5389947305229725
 20
2184.9615303086989115
 30
0.0
 11
2319.5389947305229725
 21
2202.6615303086991844
 31
0.0
  0
LINE
  5
A7A
  8
0
 10
2290.6389947305228816
 20
2177.7615303086990934
 30
0.0
 11
2290.6389947305228816
 21
2182.6615303086991844
 31
0.0
  0
LINE
  5
A7B
  8
0
 10
2290.6389947305228816
 20
2177.7615303086990934
 30
0.0
 11
2290.6389947305228816
 21
2172.8615303086990025
 31
0.0
  0
LINE
  5
A7C
  8
0
 10
2290.6389947305228816
 20
2182.6615303086991844
 30
0.0
 11
2293.4389947305230635
 21
2182.6615303086991844
 31
0.0
  0
LINE
  5
A7D
  8
0
 10
2290.6389947305228816
 20
2172.8615303086990025
 30
0.0
 11
2293.4389947305230635
 21
2172.8615303086990025
 31
0.0
  0
LINE
  5
A7E
  8
0
 10
2293.4389947305230635
 20
2172.8615303086990025
 30
0.0
 11
2293.4389947305230635
 21
2182.6615303086991844
 31
0.0
  0
CIRCLE
  5
A8B
  8
0
 10
2206.5119085262199405
 20
2205.6489506170892128
 30
0.0
 40
15.0
  0
LINE
  5
A8C
  8
0
 10
2205.1119085262198496
 20
2205.6489506170892128
 30
0.0
 11
2205.1119085262198496
 21
2212.548950617088849
 31
0.0
  0
LINE
  5
A8D
  8
0
 10
2205.1119085262198496
 20
2205.6489506170892128
 30
0.0
 11
2205.1119085262198496
 21
2198.7489506170882123
 31
0.0
  0
LINE
  5
A8E
  8
0
 10
2205.1119085262198496
 20
2212.548950617088849
 30
0.0
 11
2207.9119085262200315
 21
2212.548950617088849
 31
0.0
  0
LINE
  5
A8F
  8
0
 10
2205.1119085262198496
 20
2198.7489506170882123
 30
0.0
 11
2207.9119085262200315
 21
2198.7489506170882123
 31
0.0
  0
LINE
  5
A90
  8
0
 10
2207.9119085262200315
 20
2198.7489506170882123
 30
0.0
 11
2207.9119085262200315
 21
2212.548950617088849
 31
0.0
  0
LINE
  5
A9E
  8
0
 10
2183.3471265782541195
 20
2210.1612791652269152
 30
0.0
 11
2186.1471265782561204
 21
2210.1612791652269152
 31
0.0
  0
LINE
  5
A9F
  8
0
 10
2183.3471265782541195
 20
2200.1612791652269152
 30
0.0
 11
2186.1471265782561204
 21
2200.1612791652269152
 31
0.0
  0
LINE
  5
AA0
  8
0
 10
2186.1471265782561204
 20
2200.1612791652269152
 30
0.0
 11
2186.1471265782561204
 21
2210.1612791652269152
 31
0.0
  0
LINE
  5
AAE
  8
0
 10
2180.5471265782539376
 20
2212.1612791652269152
 30
0.0
 11
2183.3471265782541195
 21
2212.1612791652269152
 31
0.0
  0
LINE
  5
AAF
  8
0
 10
2180.5471265782539376
 20
2198.1612791652269152
 30
0.0
 11
2183.3471265782541195
 21
2198.1612791652269152
 31
0.0
  0
LINE
  5
AB1
  8
0
 10
2183.3471265782541195
 20
2210.1612791652269152
 30
0.0
 11
2183.3471265782541195
 21
2212.1612791652269152
 31
0.0
  0
LINE
  5
AB2
  8
0
 10
2183.3471265782541195
 20
2200.1612791652269152
 30
0.0
 11
2183.3471265782541195
 21
2198.1612791652269152
 31
0.0
  0
LINE
  5
B15
  8
0
 10
2179.2471265782542105
 20
2212.1612791652269152
 30
0.0
 11
2180.5471265782539376
 21
2212.1612791652269152
 31
0.0
  0
LINE
  5
B16
  8
0
 10
2179.2471265782542105
 20
2198.1612791652269152
 30
0.0
 11
2180.5471265782539376
 21
2198.1612791652269152
 31
0.0
  0
ARC
  5
B17
  8
0
 10
2179.2471265782542105
 20
2210.6612791652269152
 30
0.0
 40
1.5
 50
90.0
 51
180.0
  0
ARC
  5
B18
  8
0
 10
2179.2284290686047825
 20
2199.6161393838488038
 30
0.0
 40
1.4549803615847661
 50
174.1795848474251898
 51
270.7363108852113101
  0
CIRCLE
  5
B1A
  8
0
 10
2172.7509599191289453
 20
2205.3570308299731551
 30
0.0
 40
2.799999999999998
  0
ARC
  5
B22
  8
0
 10
2172.7475918546711
 20
2205.3652218630591051
 30
0.0
 40
4.9995414335036941
 50
25.2692238319229503
 51
225.9077701911056124
  0
LINE
  5
B2D
  8
0
 10
2177.2687370303101488
 20
2207.4993870033708845
 30
0.0
 11
2177.7471265782542105
 21
2210.6612791652269152
 31
0.0
  0
ARC
  5
B2F
  8
0
 10
2177.7471265782542105
 20
2205.1612791652269152
 30
0.0
 40
5.3976950627200786
 50
234.9709023256448859
 51
270.3590296113907243
  0
ARC
  5
B31
  8
0
 10
2169.6703930849789685
 20
2206.0370493331411126
 30
0.0
 40
6.4536970742375708
 50
174.441074579147994
 51
298.5046744859474188
  0
ARC
  5
B32
  8
0
 10
2169.692352855738136
 20
2208.028190640990033
 30
0.0
 40
6.2680672336706413
 50
191.9658338834805136
 51
266.1257037946684818
  0
ARC
  5
B35
  8
0
 10
2172.7475918546711
 20
2205.3652218630591051
 30
0.0
 40
4.9995414335036941
 50
270.030965883324825
 51
292.3519362409979863
  0
ARC
  5
B37
  8
0
 10
2163.4059996033511197
 20
2206.684882568355988
 30
0.0
 40
0.1605606091012821
 50
15.8157272413651793
 51
188.1159401800279909
  0
LINE
  5
CDC
  8
0
 10
1852.4888497203510269
 20
2056.77598811161306
 30
0.0
 11
1907.4888497203510269
 21
2056.77598811161306
 31
0.0
  0
LINE
  5
CDD
  8
0
 10
1907.4888497203510269
 20
2056.77598811161306
 30
0.0
 11
1907.4888497203510269
 21
2006.9759881116131055
 31
0.0
  0
LINE
  5
CDF
  8
0
 10
1852.4888497203510269
 20
2006.9759881116131055
 30
0.0
 11
1852.4888497203510269
 21
2056.77598811161306
 31
0.0
  0
LINE
  5
CEE
  8
0
 10
1968.1566688911150322
 20
1945.8913292672380067
 30
0.0
 11
2023.1566688911159417
 21
1945.8913292672380067
 31
0.0
  0
LINE
  5
CEF
  8
0
 10
2023.1566688911159417
 20
1945.8913292672380067
 30
0.0
 11
2023.1566688911159417
 21
1896.0913292672380521
 31
0.0
  0
LINE
  5
CF0
  8
0
 10
2023.1566688911159417
 20
1896.0913292672380521
 30
0.0
 11
1968.1566688911150322
 21
1896.0913292672380521
 31
0.0
  0
LINE
  5
CF1
  8
0
 10
1968.1566688911150322
 20
1896.0913292672380521
 30
0.0
 11
1968.1566688911150322
 21
1945.8913292672380067
 31
0.0
  0
LINE
  5
CFC
  8
0
 10
2135.736748454561166
 20
1955.6076661544559556
 30
0.0
 11
2190.736748454561166
 21
1955.6076661544559556
 31
0.0
  0
LINE
  5
CFD
  8
0
 10
2190.736748454561166
 20
1955.6076661544559556
 30
0.0
 11
2190.736748454561166
 21
1905.8076661544560011
 31
0.0
  0
LINE
  5
CFE
  8
0
 10
2190.736748454561166
 20
1905.8076661544560011
 30
0.0
 11
2135.736748454561166
 21
1905.8076661544560011
 31
0.0
  0
LINE
  5
CFF
  8
0
 10
2135.736748454561166
 20
1905.8076661544560011
 30
0.0
 11
2135.736748454561166
 21
1955.6076661544559556
 31
0.0
  0
LINE
  5
D0A
  8
0
 10
2258.3051600026078631
 20
1954.0536492211740551
 30
0.0
 11
2313.3051600026078631
 21
1954.0536492211740551
 31
0.0
  0
LINE
  5
D0B
  8
0
 10
2313.3051600026078631
 20
1954.0536492211740551
 30
0.0
 11
2313.3051600026078631
 21
1904.2536492211741006
 31
0.0
  0
LINE
  5
D0C
  8
0
 10
2313.3051600026078631
 20
1904.2536492211741006
 30
0.0
 11
2258.3051600026078631
 21
1904.2536492211741006
 31
0.0
  0
LINE
  5
D0D
  8
0
 10
2258.3051600026078631
 20
1904.2536492211741006
 30
0.0
 11
2258.3051600026078631
 21
1954.0536492211740551
 31
0.0
  0
LINE
  5
D18
  8
0
 10
1853.9687830163420585
 20
1944.4808108970439662
 30
0.0
 11
1908.9687830163420585
 21
1944.4808108970439662
 31
0.0
  0
LINE
  5
D19
  8
0
 10
1908.9687830163420585
 20
1944.4808108970439662
 30
0.0
 11
1908.9687830163420585
 21
1894.6808108970440117
 31
0.0
  0
LINE
  5
D1A
  8
0
 10
1908.9687830163420585
 20
1894.6808108970440117
 30
0.0
 11
1853.9687830163420585
 21
1894.6808108970440117
 31
0.0
  0
LINE
  5
D1B
  8
0
 10
1853.9687830163420585
 20
1894.6808108970440117
 30
0.0
 11
1853.9687830163420585
 21
1944.4808108970439662
 31
0.0
  0
LINE
  5
F74
  8
0
 10
1850.3628417051520501
 20
1857.146496592333051
 30
0.0
 11
1853.1628417051520046
 21
1857.146496592333051
 31
0.0
  0
LINE
  5
F75
  8
0
 10
1853.1628417051520046
 20
1857.146496592333051
 30
0.0
 11
1853.1628417051520046
 21
1847.146496592333051
 31
0.0
  0
LINE
  5
F76
  8
0
 10
1850.3628417051520501
 20
1857.146496592333051
 30
0.0
 11
1850.3628417051520501
 21
1847.146496592333051
 31
0.0
  0
LINE
  5
F77
  8
0
 10
1853.1628417051520046
 20
1847.146496592333051
 30
0.0
 11
1859.2628417051519136
 21
1847.146496592333051
 31
0.0
  0
LINE
  5
F7D
  8
0
 10
1802.4479993575480421
 20
1869.7951546784941002
 30
0.0
 11
1802.4479993575480421
 21
1875.3085687076970771
 31
0.0
  0
LINE
  5
F7E
  8
0
 10
1799.6679993575480694
 20
1869.7951546784941002
 30
0.0
 11
1799.6679993575480694
 21
1875.3085687076959402
 31
0.0
  0
LINE
  5
F7F
  8
0
 10
1793.5579993575479421
 20
1859.7951546784941002
 30
0.0
 11
1808.5579993575479421
 21
1859.7951546784941002
 31
0.0
  0
ARC
  5
F80
  8
0
 10
1817.7335695626989036
 20
1863.3428204808199098
 30
0.0
 40
24.4344864359617908
 50
148.551225892227194
 51
188.3483356581068051
  0
ARC
  5
F81
  8
0
 10
1784.38242915239789
 20
1863.3428204808199098
 30
0.0
 40
24.4344864359609488
 50
351.6516643418901822
 51
31.4487741077758685
  0
LINE
  5
FBE
  8
0
 10
1799.6679993575480694
 20
1869.7951546784941002
 30
0.0
 11
1802.4479993575480421
 21
1869.7951546784941002
 31
0.0
  0
ARC
  5
FBF
  8
0
 10
1798.1679993575480694
 20
1875.3085687076959402
 30
0.0
 40
1.5
 50
359.999999999991303
 51
148.5512258922263982
  0
ARC
  5
FC0
  8
0
 10
1803.9479993575480421
 20
1875.3085687076970771
 30
0.0
 40
1.5
 50
31.4487741077723193
 51
180.0
  0
LINE
  5
FCF
  8
0
 10
1802.9913171710900315
 20
1849.4015454377840797
 30
0.0
 11
1802.9913171710900315
 21
1854.9149594669859198
 31
0.0
  0
LINE
  5
FD0
  8
0
 10
1800.2113171710900588
 20
1849.4015454377840797
 30
0.0
 11
1800.2113171710900588
 21
1854.9149594669850103
 31
0.0
  0
LINE
  5
FD1
  8
0
 10
1794.1013171710899314
 20
1839.4015454377829428
 30
0.0
 11
1809.1013171710899314
 21
1839.4015454377829428
 31
0.0
  0
ARC
  5
FD2
  8
0
 10
1818.276887376240893
 20
1842.9492112401089798
 30
0.0
 40
24.4344864359617908
 50
148.551225892229013
 51
188.3483356581012913
  0
ARC
  5
FD3
  8
0
 10
1798.7113171710900588
 20
1854.9149594669850103
 30
0.0
 40
1.5
 50
359.9999999999869829
 51
148.551225892229013
  0
ARC
  5
FD4
  8
0
 10
1784.9257469659401067
 20
1842.9492112401089798
 30
0.0
 40
24.4344864359609488
 50
351.6516643418838726
 51
31.4487741077709693
  0
ARC
  5
FD5
  8
0
 10
1804.4913171710900315
 20
1854.9149594669859198
 30
0.0
 40
1.5
 50
31.4487741077709693
 51
180.0
  0
LINE
  5
FD6
  8
0
 10
1800.2113171710900588
 20
1849.4015454377840797
 30
0.0
 11
1802.9913171710900315
 21
1849.4015454377840797
 31
0.0
  0
LINE
  5
FE5
  8
0
 10
1803.7889126077409401
 20
1830.272461430193971
 30
0.0
 11
1803.7889126077409401
 21
1835.7858754593969479
 31
0.0
  0
LINE
  5
FE6
  8
0
 10
1801.0089126077409674
 20
1830.272461430193971
 30
0.0
 11
1801.0089126077409674
 21
1835.7858754593949016
 31
0.0
  0
LINE
  5
FE7
  8
0
 10
1794.8989126077410674
 20
1820.272461430193971
 30
0.0
 11
1809.8989126077419769
 21
1820.272461430193971
 31
0.0
  0
ARC
  5
FE8
  8
0
 10
1819.074482812892029
 20
1823.8201272325190985
 30
0.0
 40
24.4344864359617908
 50
148.551225892229013
 51
188.3483356581012913
  0
ARC
  5
FE9
  8
0
 10
1799.5089126077409674
 20
1835.7858754593949016
 30
0.0
 40
1.5
 50
359.9999999999869829
 51
148.551225892229013
  0
ARC
  5
FEA
  8
0
 10
1785.7233424025910153
 20
1823.820127232520008
 30
0.0
 40
24.4344864359609488
 50
351.6516643418838726
 51
31.4487741077709693
  0
ARC
  5
FEB
  8
0
 10
1805.2889126077420769
 20
1835.7858754593969479
 30
0.0
 40
1.5
 50
31.4487741077709693
 51
180.0
  0
LINE
  5
FEC
  8
0
 10
1801.0089126077409674
 20
1830.272461430193971
 30
0.0
 11
1803.7889126077409401
 21
1830.272461430193971
 31
0.0
  0
LINE
  5
FFB
  8
0
 10
1803.5064087609339367
 20
1809.806835870688019
 30
0.0
 11
1803.5064087609339367
 21
1815.3202498998909959
 31
0.0
  0
LINE
  5
FFC
  8
0
 10
1800.7264087609351009
 20
1809.806835870688019
 30
0.0
 11
1800.7264087609351009
 21
1815.3202498998900865
 31
0.0
  0
LINE
  5
FFD
  8
0
 10
1794.6164087609349735
 20
1799.806835870688019
 30
0.0
 11
1809.6164087609349735
 21
1799.806835870688019
 31
0.0
  0
ARC
  5
FFE
  8
0
 10
1818.7919789660859351
 20
1803.354501673014056
 30
0.0
 40
24.4344864359617908
 50
148.551225892229013
 51
188.3483356581012913
  0
ARC
  5
FFF
  8
0
 10
1799.226408760933964
 20
1815.3202498998900865
 30
0.0
 40
1.5
 50
359.9999999999869829
 51
148.551225892229013
  0
ARC
  5
1000
  8
0
 10
1785.440838555784012
 20
1803.354501673014056
 30
0.0
 40
24.4344864359609488
 50
351.6516643418838726
 51
31.4487741077709693
  0
ARC
  5
1001
  8
0
 10
1805.0064087609350736
 20
1815.3202498998909959
 30
0.0
 40
1.5
 50
31.4487741077709693
 51
180.0
  0
LINE
  5
1002
  8
0
 10
1800.7264087609351009
 20
1809.806835870688019
 30
0.0
 11
1803.5064087609339367
 21
1809.806835870688019
 31
0.0
  0
LINE
  5
100C
  8
0
 10
1909.7747243275389337
 20
1857.146496592333051
 30
0.0
 11
1912.5747243275388882
 21
1857.146496592333051
 31
0.0
  0
LINE
  5
100D
  8
0
 10
1912.5747243275388882
 20
1857.146496592333051
 30
0.0
 11
1912.5747243275388882
 21
1847.146496592333051
 31
0.0
  0
LINE
  5
100E
  8
0
 10
1909.7747243275389337
 20
1857.146496592333051
 30
0.0
 11
1909.7747243275389337
 21
1847.146496592333051
 31
0.0
  0
LINE
  5
101A
  8
0
 10
2023.9626102022800751
 20
1858.5570149625880276
 30
0.0
 11
2026.7626102022809391
 21
1858.5570149625880276
 31
0.0
  0
LINE
  5
101B
  8
0
 10
2026.7626102022809391
 20
1858.5570149625880276
 30
0.0
 11
2026.7626102022809391
 21
1848.5570149625880276
 31
0.0
  0
LINE
  5
101C
  8
0
 10
2023.9626102022800751
 20
1858.5570149625880276
 30
0.0
 11
2023.9626102022800751
 21
1848.5570149625880276
 31
0.0
  0
LINE
  5
1028
  8
0
 10
1964.5507275798909177
 20
1858.5570149625880276
 30
0.0
 11
1967.3507275798910996
 21
1858.5570149625880276
 31
0.0
  0
LINE
  5
1029
  8
0
 10
1967.3507275798910996
 20
1858.5570149625880276
 30
0.0
 11
1967.3507275798910996
 21
1848.5570149625880276
 31
0.0
  0
LINE
  5
102A
  8
0
 10
1964.5507275798909177
 20
1858.5570149625880276
 30
0.0
 11
1964.5507275798909177
 21
1848.5570149625880276
 31
0.0
  0
LINE
  5
102C
  8
0
 10
1909.7747243275389337
 20
1847.146496592333051
 30
0.0
 11
1903.6747243275390247
 21
1847.146496592333051
 31
0.0
  0
LINE
  5
102D
  8
0
 10
2023.9626102022800751
 20
1848.5570149625880276
 30
0.0
 11
2017.8626102022799387
 21
1848.5570149625880276
 31
0.0
  0
LINE
  5
102E
  8
0
 10
1967.3507275798910996
 20
1848.5570149625880276
 30
0.0
 11
1973.4507275798910086
 21
1848.5570149625880276
 31
0.0
  0
ENDSEC
  0
EOF
