999
dxflib 3.17.0.0
  0
SECTION
  2
HEADER
  9
$ACADVER
  1
AC1015
  9
$HANDSEED
  5
FFFF
  9
$INSUNITS
 70
4
  9
$DIMEXE
 40
1.25
  9
$TEXTSTYLE
  7
Standard
  9
$LIMMIN
 10
0.0
 20
0.0
  0
ENDSEC
  0
SECTION
  2
TABLES
  0
TABLE
  2
VPORT
  5
8
100
AcDbSymbolTable
 70
1
  0
VPORT
  5
30
100
AcDbSymbolTableRecord
100
AcDbViewportTableRecord
  2
*Active
 70
0
 10
0.0
 20
0.0
 11
1.0
 21
1.0
 12
286.30555555555549
 22
148.5
 13
0.0
 23
0.0
 14
10.0
 24
10.0
 15
10.0
 25
10.0
 16
0.0
 26
0.0
 36
1.0
 17
0.0
 27
0.0
 37
0.0
 40
297.0
 41
1.92798353909465
 42
50.0
 43
0.0
 44
0.0
 50
0.0
 51
0.0
 71
0
 72
100
 73
1
 74
3
 75
1
 76
1
 77
0
 78
0
281
0
 65
1
110
0.0
120
0.0
130
0.0
111
1.0
121
0.0
131
0.0
112
0.0
122
1.0
132
0.0
 79
0
146
0.0
  0
ENDTAB
  0
TABLE
  2
LTYPE
  5
5
100
AcDbSymbolTable
 70
25
  0
LTYPE
  5
14
100
AcDbSymbolTableRecord
100
AcDbLinetypeTableRecord
  2
BYBLOCK
 70
0
  3

 72
65
 73
0
 40
0.0
  0
LTYPE
  5
15
100
AcDbSymbolTableRecord
100
AcDbLinetypeTableRecord
  2
BYLAYER
 70
0
  3

 72
65
 73
0
 40
0.0
  0
LTYPE
  5
16
100
AcDbSymbolTableRecord
100
AcDbLinetypeTableRecord
  2
CONTINUOUS
 70
0
  3
Solid line
 72
65
 73
0
 40
0.0
  0
LTYPE
  5
31
100
AcDbSymbolTableRecord
100
AcDbLinetypeTableRecord
  2
ACAD_ISO02W100
 70
0
  3

 72
65
 73
0
 40
0.0
  0
LTYPE
  5
32
100
AcDbSymbolTableRecord
100
AcDbLinetypeTableRecord
  2
ACAD_ISO03W100
 70
0
  3

 72
65
 73
0
 40
0.0
  0
LTYPE
  5
33
100
AcDbSymbolTableRecord
100
AcDbLinetypeTableRecord
  2
ACAD_ISO04W100
 70
0
  3

 72
65
 73
0
 40
0.0
  0
LTYPE
  5
34
100
AcDbSymbolTableRecord
100
AcDbLinetypeTableRecord
  2
ACAD_ISO05W100
 70
0
  3

 72
65
 73
0
 40
0.0
  0
LTYPE
  5
35
100
AcDbSymbolTableRecord
100
AcDbLinetypeTableRecord
  2
BORDER
 70
0
  3

 72
65
 73
0
 40
0.0
  0
LTYPE
  5
36
100
AcDbSymbolTableRecord
100
AcDbLinetypeTableRecord
  2
BORDER2
 70
0
  3

 72
65
 73
0
 40
0.0
  0
LTYPE
  5
37
100
AcDbSymbolTableRecord
100
AcDbLinetypeTableRecord
  2
BORDERX2
 70
0
  3

 72
65
 73
0
 40
0.0
  0
LTYPE
  5
38
100
AcDbSymbolTableRecord
100
AcDbLinetypeTableRecord
  2
CENTER
 70
0
  3

 72
65
 73
0
 40
0.0
  0
LTYPE
  5
39
100
AcDbSymbolTableRecord
100
AcDbLinetypeTableRecord
  2
CENTER2
 70
0
  3

 72
65
 73
0
 40
0.0
  0
LTYPE
  5
3A
100
AcDbSymbolTableRecord
100
AcDbLinetypeTableRecord
  2
CENTERX2
 70
0
  3

 72
65
 73
0
 40
0.0
  0
LTYPE
  5
3B
100
AcDbSymbolTableRecord
100
AcDbLinetypeTableRecord
  2
DASHDOT
 70
0
  3

 72
65
 73
0
 40
0.0
  0
LTYPE
  5
3C
100
AcDbSymbolTableRecord
100
AcDbLinetypeTableRecord
  2
DASHDOT2
 70
0
  3

 72
65
 73
0
 40
0.0
  0
LTYPE
  5
3D
100
AcDbSymbolTableRecord
100
AcDbLinetypeTableRecord
  2
DASHDOTX2
 70
0
  3

 72
65
 73
0
 40
0.0
  0
LTYPE
  5
3E
100
AcDbSymbolTableRecord
100
AcDbLinetypeTableRecord
  2
DASHED
 70
0
  3

 72
65
 73
0
 40
0.0
  0
LTYPE
  5
3F
100
AcDbSymbolTableRecord
100
AcDbLinetypeTableRecord
  2
DASHED2
 70
0
  3

 72
65
 73
0
 40
0.0
  0
LTYPE
  5
40
100
AcDbSymbolTableRecord
100
AcDbLinetypeTableRecord
  2
DASHEDX2
 70
0
  3

 72
65
 73
0
 40
0.0
  0
LTYPE
  5
41
100
AcDbSymbolTableRecord
100
AcDbLinetypeTableRecord
  2
DIVIDE
 70
0
  3

 72
65
 73
0
 40
0.0
  0
LTYPE
  5
42
100
AcDbSymbolTableRecord
100
AcDbLinetypeTableRecord
  2
DIVIDE2
 70
0
  3

 72
65
 73
0
 40
0.0
  0
LTYPE
  5
43
100
AcDbSymbolTableRecord
100
AcDbLinetypeTableRecord
  2
DIVIDEX2
 70
0
  3

 72
65
 73
0
 40
0.0
  0
LTYPE
  5
44
100
AcDbSymbolTableRecord
100
AcDbLinetypeTableRecord
  2
DOT
 70
0
  3

 72
65
 73
0
 40
0.0
  0
LTYPE
  5
45
100
AcDbSymbolTableRecord
100
AcDbLinetypeTableRecord
  2
DOT2
 70
0
  3

 72
65
 73
0
 40
0.0
  0
LTYPE
  5
46
100
AcDbSymbolTableRecord
100
AcDbLinetypeTableRecord
  2
DOTX2
 70
0
  3

 72
65
 73
0
 40
0.0
  0
ENDTAB
  0
TABLE
  2
LAYER
  5
2
100
AcDbSymbolTable
 70
1
  0
LAYER
  5
10
100
AcDbSymbolTableRecord
100
AcDbLayerTableRecord
  2
0
 70
0
 62
7
420
16777215
  6
CONTINUOUS
390
F
  0
ENDTAB
  0
TABLE
  2
STYLE
  5
3
100
AcDbSymbolTable
 70
1
  0
STYLE
  5
47
100
AcDbSymbolTableRecord
100
AcDbTextStyleTableRecord
  2
Standard
 70
0
 40
2.5
 41
1.0
 50
0.0
 71
0
 42
2.5
  3

  4

1001
ACAD
1000
txt
1071
0
  0
ENDTAB
  0
TABLE
  2
VIEW
  5
6
100
AcDbSymbolTable
 70
0
  0
ENDTAB
  0
TABLE
  2
UCS
  5
7
100
AcDbSymbolTable
 70
0
  0
ENDTAB
  0
TABLE
  2
APPID
  5
9
100
AcDbSymbolTable
 70
1
  0
APPID
  5
12
100
AcDbSymbolTableRecord
100
AcDbRegAppTableRecord
  2
ACAD
 70
0
 70
0
  0
ENDTAB
  0
TABLE
  2
DIMSTYLE
  5
A
100
AcDbSymbolTable
 70
1
100
AcDbDimStyleTable
 71
0
  0
DIMSTYLE
105
27
100
AcDbSymbolTableRecord
100
AcDbDimStyleTableRecord
  2
Standard
 41
1.0
 42
1.0
 43
3.75
 44
1.0
 70
0
 73
0
 74
0
 77
1
 78
8
140
1.0
141
2.5
143
0.03937007874016
147
1.0
171
3
172
1
271
2
272
2
274
3
278
44
283
0
284
8
340
47
  0
ENDTAB
  0
TABLE
  2
BLOCK_RECORD
  5
1
100
AcDbSymbolTable
 70
1
  0
BLOCK_RECORD
  5
1F
100
AcDbSymbolTableRecord
100
AcDbBlockTableRecord
  2
*Model_Space
340
22
  0
BLOCK_RECORD
  5
1B
100
AcDbSymbolTableRecord
100
AcDbBlockTableRecord
  2
*Paper_Space
340
1E
  0
BLOCK_RECORD
  5
23
100
AcDbSymbolTableRecord
100
AcDbBlockTableRecord
  2
*Paper_Space0
340
26
  0
BLOCK_RECORD
  5
48
100
AcDbSymbolTableRecord
100
AcDbBlockTableRecord
  2
myblock1
340
0
  0
BLOCK_RECORD
  5
49
100
AcDbSymbolTableRecord
100
AcDbBlockTableRecord
  2
myblock2
340
0
  0
ENDTAB
  0
ENDSEC
  0
SECTION
  2
BLOCKS
  0
BLOCK
  5
20
100
AcDbEntity
  8
0
100
AcDbBlockBegin
  2
*Model_Space
 70
0
 10
0.0
 20
0.0
 30
0.0
  3
*Model_Space
  1

  0
ENDBLK
  5
21
100
AcDbEntity
  8
0
100
AcDbBlockEnd
  0
BLOCK
  5
1C
100
AcDbEntity
 67
1
  8
0
100
AcDbBlockBegin
  2
*Paper_Space
 70
0
 10
0.0
 20
0.0
 30
0.0
  3
*Paper_Space
  1

  0
ENDBLK
  5
1D
100
AcDbEntity
 67
1
  8
0
100
AcDbBlockEnd
  0
BLOCK
  5
24
100
AcDbEntity
  8
0
100
AcDbBlockBegin
  2
*Paper_Space0
 70
0
 10
0.0
 20
0.0
 30
0.0
  3
*Paper_Space0
  1

  0
ENDBLK
  5
25
100
AcDbEntity
  8
0
100
AcDbBlockEnd
  0
BLOCK
  5
4A
100
AcDbEntity
  8
0
100
AcDbBlockBegin
  2
myblock1
 70
0
 10
0.0
 20
0.0
 30
0.0
  3
myblock1
  1

  0
ENDBLK
  5
4B
100
AcDbEntity
  8
0
100
AcDbBlockEnd
  0
BLOCK
  5
4C
100
AcDbEntity
  8
0
100
AcDbBlockBegin
  2
myblock2
 70
0
 10
0.0
 20
0.0
 30
0.0
  3
myblock2
  1

  0
ENDBLK
  5
4D
100
AcDbEntity
  8
0
100
AcDbBlockEnd
  0
ENDSEC
  0
SECTION
  2
ENTITIES
  0
LWPOLYLINE
  5
4E
100
AcDbEntity
  8
0
 62
256
420
16777215
370
-1
 48
1.0
  6
CONTINUOUS
100
AcDbPolyline
 90
228
 70
0
 10
423.71746826171875
 20
287.63998413085937
 30
0.0
 10
422.8499755859375
 20
288.47998046875
 30
0.0
 10
421.99746704101562
 20
289.31747436523437
 30
0.0
 10
421.1624755859375
 20
290.157470703125
 30
0.0
 10
420.344970703125
 20
290.99746704101562
 30
0.0
 10
419.54498291015625
 20
291.8399658203125
 30
0.0
 10
418.76248168945312
 20
292.68496704101562
 30
0.0
 10
418.00247192382812
 20
293.53497314453125
 30
0.0
 10
417.25997924804687
 20
294.38748168945312
 30
0.0
 10
416.53997802734375
 20
295.24746704101562
 30
0.0
 10
415.8399658203125
 20
296.114990234375
 30
0.0
 10
415.16497802734375
 20
296.989990234375
 30
0.0
 10
414.51248168945312
 20
297.87496948242187
 30
0.0
 10
413.88247680664062
 20
298.76748657226562
 30
0.0
 10
413.2774658203125
 20
299.6724853515625
 30
0.0
 10
412.69998168945312
 20
300.5899658203125
 30
0.0
 10
412.1474609375
 20
301.51998901367187
 30
0.0
 10
411.62246704101562
 20
302.46246337890625
 30
0.0
 10
411.12496948242187
 20
303.41998291015625
 30
0.0
 10
410.65496826171875
 20
304.39498901367187
 30
0.0
 10
410.21746826171875
 20
305.38497924804687
 30
0.0
 10
409.80746459960937
 20
306.39248657226562
 30
0.0
 10
409.427490234375
 20
307.41998291015625
 30
0.0
 10
409.07998657226562
 20
308.46746826171875
 30
0.0
 10
408.76748657226562
 20
309.53497314453125
 30
0.0
 10
408.4849853515625
 20
310.62496948242187
 30
0.0
 10
408.23748779296875
 20
311.7349853515625
 30
0.0
 10
408.0224609375
 20
312.86996459960937
 30
0.0
 10
407.844970703125
 20
314.032470703125
 30
0.0
 10
407.70248413085937
 20
315.21746826171875
 30
0.0
 10
407.59747314453125
 20
316.42999267578125
 30
0.0
 10
407.52996826171875
 20
317.66998291015625
 30
0.0
 10
407.50247192382812
 20
318.93746948242187
 30
0.0
 10
407.49996948242187
 20
319.25247192382813
 30
0.0
 10
407.51998901367187
 20
320.05746459960937
 30
0.0
 10
407.57498168945312
 20
320.86248779296875
 30
0.0
 10
407.66748046875
 20
321.6624755859375
 30
0.0
 10
407.79498291015625
 20
322.45999145507812
 30
0.0
 10
407.9599609375
 20
323.25497436523437
 30
0.0
 10
408.15496826171875
 20
324.04248046875
 30
0.0
 10
408.38497924804688
 20
324.82498168945312
 30
0.0
 10
408.6474609375
 20
325.60247802734375
 30
0.0
 10
408.94247436523437
 20
326.36996459960937
 30
0.0
 10
409.26498413085937
 20
327.12997436523437
 30
0.0
 10
409.61996459960937
 20
327.87997436523437
 30
0.0
 10
410.00247192382812
 20
328.61996459960937
 30
0.0
 10
410.4124755859375
 20
329.34747314453125
 30
0.0
 10
410.84747314453125
 20
330.06246948242187
 30
0.0
 10
411.31246948242187
 20
330.76498413085937
 30
0.0
 10
411.79998779296875
 20
331.45498657226562
 30
0.0
 10
412.31246948242187
 20
332.12747192382813
 30
0.0
 10
412.8499755859375
 20
332.78497314453125
 30
0.0
 10
413.40997314453125
 20
333.427490234375
 30
0.0
 10
413.989990234375
 20
334.04998779296875
 30
0.0
 10
414.59246826171875
 20
334.65496826171875
 30
0.0
 10
415.2149658203125
 20
335.239990234375
 30
0.0
 10
415.85498046875
 20
335.80496215820313
 30
0.0
 10
416.51498413085937
 20
336.34747314453125
 30
0.0
 10
417.19247436523437
 20
336.86996459960937
 30
0.0
 10
417.88748168945312
 20
337.36746215820312
 30
0.0
 10
418.59747314453125
 20
337.84246826171875
 30
0.0
 10
419.32247924804687
 20
338.29248046875
 30
0.0
 10
420.06246948242187
 20
338.7149658203125
 30
0.0
 10
420.81497192382813
 20
339.11248779296875
 30
0.0
 10
421.57998657226562
 20
339.47998046875
 30
0.0
 10
422.35748291015625
 20
339.82247924804687
 30
0.0
 10
423.13497924804687
 20
340.12997436523437
 30
0.0
 10
423.91998291015625
 20
340.407470703125
 30
0.0
 10
424.7149658203125
 20
340.65496826171875
 30
0.0
 10
425.51748657226562
 20
340.87246704101562
 30
0.0
 10
426.32748413085937
 20
341.05496215820313
 30
0.0
 10
427.14498901367187
 20
341.20748901367187
 30
0.0
 10
427.96746826171875
 20
341.32498168945312
 30
0.0
 10
428.79248046875
 20
341.407470703125
 30
0.0
 10
429.62246704101562
 20
341.45498657226562
 30
0.0
 10
430.45748901367187
 20
341.46746826171875
 30
0.0
 10
431.29248046875
 20
341.43997192382812
 30
0.0
 10
432.12997436523437
 20
341.37496948242187
 30
0.0
 10
432.96746826171875
 20
341.27249145507812
 30
0.0
 10
433.802490234375
 20
341.12997436523437
 30
0.0
 10
434.63998413085937
 20
340.94497680664062
 30
0.0
 10
435.47247314453125
 20
340.719970703125
 30
0.0
 10
436.30496215820312
 20
340.45248413085937
 30
0.0
 10
437.13247680664062
 20
340.14248657226562
 30
0.0
 10
437.95498657226562
 20
339.7874755859375
 30
0.0
 10
438.7724609375
 20
339.38497924804687
 30
0.0
 10
439.5849609375
 20
338.93997192382812
 30
0.0
 10
440.38998413085937
 20
338.44747924804687
 30
0.0
 10
441.18746948242187
 20
337.907470703125
 30
0.0
 10
441.97747802734375
 20
337.31747436523437
 30
0.0
 10
442.75747680664062
 20
336.67996215820312
 30
0.0
 10
443.52496337890625
 20
335.989990234375
 30
0.0
 10
444.28497314453125
 20
335.24996948242187
 30
0.0
 10
445.02996826171875
 20
334.45748901367187
 30
0.0
 10
445.76498413085937
 20
333.614990234375
 30
0.0
 10
446.4849853515625
 20
332.7149658203125
 30
0.0
 10
447.18997192382812
 20
331.76248168945312
 30
0.0
 10
447.88247680664062
 20
330.75497436523437
 30
0.0
 10
448.42996215820313
 20
329.89996337890625
 30
0.0
 10
448.9649658203125
 20
329.00747680664062
 30
0.0
 10
449.48995971679687
 20
328.07498168945312
 30
0.0
 10
450.00247192382813
 20
327.10748291015625
 30
0.0
 10
450.32247924804687
 20
327.72247314453125
 30
0.0
 10
450.64996337890625
 20
328.31997680664062
 30
0.0
 10
450.97998046875
 20
328.90496826171875
 30
0.0
 10
451.31497192382812
 20
329.47247314453125
 30
0.0
 10
451.99746704101562
 20
330.56747436523437
 30
0.0
 10
452.69747924804687
 20
331.60247802734375
 30
0.0
 10
453.4124755859375
 20
332.57998657226562
 30
0.0
 10
454.14248657226562
 20
333.50247192382813
 30
0.0
 10
454.88748168945312
 20
334.36746215820312
 30
0.0
 10
455.64498901367187
 20
335.177490234375
 30
0.0
 10
456.41497802734375
 20
335.93496704101562
 30
0.0
 10
457.19747924804687
 20
336.63998413085937
 30
0.0
 10
457.98995971679687
 20
337.28997802734375
 30
0.0
 10
458.78997802734375
 20
337.89248657226562
 30
0.0
 10
459.60247802734375
 20
338.44247436523437
 30
0.0
 10
460.41998291015625
 20
338.94247436523437
 30
0.0
 10
461.24746704101562
 20
339.39749145507812
 30
0.0
 10
462.07748413085937
 20
339.802490234375
 30
0.0
 10
462.91497802734375
 20
340.1624755859375
 30
0.0
 10
463.75747680664062
 20
340.4749755859375
 30
0.0
 10
464.60247802734375
 20
340.74246215820312
 30
0.0
 10
465.45248413085937
 20
340.96746826171875
 30
0.0
 10
466.30245971679687
 20
341.14996337890625
 30
0.0
 10
467.1524658203125
 20
341.28997802734375
 30
0.0
 10
468.00497436523437
 20
341.38748168945312
 30
0.0
 10
468.85498046875
 20
341.44747924804687
 30
0.0
 10
469.70498657226563
 20
341.46746826171875
 30
0.0
 10
470.55245971679687
 20
341.44747924804687
 30
0.0
 10
471.39498901367187
 20
341.38998413085937
 30
0.0
 10
472.2349853515625
 20
341.2974853515625
 30
0.0
 10
473.06997680664062
 20
341.16998291015625
 30
0.0
 10
473.8974609375
 20
341.00497436523437
 30
0.0
 10
474.719970703125
 20
340.80746459960937
 30
0.0
 10
475.532470703125
 20
340.57748413085937
 30
0.0
 10
476.40496826171875
 20
340.29498291015625
 30
0.0
 10
477.26248168945312
 20
339.9749755859375
 30
0.0
 10
478.1099853515625
 20
339.61996459960937
 30
0.0
 10
478.94247436523437
 20
339.23248291015625
 30
0.0
 10
479.75997924804687
 20
338.80996704101562
 30
0.0
 10
480.56497192382813
 20
338.35748291015625
 30
0.0
 10
481.35247802734375
 20
337.87496948242187
 30
0.0
 10
482.11996459960937
 20
337.3599853515625
 30
0.0
 10
482.87246704101562
 20
336.81997680664062
 30
0.0
 10
483.60247802734375
 20
336.25247192382813
 30
0.0
 10
484.31246948242187
 20
335.65997314453125
 30
0.0
 10
485.00247192382812
 20
335.03997802734375
 30
0.0
 10
485.66748046875
 20
334.39749145507812
 30
0.0
 10
486.30996704101562
 20
333.7349853515625
 30
0.0
 10
486.92498779296875
 20
333.04998779296875
 30
0.0
 10
487.51498413085937
 20
332.34246826171875
 30
0.0
 10
488.07748413085937
 20
331.61996459960937
 30
0.0
 10
488.61248779296875
 20
330.87747192382812
 30
0.0
 10
489.11746215820312
 20
330.11746215820312
 30
0.0
 10
489.59246826171875
 20
329.34246826171875
 30
0.0
 10
490.03497314453125
 20
328.552490234375
 30
0.0
 10
490.44247436523437
 20
327.75247192382813
 30
0.0
 10
490.81997680664062
 20
326.93746948242187
 30
0.0
 10
491.15997314453125
 20
326.11248779296875
 30
0.0
 10
491.4649658203125
 20
325.2774658203125
 30
0.0
 10
491.73248291015625
 20
324.43246459960937
 30
0.0
 10
491.96246337890625
 20
323.58248901367187
 30
0.0
 10
492.1524658203125
 20
322.72247314453125
 30
0.0
 10
492.30245971679687
 20
321.8599853515625
 30
0.0
 10
492.4124755859375
 20
320.99249267578125
 30
0.0
 10
492.47747802734375
 20
320.12246704101562
 30
0.0
 10
492.49996948242187
 20
319.25247192382813
 30
0.0
 10
492.48995971679687
 20
318.282470703125
 30
0.0
 10
492.45498657226563
 20
317.32998657226562
 30
0.0
 10
492.39996337890625
 20
316.39248657226562
 30
0.0
 10
492.32247924804687
 20
315.469970703125
 30
0.0
 10
492.2249755859375
 20
314.56497192382812
 30
0.0
 10
492.10498046875
 20
313.67498779296875
 30
0.0
 10
491.9649658203125
 20
312.7974853515625
 30
0.0
 10
491.80496215820313
 20
311.93496704101562
 30
0.0
 10
491.38748168945312
 20
310.10498046875
 30
0.0
 10
490.87747192382812
 20
308.33499145507812
 30
0.0
 10
490.282470703125
 20
306.61996459960937
 30
0.0
 10
489.5999755859375
 20
304.95748901367187
 30
0.0
 10
488.83746337890625
 20
303.34246826171875
 30
0.0
 10
487.99746704101562
 20
301.76998901367187
 30
0.0
 10
487.0849609375
 20
300.23748779296875
 30
0.0
 10
486.09747314453125
 20
298.73748779296875
 30
0.0
 10
485.04498291015625
 20
297.26748657226562
 30
0.0
 10
483.92745971679687
 20
295.82247924804687
 30
0.0
 10
482.74996948242187
 20
294.39749145507812
 30
0.0
 10
481.51498413085937
 20
292.989990234375
 30
0.0
 10
480.22747802734375
 20
291.594970703125
 30
0.0
 10
478.88748168945312
 20
290.20498657226562
 30
0.0
 10
477.49996948242187
 20
288.81997680664062
 30
0.0
 10
476.06997680664062
 20
287.43496704101562
 30
0.0
 10
474.5999755859375
 20
286.04248046875
 30
0.0
 10
473.09246826171875
 20
284.63998413085937
 30
0.0
 10
469.97998046875
 20
281.7874755859375
 30
0.0
 10
466.75997924804687
 20
278.8399658203125
 30
0.0
 10
465.11746215820312
 20
277.31997680664062
 30
0.0
 10
463.4599609375
 20
275.76498413085937
 30
0.0
 10
461.7874755859375
 20
274.16748046875
 30
0.0
 10
460.10498046875
 20
272.52499389648438
 30
0.0
 10
458.41748046875
 20
270.83248901367187
 30
0.0
 10
456.72747802734375
 20
269.08499145507812
 30
0.0
 10
455.0374755859375
 20
267.27996826171875
 30
0.0
 10
453.3499755859375
 20
265.4124755859375
 30
0.0
 10
451.6724853515625
 20
263.4749755859375
 30
0.0
 10
450.00247192382813
 20
261.46746826171875
 30
0.0
 10
449.1624755859375
 20
262.489990234375
 30
0.0
 10
448.31747436523437
 20
263.49496459960937
 30
0.0
 10
447.47247314453125
 20
264.47998046875
 30
0.0
 10
446.62246704101562
 20
265.44747924804688
 30
0.0
 10
445.7724609375
 20
266.39749145507812
 30
0.0
 10
444.91998291015625
 20
267.33248901367187
 30
0.0
 10
444.06747436523437
 20
268.24996948242187
 30
0.0
 10
443.21246337890625
 20
269.1524658203125
 30
0.0
 10
441.50747680664062
 20
270.9124755859375
 30
0.0
 10
439.80245971679687
 20
272.61749267578125
 30
0.0
 10
438.10748291015625
 20
274.27249145507812
 30
0.0
 10
436.41998291015625
 20
275.88247680664062
 30
0.0
 10
434.74746704101562
 20
277.44998168945312
 30
0.0
 10
433.09246826171875
 20
278.97998046875
 30
0.0
 10
431.45748901367187
 20
280.47747802734375
 30
0.0
 10
429.84747314453125
 20
281.94747924804687
 30
0.0
 10
428.26498413085937
 20
283.39498901367187
 30
0.0
 10
426.71246337890625
 20
284.82247924804687
 30
0.0
 10
425.19497680664062
 20
286.2349853515625
 30
0.0
 10
423.71746826171875
 20
287.63998413085937
 30
0.0
 10
423.71746826171875
 20
287.63998413085937
 30
0.0
 10
423.71746826171875
 20
287.63998413085937
 30
0.0
  0
LWPOLYLINE
  5
4F
100
AcDbEntity
  8
0
 62
256
420
16777215
370
-1
 48
1.0
  6
CONTINUOUS
100
AcDbPolyline
 90
273
 70
0
 10
449.99996948242187
 20
336.32998657226562
 30
0.0
 10
449.45748901367187
 20
336.98748779296875
 30
0.0
 10
448.89996337890625
 20
337.63247680664062
 30
0.0
 10
448.32498168945312
 20
338.25997924804687
 30
0.0
 10
447.7349853515625
 20
338.87246704101562
 30
0.0
 10
447.12747192382812
 20
339.46746826171875
 30
0.0
 10
446.50247192382812
 20
340.04248046875
 30
0.0
 10
445.86248779296875
 20
340.60247802734375
 30
0.0
 10
445.20748901367187
 20
341.13998413085937
 30
0.0
 10
444.532470703125
 20
341.657470703125
 30
0.0
 10
443.84246826171875
 20
342.15496826171875
 30
0.0
 10
443.13497924804687
 20
342.62747192382812
 30
0.0
 10
442.40997314453125
 20
343.07998657226563
 30
0.0
 10
441.66497802734375
 20
343.50747680664062
 30
0.0
 10
440.90496826171875
 20
343.9124755859375
 30
0.0
 10
440.12747192382812
 20
344.28997802734375
 30
0.0
 10
439.32998657226562
 20
344.64248657226562
 30
0.0
 10
438.25997924804688
 20
345.06246948242187
 30
0.0
 10
437.18246459960937
 20
345.427490234375
 30
0.0
 10
436.094970703125
 20
345.7349853515625
 30
0.0
 10
434.99996948242187
 20
345.98748779296875
 30
0.0
 10
433.89996337890625
 20
346.18746948242187
 30
0.0
 10
432.79248046875
 20
346.33248901367187
 30
0.0
 10
431.68496704101562
 20
346.42498779296875
 30
0.0
 10
430.57498168945312
 20
346.4649658203125
 30
0.0
 10
429.46246337890625
 20
346.45248413085937
 30
0.0
 10
428.3499755859375
 20
346.38748168945312
 30
0.0
 10
427.239990234375
 20
346.27249145507812
 30
0.0
 10
426.13497924804687
 20
346.10748291015625
 30
0.0
 10
425.032470703125
 20
345.89248657226562
 30
0.0
 10
423.93496704101562
 20
345.62496948242187
 30
0.0
 10
422.84246826171875
 20
345.31246948242187
 30
0.0
 10
421.75997924804687
 20
344.94998168945312
 30
0.0
 10
420.77996826171875
 20
344.57748413085937
 30
0.0
 10
419.81246948242187
 20
344.16748046875
 30
0.0
 10
418.85498046875
 20
343.719970703125
 30
0.0
 10
417.91497802734375
 20
343.2349853515625
 30
0.0
 10
416.989990234375
 20
342.7149658203125
 30
0.0
 10
416.07998657226562
 20
342.15997314453125
 30
0.0
 10
415.18746948242187
 20
341.57247924804687
 30
0.0
 10
414.31747436523437
 20
340.95248413085937
 30
0.0
 10
413.4649658203125
 20
340.302490234375
 30
0.0
 10
412.63497924804687
 20
339.62246704101562
 30
0.0
 10
411.82998657226562
 20
338.9124755859375
 30
0.0
 10
411.0474853515625
 20
338.17498779296875
 30
0.0
 10
410.28997802734375
 20
337.4124755859375
 30
0.0
 10
409.56246948242187
 20
336.62246704101562
 30
0.0
 10
408.8599853515625
 20
335.80746459960937
 30
0.0
 10
408.18746948242187
 20
334.969970703125
 30
0.0
 10
407.5474853515625
 20
334.1099853515625
 30
0.0
 10
406.93997192382812
 20
333.22998046875
 30
0.0
 10
406.36248779296875
 20
332.32748413085937
 30
0.0
 10
405.82247924804687
 20
331.407470703125
 30
0.0
 10
405.31747436523437
 20
330.46746826171875
 30
0.0
 10
404.8499755859375
 20
329.51248168945312
 30
0.0
 10
404.41998291015625
 20
328.53997802734375
 30
0.0
 10
404.032470703125
 20
327.552490234375
 30
0.0
 10
403.68246459960937
 20
326.552490234375
 30
0.0
 10
403.37747192382812
 20
325.53997802734375
 30
0.0
 10
403.114990234375
 20
324.51498413085937
 30
0.0
 10
402.8974609375
 20
323.47747802734375
 30
0.0
 10
402.7249755859375
 20
322.43246459960937
 30
0.0
 10
402.5999755859375
 20
321.37997436523437
 30
0.0
 10
402.52496337890625
 20
320.31997680664062
 30
0.0
 10
402.49996948242187
 20
319.25247192382813
 30
0.0
 10
402.51748657226562
 20
317.97247314453125
 30
0.0
 10
402.56747436523437
 20
316.71746826171875
 30
0.0
 10
402.6524658203125
 20
315.4849853515625
 30
0.0
 10
402.7724609375
 20
314.27496337890625
 30
0.0
 10
402.9224853515625
 20
313.08746337890625
 30
0.0
 10
403.10498046875
 20
311.91998291015625
 30
0.0
 10
403.32247924804688
 20
310.77496337890625
 30
0.0
 10
403.56747436523437
 20
309.64749145507812
 30
0.0
 10
403.844970703125
 20
308.53997802734375
 30
0.0
 10
404.15496826171875
 20
307.44998168945312
 30
0.0
 10
404.49246215820313
 20
306.37747192382813
 30
0.0
 10
404.8599853515625
 20
305.31997680664062
 30
0.0
 10
405.25747680664062
 20
304.27996826171875
 30
0.0
 10
405.68496704101562
 20
303.25497436523437
 30
0.0
 10
406.13998413085937
 20
302.24249267578125
 30
0.0
 10
406.62246704101562
 20
301.24496459960937
 30
0.0
 10
407.13247680664062
 20
300.25997924804687
 30
0.0
 10
407.66998291015625
 20
299.28497314453125
 30
0.0
 10
408.23248291015625
 20
298.32247924804688
 30
0.0
 10
408.82247924804687
 20
297.36996459960937
 30
0.0
 10
409.43746948242187
 20
296.427490234375
 30
0.0
 10
410.07998657226562
 20
295.49496459960937
 30
0.0
 10
410.74496459960937
 20
294.56747436523437
 30
0.0
 10
411.43496704101562
 20
293.64996337890625
 30
0.0
 10
412.14996337890625
 20
292.73748779296875
 30
0.0
 10
412.88748168945312
 20
291.82998657226563
 30
0.0
 10
413.6474609375
 20
290.927490234375
 30
0.0
 10
414.43246459960937
 20
290.02996826171875
 30
0.0
 10
415.23748779296875
 20
289.13497924804688
 30
0.0
 10
416.06497192382812
 20
288.24249267578125
 30
0.0
 10
416.9124755859375
 20
287.35247802734375
 30
0.0
 10
417.782470703125
 20
286.46246337890625
 30
0.0
 10
419.4599609375
 20
284.7974853515625
 30
0.0
 10
421.16497802734375
 20
283.157470703125
 30
0.0
 10
422.88998413085937
 20
281.5374755859375
 30
0.0
 10
424.62997436523437
 20
279.93246459960937
 30
0.0
 10
428.12997436523437
 20
276.739990234375
 30
0.0
 10
429.87496948242187
 20
275.14248657226562
 30
0.0
 10
431.6099853515625
 20
273.5374755859375
 30
0.0
 10
433.52996826171875
 20
271.72998046875
 30
0.0
 10
435.427490234375
 20
269.9024658203125
 30
0.0
 10
437.29498291015625
 20
268.052490234375
 30
0.0
 10
439.12997436523437
 20
266.177490234375
 30
0.0
 10
440.93496704101562
 20
264.26998901367187
 30
0.0
 10
442.70248413085937
 20
262.32498168945312
 30
0.0
 10
444.43246459960937
 20
260.34246826171875
 30
0.0
 10
446.12246704101562
 20
258.31246948242187
 30
0.0
 10
446.13247680664062
 20
258.29998779296875
 30
0.0
 10
446.16497802734375
 20
258.25997924804687
 30
0.0
 10
446.21746826171875
 20
258.19497680664062
 30
0.0
 10
446.28997802734375
 20
258.10748291015625
 30
0.0
 10
446.37747192382812
 20
257.99996948242187
 30
0.0
 10
446.47998046875
 20
257.87246704101562
 30
0.0
 10
446.59747314453125
 20
257.72747802734375
 30
0.0
 10
446.72998046875
 20
257.56747436523437
 30
0.0
 10
447.0224609375
 20
257.20498657226562
 30
0.0
 10
447.3499755859375
 20
256.802490234375
 30
0.0
 10
447.69998168945312
 20
256.37246704101562
 30
0.0
 10
448.06246948242187
 20
255.92498779296875
 30
0.0
 10
448.42498779296875
 20
255.47998046875
 30
0.0
 10
448.77496337890625
 20
255.04998779296875
 30
0.0
 10
449.10247802734375
 20
254.64749145507812
 30
0.0
 10
449.3974609375
 20
254.28498840332031
 30
0.0
 10
449.5274658203125
 20
254.12498474121094
 30
0.0
 10
449.64498901367187
 20
253.97998046875
 30
0.0
 10
449.74746704101562
 20
253.85249328613281
 30
0.0
 10
449.8349609375
 20
253.74497985839844
 30
0.0
 10
449.907470703125
 20
253.65748596191406
 30
0.0
 10
449.9599609375
 20
253.59248352050781
 30
0.0
 10
449.99246215820313
 20
253.552490234375
 30
0.0
 10
450.00247192382813
 20
253.53999328613281
 30
0.0
 10
450.01248168945312
 20
253.552490234375
 30
0.0
 10
450.04498291015625
 20
253.59248352050781
 30
0.0
 10
450.09747314453125
 20
253.65748596191406
 30
0.0
 10
450.16998291015625
 20
253.74497985839844
 30
0.0
 10
450.25747680664062
 20
253.85249328613281
 30
0.0
 10
450.3599853515625
 20
253.97998046875
 30
0.0
 10
450.47747802734375
 20
254.12498474121094
 30
0.0
 10
450.6099853515625
 20
254.28498840332031
 30
0.0
 10
450.9024658203125
 20
254.64749145507812
 30
0.0
 10
451.22998046875
 20
255.04998779296875
 30
0.0
 10
451.57998657226562
 20
255.48248291015625
 30
0.0
 10
451.94247436523437
 20
255.927490234375
 30
0.0
 10
452.30496215820313
 20
256.37246704101562
 30
0.0
 10
452.65496826171875
 20
256.80499267578125
 30
0.0
 10
452.98248291015625
 20
257.20748901367187
 30
0.0
 10
453.2774658203125
 20
257.56997680664062
 30
0.0
 10
453.407470703125
 20
257.72998046875
 30
0.0
 10
453.52496337890625
 20
257.87496948242187
 30
0.0
 10
453.62747192382812
 20
258.00247192382812
 30
0.0
 10
453.7149658203125
 20
258.1099853515625
 30
0.0
 10
453.7874755859375
 20
258.19747924804687
 30
0.0
 10
453.8399658203125
 20
258.26248168945312
 30
0.0
 10
453.87246704101562
 20
258.302490234375
 30
0.0
 10
453.88247680664062
 20
258.31497192382812
 30
0.0
 10
455.57247924804687
 20
260.34246826171875
 30
0.0
 10
457.30245971679687
 20
262.32748413085937
 30
0.0
 10
459.06997680664062
 20
264.26998901367187
 30
0.0
 10
460.87246704101562
 20
266.177490234375
 30
0.0
 10
462.7099609375
 20
268.052490234375
 30
0.0
 10
464.57748413085937
 20
269.9024658203125
 30
0.0
 10
466.47247314453125
 20
271.72998046875
 30
0.0
 10
468.39248657226562
 20
273.5374755859375
 30
0.0
 10
470.12747192382812
 20
275.14248657226562
 30
0.0
 10
471.87246704101562
 20
276.739990234375
 30
0.0
 10
475.37246704101562
 20
279.93246459960937
 30
0.0
 10
477.11248779296875
 20
281.5374755859375
 30
0.0
 10
478.83746337890625
 20
283.157470703125
 30
0.0
 10
480.53997802734375
 20
284.7974853515625
 30
0.0
 10
482.21746826171875
 20
286.46246337890625
 30
0.0
 10
483.08746337890625
 20
287.35247802734375
 30
0.0
 10
483.93496704101562
 20
288.24249267578125
 30
0.0
 10
484.76248168945312
 20
289.13497924804688
 30
0.0
 10
485.56997680664062
 20
290.02996826171875
 30
0.0
 10
486.35247802734375
 20
290.927490234375
 30
0.0
 10
487.11495971679687
 20
291.82998657226563
 30
0.0
 10
487.85247802734375
 20
292.73748779296875
 30
0.0
 10
488.56497192382812
 20
293.64996337890625
 30
0.0
 10
489.25497436523437
 20
294.56747436523437
 30
0.0
 10
489.9224853515625
 20
295.49496459960937
 30
0.0
 10
490.56246948242187
 20
296.427490234375
 30
0.0
 10
491.17745971679687
 20
297.36996459960937
 30
0.0
 10
491.76748657226563
 20
298.32247924804688
 30
0.0
 10
492.33245849609375
 20
299.28497314453125
 30
0.0
 10
492.86996459960937
 20
300.25997924804687
 30
0.0
 10
493.37997436523437
 20
301.24496459960937
 30
0.0
 10
493.86248779296875
 20
302.24249267578125
 30
0.0
 10
494.31497192382812
 20
303.25497436523437
 30
0.0
 10
494.74246215820312
 20
304.27996826171875
 30
0.0
 10
495.13998413085937
 20
305.31997680664062
 30
0.0
 10
495.50747680664062
 20
306.37747192382813
 30
0.0
 10
495.844970703125
 20
307.44998168945312
 30
0.0
 10
496.15496826171875
 20
308.53997802734375
 30
0.0
 10
496.43246459960937
 20
309.64749145507812
 30
0.0
 10
496.67745971679687
 20
310.77496337890625
 30
0.0
 10
496.89248657226562
 20
311.91998291015625
 30
0.0
 10
497.07748413085937
 20
313.08746337890625
 30
0.0
 10
497.22747802734375
 20
314.27496337890625
 30
0.0
 10
497.344970703125
 20
315.4849853515625
 30
0.0
 10
497.42996215820312
 20
316.71746826171875
 30
0.0
 10
497.48248291015625
 20
317.97247314453125
 30
0.0
 10
497.49996948242187
 20
319.25247192382813
 30
0.0
 10
497.4749755859375
 20
320.31997680664062
 30
0.0
 10
497.39996337890625
 20
321.37997436523437
 30
0.0
 10
497.27496337890625
 20
322.43496704101562
 30
0.0
 10
497.10247802734375
 20
323.47998046875
 30
0.0
 10
496.88497924804687
 20
324.51498413085937
 30
0.0
 10
496.62246704101562
 20
325.53997802734375
 30
0.0
 10
496.31747436523437
 20
326.55499267578125
 30
0.0
 10
495.96746826171875
 20
327.55499267578125
 30
0.0
 10
495.57748413085937
 20
328.54248046875
 30
0.0
 10
495.14996337890625
 20
329.51248168945312
 30
0.0
 10
494.68246459960937
 20
330.469970703125
 30
0.0
 10
494.17745971679687
 20
331.407470703125
 30
0.0
 10
493.63497924804688
 20
332.32998657226562
 30
0.0
 10
493.05996704101562
 20
333.22998046875
 30
0.0
 10
492.44998168945312
 20
334.11248779296875
 30
0.0
 10
491.80996704101562
 20
334.97247314453125
 30
0.0
 10
491.13748168945312
 20
335.80996704101562
 30
0.0
 10
490.43746948242187
 20
336.62246704101562
 30
0.0
 10
489.70748901367187
 20
337.4124755859375
 30
0.0
 10
488.95248413085937
 20
338.177490234375
 30
0.0
 10
488.16998291015625
 20
338.9124755859375
 30
0.0
 10
487.36248779296875
 20
339.62246704101562
 30
0.0
 10
486.532470703125
 20
340.302490234375
 30
0.0
 10
485.68246459960937
 20
340.95498657226562
 30
0.0
 10
484.80996704101562
 20
341.57247924804687
 30
0.0
 10
483.91998291015625
 20
342.15997314453125
 30
0.0
 10
483.00997924804687
 20
342.7149658203125
 30
0.0
 10
482.0849609375
 20
343.2349853515625
 30
0.0
 10
481.14248657226562
 20
343.719970703125
 30
0.0
 10
480.18746948242187
 20
344.16748046875
 30
0.0
 10
479.219970703125
 20
344.57748413085937
 30
0.0
 10
478.23995971679687
 20
344.94998168945312
 30
0.0
 10
477.157470703125
 20
345.31246948242187
 30
0.0
 10
476.06497192382812
 20
345.62747192382812
 30
0.0
 10
474.96746826171875
 20
345.89248657226562
 30
0.0
 10
473.86495971679687
 20
346.10748291015625
 30
0.0
 10
472.75747680664062
 20
346.27249145507812
 30
0.0
 10
471.6474609375
 20
346.38748168945312
 30
0.0
 10
470.53497314453125
 20
346.45248413085937
 30
0.0
 10
469.4224853515625
 20
346.4649658203125
 30
0.0
 10
468.31246948242187
 20
346.42498779296875
 30
0.0
 10
467.20498657226562
 20
346.33248901367187
 30
0.0
 10
466.09747314453125
 20
346.18746948242187
 30
0.0
 10
464.99746704101562
 20
345.98748779296875
 30
0.0
 10
463.9024658203125
 20
345.7349853515625
 30
0.0
 10
462.81497192382812
 20
345.427490234375
 30
0.0
 10
461.73748779296875
 20
345.06246948242187
 30
0.0
 10
460.66748046875
 20
344.64248657226562
 30
0.0
 10
459.86996459960937
 20
344.28997802734375
 30
0.0
 10
459.09246826171875
 20
343.9124755859375
 30
0.0
 10
458.33248901367187
 20
343.50747680664062
 30
0.0
 10
457.5899658203125
 20
343.07998657226563
 30
0.0
 10
456.86495971679687
 20
342.62747192382812
 30
0.0
 10
456.157470703125
 20
342.15496826171875
 30
0.0
 10
455.46746826171875
 20
341.657470703125
 30
0.0
 10
454.79248046875
 20
341.13998413085937
 30
0.0
 10
454.13497924804687
 20
340.60247802734375
 30
0.0
 10
453.49746704101562
 20
340.04248046875
 30
0.0
 10
452.87246704101562
 20
339.46746826171875
 30
0.0
 10
452.26498413085937
 20
338.87246704101562
 30
0.0
 10
451.67498779296875
 20
338.25997924804687
 30
0.0
 10
451.0999755859375
 20
337.63247680664062
 30
0.0
 10
450.54248046875
 20
336.98748779296875
 30
0.0
 10
449.99996948242187
 20
336.32998657226562
 30
0.0
 10
449.99996948242187
 20
336.32998657226562
 30
0.0
 10
449.99996948242187
 20
336.32998657226562
 30
0.0
  0
LWPOLYLINE
  5
50
100
AcDbEntity
  8
0
 62
256
420
16777215
370
-1
 48
1.0
  6
CONTINUOUS
100
AcDbPolyline
 90
394
 70
0
 10
491.80496215820313
 20
311.93496704101562
 30
0.0
 10
491.42498779296875
 20
312.0274658203125
 30
0.0
 10
491.094970703125
 20
312.14749145507812
 30
0.0
 10
490.94998168945312
 20
312.219970703125
 30
0.0
 10
490.81997680664062
 20
312.2974853515625
 30
0.0
 10
490.70748901367187
 20
312.38247680664062
 30
0.0
 10
490.6099853515625
 20
312.47747802734375
 30
0.0
 10
490.52996826171875
 20
312.57998657226562
 30
0.0
 10
490.46746826171875
 20
312.68997192382812
 30
0.0
 10
490.4224853515625
 20
312.80746459960937
 30
0.0
 10
490.3974609375
 20
312.93246459960937
 30
0.0
 10
490.38998413085937
 20
313.06747436523437
 30
0.0
 10
490.40496826171875
 20
313.20999145507812
 30
0.0
 10
490.43997192382813
 20
313.36248779296875
 30
0.0
 10
490.49746704101562
 20
313.52249145507812
 30
0.0
 10
490.64248657226562
 20
313.89498901367187
 30
0.0
 10
490.76498413085937
 20
314.25247192382812
 30
0.0
 10
490.86495971679687
 20
314.5999755859375
 30
0.0
 10
490.94747924804687
 20
314.93746948242187
 30
0.0
 10
491.00747680664062
 20
315.25997924804687
 30
0.0
 10
491.04998779296875
 20
315.57247924804687
 30
0.0
 10
491.07498168945312
 20
315.86996459960937
 30
0.0
 10
491.07998657226563
 20
316.157470703125
 30
0.0
 10
491.06997680664062
 20
316.43496704101562
 30
0.0
 10
491.04248046875
 20
316.69747924804688
 30
0.0
 10
490.99996948242187
 20
316.94998168945312
 30
0.0
 10
490.94247436523437
 20
317.18997192382813
 30
0.0
 10
490.7874755859375
 20
317.63247680664062
 30
0.0
 10
490.57998657226562
 20
318.0274658203125
 30
0.0
 10
490.32998657226562
 20
318.37747192382812
 30
0.0
 10
490.0374755859375
 20
318.677490234375
 30
0.0
 10
489.7149658203125
 20
318.92999267578125
 30
0.0
 10
489.36248779296875
 20
319.13748168945312
 30
0.0
 10
488.98748779296875
 20
319.29498291015625
 30
0.0
 10
488.59747314453125
 20
319.407470703125
 30
0.0
 10
488.19747924804687
 20
319.47247314453125
 30
0.0
 10
487.78997802734375
 20
319.489990234375
 30
0.0
 10
487.38497924804687
 20
319.45999145507812
 30
0.0
 10
486.98748779296875
 20
319.38497924804687
 30
0.0
 10
486.5999755859375
 20
319.25997924804687
 30
0.0
 10
486.23248291015625
 20
319.0899658203125
 30
0.0
 10
485.88497924804687
 20
318.87496948242187
 30
0.0
 10
485.56997680664062
 20
318.61248779296875
 30
0.0
 10
485.28997802734375
 20
318.302490234375
 30
0.0
 10
485.0474853515625
 20
317.94747924804687
 30
0.0
 10
484.85498046875
 20
317.54498291015625
 30
0.0
 10
484.71246337890625
 20
317.094970703125
 30
0.0
 10
484.6624755859375
 20
316.85498046875
 30
0.0
 10
484.62747192382812
 20
316.60247802734375
 30
0.0
 10
484.60748291015625
 20
316.33746337890625
 30
0.0
 10
484.60748291015625
 20
316.05996704101562
 30
0.0
 10
484.62246704101562
 20
315.77249145507812
 30
0.0
 10
484.65496826171875
 20
315.4749755859375
 30
0.0
 10
484.70748901367187
 20
315.1624755859375
 30
0.0
 10
484.7774658203125
 20
314.84246826171875
 30
0.0
 10
484.86996459960937
 20
314.50747680664062
 30
0.0
 10
484.97998046875
 20
314.1624755859375
 30
0.0
 10
485.11495971679687
 20
313.80746459960937
 30
0.0
 10
485.26998901367187
 20
313.43997192382812
 30
0.0
 10
485.36248779296875
 20
313.19497680664062
 30
0.0
 10
485.3974609375
 20
312.95999145507812
 30
0.0
 10
485.37997436523437
 20
312.74996948242187
 30
0.0
 10
485.30996704101562
 20
312.55746459960937
 30
0.0
 10
485.19497680664062
 20
312.38748168945312
 30
0.0
 10
485.03497314453125
 20
312.2349853515625
 30
0.0
 10
484.8349609375
 20
312.10247802734375
 30
0.0
 10
484.594970703125
 20
311.98748779296875
 30
0.0
 10
484.31747436523437
 20
311.89248657226562
 30
0.0
 10
484.00997924804687
 20
311.81497192382812
 30
0.0
 10
483.6724853515625
 20
311.75247192382812
 30
0.0
 10
483.30746459960937
 20
311.70748901367187
 30
0.0
 10
482.91748046875
 20
311.67999267578125
 30
0.0
 10
482.50747680664062
 20
311.66497802734375
 30
0.0
 10
482.07748413085937
 20
311.66748046875
 30
0.0
 10
481.63247680664062
 20
311.68246459960937
 30
0.0
 10
480.7099609375
 20
311.75247192382812
 30
0.0
 10
479.75997924804687
 20
311.87246704101562
 30
0.0
 10
478.80496215820312
 20
312.03997802734375
 30
0.0
 10
477.86996459960937
 20
312.24746704101562
 30
0.0
 10
477.41748046875
 20
312.36749267578125
 30
0.0
 10
476.97747802734375
 20
312.49496459960937
 30
0.0
 10
476.55496215820312
 20
312.62997436523437
 30
0.0
 10
476.14996337890625
 20
312.77249145507812
 30
0.0
 10
475.76998901367187
 20
312.9224853515625
 30
0.0
 10
475.4124755859375
 20
313.07748413085937
 30
0.0
 10
475.08248901367187
 20
313.239990234375
 30
0.0
 10
474.78497314453125
 20
313.40997314453125
 30
0.0
 10
474.91998291015625
 20
313.0274658203125
 30
0.0
 10
475.05245971679687
 20
312.62246704101562
 30
0.0
 10
475.17996215820312
 20
312.20248413085937
 30
0.0
 10
475.30746459960938
 20
311.76748657226562
 30
0.0
 10
475.54498291015625
 20
310.8599853515625
 30
0.0
 10
475.76498413085937
 20
309.91998291015625
 30
0.0
 10
475.95748901367187
 20
308.96746826171875
 30
0.0
 10
476.12246704101562
 20
308.02496337890625
 30
0.0
 10
476.25247192382812
 20
307.10748291015625
 30
0.0
 10
476.30496215820312
 20
306.66497802734375
 30
0.0
 10
476.344970703125
 20
306.2349853515625
 30
0.0
 10
476.37747192382812
 20
305.82247924804687
 30
0.0
 10
476.39498901367187
 20
305.42999267578125
 30
0.0
 10
476.40496826171875
 20
305.05746459960937
 30
0.0
 10
476.39996337890625
 20
304.70999145507812
 30
0.0
 10
476.38247680664062
 20
304.38748168945312
 30
0.0
 10
476.35247802734375
 20
304.09246826171875
 30
0.0
 10
476.30996704101562
 20
303.82998657226562
 30
0.0
 10
476.24996948242187
 20
303.5999755859375
 30
0.0
 10
476.17745971679687
 20
303.407470703125
 30
0.0
 10
476.0899658203125
 20
303.25247192382812
 30
0.0
 10
475.9849853515625
 20
303.13748168945312
 30
0.0
 10
475.86248779296875
 20
303.06497192382812
 30
0.0
 10
475.7249755859375
 20
303.0374755859375
 30
0.0
 10
475.56997680664062
 20
303.05996704101562
 30
0.0
 10
475.39498901367187
 20
303.13247680664062
 30
0.0
 10
475.20248413085937
 20
303.25747680664062
 30
0.0
 10
474.92498779296875
 20
303.45748901367187
 30
0.0
 10
474.65496826171875
 20
303.62997436523437
 30
0.0
 10
474.39498901367187
 20
303.77496337890625
 30
0.0
 10
474.14248657226562
 20
303.89498901367187
 30
0.0
 10
473.89996337890625
 20
303.99249267578125
 30
0.0
 10
473.66748046875
 20
304.06497192382812
 30
0.0
 10
473.44497680664062
 20
304.114990234375
 30
0.0
 10
473.22998046875
 20
304.14248657226562
 30
0.0
 10
473.02496337890625
 20
304.14996337890625
 30
0.0
 10
472.82748413085937
 20
304.13748168945312
 30
0.0
 10
472.63998413085937
 20
304.10498046875
 30
0.0
 10
472.46246337890625
 20
304.05499267578125
 30
0.0
 10
472.29248046875
 20
303.98748779296875
 30
0.0
 10
472.13247680664062
 20
303.9024658203125
 30
0.0
 10
471.97998046875
 20
303.802490234375
 30
0.0
 10
471.83746337890625
 20
303.68746948242187
 30
0.0
 10
471.57748413085937
 20
303.41748046875
 30
0.0
 10
471.35498046875
 20
303.09747314453125
 30
0.0
 10
471.16998291015625
 20
302.73748779296875
 30
0.0
 10
471.01748657226562
 20
302.34246826171875
 30
0.0
 10
470.9024658203125
 20
301.91748046875
 30
0.0
 10
470.81997680664062
 20
301.4749755859375
 30
0.0
 10
470.77496337890625
 20
301.01748657226563
 30
0.0
 10
470.76498413085937
 20
300.552490234375
 30
0.0
 10
470.7874755859375
 20
300.0899658203125
 30
0.0
 10
470.84747314453125
 20
299.63247680664062
 30
0.0
 10
470.94247436523437
 20
299.19247436523437
 30
0.0
 10
471.06997680664062
 20
298.77249145507812
 30
0.0
 10
471.23248291015625
 20
298.37997436523437
 30
0.0
 10
471.42996215820312
 20
298.02249145507812
 30
0.0
 10
471.6624755859375
 20
297.70999145507812
 30
0.0
 10
471.92745971679687
 20
297.44497680664062
 30
0.0
 10
472.07498168945312
 20
297.33499145507812
 30
0.0
 10
472.22998046875
 20
297.23748779296875
 30
0.0
 10
472.39248657226562
 20
297.157470703125
 30
0.0
 10
472.56246948242187
 20
297.094970703125
 30
0.0
 10
472.74246215820313
 20
297.0474853515625
 30
0.0
 10
472.92996215820312
 20
297.01998901367187
 30
0.0
 10
473.12747192382812
 20
297.01248168945312
 30
0.0
 10
473.33248901367187
 20
297.02496337890625
 30
0.0
 10
473.5474853515625
 20
297.05746459960937
 30
0.0
 10
473.76748657226562
 20
297.11248779296875
 30
0.0
 10
473.99746704101562
 20
297.19247436523437
 30
0.0
 10
474.23748779296875
 20
297.29248046875
 30
0.0
 10
474.4849853515625
 20
297.41998291015625
 30
0.0
 10
474.73995971679687
 20
297.57247924804687
 30
0.0
 10
475.00247192382812
 20
297.75247192382812
 30
0.0
 10
475.27496337890625
 20
297.95748901367187
 30
0.0
 10
475.37997436523437
 20
298.03497314453125
 30
0.0
 10
475.47247314453125
 20
298.09246826171875
 30
0.0
 10
475.6474609375
 20
298.1624755859375
 30
0.0
 10
475.80746459960937
 20
298.17498779296875
 30
0.0
 10
475.95248413085937
 20
298.13748168945312
 30
0.0
 10
476.0849609375
 20
298.04998779296875
 30
0.0
 10
476.20248413085937
 20
297.91497802734375
 30
0.0
 10
476.30496215820312
 20
297.7349853515625
 30
0.0
 10
476.3974609375
 20
297.51498413085937
 30
0.0
 10
476.4749755859375
 20
297.25497436523437
 30
0.0
 10
476.53997802734375
 20
296.95999145507812
 30
0.0
 10
476.594970703125
 20
296.62997436523437
 30
0.0
 10
476.63748168945312
 20
296.26998901367187
 30
0.0
 10
476.66748046875
 20
295.88497924804687
 30
0.0
 10
476.68746948242187
 20
295.47247314453125
 30
0.0
 10
476.69497680664062
 20
295.0374755859375
 30
0.0
 10
476.69497680664062
 20
294.58499145507812
 30
0.0
 10
476.68246459960937
 20
294.114990234375
 30
0.0
 10
476.65997314453125
 20
293.63247680664062
 30
0.0
 10
476.5899658203125
 20
292.63247680664062
 30
0.0
 10
476.48248291015625
 20
291.61248779296875
 30
0.0
 10
476.344970703125
 20
290.5899658203125
 30
0.0
 10
476.17745971679687
 20
289.5899658203125
 30
0.0
 10
476.0849609375
 20
289.10498046875
 30
0.0
 10
475.98248291015625
 20
288.63497924804687
 30
0.0
 10
475.87747192382812
 20
288.17999267578125
 30
0.0
 10
475.76498413085937
 20
287.74249267578125
 30
0.0
 10
475.6474609375
 20
287.32998657226562
 30
0.0
 10
475.52496337890625
 20
286.93997192382812
 30
0.0
 10
475.23248291015625
 20
287.11749267578125
 30
0.0
 10
474.9024658203125
 20
287.28997802734375
 30
0.0
 10
474.54248046875
 20
287.45498657226562
 30
0.0
 10
474.157470703125
 20
287.614990234375
 30
0.0
 10
473.74746704101562
 20
287.76998901367187
 30
0.0
 10
473.31497192382812
 20
287.91748046875
 30
0.0
 10
472.86495971679687
 20
288.05746459960937
 30
0.0
 10
472.4024658203125
 20
288.18997192382812
 30
0.0
 10
471.44247436523437
 20
288.427490234375
 30
0.0
 10
470.45748901367187
 20
288.62496948242187
 30
0.0
 10
469.4749755859375
 20
288.77496337890625
 30
0.0
 10
468.51748657226562
 20
288.87496948242187
 30
0.0
 10
468.05746459960937
 20
288.90496826171875
 30
0.0
 10
467.6099853515625
 20
288.91998291015625
 30
0.0
 10
467.18246459960937
 20
288.91998291015625
 30
0.0
 10
466.7774658203125
 20
288.90496826171875
 30
0.0
 10
466.39498901367187
 20
288.86996459960937
 30
0.0
 10
466.03997802734375
 20
288.81997680664062
 30
0.0
 10
465.7149658203125
 20
288.75247192382812
 30
0.0
 10
465.42498779296875
 20
288.66748046875
 30
0.0
 10
465.1724853515625
 20
288.56246948242187
 30
0.0
 10
464.95748901367187
 20
288.43746948242187
 30
0.0
 10
464.78497314453125
 20
288.29248046875
 30
0.0
 10
464.657470703125
 20
288.12496948242187
 30
0.0
 10
464.57998657226562
 20
287.93746948242187
 30
0.0
 10
464.55496215820312
 20
287.7249755859375
 30
0.0
 10
464.58248901367187
 20
287.49249267578125
 30
0.0
 10
464.61746215820312
 20
287.36749267578125
 30
0.0
 10
464.66998291015625
 20
287.2349853515625
 30
0.0
 10
464.81997680664062
 20
286.864990234375
 30
0.0
 10
464.94998168945312
 20
286.50497436523437
 30
0.0
 10
465.05746459960937
 20
286.157470703125
 30
0.0
 10
465.14498901367187
 20
285.82247924804687
 30
0.0
 10
465.2099609375
 20
285.49996948242187
 30
0.0
 10
465.25747680664062
 20
285.18746948242187
 30
0.0
 10
465.28497314453125
 20
284.88998413085937
 30
0.0
 10
465.2974853515625
 20
284.60247802734375
 30
0.0
 10
465.28997802734375
 20
284.32498168945312
 30
0.0
 10
465.26748657226562
 20
284.06246948242187
 30
0.0
 10
465.22747802734375
 20
283.80996704101562
 30
0.0
 10
465.1724853515625
 20
283.56997680664062
 30
0.0
 10
465.0224609375
 20
283.12747192382812
 30
0.0
 10
464.81997680664062
 20
282.72998046875
 30
0.0
 10
464.57247924804687
 20
282.37997436523437
 30
0.0
 10
464.28497314453125
 20
282.07748413085937
 30
0.0
 10
463.96246337890625
 20
281.82498168945312
 30
0.0
 10
463.6099853515625
 20
281.61749267578125
 30
0.0
 10
463.2349853515625
 20
281.45498657226562
 30
0.0
 10
462.84246826171875
 20
281.34246826171875
 30
0.0
 10
462.43997192382812
 20
281.2774658203125
 30
0.0
 10
462.02996826171875
 20
281.25747680664062
 30
0.0
 10
461.61996459960937
 20
281.28497314453125
 30
0.0
 10
461.21746826171875
 20
281.3599853515625
 30
0.0
 10
460.82498168945312
 20
281.47998046875
 30
0.0
 10
460.44998168945312
 20
281.64749145507812
 30
0.0
 10
460.09747314453125
 20
281.86248779296875
 30
0.0
 10
459.7724609375
 20
282.12496948242187
 30
0.0
 10
459.48248291015625
 20
282.43246459960937
 30
0.0
 10
459.23248291015625
 20
282.78497314453125
 30
0.0
 10
459.0274658203125
 20
283.18496704101562
 30
0.0
 10
458.87496948242187
 20
283.63247680664062
 30
0.0
 10
458.81997680664062
 20
283.87496948242187
 30
0.0
 10
458.77996826171875
 20
284.12747192382812
 30
0.0
 10
458.75497436523437
 20
284.38998413085937
 30
0.0
 10
458.74496459960937
 20
284.66497802734375
 30
0.0
 10
458.75497436523437
 20
284.95248413085937
 30
0.0
 10
458.782470703125
 20
285.24996948242187
 30
0.0
 10
458.82748413085937
 20
285.56246948242187
 30
0.0
 10
458.89248657226563
 20
285.88247680664062
 30
0.0
 10
458.97747802734375
 20
286.2149658203125
 30
0.0
 10
459.08248901367187
 20
286.55996704101562
 30
0.0
 10
459.20748901367187
 20
286.91748046875
 30
0.0
 10
459.35748291015625
 20
287.28497314453125
 30
0.0
 10
459.45748901367187
 20
287.54498291015625
 30
0.0
 10
459.48748779296875
 20
287.7774658203125
 30
0.0
 10
459.46746826171875
 20
287.989990234375
 30
0.0
 10
459.39996337890625
 20
288.17999267578125
 30
0.0
 10
459.282470703125
 20
288.3499755859375
 30
0.0
 10
459.12496948242187
 20
288.49746704101562
 30
0.0
 10
458.92498779296875
 20
288.62747192382812
 30
0.0
 10
458.68746948242187
 20
288.73748779296875
 30
0.0
 10
458.41497802734375
 20
288.82998657226562
 30
0.0
 10
458.11248779296875
 20
288.90496826171875
 30
0.0
 10
457.7774658203125
 20
288.96246337890625
 30
0.0
 10
457.41748046875
 20
289.00247192382812
 30
0.0
 10
457.03497314453125
 20
289.0274658203125
 30
0.0
 10
456.62997436523437
 20
289.03497314453125
 30
0.0
 10
456.20748901367187
 20
289.02996826171875
 30
0.0
 10
455.76998901367187
 20
289.00997924804687
 30
0.0
 10
454.8599853515625
 20
288.92999267578125
 30
0.0
 10
453.92498779296875
 20
288.7974853515625
 30
0.0
 10
452.9849853515625
 20
288.62246704101562
 30
0.0
 10
452.06497192382813
 20
288.40496826171875
 30
0.0
 10
451.61996459960937
 20
288.282470703125
 30
0.0
 10
451.18496704101562
 20
288.1524658203125
 30
0.0
 10
450.76748657226562
 20
288.01248168945312
 30
0.0
 10
450.36996459960937
 20
287.86749267578125
 30
0.0
 10
449.99246215820313
 20
287.7149658203125
 30
0.0
 10
449.64248657226562
 20
287.55499267578125
 30
0.0
 10
449.31747436523437
 20
287.38998413085937
 30
0.0
 10
449.0224609375
 20
287.22247314453125
 30
0.0
 10
449.15997314453125
 20
286.8399658203125
 30
0.0
 10
449.29248046875
 20
286.43496704101562
 30
0.0
 10
449.4224853515625
 20
286.00997924804687
 30
0.0
 10
449.54998779296875
 20
285.56747436523437
 30
0.0
 10
449.7874755859375
 20
284.64248657226562
 30
0.0
 10
450.00497436523437
 20
283.68246459960937
 30
0.0
 10
450.19497680664062
 20
282.70248413085937
 30
0.0
 10
450.35498046875
 20
281.72747802734375
 30
0.0
 10
450.48248291015625
 20
280.7774658203125
 30
0.0
 10
450.52996826171875
 20
280.31747436523437
 30
0.0
 10
450.56997680664062
 20
279.86996459960937
 30
0.0
 10
450.59747314453125
 20
279.43997192382812
 30
0.0
 10
450.61495971679687
 20
279.0274658203125
 30
0.0
 10
450.61996459960937
 20
278.63998413085937
 30
0.0
 10
450.61248779296875
 20
278.27249145507812
 30
0.0
 10
450.59246826171875
 20
277.93496704101562
 30
0.0
 10
450.55996704101562
 20
277.62246704101562
 30
0.0
 10
450.51248168945312
 20
277.344970703125
 30
0.0
 10
450.45248413085937
 20
277.0999755859375
 30
0.0
 10
450.37496948242187
 20
276.89248657226563
 30
0.0
 10
450.28497314453125
 20
276.7249755859375
 30
0.0
 10
450.17745971679687
 20
276.5999755859375
 30
0.0
 10
450.05496215820312
 20
276.51748657226562
 30
0.0
 10
449.9124755859375
 20
276.48248291015625
 30
0.0
 10
449.75497436523437
 20
276.49746704101562
 30
0.0
 10
449.57998657226562
 20
276.56497192382812
 30
0.0
 10
449.38748168945312
 20
276.68746948242187
 30
0.0
 10
449.10748291015625
 20
276.88497924804687
 30
0.0
 10
448.83746337890625
 20
277.052490234375
 30
0.0
 10
448.57748413085937
 20
277.19747924804687
 30
0.0
 10
448.32498168945312
 20
277.31497192382812
 30
0.0
 10
448.08248901367187
 20
277.40997314453125
 30
0.0
 10
447.8499755859375
 20
277.48248291015625
 30
0.0
 10
447.62496948242187
 20
277.52996826171875
 30
0.0
 10
447.40997314453125
 20
277.55746459960937
 30
0.0
 10
447.20498657226562
 20
277.56246948242187
 30
0.0
 10
447.00747680664062
 20
277.54998779296875
 30
0.0
 10
446.81997680664062
 20
277.51748657226562
 30
0.0
 10
446.64248657226562
 20
277.46746826171875
 30
0.0
 10
446.47247314453125
 20
277.39996337890625
 30
0.0
 10
446.31246948242187
 20
277.31497192382812
 30
0.0
 10
446.1624755859375
 20
277.2149658203125
 30
0.0
 10
446.01998901367187
 20
277.0999755859375
 30
0.0
 10
445.76248168945312
 20
276.83248901367187
 30
0.0
 10
445.54248046875
 20
276.51498413085937
 30
0.0
 10
445.35748291015625
 20
276.157470703125
 30
0.0
 10
445.20748901367187
 20
275.76498413085937
 30
0.0
 10
445.09246826171875
 20
275.34747314453125
 30
0.0
 10
445.01498413085937
 20
274.907470703125
 30
0.0
 10
444.97247314453125
 20
274.45498657226562
 30
0.0
 10
444.96246337890625
 20
273.99746704101562
 30
0.0
 10
444.98995971679687
 20
273.53997802734375
 30
0.0
 10
445.05245971679687
 20
273.0899658203125
 30
0.0
 10
445.1474609375
 20
272.6524658203125
 30
0.0
 10
445.27996826171875
 20
272.239990234375
 30
0.0
 10
445.44497680664062
 20
271.85498046875
 30
0.0
 10
445.64498901367187
 20
271.50747680664062
 30
0.0
 10
445.87747192382812
 20
271.19998168945312
 30
0.0
 10
446.14498901367187
 20
270.94247436523437
 30
0.0
 10
446.28997802734375
 20
270.83499145507812
 30
0.0
 10
446.44497680664062
 20
270.74249267578125
 30
0.0
 10
446.6099853515625
 20
270.66497802734375
 30
0.0
 10
446.77996826171875
 20
270.60498046875
 30
0.0
 10
446.9599609375
 20
270.56246948242187
 30
0.0
 10
447.14996337890625
 20
270.53997802734375
 30
0.0
 10
447.344970703125
 20
270.53497314453125
 30
0.0
 10
447.54998779296875
 20
270.54998779296875
 30
0.0
 10
447.76498413085937
 20
270.58749389648437
 30
0.0
 10
447.9849853515625
 20
270.64498901367187
 30
0.0
 10
448.2149658203125
 20
270.72747802734375
 30
0.0
 10
448.45248413085937
 20
270.83248901367187
 30
0.0
 10
448.69998168945312
 20
270.96249389648437
 30
0.0
 10
448.95498657226562
 20
271.11749267578125
 30
0.0
 10
449.21746826171875
 20
271.29998779296875
 30
0.0
 10
449.48748779296875
 20
271.50997924804687
 30
0.0
 10
449.67745971679687
 20
271.64498901367187
 30
0.0
 10
449.84747314453125
 20
271.719970703125
 30
0.0
 10
450.00247192382813
 20
271.74496459960937
 30
0.0
 10
450.14498901367187
 20
271.7249755859375
 30
0.0
 10
450.27496337890625
 20
271.65997314453125
 30
0.0
 10
450.39498901367187
 20
271.552490234375
 30
0.0
 10
450.49996948242187
 20
271.40496826171875
 30
0.0
 10
450.594970703125
 20
271.219970703125
 30
0.0
 10
450.67745971679687
 20
270.99996948242187
 30
0.0
 10
450.74746704101562
 20
270.74746704101562
 30
0.0
 10
450.80746459960937
 20
270.46249389648438
 30
0.0
 10
450.85748291015625
 20
270.14999389648437
 30
0.0
 10
450.89498901367187
 20
269.81246948242187
 30
0.0
 10
450.92498779296875
 20
269.44998168945312
 30
0.0
 10
450.94247436523437
 20
269.06497192382812
 30
0.0
 10
450.95248413085937
 20
268.6624755859375
 30
0.0
 10
450.95248413085937
 20
268.24249267578125
 30
0.0
 10
450.94247436523437
 20
267.80746459960938
 30
0.0
 10
450.8974609375
 20
266.9024658203125
 30
0.0
 10
450.81997680664062
 20
265.96746826171875
 30
0.0
 10
450.7099609375
 20
265.01998901367187
 30
0.0
 10
450.56997680664062
 20
264.07748413085937
 30
0.0
 10
450.40496826171875
 20
263.157470703125
 30
0.0
 10
450.31246948242187
 20
262.71249389648437
 30
0.0
 10
450.2149658203125
 20
262.282470703125
 30
0.0
 10
450.11248779296875
 20
261.864990234375
 30
0.0
 10
450.00247192382813
 20
261.46746826171875
 30
0.0
  0
LWPOLYLINE
  5
51
100
AcDbEntity
  8
0
 62
256
420
16777215
370
-1
 48
1.0
  6
CONTINUOUS
100
AcDbPolyline
 90
414
 70
0
 10
423.71746826171875
 20
287.63998413085937
 30
0.0
 10
424.04248046875
 20
287.79248046875
 30
0.0
 10
424.38497924804687
 20
287.93746948242187
 30
0.0
 10
424.74746704101562
 20
288.07498168945312
 30
0.0
 10
425.12496948242187
 20
288.20498657226562
 30
0.0
 10
425.91998291015625
 20
288.43997192382812
 30
0.0
 10
426.74996948242187
 20
288.63748168945312
 30
0.0
 10
427.5999755859375
 20
288.79998779296875
 30
0.0
 10
428.44998168945312
 20
288.91998291015625
 30
0.0
 10
429.282470703125
 20
288.99249267578125
 30
0.0
 10
430.07998657226562
 20
289.01998901367187
 30
0.0
 10
430.46246337890625
 20
289.01498413085937
 30
0.0
 10
430.82748413085937
 20
288.99496459960937
 30
0.0
 10
431.17498779296875
 20
288.96246337890625
 30
0.0
 10
431.50247192382812
 20
288.91748046875
 30
0.0
 10
431.80996704101562
 20
288.85748291015625
 30
0.0
 10
432.09246826171875
 20
288.782470703125
 30
0.0
 10
432.34747314453125
 20
288.69247436523437
 30
0.0
 10
432.57498168945312
 20
288.58499145507812
 30
0.0
 10
432.76998901367187
 20
288.4649658203125
 30
0.0
 10
432.93246459960937
 20
288.32748413085937
 30
0.0
 10
433.05996704101562
 20
288.1724853515625
 30
0.0
 10
433.14996337890625
 20
287.99996948242187
 30
0.0
 10
433.20248413085937
 20
287.81246948242187
 30
0.0
 10
433.2099609375
 20
287.60498046875
 30
0.0
 10
433.17498779296875
 20
287.37997436523437
 30
0.0
 10
433.09246826171875
 20
287.13748168945312
 30
0.0
 10
432.94497680664062
 20
286.76748657226562
 30
0.0
 10
432.82247924804687
 20
286.40997314453125
 30
0.0
 10
432.71746826171875
 20
286.06246948242187
 30
0.0
 10
432.63497924804687
 20
285.72747802734375
 30
0.0
 10
432.57247924804687
 20
285.40496826171875
 30
0.0
 10
432.5274658203125
 20
285.094970703125
 30
0.0
 10
432.50247192382812
 20
284.79498291015625
 30
0.0
 10
432.49496459960937
 20
284.50747680664062
 30
0.0
 10
432.50497436523437
 20
284.23248291015625
 30
0.0
 10
432.52996826171875
 20
283.96746826171875
 30
0.0
 10
432.56997680664062
 20
283.71746826171875
 30
0.0
 10
432.62747192382812
 20
283.47747802734375
 30
0.0
 10
432.77996826171875
 20
283.032470703125
 30
0.0
 10
432.98248291015625
 20
282.63247680664062
 30
0.0
 10
433.23248291015625
 20
282.282470703125
 30
0.0
 10
433.51998901367187
 20
281.97998046875
 30
0.0
 10
433.84246826171875
 20
281.72247314453125
 30
0.0
 10
434.19247436523437
 20
281.51248168945312
 30
0.0
 10
434.56497192382812
 20
281.3499755859375
 30
0.0
 10
434.95498657226562
 20
281.2349853515625
 30
0.0
 10
435.35498046875
 20
281.16497802734375
 30
0.0
 10
435.75997924804687
 20
281.14248657226562
 30
0.0
 10
436.16497802734375
 20
281.16748046875
 30
0.0
 10
436.56246948242187
 20
281.239990234375
 30
0.0
 10
436.94747924804687
 20
281.3599853515625
 30
0.0
 10
437.31747436523437
 20
281.52496337890625
 30
0.0
 10
437.6624755859375
 20
281.73748779296875
 30
0.0
 10
437.97998046875
 20
281.99496459960937
 30
0.0
 10
438.25997924804688
 20
282.302490234375
 30
0.0
 10
438.50247192382812
 20
282.65496826171875
 30
0.0
 10
438.69747924804687
 20
283.052490234375
 30
0.0
 10
438.8399658203125
 20
283.49996948242187
 30
0.0
 10
438.89248657226562
 20
283.739990234375
 30
0.0
 10
438.92745971679687
 20
283.99249267578125
 30
0.0
 10
438.94747924804688
 20
284.25497436523437
 30
0.0
 10
438.94998168945312
 20
284.532470703125
 30
0.0
 10
438.93496704101562
 20
284.81747436523437
 30
0.0
 10
438.9024658203125
 20
285.11749267578125
 30
0.0
 10
438.85247802734375
 20
285.427490234375
 30
0.0
 10
438.782470703125
 20
285.74996948242187
 30
0.0
 10
438.69247436523437
 20
286.08248901367187
 30
0.0
 10
438.58248901367187
 20
286.427490234375
 30
0.0
 10
438.44998168945312
 20
286.78497314453125
 30
0.0
 10
438.29498291015625
 20
287.15496826171875
 30
0.0
 10
438.25247192382812
 20
287.28997802734375
 30
0.0
 10
438.21746826171875
 20
287.41748046875
 30
0.0
 10
438.18496704101562
 20
287.6524658203125
 30
0.0
 10
438.20748901367187
 20
287.864990234375
 30
0.0
 10
438.27996826171875
 20
288.05746459960937
 30
0.0
 10
438.4024658203125
 20
288.22998046875
 30
0.0
 10
438.56997680664062
 20
288.38497924804687
 30
0.0
 10
438.7774658203125
 20
288.51748657226562
 30
0.0
 10
439.0274658203125
 20
288.63497924804687
 30
0.0
 10
439.30996704101562
 20
288.73248291015625
 30
0.0
 10
439.62997436523437
 20
288.81246948242187
 30
0.0
 10
439.97747802734375
 20
288.87496948242187
 30
0.0
 10
440.35247802734375
 20
288.9224853515625
 30
0.0
 10
440.75247192382812
 20
288.95248413085937
 30
0.0
 10
441.1724853515625
 20
288.96746826171875
 30
0.0
 10
441.61248779296875
 20
288.96746826171875
 30
0.0
 10
442.06747436523437
 20
288.95498657226562
 30
0.0
 10
443.00997924804687
 20
288.88497924804688
 30
0.0
 10
443.97998046875
 20
288.76748657226562
 30
0.0
 10
444.95248413085937
 20
288.5999755859375
 30
0.0
 10
445.9024658203125
 20
288.39248657226563
 30
0.0
 10
446.36248779296875
 20
288.27249145507812
 30
0.0
 10
446.80746459960937
 20
288.14498901367187
 30
0.0
 10
447.2349853515625
 20
288.00997924804687
 30
0.0
 10
447.64248657226563
 20
287.864990234375
 30
0.0
 10
448.0274658203125
 20
287.71246337890625
 30
0.0
 10
448.38748168945312
 20
287.55499267578125
 30
0.0
 10
448.7149658203125
 20
287.38998413085937
 30
0.0
 10
449.01248168945312
 20
287.21746826171875
 30
0.0
 10
448.89248657226562
 20
287.61248779296875
 30
0.0
 10
448.76748657226562
 20
288.02496337890625
 30
0.0
 10
448.64996337890625
 20
288.46246337890625
 30
0.0
 10
448.53497314453125
 20
288.91998291015625
 30
0.0
 10
448.42498779296875
 20
289.39498901367187
 30
0.0
 10
448.32247924804687
 20
289.88247680664062
 30
0.0
 10
448.13748168945312
 20
290.88998413085937
 30
0.0
 10
447.97998046875
 20
291.9224853515625
 30
0.0
 10
447.85498046875
 20
292.95248413085937
 30
0.0
 10
447.76498413085937
 20
293.9649658203125
 30
0.0
 10
447.7349853515625
 20
294.45498657226562
 30
0.0
 10
447.7149658203125
 20
294.92999267578125
 30
0.0
 10
447.70498657226562
 20
295.38998413085937
 30
0.0
 10
447.70498657226562
 20
295.83248901367187
 30
0.0
 10
447.71746826171875
 20
296.24996948242187
 30
0.0
 10
447.73995971679687
 20
296.64248657226562
 30
0.0
 10
447.77496337890625
 20
297.00747680664062
 30
0.0
 10
447.82247924804687
 20
297.34246826171875
 30
0.0
 10
447.88247680664062
 20
297.64498901367187
 30
0.0
 10
447.95498657226562
 20
297.90997314453125
 30
0.0
 10
448.04248046875
 20
298.13497924804687
 30
0.0
 10
448.14248657226562
 20
298.31997680664062
 30
0.0
 10
448.25747680664062
 20
298.45748901367187
 30
0.0
 10
448.38748168945312
 20
298.54998779296875
 30
0.0
 10
448.532470703125
 20
298.59246826171875
 30
0.0
 10
448.69247436523437
 20
298.57998657226562
 30
0.0
 10
448.86746215820313
 20
298.51248168945312
 30
0.0
 10
448.9599609375
 20
298.45748901367187
 30
0.0
 10
449.05996704101562
 20
298.38748168945312
 30
0.0
 10
449.3349609375
 20
298.18246459960937
 30
0.0
 10
449.60247802734375
 20
298.00497436523437
 30
0.0
 10
449.86248779296875
 20
297.85247802734375
 30
0.0
 10
450.11248779296875
 20
297.72747802734375
 30
0.0
 10
450.35247802734375
 20
297.62496948242187
 30
0.0
 10
450.5849609375
 20
297.54998779296875
 30
0.0
 10
450.80746459960937
 20
297.49496459960937
 30
0.0
 10
451.0224609375
 20
297.46246337890625
 30
0.0
 10
451.22747802734375
 20
297.44998168945312
 30
0.0
 10
451.42498779296875
 20
297.45999145507812
 30
0.0
 10
451.61248779296875
 20
297.48748779296875
 30
0.0
 10
451.79248046875
 20
297.53497314453125
 30
0.0
 10
451.96246337890625
 20
297.5999755859375
 30
0.0
 10
452.12496948242187
 20
297.68246459960938
 30
0.0
 10
452.2774658203125
 20
297.77996826171875
 30
0.0
 10
452.41998291015625
 20
297.89248657226562
 30
0.0
 10
452.68246459960937
 20
298.157470703125
 30
0.0
 10
452.90997314453125
 20
298.4749755859375
 30
0.0
 10
453.0999755859375
 20
298.83248901367187
 30
0.0
 10
453.25497436523437
 20
299.22747802734375
 30
0.0
 10
453.37747192382812
 20
299.64996337890625
 30
0.0
 10
453.46246337890625
 20
300.09246826171875
 30
0.0
 10
453.51498413085937
 20
300.54998779296875
 30
0.0
 10
453.52996826171875
 20
301.01748657226563
 30
0.0
 10
453.50997924804687
 20
301.48248291015625
 30
0.0
 10
453.45748901367187
 20
301.93997192382812
 30
0.0
 10
453.36746215820312
 20
302.38748168945312
 30
0.0
 10
453.24246215820313
 20
302.80996704101562
 30
0.0
 10
453.0849609375
 20
303.20748901367187
 30
0.0
 10
452.88998413085937
 20
303.56997680664062
 30
0.0
 10
452.6624755859375
 20
303.88998413085937
 30
0.0
 10
452.3974609375
 20
304.15997314453125
 30
0.0
 10
452.25247192382812
 20
304.27496337890625
 30
0.0
 10
452.0999755859375
 20
304.37496948242187
 30
0.0
 10
451.93746948242187
 20
304.45999145507812
 30
0.0
 10
451.76748657226563
 20
304.5274658203125
 30
0.0
 10
451.58746337890625
 20
304.57748413085937
 30
0.0
 10
451.3974609375
 20
304.6099853515625
 30
0.0
 10
451.20248413085937
 20
304.62246704101562
 30
0.0
 10
450.99496459960937
 20
304.61248779296875
 30
0.0
 10
450.782470703125
 20
304.58499145507812
 30
0.0
 10
450.55746459960937
 20
304.53497314453125
 30
0.0
 10
450.32748413085937
 20
304.45999145507812
 30
0.0
 10
450.0849609375
 20
304.364990234375
 30
0.0
 10
449.83746337890625
 20
304.24249267578125
 30
0.0
 10
449.57998657226562
 20
304.094970703125
 30
0.0
 10
449.31246948242187
 20
303.9224853515625
 30
0.0
 10
449.0374755859375
 20
303.72247314453125
 30
0.0
 10
448.8499755859375
 20
303.59747314453125
 30
0.0
 10
448.67498779296875
 20
303.5274658203125
 30
0.0
 10
448.51498413085937
 20
303.50997924804687
 30
0.0
 10
448.36996459960937
 20
303.54248046875
 30
0.0
 10
448.23995971679687
 20
303.62246704101562
 30
0.0
 10
448.12496948242187
 20
303.74746704101562
 30
0.0
 10
448.0224609375
 20
303.9124755859375
 30
0.0
 10
447.93496704101562
 20
304.11996459960938
 30
0.0
 10
447.8599853515625
 20
304.36248779296875
 30
0.0
 10
447.7974853515625
 20
304.63998413085937
 30
0.0
 10
447.74746704101562
 20
304.94998168945312
 30
0.0
 10
447.7099609375
 20
305.28997802734375
 30
0.0
 10
447.68496704101562
 20
305.65496826171875
 30
0.0
 10
447.66998291015625
 20
306.04498291015625
 30
0.0
 10
447.66748046875
 20
306.45748901367187
 30
0.0
 10
447.67498779296875
 20
306.88748168945312
 30
0.0
 10
447.69247436523437
 20
307.33499145507812
 30
0.0
 10
447.719970703125
 20
307.79498291015625
 30
0.0
 10
447.80245971679687
 20
308.74746704101562
 30
0.0
 10
447.9224853515625
 20
309.7249755859375
 30
0.0
 10
448.07247924804687
 20
310.70748901367187
 30
0.0
 10
448.25247192382812
 20
311.6724853515625
 30
0.0
 10
448.45748901367187
 20
312.5999755859375
 30
0.0
 10
448.56747436523437
 20
313.04248046875
 30
0.0
 10
448.68496704101562
 20
313.469970703125
 30
0.0
 10
448.80746459960937
 20
313.87747192382812
 30
0.0
 10
448.93496704101562
 20
314.26248168945312
 30
0.0
 10
448.91998291015625
 20
314.26248168945312
 30
0.0
 10
448.87997436523437
 20
314.26248168945312
 30
0.0
 10
448.82498168945312
 20
314.26248168945312
 30
0.0
 10
448.75997924804687
 20
314.26248168945312
 30
0.0
 10
448.69497680664062
 20
314.26248168945312
 30
0.0
 10
448.63998413085937
 20
314.26248168945312
 30
0.0
 10
448.5999755859375
 20
314.26248168945312
 30
0.0
 10
448.5849609375
 20
314.26248168945312
 30
0.0
 10
448.2874755859375
 20
314.43246459960937
 30
0.0
 10
447.95748901367187
 20
314.59246826171875
 30
0.0
 10
447.59747314453125
 20
314.74496459960937
 30
0.0
 10
447.21246337890625
 20
314.88998413085937
 30
0.0
 10
446.80245971679687
 20
315.02496337890625
 30
0.0
 10
446.37496948242187
 20
315.14996337890625
 30
0.0
 10
445.92745971679687
 20
315.26498413085937
 30
0.0
 10
445.46746826171875
 20
315.36996459960938
 30
0.0
 10
444.51498413085937
 20
315.54998779296875
 30
0.0
 10
443.54248046875
 20
315.68246459960937
 30
0.0
 10
442.57247924804687
 20
315.76748657226562
 30
0.0
 10
441.62747192382812
 20
315.79998779296875
 30
0.0
 10
441.1724853515625
 20
315.79498291015625
 30
0.0
 10
440.73248291015625
 20
315.7774658203125
 30
0.0
 10
440.31246948242187
 20
315.74496459960937
 30
0.0
 10
439.9124755859375
 20
315.69497680664062
 30
0.0
 10
439.5374755859375
 20
315.63247680664062
 30
0.0
 10
439.18746948242187
 20
315.55499267578125
 30
0.0
 10
438.86996459960937
 20
315.45999145507812
 30
0.0
 10
438.58746337890625
 20
315.34747314453125
 30
0.0
 10
438.33746337890625
 20
315.219970703125
 30
0.0
 10
438.12997436523437
 20
315.07247924804688
 30
0.0
 10
437.96246337890625
 20
314.90997314453125
 30
0.0
 10
437.84246826171875
 20
314.72998046875
 30
0.0
 10
437.76748657226563
 20
314.52996826171875
 30
0.0
 10
437.74496459960937
 20
314.30996704101562
 30
0.0
 10
437.7774658203125
 20
314.07247924804687
 30
0.0
 10
437.81497192382813
 20
313.94497680664062
 30
0.0
 10
437.86746215820312
 20
313.81497192382812
 30
0.0
 10
438.0224609375
 20
313.44747924804687
 30
0.0
 10
438.15496826171875
 20
313.0899658203125
 30
0.0
 10
438.26498413085937
 20
312.74496459960937
 30
0.0
 10
438.35748291015625
 20
312.40997314453125
 30
0.0
 10
438.42745971679687
 20
312.08746337890625
 30
0.0
 10
438.47747802734375
 20
311.7774658203125
 30
0.0
 10
438.50997924804687
 20
311.47998046875
 30
0.0
 10
438.52496337890625
 20
311.19247436523437
 30
0.0
 10
438.52496337890625
 20
310.91497802734375
 30
0.0
 10
438.50497436523437
 20
310.6524658203125
 30
0.0
 10
438.47247314453125
 20
310.39996337890625
 30
0.0
 10
438.4224853515625
 20
310.15997314453125
 30
0.0
 10
438.282470703125
 20
309.71246337890625
 30
0.0
 10
438.0899658203125
 20
309.31246948242187
 30
0.0
 10
437.85247802734375
 20
308.95999145507812
 30
0.0
 10
437.57498168945312
 20
308.6524658203125
 30
0.0
 10
437.26248168945312
 20
308.39248657226563
 30
0.0
 10
436.9224853515625
 20
308.177490234375
 30
0.0
 10
436.55746459960937
 20
308.01248168945312
 30
0.0
 10
436.17498779296875
 20
307.89248657226562
 30
0.0
 10
435.782470703125
 20
307.81997680664062
 30
0.0
 10
435.38247680664062
 20
307.79248046875
 30
0.0
 10
434.98248291015625
 20
307.81497192382812
 30
0.0
 10
434.58746337890625
 20
307.88247680664062
 30
0.0
 10
434.20248413085937
 20
307.99746704101562
 30
0.0
 10
433.8349609375
 20
308.157470703125
 30
0.0
 10
433.48748779296875
 20
308.36749267578125
 30
0.0
 10
433.16998291015625
 20
308.62246704101562
 30
0.0
 10
432.88497924804687
 20
308.92498779296875
 30
0.0
 10
432.63998413085937
 20
309.27496337890625
 30
0.0
 10
432.43746948242187
 20
309.6724853515625
 30
0.0
 10
432.2874755859375
 20
310.11749267578125
 30
0.0
 10
432.23248291015625
 20
310.35748291015625
 30
0.0
 10
432.19247436523437
 20
310.6099853515625
 30
0.0
 10
432.16748046875
 20
310.87246704101562
 30
0.0
 10
432.157470703125
 20
311.14749145507812
 30
0.0
 10
432.16748046875
 20
311.43496704101562
 30
0.0
 10
432.19247436523437
 20
311.7349853515625
 30
0.0
 10
432.23748779296875
 20
312.04498291015625
 30
0.0
 10
432.29998779296875
 20
312.36749267578125
 30
0.0
 10
432.38247680664062
 20
312.70248413085937
 30
0.0
 10
432.4849853515625
 20
313.0474853515625
 30
0.0
 10
432.6099853515625
 20
313.407470703125
 30
0.0
 10
432.75497436523437
 20
313.7774658203125
 30
0.0
 10
432.8499755859375
 20
314.04248046875
 30
0.0
 10
432.87997436523437
 20
314.282470703125
 30
0.0
 10
432.8599853515625
 20
314.49996948242187
 30
0.0
 10
432.79248046875
 20
314.69998168945312
 30
0.0
 10
432.677490234375
 20
314.87997436523437
 30
0.0
 10
432.5224609375
 20
315.03997802734375
 30
0.0
 10
432.32498168945312
 20
315.18246459960937
 30
0.0
 10
432.09246826171875
 20
315.30746459960937
 30
0.0
 10
431.82498168945312
 20
315.41748046875
 30
0.0
 10
431.52496337890625
 20
315.50747680664062
 30
0.0
 10
431.19747924804687
 20
315.58248901367187
 30
0.0
 10
430.844970703125
 20
315.63998413085937
 30
0.0
 10
430.46746826171875
 20
315.68496704101562
 30
0.0
 10
430.06997680664062
 20
315.71246337890625
 30
0.0
 10
429.65496826171875
 20
315.7249755859375
 30
0.0
 10
429.2249755859375
 20
315.7249755859375
 30
0.0
 10
428.32998657226563
 20
315.67999267578125
 30
0.0
 10
427.40997314453125
 20
315.58499145507812
 30
0.0
 10
426.4849853515625
 20
315.43997192382812
 30
0.0
 10
425.57748413085937
 20
315.24996948242187
 30
0.0
 10
425.13748168945312
 20
315.13748168945312
 30
0.0
 10
424.7099609375
 20
315.01748657226562
 30
0.0
 10
424.2974853515625
 20
314.88497924804687
 30
0.0
 10
423.90496826171875
 20
314.74496459960937
 30
0.0
 10
423.532470703125
 20
314.59747314453125
 30
0.0
 10
423.18496704101562
 20
314.43997192382812
 30
0.0
 10
422.86248779296875
 20
314.27496337890625
 30
0.0
 10
422.56997680664062
 20
314.10247802734375
 30
0.0
 10
422.68997192382812
 20
313.70999145507812
 30
0.0
 10
422.80996704101562
 20
313.29248046875
 30
0.0
 10
422.927490234375
 20
312.85748291015625
 30
0.0
 10
423.04498291015625
 20
312.4024658203125
 30
0.0
 10
423.26748657226562
 20
311.45248413085937
 30
0.0
 10
423.47247314453125
 20
310.46746826171875
 30
0.0
 10
423.657470703125
 20
309.46246337890625
 30
0.0
 10
423.81747436523437
 20
308.46246337890625
 30
0.0
 10
423.94747924804687
 20
307.489990234375
 30
0.0
 10
423.99746704101562
 20
307.01998901367187
 30
0.0
 10
424.03997802734375
 20
306.56246948242187
 30
0.0
 10
424.07247924804687
 20
306.12496948242187
 30
0.0
 10
424.094970703125
 20
305.70498657226562
 30
0.0
 10
424.10498046875
 20
305.30746459960937
 30
0.0
 10
424.10498046875
 20
304.93746948242187
 30
0.0
 10
424.09246826171875
 20
304.59246826171875
 30
0.0
 10
424.06747436523437
 20
304.27996826171875
 30
0.0
 10
424.0274658203125
 20
303.99746704101562
 30
0.0
 10
423.9749755859375
 20
303.75497436523437
 30
0.0
 10
423.90496826171875
 20
303.5474853515625
 30
0.0
 10
423.82247924804687
 20
303.38247680664062
 30
0.0
 10
423.7249755859375
 20
303.25997924804687
 30
0.0
 10
423.6099853515625
 20
303.18496704101562
 30
0.0
 10
423.47747802734375
 20
303.157470703125
 30
0.0
 10
423.32748413085937
 20
303.18496704101562
 30
0.0
 10
423.15997314453125
 20
303.26248168945312
 30
0.0
 10
422.97247314453125
 20
303.39996337890625
 30
0.0
 10
422.70248413085937
 20
303.61749267578125
 30
0.0
 10
422.43997192382812
 20
303.80746459960937
 30
0.0
 10
422.18496704101562
 20
303.97247314453125
 30
0.0
 10
421.93746948242187
 20
304.1099853515625
 30
0.0
 10
421.69998168945312
 20
304.22247314453125
 30
0.0
 10
421.469970703125
 20
304.30996704101562
 30
0.0
 10
421.24996948242187
 20
304.37747192382812
 30
0.0
 10
421.03497314453125
 20
304.41998291015625
 30
0.0
 10
420.82998657226562
 20
304.43997192382812
 30
0.0
 10
420.63247680664062
 20
304.43997192382812
 30
0.0
 10
420.44497680664062
 20
304.41998291015625
 30
0.0
 10
420.26498413085937
 20
304.38247680664062
 30
0.0
 10
420.09246826171875
 20
304.32748413085937
 30
0.0
 10
419.927490234375
 20
304.25247192382812
 30
0.0
 10
419.7724609375
 20
304.1624755859375
 30
0.0
 10
419.62496948242187
 20
304.05746459960937
 30
0.0
 10
419.35748291015625
 20
303.80499267578125
 30
0.0
 10
419.12246704101562
 20
303.49996948242187
 30
0.0
 10
418.91998291015625
 20
303.14996337890625
 30
0.0
 10
418.75497436523437
 20
302.76498413085937
 30
0.0
 10
418.62246704101562
 20
302.3499755859375
 30
0.0
 10
418.52496337890625
 20
301.90997314453125
 30
0.0
 10
418.4599609375
 20
301.45498657226562
 30
0.0
 10
418.43246459960937
 20
300.99249267578125
 30
0.0
 10
418.43746948242187
 20
300.52496337890625
 30
0.0
 10
418.47998046875
 20
300.06497192382812
 30
0.0
 10
418.55746459960937
 20
299.614990234375
 30
0.0
 10
418.66998291015625
 20
299.18496704101562
 30
0.0
 10
418.81747436523437
 20
298.782470703125
 30
0.0
 10
418.99996948242187
 20
298.40997314453125
 30
0.0
 10
419.219970703125
 20
298.07998657226562
 30
0.0
 10
419.47747802734375
 20
297.7974853515625
 30
0.0
 10
419.61746215820312
 20
297.67498779296875
 30
0.0
 10
419.76748657226562
 20
297.56747436523437
 30
0.0
 10
419.927490234375
 20
297.47747802734375
 30
0.0
 10
420.09747314453125
 20
297.39996337890625
 30
0.0
 10
420.27496337890625
 20
297.34246826171875
 30
0.0
 10
420.46246337890625
 20
297.29998779296875
 30
0.0
 10
420.65997314453125
 20
297.27996826171875
 30
0.0
 10
420.864990234375
 20
297.2774658203125
 30
0.0
 10
421.07998657226562
 20
297.29498291015625
 30
0.0
 10
421.302490234375
 20
297.33499145507812
 30
0.0
 10
421.5374755859375
 20
297.39749145507812
 30
0.0
 10
421.77996826171875
 20
297.48248291015625
 30
0.0
 10
422.032470703125
 20
297.5899658203125
 30
0.0
 10
422.29248046875
 20
297.7249755859375
 30
0.0
 10
422.56497192382812
 20
297.88497924804687
 30
0.0
 10
422.844970703125
 20
298.07247924804688
 30
0.0
 10
423.02496337890625
 20
298.18246459960937
 30
0.0
 10
423.18997192382812
 20
298.24249267578125
 30
0.0
 10
423.3399658203125
 20
298.25997924804687
 30
0.0
 10
423.4749755859375
 20
298.23248291015625
 30
0.0
 10
423.59747314453125
 20
298.16497802734375
 30
0.0
 10
423.70748901367187
 20
298.05996704101562
 30
0.0
 10
423.802490234375
 20
297.91748046875
 30
0.0
 10
423.88497924804687
 20
297.739990234375
 30
0.0
 10
423.95748901367187
 20
297.52996826171875
 30
0.0
 10
424.01498413085937
 20
297.28997802734375
 30
0.0
 10
424.06246948242187
 20
297.02249145507812
 30
0.0
 10
424.0999755859375
 20
296.72747802734375
 30
0.0
 10
424.12496948242187
 20
296.407470703125
 30
0.0
 10
424.13748168945312
 20
296.06497192382812
 30
0.0
 10
424.14248657226562
 20
295.70248413085937
 30
0.0
 10
424.13748168945312
 20
295.31997680664062
 30
0.0
 10
424.12246704101562
 20
294.9224853515625
 30
0.0
 10
424.09747314453125
 20
294.50997924804687
 30
0.0
 10
424.01998901367187
 20
293.6524658203125
 30
0.0
 10
423.9124755859375
 20
292.75997924804687
 30
0.0
 10
423.77496337890625
 20
291.8499755859375
 30
0.0
 10
423.60748291015625
 20
290.93997192382812
 30
0.0
 10
423.41748046875
 20
290.04248046875
 30
0.0
 10
423.20498657226562
 20
289.17999267578125
 30
0.0
 10
423.0899658203125
 20
288.76498413085937
 30
0.0
 10
422.97247314453125
 20
288.36248779296875
 30
0.0
  0
LWPOLYLINE
  5
52
100
AcDbEntity
  8
0
 62
256
420
16777215
370
-1
 48
1.0
  6
CONTINUOUS
100
AcDbPolyline
 90
162
 70
0
 10
407.50247192382812
 20
318.93746948242187
 30
0.0
 10
407.69998168945312
 20
319.15997314453125
 30
0.0
 10
407.91497802734375
 20
319.35748291015625
 30
0.0
 10
408.1474609375
 20
319.52996826171875
 30
0.0
 10
408.39498901367187
 20
319.67999267578125
 30
0.0
 10
408.6524658203125
 20
319.80499267578125
 30
0.0
 10
408.9224853515625
 20
319.90496826171875
 30
0.0
 10
409.19747924804687
 20
319.98248291015625
 30
0.0
 10
409.47998046875
 20
320.03497314453125
 30
0.0
 10
409.76498413085937
 20
320.06246948242187
 30
0.0
 10
410.05496215820313
 20
320.06747436523437
 30
0.0
 10
410.3399658203125
 20
320.0474853515625
 30
0.0
 10
410.62496948242187
 20
320.00247192382812
 30
0.0
 10
410.90496826171875
 20
319.93496704101562
 30
0.0
 10
411.177490234375
 20
319.84246826171875
 30
0.0
 10
411.44247436523437
 20
319.7249755859375
 30
0.0
 10
411.69497680664062
 20
319.58499145507812
 30
0.0
 10
411.93746948242187
 20
319.41998291015625
 30
0.0
 10
412.1624755859375
 20
319.22998046875
 30
0.0
 10
412.36996459960937
 20
319.01748657226562
 30
0.0
 10
412.55996704101562
 20
318.77996826171875
 30
0.0
 10
412.72747802734375
 20
318.51998901367187
 30
0.0
 10
412.86996459960937
 20
318.23248291015625
 30
0.0
 10
412.989990234375
 20
317.92498779296875
 30
0.0
 10
413.07998657226562
 20
317.5899658203125
 30
0.0
 10
413.13998413085937
 20
317.23248291015625
 30
0.0
 10
413.16998291015625
 20
316.8499755859375
 30
0.0
 10
413.16497802734375
 20
316.44497680664062
 30
0.0
 10
413.12496948242187
 20
316.01498413085937
 30
0.0
 10
413.04498291015625
 20
315.55996704101562
 30
0.0
 10
412.927490234375
 20
315.08248901367187
 30
0.0
 10
412.76498413085937
 20
314.57998657226563
 30
0.0
 10
412.55996704101562
 20
314.05499267578125
 30
0.0
 10
412.47247314453125
 20
313.7974853515625
 30
0.0
 10
412.43997192382812
 20
313.56497192382812
 30
0.0
 10
412.45498657226562
 20
313.35247802734375
 30
0.0
 10
412.51998901367187
 20
313.1624755859375
 30
0.0
 10
412.62747192382812
 20
312.989990234375
 30
0.0
 10
412.7774658203125
 20
312.8399658203125
 30
0.0
 10
412.96746826171875
 20
312.70999145507812
 30
0.0
 10
413.19497680664062
 20
312.59747314453125
 30
0.0
 10
413.45498657226562
 20
312.50247192382812
 30
0.0
 10
413.74496459960937
 20
312.427490234375
 30
0.0
 10
414.06497192382812
 20
312.36996459960937
 30
0.0
 10
414.4124755859375
 20
312.32748413085937
 30
0.0
 10
414.77996826171875
 20
312.29998779296875
 30
0.0
 10
415.16998291015625
 20
312.28997802734375
 30
0.0
 10
415.57498168945312
 20
312.29498291015625
 30
0.0
 10
415.99746704101562
 20
312.31246948242187
 30
0.0
 10
416.87496948242187
 20
312.39248657226562
 30
0.0
 10
417.77996826171875
 20
312.51998901367187
 30
0.0
 10
418.68997192382812
 20
312.69497680664062
 30
0.0
 10
419.5849609375
 20
312.9124755859375
 30
0.0
 10
420.43997192382812
 20
313.16497802734375
 30
0.0
 10
420.84747314453125
 20
313.30499267578125
 30
0.0
 10
421.23748779296875
 20
313.44998168945312
 30
0.0
 10
421.60748291015625
 20
313.60498046875
 30
0.0
 10
421.95498657226562
 20
313.76498413085937
 30
0.0
 10
422.2774658203125
 20
313.92999267578125
 30
0.0
 10
422.56997680664062
 20
314.10247802734375
 30
0.0
 10
422.69497680664062
 20
314.48748779296875
 30
0.0
 10
422.81497192382812
 20
314.89498901367187
 30
0.0
 10
422.93246459960937
 20
315.32247924804688
 30
0.0
 10
423.04498291015625
 20
315.76498413085937
 30
0.0
 10
423.25247192382812
 20
316.68746948242187
 30
0.0
 10
423.43746948242187
 20
317.64749145507812
 30
0.0
 10
423.59747314453125
 20
318.61996459960937
 30
0.0
 10
423.7249755859375
 20
319.58746337890625
 30
0.0
 10
423.81747436523437
 20
320.52996826171875
 30
0.0
 10
423.8499755859375
 20
320.9849853515625
 30
0.0
 10
423.87496948242187
 20
321.42498779296875
 30
0.0
 10
423.88748168945312
 20
321.8499755859375
 30
0.0
 10
423.88998413085937
 20
322.25497436523437
 30
0.0
 10
423.88247680664062
 20
322.63748168945312
 30
0.0
 10
423.86248779296875
 20
322.99746704101562
 30
0.0
 10
423.82998657226562
 20
323.32998657226563
 30
0.0
 10
423.78497314453125
 20
323.63497924804687
 30
0.0
 10
423.72998046875
 20
323.907470703125
 30
0.0
 10
423.65997314453125
 20
324.14498901367187
 30
0.0
 10
423.57498168945312
 20
324.344970703125
 30
0.0
 10
423.47747802734375
 20
324.50497436523437
 30
0.0
 10
423.36746215820313
 20
324.62496948242187
 30
0.0
 10
423.239990234375
 20
324.69998168945312
 30
0.0
 10
423.09747314453125
 20
324.72998046875
 30
0.0
 10
422.93997192382812
 20
324.70748901367187
 30
0.0
 10
422.76748657226562
 20
324.63497924804687
 30
0.0
 10
422.57748413085937
 20
324.50747680664062
 30
0.0
 10
422.30496215820312
 20
324.302490234375
 30
0.0
 10
422.03997802734375
 20
324.12747192382812
 30
0.0
 10
421.782470703125
 20
323.97747802734375
 30
0.0
 10
421.53497314453125
 20
323.8499755859375
 30
0.0
 10
421.29498291015625
 20
323.74996948242187
 30
0.0
 10
421.06497192382812
 20
323.6724853515625
 30
0.0
 10
420.84246826171875
 20
323.61749267578125
 30
0.0
 10
420.62747192382812
 20
323.58499145507812
 30
0.0
 10
420.4224853515625
 20
323.57247924804688
 30
0.0
 10
420.2249755859375
 20
323.58248901367187
 30
0.0
 10
420.0374755859375
 20
323.6099853515625
 30
0.0
 10
419.85748291015625
 20
323.65496826171875
 30
0.0
 10
419.68496704101562
 20
323.71746826171875
 30
0.0
 10
419.5224609375
 20
323.7974853515625
 30
0.0
 10
419.36996459960937
 20
323.89248657226562
 30
0.0
 10
419.2249755859375
 20
324.00247192382812
 30
0.0
 10
418.9599609375
 20
324.26498413085937
 30
0.0
 10
418.72747802734375
 20
324.57498168945312
 30
0.0
 10
418.532470703125
 20
324.927490234375
 30
0.0
 10
418.37246704101562
 20
325.31497192382812
 30
0.0
 10
418.24496459960937
 20
325.72998046875
 30
0.0
 10
418.1524658203125
 20
326.16748046875
 30
0.0
 10
418.094970703125
 20
326.61749267578125
 30
0.0
 10
418.07247924804687
 20
327.07498168945312
 30
0.0
 10
418.08746337890625
 20
327.532470703125
 30
0.0
 10
418.13497924804687
 20
327.98248291015625
 30
0.0
 10
418.21746826171875
 20
328.41998291015625
 30
0.0
 10
418.3349609375
 20
328.83499145507812
 30
0.0
 10
418.48748779296875
 20
329.2249755859375
 30
0.0
 10
418.677490234375
 20
329.57748413085937
 30
0.0
 10
418.89996337890625
 20
329.88998413085937
 30
0.0
 10
419.15997314453125
 20
330.1524658203125
 30
0.0
 10
419.302490234375
 20
330.26248168945312
 30
0.0
 10
419.45498657226562
 20
330.3599853515625
 30
0.0
 10
419.614990234375
 20
330.43997192382812
 30
0.0
 10
419.78497314453125
 20
330.50497436523437
 30
0.0
 10
419.9649658203125
 20
330.54998779296875
 30
0.0
 10
420.1524658203125
 20
330.57998657226562
 30
0.0
 10
420.34747314453125
 20
330.58746337890625
 30
0.0
 10
420.552490234375
 20
330.57748413085937
 30
0.0
 10
420.76748657226563
 20
330.54498291015625
 30
0.0
 10
420.989990234375
 20
330.49246215820313
 30
0.0
 10
421.22247314453125
 20
330.41497802734375
 30
0.0
 10
421.46246337890625
 20
330.31497192382812
 30
0.0
 10
421.71246337890625
 20
330.19247436523437
 30
0.0
 10
421.97247314453125
 20
330.04248046875
 30
0.0
 10
422.239990234375
 20
329.86746215820312
 30
0.0
 10
422.51748657226562
 20
329.66497802734375
 30
0.0
 10
422.71746826171875
 20
329.54998779296875
 30
0.0
 10
422.89248657226562
 20
329.4749755859375
 30
0.0
 10
423.04998779296875
 20
329.45248413085937
 30
0.0
 10
423.18997192382812
 20
329.47747802734375
 30
0.0
 10
423.31497192382812
 20
329.5474853515625
 30
0.0
 10
423.4224853515625
 20
329.6624755859375
 30
0.0
 10
423.51748657226563
 20
329.81497192382813
 30
0.0
 10
423.59747314453125
 20
330.00747680664062
 30
0.0
 10
423.6624755859375
 20
330.2349853515625
 30
0.0
 10
423.7149658203125
 20
330.49746704101562
 30
0.0
 10
423.75497436523437
 20
330.7874755859375
 30
0.0
 10
423.77996826171875
 20
331.1099853515625
 30
0.0
 10
423.79498291015625
 20
331.45748901367187
 30
0.0
 10
423.7974853515625
 20
331.82748413085937
 30
0.0
 10
423.7874755859375
 20
332.219970703125
 30
0.0
 10
423.76748657226562
 20
332.62997436523437
 30
0.0
 10
423.73748779296875
 20
333.05746459960938
 30
0.0
 10
423.69747924804687
 20
333.49996948242187
 30
0.0
 10
423.5899658203125
 20
334.41497802734375
 30
0.0
 10
423.44747924804687
 20
335.3599853515625
 30
0.0
 10
423.2774658203125
 20
336.31246948242187
 30
0.0
 10
423.07748413085937
 20
337.25247192382812
 30
0.0
 10
422.85498046875
 20
338.16497802734375
 30
0.0
 10
422.73748779296875
 20
338.60498046875
 30
0.0
 10
422.614990234375
 20
339.0274658203125
 30
0.0
 10
422.48748779296875
 20
339.43496704101562
 30
0.0
 10
422.35748291015625
 20
339.82247924804687
 30
0.0
  0
LWPOLYLINE
  5
53
100
AcDbEntity
  8
0
 62
256
420
16777215
370
-1
 48
1.0
  6
CONTINUOUS
100
AcDbPolyline
 90
284
 70
0
 10
447.88247680664062
 20
330.75497436523437
 30
0.0
 10
447.6624755859375
 20
330.85247802734375
 30
0.0
 10
447.44998168945312
 20
330.93246459960937
 30
0.0
 10
447.24496459960937
 20
330.989990234375
 30
0.0
 10
447.0474853515625
 20
331.02996826171875
 30
0.0
 10
446.85748291015625
 20
331.04998779296875
 30
0.0
 10
446.67498779296875
 20
331.052490234375
 30
0.0
 10
446.49746704101562
 20
331.0374755859375
 30
0.0
 10
446.32748413085937
 20
331.00747680664062
 30
0.0
 10
446.16748046875
 20
330.95999145507812
 30
0.0
 10
446.01248168945312
 20
330.89996337890625
 30
0.0
 10
445.7249755859375
 20
330.7349853515625
 30
0.0
 10
445.4649658203125
 20
330.51748657226562
 30
0.0
 10
445.23748779296875
 20
330.25747680664062
 30
0.0
 10
445.0374755859375
 20
329.95498657226562
 30
0.0
 10
444.86746215820312
 20
329.61746215820313
 30
0.0
 10
444.72747802734375
 20
329.25247192382812
 30
0.0
 10
444.61746215820312
 20
328.86248779296875
 30
0.0
 10
444.53497314453125
 20
328.45748901367187
 30
0.0
 10
444.4849853515625
 20
328.0374755859375
 30
0.0
 10
444.4649658203125
 20
327.61248779296875
 30
0.0
 10
444.4749755859375
 20
327.18746948242187
 30
0.0
 10
444.51498413085937
 20
326.76498413085937
 30
0.0
 10
444.58746337890625
 20
326.35498046875
 30
0.0
 10
444.68997192382812
 20
325.95999145507812
 30
0.0
 10
444.82247924804687
 20
325.58746337890625
 30
0.0
 10
444.98748779296875
 20
325.24249267578125
 30
0.0
 10
445.18246459960937
 20
324.92999267578125
 30
0.0
 10
445.407470703125
 20
324.657470703125
 30
0.0
 10
445.66497802734375
 20
324.427490234375
 30
0.0
 10
445.95498657226562
 20
324.24746704101562
 30
0.0
 10
446.11248779296875
 20
324.177490234375
 30
0.0
 10
446.2774658203125
 20
324.12246704101562
 30
0.0
 10
446.44998168945312
 20
324.08248901367187
 30
0.0
 10
446.62997436523437
 20
324.05996704101562
 30
0.0
 10
446.81997680664062
 20
324.052490234375
 30
0.0
 10
447.01498413085937
 20
324.06246948242187
 30
0.0
 10
447.219970703125
 20
324.09246826171875
 30
0.0
 10
447.43246459960937
 20
324.13998413085937
 30
0.0
 10
447.6524658203125
 20
324.20748901367187
 30
0.0
 10
447.88247680664062
 20
324.29248046875
 30
0.0
 10
448.11996459960937
 20
324.4024658203125
 30
0.0
 10
448.36495971679687
 20
324.532470703125
 30
0.0
 10
448.61746215820313
 20
324.68246459960937
 30
0.0
 10
448.87747192382812
 20
324.85748291015625
 30
0.0
 10
449.07498168945312
 20
324.97747802734375
 30
0.0
 10
449.24996948242187
 20
325.0374755859375
 30
0.0
 10
449.40997314453125
 20
325.0474853515625
 30
0.0
 10
449.55245971679687
 20
325.00497436523437
 30
0.0
 10
449.67745971679687
 20
324.91748046875
 30
0.0
 10
449.7874755859375
 20
324.7874755859375
 30
0.0
 10
449.87997436523437
 20
324.61248779296875
 30
0.0
 10
449.9599609375
 20
324.39996337890625
 30
0.0
 10
450.0224609375
 20
324.14996337890625
 30
0.0
 10
450.07247924804687
 20
323.86749267578125
 30
0.0
 10
450.1099853515625
 20
323.552490234375
 30
0.0
 10
450.13247680664062
 20
323.20999145507812
 30
0.0
 10
450.14248657226562
 20
322.8399658203125
 30
0.0
 10
450.13998413085937
 20
322.44747924804688
 30
0.0
 10
450.12747192382812
 20
322.032470703125
 30
0.0
 10
450.10247802734375
 20
321.5999755859375
 30
0.0
 10
450.06747436523437
 20
321.1524658203125
 30
0.0
 10
450.0224609375
 20
320.68997192382812
 30
0.0
 10
449.9024658203125
 20
319.73748779296875
 30
0.0
 10
449.74746704101562
 20
318.75997924804688
 30
0.0
 10
449.56246948242187
 20
317.782470703125
 30
0.0
 10
449.3499755859375
 20
316.82247924804687
 30
0.0
 10
449.11248779296875
 20
315.9024658203125
 30
0.0
 10
448.98748779296875
 20
315.46246337890625
 30
0.0
 10
448.85748291015625
 20
315.04248046875
 30
0.0
 10
448.72247314453125
 20
314.63998413085937
 30
0.0
 10
448.5849609375
 20
314.26248168945312
 30
0.0
 10
448.5999755859375
 20
314.26248168945312
 30
0.0
 10
448.63998413085937
 20
314.26248168945312
 30
0.0
 10
448.69497680664062
 20
314.26248168945312
 30
0.0
 10
448.75997924804687
 20
314.26248168945312
 30
0.0
 10
448.82498168945312
 20
314.26248168945312
 30
0.0
 10
448.87997436523437
 20
314.26248168945312
 30
0.0
 10
448.91998291015625
 20
314.26248168945312
 30
0.0
 10
448.93496704101562
 20
314.26248168945312
 30
0.0
 10
449.23248291015625
 20
314.42498779296875
 30
0.0
 10
449.55996704101562
 20
314.58248901367187
 30
0.0
 10
449.91497802734375
 20
314.72998046875
 30
0.0
 10
450.29248046875
 20
314.87496948242187
 30
0.0
 10
450.69497680664062
 20
315.00997924804687
 30
0.0
 10
451.11495971679687
 20
315.13748168945312
 30
0.0
 10
451.54998779296875
 20
315.25497436523437
 30
0.0
 10
451.99996948242187
 20
315.364990234375
 30
0.0
 10
452.92498779296875
 20
315.55746459960937
 30
0.0
 10
453.87246704101562
 20
315.70748901367187
 30
0.0
 10
454.81246948242187
 20
315.80996704101562
 30
0.0
 10
455.72747802734375
 20
315.86248779296875
 30
0.0
 10
456.16497802734375
 20
315.86996459960937
 30
0.0
 10
456.5899658203125
 20
315.864990234375
 30
0.0
 10
456.99746704101562
 20
315.84246826171875
 30
0.0
 10
457.38247680664062
 20
315.80746459960937
 30
0.0
 10
457.74246215820312
 20
315.75497436523437
 30
0.0
 10
458.07748413085937
 20
315.68746948242187
 30
0.0
 10
458.38247680664062
 20
315.60247802734375
 30
0.0
 10
458.65496826171875
 20
315.50247192382812
 30
0.0
 10
458.89248657226563
 20
315.38497924804687
 30
0.0
 10
459.0899658203125
 20
315.24746704101562
 30
0.0
 10
459.24996948242187
 20
315.094970703125
 30
0.0
 10
459.36248779296875
 20
314.91998291015625
 30
0.0
 10
459.42996215820313
 20
314.72747802734375
 30
0.0
 10
459.44747924804687
 20
314.51748657226562
 30
0.0
 10
459.41497802734375
 20
314.282470703125
 30
0.0
 10
459.32498168945312
 20
314.02996826171875
 30
0.0
 10
459.16998291015625
 20
313.66497802734375
 30
0.0
 10
459.03997802734375
 20
313.31246948242187
 30
0.0
 10
458.92745971679687
 20
312.969970703125
 30
0.0
 10
458.83746337890625
 20
312.63748168945312
 30
0.0
 10
458.76748657226562
 20
312.31747436523437
 30
0.0
 10
458.71746826171875
 20
312.00747680664062
 30
0.0
 10
458.68496704101562
 20
311.70999145507812
 30
0.0
 10
458.6724853515625
 20
311.4224853515625
 30
0.0
 10
458.67498779296875
 20
311.14749145507812
 30
0.0
 10
458.69497680664062
 20
310.88247680664062
 30
0.0
 10
458.72998046875
 20
310.62997436523437
 30
0.0
 10
458.77996826171875
 20
310.38748168945312
 30
0.0
 10
458.9224853515625
 20
309.93746948242187
 30
0.0
 10
459.11746215820312
 20
309.532470703125
 30
0.0
 10
459.35748291015625
 20
309.1724853515625
 30
0.0
 10
459.63748168945312
 20
308.85748291015625
 30
0.0
 10
459.95248413085937
 20
308.5899658203125
 30
0.0
 10
460.29498291015625
 20
308.36749267578125
 30
0.0
 10
460.6624755859375
 20
308.18997192382812
 30
0.0
 10
461.0474853515625
 20
308.05996704101562
 30
0.0
 10
461.44247436523437
 20
307.9749755859375
 30
0.0
 10
461.844970703125
 20
307.93997192382812
 30
0.0
 10
462.24996948242187
 20
307.94998168945312
 30
0.0
 10
462.6474609375
 20
308.00497436523437
 30
0.0
 10
463.032470703125
 20
308.1099853515625
 30
0.0
 10
463.40496826171875
 20
308.26248168945312
 30
0.0
 10
463.75247192382812
 20
308.46246337890625
 30
0.0
 10
464.07247924804687
 20
308.70748901367187
 30
0.0
 10
464.35748291015625
 20
309.00497436523437
 30
0.0
 10
464.60498046875
 20
309.34747314453125
 30
0.0
 10
464.80746459960937
 20
309.739990234375
 30
0.0
 10
464.9599609375
 20
310.17999267578125
 30
0.0
 10
465.01498413085937
 20
310.41748046875
 30
0.0
 10
465.05496215820312
 20
310.66748046875
 30
0.0
 10
465.07998657226562
 20
310.92999267578125
 30
0.0
 10
465.08746337890625
 20
311.20498657226562
 30
0.0
 10
465.07998657226562
 20
311.49249267578125
 30
0.0
 10
465.05245971679687
 20
311.79248046875
 30
0.0
 10
465.00747680664062
 20
312.10498046875
 30
0.0
 10
464.94497680664062
 20
312.42999267578125
 30
0.0
 10
464.86248779296875
 20
312.76498413085937
 30
0.0
 10
464.75747680664062
 20
313.114990234375
 30
0.0
 10
464.63247680664062
 20
313.47747802734375
 30
0.0
 10
464.4849853515625
 20
313.8499755859375
 30
0.0
 10
464.40997314453125
 20
314.11749267578125
 30
0.0
 10
464.37997436523437
 20
314.35247802734375
 30
0.0
 10
464.4024658203125
 20
314.56246948242187
 30
0.0
 10
464.47247314453125
 20
314.74996948242187
 30
0.0
 10
464.58746337890625
 20
314.91748046875
 30
0.0
 10
464.74496459960937
 20
315.05996704101562
 30
0.0
 10
464.94497680664062
 20
315.18246459960937
 30
0.0
 10
465.17996215820313
 20
315.2874755859375
 30
0.0
 10
465.45248413085937
 20
315.36996459960938
 30
0.0
 10
465.75497436523437
 20
315.43246459960937
 30
0.0
 10
466.08746337890625
 20
315.47747802734375
 30
0.0
 10
466.44497680664062
 20
315.50747680664062
 30
0.0
 10
466.82498168945312
 20
315.51748657226563
 30
0.0
 10
467.22747802734375
 20
315.51248168945312
 30
0.0
 10
467.6474609375
 20
315.489990234375
 30
0.0
 10
468.08248901367187
 20
315.45498657226562
 30
0.0
 10
468.9849853515625
 20
315.34246826171875
 30
0.0
 10
469.91497802734375
 20
315.17498779296875
 30
0.0
 10
470.84747314453125
 20
314.9649658203125
 30
0.0
 10
471.76248168945312
 20
314.71246337890625
 30
0.0
 10
472.20498657226562
 20
314.57247924804687
 30
0.0
 10
472.63497924804687
 20
314.42498779296875
 30
0.0
 10
473.04998779296875
 20
314.27249145507812
 30
0.0
 10
473.44497680664062
 20
314.1099853515625
 30
0.0
 10
473.81997680664062
 20
313.94247436523437
 30
0.0
 10
474.16998291015625
 20
313.76748657226562
 30
0.0
 10
474.49246215820312
 20
313.5899658203125
 30
0.0
 10
474.78497314453125
 20
313.40997314453125
 30
0.0
 10
474.9224853515625
 20
313.7874755859375
 30
0.0
 10
475.05746459960937
 20
314.18746948242187
 30
0.0
 10
475.18997192382812
 20
314.60498046875
 30
0.0
 10
475.31747436523437
 20
315.03997802734375
 30
0.0
 10
475.55746459960937
 20
315.94998168945312
 30
0.0
 10
475.7724609375
 20
316.89749145507812
 30
0.0
 10
475.96246337890625
 20
317.86248779296875
 30
0.0
 10
476.12246704101562
 20
318.82247924804687
 30
0.0
 10
476.24496459960937
 20
319.75747680664062
 30
0.0
 10
476.29248046875
 20
320.21246337890625
 30
0.0
 10
476.32998657226562
 20
320.6524658203125
 30
0.0
 10
476.35748291015625
 20
321.07498168945312
 30
0.0
 10
476.37246704101562
 20
321.48248291015625
 30
0.0
 10
476.37747192382812
 20
321.86749267578125
 30
0.0
 10
476.36746215820312
 20
322.22747802734375
 30
0.0
 10
476.34747314453125
 20
322.56246948242187
 30
0.0
 10
476.31246948242187
 20
322.86996459960937
 30
0.0
 10
476.26498413085937
 20
323.14749145507812
 30
0.0
 10
476.20248413085937
 20
323.38998413085937
 30
0.0
 10
476.12496948242187
 20
323.594970703125
 30
0.0
 10
476.032470703125
 20
323.76498413085937
 30
0.0
 10
475.92498779296875
 20
323.89248657226562
 30
0.0
 10
475.79998779296875
 20
323.9749755859375
 30
0.0
 10
475.657470703125
 20
324.01248168945312
 30
0.0
 10
475.49996948242187
 20
324.00247192382812
 30
0.0
 10
475.32247924804687
 20
323.94247436523437
 30
0.0
 10
475.12997436523437
 20
323.82748413085937
 30
0.0
 10
474.8499755859375
 20
323.64248657226562
 30
0.0
 10
474.57748413085937
 20
323.48248291015625
 30
0.0
 10
474.31747436523437
 20
323.3499755859375
 30
0.0
 10
474.06497192382812
 20
323.24249267578125
 30
0.0
 10
473.81997680664062
 20
323.157470703125
 30
0.0
 10
473.58746337890625
 20
323.09747314453125
 30
0.0
 10
473.36248779296875
 20
323.05996704101562
 30
0.0
 10
473.1474609375
 20
323.04498291015625
 30
0.0
 10
472.94247436523437
 20
323.0474853515625
 30
0.0
 10
472.74746704101562
 20
323.07247924804687
 30
0.0
 10
472.55996704101562
 20
323.114990234375
 30
0.0
 10
472.38247680664062
 20
323.177490234375
 30
0.0
 10
472.21246337890625
 20
323.25497436523437
 30
0.0
 10
472.05245971679687
 20
323.3499755859375
 30
0.0
 10
471.9024658203125
 20
323.45999145507812
 30
0.0
 10
471.76248168945312
 20
323.58499145507812
 30
0.0
 10
471.50497436523437
 20
323.87496948242187
 30
0.0
 10
471.2874755859375
 20
324.20999145507812
 30
0.0
 10
471.10498046875
 20
324.58746337890625
 30
0.0
 10
470.95748901367187
 20
324.99746704101562
 30
0.0
 10
470.844970703125
 20
325.43496704101562
 30
0.0
 10
470.76998901367187
 20
325.88998413085937
 30
0.0
 10
470.72998046875
 20
326.35748291015625
 30
0.0
 10
470.7249755859375
 20
326.82998657226562
 30
0.0
 10
470.75497436523437
 20
327.29998779296875
 30
0.0
 10
470.81747436523437
 20
327.75997924804687
 30
0.0
 10
470.91748046875
 20
328.20498657226562
 30
0.0
 10
471.04998779296875
 20
328.62747192382812
 30
0.0
 10
471.21746826171875
 20
329.01748657226562
 30
0.0
 10
471.41998291015625
 20
329.37246704101562
 30
0.0
 10
471.65496826171875
 20
329.67996215820312
 30
0.0
 10
471.92498779296875
 20
329.93746948242187
 30
0.0
 10
472.07247924804687
 20
330.04498291015625
 30
0.0
 10
472.22747802734375
 20
330.13497924804687
 30
0.0
 10
472.39248657226562
 20
330.21246337890625
 30
0.0
 10
472.56497192382812
 20
330.26998901367187
 30
0.0
 10
472.74496459960937
 20
330.30746459960938
 30
0.0
 10
472.93246459960937
 20
330.32998657226562
 30
0.0
 10
473.12997436523437
 20
330.32998657226562
 30
0.0
 10
473.3349609375
 20
330.30996704101562
 30
0.0
 10
473.5474853515625
 20
330.26748657226562
 30
0.0
 10
473.76998901367187
 20
330.20248413085937
 30
0.0
 10
473.99996948242187
 20
330.11248779296875
 30
0.0
 10
474.23748779296875
 20
329.99996948242187
 30
0.0
 10
474.48248291015625
 20
329.86248779296875
 30
0.0
 10
474.73748779296875
 20
329.69747924804687
 30
0.0
 10
474.99996948242187
 20
329.50747680664062
 30
0.0
 10
475.26998901367187
 20
329.2874755859375
 30
0.0
 10
475.36495971679687
 20
329.2149658203125
 30
0.0
 10
475.45498657226563
 20
329.15496826171875
 30
0.0
 10
475.62747192382812
 20
329.08248901367187
 30
0.0
 10
475.782470703125
 20
329.06497192382812
 30
0.0
 10
475.92498779296875
 20
329.10247802734375
 30
0.0
 10
476.05245971679687
 20
329.18997192382812
 30
0.0
 10
476.16748046875
 20
329.32498168945312
 30
0.0
 10
476.26998901367187
 20
329.50747680664062
 30
0.0
 10
476.35748291015625
 20
329.73248291015625
 30
0.0
 10
476.43246459960937
 20
329.99496459960937
 30
0.0
 10
476.49746704101562
 20
330.2974853515625
 30
0.0
 10
476.54998779296875
 20
330.63247680664062
 30
0.0
 10
476.5899658203125
 20
330.99996948242187
 30
0.0
 10
476.61996459960937
 20
331.39498901367187
 30
0.0
 10
476.63748168945312
 20
331.81497192382812
 30
0.0
 10
476.6474609375
 20
332.25997924804687
 30
0.0
 10
476.64498901367187
 20
332.7249755859375
 30
0.0
 10
476.63247680664062
 20
333.20498657226563
 30
0.0
 10
476.61248779296875
 20
333.70248413085937
 30
0.0
 10
476.54498291015625
 20
334.7249755859375
 30
0.0
 10
476.44247436523437
 20
335.77249145507812
 30
0.0
 10
476.30996704101562
 20
336.82247924804687
 30
0.0
 10
476.14996337890625
 20
337.8499755859375
 30
0.0
 10
476.05996704101562
 20
338.34747314453125
 30
0.0
 10
475.96246337890625
 20
338.83248901367187
 30
0.0
 10
475.86248779296875
 20
339.302490234375
 30
0.0
 10
475.75497436523437
 20
339.74996948242187
 30
0.0
 10
475.64498901367187
 20
340.177490234375
 30
0.0
 10
475.5274658203125
 20
340.57748413085937
 30
0.0
  0
ENDSEC
  0
SECTION
  2
OBJECTS
  0
DICTIONARY
  5
C
100
AcDbDictionary
280
0
281
1
  3
ACAD_GROUP
350
D
  3
ACAD_LAYOUT
350
1A
  3
ACAD_MLINESTYLE
350
17
  3
ACAD_PLOTSETTINGS
350
19
  3
ACAD_PLOTSTYLENAME
350
E
  3
AcDbVariableDictionary
350
54
  0
DICTIONARY
  5
D
100
AcDbDictionary
280
0
281
1
  0
ACDBDICTIONARYWDFLT
  5
E
100
AcDbDictionary
281
1
  3
Normal
350
F
100
AcDbDictionaryWithDefault
340
F
  0
ACDBPLACEHOLDER
  5
F
  0
DICTIONARY
  5
17
100
AcDbDictionary
280
0
281
1
  3
Standard
350
18
  0
MLINESTYLE
  5
18
100
AcDbMlineStyle
  2
STANDARD
 70
0
  3

 62
256
 51
90.0
 52
90.0
 71
2
 49
0.5
 62
256
  6
BYLAYER
 49
-0.5
 62
256
  6
BYLAYER
  0
DICTIONARY
  5
19
100
AcDbDictionary
280
0
281
1
  0
DICTIONARY
  5
1A
100
AcDbDictionary
281
1
  3
Layout1
350
1E
  3
Layout2
350
26
  3
Model
350
22
  0
LAYOUT
  5
1E
100
AcDbPlotSettings
  1

  2
none_device
  4

  6

 40
0.0
 41
0.0
 42
0.0
 43
0.0
 44
0.0
 45
0.0
 46
0.0
 47
0.0
 48
0.0
 49
0.0
140
0.0
141
0.0
142
1.0
143
1.0
 70
688
 72
0
 73
0
 74
5
  7

 75
16
147
1.0
148
0.0
149
0.0
100
AcDbLayout
  1
Layout1
 70
1
 71
1
 10
0.0
 20
0.0
 11
420.0
 21
297.0
 12
0.0
 22
0.0
 32
0.0
 14
100000000000000000000.0
 24
100000000000000000000.0
 34
100000000000000000000.0
 15
-100000000000000000000.0
 25
-100000000000000000000.0
 35
-100000000000000000000.0
146
0.0
 13
0.0
 23
0.0
 33
0.0
 16
1.0
 26
0.0
 36
0.0
 17
0.0
 27
1.0
 37
0.0
 76
0
330
1B
  0
LAYOUT
  5
22
100
AcDbPlotSettings
  1

  2
none_device
  4

  6

 40
0.0
 41
0.0
 42
0.0
 43
0.0
 44
0.0
 45
0.0
 46
0.0
 47
0.0
 48
0.0
 49
0.0
140
0.0
141
0.0
142
1.0
143
1.0
 70
1712
 72
0
 73
0
 74
0
  7

 75
0
147
1.0
148
0.0
149
0.0
100
AcDbLayout
  1
Model
 70
1
 71
0
 10
0.0
 20
0.0
 11
12.0
 21
9.0
 12
0.0
 22
0.0
 32
0.0
 14
0.0
 24
0.0
 34
0.0
 15
0.0
 25
0.0
 35
0.0
146
0.0
 13
0.0
 23
0.0
 33
0.0
 16
1.0
 26
0.0
 36
0.0
 17
0.0
 27
1.0
 37
0.0
 76
0
330
1F
  0
LAYOUT
  5
26
100
AcDbPlotSettings
  1

  2
none_device
  4

  6

 40
0.0
 41
0.0
 42
0.0
 43
0.0
 44
0.0
 45
0.0
 46
0.0
 47
0.0
 48
0.0
 49
0.0
140
0.0
141
0.0
142
1.0
143
1.0
 70
688
 72
0
 73
0
 74
5
  7

 75
16
147
1.0
148
0.0
149
0.0
100
AcDbLayout
  1
Layout2
 70
1
 71
2
 10
0.0
 20
0.0
 11
12.0
 21
9.0
 12
0.0
 22
0.0
 32
0.0
 14
0.0
 24
0.0
 34
0.0
 15
0.0
 25
0.0
 35
0.0
146
0.0
 13
0.0
 23
0.0
 33
0.0
 16
1.0
 26
0.0
 36
0.0
 17
0.0
 27
1.0
 37
0.0
 76
0
330
23
  0
DICTIONARY
  5
54
100
AcDbDictionary
281
1
  3
DIMASSOC
350
56
  3
HIDETEXT
350
55
  0
DICTIONARYVAR
  5
55
100
DictionaryVariables
280
0
  1
2
  0
DICTIONARYVAR
  5
56
100
DictionaryVariables
280
0
  1
1
  0
ENDSEC
  0
EOF
